<svg id="id-svg" width="662" height="700" viewBox="0 0 662 700" fill="none" xmlns="http://www.w3.org/2000/svg">
<g clip-path="url(#clip0_806_90823)">
<mask id="mask0_806_90823" style="mask-type:luminance" maskUnits="userSpaceOnUse" x="-71" y="-275" width="893" height="1155">
<path d="M-70.262 -274.027H821.379V879.862H-70.262V-274.027Z" fill="white"/>
</mask>
<g mask="url(#mask0_806_90823)">
<path d="M220.228 690.349L165.793 610.298L122.566 589.484L82.5393 543.054L10.4941 382.952L13.695 267.679L90.5452 120.385L165.793 51.5402L242.641 21.1224L340.304 11.5155L404.345 16.319L458.78 32.3292L508.412 67.5519L572.452 120.385L612.477 182.824L633.291 229.254L646.099 296.497L642.896 363.74L620.483 445.392L596.467 495.024L572.452 547.858L550.038 568.67L522.821 592.686L495.604 605.496L485.997 618.303L471.588 639.116L453.976 672.737L389.936 642.318L327.496 639.116L263.455 650.322L220.228 690.349Z" fill="white"/>
<path d="M282.336 610.231C276.251 650.512 207.859 632.887 195.166 672.75C190.236 663.624 179.116 651.981 177.019 642.119C174.606 598.797 288.525 569.845 282.336 610.231Z" fill="url(#paint0_linear_806_90823)"/>
<path d="M250.238 561.243C224.852 554.213 118.065 552.012 115.443 595.335C108.415 589.041 98.1344 582.537 94.5679 574.04C102.435 521.38 226.636 547.921 259.049 559.669C256.95 559.669 252.334 560.613 250.238 561.243Z" fill="url(#paint1_linear_806_90823)"/>
<path d="M392.217 605.743C391.063 567.455 495.228 594.624 482.953 642.143C479.388 649.171 472.568 660.394 469.107 667.422C461.554 628.297 393.371 643.926 392.217 605.743Z" fill="url(#paint2_linear_806_90823)"/>
<path d="M539.074 598.505C539.074 570.181 520.507 563.992 493.235 558.958C465.856 555.39 436.483 549.201 409.734 556.86C406.064 556.86 403.756 557.175 403.756 555.287L414.454 550.671C439.525 541.86 558.9 520.985 562.047 567.245C560.579 578.994 546.627 589.799 539.074 598.505Z" fill="url(#paint3_linear_806_90823)"/>
<path fill-rule="evenodd" clip-rule="evenodd" d="M308.157 415.647C340.069 409.688 375.528 417.023 407.508 442.602L401.301 443.44H401.303L301.031 456.998L296.71 454.9L294.227 457.919L262.059 462.266L258.177 456.894L252.277 461.424L250.423 463.84L227.408 466.952C246.55 441.228 276.244 421.606 308.157 415.647Z" fill="#FFF200"/>
<path fill-rule="evenodd" clip-rule="evenodd" d="M581.274 540.61C577.311 534.654 573.541 532.129 567.352 528C574.536 520.816 575.425 506.372 575.425 497.12C611.255 471.601 578.122 453.102 572.002 470.38C564.849 460.906 566.352 445.181 578.599 441.7C572.967 430.874 581.284 419.293 595.345 420.308C587.615 430.752 598.409 442.065 609.499 437.896C620.591 433.729 617.607 404.464 611.969 394.127C619.691 385.702 627.443 377.496 624.634 362.752C623.23 358.542 623.605 352.991 615.559 351.777C607.514 350.564 600.472 357.123 603.216 365.346C587.669 359.943 591.369 344.659 597.413 336.935C590.433 330.448 594.672 309.902 605.586 313.368C605.586 331.788 622.591 333.746 627.122 316.971C627.122 301.525 620.032 295.646 610.244 285.133C614.456 277.41 619.918 267.259 617.81 256.73C615.82 243.285 591.213 238.212 594.777 260.012C584.558 262.293 576.533 248.264 581.487 236.949C578.225 238.494 566.368 217.687 582.642 209.935C580.862 222.392 596.19 223.237 601.808 211.999C606.022 204.278 602.473 196.394 597.557 190.779C591.942 183.054 582.961 178.513 574.537 174.301C576.644 158.855 577.463 144.052 566.231 137.034C548.017 131.523 539.766 148.521 555.896 157.739C555.197 159.844 546.824 164.559 544.016 163.857C535.592 162.452 528.047 149.581 526.383 144.255C524.783 139.132 498.448 134.387 510.581 114.27C519.269 119.867 527.349 120.809 529.749 107.08C532.148 93.3498 509.854 90.7507 498.94 89.5385C495.429 77.2872 489.33 64.6585 475.294 60.1537C466.867 59.45 463.066 64.2214 459.555 69.8364C457.517 80.0305 462.366 80.8435 469.385 84.3518C458.385 100.927 444.527 84.2469 441.038 79.5221C431.413 80.0393 414.72 81.6245 417.201 61.8641C432.114 66.7419 440.35 48.2156 426.267 40.676C415.034 35.0596 403.698 41.7381 393.167 44.5471C384.039 34.7172 373.494 23.6445 355.242 27.8579C341.493 33.9945 345.352 54.1686 360.278 51.1761C359.295 64.389 343.519 65.9056 333.12 58.1723C325.909 65.3826 304.608 65.7556 305.974 50.6341C318.24 50.6938 323.004 31.9854 311.567 30.0302C300.131 28.0765 286.189 37.9879 280.396 47.9183C271.269 43.0041 259.061 38.3901 246.424 40.4939C240.807 42.6006 234.623 48.2564 236.566 57.2631C238.511 66.2698 246.224 61.8408 251.134 61.8903C253.334 77.293 239.55 79.7319 228.154 78.9583C223.308 95.2861 206.772 92.6505 201.397 84.5092C209.534 83.1528 215.47 77.0016 211.594 69.2449C208.784 64.3307 206.804 62.374 201.187 62.374C186.525 63.4973 178.668 77.9763 176.892 90.4549C162.848 88.3482 144.335 88.2112 136.612 98.7419C125.123 110.483 142.89 126.574 155.43 112.692C167.391 133.066 148.25 134.821 139.68 137.645C138.477 150.935 129.021 167.267 115 153.716C129.067 142.268 111.394 127.344 100.486 137.901C89.5779 148.46 91.5214 161.139 91.4471 171.67C81.2632 174.482 69.4825 179.469 63.8456 187.151C56.7154 203.798 74.8687 219.36 84.4539 200.179C96.8378 205.769 84.9594 228.516 78.6538 228.549C82.3137 237.267 81.6916 257.63 64.172 254.345C71.4318 235.269 46.7864 224.106 40.9776 244.672C36.7671 256.608 40.3075 268.869 45.9239 277.295C35.2752 287.075 24.1792 299.931 28.7846 316.406C30.8899 318.511 35.4398 321.524 38.2473 322.928C47.9753 325.166 50.7769 311.994 51.6555 305.421C71.9053 315.089 56.4998 331.463 59.2344 335.901C65.4876 343.197 66.2117 362.178 54.3071 365.155C53.6078 360.239 52.8312 352.201 45.1765 351.124C37.5218 350.048 28.7627 356.052 31.7917 367.655C34.8206 379.255 36.8443 379.07 45.5728 386.99C43.01 395.535 37.1445 403.389 39.3153 417.499C44.2295 422.413 44.9667 428.664 55.4974 425.855C59.9614 423.758 64.306 421.331 61.9035 409.518C67.52 408.816 74.656 416.393 76.7613 420.607C79.5688 426.223 76.9565 429.947 84.247 437.159C88.459 440.669 91.2956 445.978 91.2956 452.297C91.2956 455.104 89.61 460.951 88.9077 463.057C83.7327 460.508 76.5267 453.395 67.7648 462.781C59.0028 472.166 76.3082 493.515 91.4661 493.764C89.3594 504.296 93.1284 517.191 95.9389 527.021C90.5672 530.244 79.799 533.401 77.6209 539.937C47.8937 498.107 27.9163 473.495 10.9853 403.43C-10.6589 313.868 10.0776 226.063 55.5717 153.021C117.437 53.6907 237.638 -7.78298 362.598 4.07643C550.191 23.8178 677.117 183.714 654.961 370.095C647.693 425.222 620.853 498.675 581.274 540.61Z" fill="#FBBD09"/>
<path fill-rule="evenodd" clip-rule="evenodd" d="M563.753 93.8507C657.128 184.418 688.018 334.658 636.766 455.411C624.128 486.301 607.28 513.681 586.218 540.36C584.815 541.063 584.112 543.87 582.709 543.87C582.006 541.762 581.305 540.36 580.601 538.254C582.709 536.147 584.815 533.338 586.92 531.234C621.322 486.301 645.191 433.646 653.617 369.76C665.55 269.367 633.257 188.628 584.112 124.74C546.902 76.3005 494.25 44.0048 436.68 22.2411C413.512 14.518 388.941 8.90148 362.261 6.09398C329.266 3.28502 291.355 5.3917 261.869 12.4126C185.343 30.6651 122.158 71.3848 75.823 130.36C66.6953 143.697 56.1646 156.334 48.4429 170.376C14.0419 231.456 -7.72173 319.213 13.3396 402.756C21.7636 444.879 40.016 481.387 61.7826 515.086C66.6953 522.807 73.014 529.828 78.6305 538.254C76.8312 540.054 76.5413 542.45 75.1208 543.87C74.5249 540.06 57.6449 520.204 54.7616 515.086C21.7636 461.73 0 401.352 0 334.658C0 228.647 50.5482 132.465 122.158 74.8946C182.536 24.3464 268.187 -6.54341 360.857 1.17977C439.489 8.19926 507.587 41.1973 563.753 93.8507Z" fill="#E08517"/>
<path fill-rule="evenodd" clip-rule="evenodd" d="M569.75 527.633C568.344 526.933 566.971 526.963 565.566 526.26C571.307 514.786 570.969 508.021 572.177 494.725C579.899 490.515 591.117 486.211 590.125 473.664C589.136 461.118 575.2 463.26 573.807 474.882C568.332 472.68 558.537 452.024 574.763 440.565C572.155 424.855 588.251 412.703 598.988 419.087C593.24 423.818 593.977 437.717 607.467 435.935C620.955 434.15 615.575 401.039 608.168 392.698C613.332 387.207 625.54 381.959 621.322 360.632C618.438 346.063 600.099 354.115 606.087 367.009C589.028 365.9 585.971 343.738 594.908 338.212C584.191 318.348 602.047 305.857 609.638 309.713C604.811 325.59 618.697 330.882 623.856 319.366C629.016 307.851 615.394 291.307 606.578 286.215C611.186 278.157 618.949 264.422 614.192 254.782C609.435 245.141 591.723 245.331 599.107 262.217C582.769 264.371 576.159 248.704 578.271 238.849C569.234 229.15 569.587 209.955 585.332 205.191C582.447 216.032 596.742 223.392 600.79 208.064C604.834 192.737 578.601 178.331 571.475 176.695C570.945 171.09 576.989 142.576 563.692 138.463C550.395 134.349 544.366 151.44 560.243 155.075C553.295 176.402 524.438 163.556 524.438 145.474C500.783 142.517 499.776 112.667 512.503 107.893C512.503 119.742 528.661 118.725 528.81 105.511C528.956 92.2977 504.315 91.6742 495.653 94.5531C495.03 80.3436 488.229 67.8723 475.211 64.1338C462.195 60.3982 453.729 80.2096 473.52 81.3095C467.341 96.7574 451.377 96.4267 440.23 82.9079C425.935 83.6742 410.094 75.645 416.893 57.3678C425.428 65.818 436.789 55.6865 431.104 46.9377C425.419 38.1903 400.95 42.9937 392.49 48.6393C386.755 39.245 367.12 26.2041 356.093 31.1038C345.067 36.002 350.091 54.5166 361.077 46.3665C368.09 62.6564 349.278 69.8013 333.463 61.4181C324.111 67.2866 299.833 66.4096 303.841 45.6993C318.131 53.1836 323.319 28.2977 303.304 31.8177C295.174 33.2469 288.272 42.4969 281.252 52.3254C273.734 48.0056 251.623 35.0098 240.698 48.0901C234.802 55.1475 242.681 66.2828 252.211 57.0415C259.956 69.9338 246.361 84.3925 230.003 81.7889C226.634 94.7527 203.247 99.6275 198.38 82.3178C216.868 80.8477 210.806 63.8191 200.06 65.0779C189.313 66.3381 179.884 81.0327 178.627 94.5647C168.797 91.7907 156.477 92.6211 146.223 95.1052C135.971 97.5878 132.623 109.931 139.355 114.369C146.089 118.807 152.063 112.884 154.165 108.009C160.345 110.649 162.908 120.438 161.212 127.551C159.492 134.775 150.406 138.093 143.221 139.486C142.518 146.507 138.461 156.145 132.592 159.548C126.724 162.952 117.676 161.811 111.971 153.908C117.979 150.463 121.82 139.378 113.457 137.219C105.094 135.06 101.019 139.279 97.8765 145.528C94.7339 151.777 91.5738 165.449 94.7776 174.451C87.5541 174.065 70.7309 180.436 67.1017 188.177C63.4725 195.919 65.9595 204.741 72.8304 206.512C79.7027 208.282 81.7191 199.086 82.4199 194.874C96.5332 202.439 94.5736 217.468 82.1402 229.348C85.6718 241.448 80.3277 262.147 60.7495 256.73C63.5774 250.889 65.2281 237.188 54.8664 237.111C44.5062 237.032 43.3261 247.2 42.8264 254.623C42.3267 262.046 46.5925 274.19 50.6297 278.584C38.1103 284.853 21.8932 310.342 36.885 318.664C47.8411 324.745 51.989 307.379 45.6339 303.768C52.3095 302.198 59.2489 304.663 63.0194 311.424C66.7914 318.185 62.9306 329.643 61.1633 333.931C62.779 337.728 66.8672 345.374 66.3951 351.882C65.9231 358.391 60.8267 366.722 52.2279 369.056C54.2181 360.004 46.2312 349.701 37.8597 355.386C29.4867 361.069 36.0269 378.309 51.2503 385.205C45.2682 393.587 39.3822 407.04 43.5942 416.023C50.5962 430.96 69.1181 421.733 55.4638 406.266C61.0788 404.863 69.5421 406.829 75.297 411.7C81.0518 416.572 82.2902 422.759 82.2902 431.885C93.6791 440.717 99.2955 453.519 87.9096 469.217C86.0535 459.74 68.9462 452.158 67.9511 470.813C70.6683 488.484 92.904 489.709 96.1835 491.249C91.2678 501.78 95.3312 514.831 98.1387 525.363C96.5681 526.933 94.9786 526.756 93.3746 527.021C90.5656 517.191 87.7566 505.257 89.8648 494.725C77.7242 493.734 60.0458 485.972 62.948 466.372C64.7634 454.104 82.0557 448.594 88.0976 461.159C92.8442 447.7 86.3609 440.724 76.7 435.437C78.374 428.17 77.3367 414.664 64.1252 411.418C70.7892 430.939 43.8419 436.225 37.9733 414.664C35.5985 405.937 42.4141 388.821 44.9316 387.31C35.4645 382.448 24.3671 367.199 31.965 355.304C39.5629 343.408 55.1287 347.214 56.0291 361.958C68.3328 352.296 57.4598 337.397 56.2695 334.419C57.368 331.191 67.058 313.286 52.5966 307.833C53.8422 313.712 50.4651 322.513 44.7073 323.824C34.4476 326.161 25.4015 318.776 26.535 305.786C27.4936 294.845 35.5228 283.837 44.2163 277.433C38.9291 268.68 37.0234 258.644 38.5255 248.706C40.0291 238.767 46.3012 232.868 54.2006 232.609C62.0986 232.347 70.1263 238.527 66.1591 253.678C80.8377 252.544 80.3467 235.087 76.3868 227.518C80.0378 226.787 93.8801 211.719 84.786 201.837C83.179 207.544 79.6954 212.178 71.1651 210.791C62.6362 209.403 57.8619 195.058 63.3866 186.271C68.9098 177.484 78.2298 173.312 89.5749 170.236C87.4609 159.706 90.6122 148.499 94.6246 141.463C98.637 134.429 108.12 130.074 117.063 134.377C126.007 138.679 121.518 151.244 117.517 154.389C121.157 157.879 126.329 158.716 131.243 155.218C136.156 151.719 138.43 143.434 139.131 135.713C144.195 134.809 154.022 133.2 156.451 127.321C158.878 121.441 156.697 115.626 155.43 114.211C150.728 122.631 135.634 121.592 132.69 114.211C129.744 106.831 132.158 99.4002 137.849 94.4598C143.541 89.5208 160.192 86.9945 175.516 89.2163C177.419 78.3083 186.321 61.7255 201.187 60.8543C216.055 59.9859 220.847 82.9966 203.736 85.2899C214.494 96.1396 226.118 83.8621 227.604 77.1617C235.9 80.4063 251.891 73.7962 250.994 62.5807C239.672 69.743 233.471 58.2201 234.367 52.152C235.264 46.0839 239.977 41.5397 248.348 38.6973C256.718 35.8562 270.869 41.5193 280.121 46.8138C285.037 38.3898 293.471 29.1107 301.608 27.5795C327.506 22.7017 324.283 54.6259 307.077 51.0476C307.772 62.7788 326.52 62.0445 333.257 56.2387C343.264 62.3039 357.81 62.7337 358.196 52.6299C342.07 55.3689 340.623 29.6221 355.759 26.0628C370.499 22.5953 384.727 32.214 393.853 42.0424C404.142 37.6978 426.419 33.5252 434.194 43.6479C441.97 53.7721 433.215 69.3846 419.186 63.3806C417.201 73.5776 432.323 80.4354 442.149 77.8465C446.453 84.627 457.15 94.6507 468.088 84.1651C449.62 81.161 457.995 56.6801 473.996 59.221C489.999 61.7633 496.354 74.8947 499.865 88.2343C508.869 87.771 529.788 87.8585 532.903 102.802C536.018 117.746 520.444 126.512 510.766 115.572C503.269 133.227 522.771 142.917 529.351 141.092C525.411 152.229 543.35 169.388 554.044 157.739C536.65 146.88 550.09 127.895 565.858 133.87C577.091 140.889 578.496 157.739 576.391 173.185C596.369 183.118 607.809 197.479 604.404 208.651C598.749 227.209 582.832 223.099 581.711 211.424C572.231 219.161 576.774 233.672 583.41 235.667C580.266 245.216 583.665 257.365 593.942 258.455C590.355 238.74 614.29 241.211 618.553 253.194C622.816 265.176 617.456 274.946 613.599 284.812C623.986 295.439 631.719 307.362 628.728 320.144C625.737 332.927 602.856 335.573 604.473 314.299C593.345 316.33 593.826 331.633 600.934 338.053C593.501 343.298 590.247 355.065 601.094 361.435C600.318 346.499 621.264 342.875 624.813 358.541C628.364 374.208 624.488 386.432 614.816 393.487C620.76 404.952 624.309 432.822 610.961 439.075C597.611 445.326 585.611 430.033 593.12 421.427C581.242 422.068 577.547 432.663 579.529 443.188C573.657 445.109 565.128 453.063 572.071 467.258C578.886 454.224 593.766 460.511 594.643 472.961C595.521 485.414 586.218 493.322 577.091 498.236C576.618 506.362 575.251 520.039 569.75 527.633Z" fill="#E08517"/>
<path fill-rule="evenodd" clip-rule="evenodd" d="M242.21 203.374C240.105 204.777 238 208.989 234.489 207.585C231.681 194.949 225.362 183.716 226.065 170.376C228.17 165.462 230.275 173.185 231.681 175.289C235.892 184.418 235.191 195.651 242.21 203.374ZM292.059 196.353C287.142 197.756 289.951 194.247 290.653 191.438C296.27 185.821 292.758 194.247 292.059 196.353ZM279.422 199.863C275.911 200.564 275.911 205.48 273.103 206.182C272.399 204.777 273.802 203.374 271.697 203.374C271.697 202.671 272.399 201.968 272.399 201.266C275.208 200.564 276.611 198.459 279.422 197.756C280.121 198.459 279.422 199.161 279.422 199.863ZM294.867 200.564C294.163 202.671 290.653 201.266 288.546 201.266C287.844 200.564 285.739 200.564 287.142 199.161C289.951 199.161 293.461 199.161 294.867 200.564ZM289.951 204.777C289.951 206.182 287.142 205.48 286.44 206.884C287.844 208.989 291.355 208.989 289.951 213.201C289.951 214.606 285.037 213.201 287.142 216.012C286.44 216.712 282.229 218.117 285.037 219.52C285.037 221.627 281.526 218.117 279.422 218.117C277.314 218.117 275.911 214.606 276.611 212.5C278.016 209.693 278.718 215.308 281.526 213.201C281.526 209.693 281.526 205.48 284.334 202.671C286.44 201.968 288.546 204.075 289.951 204.777ZM400.172 281.303C398.341 281.303 397.133 280.759 395.599 279.684C397.891 279.684 398.973 281.303 400.172 281.303ZM401.577 282.005C403.683 281.303 405.79 282.005 405.79 283.408C403.683 282.704 401.577 283.408 401.577 282.005ZM341.902 291.835C346.116 298.853 354.54 299.555 356.645 307.98C353.836 310.087 348.923 312.192 347.517 316.406C350.326 317.108 351.732 313.597 354.54 314.299H358.752C366.473 319.916 367.177 330.446 376.303 334.658C376.303 343.786 385.429 347.294 385.429 356.42C386.834 359.93 388.237 362.739 388.237 365.547C382.622 369.76 383.324 359.228 379.111 357.825C374.196 355.017 367.879 352.208 362.962 350.102C365.771 335.362 351.732 334.658 346.116 323.427C343.305 320.615 342.604 315.702 338.391 313.597C337.689 313.597 338.391 312.896 338.391 312.896C341.902 312.896 345.413 311.49 348.923 310.788C347.517 307.278 343.305 305.874 340.498 303.066C336.986 300.959 334.179 308.681 329.968 303.768C328.564 304.471 328.564 305.171 327.159 305.874C325.756 304.471 324.352 301.66 323.651 299.555C323.651 290.429 334.881 292.534 338.391 286.918C341.902 286.215 339.797 290.429 341.902 291.835ZM378.408 299.555C379.111 303.768 375.599 298.853 374.897 299.555C373.494 298.853 373.494 296.747 370.687 296.747C368.579 295.342 365.771 293.236 363.666 291.131C369.281 289.023 376.303 293.938 378.408 299.555Z" fill="#FFFFFA"/>
<path fill-rule="evenodd" clip-rule="evenodd" d="M537.778 217.413L539.881 221.627L474.381 313.126L473.212 309.992L537.778 217.413ZM470.684 306.319L468.738 302.786L533.102 208.036L535.272 213.106L470.684 306.319ZM544.255 230.62L477.736 319.524L476.332 316.716L542.386 225.922L544.255 230.62ZM539.176 264.459L473.412 349.398L472.498 344.935L537.55 259.752L539.176 264.459ZM543.865 278.96L476.222 360.421L475.769 356.176L541.532 274.257L543.865 278.96ZM547.138 293.953L472.012 379.588L469.676 376.079L545.74 289.01L547.138 293.953Z" fill="#FFF200"/>
<path fill-rule="evenodd" clip-rule="evenodd" d="M303.993 301.66C304.695 305.873 298.376 300.257 299.779 305.171C297.674 305.171 296.972 303.768 296.972 302.364C296.972 300.257 299.779 300.257 301.185 299.555C302.588 298.852 303.993 300.959 303.993 301.66ZM442.296 331.148C441.593 332.553 440.892 332.553 440.19 332.553C439.489 333.253 438.785 333.253 438.785 333.956C438.083 333.956 437.384 334.658 436.68 334.658C437.384 334.658 437.384 333.956 438.083 333.253C438.785 333.253 439.489 332.553 440.19 332.553C441.593 331.148 441.593 331.148 442.296 331.148ZM435.274 335.362C434.575 336.763 433.871 336.763 433.871 336.763V335.362C434.575 335.362 435.274 334.658 435.274 335.362ZM433.17 336.763C432.468 338.168 431.764 338.168 431.065 337.467C432.468 336.763 432.468 336.763 433.17 336.763ZM272.399 352.208C275.208 355.017 274.506 359.228 274.506 362.739C269.592 367.654 275.208 374.672 273.103 380.29C268.187 386.609 266.783 393.629 266.081 401.352C265.378 402.054 264.676 404.863 262.571 404.159C260.466 399.947 261.869 394.331 260.466 390.12C256.954 391.522 258.357 397.14 255.55 399.247C254.147 394.331 249.933 387.31 243.615 383.802C240.105 382.397 234.489 380.991 233.083 376.781H233.786C238 378.184 242.21 379.588 247.126 380.991C249.933 380.29 257.658 389.418 254.846 380.991C252.742 369.056 241.51 365.546 232.383 361.336C230.275 359.93 227.468 357.825 226.765 355.017C233.786 358.527 243.615 358.527 250.636 363.441C253.445 359.93 248.529 356.42 248.529 352.909C247.126 350.804 245.722 350.101 244.317 347.995C243.615 347.995 242.913 347.995 242.21 347.294C242.21 347.294 241.51 345.891 242.21 345.891C243.615 345.19 243.615 347.294 245.018 347.294C245.721 347.995 247.126 348.698 247.828 349.398C261.869 351.507 258.357 368.354 264.676 377.483C268.187 371.164 270.995 364.845 268.187 357.122C264.676 351.507 262.571 344.486 259.763 338.871C265.378 342.381 266.783 348.698 272.399 352.208ZM460.549 368.354C459.848 370.462 459.146 372.567 457.741 373.973H457.039C457.039 371.865 456.338 369.76 456.338 366.951C457.741 367.654 460.549 366.25 460.549 368.354ZM454.23 378.886C453.529 380.991 453.529 382.397 452.827 384.502C452.126 386.609 450.02 387.31 447.913 387.31C448.615 384.502 452.126 382.397 453.529 378.886H454.23Z" fill="#FFFFFA"/>
<path fill-rule="evenodd" clip-rule="evenodd" d="M313.119 262.346C309.609 264.452 308.906 270.07 303.289 270.77C301.885 271.473 301.185 274.984 299.077 273.578C298.376 270.07 301.185 270.07 301.185 267.259C304.695 267.259 305.396 263.749 306.8 260.94C308.203 260.94 315.224 257.432 313.119 262.346ZM426.851 329.744C420.533 330.446 418.427 337.467 412.109 338.168C408.599 340.977 401.577 339.571 397.365 339.571V337.467C404.385 338.872 409.298 336.064 413.512 333.956C416.321 329.744 421.235 327.637 426.851 327.637C427.554 329.043 426.149 328.34 426.851 329.744Z" fill="#FBBD0B"/>
<path fill-rule="evenodd" clip-rule="evenodd" d="M316.468 87.4826L319.344 227.945H314.429L311.079 88.2343L316.468 87.4826ZM328.801 87.8745L328.561 238.96L324.348 239.177L323.651 87.4389L328.801 87.8745ZM343.076 88.9075L337.928 238.514L333.719 238.713L337.689 88.2343L343.076 88.9075ZM356.177 91.0433L346.576 238.011L343.066 237.768L351.732 89.6403L356.177 91.0433ZM233.552 114.678L248.529 181.608L245.018 182.31L228.872 116.317L233.552 114.678ZM437.383 117.019L411.876 215.301L407.656 215.789L432.463 114.914L437.383 117.019ZM286.734 115.805L291.795 173.65L287.342 174.59L281.116 116.317L286.734 115.805ZM379.111 117.723L364.84 235.667L360.624 235.454L374.196 117.723H379.111ZM271.994 117.723L279.484 175.993L274.557 176.924L266.375 118.423L271.994 117.723ZM224.66 132.465L221.149 133.168L216.935 119.126L221.383 117.943L224.66 132.465ZM377.706 226.541L372.785 227.243L387.535 119.126L392.45 119.828L377.706 226.541ZM422.409 212.952L418.473 213.393L443.468 118.641L448.184 121.847L422.409 212.952ZM405.083 124.202L387.535 220.924L383.784 221.656L400.399 123.794L405.083 124.202ZM214.346 131.837L211.32 134.571L207.344 124.499L211.162 122.21L214.346 131.837ZM256.959 123.569L266.081 177.397L261.165 179.502L251.57 124.741L256.959 123.569ZM458.92 129.377L432.254 211.804L428.728 211.585L454.466 126.123L458.92 129.377ZM202.18 127.958L206.183 140.178L202.679 142.337L197.739 131.07L202.18 127.958ZM468.039 135.982L441.593 213.201L438.785 212.5L463.358 133.87L468.039 135.982ZM205.002 204.06L202.902 209.241L186.738 169.224L190.647 166.3L205.002 204.06ZM481.858 175.031L462.657 216.712L459.14 214.393L476.697 172.481L481.858 175.031ZM179.622 176.402L208.194 242.943L205.598 246.609L175.411 179.913L179.622 176.402ZM492.151 182.776L474.592 219.52L470.609 217.665L488.171 179.266L492.151 182.776ZM502.673 190.034L485.353 223.732L482.547 221.627L498.459 187.926L502.673 190.034ZM225.368 307.757L221.851 310.779L164.282 192.14L167.8 186.736L225.368 307.757ZM209.912 314.979L205.7 315.682L138.618 205.305L142.061 199.863L209.912 314.979ZM530.053 204.075L497.76 251.814L496.099 248.334L526.543 201.266L530.053 204.075ZM134.555 210.15L200.79 317.809L197.28 319.915L131.055 215.078L134.555 210.15ZM193.067 323.427L189.552 325.761L123.79 229.335L126.623 223.717L193.067 323.427ZM120.75 236.592L185.343 329.043L181.835 331.849L118.186 242.232L120.75 236.592ZM240.577 300.652L237.3 302.069L231.93 286.158L235.481 283.915L240.577 300.652ZM225.824 283.565L233.563 303.947L229.813 305.604L220.447 285.022L225.824 283.565ZM123.087 288.076L169.198 341.679L165.928 344.258L121.457 293.938L123.087 288.076ZM162.873 349.622L160.303 353.613L117.7 308.681L118.874 303.051L162.873 349.622ZM565.822 311.35L468.731 401.352L465.926 398.53L564.291 305.675L565.822 311.35ZM568.36 322.711L473.632 405.344L471.062 402.796L567.267 316.86L568.36 322.711ZM157.963 358.527L156.337 362.746L115.13 323.415L115.367 317.085L157.963 358.527ZM570.05 334.256L478.326 409.554L475.736 407.014L569.252 328.284L570.05 334.256ZM571.484 345.473L482.991 413.546L480.408 410.754L570.934 339.584L571.484 345.473ZM98.7318 338.586L199.393 422.887L198.221 427.341L97.8081 345.164L98.7318 338.586ZM200.321 435.746L198.683 439.965L96.1836 361.336V355.001L200.321 435.746ZM97.0694 375.079L201.252 445.34L199.388 449.802L98.2889 381.214L97.0694 375.079ZM339.093 387.333L337.689 401.763L334.881 401.047L335.583 387.008L339.093 387.333ZM326.677 386.819L326.778 401.291L324.209 401.348L323.651 386.853L326.677 386.819ZM345.193 388.977L343.305 402.608L340.597 402.244L341.902 388.037L345.193 388.977ZM301.854 388.001L304.729 403.32L301.091 404.275L297.362 388.623L301.854 388.001ZM315.202 387.21L316.448 402.028L313.217 402.037L311.515 387.527L315.202 387.21ZM308.288 387.443L310.585 402.362L307.195 402.936L304.997 388.012L308.288 387.443ZM320.905 387.089L321.847 401.39L319.04 401.483L317.636 387.019L320.905 387.089ZM294.244 389.501L298.585 405.157L294.485 406.201L289.846 390.12L294.244 389.501ZM351.972 391.811L349.602 403.773L346.091 402.949L348.221 390.12L351.972 391.811ZM382.727 413.332L392.453 389.953L396.148 391.637L386.454 415.199L382.727 413.332ZM389.069 388.299L379.513 412.742L375.862 411.147L385.915 386.701L389.069 388.299ZM389.751 416.83L399.993 393.689L403.527 396.393L392.612 418.405L389.751 416.83ZM292.157 407.164L288.657 408.374L282.541 393.629L286.255 391.757L292.157 407.164ZM358.194 394.931L355.755 404.798L352.264 403.989L354.583 393.337L358.194 394.931ZM536.372 397.841L499.383 425.237L496.56 422.686L534.451 394.021L536.372 397.841ZM101.058 393.601L199.618 453.769L197.981 458.219L102.502 400.65L101.058 393.601ZM363.908 399.098L361.549 406.215L358.872 405.392L360.879 396.196L363.908 399.098ZM369.182 402.244L367.439 408.012L364.734 406.639L366.059 400.479L369.182 402.244ZM409.807 401.858L398.769 422.222L395.864 420.429L406.998 399.049L409.807 401.858ZM374.196 406.266L372.914 410.327L369.984 409.145L371.389 404.159L374.196 406.266ZM539.422 406.266L504.651 429.102L502.111 426.525L537.757 401.996L539.422 406.266ZM282.652 411.026L285.649 409.46L280.206 395.475L276.814 397.752L282.652 411.026ZM416.63 408.801L405.056 425.681L402.188 423.822L413.8 405.561L416.63 408.801ZM271.945 408.302L275.584 414.47L273.607 415.757L269.802 410.356L271.945 408.302ZM422.565 415.22L411.262 429.823L408.452 427.719L419.999 412.049L422.565 415.22ZM535.403 417.935L509.429 432.677L507.287 430.537L533.127 414.826L535.403 417.935ZM426.752 422.077L417.243 433.674L414.916 431.54L424.427 419.242L426.752 422.077ZM431.548 426.603L420.994 437.641L419.127 435.753L429.516 424.492L431.548 426.603ZM174.511 465.738L172.89 469.152L136.395 452.301L134.607 445.989L174.511 465.738ZM171.795 473.464L170.605 476.47L141.854 464.944L138.923 459.029L171.795 473.464ZM169.093 480.787L168.396 483.494L146.835 476.572L144.307 470.964L169.093 480.787Z" fill="#FFF200"/>
<path fill-rule="evenodd" clip-rule="evenodd" d="M328.82 401.154L329.161 387.019L332.777 387.029L332.075 401.458L328.82 401.154ZM280.127 411.495L277.423 413.195L272.644 403.625L275.91 402.054L280.127 411.495Z" fill="#FFF200"/>
<path fill-rule="evenodd" clip-rule="evenodd" d="M431.528 614.562L437.375 616.711L434.987 624.104L438.785 625.501L444.336 608.306L440.538 606.91L438.451 613.37L432.606 611.223L434.69 604.764L430.891 603.368L425.342 620.56L429.142 621.956L431.528 614.562ZM414.316 611.134L417.96 604.913L418.633 612.199L414.316 611.134ZM416.969 599.792L406.916 615.975L411.047 616.995L412.808 613.937L418.835 615.419L419.182 618.998L423.337 620.02L420.932 600.766L416.969 599.792ZM399.378 599.615L397.228 614.086L401.199 614.756L403.344 600.286L408.42 601.144L408.935 597.656L394.799 595.265L394.282 598.754L399.378 599.615ZM387.363 605.657C387.154 606.495 386.822 607.164 386.33 607.684C385.591 608.463 384.654 608.777 383.467 608.643C382.067 608.485 381.056 607.77 380.447 606.501C379.899 605.369 379.717 603.989 379.881 602.312C380.034 600.761 380.38 599.493 380.916 598.51C381.749 597.008 382.939 596.359 384.538 596.538C385.406 596.662 386.094 596.895 386.593 597.292C387.366 597.901 387.739 598.83 387.763 600.086L391.685 600.526C391.869 598.666 391.435 597.102 390.389 595.785C389.149 594.209 387.258 593.291 384.689 593.004C381.686 592.692 379.425 593.509 377.863 595.476C376.576 597.082 375.827 599.244 375.557 601.982C375.244 605.395 375.894 607.977 377.534 609.727C378.822 611.073 380.627 611.88 382.951 612.141C385.74 612.426 387.858 611.798 389.334 610.239C390.341 609.205 390.989 607.838 391.331 606.103L387.363 605.657ZM363.519 606.805C362.302 606.735 361.373 606.294 360.708 605.477C359.833 604.413 359.452 602.754 359.562 600.495C359.696 598.317 360.159 596.783 360.985 595.842C361.759 594.975 362.802 594.59 364.116 594.663C365.33 594.758 366.26 595.176 366.928 595.966C367.825 597.029 368.207 598.692 368.095 600.972C367.952 603.411 367.333 605.092 366.191 606.017C365.48 606.6 364.586 606.865 363.519 606.805ZM363.345 610.337C366.313 610.478 368.573 609.635 370.153 607.773C371.549 606.132 372.288 603.966 372.423 601.215C372.535 598.44 372.01 596.199 370.808 594.442C369.371 592.383 367.206 591.298 364.288 591.135C361.103 590.958 358.738 591.968 357.142 594.171C355.964 595.794 355.331 597.815 355.21 600.252C355.114 602.692 355.548 604.772 356.56 606.52C357.955 608.887 360.208 610.161 363.345 610.337ZM343.901 594.209L343.662 608.857L347.679 608.933L347.921 594.283L353.055 594.379L353.112 590.848L338.799 590.58L338.741 594.113L343.901 594.209ZM326.333 594.258L329.473 594.201L329.812 594.194C330.521 594.207 331.058 594.299 331.425 594.503C332.065 594.853 332.366 595.524 332.384 596.512C332.372 597.446 332.141 598.099 331.637 598.499C331.154 598.874 330.477 599.04 329.552 599.059L326.413 599.116L326.333 594.258ZM322.258 590.802L322.556 608.982L326.572 608.906L326.47 602.649L330.29 602.577C332.483 602.512 334.103 601.984 335.158 600.951C336.236 599.894 336.747 598.379 336.715 596.403C336.689 594.847 336.329 593.632 335.633 592.707C334.562 591.273 332.75 590.606 330.194 590.654L322.258 590.802ZM310.211 606.851C308.996 606.944 308.024 606.625 307.268 605.898C306.279 604.957 305.712 603.358 305.565 601.104C305.447 598.928 305.734 597.343 306.445 596.299C307.114 595.338 308.104 594.821 309.418 594.723C310.633 594.658 311.602 594.95 312.357 595.65C313.37 596.588 313.939 598.189 314.089 600.466C314.223 602.904 313.799 604.656 312.772 605.723C312.133 606.396 311.277 606.772 310.211 606.851ZM310.443 610.379C313.403 610.133 315.549 609.005 316.907 606.951C318.105 605.142 318.591 602.894 318.411 600.146C318.207 597.376 317.427 595.22 316.033 593.632C314.373 591.777 312.101 590.983 309.187 591.199C306.005 591.438 303.771 592.75 302.44 595.14C301.458 596.904 301.056 598.993 301.217 601.429C301.399 603.862 302.068 605.867 303.272 607.473C304.928 609.641 307.31 610.612 310.443 610.379ZM285.692 612.441L289.68 611.918L288.715 603.096L295.722 611.128L300.604 610.487L292.299 601.63L298.14 592.491L293.449 593.106L288.476 601.45L287.604 593.872L280.428 594.812L280.829 598.317L284.02 597.901L285.692 612.441ZM260.635 613.705L258.014 599.324L254.048 600.147L257.3 617.996L279.62 613.367L276.366 595.517L272.402 596.339L275.023 610.723L269.81 611.803L267.189 597.421L263.223 598.244L265.845 612.626L260.635 613.705ZM243.194 616.012L243.434 608.678L247.43 614.629L243.194 616.012ZM240.175 604.772L239.054 624.15L243.109 622.827L243.201 619.239L249.116 617.311L251.096 620.222L255.17 618.895L244.063 603.504L240.175 604.772ZM225.174 622.169L228.246 620.78C229.195 620.377 229.936 620.24 230.492 620.381C231.084 620.537 231.496 620.974 231.78 621.689C232.042 622.418 231.997 623.031 231.62 623.54C231.272 624.006 230.671 624.423 229.775 624.828L226.774 626.187L225.174 622.169ZM222.703 615.952L231.194 612.106L229.901 608.852L217.71 614.376L224.369 631.116L231.856 627.723C233.3 627.041 234.416 626.252 235.179 625.313C236.415 623.766 236.616 622.01 235.808 619.977C235.157 618.41 234.282 617.34 233.135 616.787C231.662 616.071 229.841 616.219 227.669 617.204L223.882 618.92L222.703 615.952Z" fill="#231F20"/>
<path d="M431.528 614.562L437.375 616.711L434.987 624.104L438.785 625.501L444.336 608.306L440.538 606.91L438.451 613.37L432.606 611.223L434.69 604.764L430.891 603.368L425.342 620.56L429.142 621.956L431.528 614.562ZM414.316 611.134L417.96 604.913L418.633 612.199L414.316 611.134ZM416.969 599.792L406.916 615.975L411.047 616.995L412.808 613.937L418.835 615.419L419.182 618.998L423.337 620.02L420.932 600.766L416.969 599.792ZM399.378 599.615L397.228 614.086L401.199 614.756L403.344 600.286L408.42 601.144L408.935 597.656L394.799 595.265L394.282 598.754L399.378 599.615ZM387.363 605.657C387.154 606.495 386.822 607.164 386.33 607.684C385.591 608.463 384.654 608.777 383.467 608.643C382.067 608.485 381.056 607.77 380.447 606.501C379.899 605.369 379.717 603.989 379.881 602.312C380.034 600.761 380.38 599.493 380.916 598.51C381.749 597.008 382.939 596.359 384.538 596.538C385.406 596.662 386.094 596.895 386.593 597.292C387.366 597.901 387.739 598.83 387.763 600.086L391.685 600.526C391.869 598.666 391.435 597.102 390.389 595.785C389.149 594.209 387.258 593.291 384.689 593.004C381.686 592.692 379.425 593.509 377.863 595.476C376.576 597.082 375.827 599.244 375.557 601.982C375.244 605.395 375.894 607.977 377.534 609.727C378.822 611.073 380.627 611.88 382.951 612.141C385.74 612.426 387.858 611.798 389.334 610.239C390.341 609.205 390.989 607.838 391.331 606.103L387.363 605.657ZM363.519 606.805C362.302 606.735 361.373 606.294 360.708 605.477C359.833 604.413 359.452 602.754 359.562 600.495C359.696 598.317 360.159 596.783 360.985 595.842C361.759 594.975 362.802 594.59 364.116 594.663C365.33 594.758 366.26 595.176 366.928 595.966C367.825 597.029 368.207 598.692 368.095 600.972C367.952 603.411 367.333 605.092 366.191 606.017C365.48 606.6 364.586 606.865 363.519 606.805ZM363.345 610.337C366.313 610.478 368.573 609.635 370.153 607.773C371.549 606.132 372.288 603.966 372.423 601.215C372.535 598.44 372.01 596.199 370.808 594.442C369.371 592.383 367.206 591.298 364.288 591.135C361.103 590.958 358.738 591.968 357.142 594.171C355.964 595.794 355.331 597.815 355.21 600.252C355.114 602.692 355.548 604.772 356.56 606.52C357.955 608.887 360.208 610.161 363.345 610.337ZM343.901 594.209L343.662 608.857L347.679 608.933L347.921 594.283L353.055 594.379L353.112 590.848L338.799 590.58L338.741 594.113L343.901 594.209ZM326.333 594.258L329.473 594.201L329.812 594.194C330.521 594.207 331.058 594.299 331.425 594.503C332.065 594.853 332.366 595.524 332.384 596.512C332.372 597.446 332.141 598.099 331.637 598.499C331.154 598.874 330.477 599.04 329.552 599.059L326.413 599.116L326.333 594.258ZM322.258 590.802L322.556 608.982L326.572 608.906L326.47 602.649L330.29 602.577C332.483 602.512 334.103 601.984 335.158 600.951C336.236 599.894 336.747 598.379 336.715 596.403C336.689 594.847 336.329 593.632 335.633 592.707C334.562 591.273 332.75 590.606 330.194 590.654L322.258 590.802ZM310.211 606.851C308.996 606.944 308.024 606.625 307.268 605.898C306.279 604.957 305.712 603.358 305.565 601.104C305.447 598.928 305.734 597.343 306.445 596.299C307.114 595.338 308.104 594.821 309.418 594.723C310.633 594.658 311.602 594.95 312.357 595.65C313.37 596.588 313.939 598.189 314.089 600.466C314.223 602.904 313.799 604.656 312.772 605.723C312.133 606.396 311.277 606.772 310.211 606.851ZM310.443 610.379C313.403 610.133 315.549 609.005 316.907 606.951C318.105 605.142 318.591 602.894 318.411 600.146C318.207 597.376 317.427 595.22 316.033 593.632C314.373 591.777 312.101 590.983 309.187 591.199C306.005 591.438 303.771 592.75 302.44 595.14C301.458 596.904 301.056 598.993 301.217 601.429C301.399 603.862 302.068 605.867 303.272 607.473C304.928 609.641 307.31 610.612 310.443 610.379ZM285.692 612.441L289.68 611.918L288.715 603.096L295.722 611.128L300.604 610.487L292.299 601.63L298.14 592.491L293.449 593.106L288.476 601.45L287.604 593.872L280.428 594.812L280.829 598.317L284.02 597.901L285.692 612.441ZM260.635 613.705L258.014 599.324L254.048 600.147L257.3 617.996L279.62 613.367L276.366 595.517L272.402 596.339L275.023 610.723L269.81 611.803L267.189 597.421L263.223 598.244L265.845 612.626L260.635 613.705ZM243.194 616.012L243.434 608.678L247.43 614.629L243.194 616.012ZM240.175 604.772L239.054 624.15L243.109 622.827L243.201 619.239L249.116 617.311L251.096 620.222L255.17 618.895L244.063 603.504L240.175 604.772ZM225.174 622.169L228.246 620.78C229.195 620.377 229.936 620.24 230.492 620.381C231.084 620.537 231.496 620.974 231.78 621.689C232.042 622.418 231.997 623.031 231.62 623.54C231.272 624.006 230.671 624.423 229.775 624.828L226.774 626.187L225.174 622.169ZM222.703 615.952L231.194 612.106L229.901 608.852L217.71 614.376L224.369 631.116L231.856 627.723C233.3 627.041 234.416 626.252 235.179 625.313C236.415 623.766 236.616 622.01 235.808 619.977C235.157 618.41 234.282 617.34 233.135 616.787C231.662 616.071 229.841 616.219 227.669 617.204L223.882 618.92L222.703 615.952Z" stroke="white" stroke-width="0.145693" stroke-miterlimit="2.613"/>
<path fill-rule="evenodd" clip-rule="evenodd" d="M582.709 549.917C568.898 569.572 555.443 585.992 538.478 600.737C538.478 599.631 539.459 597.63 539.985 596.573C544.198 591.659 549.009 586.695 553.221 581.781C557.435 577.569 559.54 572.656 560.244 567.037C555.466 518.405 416.95 547.954 404.386 555.805C407.082 557.153 414.718 557.911 417.724 557.911C447.913 563.529 473.888 572.656 493.547 591.611C498.46 597.93 499.865 606.354 499.163 616.184C493.547 626.714 487.932 637.946 482.312 648.479C478.804 654.797 473.524 663.923 468.611 670.241C469.312 667.434 469.426 665.719 470.128 663.612C473.638 656.592 478.102 649.18 481.613 642.161C497.252 589.436 353.47 579.159 328.3 579.674C299.402 580.266 178.349 596.404 180.943 643.236C183.05 653.066 190.575 659.354 195.488 668.48C195.488 670.585 195.658 672.318 195.658 674.424C184.503 659.84 166.55 636.094 161.711 610.018C161.419 584.511 225.952 562.892 258.357 559.315C246.424 553.7 231.681 550.891 216.935 548.785C189.851 543.5 103.674 532.149 96.1837 573.356C96.6149 577.993 108.82 587.399 115.839 593.718C116.541 595.122 116.541 597.227 117.245 598.63C100.756 586.267 87.7393 570.624 75.1208 554.4C68.097 528.431 102.945 520.65 124.266 522.807C174.11 527.021 220.447 538.254 263.974 557.911C306.098 547.381 352.778 548.784 396.304 555.103C437.854 530.73 593.38 494.322 582.709 549.917Z" fill="#1082CF"/>
<path fill-rule="evenodd" clip-rule="evenodd" d="M471.688 665.772C466.417 676.212 460.936 685.729 450.72 692.708C436.441 658.378 382.632 645.497 332.431 645.401C282.229 645.306 202.567 673.478 218.341 699.727C210.175 699.727 197.168 678.992 194.851 673.432C194.532 635.034 298.69 617.032 331.538 617.083C364.386 617.134 456.089 624.552 471.688 665.772Z" fill="#00A870"/>
<path fill-rule="evenodd" clip-rule="evenodd" d="M396.936 653.647C416.107 654.22 463.321 674.773 451.833 690.998C440.344 707.224 402.745 658.95 396.936 653.647ZM216.59 699.623C196.142 680.232 253.606 657.944 265.587 656.881C253.366 673.18 238.778 703.735 216.59 699.623Z" fill="#6B5F52"/>
<path fill-rule="evenodd" clip-rule="evenodd" d="M252.024 560.227C249.78 560.552 248.574 561.116 246.424 561.422C239.401 562.124 231.681 562.826 224.66 563.528C197.981 567.037 174.11 572.656 155.156 585.993C150.243 590.909 144.624 595.821 146.029 604.248C149.539 610.567 156.047 610.128 162.365 612.937C158.855 613.638 157.261 614.077 153.75 614.077C140.413 612.672 125.667 608.459 117.245 598.63C116.541 597.227 116.541 595.122 115.839 593.718C114.436 585.993 119.35 579.674 124.967 575.462C155.392 553.197 216.753 551.404 252.024 560.227Z" fill="#00A870"/>
<path fill-rule="evenodd" clip-rule="evenodd" d="M248.715 561.02C219.909 566.112 156.305 587.711 162.318 612.935C157.007 611.937 145.569 609.399 145.543 602.472C143.955 571.763 223.867 561.62 248.715 561.02Z" fill="#6B5F52"/>
<path fill-rule="evenodd" clip-rule="evenodd" d="M538.479 600.737C530.253 613.067 513.513 616.937 499.163 616.183C499.866 606.353 498.46 597.929 493.547 591.611C473.888 572.656 448.021 564.359 417.835 558.741C414.555 558.321 409.87 557.447 407.059 556.745C433.62 549.864 564.719 551.139 538.479 600.737Z" fill="#00A870"/>
<path fill-rule="evenodd" clip-rule="evenodd" d="M416.682 558.642C432.034 563.01 454.838 566.21 473.36 577.498C486.876 585.737 500.166 589.914 499.118 615.669C504.095 615.669 514.097 613.449 516.237 606.991C525.518 574.832 438.892 558.951 416.682 558.642Z" fill="#6B5F52"/>
<path fill-rule="evenodd" clip-rule="evenodd" d="M334.514 526.649L346.978 505.064C347.568 505.202 348.189 505.268 348.82 505.268C353.297 505.268 356.955 501.609 356.955 497.132C356.955 492.653 353.297 488.997 348.82 488.997C346.664 489.002 344.597 489.86 343.073 491.385C341.548 492.91 340.689 494.976 340.684 497.132C340.684 498.982 341.305 500.696 342.354 502.068L329.82 523.779V499.199C332.951 498.064 335.206 495.062 335.206 491.549C335.206 487.07 331.548 483.414 327.069 483.414C322.592 483.414 318.934 487.07 318.934 491.549C318.934 495.06 321.188 498.063 324.317 499.199V524.384L311.601 502.357C313.087 500.839 313.919 498.8 313.919 496.676C313.914 494.52 313.055 492.453 311.531 490.929C310.006 489.404 307.94 488.546 305.783 488.541C301.306 488.541 297.648 492.197 297.648 496.676C297.648 501.153 301.306 504.812 305.783 504.812C306.072 504.812 306.359 504.797 306.639 504.769L319.345 526.773L298.369 514.662C298.531 514.021 298.614 513.348 298.614 512.656C298.614 508.178 294.956 504.52 290.478 504.52C286 504.52 282.343 508.178 282.343 512.656C282.348 514.812 283.207 516.878 284.731 518.403C286.256 519.927 288.322 520.786 290.478 520.791C292.263 520.791 293.926 520.213 295.272 519.229L316.088 531.248H292.795C292.276 529.591 291.242 528.143 289.844 527.114C288.446 526.085 286.757 525.528 285.021 525.525C280.544 525.525 276.885 529.183 276.885 533.66C276.885 538.137 280.544 541.796 285.021 541.796C288.405 541.796 291.322 539.704 292.546 536.75H324.317V544.453H329.82V536.75H361.906C363.13 539.704 366.048 541.796 369.431 541.796C373.908 541.796 377.566 538.137 377.566 533.66C377.566 529.183 373.908 525.525 369.431 525.525C367.695 525.528 366.005 526.084 364.608 527.113C363.21 528.143 362.176 529.591 361.658 531.248H337.556L359.176 518.766C360.569 519.786 362.251 520.336 363.978 520.334C368.456 520.334 372.113 516.677 372.113 512.2C372.109 510.043 371.25 507.977 369.725 506.452C368.2 504.927 366.134 504.069 363.978 504.064C359.5 504.064 355.842 507.72 355.842 512.2C355.842 512.884 355.924 513.556 356.085 514.196L334.514 526.649Z" fill="#00A870"/>
<path fill-rule="evenodd" clip-rule="evenodd" d="M258.283 216.421C258.918 211.941 262.226 206.606 265.378 204.075C269.592 201.968 268.187 195.651 273.103 193.544C278.718 192.14 282.229 190.737 286.44 187.926C289.249 186.523 294.867 184.418 297.674 187.926C297.674 191.438 293.461 196.353 296.972 199.161C296.27 203.374 296.27 206.182 292.059 206.884C290.653 208.989 294.163 216.712 289.249 216.712C283.632 223.732 292.059 226.541 296.27 230.051C304.695 232.86 306.098 241.285 310.312 247.604C319.438 250.411 327.862 254.623 337.689 251.814C340.498 253.22 344.71 253.22 345.413 256.73C347.517 259.539 347.517 262.346 346.116 265.154C343.305 265.856 339.797 268.665 336.986 265.856C334.179 264.452 333.478 260.241 329.266 262.346C327.862 263.749 328.564 266.558 326.459 266.558C331.373 269.367 335.583 271.473 338.391 277.089C344.007 272.879 350.326 266.558 353.134 259.539C358.049 255.325 365.771 253.922 368.579 246.902C371.389 244.094 375.6 244.793 379.813 244.793C384.727 239.881 388.237 229.348 396.662 231.457C401.577 227.945 407.193 224.434 413.512 227.945C414.916 225.138 418.427 225.138 420.533 225.138C424.746 225.84 431.764 222.33 435.978 227.243C438.785 225.138 443.701 226.541 447.212 226.541C449.317 231.457 454.23 229.348 458.445 230.753C461.955 231.457 464.06 234.966 466.167 237.775C473.186 235.667 480.207 235.667 487.228 236.369C487.932 241.285 481.613 241.986 479.505 245.496C481.613 250.411 487.228 253.22 487.228 258.133C485.121 258.837 481.613 257.432 480.911 260.241C482.312 263.049 484.421 267.961 481.613 270.07C477.398 271.473 474.592 276.387 471.783 279.897C470.379 280.6 468.273 280.6 467.57 278.494C466.867 283.408 462.657 286.918 457.741 289.727C454.932 293.939 452.827 299.555 447.913 302.364C447.614 304.165 431.109 314.099 430.361 305.874C428.957 300.257 436.68 302.364 436.68 297.45C435.274 296.045 433.17 296.747 431.764 296.747C428.957 298.853 428.957 305.874 424.042 302.364H424.012C423.34 300.648 422.419 298.206 423.264 296.944C426.312 292.404 437.784 285.987 432.468 278.494C425.445 279.196 428.957 292.534 419.83 289.023C419.127 290.429 421.235 290.429 421.937 291.131C423.34 293.236 421.235 293.939 419.83 293.236C420.38 294.883 421.283 299.674 421.991 302.364H421.937C422.636 307.278 422.636 311.49 422.636 316.406C432.449 318.856 457.644 311.19 461.251 313.597C464.06 316.406 466.167 319.213 467.57 322.021C467.57 326.234 467.57 331.148 465.464 333.956C463.358 345.19 467.57 355.017 469.676 365.547C461.251 372.568 462.657 388.716 449.317 390.121C448.615 391.522 446.508 391.522 444.402 391.522C443.701 383.802 444.402 377.483 444.402 370.462C446.508 367.655 452.126 368.354 452.827 364.144C445.807 357.825 453.529 351.508 452.827 344.487C452.827 339.571 452.827 335.362 452.126 330.446C449.317 333.254 444.402 332.553 443.701 336.064C433.17 340.977 427.554 347.294 417.021 353.613C410.703 355.017 408.599 358.527 402.279 359.93C404.386 365.547 410.002 368.354 414.214 372.568C414.916 371.165 414.916 369.76 414.916 369.056C418.427 368.354 418.427 373.973 423.34 371.865C422.636 365.547 416.321 362.739 412.808 358.527C411.405 355.717 415.618 357.123 416.321 357.825C419.83 360.632 415.618 352.909 419.83 354.314C423.34 362.035 428.256 369.76 433.17 376.781C435.274 383.802 441.593 387.31 442.296 394.331C448.615 404.863 457.039 412.584 465.464 420.308C470.379 425.925 480.911 420.308 484.421 427.329C486.615 429.083 487.145 433.917 487.487 435.896L492.63 435.172C494.737 439.385 492.142 444.879 492.844 449.795L446.508 458.921L503.375 456.114C508.291 463.835 513.207 471.559 516.713 479.28C512.503 489.811 510.396 500.343 506.184 510.17C465.464 518.597 426.851 530.532 391.747 551.594C389.643 550.891 387.535 550.891 386.132 550.191C391.747 530.532 384.727 509.469 370.687 494.725C354.54 477.877 331.373 471.559 308.906 478.577C288.546 483.494 273.103 504.554 268.89 523.51C266.783 532.638 267.485 543.168 268.89 551.594C268.187 552.294 267.485 552.294 266.081 552.294C229.573 538.956 193.77 521.405 153.051 517.895C155.858 509.469 161.474 501.746 166.387 493.322C174.814 492.62 183.94 491.918 192.364 491.216C193.77 486.301 192.452 481.493 192.452 475.878L244.279 468.871C242.815 467.701 242.49 464.121 241.849 461.71C241.007 458.298 239.629 455.583 233.786 458.921C232.383 456.815 230.979 455.411 228.872 453.306C226.065 445.583 222.553 437.159 215.534 430.137C209.897 425.696 207.487 423.458 211.32 417.499C215.152 411.542 227.468 404.863 229.573 395.035C221.851 383.802 213.427 373.27 210.618 359.228C208.082 356.693 202.251 359.639 201.491 363.441C202.193 368.354 201.491 373.973 200.088 378.886C197.981 380.992 194.473 378.886 192.364 380.992C195.874 384.503 197.28 389.418 196.578 395.035C192.364 395.736 186.748 397.841 182.536 395.736C180.429 394.331 180.429 398.545 178.324 398.545C176.919 398.545 175.516 397.841 174.11 397.841C170.601 391.522 175.516 388.012 178.324 382.397C177.622 382.397 177.622 381.694 176.919 381.694C174.11 383.098 169.198 382.397 165.686 383.802C161.839 381.877 167.269 373.27 168.494 373.27C163.125 359.853 181.684 339.698 193.77 346.592C195.874 348.699 200.088 348.699 203.599 348.699C205.704 345.19 214.128 350.102 212.023 343.082C217.638 328.34 228.872 320.615 242.913 315C243.615 314.299 243.615 314.299 244.317 314.299C247.126 313.597 249.231 312.896 252.039 312.192C265.378 310.788 277.314 309.383 287.844 303.066C287.844 300.959 284.335 301.66 283.632 300.257C277.314 298.853 273.802 299.555 267.485 300.257C266.783 300.257 266.081 300.257 265.378 299.555H263.273C262.571 297.45 262.571 293.938 259.763 294.642C256.954 291.835 254.846 289.023 254.846 286.215C263.273 283.408 266.081 273.578 270.995 266.558C270.293 265.154 268.187 267.259 266.783 265.856C263.974 258.133 279.422 263.049 272.399 256.028C268.068 254.173 260.967 247.604 258.057 246C257.355 247.404 255.55 249.007 254.846 250.411C250.636 253.922 248.529 259.539 245.721 263.049C244.317 263.049 242.913 262.346 242.913 260.94C242.913 257.432 246.424 256.028 247.126 252.518C248.529 247.604 252.039 242.688 252.039 237.775C248.529 239.177 246.424 231.457 243.615 236.369C238.702 239.177 233.786 241.986 228.872 245.496C228.872 246.198 228.872 248.305 227.468 247.604C226.065 246.901 223.956 244.793 225.362 243.39C231.681 239.881 235.191 234.264 242.21 230.753C243.615 229.348 242.913 227.945 242.21 226.541C237.298 225.84 233.786 225.138 230.979 220.222C233.786 213.201 226.765 207.585 226.765 200.564C226.065 195.651 224.66 190.737 223.956 186.523C220.447 190.035 222.553 195.651 221.149 200.564C219.744 206.182 212.725 201.968 210.618 207.585C210.618 215.308 217.638 220.222 219.044 227.243C217.638 239.881 216.935 253.22 224.66 263.049C225.362 265.154 225.362 267.961 224.66 269.367C223.254 270.77 220.447 270.77 219.044 269.367C217.638 267.961 217.638 264.452 219.044 263.049C219.044 262.346 219.744 261.644 220.447 261.644C214.83 252.518 215.534 240.583 216.236 229.348C214.83 220.222 201.491 208.989 213.427 201.266C214.128 201.266 216.236 201.266 216.935 199.863C217.638 189.332 217.638 178.8 220.447 169.673C217.638 166.865 213.427 164.058 212.725 159.143C213.427 153.525 213.427 147.909 215.534 143.697C216.236 143.697 217.638 142.996 218.341 143.697C221.149 147.909 221.149 153.525 223.254 158.441C223.956 154.931 226.065 152.826 225.362 148.613C227.468 147.909 228.17 149.315 230.275 150.718C229.573 156.334 228.872 162.655 231.681 167.569C230.275 170.376 233.786 171.781 233.786 173.887C238.702 183.716 240.807 194.247 247.828 203.374C248.223 204.294 248.316 204.952 248.223 205.418C248.149 205.794 254.709 209.541 255.532 211.049C255.345 212.037 258.247 216.688 258.283 216.421ZM255.03 212.043C253.739 213.126 253.158 213.356 252.742 214.606C248.529 213.904 247.126 216.712 245.018 218.819C245.018 219.52 243.615 220.924 245.018 221.627C247.828 223.03 251.336 217.413 252.039 222.33C250.636 222.33 249.933 223.03 249.933 224.434C251.336 225.84 253.445 228.648 255.55 227.945C256.954 227.243 255.55 223.732 258.357 224.434C262.571 227.243 259.061 232.86 261.165 237.073C263.974 239.881 256.252 238.478 260.466 241.986C265.378 244.094 269.592 248.305 274.506 247.604C273.103 242.688 266.081 244.094 263.974 239.881C272.399 239.881 277.314 247.604 286.44 246.902C291.355 249.007 296.972 252.518 301.885 249.007C304.695 246.198 301.185 242.688 300.482 239.177C299.077 237.073 295.566 236.369 294.867 234.264C287.844 232.86 287.844 221.627 278.718 222.33C274.506 222.33 274.506 211.096 270.293 218.819C270.995 220.924 274.506 221.627 276.611 223.732C279.422 225.138 282.929 227.243 282.229 230.753C283.632 232.157 285.037 232.86 284.334 234.966C280.825 234.966 280.121 230.753 277.314 228.648C270.995 224.434 264.676 220.924 258.357 217.413C258.078 217.15 255.99 214.297 255.03 212.043ZM384.727 370.462C391.747 368.354 395.258 377.483 401.577 380.291C416.321 386.609 419.127 403.457 434.575 409.075C444.402 415.394 442.999 432.946 457.741 432.243C459.848 434.35 459.848 437.159 460.549 439.965L305.335 460.616C304.634 457.104 302.588 454.006 299.779 451.902C286.44 449.093 275.911 441.368 264.676 436.455C263.974 435.049 263.273 434.35 263.273 432.946C262.571 432.243 261.869 431.54 261.165 430.137V419.606C264.676 409.778 270.995 401.352 271.697 389.418C273.104 385.198 280.804 378.184 285.037 378.184C289.951 378.184 294.867 378.886 299.779 378.886C314.522 378.886 329.266 376.079 344.007 376.781C346.116 376.079 348.923 375.375 350.326 376.079C350.326 378.184 350.326 380.992 351.732 382.397C361.561 383.098 364.368 392.928 372.09 397.841C373.494 397.841 376.303 398.545 377.005 396.438C377.005 386.609 367.177 379.588 366.473 369.76C369.281 366.951 373.494 367.655 377.005 364.846C380.515 364.846 381.216 369.76 384.727 370.462ZM319.438 260.94C320.292 263.506 322.477 265.386 324.352 267.259C326.459 269.367 325.756 271.473 327.862 272.879C331.373 273.578 332.777 277.089 335.583 278.494C341.2 282.704 333.478 284.11 332.075 286.918C322.949 285.515 323.651 302.364 314.522 296.045C312.417 296.045 311.715 290.429 310.312 293.938C311.014 297.45 314.522 298.152 314.522 302.364C310.312 301.66 306.098 300.959 304.695 297.45C306.8 294.642 308.203 291.131 311.014 289.023C316.63 289.727 318.033 284.812 320.841 281.303C322.949 281.303 325.053 279.897 325.756 277.791C326.459 277.089 327.159 274.984 325.756 273.578C323.651 279.196 315.224 274.282 314.522 281.303C311.014 282.005 306.8 283.408 305.396 287.62C303.993 293.938 296.27 294.642 290.653 294.642C289.249 296.747 286.44 294.642 285.037 294.642C287.844 290.429 295.566 294.642 299.077 291.131C303.289 286.215 306.8 278.494 312.417 274.282C313.821 270.77 311.715 271.473 310.312 273.578C306.8 277.089 298.376 276.387 296.972 283.408L296.27 284.11C293.461 284.812 290.653 285.515 287.844 285.515C283.632 286.215 280.825 283.408 278.016 281.303C280.121 278.494 284.334 277.791 286.44 274.984C288.546 272.175 290.653 269.367 291.355 266.558C289.951 265.154 289.249 266.558 287.844 267.259C285.037 267.961 282.929 270.07 280.825 270.07C282.929 264.452 285.037 258.133 292.758 258.133C296.972 256.028 303.993 256.73 306.8 251.112C312.417 253.922 313.821 259.539 319.438 260.94ZM272.399 352.208C275.208 355.017 274.506 359.228 274.506 362.739C269.592 367.655 275.208 374.673 273.103 380.291C268.187 386.609 266.783 393.629 266.081 401.352C265.378 402.054 264.676 404.863 262.571 404.16C260.466 399.948 261.869 394.331 260.466 390.121C256.954 391.522 258.357 397.14 255.55 399.247C254.147 394.331 249.933 387.31 243.615 383.802C240.105 382.397 234.489 380.992 233.083 376.781H233.786C238 378.184 242.21 379.589 247.126 380.992C249.933 380.291 257.658 389.418 254.846 380.992C252.742 369.056 241.509 365.547 232.383 361.336C230.275 359.93 227.468 357.825 226.765 355.017C233.786 358.527 243.615 358.527 250.636 363.441C253.445 359.93 248.529 356.42 248.529 352.909C247.865 351.911 241.225 345.891 242.21 345.891C242.864 345.563 247.161 348.734 247.828 349.398C261.869 351.508 258.357 368.354 264.676 377.483C268.187 371.165 270.995 364.846 268.187 357.123C264.676 351.508 262.571 344.487 259.763 338.872C265.378 342.381 266.783 348.699 272.399 352.208ZM415.618 373.27C419.127 376.079 422.636 379.588 427.554 380.291C432.468 383.802 438.083 388.716 437.384 395.035C445.807 405.566 454.23 415.394 464.06 424.522C467.57 426.625 471.081 427.329 475.995 426.625C475.294 430.84 468.976 428.031 466.167 429.434C461.955 428.732 458.445 423.116 453.529 426.625C451.422 413.287 438.083 404.16 428.957 395.035C428.957 389.418 422.636 387.31 420.533 383.098C420.533 379.588 415.618 377.483 415.618 373.27ZM440.892 230.753C445.807 228.648 445.807 234.966 450.019 234.966C453.529 234.264 458.445 234.966 459.848 238.478C463.358 249.709 472.484 237.775 479.505 239.177C479.505 241.986 474.592 242.688 474.592 245.496C478.102 247.604 480.207 251.112 482.312 253.922C482.312 256.028 480.207 254.623 479.505 255.325C475.995 257.432 478.804 262.346 479.505 265.856C477.398 265.154 475.294 262.346 475.294 259.539C475.294 258.837 474.592 258.133 473.888 257.432C472.484 257.432 471.081 258.837 471.783 260.241C472.484 263.749 477.398 266.558 473.888 269.367C472.484 265.856 469.676 262.346 466.867 259.539C466.167 256.028 471.081 247.604 465.464 250.411C463.358 257.432 461.251 267.259 468.273 272.175C465.464 278.494 462.657 284.11 456.338 286.918C455.636 287.62 456.338 288.322 455.636 289.023C452.827 289.727 450.019 294.642 445.808 293.236C445.808 287.62 453.529 286.215 452.827 280.6C457.039 277.089 454.932 286.918 458.445 281.303C460.549 276.387 454.932 274.282 456.338 270.07C454.23 268.665 454.23 270.77 453.529 272.175C453.529 275.686 452.126 279.897 447.913 281.303C444.402 281.303 448.615 278.494 447.212 275.686C445.104 272.879 446.508 270.07 447.212 266.558C444.402 266.558 444.402 269.367 442.999 270.07C441.593 269.367 442.999 267.259 442.999 265.856C444.402 265.154 445.807 263.749 446.508 262.346C445.104 261.644 445.104 259.539 446.508 259.539C449.317 253.922 457.039 255.325 461.251 251.112C453.529 248.305 445.104 250.411 438.083 253.922C436.68 250.411 441.593 249.007 444.402 246.902C446.508 246.902 448.615 244.793 449.317 242.688C448.615 235.667 445.104 244.094 441.593 242.688C436.68 245.496 432.468 245.496 427.554 248.305C426.851 244.094 434.575 239.177 431.764 234.264C429.659 243.39 417.021 240.583 414.214 249.007C407.895 246.902 415.618 241.986 415.618 237.775C414.916 237.073 416.321 234.264 414.214 234.966C412.808 239.881 407.193 242.688 406.489 246.902C402.981 247.604 399.471 249.709 398.769 253.22C394.556 251.814 400.172 247.604 400.172 244.793C400.172 243.39 400.874 241.986 399.471 240.583C397.365 241.285 398.065 243.39 396.662 244.793C388.941 248.305 388.237 256.028 386.132 263.049C381.918 261.644 380.515 258.837 377.005 258.837C374.196 258.837 372.09 260.94 369.985 258.837C365.771 259.539 371.389 261.644 370.687 263.049C372.09 263.749 373.494 263.749 374.897 264.452C374.897 265.856 372.09 267.259 369.985 266.558C365.771 265.154 363.666 267.259 360.155 265.856C359.452 267.961 361.561 268.665 363.666 270.07C366.473 269.367 367.177 275.686 371.389 273.578C376.303 277.791 382.622 274.282 388.237 277.089C385.429 279.196 381.918 278.494 379.813 280.6C373.494 278.494 367.177 278.494 360.155 276.387C356.645 279.897 351.028 280.6 344.71 282.005C342.604 272.879 355.242 272.879 353.836 263.749C359.452 263.049 365.07 260.94 367.879 256.028C368.579 253.22 371.389 251.814 373.494 249.709C384.028 251.112 386.132 238.478 394.556 236.369C396.662 237.073 400.172 237.073 402.279 234.966C402.981 232.157 405.088 231.457 407.193 231.457C411.405 229.348 415.618 237.073 419.127 230.753C421.937 230.051 425.445 233.562 427.554 230.051C433.17 227.243 435.978 236.369 440.892 230.753ZM341.902 291.835C346.116 298.853 354.54 299.555 356.645 307.98C353.836 310.087 348.923 312.192 347.517 316.406C349.432 315.647 355.374 312.235 358.752 314.299C366.473 319.916 367.177 330.446 376.303 334.658C376.303 343.786 385.429 347.294 385.429 356.42C386.834 359.93 388.237 362.739 388.237 365.547C382.622 369.76 383.324 359.228 379.111 357.825C374.196 355.017 367.879 352.208 362.962 350.102C365.771 335.362 351.732 334.658 346.116 323.427C343.305 320.615 342.604 315.702 338.391 313.597C337.689 313.597 338.391 312.896 338.391 312.896C341.902 312.896 345.413 311.49 348.923 310.788C347.517 307.278 343.305 305.874 340.498 303.066C336.986 300.959 334.179 308.681 329.968 303.768C328.564 304.471 328.564 305.171 327.159 305.874C325.756 304.471 324.352 301.66 323.651 299.555C323.651 290.429 334.881 292.534 338.391 286.918C341.902 286.215 339.797 290.429 341.902 291.835ZM341.902 340.275C339.797 345.19 337.689 350.804 332.777 352.909C332.075 353.613 332.075 354.314 331.373 354.314C329.968 355.017 330.669 353.613 330.669 353.613C330.669 352.909 331.373 352.909 332.075 352.909C333.478 350.102 334.881 347.995 336.986 345.19C338.391 341.679 339.093 338.168 340.498 334.658C342.604 335.362 342.604 338.168 341.902 340.275ZM343.305 353.613C339.797 359.93 333.478 365.547 325.053 366.25C326.459 363.441 330.669 362.035 333.478 359.93C336.286 354.314 339.797 348.699 344.007 343.786C345.413 346.592 344.71 350.804 343.305 353.613ZM378.408 299.555C379.111 303.768 375.599 298.853 374.897 299.555C373.494 298.853 373.494 296.747 370.687 296.747C368.579 295.342 365.771 293.236 363.666 291.131C369.281 289.023 376.303 293.938 378.408 299.555ZM401.577 282.005C403.683 281.303 405.79 282.005 405.79 283.408C403.683 282.704 401.577 283.408 401.577 282.005ZM303.993 301.66C304.695 305.874 298.376 300.257 299.779 305.171C297.674 305.171 296.972 303.768 296.972 302.364C296.972 300.257 299.779 300.257 301.185 299.555C302.588 298.853 303.993 300.959 303.993 301.66ZM279.422 199.863C275.911 200.564 275.911 205.48 273.103 206.182C272.399 204.777 273.802 203.374 271.697 203.374C271.697 202.671 272.399 201.968 272.399 201.266C275.208 200.564 276.611 198.459 279.422 197.756C280.121 198.459 279.422 199.161 279.422 199.863ZM242.21 203.374C240.105 204.777 238 208.989 234.489 207.585C231.681 194.949 225.362 183.716 226.065 170.376C228.17 165.462 230.275 173.185 231.681 175.289C235.892 184.418 235.191 195.651 242.21 203.374ZM289.951 204.777C289.951 206.182 287.142 205.48 286.44 206.884C287.844 208.989 291.355 208.989 289.951 213.201C289.951 214.606 285.037 213.201 287.142 216.012C286.44 216.712 282.229 218.117 285.037 219.52C285.037 221.627 281.526 218.117 279.422 218.117C277.314 218.117 275.911 214.606 276.611 212.5C278.016 209.693 278.718 215.308 281.526 213.201C281.526 209.693 281.526 205.48 284.334 202.671C286.44 201.968 288.546 204.075 289.951 204.777ZM292.059 196.353C287.142 197.756 289.951 194.247 290.653 191.438C296.27 185.821 292.758 194.247 292.059 196.353ZM294.867 200.564C294.163 202.671 290.653 201.266 288.546 201.266C287.844 200.564 285.739 200.564 287.142 199.161C289.951 199.161 293.461 199.161 294.867 200.564ZM242.21 411.884C240.105 408.375 241.509 403.457 238 400.65C237.297 399.247 238 396.438 239.401 399.247C242.913 402.054 242.913 406.969 242.21 411.884ZM260.466 461.73C259.763 464.538 254.846 463.835 252.039 463.835C252.039 461.73 255.55 460.324 257.658 459.625C259.061 458.921 259.763 460.324 260.466 461.73ZM300.974 459.66C299.991 462.263 294.182 461.024 291.355 461.73C290.653 459.625 296.27 460.324 296.972 456.114C298.376 456.114 300.272 458.255 300.974 459.66ZM240.807 437.858C245.018 439.264 249.231 438.562 252.742 441.368C259.334 444.316 274.285 459.325 276.096 457.389C277.499 459.498 280.252 461.389 278.851 464.197L266.4 465.881C264.292 459.562 260.466 454.709 256.252 451.198C252.742 449.795 246.424 451.902 245.018 449.093C244.317 448.391 243.615 448.391 242.21 448.391C237.298 440.669 227.468 432.243 233.083 422.414C235.191 423.116 235.191 418.902 237.298 420.308C237.298 423.63 232.536 439.697 240.807 437.858ZM260.466 432.946C261.165 433.646 261.869 434.35 261.869 435.049C258.357 435.753 256.954 432.946 255.55 430.84C254.147 426.625 254.846 423.818 254.846 419.606C259.061 416.797 257.658 421.01 257.658 423.116C257.658 429.548 260.466 428.404 260.466 432.946ZM237.298 412.584C230.979 417.499 222.553 419.606 220.447 428.031C219.044 425.221 218.341 422.414 218.341 419.606C224.66 416.797 230.275 413.99 234.489 409.075C237.298 404.863 238 411.182 237.298 412.584ZM409.298 300.959C410.703 307.278 413.512 313.597 412.808 320.615C411.405 322.021 409.298 319.916 407.895 321.319C405.79 322.021 403.683 321.319 401.577 323.427C403.683 326.934 408.599 324.83 412.109 325.531C424.746 317.809 441.593 324.128 454.932 316.406C461.251 314.299 461.251 322.021 464.06 325.531C461.251 338.168 460.549 350.804 463.358 363.441C462.657 364.846 461.955 366.25 459.848 365.547C456.338 364.846 460.549 363.441 459.848 361.336C457.741 358.527 454.932 356.42 457.039 352.909C459.848 345.891 458.445 336.763 457.039 329.744C454.23 326.234 450.72 328.34 448.615 326.934C435.978 329.043 424.042 332.553 415.618 341.679C412.109 345.891 406.489 347.294 400.874 347.294C395.962 343.786 396.662 337.467 391.747 334.658C387.535 334.658 384.028 331.148 381.216 329.043C381.216 326.934 380.515 325.531 379.813 324.128C385.429 325.531 392.45 324.83 396.662 329.043C397.365 329.744 398.065 328.34 398.065 327.637C397.365 318.511 388.941 316.406 384.028 310.788C391.747 311.49 398.769 315 405.088 319.916C407.895 314.299 408.599 307.98 407.895 300.959H409.298ZM481.613 435.753V437.159C478.102 437.159 474.592 438.562 471.081 438.562C471.783 435.049 476.697 435.049 478.804 432.946C480.911 432.946 480.207 435.049 481.613 435.753ZM252.75 209.263C251.285 208.224 248.93 206.309 247.868 206.078C245.762 208.184 238 212.5 237.298 215.308C237.298 216.012 237.297 217.413 238 217.413C241.509 211.096 247.476 210.946 252.75 209.263Z" fill="#FBBD09"/>
</g>
</g>
<defs>
<linearGradient id="paint0_linear_806_90823" x1="168.7" y1="655.77" x2="284.892" y2="593.99" gradientUnits="userSpaceOnUse">
<stop stop-color="#A4D3E8"/>
<stop offset="0.2" stop-color="#A9D4E8"/>
<stop offset="0.3" stop-color="white"/>
<stop offset="1" stop-color="white"/>
</linearGradient>
<linearGradient id="paint1_linear_806_90823" x1="105.986" y1="617.026" x2="239.686" y2="512.568" gradientUnits="userSpaceOnUse">
<stop stop-color="#A4D3E8"/>
<stop offset="0.13" stop-color="#B0D9E9"/>
<stop offset="0.28" stop-color="white"/>
<stop offset="1" stop-color="white"/>
</linearGradient>
<linearGradient id="paint2_linear_806_90823" x1="388.657" y1="598.086" x2="492.142" y2="646.342" gradientUnits="userSpaceOnUse">
<stop stop-color="white"/>
<stop offset="0.8" stop-color="#ABD7EB"/>
<stop offset="1" stop-color="#A4D3E8"/>
</linearGradient>
<linearGradient id="paint3_linear_806_90823" x1="422.096" y1="509.171" x2="555.038" y2="613.037" gradientUnits="userSpaceOnUse">
<stop stop-color="white"/>
<stop offset="0.83" stop-color="#AED8EB"/>
<stop offset="1" stop-color="#A4D3E8"/>
</linearGradient>
<clipPath id="clip0_806_90823">
<rect width="661.38" height="700" fill="white"/>
</clipPath>
</defs>
</svg>
