<svg id="id-svg" width="563" height="690" viewBox="0 0 563 690" fill="none" xmlns="http://www.w3.org/2000/svg">
<g clip-path="url(#clip0_806_90855)">
<path fill-rule="evenodd" clip-rule="evenodd" d="M562.021 0.328613V582.864C562.021 620.014 532.16 649.941 495.092 649.941H345.787C316.442 650.973 292.758 660.777 279.372 689.671C264.957 661.808 255.176 652.004 213.473 649.941H67.2582C30.1896 649.941 0.329102 620.014 0.329102 582.864V0.328613H562.021Z" fill="#D1D3D4" stroke="black" stroke-width="0.657882"/>
<path fill-rule="evenodd" clip-rule="evenodd" d="M281.711 140.177C405.772 140.177 506.382 240.68 506.382 364.607C506.382 488.537 405.772 589.04 281.711 589.04C157.65 589.04 57.04 488.537 57.04 364.607C57.04 240.68 157.65 140.177 281.711 140.177Z" fill="white" stroke="#1F1A17" stroke-width="0.856945"/>
<path fill-rule="evenodd" clip-rule="evenodd" d="M281.711 217.036C363.283 217.036 429.435 283.117 429.435 364.601C429.435 446.087 363.283 512.169 281.711 512.169C200.139 512.169 133.987 446.087 133.987 364.601C133.987 283.117 200.139 217.036 281.711 217.036ZM281.711 199.468C372.994 199.468 447.022 273.417 447.022 364.601C447.022 455.788 372.994 529.737 281.711 529.737C190.428 529.737 116.4 455.788 116.4 364.601C116.4 273.417 190.428 199.468 281.711 199.468Z" fill="#FFD900"/>
<path fill-rule="evenodd" clip-rule="evenodd" d="M423.182 407.172C420.356 416.554 416.621 425.543 412.079 434.035H151.348C148.1 427.967 145.261 421.649 142.876 415.112L145.858 415.783C164.316 403.904 181.498 397.114 201.647 389.525C209.336 394.704 216.847 397.563 223.105 405.601C240.272 400.529 255.162 396.26 272.329 391.19C278.051 389.5 283.909 386.2 291.239 385.313C308.404 388.53 323.781 393.492 335.223 400.998C341.174 398.096 347.483 394.834 356.308 389.065C379.239 399.659 401.455 402.85 423.182 407.172Z" fill="#066C4B"/>
<path fill-rule="evenodd" clip-rule="evenodd" d="M412.077 434.035C387.207 480.525 338.155 512.171 281.711 512.171C225.268 512.171 176.215 480.525 151.346 434.035H412.077Z" fill="#0039A6"/>
<path fill-rule="evenodd" clip-rule="evenodd" d="M372.076 481.322C366.975 485.268 361.61 488.889 356.01 492.152C355.022 491.601 354.135 491.025 353.383 490.435C350.295 493.204 343.254 496.434 338.191 496.434C331.68 496.434 323.294 493.081 318.658 490.435C314.939 493.322 306.935 496.434 301.073 496.434C295.211 496.434 287.617 493.101 283.489 490.435C279.555 493.101 270.178 496.434 263.522 496.434C257.65 496.434 250.787 493.769 245.905 490.435C240.37 493.769 234.34 496.434 228.557 496.434C221.121 496.434 211.954 493.769 206.253 490.435C205.991 490.627 205.725 490.813 205.455 490.996C200.489 488 195.715 484.716 191.154 481.176C196.075 480.48 200.792 477.991 206.253 475.37C213.102 478.768 220.295 481.369 227.318 481.369C233.514 481.369 240.205 478.48 245.905 475.37C251.748 478.703 258.089 481.369 264.179 481.369C270.27 481.369 276.898 479.218 282.454 475.37C287.671 478.977 295.031 481.369 301.321 481.369C306.869 481.369 313.085 478.657 317.968 475.37C323.277 478.357 331.248 481.369 337.889 481.369C343.054 481.369 349.096 479.574 353.383 475.37C358.319 478.787 365.012 481.369 370.827 481.369C371.239 481.369 371.654 481.344 372.076 481.322ZM402.607 449.391C399.218 454.204 395.548 458.805 391.621 463.173C390.72 462.769 389.994 462.36 389.479 461.951C384.752 466.778 377.446 468.626 371.431 468.626C365.415 468.626 357.42 465.471 353.383 461.951C350.295 465.032 343.254 468.626 338.191 468.626C331.68 468.626 323.294 464.895 318.658 461.951C314.939 465.162 306.935 468.626 301.073 468.626C295.211 468.626 287.617 464.917 283.489 461.951C279.555 464.917 270.178 468.626 263.522 468.626C257.65 468.626 250.787 465.659 245.905 461.951C240.37 465.659 234.34 468.626 228.557 468.626C221.121 468.626 211.954 465.659 206.253 461.951C201.073 466.153 194.407 468.626 188.484 468.626C182.562 468.626 175.895 465.66 170.716 461.952C167.058 457.792 163.629 453.426 160.452 448.872C163.975 447.714 167.43 446.382 170.715 445.188C177.325 448.969 182.561 451.862 188.484 451.862C194.407 451.862 199.815 448.625 206.253 445.188C213.102 448.969 220.295 451.862 227.318 451.862C233.514 451.862 240.205 448.648 245.905 445.188C251.748 448.896 258.089 451.862 264.179 451.862C270.27 451.862 276.898 449.469 282.454 445.188C287.671 449.201 295.031 451.862 301.321 451.862C306.869 451.862 313.085 448.844 317.968 445.188C323.277 448.511 331.248 451.862 337.889 451.862C343.054 451.862 349.096 449.867 353.383 445.188C358.319 448.989 365.012 451.862 370.827 451.862C376.643 451.862 383.629 448.404 388.273 445.188C391.301 446.579 396.614 448.133 402.607 449.391Z" fill="white"/>
<path fill-rule="evenodd" clip-rule="evenodd" d="M281.711 179.269C384.158 179.269 467.241 262.262 467.241 364.6C467.241 466.939 384.158 549.933 281.711 549.933C179.264 549.933 96.1812 466.939 96.1812 364.6C96.1812 262.262 179.264 179.269 281.711 179.269ZM281.711 140.17C405.772 140.17 506.382 240.672 506.382 364.6C506.382 488.529 405.772 589.032 281.711 589.032C157.651 589.032 57.04 488.529 57.04 364.6C57.04 240.672 157.651 140.17 281.711 140.17Z" fill="#0039A6"/>
<path fill-rule="evenodd" clip-rule="evenodd" d="M464.832 517.493C464.009 508.576 465.998 498.163 470.642 489.814C476.57 494.453 482.213 509.274 481.522 510.701C477.972 518.039 469.576 513.465 464.832 517.493ZM402.777 446.141C394.267 442.972 385.724 445.503 380.497 452.114C376.881 456.688 382.045 461.356 387.466 465.154C393.182 459.162 398.111 452.96 402.777 446.141ZM98.2206 515.773C98.7213 506.855 96.6914 497.171 92.0477 488.822C86.1191 493.461 81.2864 506.827 81.9761 508.252C85.5273 515.591 93.3572 511.139 98.2206 515.773ZM174.981 464.242C169.354 458.206 164.88 452.586 160.317 445.675C168.828 442.507 176.642 444.511 181.869 451.122C185.485 455.696 180.401 460.445 174.981 464.242ZM446.736 520.079C450.937 523.108 459.441 534.529 455.857 538.705C451.168 544.167 436.03 541.697 427.316 538.276C433.812 532.695 440.943 526.364 446.736 520.079ZM136.312 538.66C128.542 532.27 121.359 525.176 116.403 519.774C112.244 522.803 103.83 534.317 107.378 538.493C112.022 543.956 127.684 542.081 136.312 538.66Z" fill="#47A5AE" stroke="white" stroke-width="3.44933"/>
<path fill-rule="evenodd" clip-rule="evenodd" d="M379.423 224.837C380.049 229.424 380.38 234.109 380.38 238.868C380.38 295.767 334.188 341.909 277.229 341.909C220.27 341.909 174.077 295.767 174.077 238.868C174.077 234.11 174.409 229.427 175.034 224.839C188.583 268.351 229.217 299.956 277.229 299.956C325.241 299.956 365.876 268.35 379.423 224.837ZM277.228 125.139C321.226 125.139 356.905 160.781 356.905 204.732C356.905 248.682 321.226 284.324 277.228 284.324C233.231 284.324 197.551 248.682 197.551 204.732C197.551 160.781 233.231 125.139 277.228 125.139ZM278.357 121.584C281.521 116.901 287.237 112.549 291.203 112.357C302.938 111.787 312.787 108.186 317.346 97.5663C322.241 86.1622 313.797 76.625 312.689 71.7479C312.017 68.7884 313.472 65.5717 312.689 62.6381C311.986 60.0045 309.182 58.2824 308.397 55.6714C307.524 52.7591 307.006 49.5985 306.827 46.5626C304.681 49.241 302.113 51.2407 301.425 54.6003C300.551 58.8569 304.422 63.2 303.57 67.4611C302.869 70.9634 298.101 72.9001 296.389 76.035C295.426 77.7996 296.204 80.0948 296.16 82.3765C296.137 83.6556 294.65 85.3507 293.285 85.5182C291.813 85.698 289.995 84.6807 289.815 82.3259C289.725 81.1075 290.159 79.7217 290.159 78.7146C290.159 75.2651 294.076 71.3141 293.736 67.8837C293.029 60.7597 285.919 59.0153 284.257 52.9929C282.925 48.1609 286.283 42.941 285.513 37.9887C284.985 34.5942 282.507 31.4627 281.231 28.5155C280.377 26.5429 280.536 24.4096 281.403 22.2661C276.36 24.7367 271.761 30.3443 270.387 35.309C269.283 39.3015 274.143 43.493 274.065 47.6338C273.943 54.2047 265.18 57.8858 263.873 64.2465C262.641 70.2419 268.175 77.8592 268.593 81.945C268.839 84.3447 268.65 86.3655 266.019 86.7522C263.961 87.0557 261.712 85.5103 261.201 83.7703C260.544 81.5336 262.216 78.4156 261.191 76.5711C259.434 73.4104 256.035 70.9994 255.29 67.4611C254.509 63.7541 256.697 59.9898 256.899 56.2075C257.102 52.4264 254.196 49.2298 251.383 46.5445C251.535 48.688 251.293 52.1039 250.281 54.0642C248.573 57.3642 244.863 59.9662 243.844 63.5371C242.955 66.6461 245.831 68.6154 244.468 71.5479C242.637 75.4909 236.877 80.023 237.587 87.8246C238.87 101.895 249.842 111.132 264.365 111.938C269.302 112.212 274.602 118.368 278.357 121.584Z" fill="#FFCB05"/>
<path fill-rule="evenodd" clip-rule="evenodd" d="M153.833 411.96L186.69 396.977L200.63 391.874L195.8 414.369L194.592 405.531L174.968 415.574L179.797 406.736L153.833 411.96ZM313.198 418.822L346.848 395.7L356.387 390.597L353.081 413.093L352.254 404.254L338.826 414.298L342.132 405.461L313.198 418.822ZM218.365 409.234L274.997 392.435L289.751 386.435L280.299 416.769L281.708 400.094L250.438 416.467L262.003 401.298L218.365 409.234Z" fill="#00923F"/>
<path fill-rule="evenodd" clip-rule="evenodd" d="M523.713 483.573C520.38 479.898 515.024 475.497 511.69 470.903C501.462 485.37 492.662 500.421 481.767 513.734C475.711 521.136 465.961 514.174 465.096 520.771C469.344 549.709 478.573 555.749 487.508 563.137C498.391 536.614 510.98 510.093 523.713 483.573ZM512.582 465.755C502.917 478.858 491.788 497.078 482.123 510.181C482.553 493.275 448.113 467.644 425.597 456.1C412.031 449.145 393.225 438.053 380.034 451.63C389.929 431.861 399.824 412.425 409.719 392.656C418.99 390.474 438.954 397.915 456.663 404.379C488.51 416.003 526.389 443.917 512.582 465.755ZM39.4121 482.581C42.745 478.907 48.1785 473.5 51.5124 468.908C61.7416 483.374 69.537 499.69 81.562 512.702C86.4454 517.986 96.8715 512.227 98.0282 519.78C93.7806 548.716 84.5506 554.758 75.6165 562.145C64.7325 535.622 52.1449 509.102 39.4121 482.581ZM50.5425 464.764C60.208 477.866 71.3363 496.086 81.0006 509.189C80.5708 492.284 115.012 466.653 137.527 455.109C151.093 448.153 168.685 437.546 181.876 451.124C171.981 431.355 163.301 411.432 153.405 391.663C144.133 389.483 124.171 396.922 106.462 403.386C74.6139 415.012 36.7352 442.925 50.5425 464.764ZM280.893 587.745C327.024 587.745 370.609 594.182 416.63 607.054C421.744 596.327 426.115 585.222 431.971 574.873C437.763 564.635 446.381 552.957 452.888 543.15C446.535 545.909 437.561 545.248 431.506 543.15C389.717 528.673 341.255 516.484 280.891 516.484C221.126 516.484 173.148 528.673 131.774 543.15C125.779 545.248 116.893 545.909 110.603 543.15C117.046 552.957 125.579 564.635 131.314 574.873C137.112 585.222 141.44 596.327 146.502 607.054C192.066 594.182 235.215 587.745 280.893 587.745Z" fill="#47A5AE" stroke="white" stroke-width="3.44933"/>
</g>
<defs>
<clipPath id="clip0_806_90855">
<rect width="562.35" height="690" fill="white"/>
</clipPath>
</defs>
</svg>
