<svg id="id-svg" xmlns="http://www.w3.org/2000/svg" viewBox="0 0 600 600" xmlns:xlink="http://www.w3.org/1999/xlink"><defs><path id="0" d="m596.56 284c1.526 1.646 2.757 3.151 4.136 3.348 1.379.197 1.576 0 2.363-1.379.788-1.379 1.034-2.56 1.034-3.496 0-2.56-.246-4.678-.295-5.515-.147-2.502-.761-4.474-3.102-4.973-2.094-.446-6-.087-6.647 1.526-.814 2.037-.861 2.569-.64 3.791.413 2.286.613 3.959 3.151 6.696z" stroke="#000" fill="none"/></defs><g transform="matrix(.98979 0 0 .98979 408.16 96.87)" fill-rule="evenodd"><g transform="matrix(11.75197 0 0 11.75197-1343.24-1539.95)"><g stroke-linejoin="round" stroke-linecap="round" stroke-width=".076"><path d="m105 122.75c14.221 0 25.753 11.533 25.753 25.753 0 14.221-11.532 25.753-25.753 25.753-14.221 0-25.753-11.532-25.753-25.753 0-14.22 11.532-25.753 25.753-25.753z" fill="#f2da00" stroke="#fff"/><circle cx="105" cy="148.5" r="21.984" fill="#0093ca" stroke="#1f1a17"/></g><path d="m110.14 132.67l11.31 5.679c-1.108-1.737-2.486-3.293-4.069-4.61l-6.882-1.73c.264-.576.431-1.201.481-1.856-1.947-.656-4.02-1.013-6.149-1.013-2.104 0-4.134.348-6.04.988.043.604.185 1.182.412 1.72l-7.06 2.131c-1.3 1.148-2.447 2.468-3.404 3.922l11.01-5.05c.101.147.21.29.325.428l-13.183 11.456 1.813.269c.322-.064.642-.155.943-.324 1.01-.568 1.506-1.527 2.73-1.582.28-.013.587-.029.903-.046l7.67-8.921c.352.279.738.521 1.152.721l-4.132 7.516c.726-.001 1.497.091 1.769.346.328.308-.162.997.42 1.443l2.722-8.994c.432.141.887.238 1.358.285l-.583 10.785c.514-.283 1.039-.591 1.529-.661.333.26.763.461 1.242.527l-.443-10.712c.41-.07.806-.179 1.184-.322l2.92 8.977c.871-.964.989-1.549 1.555-1.869l-3.86-7.38c.279-.142.546-.304.796-.483l8.137 8.791c.076.019-.496-.574-.443-.561.952.141-.001.953 1.836.694.543-.08.916.024 1.115.175.2.151.226.348.413.677.193.313.549.085.763.217.2.123.232.254.247.374l3.108.619-14.356-11.691c.277-.286.524-.599.736-.934" fill="#f2da00"/><g fill="#fff"><path d="m98.66 130.17l.005.061.007.07.008.07.008.069c.052.39.142.768.27 1.14l.023.064.024.064.017.045-6.612 1.996c-.087.074-.174.149-.26.225l7.06-2.131c-.226-.538-.369-1.117-.412-1.72 1.606-.54 3.302-.872 5.055-.963-1.804.093-3.547.441-5.193 1.01m-10.06 7.949l11.11-5.095.011.016c.04.055.082.111.124.165l.021.027.021.027-13.311 11.567 1.687.25c.149-.023.299-.046.449-.076l-1.813-.269 13.183-11.456c-.115-.138-.223-.28-.325-.428l-11.01 5.05c0 0-.207-.027-.145.221m4.884 4.919l7.495-8.717.03.022.035.026c.27.198.553.373.85.528l.024.013-4.1 7.457c.053-.001.107-.002.162-.002l4.132-7.516c-.414-.199-.8-.442-1.152-.721l-7.67 8.921.195-.011m6.806 1.197l2.693-8.898.03.009.042.012.042.012c.285.08.574.14.868.182l.045.006.045.006.045.006-.58 10.739c.048-.026.097-.053.145-.079l.583-10.785c-.471-.047-.925-.143-1.358-.285l-2.722 8.994c.037.028.077.055.123.081m6.287 1.876l-.439-10.611.035-.007c.283-.056.561-.131.834-.222l.037-.013.037-.013.007-.002 2.874 8.941c.038-.04.1-.107.135-.146l-2.92-8.977c-.377.143-.773.252-1.184.322l.443 10.712c.047.006.094.012.141.015m5.248-4.03l-3.844-7.237.033-.018.052-.029.052-.029c.121-.069.239-.142.355-.218l.049-.033.044-.03 7.27 7.93c.091.024.659.445.733.464l-7.983-8.58c-.251.18-.517.341-.796.483l3.86 7.38c.04-.022.129-.064.174-.084m8.786 3.404l1.983.002c.306.011 2.178.334 2.466.376l-15.446-12.279.002-.002.026-.028.026-.028c.178-.2.342-.409.493-.63l.021-.031.014-.02 11.406 5.727c-1.19-1.923-2.693-3.635-4.453-5.05l-6.447-1.613.02-.048c.102-.253.187-.509.255-.774.053-.22.094-.44.124-.665l.009-.075.008-.075.007-.076c-.046-.016-.092-.031-.138-.047-.05.655-.217 1.28-.481 1.856l6.882 1.73c1.583 1.317 2.961 2.874 4.069 4.61l-11.31-5.679c-.212.335-.459.648-.736.934l14.15 11.526-2.906-.454c.006.051-.057.771-.045.817m-15.41-16.349c-.055-.001-.11-.002-.165-.002m-.99.015c-.024.001-.048.002-.072.003l.072-.003z"/><path d="m104.8 124.14c13.287 0 24.699 10.992 24.699 24.371 0 13.379-11.448 24.406-24.735 24.406-13.287 0-24.24-11.03-24.24-24.406 0-13.379 10.988-24.371 24.274-24.371m-18.425 22.355c.457-.668.662-1.192 1.567-1.34.569-.093 1.179-.145 1.722-.451 1.01-.568 1.506-1.527 2.73-1.582.776-.035 1.768-.098 2.544-.132 2.292-.009.804-.408 2.475-.578.841-.059 1.996 0 2.342.326.372.35-.312 1.194.724 1.611 1.814.731.419 1.95 1.651 2.418.915.115 2.063-1.027 3.07-1.172.576.451 1.446.723 2.356.427.623-.203 1.096-.812 1.928-1.336 2.219-2.039 1.146-2.746 4.045-2.806.655.124 2.261.561 2.759.682.952.141-.001.953 1.836.694.543-.08.916.024 1.115.175.2.151.226.348.413.677.193.313.549.085.763.217.555.341-.184.747 1.01.807.899.056 2.05-.023 2.776.346-1.525-9.2-9.836-16.315-19.36-16.315-10.01 0-18.369 7.852-19.2 17.726.185-.134.423-.265.735-.395"/></g><path d="m104.18 153.65l1.967.062.971-1.75-.778-11.397-1.099-.871-1.262.781-.864 11.26 1.066 1.916m2.144.275h-2.356-.042l-.02-.037-.963-2.125.898-11.333.003-.035.03-.019 1.334-.826.043-.026.039.031 1.162.921.024.019.002.03.811 11.442-.905 1.923-.02.035h-.04" fill="#383431" fill-rule="nonzero"/><path d="m93.78 154.47c7.481.026 15.215.051 22.696.077-2.7 4.518-7.188 6.46-11.485 6.449-4.654-.006-9.251-2.537-11.211-6.526" fill="#0093dd"/><path d="m123.43 143.45c-1.441 7.31-13.413 2.612-17.01 10.858-.85.008-1.7-.017-2.551-.044-.091-.213-.239-.555-.255-.595-3.516-8.433-15.384-3.46-16.923-11.04-1.748 4.664-.061 7.36 1.526 8.588 4.667 3.707 9.402 1.046 13.11 3.121-.013.007-.023.012-.026.012-.289 0-.543.073-.799.089-.223.015-.477.058-.722.061-.015 0-.03 0-.045.001-.001.015-.002.03-.004.045-.043.536.051.706.008 1.241.351.252.683.425 1.125.536.217.054.293.1.483.222.258.166.522.298.779.483.401.29.858.551 1.297.896.017.014.036.028.056.042.117.063.274.327.279.5.004.143-.109.203-.325.217-.099-.003-.057-.006-.112-.006-.018 0-.036 0-.054 0 .002.018.003.036.005.054.007.084.015.168.022.252.001.015.003.03.004.045.015 0 .03 0 .045 0 .18 0 .359 0 .538 0 .005.156.009.311.014.467.001.017.001.033.001.049.017 0 .033-.001.049-.001.153-.005.306-.01.459-.015.016-.001.032-.001.048-.002 0-.016 0-.032 0-.048 0-.15 0-.3 0-.45.206 0 .411 0 .617 0 .018 0 .036 0 .054 0-.002-.018-.003-.036-.005-.054-.007-.084-.015-.168-.022-.252-.001-.013-.002-.025-.003-.038-.013-.002-.025-.004-.038-.007-.363-.064-.404-.25-.367-.458.013-.076.036-.155.059-.234.024-.082.047-.163.06-.24.265.007.5.007.735.007.225 0 .553-.019.806-.013.04.072.059.256.045.328-.034.177-.265.257-.43.256-.015 0-.031 0-.046 0-.001.015-.002.031-.004.046-.01.126-.02.252-.03.379-.001.018-.003.036-.004.054.018 0 .036 0 .054 0 .174 0 .349 0 .523 0 .004.145.009.291.014.436.001.016.001.032.001.048.016 0 .032 0 .048 0 .143 0 .286 0 .428 0 .016 0 .031 0 .047 0 .001-.016.002-.031.003-.047.005-.082.002-.164 0-.246-.002-.064-.004-.128-.002-.191.237 0 .473 0 .71 0 .013 0 .026 0 .039 0 .003-.013.006-.026.009-.038.012-.051.007-.098.001-.146-.004-.039-.009-.077-.001-.112.004-.017.008-.033.012-.05-.017-.003-.034-.007-.051-.01-.135-.027-.248-.064-.34-.109-.131-.065-.221-.145-.272-.233-.05-.085-.064-.177-.046-.268.008-.038.021-.077.039-.114.235-.477.346-1.162.326-1.678 0-.002 0-.004 0-.006 3.837-3.744 8.358.273 13.826-3.99 1.71-1.32 3.921-4.587 2.177-8.601m-20.994 11.753c-.009.001-.017.003-.026.004-.004.001-.009.001-.013.002-.002 0-.004.001-.006.001-.028.004-.055.007-.082.01-.03.003-.052.005-.073.006-.056.004.037.008 0 .018-.029.008-.051.02-.068.039.028.047.081.089.136.123.062.038.182.066.214.08.005.002.009.004.014.006.005.002.008.004.01.005.008.004.016.008.023.012.018.01.036.019.054.029-.02.006-.039.011-.059.017-.008.002-.017.005-.026.007-.001 0-.002 0-.002.001-.057.016-.243.056-.322.106-.669.421-.092.054-.217.242.008.008-.242.041-.233.047.016.011.034.021.055.029.025.009.054.017.09.025.036.007.276.015.329.023.005.001.009.001.014.002.011.002.022.003.033.005-.005.01-.009.02-.014.03-.002.004-.004.009-.006.013-.006.014-.017.027-.032.042-.014.013-.115.027-.134.041-.08.06-.2.126-.263.16.065.07.214.139.278.209.001.001.002.002.002.002.001.001.001.002.002.002.001.001.001.001.001.002.014.022.029.029.014.043-.01.009-.252.076-.284.081-.025.004-.082.008-.111.012.146.08.326.109.51.242.404.292.809.585 1.244.927.001 0 .001.001.002.001.013.011.031.024.05.038.082.058.146.163.267.327.127.269.123.536-.231.57-.069-.002-.138-.004-.196-.005.004.051.009.101.013.152.162 0 .323 0 .485 0 .044 0 .088 0 .132 0 .001.016.001.032.001.048.005.155.009.31.014.465.111-.004.222-.008.333-.012 0-.151 0-.301 0-.452 0-.016 0-.033 0-.049.017 0 .033 0 .05 0 .176 0 .352 0 .528 0-.005-.054-.009-.107-.014-.161-.251.022-.379-.051-.439-.17-.028-.055.081-.765.096-.907 0 0 0-.001 0-.001.002-.015.003-.03.005-.046.015 0 .03.001.046.001.283.008.671.008.918.008.248 0 .497 0 .779.008.027.001.054.001.081.002.144.083.173.216.138.42-.017.098-.034.183-.105.26-.098.105-.284.172-.427.189.002.056.004.112.006.169.163 0 .326 0 .489 0 .016 0 .032 0 .048 0 .001.016.001.032.001.048.005.145.009.291.014.436.111 0 .222 0 .333 0 .002-.064 0-.127-.002-.191-.002-.082-.005-.165 0-.247.001-.016.002-.031.003-.047.016 0 .031 0 .046 0 .2 0 .401 0 .601 0 0-.024-.003-.049-.005-.073-.004-.031-.007-.063-.006-.095-.119-.026-.313-.073-.437-.175-.087-.072-.121-.179-.145-.286-.022-.099-.013-.17.004-.256.009-.046.025-.093.047-.138.215-.436.322-1.053.318-1.544-.081.081-.161.165-.241.254-1.4-.258-2.8-.517-4.2-.775-.117-.098-.277-.251-.454-.414m-.764 1.344c.025-.004.04.011.068.008.002 0 .005-.001.007-.001.028-.003.055-.007.077-.01-.062-.067-.125-.135-.187-.202-.003-.004-.006-.007-.01-.011-.007-.008-.015-.016-.022-.024.01-.005.02-.01.029-.015.004-.002.008-.004.012-.006.005-.003.01-.005.015-.008.011-.006.025-.013.039-.02.016-.008.034-.018.055-.03.07-.039.157-.091.208-.132-.029-.005-.055-.01-.078-.015-.036-.008-.067-.016-.094-.026-.03-.011-.054-.024-.076-.041-.022-.016-.042-.036-.061-.059-.002-.003-.005-.006-.008-.009-.006-.007-.012-.014-.018-.022.008-.005.016-.01.023-.015.003-.002.007-.004.01-.006.051-.033.111-.075.174-.12 0 0 .001-.001.001-.001.077-.054.158-.112.236-.162.058-.037.114-.07.164-.093-.035-.017-.078-.038-.119-.065-.068-.043-.134-.099-.163-.165 0-.001-.001-.001-.001-.002-.001-.002-.001-.003-.002-.005-.002-.004-.003-.008-.005-.012.002-.004.004-.007.006-.011.001-.002.002-.003.003-.005.027-.046.065-.071.113-.085.045-.013.099-.018.162-.022.001 0 .002 0 .002 0 .026-.002.054-.004.083-.007-.018-.017-.038-.031-.058-.044-.033-.021-.068-.038-.103-.055-.02-.01-.04-.019-.059-.03-.02-.01-.04-.022-.059-.035-.006-.004-.013-.009-.019-.013-.015-.01-.03-.02-.045-.03.017-.005.034-.01.052-.015.007-.002.015-.004.022-.006.02-.005.038-.011.055-.016-.293-.248-.59-.455-.795-.454-.283 0-.537.073-.793.089-.209.014-.476.056-.71.06-.019.462.06.61.062 1.098.445.181.834.361 1.278.542.005 0 .011 0 .017 0 .146.115.369.228.511.306" fill="#1f1a17"/><g fill="#f2da00"><path d="m86.985 145.59c-.16.973-.026 2.091.29 2.811.527 1.2 1.611 2.183 2.909 3.398.618.013 1.272.131 1.891.144-1.6-1.319-3.099-2.302-4.072-3.67-.475-.668-.843-1.749-1.018-2.684"/><path d="m87.55 145.68c.097.848.553 1.91 1.181 2.698 1.048 1.314 2.758 2.549 4.874 3.725 1.527.025 3.055.05 4.582.075-2.42-2.432-5.995-2.319-8.62-4.251-.749-.551-1.472-1.437-2.02-2.247"/><path d="m88.66 145.85c.164 3.675 8.359 1.433 13.656 8.02-.062-.864-.045-1.638-.107-2.502-3.464-4.071-10.279-3.03-13.549-5.522"/><path d="m104 153.82h2.3l.89-1.85-.78-11.44-1.16-.93-1.34.83-.86 11.31.95 2.08"/></g><g fill="#1f1a17"><path d="m104.13 141.79h.48v1.78h-.48v-1.78"/><path d="m105.66 144.31h.51v1.55h-.51v-1.55"/></g><path fill="#969594" d="m104.9 153.45v-12.86h.22v12.86h-.22"/><path d="m88.12 155.44c-.126-.383.037-.6.286-.786.341-.254.753-.202 1.027-.408.139-.104.285-.298.285-.485 0-.245-.135-.487-.371-.583.008.036.012.073.012.111 0 .187-.09.353-.229.457-.255.191-.609.239-.888.455-.266.207-.471.463-.387.835.039.174.134.3.265.404m-.693-2.294c-.032-.208.208-.327.408-.464.274-.189.412-.399.314-.711-.076-.239-.265-.456-.496-.57.177.154.285.384.285.629 0 .432-.88.456-.641.939.033.064.077.126.13.178m.049 2.459c.18.471.372.927.575 1.368.718 1.472 1.701 2.815 2.841 4.067 2.561 2.644 5.348 4.672 9.221 5.194-.002.008-.004.016-.006.024.002-.008.004-.016.006-.024-3.512-.878-6.525-2.735-9.06-5.348-1.753-1.925-3.165-4.04-3.946-6.518.101.422.223.835.366 1.238m9.673 8.949c-.144-.227-.211-.488-.192-.731.033-.41.542-1.665-.164-1.782-.097-.029-.183-.049-.261-.06.41.24.119 1.092.09 1.458-.036.45.051.884.528 1.115m-2.084-1.038c-.062-.129-.103-.267-.124-.409-.043-.289-.004-.592.105-.859.229-.564.562-1.437-.309-1.551-.007-.001-.014-.002-.021-.003.425.266-.083 1.055-.17 1.5-.077.395-.053.855.216 1.172.096.113.169.148.302.15m-1.745-1.482c-.094-.123-.158-.253-.189-.396-.244-.914.346-.92.369-1.822.02-.277-.229-.557-.544-.614.072.08.111.194.098.341-.061.647-.783 1.793.267 2.49m-2.193-1.86c-.024-.052-.038-.106-.04-.165-.006-.201.029-.424.124-.6.216-.396.828-.575.965-.98.106-.311-.047-.687-.333-.846-.057-.032-.119-.054-.184-.062.054.097.086.21.086.335 0 .615-.514.547-.774.892-.102.135-.169.338-.159.677.007.256.093.512.314.75m-1.858-2.558c.005-.175.076-.33.202-.44.315-.276 1.298-.672 1.298-1.094 0-.159-.073-.306-.185-.42.005.095-.018.191-.077.281-.199.306-.877.412-1.113.619-.274.241-.468.643-.124 1.053" fill="#cd9e23"/><path d="m89.89 155.03c-.619 0-.543.552-1.054.619-.192.025-.391 0-.593-.127-.194-.121-.338-.267-.389-.491-.083-.372.121-.627.387-.835.279-.217.633-.265.888-.455.139-.104.229-.27.229-.457 0-.315-.281-.57-.655-.57-.374 0-.474.453-.813.562-.253.081-.485-.1-.594-.313-.239-.483.641-.506.641-.939 0-.432-.339-.819-.791-.819-.453 0-.858.298-.942.695-.103.283-.081.618-.002.944 1.019 3.698 2.649 6.581 4.806 8.772 1.346 1.488 2.831 2.718 4.581 3.619 2.01 1.036 4.374 1.638 7.275 1.698-.534-.316-.969-.679-1.411-.985-.454-.314-1.015-.692-1.451-1.123-.509-.504-.74-1.019-1.087-1.595-.132-.218-.371-.364-.644-.364-.127 0-.248.032-.353.088-.132.038-.209.114-.25.214-.356.477.194.869-.028 1.264-.063.112-.191.172-.434.144-.527-.223-.622-.673-.585-1.14.033-.41.394-1.429-.268-1.516-1.129-.149-.376 1.561-1.235 1.592-.169.006-.247-.023-.355-.15-.269-.317-.293-.776-.216-1.172.098-.505.74-1.454-.057-1.577-1.195-.197-.264 1.822-1.126 1.445-1.113-.694-.372-1.863-.31-2.519.035-.379-.278-.532-.609-.48-.716.114-.269 1.559-1.115 1.292-.374-.288-.506-.609-.516-.932-.01-.339.057-.542.159-.677.26-.345.774-.277.774-.892 0-.504-.521-.836-.951-.545-.301.204-.367.615-.783.714-.132.037-.366-.046-.695-.355-.407-.428-.209-.855.077-1.106.236-.207.915-.313 1.113-.619.261-.402-.182-.91-.617-.91m-2.78-.667c.781 2.479 2.193 4.593 3.946 6.518 2.531 2.613 5.544 4.469 9.06 5.348-.002.008-.004.016-.006.024.002-.008.004-.016.006-.024-3.873-.521-6.659-2.55-9.221-5.194-1.78-1.955-3.176-4.132-3.782-6.672" fill="#f2da00"/><path d="m122.06 155.44c.126-.383-.037-.6-.286-.786-.341-.254-.753-.202-1.027-.408-.139-.104-.285-.298-.285-.485 0-.245.135-.487.371-.583-.008.036-.012.073-.012.111 0 .187.09.353.229.457.255.191.609.239.888.455.266.207.471.463.387.835-.039.174-.134.3-.265.404m.692-2.294c.032-.208-.208-.327-.408-.464-.274-.189-.412-.399-.314-.711.076-.239.265-.456.496-.57-.177.154-.285.384-.285.629 0 .432.88.456.641.939-.033.064-.077.126-.13.178m-.049 2.459c-.18.471-.372.927-.575 1.368-.718 1.472-1.7 2.815-2.841 4.067-2.561 2.644-5.348 4.672-9.22 5.194.002.008.004.016.006.024-.002-.008-.004-.016-.006-.024 3.512-.878 6.525-2.735 9.06-5.348 1.753-1.925 3.165-4.04 3.946-6.518-.101.422-.223.835-.366 1.238m-9.673 8.949c.143-.227.211-.488.192-.731-.033-.41-.542-1.665.164-1.782.097-.029.184-.049.261-.06-.41.24-.119 1.092-.09 1.458.036.45-.051.884-.528 1.115m2.083-1.038c.062-.129.103-.267.124-.409.043-.289.004-.592-.105-.859-.23-.564-.562-1.437.309-1.551.007-.001.014-.002.021-.003-.425.266.083 1.055.17 1.5.077.395.053.855-.216 1.172-.096.113-.168.148-.302.15m1.745-1.482c.094-.123.158-.253.189-.396.244-.914-.346-.92-.369-1.822-.02-.277.229-.557.544-.614-.072.08-.111.194-.098.341.061.647.783 1.793-.267 2.49m2.193-1.86c.024-.052.038-.106.04-.165.006-.201-.028-.424-.124-.6-.216-.396-.828-.575-.965-.98-.106-.311.047-.687.333-.846.057-.032.119-.054.184-.062-.054.097-.086.21-.086.335 0 .615.514.547.774.892.102.135.169.338.159.677-.007.256-.093.512-.314.75m1.858-2.558c-.005-.175-.076-.33-.202-.44-.315-.276-1.298-.672-1.298-1.094 0-.159.073-.306.185-.42-.005.095.018.191.077.281.199.306.877.412 1.114.619.274.241.468.643.124 1.053" fill="#cd9e23"/><g fill="#f2da00"><path d="m120.29 155.03c.619 0 .543.552 1.053.619.192.025.391 0 .593-.127.194-.121.339-.267.389-.491.083-.372-.121-.627-.387-.835-.278-.217-.633-.265-.888-.455-.139-.104-.229-.27-.229-.457 0-.315.281-.57.655-.57.374 0 .474.453.813.562.253.081.485-.1.594-.313.24-.483-.641-.506-.641-.939 0-.432.339-.819.791-.819.453 0 .858.298.942.695.103.283.081.618.002.944-1.019 3.698-2.649 6.581-4.806 8.772-1.346 1.488-2.831 2.718-4.581 3.619-2.01 1.036-4.374 1.638-7.275 1.698.534-.316.968-.679 1.411-.985.454-.314 1.015-.692 1.451-1.123.509-.504.74-1.019 1.087-1.595.132-.218.371-.364.644-.364.127 0 .248.032.353.088.132.038.209.114.25.214.356.477-.193.869.028 1.264.063.112.191.172.434.144.527-.223.622-.673.585-1.14-.033-.41-.394-1.429.268-1.516 1.129-.149.376 1.561 1.235 1.592.169.006.247-.023.355-.15.269-.317.293-.776.216-1.172-.098-.505-.74-1.454.057-1.577 1.195-.197.264 1.822 1.126 1.445 1.113-.694.372-1.863.31-2.519-.035-.379.278-.532.609-.48.716.114.269 1.559 1.115 1.292.374-.288.506-.609.516-.932.01-.339-.057-.542-.159-.677-.26-.345-.774-.277-.774-.892 0-.504.52-.836.951-.545.301.204.367.615.783.714.132.037.366-.046.695-.355.407-.428.209-.855-.077-1.106-.236-.207-.915-.313-1.114-.619-.261-.402.182-.91.617-.91m2.78-.667c-.781 2.479-2.193 4.593-3.946 6.518-2.531 2.613-5.544 4.469-9.06 5.348.002.008.004.016.006.024-.002-.008-.004-.016-.006-.024 3.873-.521 6.659-2.55 9.22-5.194 1.78-1.955 3.176-4.132 3.781-6.672"/><path d="m122.92 146.38c.103.628.057 1.44-.049 1.949-.333 1.591-1.593 2.723-3.166 4.197-.618.013-1.237.082-1.855.094 1.891-1.558 3.619-2.617 4.517-4.414.233-.466.444-1.239.554-1.826"/><path d="m122.44 146.54c-.056.495-.35 1.097-.595 1.561-.876 1.656-2.887 3.137-5.532 4.608-1.527.025-3.055.05-4.582.075 2.561-2.671 7.03-2.483 9.572-4.978.354-.347.84-.834 1.137-1.266"/><path d="m121.31 146.66c-.978 3.709-8.359 1.404-13.656 7.996.062-.864.045-1.638.108-2.502 3.464-4.071 10.255-3.125 13.549-5.494"/></g><g fill="#1f1a17"><path d="m103.85 147.66h.52v1.82h-.52v-1.82"/><path d="m98.93 158.18c4.225.034 8.393-.034 12.618 0-1.385 2.225-4.16 2.52-6.416 2.506-2.7-.017-4.03-.616-6.202-2.506"/><path d="m99.88 154.65c.012.002.023.004.035.005.001.012.002.023.003.035.013.165.022.375.031.585.009.204.243.211.256.379 0 .002 0 .004.001.006.002.023.004.046.005.069-.022-.008-.044-.016-.065-.024-.637-.237-.875-.015-.963.154-.055.105-.134.257-.341.439-.012.01-.023.021-.035.031-.01-.012-.019-.025-.029-.037-.183-.509-.181-.836-.131-1.184.077-.28.22-.382.438-.437.279-.071.508-.065.797-.02" fill-rule="nonzero"/></g><g fill="#f2da00"><path d="m99.82 155.73c.045-.558-.072-.61-.027-1.168.526-.008.998-.122 1.523-.121.127 0 .285-.111.468-.109.195.001.391.004.586.008l.004.006.007.012.007.012c.012.02.025.039.038.057l.008.01.008.01c.066.083.144.143.227.184.015.007.03.014.046.02l-.031.017c-.024.013-.049.026-.073.038l-.014.007-.014.007c-.128.061-.26.112-.388.155-.026.009-.051.017-.075.024-.023.007-.047.014-.074.022l-.023.007-.052.015.045.03.019.013c.208.071.048.008.221.119.02.013.039.027.058.044-.029.003-.057.005-.083.007h-.002c-.063.005-.117.009-.162.023-.049.014-.087.039-.113.085l-.003.005-.006.011.005.012.002.005v.002c.03.066.096.122.163.165.041.026.084.048.119.065-.05.024-.106.056-.164.093-.078.05-.159.107-.236.162h-.001c-.063.045-.123.087-.173.119l-.01.007-.023.015.018.022.008.009c.019.023.039.043.061.059.022.016.047.029.076.041.027.01.057.019.094.026.023.005.049.01.078.015-.051.042-.138.094-.208.132-.021.012-.04.022-.055.03-.014.008-.028.015-.039.02l-.015.008-.012.006-.029.015.022.024.01.01.187.202c-.022.003-.05.007-.077.01h-.007c-.035.004-.07.009-.099.014h-.004l-.028.006c-.014.003-.025.007-.032.012-.133-.095-.271-.197-.416-.311-.452-.089-.913-.294-1.338-.543m2.831-1.389c1.376.029 2.556.102 3.932.081.239.405.442.769.68 1.174.164.444.052 1.476-.264 2.118-.15.306.053.659.671.781-.02.084.02.169 0 .253-.238 0-.506 0-.745 0-.01.159.01.318 0 .477-.094 0-.383 0-.477 0-.005-.159-.01-.318-.015-.477-.233 0-.273 0-.506 0 .01-.124-.008-.248.002-.372.517.033.653-.487.492-.735-.556-.015-1.172.027-1.728.012-.04.364-.325.95.363 1.071.01.114.012.133.022.247-.218 0-.437 0-.655 0 0 .164 0 .328 0 .491-.169.005-.338.01-.506.015-.005-.169-.01-.338-.015-.506-.174 0-.348 0-.521 0-.01-.114-.012-.133-.021-.247.119 0 .235-.047.355-.047.001-.062.092-.105.091-.156-.011-.499-.217-.54-.316-.626-.687-.54-1.16-.795-1.784-1.232h.006c.025-.004.059-.008.092-.012.035-.004.069-.009.098-.013.032-.005.141-.04.151-.049l.069.004v-.002c.001-.008-.058-.043-.062-.05v-.002l-.002-.003-.001-.001-.223-.21c.063-.033.155-.1.235-.16.083-.062.119-.041.158-.126l-.047-.007c-.053-.008-.237-.015-.273-.023-.036-.007-.065-.015-.09-.025-.022-.008-.04-.018-.056-.029-.004-.003.016-.017.036-.032.023-.017.038-.035.062-.05.114-.075.256-.157.38-.235.079-.05.153-.062.21-.078h.001l.026-.007.059-.017-.054-.029-.023-.013c-.002-.001-.005-.002-.01-.005l-.098-.006c-.032-.066-.068-.07-.13-.108-.055-.034-.052-.048-.08-.095.014-.016.068-.058.088-.066.063-.009.112-.028.198-.019.055.006.118.014.134.011h.006l.014-.002.041-.006-.025-.033-.011-.014c-.034-.045-.1-.078-.139-.104-.039-.026-.051-.045-.091-.065-.013-.006-.026-.013-.04-.019.105-.032.213-.07.32-.115.024-.01.048-.02.074-.032.024-.011.113-.068.122-.072l.014-.008.014-.007c.026-.014.117-.008.141-.022l.014-.008.014-.008h.001l.022-.013.052-.031-.059-.014-.025-.006c-.082-.02-.22-.063-.291-.124-.014-.012-.027-.025-.041-.038-.013-.013.022-.043.01-.059-.013-.016-.024-.032-.036-.05l-.007-.01-.001-.002"/><path d="m93.58 154.45c1.149.004 2.485.008 3.628.012-.288 1.062-.547 2.236-.835 3.297-1.054-.682-2.218-2.114-2.793-3.309"/><path d="m116.48 154.55c-1.149.004-2.068-.014-3.212-.01.288 1.061.605 1.609 1.098 2.66.885-.799 1.749-1.981 2.113-2.649"/></g></g><g fill="#1f1a17"><path d="m101.62 154.56c.009.016.014.034.014.054 0 .061-.05.111-.111.111-.061 0-.111-.05-.111-.111 0-.092.088-.146.16-.153.145-.014.368.049.431.097-.086-.013-.293-.034-.384.002" transform="matrix(11.75197 0 0 11.75197-1353.87-1536.99)"/><path transform="matrix(11.75197 0 0 11.75197-1343.24-1539.95)" d="m105.23 137.95l1.8 3.06h-.79v-.2h-2.21v.2h-.63l1.83-3.06"/></g><g transform="matrix(11.75197 0 0 11.75197-1343.24-1539.95)"><path d="m99.7 154.71c-.364-.055-.929.071-.94.451-.024.213-.021.647.09 1 .313-.453.125-.681.852-.727-.009-.343.007-.385-.002-.728" fill="#f2da00"/><g fill="#da2e2f"><path d="m103.92 162.97c.077-.079.159-.15.249-.216.057-.039.115-.076.175-.109.151-.08.306-.136.473-.173l.042-.008.043-.007c.166-.023.326-.024.493-.004l.045.007.045.008.044.009.036.008v-.015l-.003-.052-.005-.05c-.044-.306-.201-.487-.458-.594-.229-.088-.448-.107-.684-.148l.082-.479c.244.025.473.069.709.149l.039.014.038.015c.216.09.396.21.537.4.034.048.063.097.09.149.085.175.126.355.138.549.003.086.001.172-.006.258l.013.008c.085.053.164.111.24.177l.028.025c.204.191.353.415.453.675l.014.04.013.04.012.041.011.041c.049.199.064.396.046.599-.006.056-.015.111-.025.167-.053.251-.154.478-.304.686l-.025.034c-.067.084-.138.159-.217.231l-.037.032.012.012c.027.026.055.05.085.073l.014.011c.114.082.232.132.373.147.139.009.265-.019.392-.075l.029-.014.028-.015c.243-.139.35-.268.505-.477l.39.292c-.237.32-.495.569-.878.709-.264.086-.519.091-.784.007l-.045-.016c-.191-.078-.347-.192-.492-.337l-.048-.051-.005-.006-.015.006-.051.02c-.181.065-.359.101-.551.11l-.056.001h-.005c-.555-.008-1.068-.268-1.405-.732l-.034-.049c-.054-.086-.1-.173-.142-.265l-.023-.056-.005-.014-.027.008-.039.014-.038.015-.036.016c-.1.047-.191.103-.279.17l-.017.014-.017.014-.016.015c-.078.075-.133.157-.165.258-.051.179-.027.412.016.6.037.117.109.206.183.303l-.391.29c-.229-.308-.283-.561-.315-.947l-.002-.036c-.007-.326.117-.606.342-.822l.027-.024c.176-.15.376-.262.594-.339l.057-.018.019-.005-.002-.035c-.004-.09-.001-.177.007-.267l.005-.043c.024-.171.069-.331.138-.489l.018-.038c.081-.163.183-.307.305-.44m.906 0c-.317.094-.568.296-.732.572l-.014.026c-.169.321-.19.693-.067 1.03l.016.04c.074.165.173.306.306.43.037.033.075.064.115.093.134.093.276.157.435.196.05.011.101.019.152.025.323.028.626-.059.883-.253.04-.032.078-.066.115-.101.149-.152.254-.332.314-.534l.008-.029c.055-.226.05-.452-.017-.675l-.009-.029-.01-.028-.011-.028-.012-.028-.012-.028c-.075-.161-.178-.299-.31-.418l-.02-.017-.02-.017-.021-.016-.021-.016c-.236-.169-.504-.25-.795-.239-.094.006-.183.021-.273.045"/><g fill-rule="nonzero" stroke="#da2e2f" stroke-linejoin="round" stroke-linecap="round" stroke-width=".076"><path d="m85.29 151.03l-3.688.258-.097-1.391c-.017-.245-.018-.433-.004-.563.017-.183.064-.339.141-.468.076-.128.188-.235.335-.32.148-.085.313-.134.495-.147.313-.022.587.059.818.243.23.185.365.538.401 1.059l.066.946 1.499-.105.034.488zm-1.969-.352l-.067-.954c-.022-.315-.096-.535-.223-.659-.127-.124-.296-.179-.509-.164-.155.011-.284.059-.389.144-.105.086-.169.193-.196.323-.016.084-.016.236-.001.457l.066.944 1.318-.092zm1.81-3.118l-3.683-.322.233-2.662.435.038-.19 2.175 1.127.099.178-2.037.432.038-.178 2.037 1.254.11.198-2.261.435.038-.24 2.748zm-.254-6.329l.254-.437c.357.209.601.471.731.785.129.315.14.656.034 1.027-.11.383-.277.672-.501.867-.225.195-.503.313-.835.353-.332.04-.668.012-1.01-.085-.37-.106-.672-.269-.907-.489-.235-.22-.387-.482-.455-.784-.068-.302-.057-.609.033-.923.102-.356.278-.629.529-.819.251-.191.553-.286.909-.287l-.023.494c-.283.008-.505.074-.668.197-.163.123-.278.303-.347.541-.078.273-.078.519 0 .74.079.221.217.401.417.538.199.138.416.24.65.307.303.087.579.118.83.095.25-.024.458-.112.623-.266.165-.154.278-.339.34-.556.075-.263.063-.507-.036-.734-.1-.227-.29-.415-.57-.565zm-1.727-2.113l1.229-2.635 3.351 1.562-.208.446-2.955-1.378-.814 1.746 2.955 1.378-.207.443-3.351-1.562zm1.85-3.519l.291-.4 2.54.356-1.212-2.184.286-.394 1.511 2.812c.189.352.295.605.321.76.025.155-.024.317-.145.484-.074.102-.189.209-.344.323l-.338-.246c.138-.061.25-.151.336-.27.07-.097.099-.202.088-.318-.011-.115-.096-.294-.255-.54l-3.078-.384zm2.393-3.105l1.666-1.725.314.303-1.326 1.373.82.792.613-.635c.227-.235.429-.4.608-.495.178-.095.37-.125.574-.088.205.036.389.133.554.292.134.13.23.281.29.453.058.172.068.354.026.544-.04.189-.198.427-.474.713l-1.01 1.041-2.659-2.568zm2.701 1.927l.679-.703c.184-.19.282-.37.296-.54.015-.17-.056-.329-.21-.478-.11-.107-.229-.168-.355-.185-.126-.017-.248.012-.366.085-.117.073-.289.227-.515.46l-.453.469.924.892zm.656-4.998l1.897-1.328 2.12 3.03-.401.281-1.87-2.671-1.094.766 1.092 1.56c.222.316.369.559.443.727.074.168.091.327.054.475-.038.148-.13.274-.276.376-.088.062-.205.119-.353.173l-.181-.403c.086-.019.152-.044.199-.077.091-.064.135-.146.133-.245-.003-.1-.093-.276-.27-.53l-1.493-2.132zm3.469-2.197l.405-.18 1.191 2.674.606-3.474.45-.2 1.504 3.377-.406.181-1.188-2.668-.611 3.469-.447.199-1.504-3.377zm4.099-1.649l.476-.11.364 1.578c.218-.05.361-.128.43-.233.069-.105.135-.333.198-.686.045-.259.089-.445.132-.557.042-.112.115-.216.219-.309.105-.094.229-.158.373-.191.184-.042.28-.063.291-.062l.095.413c-.017.004-.049.01-.097.02-.052.01-.084.017-.096.02-.153.035-.257.098-.313.189-.058.091-.108.269-.149.532-.05.332-.109.548-.174.647-.066.098-.151.185-.255.26.247.01.526.172.836.484l1.019 1.028-.592.137-.828-.839c-.228-.232-.41-.385-.544-.461-.135-.075-.291-.092-.468-.051l.389 1.686-.476.11-.832-3.602zm3.333 2.92l1.159-3.787.525-.037 1.767 3.582-.556.039-.508-1.087-1.542.108-.326 1.145-.519.036zm.958-1.589l1.251-.087-.457-.994c-.138-.302-.244-.551-.315-.747-.031.24-.08.479-.15.719l-.33 1.109zm4.971-2.188l.437.077-.508 2.883 2.445-2.541.485.085-.642 3.641-.437-.077.507-2.876-2.447 2.534-.481-.085.642-3.641zm3.056 4.338l1.325-3.451.457.175-.544 1.418 1.794.689.544-1.418.457.175-1.325 3.451-.457-.175.624-1.627-1.794-.688-.624 1.626-.457-.175zm5.233-1.79l2.091 1.159-.212.382-1.663-.922-1.581 2.852-.428-.237 1.792-3.233zm2.583 1.533l.39.305-.445 2.526 2.225-1.135.383.3-2.863 1.412c-.359.177-.615.274-.77.294-.156.019-.316-.035-.479-.162-.1-.078-.203-.197-.311-.356l.258-.33c.056.14.142.255.258.345.094.074.199.106.314.099.116-.007.297-.086.548-.236l.491-3.063zm3.319 2.793l.321.369-2.461 2.139.806.927 2.461-2.139.321.369-2.461 2.139.806.927 2.461-2.139.321.369-2.79 2.425-2.574-2.961 2.79-2.425zm.164 6.147l3.264-1.736 1.255 2.36-.385.205-1.025-1.928-.999.531.96 1.806-.383.204-.96-1.806-1.111.591 1.066 2-.385.205-1.295-2.436zm1.83 3.953l3.083-1.062-.397-1.152.413-.142.954 2.77-.413.142-.398-1.156-3.083 1.061-.159-.462zm4.37 1.617l.062.439-2.899.407 3.173 1.54.069.488-3.661.514-.062-.44 2.892-.406-3.166-1.544-.068-.484 3.661-.514zm-3.317 7.102l3.696.065.029-1.639c.006-.33-.023-.581-.087-.753-.063-.172-.178-.311-.344-.417-.167-.105-.352-.159-.555-.163-.263-.004-.484.076-.667.243-.183.166-.302.427-.357.781-.06-.131-.119-.23-.179-.298-.128-.145-.29-.283-.484-.415l-.995-.66-.011.615.761.502c.219.147.387.268.502.363.116.094.197.178.243.252.046.074.078.148.095.225.01.056.015.147.012.273l-.01.567-1.641-.029-.008.489zm2.073-.453l.018-1.052c.004-.223.03-.398.079-.523.049-.126.124-.22.227-.284.103-.064.213-.094.333-.092.175.003.317.068.428.198.111.129.163.33.158.605l-.02 1.17-1.223-.021z"/><path d="m88.28 159.6l1.371 1.958-.358.25-1.091-1.557-2.671 1.87-.281-.4 3.03-2.12zm-.485 5.187l2.704-2.521.333.357-2.704 2.521-.333-.357zm1.319 1.295l3.43-1.979.409.332-1.151 3.825-.434-.351.37-1.142-1.202-.973-1.02.615-.404-.327zm1.784-.509l.975.789.344-1.038c.105-.315.197-.569.279-.761-.186.155-.386.296-.6.423l-.998.587zm4.064.177l2.01 1.158-1.849 3.202-.424-.245 1.63-2.824-1.157-.668-.952 1.649c-.193.335-.35.571-.472.709-.121.138-.258.221-.408.25-.151.028-.303-.002-.457-.091-.093-.054-.195-.136-.306-.246l.289-.334c.053.07.104.119.154.148.096.056.189.06.279.017.089-.045.211-.201.366-.469l1.301-2.254zm3.03 1.519l2.26.778-.142.413-1.798-.619-1.062 3.083-.462-.159 1.204-3.496zm2.412 4.461l.894-3.587.474.118-.894 3.587-.474-.118zm1.85.296l1.737-3.559.525.046 1.185 3.815-.556-.049-.332-1.153-1.54-.135-.501 1.08-.518-.045zm1.195-1.42l1.249.109-.296-1.053c-.09-.32-.155-.582-.194-.787-.068.232-.154.461-.26.687l-.499 1.044zm3.02-2.143l.442-.039.255 2.916 1.704-3.088.49-.043.322 3.683-.442.039-.255-2.909-1.707 3.081-.487.043-.322-3.683zm1.755-1.037l.309-.027c-.007.211-.069.379-.188.502-.118.124-.284.195-.496.214-.214.019-.391-.022-.528-.122-.138-.1-.229-.255-.272-.464l.309-.027c.033.112.088.193.162.242.074.05.17.07.287.06.136-.012.236-.048.301-.108.065-.06.104-.15.117-.269zm3.53 3.804l-1.204-3.496.697-.24 1.679 2.19c.156.204.271.357.345.46-.004-.141-.006-.349-.007-.625v-2.72l.623-.214 1.204 3.495-.446.154-1.01-2.926-.008 3.276-.418.144-2.035-2.627 1.025 2.976-.446.154zm3.387-3.174c-.334-.515-.458-1.01-.37-1.478.088-.47.349-.848.787-1.132.286-.186.589-.285.907-.298.319-.012.618.065.897.231.279.166.519.405.721.714.204.315.325.637.358.967.034.331-.024.635-.173.914-.15.279-.359.505-.629.68-.292.19-.599.289-.92.297-.322.009-.621-.071-.898-.238-.276-.166-.503-.386-.68-.658zm.427-.268c.243.374.534.603.874.687.341.084.663.028.966-.169.309-.201.493-.474.551-.821.058-.347-.042-.72-.301-1.119-.164-.252-.35-.444-.557-.577-.208-.133-.427-.198-.659-.195-.232.004-.45.071-.654.204-.291.189-.476.451-.556.787-.08.335.032.737.335 1.203zm4.107-.631l-.184-2.392-2.113-.509.439-.382 1.129.275c.234.057.408.106.522.147-.026-.156-.044-.325-.055-.51l-.082-1.229.401-.349.163 2.167 2.339.557-.457.397-1.567-.385c-.089-.023-.184-.05-.284-.08.026.155.042.263.049.325l.145 1.581-.444.386zm.416-5.37l.301-.385 1.276.997c.138-.176.2-.326.188-.452-.013-.125-.105-.344-.278-.658-.127-.23-.211-.402-.248-.516-.038-.114-.046-.24-.024-.378.022-.139.078-.267.169-.383.116-.149.178-.226.187-.232l.334.261c-.011.014-.031.039-.063.076-.034.041-.055.066-.063.076-.096.124-.138.238-.124.344.012.108.085.277.219.507.17.29.261.494.272.612.011.118-.001.239-.035.362.198-.148.517-.197.955-.15l1.439.158-.374.479-1.171-.131c-.323-.037-.561-.042-.713-.016-.152.027-.284.112-.396.255l1.363 1.065-.301.385-2.913-2.276z"/></g></g><path d="m103.47 161.22l-.152-.017-.34-.048-.337-.056-.334-.064-.331-.072-.328-.08-.325-.088-.322-.096-.318-.103-.315-.111-.311-.118-.308-.126-.304-.133-.3-.14-.296-.147-.292-.154-.287-.161-.283-.167-.279-.174-.274-.18-.269-.187-.265-.193-.26-.199-.255-.205-.25-.211-.245-.217-.239-.223-.234-.228-.228-.234-.223-.239-.217-.245-.211-.25-.205-.255-.199-.26-.193-.265-.187-.269-.18-.274-.174-.279-.167-.283-.103-.185h.347l.019.034.164.277.17.272.177.268.183.263.189.259.195.254.201.249.207.244.212.239.218.234.223.229.229.223.234.218.239.212.244.207.249.201.254.195.259.189.263.183.268.176.272.17.277.164.281.157.285.15.289.144.293.137.297.13.301.123.304.116.308.108.311.101.315.094.318.086.321.078.324.071.327.063.329.055.332.047.335.038.337.03.028.002c.332-.106.686-.163 1.054-.163.359 0 .705.055 1.031.156l.276-.024.335-.038.332-.047.329-.055.327-.063.324-.071.321-.078.318-.086.314-.094.311-.101.308-.108.304-.116.301-.123.297-.13.293-.137.289-.144.285-.15.281-.157.277-.164.273-.17.268-.177.264-.183.259-.189.254-.195.249-.201.244-.207.239-.212.234-.218.229-.223.223-.229.218-.234.212-.239.207-.244.201-.249.195-.254.189-.259.183-.263.177-.268.17-.273.164-.277.019-.034h.347l-.103.185-.167.283-.174.279-.181.274-.187.269-.193.265-.199.26-.205.255-.211.25-.217.245-.223.239-.228.234-.234.228-.239.223-.245.217-.25.211-.255.205-.26.199-.265.193-.27.187-.274.18-.279.174-.283.167-.288.161-.292.154-.296.147-.3.14-.304.133-.308.126-.311.118-.315.111-.318.103-.322.096-.325.088-.328.08-.331.072-.334.064-.337.056-.34.048-.061.007c.257.136.496.304.709.497l-.004-.004-.004-.004-.004-.004.144-.024.348-.067.345-.075.342-.084.339-.092.335-.1.332-.108.328-.116.325-.123.321-.131.317-.139.313-.146.308-.153.304-.16.3-.168.295-.175.291-.181.286-.188.281-.195.276-.201.271-.208.266-.214.26-.22.255-.226.25-.232.244-.238.238-.244.232-.25.226-.255.22-.26.214-.266.208-.271.201-.276.195-.281.188-.286.181-.291.174-.295.168-.3.092-.174h.342l-.004.008-.164.311-.171.306-.178.302-.185.297-.192.292-.199.287-.206.282-.212.277-.219.271-.225.266-.231.26-.237.255-.243.249-.249.243-.255.237-.26.231-.266.225-.271.219-.277.212-.282.206-.287.199-.292.192-.297.185-.302.178-.306.171-.311.164-.315.157-.319.149-.324.142-.328.134-.331.126-.335.118-.339.11-.343.102-.346.094-.349.085-.353.077-.291.056-.004-.004-.007-.007c.182.201.341.423.473.662l-.017-.03.355-.077.366-.089.363-.098.359-.107.355-.115.351-.124.347-.132.343-.14.339-.148.335-.156.33-.164.326-.172.321-.179.316-.187.311-.194.306-.201.301-.209.295-.215.29-.222.284-.229.279-.236.273-.242.267-.249.261-.255.255-.261.249-.267.242-.273.236-.279.229-.285.222-.29.216-.295.208-.301.201-.306.194-.311.187-.316.179-.321.172-.326.161-.324h.334l-.058.125-.167.337-.175.332-.183.327-.191.322-.198.317-.205.312-.213.307-.22.301-.227.296-.234.29-.24.284-.247.278-.254.272-.26.266-.266.26-.272.254-.278.247-.284.24-.29.234-.296.227-.301.22-.307.213-.312.205-.317.198-.322.191-.327.183-.332.175-.337.167-.341.159-.346.151-.35.143-.354.135-.358.126-.362.118-.366.109-.37.1-.373.091-.282.061-.002-.004c.196.434.305.916.305 1.423 0 1.915-1.553 3.468-3.467 3.468-1.915 0-3.467-1.553-3.467-3.468 0-.497.105-.969.293-1.397l-.007-.001-.377-.082-.373-.091-.37-.1-.366-.109-.362-.118-.358-.126-.354-.135-.35-.143-.346-.151-.341-.159-.337-.167-.332-.175-.327-.183-.322-.191-.317-.198-.312-.205-.307-.213-.301-.22-.296-.227-.29-.234-.284-.24-.278-.247-.272-.254-.266-.26-.26-.266-.254-.272-.247-.278-.24-.284-.234-.29-.227-.296-.22-.301-.213-.307-.205-.312-.198-.317-.191-.322-.183-.327-.175-.332-.167-.337-.059-.125h.335l.161.324.172.326.179.321.187.316.194.311.201.306.209.301.215.295.222.29.229.284.236.279.242.273.249.267.255.261.261.255.267.249.273.242.279.236.284.229.29.222.296.215.301.209.306.201.311.194.316.187.321.179.326.172.33.164.335.156.339.148.343.14.347.132.351.124.355.115.359.107.363.098.366.089.37.081.086.016c.124-.224.273-.433.441-.623l-.031-.005-.356-.068-.353-.077-.349-.085-.346-.094-.343-.102-.339-.11-.335-.118-.332-.126-.328-.134-.323-.142-.319-.149-.315-.157-.311-.164-.306-.171-.302-.178-.297-.185-.292-.192-.287-.199-.282-.206-.277-.212-.272-.219-.266-.225-.261-.231-.255-.237-.249-.243-.243-.249-.237-.255-.231-.261-.225-.266-.219-.272-.212-.277-.206-.282-.199-.287-.192-.292-.185-.297-.178-.302-.171-.306-.164-.311-.004-.008h.342l.092.174.168.3.175.295.181.291.188.286.195.281.201.276.208.271.214.266.22.261.226.255.232.25.238.244.244.238.25.232.255.226.261.22.266.214.271.208.276.201.281.195.286.188.291.181.295.175.3.168.304.16.308.153.313.146.317.139.321.131.325.123.328.116.332.108.335.1.339.092.342.084.345.075.348.067.238.04c.21-.191.442-.356.694-.491m2.682-.251c.016.005.032.01.048.016-.016-.005-.032-.01-.048-.016m.059.019l.025.009-.007-.002-.014-.005-.005-.002m1.23.723c.081.074.159.152.233.233l-.004-.005c-.015-.016-.03-.033-.045-.049l-.011-.011c-.017-.018-.035-.036-.052-.053l-.005-.005c-.018-.018-.036-.036-.054-.053l-.006-.006-.004-.004c-.014-.013-.028-.026-.042-.039l-.004-.004-.004-.004m.726.931c.008.014.015.029.023.043-.008-.014-.015-.029-.023-.043m.032.06c.01.02.021.041.031.061-.01-.02-.02-.041-.031-.061m.037.075c.011.023.022.046.032.069-.011-.023-.021-.046-.032-.069m-5.591-.942l.017-.017-.012.012-.004.004m.021-.021c.013-.013.026-.025.039-.038-.013.013-.026.025-.039.038zm.055-.054c.016-.015.032-.03.049-.045-.016.015-.032.03-.049.045m2.386-.67c1.759 0 3.186 1.427 3.186 3.186 0 1.759-1.427 3.186-3.186 3.186-1.759 0-3.186-1.427-3.186-3.186 0-1.759 1.427-3.186 3.186-3.186m-2.463.746l-.003.003-.001.001-.001.001-.001.001-.002.002-.001.001v.001l-.001.001-.001.001-.006.006-.001.001-.006.006-.001.001-.001.001-.001.001-.001.001-.001.001-.001.001-.001.001" fill="#008a80"/><path d="m104.57 140.03v-.376h-.141v-.05h.338v.05h-.141v.376h-.056m.212-.208c0-.071.019-.126.057-.166.038-.04.087-.06.147-.06.039 0 .075.009.106.028.032.019.056.045.072.079.017.034.025.072.025.115 0 .043-.009.082-.026.116-.017.034-.042.06-.074.078-.032.018-.067.026-.104.026-.04 0-.076-.01-.108-.029-.032-.019-.056-.046-.072-.08-.016-.033-.024-.069-.024-.106m.058.001c0 .052.014.092.041.121.028.03.062.044.104.044.043 0 .077-.015.105-.045.027-.03.041-.072.041-.127 0-.035-.006-.065-.018-.091-.012-.026-.029-.046-.051-.06-.023-.014-.048-.021-.076-.021-.04 0-.074.014-.103.041-.029.027-.043.073-.043.137m.352.207l.165-.222-.145-.204h.067l.077.109c.016.023.028.04.034.052.009-.015.021-.032.034-.048l.086-.113h.061l-.15.201.162.225h-.07l-.107-.152c-.006-.009-.012-.018-.019-.028-.01.015-.016.026-.02.032l-.107.149h-.068m.394 0l.164-.427h.061l.175.427h-.064l-.05-.129h-.178l-.047.129h-.06m.123-.175h.145l-.045-.118c-.014-.036-.024-.065-.03-.089-.005.028-.013.055-.023.082l-.047.125" fill="#1f1a17" fill-rule="nonzero"/></g><use transform="matrix(1.086 0 0 1.086-772.64-2.571)" xlink:href="#0"/><use transform="matrix(1.086 0 0 1.086-752.77 1.072)" xlink:href="#0"/><use transform="matrix(1.086 0 0 1.086-764.41-13.14)" xlink:href="#0"/><use transform="matrix(1.086 0 0 1.086-752.68-15.653)" xlink:href="#0"/><use transform="matrix(1.086 0 0 1.086-777.3-20.691)" xlink:href="#0"/><path d="m596.56 284c1.526 1.646 2.757 3.151 4.136 3.348 1.379.197 1.576 0 2.363-1.379.788-1.379 1.034-2.56 1.034-3.496 0-2.56-.246-4.678-.295-5.515-.147-2.502.327-3.839-2.01-4.338-2.094-.446-6-.087-6.647 1.526-.814 2.037-1.949 1.935-1.728 3.157.413 2.286.613 3.959 3.151 6.696z" transform="matrix(1.086 0 0 1.086-785.09-9.809)" fill="none" stroke="#000"/></g></svg>