<svg id="id-svg" width="567" height="693" viewBox="0 0 567 693" fill="none" xmlns="http://www.w3.org/2000/svg">
<g clip-path="url(#clip0_806_90868)">
<path d="M565.935 595.402V593.408V592.983H565.946C565.947 494.985 566.213 395.543 566.479 295.866C566.737 199.048 566.996 101.977 567 0H0C0.0020376 97.7836 0.131391 195.954 0.260778 294.011C0.390165 392.673 0.520545 491.223 0.520545 589.154L0.530728 590.605C0.530728 602.374 1.72788 612.409 4.18216 620.79C6.59162 629.024 10.2154 635.682 15.1077 640.846C19.9837 645.992 26.2514 649.783 33.9667 652.296C41.8298 654.858 51.2007 656.098 62.1355 656.098H217.747L217.911 656.086H217.922C218.123 656.074 218.422 656.058 218.814 656.039C219.046 656.029 219.348 656.018 219.72 656.008C221.198 655.965 222.671 655.983 224.132 656.056L224.177 656.058C226.556 656.18 228.908 656.448 231.219 656.847C233.517 657.243 235.832 657.78 238.149 658.442C249.79 661.77 260.721 668.185 269.549 675.734C270.619 676.65 271.653 677.578 272.638 678.503C273.629 679.435 274.595 680.389 275.532 681.358C279.123 685.072 282.234 688.971 284.734 692.872C285.037 692.403 285.348 691.933 285.668 691.463C286.868 689.701 288.212 687.911 289.687 686.11C297.11 677.054 307.404 668.582 319.432 663.007C322.624 661.528 325.888 660.269 329.201 659.252C332.512 658.235 335.901 657.449 339.344 656.916C340.27 656.772 341.048 656.663 341.677 656.587C343.431 656.376 345.214 656.233 347.024 656.161V656.078H349.731H349.743H499.472H502.179L502.82 656.066L502.911 656.064C505.755 655.992 508.523 655.829 511.213 655.571C513.807 655.324 516.39 654.973 518.962 654.518C531.611 652.281 541.958 647.637 549.614 640.375L549.657 640.334C551.135 638.929 552.508 637.435 553.769 635.853C555.024 634.28 556.204 632.573 557.305 630.733C562.704 621.702 565.688 609.994 565.935 595.402Z" fill="#FE0000"/>
<path fill-rule="evenodd" clip-rule="evenodd" d="M328.494 52.4908C309.99 50.9855 291.074 52.5824 272.982 52.1529C269.688 57.1716 269.078 58.3918 265.783 63.4105C239.208 63.6283 241.412 83.7334 252.455 98.6509C257.085 91.7005 257.928 84.0245 263.097 85.6152C256.766 124.522 237.357 144.75 214.793 151.517C213.525 145.996 214.176 143.134 212.909 137.613C206.826 142.382 200.742 144.87 194.659 149.638C170.443 129.103 192.986 110.838 194.441 88.1587C195.683 68.8128 174.855 63.3087 158.912 65.7035C90.3129 82.5894 51.3204 166.417 50.4728 244.292C50.1345 275.315 49.2849 309.873 50.3414 343.117C52.0611 397.256 52.3433 447.606 36.2065 482.282C43.7813 481.519 47.7659 479.335 53.5822 474.895C55.3213 489.902 54.5714 510.225 55.4313 529.629C56.0018 542.482 57.0624 554.931 60.7942 565.168C69.4805 581.555 78.9951 589.118 105.158 587.539C97.4883 576.183 83.0509 565.495 85.2372 548.709C90.8875 555.137 107.803 563.853 119.314 563.031C99.4943 539.614 105.131 517.942 104.774 492.488C139.03 450.907 170.355 400.095 206.366 368.637C213.767 372.141 212.028 410.634 209.83 422.107C199.493 424.331 189.541 423.137 179.205 425.362C165.823 428.013 164.663 440.723 168.014 454.92C172.371 450.907 177.473 447.496 181.743 446.162C171.563 456.727 165.766 474.215 180.449 484.571C183.25 471.077 186.065 467.676 192.21 471.409C182.043 484.249 182.027 495.385 204.344 502.775C203.936 486.393 210.041 483.401 215.776 479.745C220.234 476.902 224.319 473.808 225.915 462.734C232.822 458.359 238.612 457.968 242.768 463.402C241.419 475.783 241.657 486.419 240.396 497.246C238.873 510.314 237.369 522.469 226.589 532.806C234.454 532.806 243.086 532.806 250.95 532.806C252.371 540.859 245.783 547.608 239.791 556.162C251.629 557.877 265.02 554.285 271.069 550.259C283.015 568.909 291.537 570.003 304.307 550.927C318.814 556.002 327.03 552.826 337.816 552.826C333.322 546.375 328.828 539.924 324.334 533.473C333.771 534.363 336.933 534.407 349.533 533.061C330.07 515.6 335.297 490.484 334.248 463.689C339.787 457.842 344.478 458.222 350.624 464.068C355.491 481.776 375.154 478.847 370.336 499.483C381.027 496.832 385.776 493.025 387.607 488.433C389.448 483.818 388.71 479.836 386.568 475.623C385.291 473.109 384.322 470.541 387.118 468.176C389.944 468.476 393.437 475.355 395.788 482.95C409.584 473.532 408.736 462.109 397.779 453.629C394.145 450.706 392.589 448.543 395.291 447.003C401.102 446.853 404.491 449.385 409.281 454.725C415.36 441.306 413.387 431.323 395.214 424.726C386.082 421.414 375.546 423.358 365.942 422.302C365.491 405.619 366.577 386.655 366.128 369.972C376.097 374.751 390.504 387.489 416.929 421.771C431.36 440.544 447.804 463.401 467.243 492.098C472.303 523.905 469.278 548.773 454.436 563.504C469.462 561.076 482.993 556.312 492.848 546.451C494.863 562.377 487.219 576.553 471.464 589.634C505.998 588.598 514.61 573.541 520.585 550.74C522.916 540.681 521.831 528.222 522.039 515.245C522.247 502.268 522.136 483.305 523.577 473.607C529.766 473.933 529.126 474.361 535.825 475.495C520.469 442.463 525.523 405.843 524.132 368.03C525.014 343.292 524.127 304.25 523.995 267.767C523.835 223.301 524.514 189.171 504.527 147.144C489.646 115.855 473.218 98.3608 458.646 86.8284C449.794 79.8231 441.586 74.8482 431.186 70.6936C417.445 65.2038 409.022 62.7836 396.831 65.3046C381.315 71.1995 375.443 86.4233 382.185 100.949C389.051 115.739 399.76 134.114 378.369 149.92C372.155 142.743 370.546 137.845 364.332 130.668C363.296 138.87 364.144 147.18 360.073 149.577C351.505 150.308 345.409 146.177 341.576 142.022C325.733 128.276 316.984 97.9151 317.683 67.4195C322.558 60.689 323.62 59.2213 328.494 52.4908Z" fill="#1F1A17"/>
<path fill-rule="evenodd" clip-rule="evenodd" d="M252.023 88.3569C253.624 80.5383 262.229 74.565 269.399 78.5445C266.802 65.6075 245.449 68.6986 252.023 88.3569Z" fill="#FCEF01"/>
<path fill-rule="evenodd" clip-rule="evenodd" d="M210.568 180.455C198.546 172.113 194.19 162.629 193.142 154.284C178.155 143.714 175.239 133.318 177.79 122.24C181.299 107 193.968 92.1809 189.658 82.8184C179.303 66.9818 155.822 73.9688 144.782 78.0409C124.903 85.3739 110.252 99.0732 95.487 118.363C73.1642 147.523 57.9209 186.727 56.791 231.032C74.9725 183.499 96.5873 147.433 133.163 141.63C107.988 168.637 82.6614 204.107 86.2047 245.369C100.977 216.124 116.463 187.71 140.387 178.413C126.462 199.56 119.177 225.457 115.618 254.02C125.56 231.302 138.232 213.23 155.088 204.204C147.395 221.402 142.393 237.462 142.188 254.662C149.758 240.393 159.576 230.143 171.482 222.988C166.589 235.493 164.472 249.057 163.609 262.705C170.42 252.052 179.811 239.367 186.601 233.859C189.808 245.47 191.912 252.699 197.8 262.981C199.528 252.174 202.624 248.15 207.988 242.754C207.022 221.646 207.573 198.623 210.568 180.455Z" fill="#FCEF01"/>
<path fill-rule="evenodd" clip-rule="evenodd" d="M217.323 251.486H357.347V353.864H217.323V251.486Z" fill="#1F1A17"/>
<path fill-rule="evenodd" clip-rule="evenodd" d="M217.323 356.998C263.998 356.998 310.675 356.998 357.35 356.998C357.35 377.198 357.35 397.398 357.35 417.597C327.232 490.338 243.634 489.829 217.323 417.597C217.323 397.398 217.323 377.198 217.323 356.998Z" fill="#007225"/>
<path fill-rule="evenodd" clip-rule="evenodd" d="M217.323 251.17H357.35C357.35 276.216 357.35 299.743 357.35 324.789C339.947 307.285 323.567 291.62 312.581 284.903C304.509 279.967 293.713 281.911 286.953 288.36C279.805 282.066 270.144 280.617 261.8 284.941C256.326 287.779 250.515 292.988 242.567 300.69C235.907 307.145 225.797 316.35 217.323 324.789V251.17Z" fill="#008FC9"/>
<path fill-rule="evenodd" clip-rule="evenodd" d="M217.323 329.223C231.458 317.488 243.952 304.364 254.118 295.924C272.301 279.69 279.557 287.523 284.819 292.144C285.918 293.108 287.101 293.91 288.167 294.909C292.308 298.783 297.015 303.416 298.576 304.473C293.353 299.223 291.328 296.793 288.011 293.526C289.374 290.268 296.047 286.622 299.201 286.13C304.008 285.38 309.327 286.724 312.776 289.174C320.098 294.296 327.621 301.326 330.481 304.616C338.313 312.041 346.954 320.785 357.35 329.223V353.832H217.323C217.323 345.629 217.323 337.426 217.323 329.223Z" fill="white"/>
<path fill-rule="evenodd" clip-rule="evenodd" d="M298.592 383.634L298.875 384.571L299.137 385.537C299.752 388.064 300.133 390.575 300.356 393.163L300.433 394.378L300.483 395.626C300.535 398.326 300.379 400.902 299.889 403.561L299.711 404.401L299.515 405.218C298.33 409.685 295.859 413.933 295.188 418.492C294.894 421.257 295.263 424.647 296.444 427.116C297.9 429.812 302.876 425.247 304.225 424.142C305.326 423.217 306.41 422.271 307.495 421.328C310.308 418.897 313.206 416.54 316.587 414.938C321.273 412.874 326.005 411.313 331.099 410.623L332.1 410.515C336.826 410.147 341.333 410.591 345.586 412.783L346.25 413.164L348.49 414.594L348.11 417.128L347.974 417.807C346.951 421.833 344.651 425.072 341.744 428C337.634 431.902 332.859 434.668 327.643 436.879L326.851 437.242L325.996 437.606C321.718 439.295 317.404 440.064 312.716 440.042C310.216 440.004 307.726 439.815 305.225 439.836C304.165 439.868 303.141 439.929 302.096 440.112C299.844 440.697 300.019 442.541 300.116 444.368V462.402H276.548V443.571L276.589 443.031C276.601 442.722 276.603 442.419 276.586 442.111C276.522 441.451 276.434 440.995 275.926 440.563C274.941 439.802 273.84 439.403 272.595 439.33L272.282 439.326C268.673 439.331 265.065 439.48 261.455 439.434L260.689 439.417C258.313 439.334 255.981 439.132 253.637 438.741L252.829 438.59C248.758 437.738 245.042 436.21 241.409 434.292C237.125 431.914 233.348 429.158 230.589 425.073L230.145 424.348C228.891 422.076 228.148 419.811 227.742 417.256L227.641 416.416L227.414 413.691L229.791 412.346C234.153 410.254 238.842 410.231 243.561 410.834C245.239 411.092 246.881 411.426 248.529 411.835C254.151 413.355 259.235 415.614 263.769 419.189C266.213 421.146 268.616 423.147 271.182 424.949C272.873 426.089 274.597 427.161 276.575 427.734C278.041 428.052 278.911 427.955 279.7 426.609C280.19 425.498 280.354 424.42 280.52 423.235C280.713 419.955 279.681 417.166 278.706 414.065C278.361 412.987 278.01 411.909 277.665 410.831C276.062 405.736 275.153 400.909 275.17 395.554L275.203 394.204C275.344 391.066 275.681 388.025 276.386 384.961L276.642 383.984L276.921 383.041L277.222 382.135C278.562 378.505 280.814 375.448 283.685 372.808L284.207 372.359L284.736 371.932L285.266 371.529L285.798 371.149L288.089 369.604L290.322 371.217C294.464 374.429 296.954 378.741 298.592 383.634ZM288.028 373.322C292.76 376.599 297.338 383.779 297.438 396.93C297.523 407.192 292.643 412.132 292.077 418.728C291.798 421.987 292.657 430.272 296.461 430.984C303.388 431.75 310.118 421.133 317.874 417.697C330.274 412.083 339.788 412.462 345.164 416.086C344.495 421.585 338.794 428.999 326.395 434.103C317.85 438.139 311.682 436.788 306.21 436.789C300.531 436.791 295.248 437.372 295.897 444.448C295.897 450.033 295.897 453.779 295.897 459.364C290.086 459.364 286.578 459.364 280.767 459.364C280.767 454.013 280.767 449.041 280.767 443.689C281.02 441.032 279.245 439.43 278.172 438.468C276.603 437.061 274.457 436.261 272.301 436.288C263.452 436.268 256.562 437.213 248.026 434.093C235.931 428.898 231.158 423.37 230.633 415.369C236.727 411.617 248.92 414.007 257.444 418.491C262.325 420.93 271.777 431.605 278.423 430.913C283.626 430.373 283.981 423.065 283.485 419.104C282.72 413.028 278.619 406.289 278.619 396.93C278.519 382.408 283.033 376.598 288.028 373.322Z" fill="#1F1A17"/>
<path fill-rule="evenodd" clip-rule="evenodd" d="M288.027 372.937C292.758 376.213 297.337 383.773 297.437 396.923C297.521 407.186 293.408 412.505 292.843 419.102C292.564 422.361 293.04 429.885 296.844 430.598C303.771 431.364 310.117 421.127 317.873 417.691C330.273 412.077 340.171 412.456 345.545 416.08C344.877 421.579 338.793 428.992 326.394 434.096C317.848 438.133 311.681 436.781 306.209 436.782C300.53 436.784 295.63 437.366 296.279 444.442C296.279 450.027 296.279 453.773 296.279 459.358C290.469 459.358 286.576 459.358 280.766 459.358C280.766 454.006 280.766 449.034 280.766 443.683C281.019 441.026 279.244 439.424 278.17 438.462C276.601 437.055 274.456 436.255 272.3 436.282C263.451 436.261 256.56 437.207 248.025 434.086C235.93 428.892 230.773 423.364 230.249 415.362C236.342 411.611 248.918 414.001 257.443 418.485C264.743 421.66 271.775 431.599 278.422 430.907C283.625 430.366 283.596 423.059 283.099 419.098C282.336 413.021 278.234 406.283 278.234 396.923C278.134 382.402 283.032 376.212 288.027 372.937Z" fill="#FCEF01"/>
<path fill-rule="evenodd" clip-rule="evenodd" d="M209.733 247.465C210.497 272.443 210.111 298.178 210.875 323.155C205.633 328.777 200.39 332.5 195.147 338.122C202.809 299.317 192.394 265.337 209.733 247.465Z" fill="#F0BE33"/>
<path fill-rule="evenodd" clip-rule="evenodd" d="M186.948 244.738C187.603 253.714 191.942 256.743 193.614 265.678C193.282 273.887 191.288 321.955 191.07 339.907C189.053 344.625 184.542 348.968 176.11 355.634C179.462 338.657 177.87 321.186 177.333 301.989C176.642 277.306 177.195 252.906 186.948 244.738Z" fill="#FCEF01"/>
<path fill-rule="evenodd" clip-rule="evenodd" d="M175.056 256.167C158.72 273.626 158.346 296.394 159.572 319.583C158.708 339.683 162.071 356.512 156.865 373.903C162.065 370.131 167.934 365.264 171.948 359.731C173.496 323.944 173.509 291.954 175.056 256.167Z" fill="#FCEF01"/>
<path fill-rule="evenodd" clip-rule="evenodd" d="M160.961 238.784C140.279 256.443 135.267 296.073 136.589 324.339C135.657 348.84 137.014 373.058 131.396 394.258C136.408 388.654 145.701 382.42 150.714 376.816C152.385 333.192 151.766 279.79 160.961 238.784Z" fill="#FCEF01"/>
<path fill-rule="evenodd" clip-rule="evenodd" d="M142.481 220.373C116.4 248.236 109.481 296.071 110.804 324.337C109.871 348.838 113.529 393.185 107.911 414.387C112.179 409.584 119.217 404.071 124.445 399.009C127.667 395.888 127.014 393.782 127.281 389.052C128.262 371.76 129.406 348.594 129.844 324.827C131.546 284.771 134.138 242.578 142.481 220.373Z" fill="#FCEF01"/>
<path fill-rule="evenodd" clip-rule="evenodd" d="M122.338 200.159C106.802 215.737 96.0739 235.589 90.4186 256.405C84.0093 279.997 83.7913 304.506 84.4942 319.523C83.561 344.023 88.7457 416.684 79.6274 438.317C84.0113 433.59 93.2692 426.899 98.8777 421.44C100.035 419.596 101.084 414.49 101.311 408.813C102.216 386.076 103.1 343.566 103.534 320.013C105.235 279.957 111.045 221.835 122.338 200.159Z" fill="#FCEF01"/>
<path fill-rule="evenodd" clip-rule="evenodd" d="M116.249 155.418C92.9084 164.916 62.4616 215.655 61.017 240.222C54.6077 263.814 55.925 308.454 56.6269 323.472C55.6947 347.972 61.2818 444.025 50.6201 464.408C55.6326 458.803 66.5246 450.234 71.5371 444.631C74.4121 441.583 75.9647 434.922 76.2449 428.428C77.4593 400.284 77.9412 346.229 78.3518 323.961C78.1593 303.322 77.1852 269.543 78.909 239.948C79.4205 231.142 80.9273 222.791 83.0363 214.267C90.3787 184.592 103.357 162.259 116.249 155.418Z" fill="#FCEF01"/>
<path fill-rule="evenodd" clip-rule="evenodd" d="M208.073 337.925C208.181 343.971 207.905 351.155 208.013 357.202C203.278 362.659 194.596 374.343 191.589 374.123C191.589 374.123 192.053 354.345 191.271 353.238C193.032 350.902 208.073 337.925 208.073 337.925Z" fill="#FCEF01"/>
<path fill-rule="evenodd" clip-rule="evenodd" d="M184.161 363.278C184.251 368.281 184.79 374.607 184.88 379.61C180.961 384.127 173.393 394.176 170.905 393.994C170.905 393.994 171.671 377.246 171.024 376.33C172.482 374.396 184.161 363.278 184.161 363.278Z" fill="#FCEF01"/>
<path fill-rule="evenodd" clip-rule="evenodd" d="M164.624 380.732C164.714 386.597 164.485 397.81 164.575 403.674C160.657 408.968 153.087 419.986 150.599 419.773C150.599 419.773 151.366 395.585 150.718 394.511C152.177 392.246 164.624 380.732 164.624 380.732Z" fill="#FCEF01"/>
<path fill-rule="evenodd" clip-rule="evenodd" d="M144.8 397.852C144.889 404.471 144.66 423.894 144.75 430.513C140.831 436.489 135.347 447.42 130.774 448.305C130.774 448.305 130.632 411.716 130.893 410.744C132.352 408.186 144.8 397.852 144.8 397.852Z" fill="#FCEF01"/>
<path fill-rule="evenodd" clip-rule="evenodd" d="M122.558 412.518C122.669 421.495 122.387 451.638 122.497 460.615C117.657 468.72 110.881 479.748 105.232 480.949C105.232 480.949 105.055 431.323 105.378 430.003C107.181 426.535 122.558 412.518 122.558 412.518Z" fill="#FCEF01"/>
<path fill-rule="evenodd" clip-rule="evenodd" d="M82.1843 449.147C82.0732 462.849 81.9724 514.177 81.8613 527.88C82.5877 538.175 93.55 552.705 105.895 552.897C105.895 552.897 99.1463 542.939 99.1687 534.262C99.2359 501.611 99.3449 435.379 99.1014 433.863C95.9798 436.938 82.1843 449.147 82.1843 449.147Z" fill="#FCEF01"/>
<path fill-rule="evenodd" clip-rule="evenodd" d="M59.4528 467.539C59.3428 481.637 62.6937 535.203 62.5837 549.303C63.3101 559.894 75.7761 581.341 90.623 581.935C90.623 581.935 77.5661 569.577 77.5885 551.318C77.5875 540.817 77.3756 530.504 77.0791 516.547C76.4281 485.843 76.5147 453.64 76.371 452.572C73.2494 455.737 59.4528 467.539 59.4528 467.539Z" fill="#FCEF01"/>
<path fill-rule="evenodd" clip-rule="evenodd" d="M266.816 179.387C270.464 179.426 280.938 195.158 283.942 202.255C284.822 204.336 284.753 206.073 284.842 208.277C285.308 219.877 285.607 231.95 284.776 241.62C278.815 251.486 256.613 248.383 255.278 237.287C255.206 229.317 254.365 222.255 254.294 215.11C254.249 210.669 254.419 206.195 254.482 201.449C254.616 191.207 257.612 183.704 266.816 179.387Z" fill="#FCEF01"/>
<path fill-rule="evenodd" clip-rule="evenodd" d="M245.36 170.664C250.165 171.731 251.072 184.631 250.916 188.43C251.351 194.194 246.828 195.174 245.586 203.468C244.834 208.493 244.673 217.649 245.697 222.567C246.683 227.296 249.166 228.053 250.309 231.377C251.791 235.693 252.357 246.318 250.063 246.359C239.768 247.712 234.644 244.742 232.984 239.255C231.339 235.288 231.002 216.344 231.373 204.153C231.579 197.357 232.245 193.586 234.866 187.473C238.236 179.611 242.095 171.853 245.36 170.664Z" fill="#FCEF01"/>
<path fill-rule="evenodd" clip-rule="evenodd" d="M224.638 181.351C228.156 182.315 229.57 186.967 227.908 191.779C226.207 195.894 225.525 196.179 224.889 198.37C223.688 202.19 223.96 207.669 224.01 212.74C224.06 217.811 224.274 223.611 225.26 227.308C226.008 230.653 226.436 231.043 227.778 235.354C229.719 238.421 229.457 244.362 227.489 246.225C226.58 247.085 224.62 246.922 223.498 246.643C219.741 245.706 216.272 241.262 214.677 232.949C214.377 226.258 213.745 219.768 213.552 213.469C213.318 205.772 213.324 195.951 214.614 188.519C216.347 183.309 219.433 180.809 224.638 181.351Z" fill="#FCEF01"/>
<path fill-rule="evenodd" clip-rule="evenodd" d="M267.285 141.139C270.56 144.773 271.935 156.533 270.927 165.562C266.808 174.24 260.606 178.311 254.787 180.962C254.361 173.292 254.701 165.243 254.274 157.573C254.499 154.763 264.796 141.797 267.285 141.139Z" fill="#FCEF01"/>
<path fill-rule="evenodd" clip-rule="evenodd" d="M288.425 194.969C296.49 194.969 299.812 184.475 299.835 172.431C299.863 157.898 294.956 141.142 288.042 134.453C280.435 141.014 275.969 158.086 276.256 172.431C276.501 184.698 280.221 194.969 288.425 194.969Z" fill="#FCEF01"/>
<path fill-rule="evenodd" clip-rule="evenodd" d="M309.229 180.15C305.512 180.191 294.71 195.71 291.942 202.346C291.229 204.053 291.299 205.521 291.228 207.325C290.747 219.228 290.424 232.549 291.269 242.383C297.229 252.249 319.432 249.146 320.767 238.05C320.839 230.08 321.68 223.019 321.752 215.873C321.797 211.432 321.626 206.958 321.564 202.212C321.429 191.97 317.982 184.244 309.229 180.15Z" fill="#FCEF01"/>
<path fill-rule="evenodd" clip-rule="evenodd" d="M330.685 171.428C325.88 172.494 324.974 185.395 325.129 189.194C324.694 194.958 329.218 195.939 330.46 204.233C331.211 209.256 331.373 218.412 330.349 223.331C329.362 228.06 326.88 228.817 325.737 232.141C324.254 236.456 323.689 247.083 325.982 247.123C336.278 248.475 341.403 245.505 343.061 240.019C344.671 236.14 345.026 217.942 344.696 205.739C344.491 198.184 343.726 194.094 340.773 187.294C337.503 179.765 333.82 172.57 330.685 171.428Z" fill="#FCEF01"/>
<path fill-rule="evenodd" clip-rule="evenodd" d="M351.397 182.115C347.879 183.078 346.465 187.731 348.126 192.543C349.828 196.658 350.509 196.943 351.146 199.134C352.346 202.953 352.074 208.434 352.024 213.504C351.974 218.574 351.76 224.375 350.774 228.072C350.026 231.417 349.599 231.806 348.257 236.118C346.317 239.185 346.578 245.126 348.546 246.988C349.455 247.848 351.415 247.686 352.538 247.407C356.294 246.469 359.763 242.026 361.358 233.713C361.659 227.023 362.29 220.531 362.482 214.232C362.717 206.536 362.711 196.714 361.421 189.283C359.688 184.073 356.602 181.573 351.397 182.115Z" fill="#FCEF01"/>
<path fill-rule="evenodd" clip-rule="evenodd" d="M308.76 141.902C305.485 145.537 304.11 157.296 305.118 166.326C309.237 175.003 315.439 179.074 321.258 181.726C321.684 174.056 321.344 166.006 321.771 158.336C321.546 155.526 311.249 142.561 308.76 141.902Z" fill="#FCEF01"/>
<path fill-rule="evenodd" clip-rule="evenodd" d="M365.426 181.494C377.448 173.15 381.803 163.668 382.851 155.323C397.838 144.752 400.755 134.356 398.204 123.278C394.694 108.037 382.831 92.0612 387.14 82.6977C397.497 66.8611 418.806 72.755 431.212 79.0795C451.09 86.4125 465.741 100.112 480.507 119.402C502.829 148.562 518.073 187.765 519.202 232.07C501.021 184.537 479.406 148.471 442.83 142.669C468.006 169.675 493.333 205.146 489.788 246.406C475.016 217.163 459.53 188.749 435.606 179.451C449.533 200.599 456.817 226.496 460.375 255.059C450.433 232.341 437.763 214.267 420.905 205.243C428.599 222.441 433.601 238.5 433.807 255.701C426.235 241.431 416.418 231.182 404.511 224.027C409.404 236.532 411.521 250.096 412.384 263.743C405.574 253.089 396.183 240.406 389.393 234.898C386.185 246.508 384.082 253.737 378.193 264.019C376.466 253.212 373.37 249.188 368.005 243.793C368.971 222.684 368.42 199.661 365.426 181.494Z" fill="#FCEF01"/>
<path fill-rule="evenodd" clip-rule="evenodd" d="M366.261 248.503C365.497 273.48 365.883 299.216 365.119 324.192C370.361 329.814 375.603 333.538 380.846 339.161C373.186 300.355 383.6 266.376 366.261 248.503Z" fill="#FCEF01"/>
<path fill-rule="evenodd" clip-rule="evenodd" d="M389.051 245.776C388.397 254.752 384.057 257.782 382.385 266.716C382.717 274.924 384.711 322.993 384.929 340.945C390.172 346.567 394.647 351.05 399.889 356.672C396.537 339.695 398.131 322.224 398.668 303.026C399.357 278.344 398.804 253.945 389.051 245.776Z" fill="#FCEF01"/>
<path fill-rule="evenodd" clip-rule="evenodd" d="M400.941 257.206C417.277 274.664 417.651 297.432 416.426 320.622C417.291 340.721 413.927 355.651 419.133 373.043C414.489 368.446 408.694 363.468 404.05 358.871C402.502 323.083 402.488 292.994 400.941 257.206Z" fill="#FCEF01"/>
<path fill-rule="evenodd" clip-rule="evenodd" d="M415.031 239.822C435.712 257.482 440.725 297.111 439.401 325.378C440.335 349.879 438.977 373.716 444.595 394.917C439.584 389.313 430.289 383.079 425.277 377.475C423.606 333.851 424.224 280.829 415.031 239.822Z" fill="#FCEF01"/>
<path fill-rule="evenodd" clip-rule="evenodd" d="M433.512 221.411C459.592 249.275 466.511 297.109 465.187 325.376C466.12 349.877 462.462 394.225 468.081 415.425C463.812 410.623 456.775 405.111 451.546 400.048C448.325 396.927 448.978 394.821 448.71 390.09C447.73 372.799 446.585 349.633 446.148 325.866C444.445 285.81 441.855 243.617 433.512 221.411Z" fill="#FCEF01"/>
<path fill-rule="evenodd" clip-rule="evenodd" d="M453.654 201.208C469.189 216.786 479.918 236.637 485.573 257.454C491.982 281.046 492.201 305.555 491.498 320.571C492.431 345.072 486.022 418.063 496.364 439.366C491.98 434.638 482.847 427.784 477.115 422.488C474.561 420.536 474.907 415.539 474.682 409.862C473.776 387.125 472.892 344.614 472.458 321.061C470.756 281.006 464.946 222.884 453.654 201.208Z" fill="#FCEF01"/>
<path fill-rule="evenodd" clip-rule="evenodd" d="M459.746 156.456C483.087 165.953 513.534 216.693 514.978 241.259C521.387 264.852 520.071 309.493 519.368 324.509C520.301 349.01 514.713 445.063 525.375 465.445C520.364 459.841 509.471 451.272 504.458 445.669C501.584 442.62 500.03 435.96 499.75 429.466C498.537 401.322 498.054 347.266 497.644 324.999C497.836 304.359 498.81 270.581 497.086 240.986C496.575 232.18 495.068 223.829 492.959 215.304C485.617 185.631 472.639 163.298 459.746 156.456Z" fill="#FCEF01"/>
<path fill-rule="evenodd" clip-rule="evenodd" d="M367.931 338.963C367.822 345.009 368.098 352.193 367.99 358.239C372.725 363.697 381.407 375.38 384.413 375.162C384.413 375.162 383.951 355.383 384.733 354.276C382.971 351.94 367.931 338.963 367.931 338.963Z" fill="#FCEF01"/>
<path fill-rule="evenodd" clip-rule="evenodd" d="M391.834 364.316C391.744 369.319 391.205 375.645 391.115 380.649C395.034 385.165 402.602 395.214 405.091 395.033C405.091 395.033 404.324 378.284 404.972 377.368C403.513 375.435 391.834 364.316 391.834 364.316Z" fill="#FCEF01"/>
<path fill-rule="evenodd" clip-rule="evenodd" d="M411.373 381.781C411.284 387.644 411.512 398.857 411.422 404.721C415.342 410.016 422.91 421.034 425.398 420.822C425.398 420.822 424.631 396.633 425.279 395.559C423.821 393.293 411.373 381.781 411.373 381.781Z" fill="#FCEF01"/>
<path fill-rule="evenodd" clip-rule="evenodd" d="M431.2 398.89C431.11 405.509 431.338 424.932 431.248 431.55C435.167 437.527 440.651 448.458 445.224 449.343C445.224 449.343 445.367 412.754 445.105 411.781C443.646 409.225 431.2 398.89 431.2 398.89Z" fill="#FCEF01"/>
<path fill-rule="evenodd" clip-rule="evenodd" d="M453.44 413.556C453.329 422.533 453.612 452.675 453.501 461.653C458.342 469.758 465.117 480.786 470.768 481.987C470.768 481.987 470.943 432.361 470.62 431.042C468.818 427.573 453.44 413.556 453.44 413.556Z" fill="#FCEF01"/>
<path fill-rule="evenodd" clip-rule="evenodd" d="M493.814 450.196C493.926 463.899 494.026 515.227 494.137 528.93C493.411 539.225 482.449 553.754 470.105 553.946C470.105 553.946 476.853 543.989 476.83 535.31C476.763 502.661 476.654 436.428 476.897 434.913C480.019 437.988 493.814 450.196 493.814 450.196Z" fill="#FCEF01"/>
<path fill-rule="evenodd" clip-rule="evenodd" d="M516.544 468.577C516.655 482.675 513.303 536.241 513.413 550.34C512.687 560.932 500.22 582.379 485.374 582.972C485.374 582.972 498.43 570.613 498.408 552.356C498.41 541.855 498.621 531.542 498.917 517.584C499.569 486.881 499.482 454.678 499.626 453.61C502.748 456.774 516.544 468.577 516.544 468.577Z" fill="#FCEF01"/>
<path fill-rule="evenodd" clip-rule="evenodd" d="M256.985 468.811C257.061 476.932 257.129 499.372 257.203 507.493C257.51 516.172 252.745 528.61 239.298 527.545C239.298 527.545 246.2 521.585 246.627 510.135C246.581 490.787 247.658 462.933 247.823 462.035C249.938 463.858 256.985 468.811 256.985 468.811Z" fill="#FCEF01"/>
<path fill-rule="evenodd" clip-rule="evenodd" d="M273.714 476.739C273.793 486.165 273.482 519.337 273.563 528.763C273.038 535.844 266.934 547.057 254.084 547.189C254.084 547.189 261.061 535.593 261.517 526.221C262.962 505.245 262.232 472.194 262.408 471.151C264.664 473.266 273.714 476.739 273.714 476.739Z" fill="#FCEF01"/>
<path fill-rule="evenodd" clip-rule="evenodd" d="M319.294 468.831C319.22 476.951 319.151 500.151 319.076 508.272C318.771 516.951 323.535 529.39 336.982 528.324C336.982 528.324 330.079 522.364 329.652 510.914C329.699 491.566 328.621 462.952 328.457 462.055C326.341 463.877 319.294 468.831 319.294 468.831Z" fill="#FCEF01"/>
<path fill-rule="evenodd" clip-rule="evenodd" d="M302.953 477.136C302.874 486.561 302.8 520.116 302.721 529.541C303.245 536.622 309.35 547.835 322.198 547.967C322.198 547.967 315.222 536.371 314.767 527C313.321 506.023 314.051 472.211 313.875 471.169C311.619 473.284 302.953 477.136 302.953 477.136Z" fill="#FCEF01"/>
<path fill-rule="evenodd" clip-rule="evenodd" d="M280.111 477.167C284.061 477.602 292.892 477.497 296.902 477.167C296.902 492.536 296.902 503.348 296.902 518.719C296.902 524.764 299.286 534.094 299.226 540.021C299.195 543.089 298.74 546.161 297.669 549.23C295.004 555.563 292.508 557.974 288.706 559.489C284.665 557.822 282.659 555.563 279.728 549.23C278.377 546.272 278 543.264 277.832 540.208C277.492 534.038 280.111 524.904 280.111 518.719C280.111 503.348 280.111 492.536 280.111 477.167Z" fill="#FCEF01"/>
<path fill-rule="evenodd" clip-rule="evenodd" d="M199.51 494.184C188.945 490.069 188.04 480.815 196.056 474.13C199.032 475.64 201.357 477.62 202.732 480.283C197.304 483.605 196.23 488.239 199.51 494.184Z" fill="#FCEF01"/>
<path fill-rule="evenodd" clip-rule="evenodd" d="M191.299 462.277C190.521 457.243 190.107 453.575 191.145 451.11C191.145 451.11 195.786 445.831 198.819 445.565C203.733 445.264 206.995 451.158 206.722 456.276C204.985 459.115 203.799 460.219 200.737 461.746C198.389 462.637 195.35 463.448 191.299 462.277Z" fill="#FCEF01"/>
<path fill-rule="evenodd" clip-rule="evenodd" d="M201.199 429.006C197.169 430.807 187.851 430.123 185.713 431.49C185.483 432.63 185.621 442.224 185.621 442.224C186.374 444.226 188.262 443.863 194.354 444.933C199.641 440.527 201.883 434.777 201.199 429.006Z" fill="#FCEF01"/>
<path fill-rule="evenodd" clip-rule="evenodd" d="M171.502 446.878C167.47 439.972 173.432 432.471 181.594 430.939C183.056 433.127 181.966 437.288 181.87 439.657C176.818 439.863 171.572 441.511 171.502 446.878Z" fill="#FCEF01"/>
<path fill-rule="evenodd" clip-rule="evenodd" d="M178.807 473.982C171.979 467.809 177.557 458.303 185.151 456.122C186.98 456.433 188.067 460.853 188.048 462.594C183.578 467.665 178.575 466.109 178.807 473.982Z" fill="#FCEF01"/>
<path fill-rule="evenodd" clip-rule="evenodd" d="M203.162 476.027C201.339 471.152 202.522 469.204 202.516 466.261C202.516 466.261 209.175 460.376 212.208 460.111C215.954 461.429 219.259 466.023 218.585 470.025C216.847 472.864 215.661 473.969 212.6 475.495C210.252 476.385 207.212 477.197 203.162 476.027Z" fill="#FCEF01"/>
<path fill-rule="evenodd" clip-rule="evenodd" d="M211.597 456.822C211.073 451.368 214.713 445.511 223.615 442.739C227.361 444.057 231.47 449.049 230.795 453.052C229.884 459.379 217.78 456.171 211.597 456.822Z" fill="#FCEF01"/>
<path fill-rule="evenodd" clip-rule="evenodd" d="M216.63 428.833C214.361 427.605 211.832 427.622 209.368 428.753C208.259 429.933 206.908 430.077 206.019 431.849C205.07 436.24 202.396 436.522 202.666 439.564C202.4 441.398 204.932 444.842 204.932 444.842C205.685 446.844 209.218 445.019 213.893 445.156C214.54 442.552 219.475 440.881 219.546 437.065C219.786 432.701 216.802 431.912 216.63 428.833Z" fill="#FCEF01"/>
<path fill-rule="evenodd" clip-rule="evenodd" d="M376.357 494.245C386.921 490.13 387.827 480.876 379.81 474.191C376.835 475.701 375.781 477.128 373.614 481.578C379.042 484.901 379.636 488.3 376.357 494.245Z" fill="#FCEF01"/>
<path fill-rule="evenodd" clip-rule="evenodd" d="M384.945 461.961C385.724 456.927 386.137 453.258 385.099 450.794C385.099 450.794 380.458 445.515 377.426 445.248C372.512 444.948 369.25 450.842 369.523 455.959C371.26 458.799 372.446 459.903 375.507 461.429C377.855 462.319 380.895 463.132 384.945 461.961Z" fill="#FCEF01"/>
<path fill-rule="evenodd" clip-rule="evenodd" d="M374.931 430.288C380.277 428.672 388.394 429.805 390.531 431.172C390.762 432.311 390.623 441.904 390.623 441.904C389.87 443.907 386.259 446.058 381.891 444.614C376.603 440.208 374.246 436.059 374.931 430.288Z" fill="#FCEF01"/>
<path fill-rule="evenodd" clip-rule="evenodd" d="M406.666 447.316C410.697 440.409 404.734 432.908 396.574 431.376C395.112 433.565 396.202 437.725 396.298 440.095C401.35 440.3 406.596 441.948 406.666 447.316Z" fill="#FCEF01"/>
<path fill-rule="evenodd" clip-rule="evenodd" d="M396.581 473.656C404.847 467.198 399.845 458.546 390.236 456.555C388.408 456.867 389.062 461.102 389.082 462.843C393.551 468.542 396.353 465.249 396.581 473.656Z" fill="#FCEF01"/>
<path fill-rule="evenodd" clip-rule="evenodd" d="M372.313 476.088C374.135 471.213 375.542 469.834 374.493 466.703C374.493 466.703 367.067 460.059 364.034 459.793C360.288 461.11 356.983 463.236 357.657 469.707C359.395 472.546 360.581 473.65 363.642 475.177C365.99 476.067 368.262 477.259 372.313 476.088Z" fill="#FCEF01"/>
<path fill-rule="evenodd" clip-rule="evenodd" d="M364.652 456.506C365.176 451.052 361.536 445.195 352.634 442.423C348.888 443.741 344.779 448.733 345.454 452.735C346.364 459.064 358.469 455.855 364.652 456.506Z" fill="#FCEF01"/>
<path fill-rule="evenodd" clip-rule="evenodd" d="M366.882 428.436C369.284 430.99 373.926 435.387 373.585 439.247C373.851 441.081 371.318 444.524 371.318 444.524C370.565 446.527 367.033 444.702 362.358 444.839C361.711 442.234 356.776 440.563 356.704 436.748C356.382 430.874 360.853 425.669 366.882 428.436Z" fill="#FCEF01"/>
<path fill-rule="evenodd" clip-rule="evenodd" d="M277.524 56.5317C282.038 57.4589 286.074 58.0339 289.75 58.3861C299.912 59.3601 307.314 58.6324 314.441 58.9449C311.834 63.8169 309.08 66.2901 305.631 69.3933C309.448 72.8385 311.376 75.2302 312.49 79.9761C312.975 129.976 350.672 178.707 368.042 148.867C377.063 155.233 373.183 170.993 358.602 176.709C352.915 178.938 342.306 179.885 337.899 175.228C325.4 162.028 321.814 148.546 307.302 131.318C304.794 135.869 301.329 140.809 298.628 144.212C292.998 136.295 290.954 129.304 287.694 122.008C284.53 129.092 280.557 137.477 274.945 144.522C271.777 140.805 269.604 136.287 266.936 130.729C261.47 138.937 255.955 147.37 249.86 155.713C245.006 162.36 240.665 168.368 235.027 174.592C231.026 179.011 225.286 179.543 219.407 177.921C212.831 176.106 207.992 171.195 203.463 165.383C197.295 157.466 199.754 150.429 205.358 146.694C207.754 154.912 213.494 157.726 220.573 156.545C239.381 153.411 267.64 122.074 267.736 88.9753C270.772 86.2314 274.465 84.6803 277.28 84.321C276.596 82.0036 276.508 81.4082 276.826 79.564C270.834 75.7901 270.994 71.1805 271.653 67.2804C273.43 67.6936 275.282 67.7587 277.058 67.5888C278.224 71.0736 280.629 73.1662 284.976 75.0114C290.686 72.1179 294.278 68.4631 295.222 64.4612C288.664 64.9375 280.082 65.8402 277.594 61.9778C277.698 59.9097 277.419 58.5999 277.524 56.5317Z" fill="#FCEF01"/>
<path fill-rule="evenodd" clip-rule="evenodd" d="M284.604 67.1567C285.938 67.1567 287.019 68.2274 287.019 69.5485C287.019 70.8686 285.938 71.9393 284.604 71.9393C283.27 71.9393 282.188 70.8686 282.188 69.5485C282.188 68.2274 283.27 67.1567 284.604 67.1567Z" fill="#008FC9"/>
</g>
<defs>
<clipPath id="clip0_806_90868">
<rect width="567" height="692.872" fill="white"/>
</clipPath>
</defs>
</svg>
