<svg id="id-svg" width="602" height="693" viewBox="0 0 602 693" fill="none" xmlns="http://www.w3.org/2000/svg">
<g clip-path="url(#clip0_806_90991)">
<path fill-rule="evenodd" clip-rule="evenodd" d="M601.755 333.866C601.755 499.972 467.051 634.627 300.879 634.627C134.708 634.627 0 499.972 0 333.866C0 167.76 134.708 33.1035 300.879 33.1035C467.051 33.1035 601.755 167.76 601.755 333.866Z" fill="#2E2779"/>
<path fill-rule="evenodd" clip-rule="evenodd" d="M582.959 333.855C582.959 488.923 457.206 614.629 302.078 614.629C146.952 614.629 21.1963 488.923 21.1963 333.855C21.1963 178.789 146.952 53.083 302.078 53.083C457.206 53.083 582.959 178.789 582.959 333.855Z" fill="#00A7E5"/>
<path fill-rule="evenodd" clip-rule="evenodd" d="M84.942 286.722C88.4961 268.649 94.2565 251.364 101.93 235.162L101.101 235.145L82.0309 224.819L81.7765 224.284C79.1565 229.647 76.7268 235.118 74.4953 240.691L64.076 238.433C70.4037 222.327 78.3244 207.021 87.6492 192.712L95.8427 199.315C92.472 204.56 89.2915 209.943 86.3139 215.452L106.389 226.266C114.863 210.286 125.236 195.471 137.21 182.118L121.133 166.473C117.544 170.396 114.086 174.434 110.759 178.585C110.499 178.909 110.846 178.598 110.59 178.924L102.571 172.127C112.355 159.955 123.233 148.704 135.062 138.52L141.679 146.455C137.136 150.391 132.742 154.491 128.501 158.749L144.312 174.559C157.409 161.252 172.184 149.596 188.292 139.93L177.511 120.77L177.535 120.627C172.432 123.647 167.448 126.845 162.587 130.217L156.441 121.99C169.384 113.037 183.202 105.252 197.735 98.7871L201.719 108.084C196.256 110.54 190.9 113.189 185.661 116.026L196.4 135.297C227.779 118.228 263.752 108.53 301.991 108.53L301.861 331.781H80.7794C80.7737 331.076 80.7714 330.369 80.7714 329.661C80.7714 318.304 81.6275 307.147 83.279 296.25L60.1609 293.193L60.0498 293.184C59.1283 299.021 58.4143 304.926 57.9111 310.894L47.4609 309.712C48.7732 294.191 51.4769 279.067 55.4504 264.463L65.7425 266.75C64.4325 271.52 63.2657 276.347 62.2446 281.228L62.0979 281.725L72.3349 283.965L84.942 286.722Z" fill="#2E2779" stroke="white" stroke-width="9.40083" stroke-linecap="round" stroke-linejoin="round"/>
<path d="M586.649 333.854V333.859H586.635C586.633 412.422 554.788 483.539 503.299 535.008C451.812 586.476 380.672 618.309 302.082 618.312V618.327H302.073H302.07V618.312C223.479 618.311 152.336 586.475 100.848 535.005C49.3616 483.537 17.5148 412.423 17.5125 333.862H17.4976V333.854V333.851H17.5125C17.5136 255.291 49.3616 184.175 100.85 132.707C152.338 81.2397 223.478 49.4063 302.065 49.4041V49.3892H302.073H302.077V49.4041C380.671 49.4052 451.815 81.2408 503.302 132.71C554.788 184.177 586.632 255.29 586.635 333.848H586.649V333.854ZM579.273 333.859H579.258V333.854V333.848H579.273C579.271 257.348 548.242 188.082 498.076 137.934C447.909 87.7837 378.611 56.7638 302.077 56.7626V56.7775H302.073H302.065V56.7626C225.538 56.7649 156.244 87.7825 106.076 137.93C55.907 188.079 24.875 257.35 24.875 333.851H24.8888V333.854V333.862H24.875C24.8762 410.364 55.907 479.633 106.074 529.782C156.243 579.932 225.539 610.952 302.07 610.953V610.938H302.073H302.082V610.953C378.612 610.951 447.908 579.932 498.074 529.784C548.242 479.634 579.272 410.363 579.273 333.859Z" fill="white"/>
<path fill-rule="evenodd" clip-rule="evenodd" d="M82.7763 363.402L70.035 365.443L59.6902 367.1L59.8048 367.609C60.5498 372.536 61.4438 377.42 62.4764 382.259L52.0732 383.954C48.9317 369.154 47.0911 353.902 46.6602 338.33L57.1608 337.743C57.3247 343.728 57.704 349.664 58.2931 355.546L58.4043 355.54L81.6588 353.799C80.9608 346.373 80.6938 331.237 80.6938 331.237L197.508 331.231L302.426 331.225V555.143C264.248 552.976 215.845 539.71 185.483 520.89L173.671 539.524C178.742 542.656 183.938 545.604 189.252 548.365L184.745 557.419C170.605 550.141 157.251 541.59 144.837 531.922L151.435 524.054C156.097 527.691 160.896 531.172 165.819 534.473L165.799 534.324L177.65 515.808C162.118 505.247 148.026 492.773 135.702 478.749L119.022 493.636C123.014 498.128 127.173 502.472 131.481 506.655L124.426 514.206C113.193 503.373 102.97 491.52 93.8878 478.812L102.28 472.483C102.52 472.818 102.194 472.489 102.432 472.831C105.521 477.162 108.742 481.388 112.102 485.507L129.038 470.802C117.84 456.79 108.321 441.407 100.772 424.976L80.1139 434.638C82.7728 440.309 85.6438 445.863 88.7165 451.286L80.1563 457.417C71.6613 442.605 64.6162 426.875 59.2123 410.438L69.7427 408.774C71.6544 414.458 73.769 420.061 76.0841 425.565L76.3638 425.044L95.9886 415.811L96.8172 415.842C90.0758 399.231 85.3034 381.652 82.7763 363.402Z" fill="#2E2779" stroke="white" stroke-width="9.40083" stroke-linecap="round" stroke-linejoin="round"/>
<path fill-rule="evenodd" clip-rule="evenodd" d="M84.8284 287.375C88.3825 269.301 94.1428 252.016 101.816 235.815L100.987 235.798L81.9173 225.473L81.6652 224.937C79.0452 230.3 76.612 235.771 74.384 241.344L63.9647 239.085C70.2901 222.979 78.2143 207.674 87.5355 193.365L95.7313 199.968C92.3584 205.214 89.1768 210.594 86.2038 216.104L106.279 226.918C114.749 210.939 125.122 196.123 137.097 182.771L121.018 167.124C117.434 171.047 113.976 175.088 110.649 179.238C110.388 179.562 110.736 179.251 110.475 179.577L102.458 172.779C112.241 160.608 123.12 149.356 134.949 139.171L141.569 147.106C137.026 151.044 132.629 155.144 128.39 159.402L144.201 175.211C157.299 161.905 172.073 150.248 188.182 140.583L177.398 121.424L177.424 121.28C172.321 124.3 167.333 127.498 162.476 130.869L156.331 122.643C169.274 113.69 183.089 105.904 197.62 99.4399L201.606 108.737C196.146 111.193 190.789 113.842 185.549 116.678L196.286 135.95C227.665 118.881 263.638 109.182 301.877 109.182L301.746 332.434H80.6669C80.66 331.727 80.66 331.02 80.66 330.312C80.66 318.957 81.5173 307.799 83.1677 296.903L60.0508 293.846L59.9384 293.836C59.017 299.673 58.2995 305.579 57.801 311.545L47.3496 310.365C48.6596 294.844 51.3633 279.719 55.3357 265.117L65.6277 267.402C64.3223 272.172 63.1544 277 62.1309 281.881L61.9877 282.378L72.2213 284.617L84.8284 287.375Z" fill="#2E2779"/>
<path fill-rule="evenodd" clip-rule="evenodd" d="M82.7763 364.329L70.035 366.371L59.6902 368.027L59.8048 368.53C60.5498 373.457 61.4438 378.346 62.4764 383.181L52.0732 384.88C48.9317 370.082 47.0911 354.823 46.6602 339.254L57.1608 338.668C57.3247 344.653 57.704 350.588 58.2931 356.467H58.4043L81.6588 354.724C80.9608 347.297 80.6938 332.161 80.6938 332.161L197.508 332.154L302.426 332.15V556.064C264.248 553.904 215.841 540.637 185.48 521.816L173.675 540.451C178.742 543.578 183.938 546.526 189.252 549.287L184.748 558.347C170.605 551.067 157.255 542.512 144.839 532.843L151.438 524.975C156.097 528.618 160.893 532.093 165.821 535.4L165.804 535.25L177.653 516.734C162.118 506.174 148.031 493.702 135.702 479.671L119.022 494.564C123.014 499.05 127.173 503.393 131.481 507.583L124.426 515.127C113.193 504.293 102.97 492.442 93.8878 479.74L102.28 473.404C102.52 473.746 102.194 473.417 102.432 473.751C105.521 478.083 108.742 482.314 112.102 486.435L129.038 471.722C117.84 457.711 108.321 442.335 100.772 425.904L80.1139 435.565C82.7728 441.229 85.6438 446.784 88.7165 452.207L80.1563 458.343C71.6613 443.526 64.6162 427.795 59.2123 411.359L69.7427 409.695C71.6544 415.386 73.769 420.983 76.0841 426.486L76.3638 425.965L95.9886 416.739L96.8172 416.77C90.0758 400.157 85.3034 382.573 82.7763 364.329Z" fill="#2E2779"/>
<path fill-rule="evenodd" clip-rule="evenodd" d="M519.993 286.722L532.6 283.965L542.837 281.725L542.69 281.228C541.67 276.347 540.502 271.52 539.192 266.75L549.484 264.463C553.458 279.067 556.162 294.191 557.474 309.712L547.024 310.894C546.521 304.926 545.807 299.021 544.885 293.184L544.774 293.193L521.657 296.25C523.307 307.147 524.164 318.304 524.164 329.661C524.164 330.369 524.161 331.076 524.154 331.781H303.074L302.944 108.53C341.182 108.53 377.156 118.228 408.535 135.297L419.274 116.026C414.034 113.189 408.677 110.54 403.215 108.084L407.2 98.7871C421.733 105.252 435.551 113.037 448.493 121.99L442.349 130.217C437.488 126.845 432.503 123.647 427.4 120.627L427.425 120.77L416.642 139.93C432.75 149.596 447.525 161.252 460.622 174.559L476.434 158.749C472.194 154.491 467.799 150.391 463.255 146.455L469.872 138.52C481.701 148.704 492.58 159.955 502.363 172.127L494.345 178.924C494.087 178.598 494.436 178.909 494.176 178.585C490.848 174.434 487.391 170.396 483.802 166.473L467.725 182.118C479.699 195.471 490.071 210.286 498.546 226.266L518.621 215.452C515.643 209.943 512.463 204.56 509.092 199.315L517.286 192.712C526.609 207.021 534.531 222.327 540.859 238.433L530.44 240.691C528.208 235.118 525.778 229.647 523.158 224.284L522.904 224.819L503.834 235.145L503.005 235.162C510.677 251.364 516.439 268.649 519.993 286.722Z" fill="#2E2779" stroke="white" stroke-width="9.40083" stroke-linecap="round" stroke-linejoin="round"/>
<path fill-rule="evenodd" clip-rule="evenodd" d="M522.158 363.402C519.631 381.652 514.858 399.231 508.116 415.842L508.946 415.811L528.57 425.044L528.849 425.565C531.165 420.061 533.28 414.458 535.191 408.774L545.722 410.438C540.318 426.875 533.273 442.605 524.778 457.417L516.218 451.286C519.29 445.863 522.161 440.309 524.822 434.638L504.162 424.976C496.614 441.407 487.094 456.79 475.896 470.802L492.834 485.507C496.192 481.388 499.413 477.162 502.501 472.831C502.741 472.489 502.414 472.818 502.653 472.483L511.046 478.812C501.965 491.52 491.741 503.373 480.508 514.206L473.453 506.655C477.761 502.472 481.92 498.128 485.912 493.636L469.232 478.749C456.907 492.773 442.815 505.247 427.284 515.808L439.134 534.324L439.116 534.473C444.038 531.172 448.837 527.691 453.499 524.054L460.097 531.922C447.683 541.59 434.33 550.141 420.189 557.419L415.682 548.365C420.996 545.604 426.192 542.656 431.263 539.524L419.45 520.89C389.088 539.71 340.685 552.976 302.508 555.143V331.225L407.426 331.231L524.24 331.237C524.24 331.237 523.973 346.373 523.275 353.799L546.53 355.54L546.641 355.546C547.23 349.664 547.609 343.728 547.773 337.743L558.274 338.33C557.842 353.902 556.001 369.154 552.861 383.954L542.457 382.259C543.49 377.42 544.384 372.536 545.129 367.609L545.244 367.1L534.899 365.443L522.158 363.402Z" fill="#2E2779" stroke="white" stroke-width="9.40083" stroke-linecap="round" stroke-linejoin="round"/>
<path fill-rule="evenodd" clip-rule="evenodd" d="M520.106 287.375L532.713 284.617L542.947 282.378L542.804 281.881C541.78 277 540.612 272.172 539.307 267.402L549.599 265.117C553.571 279.719 556.275 294.844 557.585 310.365L547.134 311.545C546.634 305.579 545.918 299.673 544.996 293.836L544.884 293.846L521.767 296.903C523.417 307.799 524.275 318.957 524.275 330.312C524.275 331.02 524.275 331.727 524.268 332.434H303.188L303.058 109.182C341.296 109.182 377.269 118.881 408.648 135.95L419.385 116.678C414.146 113.842 408.788 111.193 403.328 108.737L407.314 99.4399C421.846 105.904 435.661 113.69 448.604 122.643L442.459 130.869C437.601 127.498 432.613 124.3 427.51 121.28L427.535 121.424L416.753 140.583C432.861 150.248 447.635 161.905 460.733 175.211L476.545 159.402C472.304 155.144 467.909 151.044 463.366 147.106L469.986 139.171C481.814 149.356 492.692 160.608 502.477 172.779L494.46 179.577C494.198 179.251 494.546 179.562 494.285 179.238C490.958 175.088 487.501 171.047 483.915 167.124L467.838 182.771C479.812 196.123 490.186 210.939 498.656 226.918L518.731 216.104C515.758 210.594 512.576 205.214 509.202 199.968L517.4 193.365C526.72 207.674 534.644 222.979 540.97 239.085L530.551 241.344C528.323 235.771 525.888 230.3 523.268 224.937L523.017 225.473L503.948 235.798L503.12 235.815C510.792 252.016 516.552 269.301 520.106 287.375Z" fill="#2E2779"/>
<path fill-rule="evenodd" clip-rule="evenodd" d="M522.158 364.329C519.631 382.573 514.858 400.157 508.116 416.77L508.946 416.739L528.57 425.965L528.849 426.486C531.165 420.983 533.28 415.386 535.191 409.695L545.722 411.359C540.318 427.795 533.273 443.526 524.778 458.343L516.218 452.207C519.29 446.784 522.161 441.229 524.822 435.565L504.162 425.904C496.614 442.335 487.094 457.711 475.896 471.722L492.834 486.435C496.192 482.314 499.413 478.083 502.501 473.751C502.741 473.417 502.414 473.746 502.653 473.404L511.046 479.74C501.965 492.442 491.741 504.293 480.508 515.127L473.453 507.583C477.761 503.393 481.92 499.05 485.912 494.564L469.232 479.671C456.903 493.702 442.815 506.174 427.281 516.734L439.132 535.25L439.113 535.4C444.042 532.093 448.837 528.618 453.496 524.975L460.095 532.843C447.679 542.512 434.33 551.067 420.187 558.347L415.682 549.287C420.996 546.526 426.192 543.578 431.26 540.451L419.453 521.816C389.093 540.637 340.685 553.904 302.508 556.064V332.15L407.426 332.154L524.24 332.161C524.24 332.161 523.973 347.297 523.275 354.724L546.53 356.467H546.641C547.23 350.588 547.609 344.653 547.773 338.668L558.274 339.254C557.842 354.823 556.001 370.082 552.861 384.88L542.457 383.181C543.49 378.346 544.384 373.457 545.129 368.53L545.244 368.027L534.899 366.371L522.158 364.329Z" fill="#2E2779"/>
<path fill-rule="evenodd" clip-rule="evenodd" d="M516.21 331.678C516.21 449.459 420.694 544.938 302.867 544.938C185.04 544.938 89.5239 449.459 89.5239 331.678C89.5239 213.897 185.04 118.418 302.867 118.418C420.694 118.418 516.21 213.897 516.21 331.678Z" fill="#00A7E5"/>
<path fill-rule="evenodd" clip-rule="evenodd" d="M497.138 330.486C497.138 438.398 409.627 525.876 301.673 525.876C193.721 525.876 106.208 438.398 106.208 330.486C106.208 222.576 193.721 135.098 301.673 135.098C409.627 135.098 497.138 222.576 497.138 330.486Z" fill="#FFE502"/>
<path fill-rule="evenodd" clip-rule="evenodd" d="M304.245 433.344L268.264 433.604V440.753L303.711 441.02L303.445 483.91C303.445 483.91 280.792 485.232 268.264 469.346C258.149 456.514 257.069 440.753 257.069 440.753H264.265V431.221C264.265 431.221 230.682 428.839 216.289 421.69C201.896 414.543 185.904 393.627 175.51 388.333C164.052 382.497 156.392 385.401 152.174 381.813C148.323 378.537 149.123 369.536 161.35 370.419C172.956 371.256 180.337 376.252 183.773 378.537C192.189 384.135 205.058 399.377 212.558 404.751C224.018 412.955 239.745 415.076 239.745 415.076C239.745 415.076 229.023 410.298 217.553 398.905C206.082 387.509 196.613 369.601 187.73 361.305C174.709 349.148 161.149 347.906 153.12 346.765C145.092 345.625 146.796 332.125 157.118 333.264C167.441 334.402 173.366 336.961 184.572 344.383C193.367 350.209 214.734 378.403 226.152 390.982C237.569 403.559 241.639 402.318 241.639 402.318C241.639 402.318 228.132 384.956 218.956 369.006C209.778 353.055 204.028 337.237 192.302 325.587C179.633 313.001 174.347 310.208 160.584 306.789C146.821 303.37 155.614 288.386 168.232 292.944C180.849 297.502 190.855 305.191 200.03 316.584C209.205 327.976 217.884 346.714 225.581 360.165C236.546 379.331 250.139 391.51 250.139 391.51C250.139 391.51 239.343 371.558 230.169 348.772C220.993 325.985 217.551 303.198 203.788 289.527C190.024 275.855 184.038 273.165 177.407 269.018C167.089 262.567 175.112 248.512 187.73 256.487C200.346 264.462 215.026 278.616 221.354 288.521C230.149 302.287 239.477 339.352 247.474 356.826C254.98 373.225 262.285 384.091 262.285 384.091C262.285 384.091 258.965 365.579 254.254 347.632C248.539 325.851 245.191 292.328 234.147 272.636C223.753 254.103 216.557 249.071 202.164 235.569C195.887 229.681 205.513 218.592 214.689 226.567C223.867 234.542 242.943 255.957 249.667 276.238C255.341 293.349 263.918 337.698 268.264 352.542C272.608 367.385 278.342 378.777 278.342 378.777C278.342 378.777 275.285 355.429 272.795 331.94C271.196 316.85 266.698 290.453 263.2 275.017C259.774 259.898 243.962 226.224 234.68 211.475C228.017 200.887 241.876 193.208 247.474 203.798C255.613 219.198 264.265 238.482 269.166 255.73C276.062 280 282.268 318.148 284.077 335.484C286.388 357.623 287.251 356.731 290.959 374.221C290.959 374.221 289.319 326.91 286.388 284.02C284.751 260.041 282.356 217.351 273.326 197.974C266.664 183.677 283.191 173.088 289.052 195.591C296.628 224.662 298.567 288.766 299.713 311.553C300.859 334.34 304.511 374.302 304.511 374.302L304.245 433.344Z" fill="#DA251D"/>
<path fill-rule="evenodd" clip-rule="evenodd" d="M211.623 399.192C211.623 399.192 204.951 393.298 198.38 382.509C187.257 364.241 177.192 357.887 167.392 354.71C157.252 351.422 148.323 352.327 148.323 358.681C148.323 365.035 154.247 365.733 161.036 365.829C179.576 366.095 191.453 381.086 201.03 389.922C207.916 396.275 211.623 399.192 211.623 399.192Z" fill="#DA251D"/>
<path fill-rule="evenodd" clip-rule="evenodd" d="M220.629 380.116C220.629 380.116 205.796 353.906 196.791 339.609C186.769 323.7 172.811 317.818 164.743 314.988C149.646 309.693 147.176 322.605 151.766 325.843C156.268 329.021 165.009 327.696 177.722 334.843C187.543 340.367 201.559 354.701 206.327 361.849C211.093 368.998 220.629 380.116 220.629 380.116Z" fill="#DA251D"/>
<path fill-rule="evenodd" clip-rule="evenodd" d="M230.43 361.591C230.43 361.591 225.112 346.81 221.688 337.232C217.716 326.113 215.38 316.425 207.65 303.08C198.911 287.988 181.304 275.706 173.221 272.897C161.036 268.662 157.856 282.43 168.716 286.665C184.331 292.754 188.268 296.675 194.673 303.08C201.825 310.227 210.777 323.966 215.862 333.791C219.834 341.468 230.43 361.591 230.43 361.591Z" fill="#DA251D"/>
<path fill-rule="evenodd" clip-rule="evenodd" d="M250.29 350.204C250.29 350.204 248.171 342.525 245.523 331.407C243.104 321.244 240.9 304.904 234.929 289.308C226.717 267.863 216.154 256.762 203.94 245.624C188.843 231.858 181.426 245.36 190.961 252.243C202.934 260.887 221.079 278.907 228.043 291.162C234.663 302.812 239.517 322.927 242.079 330.612C244.463 337.759 250.29 350.204 250.29 350.204Z" fill="#DA251D"/>
<path fill-rule="evenodd" clip-rule="evenodd" d="M230.163 215.439C236.504 224.718 243.893 236.129 250.292 252.506C256.915 269.449 260.621 284.842 263.799 301.485C265.669 311.272 266.45 318.695 268.834 339.875C268.834 339.875 264.597 321.876 262.477 311.282C259.299 295.396 254.777 277.819 248.968 264.154C239.964 242.974 226.005 230.507 219.569 223.119C212.417 214.91 222.747 204.584 230.163 215.439Z" fill="#DA251D"/>
<path fill-rule="evenodd" clip-rule="evenodd" d="M284.995 324.254C284.2 325.048 282.428 275.197 279.434 256.742C276.254 237.151 270.205 206.707 264.336 197.172C257.98 186.847 246.59 192.407 251.888 201.144C259.081 213.005 265.447 229.286 269.898 243.24C275.724 261.507 279.434 293.279 280.228 298.044C281.022 302.81 284.995 324.254 284.995 324.254Z" fill="#DA251D"/>
<path fill-rule="evenodd" clip-rule="evenodd" d="M302.736 181.287C302.736 181.287 297.363 180.483 295.585 186.583C293.732 192.937 293.202 195.584 297.173 229.737C301.147 263.89 302.233 325.083 302.233 325.083L302.736 181.287Z" fill="#DA251D"/>
<path fill-rule="evenodd" clip-rule="evenodd" d="M301.876 433.344L337.631 433.604V440.753L302.407 441.02L302.67 483.91C302.67 483.91 325.182 485.232 337.631 469.346C347.681 456.514 348.755 440.753 348.755 440.753H341.605V431.221C341.605 431.221 374.976 428.839 389.278 421.69C403.58 414.543 419.472 393.63 429.802 388.333C441.186 382.497 448.8 385.401 452.99 381.814C456.817 378.538 456.023 369.538 443.871 370.419C432.337 371.256 425.007 376.252 421.591 378.538C413.227 384.136 400.44 399.377 392.987 404.751C381.597 412.955 365.972 415.076 365.972 415.076C365.972 415.076 376.624 410.298 388.021 398.905C399.421 387.511 408.83 369.601 417.657 361.307C430.596 349.15 444.07 347.906 452.049 346.767C460.026 345.625 458.334 332.127 448.077 333.265C437.818 334.405 431.934 336.961 420.797 344.385C412.057 350.209 390.824 378.405 379.48 390.982C368.133 403.559 364.088 402.318 364.088 402.318C364.088 402.318 377.512 384.958 386.631 369.007C395.749 353.056 401.46 337.237 413.116 325.587C425.705 313.001 430.956 310.211 444.635 306.791C458.31 303.372 449.569 288.386 437.034 292.944C424.497 297.502 414.553 305.193 405.434 316.585C396.318 327.979 387.692 346.715 380.044 360.165C369.15 379.333 355.642 391.51 355.642 391.51C355.642 391.51 366.369 371.561 375.488 348.772C384.604 325.986 388.025 303.198 401.703 289.528C415.378 275.855 421.326 273.165 427.917 269.021C438.17 262.567 430.195 248.512 417.657 256.488C405.12 264.462 390.535 278.616 384.247 288.523C375.508 302.288 366.236 339.352 358.291 356.826C350.832 373.227 343.571 384.092 343.571 384.092C343.571 384.092 346.871 365.579 351.552 347.634C357.232 325.853 360.559 292.329 371.534 272.638C381.864 254.103 389.015 249.074 403.317 235.571C409.553 229.682 399.986 218.593 390.868 226.567C381.749 234.544 362.794 255.958 356.109 276.239C350.471 293.35 341.949 337.698 337.631 352.542C333.314 367.385 327.615 378.777 327.615 378.777C327.615 378.777 330.655 355.43 333.127 331.94C334.717 316.85 339.186 290.453 342.663 275.017C346.068 259.898 361.782 226.226 371.004 211.475C377.623 200.887 363.852 193.208 358.291 203.8C350.202 219.198 341.605 238.484 336.735 255.731C329.881 280 323.714 318.15 321.917 335.484C319.62 357.624 318.763 356.734 315.079 374.222C315.079 374.222 316.709 326.911 319.62 284.021C321.246 260.041 323.627 217.351 332.601 197.974C339.221 183.677 322.798 173.088 316.973 195.591C309.445 224.662 307.518 288.768 306.379 311.553C305.24 334.342 301.611 374.303 301.611 374.303L301.876 433.344Z" fill="#DA251D"/>
<path fill-rule="evenodd" clip-rule="evenodd" d="M393.519 399.192C393.519 399.192 400.191 393.298 406.762 382.511C417.886 364.242 427.952 357.888 437.75 354.711C447.891 351.422 456.82 352.328 456.82 358.682C456.82 365.037 450.895 365.733 444.108 365.831C425.568 366.095 413.69 381.087 404.115 389.922C397.227 396.275 393.519 399.192 393.519 399.192Z" fill="#DA251D"/>
<path fill-rule="evenodd" clip-rule="evenodd" d="M384.51 380.128C384.51 380.128 399.343 353.917 408.346 339.621C418.368 323.71 432.326 317.827 440.394 314.998C455.49 309.702 457.96 322.614 453.37 325.854C448.869 329.031 440.129 327.707 427.417 334.855C417.593 340.377 403.579 354.711 398.812 361.859C394.044 369.008 384.51 380.128 384.51 380.128Z" fill="#DA251D"/>
<path fill-rule="evenodd" clip-rule="evenodd" d="M374.712 361.592C374.712 361.592 380.029 346.811 383.452 337.234C387.426 326.114 389.76 316.425 397.488 303.08C406.228 287.989 423.835 275.706 431.922 272.898C444.104 268.664 447.286 282.43 436.422 286.664C420.809 292.755 416.874 296.676 410.468 303.08C403.316 310.228 394.363 323.967 389.278 333.792C385.305 341.468 374.712 361.592 374.712 361.592Z" fill="#DA251D"/>
<path fill-rule="evenodd" clip-rule="evenodd" d="M354.849 350.204C354.849 350.204 356.965 342.528 359.616 331.408C362.034 321.244 364.238 304.904 370.21 289.308C378.419 267.863 388.984 256.762 401.198 245.624C416.295 231.858 423.71 245.36 414.176 252.245C402.203 260.889 384.058 278.908 377.097 291.163C370.474 302.814 365.622 322.928 363.058 330.614C360.674 337.759 354.849 350.204 354.849 350.204Z" fill="#DA251D"/>
<path fill-rule="evenodd" clip-rule="evenodd" d="M374.975 215.44C368.634 224.719 361.247 236.13 354.847 252.506C348.224 269.449 344.519 284.843 341.339 301.487C339.471 311.272 338.69 318.697 336.306 339.876C336.306 339.876 340.543 321.877 342.662 311.282C345.84 295.396 350.363 277.82 356.17 264.156C365.176 242.974 379.131 230.508 385.569 223.119C392.72 214.911 382.391 204.587 374.975 215.44Z" fill="#DA251D"/>
<path fill-rule="evenodd" clip-rule="evenodd" d="M320.145 324.254C320.939 325.048 322.711 275.197 325.707 256.742C328.885 237.153 334.934 206.707 340.803 197.172C347.159 186.847 358.547 192.407 353.252 201.144C346.058 213.005 339.693 229.288 335.241 243.24C329.415 261.507 325.707 293.279 324.912 298.044C324.117 302.81 320.145 324.254 320.145 324.254Z" fill="#DA251D"/>
<path fill-rule="evenodd" clip-rule="evenodd" d="M301.174 181.287C301.174 181.287 307.317 180.483 309.352 186.583C311.471 192.937 312.078 195.584 307.534 229.737C302.991 263.89 301.748 325.083 301.748 325.083L301.174 181.287Z" fill="#DA251D"/>
<path fill-rule="evenodd" clip-rule="evenodd" d="M383.262 82.0729C383.262 127.402 346.499 164.147 301.153 164.147C255.806 164.147 219.047 127.402 219.047 82.0729C219.047 36.7459 255.806 0 301.153 0C346.499 0 383.262 36.7459 383.262 82.0729Z" fill="#2E2779"/>
<path fill-rule="evenodd" clip-rule="evenodd" d="M370.803 81.683C370.803 119.628 340.034 150.387 302.074 150.387C264.113 150.387 233.343 119.628 233.343 81.683C233.343 43.7375 264.113 12.98 302.074 12.98C340.034 12.98 370.803 43.7375 370.803 81.683Z" fill="#00A7E5"/>
<path d="M372.649 81.683V81.6864H372.641C372.641 101.166 364.74 118.802 351.973 131.564C339.207 144.323 321.565 152.219 302.079 152.221V152.228H302.071H302.068V152.221C282.573 152.22 264.929 144.323 252.165 131.562C239.402 118.801 231.508 101.167 231.506 81.6898H231.498V81.683V81.6784H231.506C231.507 62.1895 239.402 44.551 252.168 31.7894C264.931 19.0302 282.572 11.1378 302.063 11.1355V11.1274H302.071H302.075V11.1355C321.564 11.1366 339.209 19.0302 351.976 31.7917C364.742 44.5521 372.639 62.1873 372.641 81.675H372.649V81.683ZM368.958 81.6864H368.951V81.683V81.675H368.958C368.957 63.2184 361.467 46.5055 349.362 34.405C337.255 22.3022 320.534 14.8165 302.075 14.8165V14.8233H302.071H302.063V14.8165C283.602 14.8176 266.886 22.3022 254.782 34.4027C242.676 46.5043 235.188 63.2195 235.188 81.6784H235.195V81.683V81.6898H235.188C235.189 100.137 242.676 116.848 254.778 128.948C266.884 141.051 283.604 148.539 302.068 148.54V148.532H302.071H302.079V148.54C320.535 148.538 337.253 141.051 349.36 128.951C361.467 116.849 368.958 100.136 368.958 81.6864Z" fill="white"/>
<path fill-rule="evenodd" clip-rule="evenodd" d="M284.994 24.6981L276.254 35.0228L272.415 44.5535L272.282 51.7025L265.528 53.0257L254.8 56.2026C254.8 56.2026 247.65 61.8965 247.253 62.2941C246.855 62.6893 240.764 74.4725 240.498 75.0018C240.233 75.5299 240.896 90.6194 240.896 91.1498C240.896 91.6803 249.106 102.006 249.106 102.006C249.106 102.006 260.233 109.154 260.894 109.551C261.555 109.949 268.175 111.404 268.175 111.404L272.282 110.743L274.268 125.173L279.83 134.306L287.776 140.395L299.033 143.969C299.033 143.969 306.315 143.837 306.846 143.837C307.377 143.837 318.897 139.469 318.897 139.469L326.313 131.657L330.419 121.332L330.946 111.272L340.615 110.478L352.137 104.389L361.804 91.6803L362.6 77.2507L358.626 66.7942L347.9 56.2026L338.892 53.4232L330.285 51.9671L329.889 41.3766L322.871 29.0653L309.363 20.1968L295.722 19.6675L284.994 24.6981Z" fill="#DA251D"/>
<path fill-rule="evenodd" clip-rule="evenodd" d="M276.468 111.551C276.468 111.551 276.304 110.263 276.304 109.627C276.304 108.991 276.784 107.724 276.784 107.724C288.191 104.439 296.527 93.9314 296.527 81.4769C296.527 81.4769 297.778 81.5216 298.598 81.4311C299.141 81.3704 300.364 81.2661 300.364 81.2661C300.364 95.9627 290.174 108.284 276.468 111.551Z" fill="white"/>
<path fill-rule="evenodd" clip-rule="evenodd" d="M269.212 112.399C252.014 112.399 238.071 98.4594 238.071 81.2676C238.071 64.0747 252.014 50.1343 269.212 50.1343C283.018 50.1343 294.722 59.1094 298.807 71.5375C298.807 71.5375 297.499 71.9717 296.863 71.9717C296.227 71.9717 294.757 71.7987 294.757 71.7987C290.849 61.4935 280.882 54.167 269.2 54.167C254.112 54.167 241.88 66.3958 241.88 81.4784C241.88 96.561 254.112 108.79 269.2 108.79C269.2 108.79 268.929 110.264 268.929 110.811C268.929 111.356 269.212 112.399 269.212 112.399Z" fill="white"/>
<path fill-rule="evenodd" clip-rule="evenodd" d="M271.379 55.3791C271.379 55.3791 272.673 55.2382 273.309 55.2508C273.946 55.2657 275.2 55.7698 275.2 55.7698C278.269 67.2298 288.623 75.7639 301.079 76.001C301.079 76.001 301.008 77.2498 301.085 78.0712C301.132 78.6143 301.212 79.8378 301.212 79.8378C286.516 79.5606 274.389 69.1396 271.379 55.3791Z" fill="white"/>
<path fill-rule="evenodd" clip-rule="evenodd" d="M270.668 48.1273C270.995 30.9389 285.204 17.27 302.401 17.5966C319.593 17.9254 333.272 32.1235 332.943 49.3119C332.683 63.1091 323.483 74.6379 310.974 78.4827C310.974 78.4827 310.562 77.1686 310.577 76.5328C310.589 75.8958 310.791 74.4294 310.791 74.4294C321.173 70.7197 328.694 60.9002 328.914 49.2237C329.2 34.1433 317.204 21.6866 302.116 21.399C287.029 21.1114 274.567 33.1042 274.278 48.1823C274.278 48.1823 272.81 47.8867 272.263 47.8752C271.717 47.8649 270.668 48.1273 270.668 48.1273Z" fill="white"/>
<path fill-rule="evenodd" clip-rule="evenodd" d="M303.286 83.2528C303.286 83.2528 304.571 83.0501 305.182 82.8713C305.79 82.6915 306.87 81.8735 306.87 81.8735C306.819 70.009 314.562 59.0553 326.518 55.5531C326.518 55.5531 326.124 54.3662 325.978 53.5562C325.885 53.0166 325.64 51.8159 325.64 51.8159C311.529 55.9472 302.569 69.1876 303.286 83.2528Z" fill="white"/>
<path fill-rule="evenodd" clip-rule="evenodd" d="M304.513 90.448C309.349 106.943 326.653 116.398 343.158 111.564C359.664 106.728 369.126 89.4341 364.289 72.9366C360.406 59.6939 348.497 50.9903 335.421 50.5664C335.421 50.5664 335.368 51.9412 335.548 52.5518C335.728 53.1613 336.309 54.5235 336.309 54.5235C347.299 55.377 357.138 62.8754 360.422 74.0834C364.665 88.5565 356.366 103.727 341.883 107.971C327.403 112.212 312.226 103.915 307.983 89.4433C307.983 89.4433 306.646 90.1169 306.121 90.2704C305.596 90.424 304.513 90.448 304.513 90.448Z" fill="white"/>
<path fill-rule="evenodd" clip-rule="evenodd" d="M332.146 107.838C332.146 107.838 330.852 107.987 330.214 107.977C329.582 107.969 328.321 107.47 328.321 107.47C325.196 96.0232 314.798 87.5419 302.34 87.3677C302.34 87.3677 302.404 86.1167 302.327 85.2987C302.271 84.7545 302.188 83.5332 302.188 83.5332C316.89 83.7348 329.066 94.0939 332.146 107.838Z" fill="white"/>
<path fill-rule="evenodd" clip-rule="evenodd" d="M332.89 115.102C332.647 132.291 318.51 146.032 301.311 145.79C284.113 145.549 270.366 131.419 270.605 114.228C270.801 100.43 279.942 88.8553 292.429 84.9497C292.429 84.9497 292.847 86.2581 292.838 86.8973C292.829 87.5343 292.633 88.9996 292.633 88.9996C282.272 92.7631 274.802 102.62 274.637 114.299C274.426 129.377 286.487 141.776 301.575 141.986C316.665 142.197 329.065 130.144 329.276 115.065C329.276 115.065 330.744 115.357 331.293 115.362C331.84 115.369 332.89 115.102 332.89 115.102Z" fill="white"/>
<path fill-rule="evenodd" clip-rule="evenodd" d="M226.985 498.269L223.807 503.035L211.888 490.722C211.888 490.722 218.245 485.56 219.834 477.221C221.423 468.88 209.505 452.201 209.505 452.201C209.505 452.201 220.871 464.835 224.205 472.058C231.355 487.547 226.985 498.269 226.985 498.269Z" fill="#2E2779"/>
<path fill-rule="evenodd" clip-rule="evenodd" d="M220.231 453.393C220.231 453.393 210.696 446.643 209.107 438.7C207.519 430.757 218.642 427.581 224.601 430.361C230.561 433.139 236.123 445.452 236.123 445.452C236.123 445.452 230.565 437.546 223.013 438.303C219.039 438.7 218.642 440.288 218.245 443.863C217.847 447.437 220.231 453.393 220.231 453.393Z" fill="#2E2779"/>
<path fill-rule="evenodd" clip-rule="evenodd" d="M383.513 498.269L386.692 503.035L398.61 490.722C398.61 490.722 392.254 485.56 390.665 477.221C389.076 468.88 400.994 452.201 400.994 452.201C400.994 452.201 389.628 464.835 386.294 472.058C379.143 487.547 383.513 498.269 383.513 498.269Z" fill="#2E2779"/>
<path fill-rule="evenodd" clip-rule="evenodd" d="M390.264 453.393C390.264 453.393 399.798 446.643 401.388 438.7C402.977 430.757 391.854 427.581 385.894 430.361C379.935 433.139 374.372 445.452 374.372 445.452C374.372 445.452 379.931 437.546 387.482 438.303C391.456 438.7 391.854 440.288 392.25 443.863C392.648 447.437 390.264 453.393 390.264 453.393Z" fill="#2E2779"/>
<path fill-rule="evenodd" clip-rule="evenodd" d="M241.287 502.244L225.396 489.138C225.396 489.138 230.561 484.769 220.629 468.089C210.696 451.41 205.531 448.233 205.531 440.688C205.531 433.141 215.463 429.965 215.463 429.965C215.463 429.965 208.313 433.539 211.093 441.481C213.874 449.424 230.561 459.353 236.52 476.032C242.479 492.712 241.287 502.244 241.287 502.244Z" fill="white"/>
<path fill-rule="evenodd" clip-rule="evenodd" d="M369.015 502.244L384.906 489.138C384.906 489.138 379.742 484.769 389.674 468.089C399.606 451.41 404.77 448.233 404.77 440.688C404.77 433.141 394.838 429.965 394.838 429.965C394.838 429.965 401.99 433.539 399.209 441.481C396.428 449.424 379.742 459.353 373.783 476.032C367.823 492.712 369.015 502.244 369.015 502.244Z" fill="white"/>
<path fill-rule="evenodd" clip-rule="evenodd" d="M358.654 476.536C370.169 462.33 373.354 444.368 377.723 439.207C382.093 434.043 386.067 430.469 386.067 430.469C386.067 430.469 385.213 430.49 376.929 436.824C363.421 447.148 358.713 456.832 341.57 471.77C326.076 485.273 305.321 482.295 305.321 482.295C305.321 482.295 284.265 485.074 268.771 471.572C251.629 456.633 246.919 446.95 233.412 436.624C225.128 430.292 224.274 430.271 224.274 430.271C224.274 430.271 228.248 433.845 232.617 439.007C236.988 444.17 240.172 462.13 251.687 476.338C270.361 499.371 305.321 496.592 305.321 496.592C305.321 496.592 339.982 499.569 358.654 476.536Z" fill="white"/>
<path fill-rule="evenodd" clip-rule="evenodd" d="M302.106 689.514L329.122 681.074L344.485 671.543L354.02 677.897L361.966 680.54L372.559 667.832L390.04 669.954L413.346 668.366L423.942 660.423L432.416 650.891L440.362 653.009L451.486 649.304L455.195 635.534L471.617 633.946L489.098 630.768L497.571 606.413L505.516 606.94L513.463 606.413L511.345 593.705L524.059 590.528L533.063 583.113L545.776 576.759L543.656 556.107L532.004 546.577L543.129 533.868L557.431 514.805L560.078 489.92L556.9 471.388C556.9 471.388 550.54 480.92 543.656 484.624C536.772 488.335 533.066 486.742 524.059 494.686C515.051 502.628 504.99 522.221 504.99 522.221C504.99 522.221 504.99 513.217 498.632 507.394C492.276 501.571 485.92 504.217 482.21 502.628C478.501 501.039 476.911 496.805 476.911 496.805C476.911 496.805 471.617 503.687 466.319 506.335C461.02 508.983 448.835 515.336 443.54 524.868C438.244 534.398 433.477 555.58 433.477 555.58C433.477 555.58 434.747 542.094 428.709 534.929C420.234 524.868 411.757 522.749 409.109 521.691C406.462 520.632 401.694 515.867 401.694 515.867C401.694 515.867 397.455 523.28 389.509 526.457C384.974 528.271 372.562 531.752 365.144 541.811C357.726 551.873 351.9 571.466 351.9 571.466C351.9 571.466 353.492 560.345 344.485 550.284C335.478 540.223 324.885 537.046 316.939 534.929C308.993 532.81 302.106 523.249 302.106 523.249L302.208 523.196C302.208 523.196 295.321 532.758 287.375 534.877C279.43 536.996 268.837 540.174 259.829 550.231C250.821 560.294 252.414 571.412 252.414 571.412C252.414 571.412 246.588 551.819 239.17 541.762C231.751 531.703 219.34 528.219 214.805 526.404C206.86 523.226 202.619 515.815 202.619 515.815C202.619 515.815 197.851 520.581 195.205 521.638C192.558 522.699 184.08 524.815 175.604 534.877C169.567 542.04 170.837 555.528 170.837 555.528C170.837 555.528 166.069 534.347 160.774 524.815C155.479 515.284 143.293 508.929 137.996 506.284C132.698 503.636 127.401 496.752 127.401 496.752C127.401 496.752 125.813 500.987 122.104 502.575C118.395 504.164 112.038 501.518 105.682 507.341C99.3252 513.168 99.3252 522.168 99.3252 522.168C99.3252 522.168 89.2624 502.575 80.2552 494.632C71.2479 486.691 67.5414 488.282 60.6579 484.574C53.7733 480.866 47.4147 471.335 47.4147 471.335L44.2354 489.868L46.884 514.756L61.1863 533.819L72.3092 546.527L60.6579 556.058L58.5376 576.709L71.2514 583.064L80.2552 590.475L92.9689 593.653L90.8521 606.361L98.7969 606.891L106.743 606.361L115.216 630.719L132.698 633.897L149.12 635.485L152.829 649.254L163.953 652.958L171.898 650.842L180.371 660.373L190.968 668.317L214.274 669.905L231.756 667.782L242.348 680.491L250.294 677.848L259.829 671.494L275.193 681.025L302.208 689.464L302.106 689.514Z" fill="white"/>
<path fill-rule="evenodd" clip-rule="evenodd" d="M301.406 692.802C301.406 692.802 293.064 688.433 289.488 687.639C285.912 686.845 281.145 685.654 273.596 684.463C266.048 683.271 253.335 674.533 253.335 674.533C253.335 674.533 250.951 677.314 248.17 678.505C245.389 679.697 241.019 681.285 241.019 681.285C241.019 681.285 237.045 676.916 234.265 674.136C231.483 671.357 228.703 668.975 228.703 668.975C228.703 668.975 222.347 670.166 212.811 670.563C203.277 670.96 184.207 670.563 184.207 670.563C184.207 670.563 183.81 667.783 183.016 666.592C182.22 665.4 180.234 665.003 177.453 662.222C174.672 659.443 169.11 652.691 169.11 652.691C169.11 652.691 164.342 653.089 161.562 653.089C158.78 653.089 153.218 652.295 153.218 652.295C153.218 652.295 151.63 647.926 150.438 645.543C149.246 643.16 147.656 638.792 147.656 638.792C147.656 638.792 141.3 639.984 136.135 639.189C130.97 638.395 127.792 634.026 122.23 633.232C116.668 632.437 111.901 632.437 111.901 632.437C111.901 632.437 111.503 629.26 111.107 627.672C110.709 626.083 108.325 624.098 106.735 620.524C105.147 616.949 103.16 608.212 103.16 608.212C103.16 608.212 99.1872 608.61 95.2148 608.61C91.2412 608.61 86.8712 607.418 86.8712 607.418C86.8712 607.418 86.4735 602.652 86.4735 601.063C86.4735 599.477 87.6654 593.916 87.6654 593.916C87.6654 593.916 81.3102 593.916 78.1309 593.122C74.9528 592.328 65.0206 583.988 61.4448 580.414C57.8689 576.84 52.7046 578.031 52.7046 578.031C52.7046 578.031 52.7046 566.117 55.0885 558.173C57.4724 550.232 68.5965 542.686 68.5965 542.686C68.5965 542.686 55.8827 541.892 44.3621 511.71C32.8403 481.527 47.1425 473.187 47.1425 473.187C47.1425 473.187 49.5264 481.925 54.2942 487.087C59.0609 492.25 73.7608 491.456 83.2964 503.369C92.8309 515.283 92.0367 525.609 94.8171 531.963C97.5987 538.318 101.968 541.097 101.968 541.097C101.968 541.097 102.365 539.112 101.173 536.729C99.9815 534.346 98.7895 523.624 98.7895 523.624C98.7895 523.624 100.776 529.58 103.955 536.331C107.133 543.083 110.311 547.055 110.311 547.055C110.311 547.055 98.9889 520.027 110.311 508.929C115.581 503.764 128.189 504.163 128.189 504.163C128.189 504.163 134.148 512.901 139.711 516.475C145.272 520.049 150.04 522.432 155.602 531.963C161.164 541.495 164.342 574.457 167.522 579.619C170.699 584.782 175.069 586.37 175.069 586.37C175.069 586.37 171.096 577.236 170.301 574.853C169.508 572.47 165.534 555.394 167.124 556.189C168.713 556.983 169.508 566.911 172.685 574.059C175.864 581.208 184.207 589.547 184.207 589.547C184.207 589.547 173.877 567.309 175.069 548.643C176.261 529.977 198.905 526.007 198.905 526.007C198.905 526.007 213.274 537.588 214.797 539.509C216.127 541.184 217.975 545.863 217.975 545.863L217.579 535.935C217.579 535.935 233.47 549.438 238.237 559.762C243.005 570.088 241.813 589.945 246.183 601.858C250.553 613.773 256.116 612.184 256.116 612.184C256.116 612.184 252.937 605.829 250.157 595.902C247.375 585.973 250.951 575.25 250.951 575.25C250.951 575.25 250.157 583.591 252.937 594.313C255.719 605.035 265.651 610.595 265.651 610.595C265.651 610.595 257.307 594.313 256.512 580.81C255.719 567.309 262.075 554.997 267.24 549.04C272.404 543.083 287.898 539.509 291.474 538.714C295.05 537.92 301.406 528.786 301.406 528.786L301.748 528.985C301.748 528.985 308.104 538.118 311.679 538.912C315.255 539.708 330.749 543.282 335.914 549.239C341.079 555.196 347.435 567.506 346.641 581.009C345.846 594.511 337.504 610.793 337.504 610.793C337.504 610.793 347.435 605.235 350.217 594.511C352.998 583.789 352.203 575.45 352.203 575.45C352.203 575.45 355.779 586.172 352.998 596.1C350.217 606.029 347.038 612.383 347.038 612.383C347.038 612.383 352.601 613.972 356.971 602.058C361.341 590.143 360.149 570.286 364.917 559.962C369.683 549.636 385.575 536.133 385.575 536.133L385.177 546.061C385.177 546.061 387.561 541.693 388.356 539.708C389.151 537.721 404.247 526.205 404.247 526.205C404.247 526.205 426.892 530.177 428.084 548.842C429.276 567.506 418.947 589.747 418.947 589.747C418.947 589.747 427.29 581.406 430.468 574.258C433.646 567.109 434.442 557.181 436.03 556.387C437.62 555.592 433.646 572.669 432.852 575.052C432.058 577.435 428.084 586.568 428.084 586.568C428.084 586.568 432.454 584.981 435.634 579.817C438.812 574.655 441.99 541.693 447.552 532.162C453.114 522.63 457.881 520.248 463.443 516.674C469.005 513.1 474.965 504.363 474.965 504.363C474.965 504.363 487.957 504.503 492.843 509.128C502.272 518.057 492.843 547.253 492.843 547.253C492.843 547.253 496.021 543.282 499.199 536.529C502.377 529.779 504.363 523.822 504.363 523.822C504.363 523.822 503.171 534.545 501.979 536.927C500.787 539.31 501.185 541.295 501.185 541.295C501.185 541.295 505.555 538.516 508.337 532.162C511.118 525.807 510.323 515.483 519.858 503.569C529.392 491.655 544.092 492.449 548.86 487.285C553.628 482.123 556.01 473.386 556.01 473.386C556.01 473.386 570.313 481.726 558.792 511.908C547.27 542.09 534.557 542.884 534.557 542.884C534.557 542.884 545.682 550.43 548.065 558.373C550.449 566.315 550.449 578.229 550.449 578.229C550.449 578.229 545.284 577.038 541.708 580.612C538.133 584.187 528.2 592.526 525.023 593.32C521.845 594.114 515.487 594.114 515.487 594.114C515.487 594.114 516.679 599.675 516.679 601.263C516.679 602.852 516.282 607.617 516.282 607.617C516.282 607.617 511.912 608.808 507.939 608.808C503.967 608.808 499.993 608.411 499.993 608.411C499.993 608.411 498.007 617.148 496.419 620.723C494.829 624.296 492.445 626.282 492.048 627.871C491.651 629.46 491.253 632.637 491.253 632.637C491.253 632.637 486.485 632.637 480.924 633.431C475.362 634.226 472.183 638.593 467.019 639.387C461.854 640.182 455.497 638.99 455.497 638.99C455.497 638.99 453.908 643.359 452.716 645.742C451.524 648.125 449.936 652.492 449.936 652.492C449.936 652.492 444.373 653.287 441.592 653.287C438.812 653.287 434.044 652.89 434.044 652.89C434.044 652.89 428.482 659.641 425.701 662.422C422.92 665.201 420.934 665.598 420.139 666.789C419.344 667.98 418.947 670.761 418.947 670.761C418.947 670.761 399.877 671.158 390.343 670.761C380.808 670.363 374.451 669.172 374.451 669.172C374.451 669.172 371.669 671.555 368.889 674.335C366.108 677.116 362.135 681.483 362.135 681.483C362.135 681.483 357.765 679.895 354.983 678.704C352.203 677.512 349.819 674.733 349.819 674.733C349.819 674.733 337.106 683.47 329.557 684.66C322.01 685.851 317.242 687.043 313.666 687.838C310.091 688.632 301.748 693 301.748 693L301.406 692.802ZM47.1712 488.239C47.1712 488.239 41.9942 503.026 50.1281 515.225C58.2643 527.421 65.6602 530.005 68.9873 530.747C72.3145 531.489 84.1216 531.396 82.2993 520.027C80.8186 510.789 74.9035 511.154 71.9454 512.264C68.9873 513.376 64.5484 517.44 64.5484 517.44C64.5484 517.44 66.3983 506.717 64.1794 501.916C61.9605 497.112 58.999 494.153 54.5636 493.414C50.1281 492.675 47.1712 488.239 47.1712 488.239ZM548.527 492.119C544.092 492.861 541.132 495.815 538.912 500.621C536.693 505.427 538.542 516.146 538.542 516.146C538.542 516.146 534.105 512.079 531.147 510.971C528.189 509.864 522.272 509.491 520.793 518.734C518.97 530.101 530.778 530.192 534.105 529.453C537.432 528.715 544.828 526.127 552.963 513.928C561.098 501.731 555.921 486.945 555.921 486.945C555.921 486.945 552.963 491.378 548.527 492.119ZM162.223 580.677C162.223 580.677 156.859 569.954 155.468 560.225C154.078 550.495 153.681 537.986 149.113 533.021C144.543 528.057 143.153 529.049 142.159 529.447C141.166 529.845 139.379 532.228 139.379 532.228C139.379 532.228 138.583 529.049 138.782 526.468C138.981 523.887 138.782 521.902 138.782 521.902C138.782 521.902 134.611 520.71 131.829 518.327C129.049 515.944 127.063 512.569 127.063 512.569C127.063 512.569 120.905 511.775 119.315 514.158C117.727 516.541 120.309 521.902 120.309 521.902C120.309 521.902 117.131 519.519 114.945 519.916C112.761 520.313 109.582 525.476 111.171 535.007C112.761 544.538 118.521 552.878 121.699 555.459C124.877 558.04 130.043 559.034 132.029 557.643C134.015 556.253 133.221 551.885 133.221 551.885C133.221 551.885 138.298 561.271 142.557 565.784C149.113 572.735 162.223 580.677 162.223 580.677ZM461.081 563.7C465.34 559.186 470.418 549.8 470.418 549.8C470.418 549.8 469.623 554.169 471.61 555.559C473.596 556.947 478.76 555.955 481.939 553.374C485.117 550.793 490.877 542.452 492.467 532.922C494.056 523.39 490.877 518.229 488.693 517.831C486.508 517.434 483.33 519.817 483.33 519.817C483.33 519.817 485.912 514.455 484.322 512.073C482.733 509.69 476.575 510.484 476.575 510.484C476.575 510.484 474.589 513.859 471.808 516.242C469.028 518.625 464.856 519.817 464.856 519.817C464.856 519.817 464.656 521.802 464.856 524.384C465.054 526.964 464.26 530.142 464.26 530.142C464.26 530.142 462.472 527.759 461.478 527.362C460.486 526.964 459.096 525.972 454.526 530.936C449.958 535.9 449.56 548.41 448.17 558.139C446.778 567.869 441.416 578.591 441.416 578.591C441.416 578.591 454.526 570.65 461.081 563.7ZM245.852 612.448C245.852 612.448 239.675 601.422 238.303 593.385C236.913 585.244 236.471 569.39 232.343 560.821C229.761 555.459 226.583 553.672 224.2 553.672C221.816 553.672 221.816 560.026 221.816 560.026C221.816 560.026 220.624 555.26 219.432 552.679C218.311 550.253 215.061 545.729 212.678 543.346C210.294 540.963 199.964 533.021 199.964 533.021C199.964 533.021 192.614 535.007 191.622 539.971C190.628 544.935 192.02 551.885 192.02 551.885C192.02 551.885 188.444 545.135 184.868 548.112C181.293 551.091 178.512 565.587 187.648 583.06C196.786 600.533 198.375 597.158 198.375 597.158C198.375 597.158 202.348 597.555 204.732 594.378C207.116 591.2 209.102 587.627 209.102 587.627C209.102 587.627 215.658 601.328 227.974 607.086C240.289 612.844 245.852 612.448 245.852 612.448ZM376.723 605.566C389.039 599.808 395.594 586.107 395.594 586.107C395.594 586.107 397.581 589.68 399.964 592.858C402.348 596.035 406.322 595.638 406.322 595.638C406.322 595.638 407.909 599.014 417.048 581.539C426.185 564.067 423.403 549.57 419.829 546.592C416.253 543.614 412.677 550.364 412.677 550.364C412.677 550.364 414.068 543.415 413.075 538.451C412.082 533.487 404.732 531.501 404.732 531.501C404.732 531.501 394.402 539.443 392.02 541.826C389.636 544.209 386.385 548.733 385.265 551.16C384.073 553.74 382.881 558.506 382.881 558.506C382.881 558.506 382.881 552.153 380.497 552.153C378.114 552.153 374.936 553.939 372.353 559.301C368.224 567.867 367.784 583.724 366.394 591.865C365.022 599.897 358.844 610.928 358.844 610.928C358.844 610.928 364.408 611.324 376.723 605.566ZM302.266 597.158C302.266 597.158 303.061 605.497 307.034 609.867C311.006 614.235 316.966 618.207 323.322 615.029C329.68 611.852 340.675 597.552 341.2 581.273C341.598 568.962 338.022 559.431 333.651 557.445C329.282 555.459 326.104 559.828 324.912 564.196C323.72 568.564 328.884 555.459 323.322 549.502C318.943 544.81 313.39 547.12 309.02 543.545C305.751 540.87 302.266 537.986 302.266 537.986L302.464 538.184C302.464 538.184 298.979 541.07 295.711 543.744C291.341 547.318 285.787 545.01 281.409 549.701C275.847 555.657 281.011 568.764 279.819 564.395C278.627 560.026 275.449 555.657 271.079 557.643C266.709 559.629 263.133 569.16 263.531 581.471C264.055 597.75 275.051 612.05 281.409 615.227C287.765 618.404 293.725 614.433 297.696 610.065C301.67 605.696 302.464 597.357 302.464 597.357L302.266 597.158ZM130.439 569.16C130.439 569.16 112.406 558.267 104.815 555.26C94.2865 551.091 79.826 549.639 74.0244 553.076C68.6618 556.253 64.6883 564.792 69.8538 570.153C71.7036 572.07 76.0118 573.131 79.3882 575.912C82.7646 578.692 86.3405 582.067 93.6905 580.082C101.04 578.095 106.205 570.352 112.761 569.756C119.315 569.16 130.439 569.16 130.439 569.16ZM98.6566 550.893L97.0669 546.921C97.0669 546.921 91.9026 543.943 82.5664 545.135C73.2302 546.326 63.8974 552.437 63.298 559.629C62.9015 564.395 63.4963 565.983 64.2906 569.756C65.086 573.529 65.086 575.713 65.086 575.713C65.086 575.713 67.0722 574.323 72.2377 578.493C77.402 582.663 84.7509 588.619 91.1083 588.223C97.4646 587.825 108.192 578.095 113.357 576.309C118.521 574.522 120.507 576.309 120.507 576.309L120.705 573.131C120.705 573.131 115.144 571.345 110.575 573.33C106.007 575.316 97.4646 585.642 90.1146 584.847C82.7646 584.053 78.1963 578.89 74.6204 576.11C71.0457 573.33 69.0584 573.131 69.0584 573.131C69.0584 573.131 67.8951 570.227 66.6745 567.175C64.6883 562.211 66.6745 556.055 69.6543 553.474C73.056 550.526 76.6353 548.913 82.9641 548.31C91.3066 547.516 98.6566 550.893 98.6566 550.893ZM491.176 569.557C497.731 570.153 502.896 577.897 510.246 579.884C517.596 581.869 521.171 578.493 524.549 575.713C527.925 572.933 532.233 571.872 534.083 569.954C539.247 564.594 535.275 556.055 529.911 552.878C524.111 549.441 509.649 550.893 499.121 555.062C491.53 558.068 473.496 568.962 473.496 568.962C473.496 568.962 484.62 568.962 491.176 569.557ZM520.973 548.112C527.3 548.714 530.88 550.328 534.281 553.276C537.261 555.857 539.247 562.012 537.261 566.975C536.042 570.029 534.877 572.933 534.877 572.933C534.877 572.933 532.891 573.131 529.315 575.912C525.739 578.692 521.171 583.853 513.821 584.648C506.471 585.442 497.929 575.118 493.361 573.131C488.792 571.146 483.229 572.933 483.229 572.933L483.429 576.11C483.429 576.11 485.415 574.322 490.579 576.11C495.745 577.897 506.471 587.627 512.828 588.025C519.184 588.421 526.534 582.465 531.699 578.295C536.863 574.124 538.851 575.514 538.851 575.514C538.851 575.514 538.851 573.33 539.644 569.557C540.439 565.784 541.035 564.196 540.638 559.431C540.039 552.239 530.707 546.127 521.369 544.935C512.033 543.744 506.869 546.722 506.869 546.722L505.279 550.693C505.279 550.693 512.629 547.318 520.973 548.112ZM106.007 591.2C106.007 591.2 98.856 591.4 95.2801 595.372C91.7043 599.341 92.8962 603.115 92.8962 603.115C92.8962 603.115 98.4583 604.107 101.239 601.724C104.019 599.341 104.219 598.349 104.815 596.364C105.411 594.378 106.007 591.2 106.007 591.2ZM499.915 596.662C500.512 598.647 500.711 599.64 503.491 602.023C506.273 604.406 511.835 603.413 511.835 603.413C511.835 603.413 513.026 599.64 509.451 595.668C505.875 591.696 498.723 591.498 498.723 591.498C498.723 591.498 499.32 594.676 499.915 596.662ZM183.08 599.341C183.08 599.341 162.024 584.847 144.742 586.436C127.461 588.025 116.299 593.141 115.939 602.122C115.739 607.086 118.521 609.867 119.713 612.448C120.563 614.284 120.309 618.207 120.309 618.207C120.309 618.207 124.479 617.412 127.857 619C131.235 620.589 138.187 627.538 144.345 625.553C150.502 623.568 161.179 612.659 166.791 608.278C173.148 603.313 183.08 599.341 183.08 599.341ZM117.527 588.619C113.402 591.325 109.582 596.166 110.377 602.718C110.954 607.484 113.753 613.242 115.343 615.824C116.931 618.404 116.734 624.957 116.734 624.957C116.734 624.957 121.103 623.568 123.885 624.56C126.665 625.553 133.816 632.304 142.755 631.312C151.694 630.319 167.784 614.433 171.559 610.86C175.333 607.285 182.88 603.909 182.88 603.909C182.88 603.909 175.134 604.107 170.764 607.88C166.394 611.654 152.291 626.546 142.358 628.134C136.548 629.064 127.261 622.574 124.083 621.185C120.905 619.794 118.521 621.979 118.521 621.979C118.521 621.979 117.925 615.824 117.329 614.235C116.734 612.646 114.812 610.094 114.35 607.682C113.357 602.52 112.19 597.076 115.939 593.187C121.103 587.825 138.782 584.648 138.782 584.648C138.782 584.648 123.885 584.45 117.527 588.619ZM437.94 607.285C443.551 611.665 454.228 622.574 460.386 624.56C466.544 626.546 473.496 619.596 476.874 618.008C480.25 616.419 484.421 617.213 484.421 617.213C484.421 617.213 484.168 613.291 485.018 611.455C486.21 608.873 488.991 606.094 488.792 601.13C488.431 592.147 477.271 587.031 459.99 585.442C442.706 583.853 421.651 598.349 421.651 598.349C421.651 598.349 431.582 602.321 437.94 607.285ZM465.948 583.656C465.948 583.656 483.627 586.833 488.792 592.194C492.541 596.084 491.374 601.527 490.381 606.689C489.919 609.1 487.997 611.654 487.402 613.242C486.805 614.831 486.21 620.985 486.21 620.985C486.21 620.985 483.826 618.802 480.648 620.191C477.469 621.582 468.183 628.072 462.372 627.141C452.44 625.553 438.337 610.661 433.966 606.888C429.596 603.115 421.849 602.916 421.849 602.916C421.849 602.916 429.398 606.292 433.172 609.867C436.946 613.441 453.036 629.326 461.975 630.319C470.914 631.312 478.066 624.56 480.846 623.568C483.627 622.574 487.997 623.965 487.997 623.965C487.997 623.965 487.799 617.412 489.387 614.831C490.977 612.25 493.777 606.49 494.354 601.724C495.149 595.172 491.329 590.333 487.203 587.627C480.846 583.457 465.948 583.656 465.948 583.656ZM252.233 620.471C252.233 620.471 225.171 611.107 210.691 613.639C195.209 616.345 182.88 624.759 180.895 637.07C178.909 649.382 184.203 647.593 187.648 652.161C190.324 655.707 190.706 658.469 190.706 658.469C190.706 658.469 193.536 656.948 201.085 657.345C208.633 657.743 211.715 660.47 220.624 656.132C228.954 652.077 234.131 637.07 239.693 631.51C245.255 625.951 252.233 620.471 252.233 620.471ZM212.716 610.344C212.716 610.344 197.584 610.971 188.58 615.842C179.582 620.713 171.323 630.846 173.073 642.469C174.824 654.094 184.083 657.717 185.707 660.47C187.329 663.221 188.331 665.471 188.331 665.471C188.331 665.471 193.332 663.969 198.959 664.845C204.587 665.72 216.97 667.845 222.845 663.969C228.721 660.095 239.355 643.971 244.355 638.095C249.356 632.217 259.359 623.344 259.359 623.344C259.359 623.344 250.606 626.345 245.355 631.342C240.103 636.344 226.219 659.474 219.968 661.097C213.718 662.718 204.462 660.969 200.086 660.845C195.709 660.721 189.83 661.72 189.83 661.72C189.83 661.72 188.459 657.969 184.831 654.469C181.203 650.969 177.754 649.018 176.702 642.469C175.076 632.345 182.204 622.845 190.957 617.719C199.71 612.593 212.716 610.344 212.716 610.344ZM364.988 632.081C370.55 637.641 375.727 652.644 384.058 656.702C392.965 661.04 396.047 658.311 403.595 657.913C411.144 657.516 413.974 659.036 413.974 659.036C413.974 659.036 414.357 656.275 417.032 652.733C420.477 648.165 425.773 649.952 423.786 637.641C421.799 625.33 409.471 616.915 393.99 614.21C379.511 611.678 352.448 621.039 352.448 621.039C352.448 621.039 359.426 626.521 364.988 632.081ZM413.723 618.286C422.476 623.413 429.605 632.912 427.979 643.039C426.928 649.586 423.479 651.541 419.851 655.04C416.222 658.54 414.85 662.288 414.85 662.288C414.85 662.288 408.971 661.288 404.595 661.413C400.219 661.537 390.963 663.286 384.712 661.667C378.461 660.041 364.577 636.916 359.326 631.914C354.074 626.912 345.322 623.916 345.322 623.916C345.322 623.916 355.325 632.788 360.326 638.665C365.326 644.541 375.959 660.662 381.835 664.541C387.71 668.412 400.095 666.29 405.723 665.415C411.349 664.541 416.349 666.042 416.349 666.042C416.349 666.042 417.352 663.789 418.975 661.04C420.599 658.286 429.856 654.661 431.608 643.039C433.359 631.418 425.099 621.284 416.101 616.413C407.097 611.538 391.966 610.915 391.966 610.915C391.966 610.915 404.971 613.162 413.723 618.286ZM164.871 630.188C164.871 630.188 162.722 631.622 159.86 633.051C156.999 634.482 154.613 635.198 154.613 635.198C154.613 635.198 155.569 638.776 158.429 642.115C161.291 645.453 167.018 644.975 167.018 644.975C167.018 644.975 166.779 640.923 166.779 637.821C166.779 634.722 167.257 627.805 167.257 627.805L164.871 630.188ZM151.273 637.343C151.273 637.343 152.467 641.401 153.421 644.498C154.372 647.597 156.282 648.792 156.282 648.792C156.282 648.792 158.191 649.508 161.531 649.269C164.871 649.03 166.539 648.552 166.539 648.552V646.884C166.539 646.884 160.099 646.167 157.712 644.498C155.326 642.828 152.703 637.107 152.703 637.107L151.273 637.343ZM435.298 626.608C435.298 626.608 435.776 633.527 435.776 636.629C435.776 639.732 435.537 643.784 435.537 643.784C435.537 643.784 441.263 644.262 444.125 640.923C446.987 637.585 447.943 634.005 447.943 634.005C447.943 634.005 445.557 633.291 442.694 631.858C439.833 630.424 437.685 628.997 437.685 628.997L435.298 626.608ZM449.852 635.91C449.852 635.91 447.229 641.637 444.843 643.306C442.455 644.975 436.015 645.689 436.015 645.689V647.358C436.015 647.358 437.685 647.836 441.025 648.078C444.365 648.314 446.273 647.6 446.273 647.6C446.273 647.6 448.182 646.403 449.135 643.306C450.088 640.204 451.283 636.152 451.283 636.152L449.852 635.91ZM250.281 644.975C250.281 644.975 245.271 648.795 242.884 653.325C240.498 657.854 238.828 660.479 238.828 660.479C238.828 660.479 239.066 662.865 244.315 665.726C249.563 668.586 251.233 666.2 251.233 666.2C251.233 666.2 249.327 661.192 249.089 657.138C248.85 653.082 250.281 644.975 250.281 644.975ZM235.727 664.531C235.727 664.531 235.727 668.586 237.636 671.208C239.544 673.829 242.406 676.219 242.406 676.219C242.406 676.219 245.032 675.979 247.655 674.784C250.277 673.591 252.667 670.972 252.667 670.972L251.473 669.064C251.473 669.064 246.705 670.02 243.84 668.825C240.975 667.631 237.158 662.861 237.158 662.861L235.727 664.531ZM354.298 656.185C354.059 660.24 352.753 664.769 352.753 664.769C352.753 664.769 354.423 667.155 359.671 664.295C364.919 661.434 365.158 659.049 365.158 659.049C365.158 659.049 363.489 656.424 361.102 651.894C358.714 647.364 353.705 643.548 353.705 643.548C354.536 651.891 354.502 652.688 354.298 656.185ZM366.828 661.432C366.828 661.432 363.011 666.2 360.146 667.395C357.281 668.589 352.513 667.633 352.513 667.633L351.318 669.542C351.318 669.542 353.708 672.161 356.331 673.355C358.955 674.549 361.579 674.788 361.579 674.788C361.579 674.788 364.442 672.399 366.35 669.778C368.259 667.155 368.259 663.101 368.259 663.101L366.828 661.432ZM270.945 641.991C268.319 646.999 264.716 656.324 269.037 662.021C274.285 668.94 278.816 666.318 287.404 668.94C295.993 671.562 303.151 675.138 303.151 675.138C303.151 675.138 309.503 671.562 318.092 668.94C326.681 666.318 331.212 668.94 336.46 662.021C340.781 656.324 337.177 646.999 334.552 641.991C327.085 627.74 302.675 621.958 302.675 621.958C302.675 621.958 278.413 627.74 270.945 641.991ZM302.729 679.939C302.729 679.939 301.406 677.577 296.902 674.928C292.399 672.279 277.569 672.281 272.006 668.309C266.445 664.339 261.941 658.778 265.12 646.601C268.297 634.424 283.132 623.037 283.132 623.037C283.132 623.037 276.508 625.419 269.356 632.301C262.86 638.556 255.585 654.277 263.267 665.927C270.948 677.577 290.81 676.253 295.844 678.371C300.879 680.491 302.729 684.173 302.729 684.173L302.72 684.369C302.72 684.369 304.569 680.687 309.603 678.567C314.638 676.448 334.499 677.773 342.181 666.122C349.862 654.472 342.588 638.751 336.091 632.496C328.94 625.615 322.317 623.232 322.317 623.232C322.317 623.232 337.15 634.619 340.328 646.796C343.506 658.974 339.003 664.534 333.44 668.505C327.879 672.477 313.048 672.474 308.545 675.123C304.041 677.773 302.72 680.135 302.72 680.135L302.729 679.939Z" fill="#DA251D"/>
</g>
<defs>
<clipPath id="clip0_806_90991">
<rect width="601.755" height="693" fill="white"/>
</clipPath>
</defs>
</svg>
