<svg id="id-svg" width="610" height="691" viewBox="0 0 610 691" fill="none" xmlns="http://www.w3.org/2000/svg">
<g clip-path="url(#clip0_806_90954)">
<path d="M304.698 641.42C472.978 641.42 609.396 503.757 609.396 333.941C609.396 164.125 472.978 26.4619 304.698 26.4619C136.418 26.4619 0 164.125 0 333.941C0 503.757 136.418 641.42 304.698 641.42Z" fill="#1C3481"/>
<path d="M305.814 126.575C339.371 126.575 366.574 98.9976 366.574 64.9788C366.574 30.96 339.371 3.38232 305.814 3.38232C272.257 3.38232 245.054 30.96 245.054 64.9788C245.054 98.9976 272.257 126.575 305.814 126.575Z" fill="#F1BC00" stroke="#1C3481" stroke-width="6.76531"/>
<path d="M223.354 678.275L209.41 569.041L209.558 566.775L210.691 566.085L212.563 565.79L216.012 566.874L224.684 569.14L234.44 572.096L246.068 574.855L261.736 577.615L281.838 579.093L301.91 580.467L320.584 580.885L339.119 578.795L357.793 577.122L371.45 574.474L388.173 570.294L406.011 565.416L408.956 564.755L410.435 565.198L411.716 565.74L412.947 567.071L399.004 677.24L387.967 680.59L373.54 682.895L356.26 685.683L343.996 687.634L329.503 688.748H315.567L298.844 689.306L279.055 687.076L258.43 684.568L239.477 681.781L223.354 678.275Z" fill="#F1BC00" stroke="#1C3481" stroke-width="3.38266"/>
<path d="M126.834 119.101L102.79 118.904L90.3735 130.926L74.804 146.298L62.3878 164.43L51.154 183.35L39.3291 206.803L31.2487 224.934L24.7449 244.248L20.212 259.03L16.8616 277.358L13.7083 296.869L12.7229 314.41L11.9346 334.906L13.3141 373.535L16.4675 392.455L20.212 409.995L25.7304 430.492L32.8253 446.849L40.7087 464.784L43.862 470.894L49.1832 475.821L55.6869 478.383L61.0082 479.171L66.1323 480.551L69.0886 481.339L70.6652 482.521L72.6361 485.872L75.1981 491.193L79.9281 498.485L85.0523 506.763L92.1473 514.843L100.425 523.318L110.082 532.58L122.695 544.603L132.549 552.683L140.038 558.004L143.98 558.792L147.922 558.595L151.666 557.413L154.623 555.836L157.382 553.077L160.141 548.938L161.323 543.617L161.915 534.945L161.126 531.201L160.535 525.288L158.564 520.164L156.199 515.631L153.046 512.084L148.316 507.748L141.418 503.412L136.097 499.076L131.564 494.346L128.41 490.602L126.44 482.915L124.469 473.456L125.257 468.528L125.651 461.631L128.016 456.506L109.491 414.922L97.2714 369.987L95.8918 323.87L98.2568 291.942L111.856 246.219L133.338 213.109L149.301 191.824L172.754 169.554L185.959 157.532L184.579 144.327V126.787L195.616 123.24L205.47 118.115L211.776 112.794L213.944 108.064L215.127 102.743L214.536 96.4363L212.368 88.553L208.82 83.0347L205.47 80.4726L200.937 78.6988L194.433 78.3047L190.097 79.6843L182.805 83.0347L176.105 86.3851L162.703 93.6771L156.002 97.6188L143.192 105.502L134.914 111.02L130.184 115.553L126.834 119.101Z" fill="#F1BC00"/>
<path d="M508.189 527.062L500.109 537.113L490.649 546.967L479.612 555.244L473.897 558.595L467.196 559.186L462.269 557.609L457.736 554.456L453.991 551.106L452.218 547.558L451.035 543.617L450.838 537.704L452.02 530.412L454.779 523.514L458.13 517.602L462.269 512.28L467.787 506.565L473.305 503.609L477.444 500.85L480.991 496.908L484.342 492.769L485.327 487.251L486.313 477.988L485.524 471.681L482.371 463.798L482.962 457.294L493.802 439.36L506.612 410.586L517.255 370.184L521.196 311.059L509.766 262.182L486.313 219.81L456.356 184.138L427.055 161.414L427.891 144.97L428.17 126.853L417.022 121.558L407.545 116.541L401.971 112.36L398.217 106.98L398.02 102.644L398.808 96.9284L401.567 91.0159L404.917 86.483L408.465 82.9355L412.012 80.5705L416.939 80.2749L424.724 81.4574L432.115 83.6253L441.082 87.4684L454.681 95.1546L464.732 101.658L477.05 112.005L486.313 119.889H513.707L525.729 132.009L535.386 144.721L545.092 157.791L554.847 172.563L563.348 185.384L571.431 204.616L579.792 224.265L585.367 238.201L589.687 251.997L593.171 265.794L595.958 279.73L597.073 296.035L597.491 310.11L598.354 338.108L594.3 393.487L586.9 424.523L579.932 447.1L570.595 469.676L564.323 474.274L560.282 477.48L554.847 478.455L549.412 479.291L544.256 480.964L533.107 499.498L508.189 527.062Z" fill="#F1BC00"/>
<path d="M306.369 110.703C331.16 110.703 351.256 90.6061 351.256 65.8157C351.256 41.0253 331.16 20.9287 306.369 20.9287C281.579 20.9287 261.482 41.0253 261.482 65.8157C261.482 90.6061 281.579 110.703 306.369 110.703Z" fill="white" stroke="#1C3481" stroke-width="6.7383"/>
<path d="M174.133 108.065L165.856 115.554L154.819 119.496L145.753 123.437L137.081 126.591L125.256 131.715L115.797 139.204L112.249 146.693L112.643 150.241L119.072 148.874L125.622 146.226L132.451 143.578L140.255 139.676L147.083 136.889L154.051 132.708L160.601 128.667L165.061 125.322L168.823 121.002L171.75 116.264L174.133 108.065Z" fill="#009847"/>
<path d="M86.0376 207.001L92.9355 200.892L101.016 193.994L108.899 187.293L116.388 178.818L122.498 172.118L128.805 165.811L136.097 157.928L141.812 149.453L135.505 151.227L128.41 154.577L120.724 158.716L109.49 165.22L102.198 170.935L95.1034 180.395L90.1763 188.278L86.8259 196.162L84.4609 203.454L86.0376 207.001Z" fill="#009847"/>
<path d="M67.3139 231.045L71.6497 223.162L75.5914 214.096L77.5622 204.242L81.5039 190.052L81.8981 184.139L86.628 171.132L90.5697 165.219L92.1759 160.162L94.1269 152.079L89.8068 154.309L83.8144 159.465L77.4039 165.039L70.9934 173.819L67.6488 182.877L66.6733 189.567L65.4191 199.6L65.001 212.7L65.5584 221.898L67.3139 231.045Z" fill="#009847"/>
<path d="M122.697 516.78L127.713 523.748L136.911 533.225L137.747 538.241L133.009 539.635L128.55 536.569L123.254 530.159L119.073 525.142L119.631 520.682L120.188 518.174L122.697 516.78Z" fill="#009847"/>
<path d="M478.428 536.917L482.369 538.493L486.902 535.537L490.253 531.595L493.406 527.851L494.194 523.712L493.406 519.967L490.253 519.573L487.296 522.924L483.749 526.077L480.399 530.019L478.625 534.552L478.428 536.917Z" fill="#009847"/>
<path d="M495.757 508.976L501.61 505.77L504.536 502.147L506.905 501.171L509.135 500.614L510.111 496.851L514.431 492.113L521.538 486.817L532.687 479.71L544.254 474.972L555.681 470.931L562.788 462.012L565.994 455.462L568.641 451.978L571.986 445.707L573.519 441.108L570.035 441.805L566.133 444.592L559.722 449.469L550.385 454.347L543.139 459.643L532.547 466.471L525.998 471.767L520.981 477.062L514.988 483.334L510.808 488.908L510.668 480.825L509.971 466.471L510.25 455.741L510.529 444.731L506.766 447.24L504.536 451.002L501.192 457.831L497.987 467.168L496.454 476.226V483.055L495.896 495.179L495.757 502.008V508.976Z" fill="#009847"/>
<path d="M118.754 506.764L119.739 503.414L120.527 498.684L119.936 492.377L119.345 484.494L118.359 476.808L117.768 471.683L115.994 464.983L114.221 460.253L111.659 453.552L108.702 448.428L106.337 444.88L104.564 444.683L103.775 448.033L104.958 452.369L105.549 455.917L105.943 462.618L107.323 469.318L105.943 475.822V482.917V488.041L101.016 484.1L97.8629 479.37L93.33 473.654L87.8116 469.121L83.0817 465.377L74.6071 461.041L70.6654 458.085L64.5559 454.34L60.4171 450.99L54.3076 446.457L49.3805 441.333L45.4388 437.391L42.6797 434.632V441.727L45.4388 446.851L48.5922 453.158L50.3659 456.902L54.1105 460.253L56.0813 465.377L61.0084 468.727L67.315 470.304L71.6509 472.472L76.3808 474.048L80.3225 476.019L84.8554 478.975L89.3883 482.917L93.527 486.268L98.6512 490.603L102.593 494.348L104.761 499.078L107.717 500.063H109.885L113.432 502.428L114.812 506.173L116.192 508.144L118.162 508.932L118.754 506.764Z" fill="#009847"/>
<path d="M437.435 108.459L445.318 114.372L455.172 117.919L466.603 121.861L476.063 125.803L484.34 128.956L492.618 134.868L500.107 142.358L502.472 149.058L502.866 153.394L494.983 150.241L487.099 147.482L478.428 143.54L469.362 140.781L461.085 136.445L453.989 131.715L449.26 127.773L443.347 122.255L438.223 115.554L436.879 112.222L435.973 109.296L436.53 108.111L437.435 108.459Z" fill="#009847"/>
<path d="M519.31 148.316L522.515 151.94L529.762 158.211L534.082 161.834L540.911 169.081L544.673 175.77L547.042 184.271L548.854 192.632L549.551 199.461L549.83 207.962L549.412 218.832L549.69 224.127L548.436 230.12L546.485 224.824L544.813 220.504L542.165 217.16L540.074 213.536L539.935 209.774C539.935 209.774 538.123 204.06 538.123 203.502C538.123 202.945 537.705 198.904 537.705 198.904L536.591 194.583C536.591 194.583 535.058 192.214 534.918 191.657C534.779 191.099 532.688 187.755 532.688 187.755L531.713 184.132L531.434 180.23L530.598 177.582L529.483 174.934L528.09 172.425L527.253 169.499L526.139 166.851L524.884 164.482L523.351 161.834L522.933 159.744L521.261 156.678L520.146 154.309L518.613 150.825L519.31 148.316Z" fill="#009847"/>
<path d="M469.264 146.792L474.585 149.453L481.778 152.113L487.789 154.872L498.53 161.376L504.739 164.825L511.341 170.146L516.169 175.172L519.421 179.015L523.461 184.928L526.221 189.165L528.29 194.387L530.458 201.384L531.246 205.128L531.542 209.169L526.812 207.789L522.279 203.749L517.352 200.201L510.75 194.092L507.596 190.446L502.275 185.913L496.165 178.916L491.436 173.595L486.706 168.57L482.468 163.347L477.738 158.716L474.782 155.956L472.121 153.296L470.052 149.748L469.264 146.792Z" fill="#009847"/>
<path d="M588.712 387.456L587.597 391.358L583.695 395.121L580.769 398.605L578.121 401.949L575.473 405.155L572.546 408.499L570.177 412.262L568.505 416.025L567.251 418.672L566.136 422.992L564.603 426.755L564.046 431.215L563.906 435.535L564.882 436.928L566.136 436.51L567.808 434.281L569.063 432.051L571.571 429.403L573.94 427.034L575.334 424.386L577.285 420.484L579.236 417.697L581.883 414.631L583.695 411.286L584.671 408.081L585.925 403.622L587.737 399.023L588.851 395.818L589.688 392.334L589.827 389.407L588.712 387.456Z" fill="#009847"/>
<path d="M520.982 466.333L518.473 459.643L517.358 448.913L518.752 442.084L518.891 437.067L519.309 429.403V423.828L519.031 418.254L519.588 414.909L521.26 411.565L523.49 406.827L527.81 401.392V410.868L528.089 423.132V433.444L528.646 445.29L527.114 454.766L523.908 461.455L521.539 466.333H520.982Z" fill="#009847"/>
<path d="M536.731 453.232L536.312 438.739L537.009 424.524L538.96 420.344L541.329 416.86L544.535 414.212L547.322 410.589L549.97 407.941L553.454 405.014L556.38 402.506L558.889 400.415L563.348 397.628L566.693 394.423L567.947 393.308L567.808 398.186L567.25 403.342L563.766 411.564L560.979 417.835L558.471 423.27L554.011 429.402L549.97 434.837L546.625 439.993L543.28 444.731L540.215 448.494L536.731 453.232Z" fill="#009847"/>
<path d="M95.8006 465.915L97.0548 458.389L97.1942 447.241L96.6367 432.19L96.9155 422.156L95.2432 411.007L92.1773 404.736L88.4146 400.974L86.4636 407.105L86.603 413.237L86.3242 427.452L86.7423 439.297L87.4391 446.683L87.9965 453.373L91.2018 459.922L94.407 465.357L95.8006 466.89L95.8006 465.915Z" fill="#009847"/>
<path d="M51.4493 434.927L51.8435 428.423L51.6464 422.609L49.5771 417.682L45.8325 411.375L39.2302 402.999L35.0915 397.481L31.1498 392.061L27.6023 385.36L26.3213 388.317L26.7155 392.652L28.4892 398.861L31.1498 405.069L33.5148 410.094L38.7375 418.175L42.7777 423.594L46.3252 428.324L49.4785 432.168L51.4493 434.927Z" fill="#009847"/>
<path d="M77.9553 453.65L78.5465 445.373L78.6451 437.687L79.3349 428.621L77.9553 421.427L72.0428 414.037L66.4259 408.124L60.9076 403.296L54.4039 398.763L50.8564 394.821L48.6885 398.664L49.3783 404.183L53.7141 412.953L58.0499 420.048L61.9916 427.636L66.2288 434.731L68.1997 438.968L70.8603 443.107L73.718 447.245L77.9553 453.65Z" fill="#009847"/>
<path d="M101.513 204.338L95.3808 210.888L85.7651 218.413L80.8875 223.848L75.3132 231.234L70.8537 236.39L66.1155 243.776L62.3528 250.744L59.5657 256.737L56.4998 262.311L54.27 267.606L52.0403 259.524V246.285L51.6222 238.202L52.4584 227.193L51.4829 216.741L45.3511 227.889L41.449 237.784L38.1044 248.932L33.0875 264.123L29.7429 275.968L29.0461 288.232L28.4887 301.889L28.7674 313.595L28.9068 315.825H26.1196L23.8899 314.849L21.5208 316.8L19.1517 320.005L17.8975 324.744L18.3155 333.384L18.5943 349.549L18.1762 365.994L19.9879 368.92L24.1686 371.707L26.5377 373.937L29.1855 376.724L31.8333 381.741L35.4567 387.037L38.2438 392.472L40.3342 396.234L42.2852 392.472L41.8672 389.127L41.5884 384.25V378.815L40.4736 375.749L39.08 372.125V368.641L39.6374 366.551L41.7278 367.527L42.8426 371.15L45.7692 378.118L47.9989 382.577L51.0648 386.061L55.803 389.545L61.238 394.702L62.7709 385.643L63.0496 379.093L63.189 374.913L63.0496 369.617L63.7464 366.272L64.5826 362.51L68.3453 363.067L66.2549 369.199L65.8368 378.815L65.4187 383.135L66.1155 389.545L68.4846 394.98L71.5505 402.088L74.6164 407.244L75.7313 398.604L76.5674 386.758L77.1249 377.56L77.961 366.69L79.0759 354.845L79.7727 345.926L82.6992 335.613L87.1587 325.719L81.445 325.44L77.1249 322.792L72.9441 316.243L74.7558 310.808L77.5429 304.258L81.3056 297.569L87.0193 283.772L89.2491 276.525L91.7575 269.558L93.1511 261.335L91.6182 251.441L86.7406 257.851L83.8141 262.171L77.961 268.164L72.526 273.738L67.9272 277.362L65.8368 276.804L63.4677 275.689L64.4432 273.32L66.9517 270.254L73.0835 262.729L78.5184 256.737L82.4205 252.695L87.7161 246.424L93.4298 238.341L98.8648 226.635L101.652 218.552L103.882 208.518L104.579 203.78L101.513 204.338Z" fill="#009847"/>
<path d="M541.299 407.73L544.945 400.339L548.591 393.934L550.168 386.642L549.872 376.591L548.985 371.467L547.901 366.934L548.492 363.485L550.365 362.007L552.138 361.612L552.533 364.864L551.843 369.791L552.138 374.817L551.941 382.306L552.73 389.204L554.306 393.441L556.573 395.412L558.938 395.609L560.514 392.456L563.274 387.726L569.201 380.209L573.661 375.471L577.005 368.503L577.563 365.437L579.792 361.814L581.465 362.929L580.35 367.667L576.448 375.75L573.939 383.275L573.382 388.292V393.866L577.563 393.03L582.301 388.013L585.924 383.275L590.662 377.143L595.122 372.963L597.63 368.224L599.86 363.208L599.537 341.609L599.734 334.514V327.911L598.157 324.265L597.468 318.55L595.792 316.382L592.639 314.411L589.781 315.594L588.5 317.072L586.628 314.214L587.416 308.696L587.614 304.557L588.402 300.812L589.19 297.068L587.614 285.834L586.431 270.462L583.081 259.031L576.478 241.491L570.172 227.399L566.624 222.275L564.654 218.235V222.768L563.767 234.1L564.851 244.841L564.949 252.724L564.653 261.889L562.88 263.071L560.712 261.199L558.544 256.469L555.883 252.724L552.73 247.797L546.068 236.67L538.542 228.866L532.968 222.734L525.721 216.324L519.032 208.798L511.786 203.781L509.277 201.273L508.998 206.011L508.72 213.537L512.622 223.849L517.639 233.325L522.098 240.293L528.787 250.606L536.591 257.853L545.232 265.657L550.527 270.952L552.2 275.133L551.085 278.478L548.855 280.429L545.51 277.084L538.542 270.116L532.689 264.82L527.672 255.901L524.607 249.77L522.377 253.672L522.656 260.918L522.934 266.493L523.213 272.903L525.164 279.035L530.181 287.675L534.919 297.43L538.821 303.005L542.723 312.202L543.002 318.055L540.215 322.794L537.149 325.581L531.853 324.745L529.345 322.794L530.738 330.319L532.411 337.287L535.198 340.074L535.477 343.419L535.337 362.232L536.173 377.562L535.755 390.522L536.313 400.138L538.821 404.04L541.299 407.73Z" fill="#009847"/>
<path d="M36.768 365.554L39.8228 363.977L42.1878 361.12L43.1732 348.605L43.5674 343.284L43.3703 339.638L43.2718 336.682L44.0601 333.134L46.1295 330.079L48.593 327.222L49.2828 325.349L50.2682 325.743L51.5493 326.236L52.8303 326.039L54.7026 325.152L56.1807 327.418L56.4763 330.276L57.2646 332.05L58.2501 334.612V337.273L58.4471 343.087L58.9398 348.309L59.0384 350.97L59.2355 355.404L60.3194 357.671L62.4873 358.065L62.5859 360.43L63.9654 362.401L66.5275 363.583L68.6954 361.908L68.991 359.444L69.8779 357.868L71.0604 357.572L71.5531 354.32L71.7502 349.59L71.5531 346.437V341.313L72.2429 337.371L74.5093 335.006L76.2831 332.543L72.9327 331.656L71.4546 332.937V330.572L71.2575 327.418L70.5677 325.152L67.9071 326.926L67.2173 329.586L66.1333 332.05L64.5567 332.74L63.5713 330.276L61.8961 327.911L59.2354 326.433L55.5894 324.462L57.0675 322.689L58.3486 320.323L58.9398 317.466L58.6442 313.721L59.0384 306.331L59.2354 303.079L60.5165 301.009L62.98 296.575L67.3158 293.717L64.9508 292.338L60.9107 292.535H59.4325L59.8267 289.973L60.0238 285.834L57.9544 281.104L56.3777 284.06L55.7865 287.509L55.3923 290.86L53.1259 290.958L51.5492 289.776L49.6769 288.199L47.9032 286.031L45.3411 284.159L42.0892 283.765L43.3703 285.637L45.0455 288.889L46.0309 292.436L46.228 297.068L45.0455 303.079L43.6659 308.597L43.2717 314.312L44.0601 319.24L47.1148 324.265L41.8921 328.798L39.7242 328.207L37.5563 326.532L36.4724 324.265L35.0928 320.718L34.2059 318.451L32.9249 322.196L32.5307 325.645L32.6293 329.981L31.0526 332.247L29.9686 331.064C29.9686 331.064 29.9686 330.178 29.5745 329.783C29.1803 329.389 27.9978 328.108 27.9978 328.108L25.4357 327.911L23.4649 328.798L22.4795 330.473L23.8591 330.867L25.1401 330.572L25.9284 331.36L26.3226 335.105L28.2934 340.82L29.3774 351.462L29.4759 356.882L30.6584 360.824L33.122 362.696L34.8957 363.879L36.768 365.554Z" fill="#FFFFFE"/>
<path d="M579.516 366.273L583.418 363.486L586.763 362.093L587.041 357.633L587.32 351.223L588.992 345.37L590.107 338.959L593.731 333.664L594.288 328.925L593.134 327.419L592.838 325.842L591.163 327.911L590.375 329.488L587.517 331.262L585.349 330.966L585.743 328.207L585.152 325.546L583.28 322.984L581.013 320.324L580.718 323.871L580.915 326.236L580.028 328.798L579.24 330.473L576.284 328.897L572.638 328.503L571.258 327.419L569.977 323.773L571.455 322.689L573.229 321.013L573.722 318.353L573.327 314.017V308.4L572.736 302.488L572.145 299.137L571.652 294.9L572.046 292.535L573.426 290.86L574.116 288.495V286.82L572.835 283.568L570.962 282.09L571.258 285.046L570.47 287.115L568.499 288.495L566.824 290.071L565.346 290.466L564.853 288.495L563.473 285.834L561.897 283.962L559.926 281.695L560.024 279.133L558.152 281.203L557.166 284.356L556.969 288.199L556.279 291.845L555.097 292.929L553.422 291.057L551.254 289.382L548.495 289.579L547.312 290.367L549.382 291.451L551.057 293.126L553.126 299.039L555.491 308.794L556.279 314.904L557.659 320.619L558.743 323.773L557.758 326.236L556.378 327.813L554.407 329.981L553.225 331.36L551.944 332.641L550.564 330.769L548.987 327.911L547.115 325.251L544.652 323.181L542.484 322.59L543.469 325.645L543.568 328.7V331.163L543.173 332.346L540.808 332.444L539.429 331.262L536.177 328.798L534.699 326.532L533.418 327.517L533.122 330.769L533.812 333.429L536.275 335.696L538.148 337.667L540.414 341.806L541.005 346.141L540.414 351.068L541.695 355.798L546.07 364.044L548.3 365.855L550.808 365.577L552.759 363.904L554.292 361.256L555.128 357.772L556.243 352.059V346.763L556.94 342.304V335.057L557.218 331.573L560.424 327.253L562.235 325.999L564.326 325.581L566.834 327.114L568.367 328.368L570.318 330.597L571.851 336.032L571.712 340.492L571.572 347.042L572.269 354.428L572.827 359.166L575.335 362.789L577.704 365.019L579.516 366.273Z" fill="#FFFFFE"/>
<path d="M307.085 555.82C429.791 555.82 529.263 456.644 529.263 334.304C529.263 211.964 429.791 112.789 307.085 112.789C184.379 112.789 84.9062 211.964 84.9062 334.304C84.9062 456.644 184.379 555.82 307.085 555.82Z" fill="#F1BC00" stroke="black" stroke-width="5.1502"/>
<path d="M306.573 486.575C391.099 486.575 459.621 417.612 459.621 332.542C459.621 247.471 391.099 178.508 306.573 178.508C222.046 178.508 153.524 247.471 153.524 332.542C153.524 417.612 222.046 486.575 306.573 486.575Z" fill="#1C3481"/>
<path d="M101.235 387.594L167.709 388.012L183.318 373.937H435.975L450.189 388.151H511.368L352.395 247.303L346.581 243.657L342.246 242.179L336.333 241.785L331.603 242.179L324.902 242.967L319.088 245.332L314.851 248.682L311.796 252.033L321.422 264.749L328.25 273.25L328.669 275.828L324.976 276.177L306.511 252.207L301.842 245.448L298.428 241.267L293.271 238.341L288.812 236.668H284.91L279.893 236.39L275.434 237.505L271.532 239.177L266.515 241.964L245.75 261.196L226.937 277.919L101.235 387.594Z" fill="white" stroke="#1C3481" stroke-width="3.38266"/>
</g>
<defs>
<clipPath id="clip0_806_90954">
<rect width="609.396" height="691" fill="white"/>
</clipPath>
</defs>
</svg>
