<svg id="id-svg" width="493" height="680" viewBox="0 0 493 680" fill="none" xmlns="http://www.w3.org/2000/svg">
<g clip-path="url(#clip0_806_90942)">
<path fill-rule="evenodd" clip-rule="evenodd" d="M52.9913 84.1296L94.3994 84.1286L94.3629 113.795L148.214 144.396L148.155 176.968L385.864 177.121L344.022 155.945V114.252L398.597 141.866L398.505 88.0041L441.143 88.0345L441.234 141.634L492.999 112.994V154.397L440.148 183.575V202.649L492.999 173.481V215.305L440.146 244.452V263.526L492.999 234.389V274.195L440.142 303.312V322.387L492.999 293.279V334.312L440.14 363.399V382.473L492.999 353.397V395.657L440.138 424.712V443.786L492.999 414.74V455.773L440.132 484.798V503.872L492.999 474.858V514.954L434.615 548.063C397.054 626.954 335.561 678.993 245.632 679.987C155.703 680.981 70.144 613.19 54.1911 518.633L-0.00585938 548.063V506.702L53.322 477.285V458.21L-0.00585938 487.598V446.521L53.322 417.198V398.125L-0.00585938 427.417V385.113L53.322 355.886V336.811L-0.00137134 366.007V324.931L53.3264 295.799V276.724L-0.00137134 305.826V265.978L53.3264 236.938V217.864L-0.00137134 246.874V205.006L53.3264 176.062V156.987L-0.00137134 185.902V143.545L52.9653 114.377L52.9913 84.1296ZM214.599 0L246.332 30.8917L278.398 0V54.8635H333.302L302.452 86.5346L333.302 118.614H278.398V173.477L246.362 142.719L214.599 173.477V118.614H159.695L190.61 86.5721L159.695 54.8635H214.599V0ZM225.172 86.7383L246.498 65.428L267.825 86.7383L246.498 108.05L225.172 86.7383ZM94.507 156.172L94.4208 177.317H133.258L94.507 156.172Z" fill="#CF9329"/>
<path fill-rule="evenodd" clip-rule="evenodd" d="M398.977 205.934L398.794 414.262H94.0717L93.9814 205.934H398.977Z" fill="#DA251D"/>
<path fill-rule="evenodd" clip-rule="evenodd" d="M398.633 481.412L398.631 482.818C398.492 582.801 320.569 639.873 247.332 639.521C174.11 639.17 94.2968 580.482 94.1923 481.412L94.1406 414.146L398.722 414.379L398.633 481.412Z" fill="#00923F"/>
<path fill-rule="evenodd" clip-rule="evenodd" d="M398.815 346.954L398.629 481.805H94.1931C94.1931 481.648 94.1871 481.495 94.1871 481.337L94.0938 346.954H398.815Z" fill="#0093DD"/>
<path fill-rule="evenodd" clip-rule="evenodd" d="M219.794 273.913C221.038 279.258 224.837 285.675 227.154 290.714C231.379 290.577 229.325 290.442 233.55 290.306C227.817 291.783 226.217 293.055 221.716 292.722C212.989 290.751 207.043 285.472 197.287 283.68C198.339 289.04 209.969 302.076 214.781 305.823C223.735 301.312 230.746 298.657 232.981 297.967C234.224 302.527 235.468 303.721 236.558 306.444C241.444 306.286 248.947 305.428 256.694 304.862C256.694 305.816 256.694 306.769 256.694 307.723C243.746 311.137 230.798 316.547 217.851 322.023C209.206 317.6 200.729 313.679 192.085 309.257C193.017 307.215 194.956 303.169 197.229 301.128C193.689 296.229 190.147 292.831 186.606 287.932C188.308 286.639 190.011 285.346 191.713 284.054C187.831 281.603 183.95 279.154 180.068 276.704C179.278 278.954 178.489 281.204 177.699 283.454C175.082 281.982 172.466 280.512 169.849 279.041C169.277 281.819 168.704 284.597 168.132 287.376C165.761 285.823 163.388 284.271 161.017 282.718C160.036 285.659 159.054 288.601 158.074 291.543C155.129 289.991 152.185 288.438 149.242 286.885C149.242 289.745 149.242 292.605 149.242 295.465C147.443 298.08 145.643 300.695 143.844 303.31C147.851 304.372 151.858 305.434 155.866 306.497C156.52 308.131 157.174 309.766 157.828 311.399C150.303 319.342 147.456 329.538 151.45 343.023C155.002 338.693 158.82 335.297 163.225 333.952C159.031 349.244 161.05 358.999 164.554 367.027C166.466 361.678 169.38 356.97 175.137 356.744C177.283 361.748 179.429 366.751 181.576 371.756C178.094 374.811 174.149 377.406 170.231 380.027C168.495 376.249 166.758 372.47 165.02 368.692C161.235 370.714 150.099 371.756 142.639 373.287C142.742 371.347 142.843 369.407 142.945 367.467C138.959 369.203 134.64 371.383 130.655 373.12C131.984 374.855 133.646 376.146 134.975 377.882C132.726 379.21 130.477 381.094 128.229 382.422C129.762 384.464 131.295 385.951 132.828 387.993C130.886 389.729 128.945 391.465 127.003 393.201C128.331 394.937 130.439 396.673 131.768 398.409C130.541 400.451 127.133 400.567 125.907 402.609C128.251 404.797 131.132 406.31 133.398 407.795C134.889 410.3 136.028 413.507 137.733 416.485C140.493 413.727 143.427 410.969 146.187 408.213C149.942 423.597 153.843 430.952 158.065 434.656C160.186 428.201 163.11 423.555 166.585 420.144C172.022 426.457 178.676 432.162 187.498 436.784C186.328 426.474 189.002 419.482 196.538 418.688C198.428 422.944 200.089 427.303 202.794 431.56C174.988 462.586 152.006 494.485 162.775 536.18C166.225 534.381 169.676 533.309 173.125 532.962C173.614 534.668 173.921 536.736 174.046 539.168C170.519 537.823 166.992 537.125 163.465 536.869C159.478 537.713 155.491 538.555 151.505 539.398C152.271 541.083 153.038 542.769 153.805 544.454C151.274 546.293 148.745 548.132 146.214 549.97C148.437 551.732 150.662 553.494 152.885 555.257C150.585 557.401 148.284 559.547 145.984 561.692C148.284 562.842 150.585 563.991 152.885 565.139C151.274 567.668 149.665 570.196 148.054 572.724C150.662 573.72 153.268 574.715 155.875 575.712C154.878 577.78 153.882 579.849 152.885 581.918C156.565 582.53 160.245 583.143 163.925 583.757C171.975 580.055 180.026 576.789 188.076 571.346C197.097 573.158 206.529 574.891 216.367 577.521C216.878 573.828 216.675 558.706 218.208 554.566C221.784 555.732 224.338 557.816 224.648 561.921C229.021 555.809 229.327 547.801 228.788 539.398C232.894 540.085 236.257 541.977 237.988 546.523C241.827 538.462 243.683 529.442 242.772 518.712C244.827 517.011 246.989 515.141 248.799 513.197C258.216 528.915 269.436 541.929 284.624 548.998C286.119 544.89 288.635 541.292 293.399 538.816C296.7 540.514 298.775 542.21 299.626 543.908C295.286 544.945 291.635 545.867 287.294 546.905C285.502 549.544 283.019 553.218 281.227 555.858C283.302 556.8 285.378 557.131 287.454 558.073C286.118 561.084 284.781 563.789 283.444 566.799C285.828 567.548 288.212 568.296 290.596 569.045C289.982 571.835 289.369 574.625 288.757 577.415C291.821 577.075 295.345 576.887 298.409 576.547C299.907 580.018 300.947 583.335 302.445 586.806C305.032 585.445 307.62 584.084 310.208 582.723C311.298 585.173 312.847 587.775 313.936 590.226C317.75 588.524 321.104 586.669 324.918 584.969C329.691 575.249 334.241 565.084 338.606 554.55C344.803 551.365 351 547.936 357.197 544.343C350.728 535.428 344.259 526.513 337.789 517.599C342.621 515.561 343.77 515.006 351.928 515.548C351.303 507.509 339.684 492.708 331.573 488.852C336.464 485.603 339.6 485.887 345.161 484.894C338.6 473.079 325.987 461.258 312.047 451.874C322.475 446.294 325.627 440.907 329.208 435.327C321.441 436.014 315.533 434.858 310.588 432.189C302.348 427.741 302.404 420.253 289.778 407.768C293.174 402.935 295.686 398.104 297.95 393.273C302.905 394.964 306.948 398.193 309.266 403.276C313.909 395.361 316.084 380.838 315.724 367.55C319.946 368.094 324.305 370.272 327.982 374.083C331.512 362.038 330.318 348.36 327.37 335.499C331.319 334.41 336.086 334.478 340.036 336.111C340.002 330.616 338.435 321.599 330.23 307.735C334.588 305.556 339.287 305.42 344.735 309.776C344.599 301.746 340.649 295.622 332.885 291.402C338.605 289.183 342.353 285.389 345.348 280.991C339.355 281.196 333.362 279.358 327.37 273.029C330.23 270.572 333.09 271.188 335.95 272.009C333.328 260.269 327.608 252.309 317.359 250.369C316.61 246.422 315.111 242.476 313.273 238.528C303.67 237.915 295.566 241.794 288.143 247.715C284.874 247.102 281.625 245.375 278.338 245.877C270.671 247.049 263.604 249.796 256.068 252.615C252.468 257.374 248.584 261.867 246.261 265.681C237.882 267.574 223.273 271.917 219.794 273.913ZM241.484 289.418C245.467 289.99 251.869 293.226 255.222 291.789C255.931 290.133 256.448 288.404 256.285 286.967C253.969 285.605 247.812 283.46 246.227 283.862C244.003 284.427 243.038 287.73 241.484 289.418ZM239.345 295.547C240.599 295.22 242.316 294.535 243.61 294.566C245.228 294.605 247.36 295.439 249.334 295.711C248.626 296.145 247.795 297.031 246.963 297.018C244.462 296.975 241.799 296.037 239.345 295.547Z" fill="#CF9329"/>
<path fill-rule="evenodd" clip-rule="evenodd" d="M203.659 433.647C206.111 437.22 208.563 440.795 211.017 444.37C205.16 456.751 201.632 468.954 206.417 480.519C217.557 470.818 221.031 468.877 224.812 471.022C218.389 484.504 222.838 494.817 230.332 505.028C234.113 498.492 236.872 495.02 239.835 493.386C242.39 499.309 244.945 505.233 247.501 511.156C245.047 513.3 242.595 515.445 240.143 517.589C241.496 526.958 240.423 534.873 237.689 541.792C234.214 538.523 230.331 536.889 226.04 536.89C227.476 544.654 226.758 550.984 225.732 557.11C222.565 552.912 219.396 552.304 216.228 552.207C214.287 559.049 214.798 567.117 214.082 574.572C205.396 572.938 196.709 570.385 188.022 568.751C179.131 573.703 171.364 577.891 164.109 580.393C161.962 572.836 159.816 565.279 157.67 557.722C159.611 551.391 161.554 545.059 163.495 538.728C166.97 539.137 171.262 540.362 176.372 542.404C176.372 538.728 174.839 534.439 174.839 530.762C171.257 530.45 167.682 532.291 164.721 534.132C154.527 500.164 173.769 466.797 203.659 433.647ZM155.207 299.312C164.673 295.575 173.614 291.837 183.081 288.101C187.171 290.845 190.21 296.392 193.775 300.538C191.7 304.056 190.375 307.199 189.392 310.173C197.749 314.436 206.105 318.699 214.461 322.961C197.004 329.448 191.906 335.082 190.269 340.479C201.014 341.356 206.858 343.048 207.8 345.56C199.69 346.62 191.564 347.888 182.905 355.545C188.902 357.18 192.993 359.633 195.178 362.902C191.496 365.472 187.814 368.041 184.132 370.61C181.445 365.472 178.756 360.332 176.068 355.194C169.709 354.945 166.642 358.127 164.498 362.552C162.784 355.983 162.226 347.534 165.199 332.07C161.64 331.981 155.959 333.794 152.577 339.078C150.467 330.114 150.815 320.946 159.94 311.049C158.186 307.137 156.959 303.224 155.207 299.312ZM222.358 274.639C228.12 272.226 235.908 270.283 247.24 267.756C250.339 263.554 254.022 258.618 257.577 254.416C264.065 252.163 271.42 249.268 279.082 248.375C282.226 248.009 285.381 249.617 288.449 250.405C298.492 243.075 306.839 240.154 311.983 241.284C313.883 244.659 315.363 248.312 315.925 252.577C322.582 252.996 330.604 257.959 333.009 269.123C330.544 268.693 326.446 269.568 325.124 272.484C327.66 277.227 332.901 281.114 341.157 283.043C338.445 285.984 333.637 289.251 329.592 291.213C335.992 295.078 340.891 298.999 342.208 305.104C335.204 303.526 330.152 303.809 327.87 307.312C332.42 315.629 337.26 324.625 338.003 332.943C332.754 331.484 328.636 332.096 325.65 334.781C327.2 346.783 329.458 358.784 326.485 370.785C323.504 366.845 319.024 365.151 313.862 364.478C313.341 375.69 312.408 386.902 308.603 398.114C306.965 394.318 303.284 391.339 297.558 389.179C294.87 396.653 291.363 403.31 287.04 409.149C294.864 414.034 297.449 422.634 302.569 429.368C306.598 434.668 315.416 439.345 325.427 437.573C321.376 442.763 314.566 447.546 308.064 451.919C320.047 460.666 332.586 470.392 340.888 482.819C335.655 483.9 330.652 484.908 327.267 489.072C335.648 494.396 343.469 501.077 348.986 513.35C344.446 513.025 339.906 514.129 335.366 516.661C341.869 525.489 348.445 534.774 354.948 543.602C348.935 547.28 342.851 550.503 336.839 554.182C332.298 563.378 328.78 573.186 324.239 582.383C316.508 578.949 307.757 574.903 300.026 571.471C296.467 564.114 292.909 555.94 289.35 548.583C293.89 547.234 298.431 546.702 302.971 545.353C301.926 542.104 298.258 539.229 293.4 536.525C289.055 538.957 285.817 541.831 284.197 545.353C262.532 536.069 250.926 513.861 240.757 489.808C234.392 493.854 231.164 497.899 230.082 501.947C220.465 486.036 224.139 477.503 228.242 469.208C224.088 466.51 218.99 465.611 207.258 477.3C204.343 464.012 208.811 454.411 213.516 444.93C207.171 435.243 202.15 425.556 197.319 415.87C190.398 417.083 185.754 422.132 184.435 432.791C177.636 428.444 171.992 423.232 166.765 417.709C163.107 419.549 159.697 423.229 156.825 430.951C151.521 423.225 149.046 414.752 147.99 405.938C143.919 406.081 140.275 405.05 136.946 403.363C138.787 394.167 140.628 384.971 142.468 375.774C149.586 373.201 158.786 373.689 163.819 371.728C165.415 375.407 167.746 379.574 169.34 383.253C179.092 376.942 188.227 370.023 198.423 363.267C196.497 360.201 192.426 356.802 187.379 354.739C192.362 350.798 201.413 348.378 211.308 347.082C209.87 341.904 203.731 339.636 194.374 339.357C195.724 336.169 198.607 333.5 201.737 332C219.797 323.345 238.795 315.324 257.324 309.193C258.373 307.231 258.373 305.269 257.324 303.308C250.694 304.047 244.343 304.371 238.181 304.412C236.766 302.204 235.733 299.559 235.254 297.353C239.426 297.966 243.904 299.71 248.121 299.629C250.448 299.585 252.538 298.158 254.747 297.422C257.446 293.662 257.869 289.648 258.427 285.651C254.624 284.302 250.507 281.823 246.491 282.217C243.363 282.523 241.757 286.315 240.091 288.277C236.409 288.522 232.203 288.418 228.522 288.663C225.947 284.501 223.811 279.639 222.358 274.639ZM254.194 269.367C253.597 269.394 252.924 270.096 253.184 270.634C253.875 272.074 255.08 272.589 256.516 272.877C257.572 273.09 259.195 271.907 260.252 272.12C262.145 272.501 263.915 275.081 265.18 274.987C266.37 274.9 266.7 272.482 265.972 271.235C265.634 270.656 264.777 271.332 264.141 271.12C263.348 270.856 262.774 269.904 261.768 269.834C260.361 269.736 259.19 270.524 257.52 270.52C256.437 270.517 255.276 269.318 254.194 269.367ZM259.616 272.617C260.785 272.617 261.735 273.904 261.735 275.491C261.735 277.078 260.785 278.365 259.616 278.365C258.444 278.365 257.496 277.078 257.496 275.491C257.496 273.904 258.444 272.617 259.616 272.617Z" fill="#1F1A17"/>
<path fill-rule="evenodd" clip-rule="evenodd" d="M200.067 286.318C207.787 289.053 217.744 294.177 223.103 294.399C227.194 294.568 234.972 290.429 240.677 290.661C245.066 290.84 247.582 293.441 254.224 293.297C253.735 293.99 253.244 294.383 252.754 295.078C248.882 295.329 244.645 293.407 242.584 293.787C234.415 295.295 224.165 300.399 215.016 303.826C209.244 298.506 204.58 292.644 200.067 286.318Z" fill="#DA251D"/>
<path fill-rule="evenodd" clip-rule="evenodd" d="M287.919 547.764L299.23 572.28L324.622 584.02L314.401 589.107L310.595 581.514L302.935 585.473L298.939 575.448L290.3 576.353L291.57 568.315L284.736 566.179L288.568 557.405L282.714 555.473L287.919 547.764ZM153.256 540.14L162.702 538.019L156.804 557.617L163.887 582.522L154.477 581.026L156.873 575.281L149.96 571.992L154.393 564.638L148.485 561.291L154.529 555.223L148.621 549.779L154.938 544.636L153.256 540.14ZM180.913 279.288L189.337 284.221L153.804 298.83L156.128 304.926L146.64 302.313L150.803 296.315L150.416 289.446L158.936 293.8L161.646 284.899L168.908 289.543L170.942 281.32L178.493 285.383L180.913 279.288ZM141.62 369.576C140.362 381.827 137.797 392.773 135.493 403.98C137.913 405.44 141.487 406.888 145.54 407.409C143.376 409.204 140.476 411.857 138.312 413.653C137.004 411.368 135.942 408.715 134.636 406.429C131.467 405.205 130.04 403.981 128.265 402.756C129.653 401.327 132.349 401.001 133.655 398.349C132.267 396.471 130.511 395.083 129.122 393.206C130.878 391.574 132.634 389.697 134.391 388.064C133.125 386.187 131.184 384.432 129.917 382.555C132.081 380.922 134.922 379.35 137.086 377.717C135.82 376.37 134.125 374.719 132.858 373.372C135.472 371.984 139.005 370.965 141.62 369.576Z" fill="#DA251D"/>
</g>
<defs>
<clipPath id="clip0_806_90942">
<rect width="493" height="680" fill="white"/>
</clipPath>
</defs>
</svg>
