<svg id="id-svg" width="434" height="691" viewBox="0 0 434 691" fill="none" xmlns="http://www.w3.org/2000/svg">
<g clip-path="url(#clip0_806_91493)">
<path d="M3.31641 144.359V148.427V587.6C3.31641 617.812 26.6105 641.162 54.2983 641.162H162.529C180.003 641.162 191.045 647 198.606 654.722C206.167 662.443 210.226 672.306 212.325 680.146L213.003 682.519H219.439L220.117 680.146C222.216 672.306 226.275 662.443 233.836 654.722C241.398 647 252.439 641.162 269.913 641.162H378.144C405.831 641.162 429.125 617.812 429.125 587.6V148.427V144.359H425.061H216.221H7.38141H3.31641Z" fill="white"/>
<path d="M279.707 134.814H154.375V142.956H279.707V134.814Z" fill="#B17842" stroke="#B17842" stroke-width="1.38056"/>
<path d="M217.015 0.689941C210.943 6.41679 205.404 12.6879 200.087 19.1693C206.381 23.992 211.632 29.3353 217.015 34.5214C222.399 29.3353 227.65 23.992 233.944 19.1693C228.627 12.6879 223.088 6.41679 217.015 0.689941ZM163.955 26.8454C160.089 31.9571 157.399 37.6113 155.136 43.4768C160.329 46.7464 165.256 50.4459 170.072 54.2801C172.805 48.434 175.303 42.6419 178.75 36.7958C173.956 33.2492 169.034 29.9182 163.955 26.8454ZM270.076 26.8454C264.997 29.9182 260.075 33.2492 255.281 36.7958C258.728 42.6419 261.226 48.434 263.959 54.2801C268.775 50.4459 273.702 46.7464 278.895 43.4768C276.632 37.6113 273.941 31.9571 270.076 26.8454ZM194.255 27.1296C186.515 38.0522 180.848 47.9864 175.478 58.971C181.257 64.3059 186.055 69.7941 190.13 75.3182C192.626 68.6767 196.222 62.1543 200.23 55.7016C202.869 58.4792 205.247 61.5523 207.627 64.657C201.254 74.5528 196.091 84.6077 192.548 94.3661C186.775 84.8659 179.941 75.9821 171.779 67.5C167.197 78.6006 163.23 89.6622 160.541 100.763C152.509 84.8582 143.178 69.5464 132.518 54.7066C141.676 57.2519 147.061 60.1524 152.148 64.5148C151.05 65.8499 150.317 66.8693 149.588 67.9264L158.977 81.9992C161.213 75.2986 163.715 68.8983 166.516 62.3826C152.33 48.6821 129.513 32.5939 105.632 30.8255C128.897 56.3822 144.24 89.1216 154.567 121.517C154.137 121.655 153.716 121.801 153.286 121.943L154.424 136.869C196.202 132.421 237.971 132.22 279.749 136.869L280.745 121.943C280.364 121.821 279.987 121.779 279.607 121.659C289.933 89.2218 305.245 56.416 328.541 30.8255C304.66 32.5939 281.701 48.6821 267.515 62.3826C270.316 68.8983 272.96 75.2986 275.197 81.9992L284.443 67.9264C283.714 66.8693 282.981 65.8499 281.883 64.5148C286.97 60.1524 292.355 57.2519 301.513 54.7066C290.853 69.5464 281.522 84.8582 273.49 100.763C270.801 89.6622 266.976 78.6006 262.394 67.5C254.232 75.9821 247.256 84.8659 241.483 94.3661C237.924 84.5625 232.819 74.455 226.404 64.5148C228.77 61.4322 231.322 58.4611 233.944 55.7016C237.951 62.1543 241.548 68.6767 244.043 75.3182C248.119 69.7941 252.774 64.3059 258.553 58.971C253.183 47.9864 247.659 38.0522 239.918 27.1296C231.342 34.6778 223.65 42.8646 217.015 51.295C210.381 42.8646 202.831 34.6778 194.255 27.1296ZM217.015 78.8719C223.015 89.5254 227.51 100.93 229.676 111.993C221.278 111.439 212.837 111.474 204.497 111.993C206.66 100.941 211.025 89.5164 217.015 78.8719Z" fill="#D1A345" stroke="#B17842" stroke-width="1.38056" stroke-linejoin="round"/>
<path d="M254.057 129.682L265.927 125.762L254.359 119.932L242.188 123.651L254.057 129.682ZM204.266 123.048L217.041 117.621L229.816 123.048L217.041 128.074L204.266 123.048ZM180.025 129.682L168.155 125.762L179.723 119.932L191.894 123.651L180.025 129.682Z" fill="#B17842"/>
<path d="M279.707 136.825C283.672 138.855 280.569 143.411 279.707 142.956C271.793 138.775 244.929 136.107 217.041 136.322C189.152 136.107 162.289 138.775 154.375 142.956C153.512 143.411 150.41 138.855 154.375 136.825C162.342 132.745 189.152 129.975 217.041 130.191C244.929 129.975 271.739 132.745 279.707 136.825ZM281.115 116.515C283.572 117.634 283.531 123.149 280.813 121.948C273.07 118.527 244.929 115.702 217.041 115.918C189.152 115.702 161.012 118.527 153.268 121.948C150.551 123.149 150.51 117.634 152.966 116.515C160.671 113.007 189.152 110.269 217.041 110.484C244.929 110.269 273.411 113.007 281.115 116.515Z" fill="#D1A345" stroke="#B17842" stroke-width="2.76113" stroke-linejoin="round"/>
<path d="M0 142.348V146.488V593.456C0 624.204 23.7422 647.968 51.9626 647.968H162.275C180.085 647.968 191.339 653.911 199.046 661.769C206.753 669.627 210.89 679.665 213.029 687.645L213.72 690.06H220.28L220.971 687.645C223.11 679.665 227.247 669.627 234.954 661.769C242.661 653.911 253.915 647.968 271.725 647.968H382.037C410.258 647.968 434 624.204 434 593.456V146.488V142.348H429.857H217H4.1432H0ZM8.2864 150.629H217H425.714V593.456C425.714 619.98 405.607 639.688 382.037 639.688H271.725C252.005 639.688 238.212 646.769 229.084 656.076C223.279 661.995 219.706 668.48 217 674.88C214.295 668.492 210.88 661.982 205.088 656.076C195.96 646.769 181.995 639.688 162.275 639.688H51.9626C28.3931 639.688 8.2864 619.98 8.2864 593.456V150.629Z" fill="black"/>
<path fill-rule="evenodd" clip-rule="evenodd" d="M209.859 251.322C211.42 247.578 214.49 245.033 219.281 245.671C222.057 246.041 223.124 246.323 225.095 248.293C226.257 249.454 226.604 252.935 227.293 253.394C225.654 256.767 218.746 256.639 215.949 255.024C213.576 253.655 210.883 254.336 209.859 251.322Z" fill="#1F1A17" stroke="#1F1A17" stroke-width="0.412874"/>
<path fill-rule="evenodd" clip-rule="evenodd" d="M187.236 396.772C183.313 396.772 180.148 395.569 177.163 393.4C173.543 390.769 169.319 387.076 168.781 393.542C168.567 396.102 163.24 386.274 163.24 390.561C163.24 391.535 162.471 394.897 162.955 395.672C165.175 399.219 152.144 391.773 150.88 390.845C147.622 388.453 146.23 385.003 143.35 382.043C142.34 379.012 137.288 371.222 135.251 367.987C131.122 361.427 126.78 361.537 125.875 359.185C123.256 352.382 113.686 332.208 104.137 338.174C100.406 340.505 102.006 321.179 102.006 317.162C102.006 303.299 102.373 290.066 116.782 305.663C132.284 322.443 140.743 331.495 162.103 340.445C171.502 344.383 177.08 327.027 185.091 327.185C200.093 345.337 205.618 380.265 187.236 396.772Z" fill="#1F1A17" stroke="#1F1A17" stroke-width="0.412874"/>
<path fill-rule="evenodd" clip-rule="evenodd" d="M214.669 515.513C213.121 514.614 210.748 509.314 207.404 509.525L207.432 530.423C207.443 536.104 204.388 541.739 205.496 543.66C202.404 542.388 201.078 537.069 200.221 537.181C199.708 537.806 201.292 541.447 201.798 546.999C202.819 558.206 206.098 566.479 203.169 570.032C201.98 571.474 195.581 573.311 191.91 576.376C186.542 580.857 181.7 586.689 180.596 587.184C174.214 590.043 169.022 590.023 154.613 590.023C146.949 590.023 136.324 593.859 133.603 596.472C133.564 594.294 133.836 593.26 134.461 591.011C135.4 587.633 137.508 587.047 137.354 587.071C137.199 587.093 132.986 587.737 129.127 591.149C125.267 594.561 126.462 594.223 126.289 594.022C122.926 589.161 132.724 582.11 131.898 581.752C129.433 580.683 121.785 587.245 119.79 587.739C118.755 583.506 130.035 575.313 130.004 575.572C129.859 576.739 121.327 579.418 120.107 579.898C119.88 578.984 119.823 576.182 124.047 573.909C131.111 570.106 135.992 569.401 145.165 568.864C151.098 568.517 155.83 569.099 159.137 567.817C162.243 566.613 164.828 564.782 166.686 562.437C169.575 558.79 171.981 552.351 169.464 543.868C168.212 539.649 166.121 537.598 165.502 536.116C163.682 537.702 161.55 537.306 161.037 540.145C158.422 536.791 158.138 529.607 156.385 528.381C155.022 527.428 151.321 532.102 150.672 535.214C150.072 528.77 151.179 515.646 149.712 515.354C148.682 518.247 146.577 518.547 144.161 519.718C145.147 518.628 146.068 516.566 146.796 514.124C148.355 508.899 147.523 501.606 147.586 499.726C147.935 489.425 150.748 479.976 154.316 473.467C159.472 464.06 172.331 460.05 180.283 453.312C188.519 446.333 196.874 432.848 199.192 424.693C201.124 412.138 191.336 406.829 189.773 408.033C189.065 407.568 188.517 406.755 188.045 406.16C183.257 400.127 186.503 390.919 183.681 383.587C181.889 378.932 180.722 375.021 179.088 377.659C177.987 374.958 178.144 376.316 177.389 371.235C176.634 366.153 181.126 347.455 180.296 347.705C176.093 348.971 175.818 350.328 173.699 350.848C175.167 347.947 176.786 345.91 178.271 342.661C180.248 338.339 183.499 330.599 185.061 327.508C186.623 324.417 190.994 318.434 191.576 317.223C188.38 318.354 184.863 321.885 184.194 321.895C183.837 319.981 188.507 314.033 188.739 308.058C188.878 304.5 185.863 301.498 183.558 299.192C181.254 296.888 178.005 295.722 174.555 295.722C172.385 295.722 170.975 297.555 170.035 297.661C169.253 297.749 168.811 296.09 168.811 292.321C168.811 291.346 168.844 290.14 169.666 290.001C171.434 288.488 176.034 288.562 179.95 289.677C182.75 290.474 185.405 292.626 186.724 292.94C195.598 295.06 197.052 287.005 191.076 283.252C187.875 281.242 182.339 281.599 177.227 281.824C174.213 281.957 171.578 282.962 169.378 282.482C168.371 282.263 167.303 280.598 166.789 279.728C166.137 278.621 165.125 276.089 163.46 274.066C161.889 272.157 159.72 270.675 159.595 269.132C159.534 268.379 160.609 267.203 161.224 266.743C165.708 263.382 174.906 261.287 181.902 260.135C186.185 259.429 188.474 260.047 191.785 258.098C194.844 256.297 200.871 251.402 204.264 251.225C208.716 250.994 213.846 251.802 218.517 252.445C220.139 252.668 221.459 253.489 223.017 253.489C228.718 251.888 238.237 245.726 241.49 254.272C242.077 255.814 242.695 257.97 242.902 259.97C243.01 261.018 242.589 262.153 242.874 262.878C243.216 263.754 245.878 263.982 247.75 265.768C253.187 270.956 261.013 280.519 263.685 283.252C265.314 284.918 266.297 286.148 265.989 286.524C265.687 286.893 263.111 285.866 262.22 286.283C261.972 286.891 262.432 288.389 263.402 290.69C264.972 294.409 273.558 297.575 277.37 299.903C278.323 300.484 279.486 302.157 279.365 302.676C278.36 302.648 274.088 302.931 275.456 306.776C275.743 307.583 278.042 308.356 281.09 309.391C287.145 311.447 294.956 317.785 296.532 319.956C298.108 322.126 299.065 323.316 300.202 324.844C301.383 326.431 302.922 327.556 300.344 327.82C299.641 327.891 300.615 331.784 302.265 331.784C284.634 356.103 270.636 382.071 287.514 410.182C292.188 417.966 316.984 431.838 326.792 428.151C328.636 430.345 336.919 439.098 335.46 443.64C333.177 442.752 334.009 442.014 334.237 444.589L334.946 452.596C335.362 457.29 331.721 452.17 329.132 452.17C325.506 452.17 329.58 453.287 331.619 456.211C333.866 459.434 336.492 472.225 337.801 481.532C338.412 485.876 344.618 489.671 346.382 491.761C341.731 490.288 345.24 498.961 349.852 506.617C353.228 512.221 357.53 517.886 360.079 523.234C361.865 526.982 367.731 537.824 364.915 541.734C363.507 543.689 360.242 545.45 357.323 549.138C351.629 555.757 346.77 567.497 346.051 575.889C345.068 587.678 332.5 588.62 324.009 590.795C319.801 595.798 318.944 595.087 318.22 595.236C316.807 593.589 317.372 591.915 317.652 587.853C317.685 587.371 316.211 588.954 314.1 590.053C311.067 591.633 306.971 593.083 306.276 593.318C305.963 591.967 307.992 587.767 307.709 588.27C307.287 589.022 305.133 589.211 303.003 590.225C301.037 591.16 299.29 592.476 298.472 592.822C298.401 591.189 297.471 592.579 298.522 588.701C299.075 586.656 299.49 585.954 299.338 585.952C299.188 585.952 295.587 586.286 294.133 587.635C291.819 589.782 290.03 590.531 289.388 590.692C289.219 589.206 290.506 585.461 292.469 582.987C294.705 579.893 296.896 577.312 300.474 576.49C304.283 575.615 308.581 575.982 311.706 572.974C315.981 568.861 322.096 561.233 323.84 554.583C326.603 544.047 324.976 529.6 312.372 526.442C310.418 525.953 311.096 529.105 313.287 531C311.561 533.142 305.109 525.09 304.457 525.935C304.24 527.923 304.335 530.521 305.717 531.968C304.529 532.178 303.153 529.94 300.665 528.054C295.408 524.069 294.281 523.99 288.349 523.99C295.422 514.382 302.421 502.905 294.901 488.834C272.74 447.368 235.102 482.408 220.239 502.779C216.078 508.483 214.617 514.409 214.667 515.513L214.669 515.513Z" fill="#1F1A17" stroke="#1F1A17" stroke-width="0.412874"/>
<path d="M224.563 257.331C228.161 258.475 231.013 252.305 235.798 255.038C238.734 256.715 238.737 260.114 238.737 263.206" stroke="#1F1A17" stroke-width="0.412874"/>
<path fill-rule="evenodd" clip-rule="evenodd" d="M328.338 432.024C331.144 433.902 329.297 432.771 331.462 435.569C331.347 435.712 330.915 435.282 330.147 435.251C333.738 439.243 333.286 436.73 334.843 441.956C333.456 441.079 332.357 439.344 330.667 438.966C332.141 440.873 333.528 444.042 333.718 446.419C333.13 445.75 331.417 443.966 331.169 443.581C331.147 446.054 334.334 448.923 333.535 452.37C331.446 450.916 330.717 449.841 327.986 449.046C328.304 449.905 328.099 450.076 328.485 451.003C327.071 450.409 322.638 451.125 321.271 450.413L323.54 431.404C325.195 431.9 326.684 430.917 328.338 432.024Z" fill="#A92211" stroke="#1F1A17" stroke-width="0.412874"/>
<path d="M212.361 260.59C209.618 261.373 213.432 264.121 209.623 264.735C206.982 265.16 204.808 266.425 201.892 266.425" stroke="#1F1A17" stroke-width="0.412874"/>
<path fill-rule="evenodd" clip-rule="evenodd" d="M188.085 302.097L189.403 301.316C189.478 301.605 189.537 301.908 189.575 302.227L190.828 301.553L190.279 303.164L192.008 301.807C192.065 302.311 192.063 302.945 192.019 303.66L191.464 305.475L191.881 305.346C191.588 308.29 191.054 311.83 191.473 313.59L200.632 310.447L200.984 311.582L200.182 313.477L201.315 312.647L201.653 313.736L200.479 315.907L201.931 314.629L202.359 316.008C202.359 316.008 204.487 315.077 205.476 314.686L203.622 317.567L202.911 318.456L202.14 319.819L200.953 319.345L197.928 320.886L198.403 314.781L194.784 317.626L192.946 321.005L194.784 320.471L186.436 330.429C183.475 335.096 180.039 340.043 177.677 345.051L184.872 340.825L185.067 344.052L190.988 334.518L190.663 344.501L193.657 338.964L194.939 336.545C196.245 339.559 195.677 340.409 197.051 345.244L199.055 339.557L199.53 344.002L200.894 340.624L201.914 343.775L202.697 340.852L203.881 343.422L205.639 340.268L206.702 341.998L246.21 335.941L246.448 332.8L246.151 330.963L250.777 323.494V324.561L252.557 322.309L246.329 313.655L245.261 318.397L236.779 311.58L236.72 315.136L235.474 319.523L233.458 317.448L231.441 313.714L230.788 316.026L228.653 318.574L226.34 317.211L225.984 315.611L228.653 317.33L230.017 315.67L230.373 312.588L231.381 312.469L235.119 317.685L235.712 314.366L235.474 309.802L243.6 315.492L243.779 309.447L245.914 310.691L246.27 309.565L252.515 316.402L252.954 311.048L256.87 312.053L253.991 306.958L261.561 310.42L258.736 306.188L268.815 309.43L263.007 302.395L271.213 305.928L265.972 298.957L273.293 302.535L266.328 296.349L267.693 296.467L256.947 290.242L262.592 291.456L260.037 286.347L263.121 284.835L257.845 280.063L256.437 283.892L250.481 284.849L251.193 286.805L248.346 286.39L248.702 289.946L246.448 288.702L249.63 292.548L248.918 292.488L248.977 294.385L245.38 292.495L245.44 296.822L241.11 294.569L241.525 300.082L235.831 296.703L234.763 304.823L229.959 299.252L232.925 300.615L234.645 294.866L239.33 297.059L239.983 292.198L244.195 294.866L243.067 289.294L245.974 290.835L244.135 287.634L247.397 288.168L246.092 284.197L249.177 285.086C249.177 285.086 247.753 282.952 248.109 283.011C248.465 283.071 252.519 282.943 252.519 282.943L249.741 280.092L255.393 280.975L252.01 278.709C252.277 278.653 252.547 278.594 252.821 278.533L256.304 278.186C255.612 276.735 252.106 277.012 253.143 274.594C253.488 273.627 250.056 271.764 249.192 271.28V270.313H250.92C250.92 269.588 249.538 268.137 248.501 268.137L243.906 266.337C242.401 266.336 242.04 264.549 242.189 263.09L241.974 259.221C241.455 254.627 240.72 253.389 238.301 251.939C233.29 248.795 223.546 254.332 223.201 254.09C222.298 254.09 213.524 252.145 210.37 251.821C207.636 251.821 205.413 251.378 203.657 251.879C196.605 253.89 195.677 258.586 189.342 259.842C181.195 261.457 178.246 261.805 172.466 263.071C167.974 264.763 166.926 266.614 166.062 270.724C164.852 276.285 168.679 279.88 171.128 281.06C172.51 281.301 186.794 279.394 188.66 279.692C195.273 279.939 203.683 291.235 198.04 294.974C194.411 297.15 178.514 290.622 173.33 290.622C167.628 290.622 169.183 294.732 170.566 294.49C174.712 293.765 172.812 293.523 176.786 294.49C180.924 295.488 186.474 296.157 188.673 299.626L188.083 302.097L188.085 302.097Z" fill="#A92211"/>
<path fill-rule="evenodd" clip-rule="evenodd" d="M317.448 461.075C317.241 461.236 314.931 460.624 314.002 460.641C315.374 463.033 311.374 459.493 311.013 459.408C308.562 458.826 319.416 467.943 317.717 467.237C318.268 468.389 320.484 449.079 325.135 451.962C326.918 453.067 333.832 461.801 334.297 468.584C334.376 469.751 330.743 466.655 331.079 467.733C331.742 469.865 334.921 473.649 335.48 475.501C335.808 476.584 330.598 474.46 330.912 475.482C334.904 475.921 334.941 479.64 336.649 482.472L334.157 482.087L340.693 489.403L333.275 484.444L341.036 491.865L335.265 489.575L342.689 495.142L333.945 492.187L345.082 500.104L335.865 499.474L347.031 504.624C344.725 504.833 341.035 504.782 338.943 504.647C339.877 506.259 344.817 504.314 349.092 508.322C350.517 509.658 352.25 512.631 353.92 515.319L359.597 525.298L362.941 531.685C363.389 532.54 364.324 539.886 363.375 540.62C358.598 544.311 349.549 556.269 347.868 562.676L346.548 567.924C345.631 570.758 343.223 580.904 340.9 582.591C338.404 584.403 338.886 584.511 336.134 585.556L335.561 587.012L335.177 585.678L333.041 586.618L332.188 585.208L330.169 587.984L329.635 585.356L327.845 587.464L327.434 585.561L326.071 585.057L321.592 586.649L324.546 582.344C316.049 588.568 317.852 586.516 316.044 583.918C315.913 583.731 313.719 584.027 313.616 583.795C313.441 583.401 320.136 579.357 319.881 578.973C319.74 578.759 313.185 582.271 312.922 582.233L311.039 583.186L308.604 582.172L308.236 581.476L312.089 579.648L316.923 576.716C318.691 574.662 321.084 573.328 324.124 569.964C321.319 569.098 315.757 575.278 313.867 576.746L308.428 579.325L306.596 579.87L305.908 580.149L304.662 579.663L303.741 577.109L307.848 576.368L309.832 575.54L313.144 573.611L311.759 573.244L319.922 568.383L316.712 568.019L322.131 565.92L319.501 564.651L326.091 555.903L324.03 555.99L327.155 553.817L324.881 553.728L328.728 550.826L326.688 550.777L330.188 548.525L327.68 548.397L331.504 545.633L328.492 544.866L325.82 542.425L326.565 532.951L324.716 533.215L325.446 530.228L323.583 532.041L323.432 527.075L321.837 530.203L320.678 527.003L322.012 523.268L319.681 526.679L320.211 520.291L318.546 524.955L317.543 517.455L317.14 524.869L314.434 515.112L315.151 523.222L310.946 517.07L312.14 524.283L307.696 518.838L308.624 525.926L302.288 517.953C302.427 520.617 302.134 523.046 302.739 526.166L292.412 520.995L294.143 511.793L302.981 507.142L311.708 493.505C316.188 483.098 312.597 460.843 320.454 453.163C322.254 452.715 323.35 452.486 324.54 453.262C325.322 453.773 317.564 460.984 317.448 461.075Z" fill="#A92211" stroke="#1F1A17" stroke-width="0.412874"/>
<path fill-rule="evenodd" clip-rule="evenodd" d="M148.452 382.158L149.379 377.073C150.015 378.907 151.067 383.838 151.586 385.288L151.564 377.904L154.065 387.594L154.674 381.772L156.696 389.261L156.574 383.464L162.324 395.878C162.324 395.636 162.104 387.091 162.968 383.707L164.621 388.582L165.905 384.19L166.424 383.707L167.633 384.19L168.325 385.641L169.361 385.157L170.744 385.882L171.953 384.432L173.508 387.091L174.545 385.641L175.582 386.85L176.792 386.366L178.174 388.784L179.902 388.059L183.156 393.967L183.139 393.042C175.879 375.33 175.855 350.942 183.396 331.953C179.839 333.548 170.082 341.93 166.456 342.821C164.449 342.865 164.824 342.531 160.571 341.368C150.754 338.683 143.553 334.539 136.156 327.538C130.311 321.992 113.179 300.974 108.362 302.23V305.131C108.362 307.306 106.807 307.306 108.189 309.724C109.053 311.175 109.917 312.142 110.781 313.593C113.2 317.703 110.781 318.186 110.609 323.263C106.803 325.77 105.761 334.304 109.686 337.394C111.016 338.441 113.268 337.343 115.459 339.426C117.65 341.509 121.725 347.428 122.243 348.395C123.427 350.052 124.733 357.575 127.599 360.024C129.167 361.364 131.62 357.989 132.919 360.034C137.945 367.653 142.882 374.906 148.451 382.158L148.452 382.158Z" fill="#A92211"/>
<path fill-rule="evenodd" clip-rule="evenodd" d="M256.325 338.155L250.781 330.528L252.998 326.838L256.325 324.747L258.679 323.147L258.959 320.81L255.357 321.671L261.176 313.921L255.077 316.75L257.991 313.429L262.699 311.953L264.778 310.846L271.57 310.723L270.877 308.017L286.815 313.676L280.579 312.322L292.497 318.719L286.398 317.366L290.831 320.564L282.658 318.965L291.661 322.655L285.012 321.302L295.824 326.346L289.17 324.624L296.099 328.314L290.831 327.699L296.654 330.528L291.941 329.913L295.824 332.373L276.421 338.893L256.325 338.155Z" fill="#A92211" stroke="#1F1A17" stroke-width="0.412874"/>
<path fill-rule="evenodd" clip-rule="evenodd" d="M210.139 476.786L210.485 478.478C207.893 479.204 207.72 473.885 204.955 483.556L203.4 484.039L203.055 486.94L201.499 486.699L195.452 492.743L195.625 495.161L191.132 499.029L191.305 500.238L191.823 499.029C193.378 499.029 194.588 503.623 194.588 504.589C194.588 506.524 193.205 506.04 194.242 508.216L194.588 507.491C198.389 507.974 194.069 505.798 198.389 507.007C200.808 503.381 199.426 497.336 202.536 493.71C203.919 492.501 206.51 484.281 208.066 483.556C209.448 483.556 212.904 485.731 213.768 487.182C213.595 482.347 217.224 493.71 216.014 487.424C214.805 481.379 215.15 483.556 217.224 487.666C219.47 491.776 216.36 481.621 216.532 481.379C216.878 479.929 220.161 490.083 220.68 485.973C220.852 484.522 217.051 477.269 218.433 477.995C218.952 478.478 222.926 487.424 221.371 481.621C221.371 481.379 217.915 470.983 220.507 476.786C223.271 482.588 221.025 473.885 220.161 472.192L220.334 473.401L217.051 473.16L216.014 471.708L215.15 474.126L213.941 473.643L214.113 475.335L213.768 475.094L210.139 476.786Z" fill="#1F1A17"/>
<path fill-rule="evenodd" clip-rule="evenodd" d="M191.306 500.237L192.515 511.117L191.824 511.359L188.023 507.974L186.64 508.216C186.467 509.667 188.886 515.953 188.886 518.612V520.546C188.886 521.514 188.886 521.272 188.368 521.997L185.949 519.821L185.603 520.062L185.258 522.964L184.221 523.448L186.294 525.14V528.041H186.64L187.331 527.316L187.677 525.865L191.133 524.656L191.306 523.205L191.478 522.964L190.96 520.062V517.645C190.96 516.194 190.96 516.92 191.651 515.952L193.033 519.095C195.107 518.37 194.243 510.391 194.243 508.216C193.206 506.04 194.589 506.523 194.589 504.589C194.589 503.622 193.379 499.028 191.824 499.028L191.306 500.237Z" fill="#1F1A17"/>
<path fill-rule="evenodd" clip-rule="evenodd" d="M298.688 592.229L308.145 584.959C309.182 576.462 297.968 587.947 298.688 592.229Z" fill="#D1A345"/>
<path d="M178.782 357.996L175.629 374.582L180.604 369.088" stroke="#1F1A17" stroke-width="3.66999"/>
<path fill-rule="evenodd" clip-rule="evenodd" d="M307.49 592.578L316.011 587.357C317.973 579.68 305.072 588.205 307.49 592.578Z" fill="#D1A345"/>
<path fill-rule="evenodd" clip-rule="evenodd" d="M290.987 589.234L301.708 580.998L300.237 578.645H298.975C296.032 578.057 290.776 587.47 290.987 589.234Z" fill="#D1A345"/>
<path fill-rule="evenodd" clip-rule="evenodd" d="M224.999 257.983C225.172 261.61 229.319 262.819 231.911 260.643L230.874 258.225L231.393 257.741L234.33 258.95L235.713 257.741C239.687 258.225 237.959 261.852 238.996 263.302C240.724 260.643 238.304 256.049 234.849 254.84C232.084 253.873 226.382 256.291 224.999 257.983Z" fill="#1F1A17"/>
<path fill-rule="evenodd" clip-rule="evenodd" d="M211.695 250.246L222.754 251.213H223.445L224.655 250.972C224.309 249.038 220.681 246.862 218.434 246.862H216.533C214.806 246.862 211.522 248.312 211.695 250.246Z" fill="#A92211"/>
<path d="M202.448 266.768C204.152 266.768 205.228 266.757 206.717 266.245C207.164 266.09 207.503 265.561 208.005 265.561C208.882 265.561 212.425 264.587 212.515 263.79C212.598 263.059 211.71 262.56 211.71 261.658C211.71 260.622 212.429 260.717 212.893 260.366" stroke="#1F1A17" stroke-width="1.835"/>
<path d="M222.219 265.318C222.795 265.413 223.311 265.52 223.906 265.52H225.053" stroke="#1F1A17" stroke-width="1.835" stroke-linejoin="round"/>
<path d="M220.126 267.572C221.434 267.572 222.435 268.045 223.635 268.297C224.198 268.415 224.542 268.439 224.917 268.216" stroke="#1F1A17" stroke-width="1.835" stroke-linejoin="round"/>
<path d="M218.639 270.108C219.724 270.146 220.604 270.43 221.743 270.43C222.52 270.43 222.668 270.418 223.295 270.269" stroke="#1F1A17" stroke-width="1.835" stroke-linejoin="round"/>
<path d="M216.143 272.521C216.835 272.521 216.867 272.711 217.425 272.884C218.346 273.17 219.756 273.165 220.799 273.165" stroke="#1F1A17" stroke-width="1.835" stroke-linejoin="round"/>
<path d="M214.458 274.614C216.375 275.249 218.09 275.459 220.261 275.459" stroke="#1F1A17" stroke-width="1.835" stroke-linejoin="round"/>
<path d="M210.677 275.74C210.677 276.658 214.419 277.028 215.67 277.028" stroke="#1F1A17" stroke-width="1.835" stroke-linejoin="round"/>
<path d="M206.899 277.712C207.583 277.712 208.199 278.033 208.789 278.235C210.261 278.738 211.637 278.758 213.31 278.758" stroke="#1F1A17" stroke-width="1.835" stroke-linejoin="round"/>
<path d="M146.323 363.621C147.572 368.248 148.779 370.381 148.779 370.381L149.746 366.518L151.799 374.002C151.799 374.002 153.088 367.926 153.088 368.168C153.088 368.409 155.021 374.807 155.021 375.048C155.021 375.29 156.47 370.863 156.43 371.226C156.391 371.588 158.645 377.543 158.645 377.543C158.645 377.543 159.53 372.835 159.611 373.117C159.691 373.399 161.705 377.14 161.705 377.14C161.705 377.14 162.188 373.439 162.228 373.68C162.267 373.921 163.476 377.02 163.476 377.02C163.476 377.02 163.597 373.237 163.96 373.72C164.322 374.203 166.094 377.382 166.094 377.382L166.416 373.72L167.987 376.175C167.987 376.175 168.389 372.272 168.631 372.513C168.872 372.755 170.161 375.45 170.161 375.45" stroke="#1F1A17" stroke-width="0.917499" stroke-linejoin="round"/>
<path fill-rule="evenodd" clip-rule="evenodd" d="M132.266 580.641L135.377 579.432L135.722 579.189C135.549 577.981 134.858 576.772 134.858 576.772L133.303 576.289C129.502 576.289 123.972 580.398 123.627 583.784C128.465 583.784 127.774 581.124 132.266 580.641Z" fill="#D1A345"/>
<path fill-rule="evenodd" clip-rule="evenodd" d="M137.094 585.066V584.341L137.267 583.858L133.12 582.407C130.355 584.099 126.899 587.242 127.763 590.869C129.146 591.111 130.873 589.66 131.737 588.693C133.811 586.759 134.157 587.484 136.921 586.276L137.094 585.066Z" fill="#D1A345"/>
<path fill-rule="evenodd" clip-rule="evenodd" d="M140.481 585.864C137.716 587.557 135.124 590.216 135.988 593.843C137.371 594.084 138.753 591.908 139.617 590.941C143.591 589.007 149.121 590.7 140.481 585.864Z" fill="#D1A345"/>
<path fill-rule="evenodd" clip-rule="evenodd" d="M122.028 578.711C123.305 578.112 127.552 575.627 131.113 574.775C131.187 574.053 131.604 573.366 131.653 572.885L131.26 571.63C128.412 572.312 121.61 574.294 122.028 578.711Z" fill="#D1A345"/>
<path d="M169.016 275.104C168.479 275.827 168.47 276.48 168.72 277.533C168.724 277.549 168.707 277.749 168.72 277.771C168.747 277.814 168.809 277.832 168.839 277.949" stroke="#1F1A17" stroke-width="0.917499"/>
<path d="M170.912 275.934C170.412 276.681 170.616 278.423 171.149 279.134" stroke="#1F1A17" stroke-width="0.917499"/>
<path d="M172.394 276.23C172.117 276.875 172.193 279.266 173.521 279.266" stroke="#1F1A17" stroke-width="0.917499"/>
<path d="M174.353 276.053C173.231 277.137 174.694 278.842 175.51 278.961" stroke="#1F1A17" stroke-width="0.917499"/>
<path d="M176.01 275.82C174.771 277.125 176.682 278.995 177.822 278.441" stroke="#1F1A17" stroke-width="0.917499"/>
<path d="M177.91 275.993C177.972 276.944 178.454 278.324 179.72 277.98" stroke="#1F1A17" stroke-width="0.917499"/>
<path d="M179.911 275.992C179.99 276.492 180.431 277.628 181.566 277.394" stroke="#1F1A17" stroke-width="0.917499"/>
<path fill-rule="evenodd" clip-rule="evenodd" d="M179.613 454.714L169.948 460.759C165.809 463.346 161.102 469.302 157.003 475.3C152.337 482.13 151.484 489.56 150.124 497.429L150.297 502.816L152.449 497.872L148.853 508.727L155.576 498.175L150.127 512.059L157.073 501.283L152.195 517.046L160.205 503.247L150.807 525.459L160.012 507.361L152.035 528.971L160.162 509.694L155.829 525.865L161.511 514.098L158.05 527.513L162.329 518.575L159.356 531.234L163.59 521.749L161.027 535.847L165.41 525.957L162.759 536.701L166.986 529.925L166.575 536.927L169.157 534.562C168.989 536.043 169.179 538.463 169.083 539.997C169.832 539.474 171.065 537.671 171.938 536.874L170.568 543.702L173.339 539.762L171.907 546.42C172.987 545.619 173.477 545.73 174.396 545.006L172.578 548.918L174.056 548.703L171.585 552.08L173.58 551.175L171.277 554.118L173.816 553.633L170.433 556.106L173.335 555.859L169.475 558.219L173.316 557.583L168.744 559.959L171.709 559.895L167.944 561.838L170.32 563.075C168.748 563.822 167.935 563.139 166.459 563.776L168.973 565.123L164.695 565.519L170.809 567.997L162.789 566.777C158.044 568.804 159.25 568.83 149.434 569.405C142.42 569.816 142.061 570.11 135.158 572.569C135.557 573.503 135.231 574.287 135.527 574.787C136.415 576.286 137.543 576.078 137.734 576.476C138.367 577.802 139.542 577.526 140.021 579.169C140.409 580.498 139.94 583.169 140.861 584.096C141.656 584.896 142.686 585.27 143.2 585.894C144.035 586.909 145.197 587.211 145.824 587.631C147.556 588.792 148.254 588.508 150.069 588.688L151.169 587.523L151.621 586.59L152.379 586.02L152.346 587.19L151.622 588.715L152.169 589.258C153.478 587.454 153.604 587.457 154.696 586.216L155.013 587.072L154.618 587.942L153.927 589.218L154.521 589.268L155.687 587.981L156.198 586.984L156.719 586.42L157.378 586.713L156.805 587.587L155.677 589.254L156.688 589.357L158.348 587.616L159.099 586.738L157.894 589.111L158.848 589.275L161.118 586.818C161.054 591.056 167.314 588.441 170.888 588.607C175.95 588.635 178.419 586.549 182.054 583.33C184.927 580.784 186.756 577.488 188.952 575.821C195.545 570.815 201.612 570.217 202.014 566.61C202.987 557.875 199.454 548.468 199.205 541.138C199.119 538.612 199.42 538.418 200.01 535.371C200.18 534.493 202.856 537.597 203.991 540.406C204.273 537.958 202.987 531.442 202.81 530.425C203.494 531.13 204.825 532.568 205.194 533.062C205.483 529.579 203.622 526.358 202.788 523.03C203.46 524.356 203.573 523.751 205.122 526.306C204.76 523.322 201.974 517.54 201.973 515.888C203.146 516.866 205.048 520.205 205.433 520.761C205.59 520.374 205.019 516.969 203.613 510.956L205.572 515.099L204.34 507.576L205.631 509.006L205.892 504.953L208.017 506.956L208.516 503.433L211.106 509.098L210.468 502.791L213.457 511.284L212.835 502.687L214.862 504.831L213.13 496.804C215.467 501.7 215.227 501.417 216.116 502.416C215.869 500.448 214.561 497.464 214.348 494.467L216.476 497.666L215.35 490.381L217.332 493.838L216.979 489.782L219.188 493.985L220.034 491.072L220.993 499.741L224.809 488.67L218.553 453.539L219.547 451.342L211.195 433.903L209.078 435.13L207.406 435.83C214.458 446.343 221.139 425.984 208.242 435.48L200.126 424.096L199.434 435.535L198.646 428.965L197.931 435.97L196.56 442.262L195.666 442.097L196.334 436.303C195.036 439.98 195.174 443.172 193.95 446.978L193.78 439.205L192.196 447.416L191.671 448.946L191.46 442.591L190.144 448.445L188.956 450.902L189.142 444.445L186.294 453.23L187.294 446.942L184.243 457.183L184.817 450.643L181.715 459.16L181.774 453.249L178.038 460.133L179.611 454.714L179.613 454.714Z" fill="#A92211" stroke="#1F1A17" stroke-width="0.412874"/>
<path fill-rule="evenodd" clip-rule="evenodd" d="M180.902 370.386L184.32 376.729L185.465 369.022L186.919 373.593L189.176 366.043L190.573 369.837L193.141 364.699L194.635 369.639L199.048 358.99L195.116 364.586L194.169 358.511L190.921 364.706L189.256 362.173L187.497 368.368C187.584 361.259 187.111 358.565 186.632 356.676C185.46 359.753 185.214 363.035 182.866 369.502L182.009 362.984L176.864 372.624L180.907 348.412L183.472 343.072L185.076 347.934L188.898 339.865L188.464 350.791L193.456 342.834L196.902 349.722L201.062 342.359L201.51 347.032L202.899 342.937L203.838 344.563L205.882 341.602L206.708 341.998L208.074 340.103L211.923 433.744L207.882 429.824C208.374 420.324 205.572 426.391 205.739 415.407L204.922 426.032L203.157 418.133L201.159 422.088L201.725 411.821L199.494 415.188L200.417 409.445L197.734 411.936L198.179 403.885L195.204 408.688L194.543 400.141L192.384 405.233L192.131 397.532L189.273 404.719L188.643 393.402L186.527 396.76L185.968 384.163L182.724 385.707L180.902 370.386Z" fill="#A92211" stroke="#1F1A17" stroke-width="0.412874"/>
<path d="M354.886 528.862C356.139 530.644 358.129 531.059 358.712 533.446C358.911 534.256 359.045 535.119 359.239 535.937C359.376 536.512 359.322 537.392 359.516 538.013" stroke="#1F1A17" stroke-width="1.37625" stroke-linejoin="round"/>
<path d="M353.651 532.348C354.645 533.566 356.676 535.242 357.015 536.688C357.166 537.328 357.102 537.836 357.631 538.311C358.039 538.678 357.88 539.536 357.946 540.002" stroke="#1F1A17" stroke-width="1.37625" stroke-linejoin="round"/>
<path d="M353.271 535.136C354.924 537.409 355.996 539.605 356.253 542.266" stroke="#1F1A17" stroke-width="1.37625" stroke-linejoin="round"/>
<path d="M353.156 538.149C353.093 539.747 354.607 541.377 355.118 542.835C355.313 543.389 355.765 544.159 355.695 544.844" stroke="#1F1A17" stroke-width="1.37625" stroke-linejoin="round"/>
<path d="M351.628 540.721C351.886 541.688 352.128 542.543 352.628 543.358C352.825 543.681 353.078 543.933 353.215 544.296C353.515 545.086 353.468 545.847 353.656 546.681" stroke="#1F1A17" stroke-width="1.37625" stroke-linejoin="round"/>
<path d="M349.939 543.867C350.332 544.608 350.567 545.715 350.959 546.311C351.565 547.232 352.621 548.902 352.644 549.896" stroke="#1F1A17" stroke-width="1.37625" stroke-linejoin="round"/>
<path d="M351.087 550.154L349.643 550.339L349.632 550.258L349.615 550.179L349.599 550.1L349.579 550.022L349.557 549.943L349.531 549.869L349.503 549.791L349.473 549.711L349.438 549.632L349.404 549.556L349.368 549.477L349.328 549.394L349.287 549.313L349.244 549.232L349.2 549.151L349.15 549.064L349.103 548.977L349.055 548.89L349.003 548.8L348.952 548.71L348.897 548.616L348.846 548.522L348.79 548.422L348.737 548.323L348.683 548.22L348.629 548.118L348.577 548.009L348.525 547.901L348.474 547.786L348.426 547.669L348.378 547.55L348.331 547.429L349.703 546.939L349.736 547.031L349.77 547.12L349.809 547.206L349.847 547.292L349.889 547.381L349.933 547.466L349.976 547.556L350.021 547.642L350.069 547.729L350.115 547.815L350.167 547.904L350.216 547.992L350.267 548.082L350.319 548.172L350.373 548.265L350.425 548.359L350.474 548.451L350.528 548.55L350.579 548.649L350.63 548.749L350.68 548.85L350.731 548.953L350.778 549.064L350.822 549.174L350.866 549.283L350.908 549.397L350.946 549.519L350.981 549.639L351.013 549.763L351.043 549.89L351.065 550.021L351.087 550.154ZM351.092 552.174L349.647 552.026L349.653 551.96L349.658 551.899L349.663 551.839L349.668 551.782L349.672 551.723L349.676 551.669L349.681 551.615L349.685 551.556L349.689 551.505V551.453V551.403V551.352V551.302V551.253L349.694 551.204V551.158V551.106V551.057V551.008V550.962L349.689 550.916V550.867L349.685 550.819L349.681 550.767V550.717L349.675 550.665L349.67 550.614L349.666 550.561L349.66 550.508L349.653 550.453L349.648 550.396L349.639 550.34L351.083 550.155L351.091 550.222L351.102 550.287L351.107 550.352L351.113 550.416L351.121 550.481L351.126 550.544L351.13 550.606L351.136 550.668L351.14 550.727L351.144 550.791L351.149 550.852V550.916V550.979L351.153 551.039V551.099V551.157V551.22V551.281V551.341V551.403L351.149 551.464L351.144 551.527L351.14 551.589L351.136 551.653L351.131 551.711L351.127 551.776L351.121 551.842L351.117 551.906L351.112 551.974L351.106 552.04L351.101 552.108L351.095 552.174L351.092 552.174Z" fill="#1F1A17"/>
<path d="M347.158 549.141C347.567 550.078 348.199 550.783 348.351 551.797C348.427 552.298 348.846 552.687 348.793 553.208" stroke="#1F1A17" stroke-width="1.37625" stroke-linejoin="round"/>
<path d="M346.617 553.475C346.346 554.43 346.552 555.124 346.545 556.1C346.54 556.455 346.712 556.668 346.949 556.922C347.118 557.103 347.118 557.594 347.15 557.82" stroke="#1F1A17" stroke-width="1.37625" stroke-linejoin="round"/>
<path d="M189.209 526.037L188.476 518.161L192.508 521.641L189.758 507.354L196.908 515.413C196.908 515.413 193.242 496.73 194.158 498.561C195.075 500.393 199.474 507.537 199.474 507.537" stroke="#1F1A17" stroke-width="0.458749" stroke-linejoin="round"/>
<path d="M196.542 494.712C198.094 496.686 199.101 497.667 199.658 500.024C200.037 501.625 200.391 503.653 200.391 505.336" stroke="#1F1A17" stroke-width="0.458749" stroke-linejoin="round"/>
<path d="M198.924 491.231C199.65 492.9 200.941 494.31 201.307 495.994C201.63 497.481 201.882 499.358 202.406 500.756" stroke="#1F1A17" stroke-width="0.458749" stroke-linejoin="round"/>
<path d="M199.658 488.668C200.261 490.777 202.135 493.158 203.141 495.079C204.16 497.024 203.875 496.332 203.875 494.163C203.875 492.224 203.715 490.188 204.058 488.301C204.058 489.239 204.2 490.195 204.424 491.049C205.109 493.65 204.608 488.641 204.608 487.569C204.608 482.322 206.258 493.588 206.258 488.484C206.258 487.872 206.065 481.554 207.174 485.737C208.2 489.602 208.091 483.442 208.091 482.807C208.091 481.678 207.948 480.407 208.274 479.326C208.686 477.963 210.017 482.164 210.474 481.707C211.306 480.876 211.757 478.61 211.757 477.494" stroke="#1F1A17" stroke-width="0.458749" stroke-linejoin="round"/>
<path d="M196.134 528.321C197.115 529.022 198.102 530.272 198.514 531.431C198.842 532.355 198.971 533.355 198.971 534.357" stroke="#1F1A17" stroke-width="1.835" stroke-linejoin="round"/>
<path d="M193.114 526.675C193.938 528.184 194.837 529.725 195.677 531.156C196.246 532.127 196.921 533.305 197.142 534.357C197.306 535.143 197.188 536.509 197.599 537.193" stroke="#1F1A17" stroke-width="1.835" stroke-linejoin="round"/>
<path d="M192.931 529.417C194.706 532.026 197.415 536.195 197.415 539.387" stroke="#1F1A17" stroke-width="1.835" stroke-linejoin="round"/>
<path d="M193.568 532.71C193.864 533.499 194.192 534.547 194.575 535.271C195.391 536.811 195.582 537.98 195.582 539.752" stroke="#1F1A17" stroke-width="1.835" stroke-linejoin="round"/>
<path d="M193.021 535.457C193.021 537.156 194.323 538.239 194.394 539.938C194.438 540.983 194.486 542.06 194.486 543.14" stroke="#1F1A17" stroke-width="1.835" stroke-linejoin="round"/>
<path d="M191.649 540.121C191.83 541.473 193.413 542.241 193.755 543.505C193.882 543.977 193.849 545.751 193.663 546.248" stroke="#1F1A17" stroke-width="1.835" stroke-linejoin="round"/>
<path d="M190.549 541.583C190.549 542.964 190.729 544.191 190.823 545.516C190.897 546.548 190.905 547.081 190.183 547.803" stroke="#1F1A17" stroke-width="1.835" stroke-linejoin="round"/>
<path d="M188.263 544.326V547.253C188.263 547.911 188.546 548.804 187.622 547.984C187.114 547.533 186.977 546.861 186.616 546.338C185.677 544.979 185.7 548.443 185.7 548.99C185.7 549.235 185.459 549.557 185.425 549.539C184.734 549.159 184.592 547.618 183.961 547.618C183.497 547.618 183.631 548.651 183.503 549.082C182.834 551.334 182.981 548.709 182.954 547.893C182.927 547.036 182.313 546.525 182.313 545.606" stroke="#1F1A17" stroke-width="1.835" stroke-linejoin="round"/>
<path d="M174.743 575.564C175.311 574.997 177.225 574.714 177.225 574.714L178.998 572.518L180.557 573.084L182.968 569.683" stroke="#1F1A17" stroke-width="0.917499"/>
<path d="M185.097 566.636C184.924 567.011 185.055 566.972 184.955 567.273C184.886 567.48 184.798 567.598 184.742 567.84C184.705 568.002 184.543 568.093 184.529 568.336C184.503 568.797 184.175 568.984 184.175 569.47V570.249" stroke="#1F1A17" stroke-width="0.917499"/>
<path d="M187.79 564.582C187.655 565.616 187.677 566.417 187.294 567.274C187.263 567.341 187.321 567.487 187.294 567.557C187.174 567.869 186.767 568.856 186.514 569.046" stroke="#1F1A17" stroke-width="0.917499"/>
<path d="M189.35 562.385C188.968 564.296 189.689 567.143 188.003 568.266" stroke="#1F1A17" stroke-width="0.917499"/>
<path d="M191.76 558.987C191.76 560.799 192.069 563.328 191.264 564.939C191.109 565.249 189.987 567.048 189.987 567.348" stroke="#1F1A17" stroke-width="0.917499"/>
<path d="M193.036 561.605C193.195 562.665 193.548 563.721 193.887 564.722C194.002 565.061 194.188 565.339 194.313 565.643C194.747 566.708 194.575 565.833 194.809 564.864C195.042 563.901 194.951 562.407 194.951 561.392C194.951 557.904 194.844 565.202 196.085 564.651C196.907 564.287 196.652 558.472 196.652 557.141C196.652 554.727 196.713 556.495 197.007 557.637C197.107 558.024 197.7 562.695 198.567 561.463C199.768 559.756 199.347 557.344 199.347 555.44" stroke="#1F1A17" stroke-width="0.917499"/>
<path d="M115.924 335.628C115.683 336.148 115.712 337.334 115.712 337.895C115.712 338.259 115.684 338.637 115.782 338.958C115.922 339.403 116.066 339.964 116.066 340.446" stroke="#1F1A17" stroke-width="0.458749" stroke-linejoin="round"/>
<path d="M117.695 336.597C117.511 337.398 117.625 338.393 117.625 339.219C117.625 340.012 117.456 341.912 117.838 342.549" stroke="#1F1A17" stroke-width="0.458749" stroke-linejoin="round"/>
<path d="M119.15 338.787C118.944 339.887 119.012 341.314 119.221 342.401C119.291 342.764 119.372 345.238 119.576 345.306" stroke="#1F1A17" stroke-width="0.458749" stroke-linejoin="round"/>
<path d="M121.362 341.495C120.785 343.514 121.296 346.409 121.575 348.368" stroke="#1F1A17" stroke-width="0.458749" stroke-linejoin="round"/>
<path d="M122 340.078C122.523 341.384 122.425 344.987 122.425 346.455C122.425 347.726 122.518 349.536 122.78 350.848" stroke="#1F1A17" stroke-width="0.458749" stroke-linejoin="round"/>
<path d="M123.295 346.465L123.327 346.223L123.359 345.998L123.386 345.797L123.414 345.619L123.437 345.466L123.455 345.339L123.469 345.244L123.478 345.182L123.923 345.319L123.914 345.382L123.9 345.477L123.882 345.6L123.859 345.751L123.836 345.929L123.809 346.13L123.776 346.351L123.744 346.592L123.708 346.849L123.671 347.122L123.634 347.406L123.597 347.701L123.561 348.002L123.519 348.311L123.483 348.621L123.446 348.932L123.414 349.245L123.382 349.552L123.35 349.856L123.322 350.149L123.299 350.434L123.281 350.706L123.262 350.962L123.253 351.202L123.244 351.421L123.239 351.618L123.244 351.785L123.253 351.921L123.267 352.02L123.276 352.064L123.267 352.048L123.203 351.993L123.061 352.62L122.923 352.49L122.854 352.33L122.817 352.169L122.799 352.002L122.79 351.819L122.785 351.618V351.4L122.794 351.163L122.808 350.91L122.826 350.641L122.845 350.36L122.872 350.067L122.9 349.765L122.927 349.457L122.96 349.144L122.996 348.829L123.033 348.513L123.07 348.197L123.106 347.886L123.148 347.581L123.184 347.285L123.221 346.998L123.258 346.725L123.295 346.465Z" fill="#1F1A17"/>
<path d="M125.19 347.164C123.986 349.768 124.19 353.63 124.555 356.195" stroke="#1F1A17" stroke-width="0.458749" stroke-linejoin="round"/>
<path d="M125.828 347.872C124.797 351.859 125.446 357.828 125.954 359.028" stroke="#1F1A17" stroke-width="0.458749" stroke-linejoin="round"/>
<path d="M126.204 350.926L126.209 350.505L126.222 350.101L126.25 349.716L126.287 349.353L126.337 349.011L126.401 348.694L126.479 348.404L126.576 348.14L126.998 348.313L126.915 348.538L126.847 348.798L126.787 349.088L126.741 349.408L126.704 349.754L126.681 350.124L126.663 350.516L126.658 350.926L126.663 351.354L126.677 351.797L126.7 352.25L126.727 352.715L126.764 353.188L126.805 353.666L126.856 354.149L126.911 354.634L126.97 355.117L127.03 355.599L127.099 356.077L127.168 356.546L127.246 357.007L127.319 357.458L127.397 357.896L127.475 358.317L127.553 358.723L127.631 359.108L127.709 359.473L127.787 359.813L127.861 360.127L127.934 360.414L128.003 360.67L128.067 360.893L127.631 361.025L127.562 360.791L127.489 360.528L127.416 360.235L127.342 359.915L127.264 359.569L127.186 359.201L127.104 358.811L127.026 358.402L126.948 357.976L126.87 357.535L126.791 357.081L126.718 356.616L126.649 356.141L126.58 355.66L126.516 355.175L126.456 354.686L126.401 354.198L126.351 353.71L126.305 353.225L126.273 352.746L126.241 352.275L126.218 351.813L126.209 351.363L126.204 350.926Z" fill="#1F1A17"/>
<path d="M128.416 351.416C128.131 352.283 128.044 353.62 128.098 354.461C128.142 355.183 129.32 360.155 129.442 360.892" stroke="#1F1A17" stroke-width="0.458749" stroke-linejoin="round"/>
<path d="M129.87 352.336C129.979 354.64 130.573 358.544 131.818 360.409" stroke="#1F1A17" stroke-width="0.458749" stroke-linejoin="round"/>
<path d="M133.06 354.036C132.779 355.256 132.7 360.999 133.628 361.617" stroke="#1F1A17" stroke-width="0.458749" stroke-linejoin="round"/>
<path d="M136.107 359.705C135.371 361.913 136.333 364.587 136.745 366.649" stroke="#1F1A17" stroke-width="0.458749" stroke-linejoin="round"/>
<path d="M139.016 363.106C138.546 364.515 139.674 371.656 140.647 372.955" stroke="#1F1A17" stroke-width="0.458749" stroke-linejoin="round"/>
<path d="M140.788 365.657C140.898 367.641 141.845 369.694 141.923 371.751C141.972 373.067 142.751 374.352 142.915 375.506" stroke="#1F1A17" stroke-width="0.458749" stroke-linejoin="round"/>
<path d="M143.909 367.501C142.867 370.104 144.404 375.894 145.328 378.2" stroke="#1F1A17" stroke-width="0.458749" stroke-linejoin="round"/>
<path d="M147.314 373.806C147.314 374.531 147.259 375.123 147.527 375.79C147.92 376.78 147.894 377.761 148.165 378.766C148.34 379.414 148.526 381.843 148.874 382.309" stroke="#1F1A17" stroke-width="0.458749" stroke-linejoin="round"/>
<path d="M149.513 380.323C149.962 381.99 150.168 383.855 151.073 385.212C151.892 386.44 152.406 387.919 153.2 389.109" stroke="#1F1A17" stroke-width="0.458749" stroke-linejoin="round"/>
<path d="M157.663 388.825C156.989 391.014 157.734 388.111 157.734 389.605C157.734 390.129 157.924 390.785 158.089 391.305C158.307 391.993 158.514 392.927 158.727 393.502C158.99 394.212 159.791 394.986 159.932 395.698" stroke="#1F1A17" stroke-width="0.458749" stroke-linejoin="round"/>
<path d="M174.036 341.163C174.036 343.157 171.652 344.94 171.2 346.902C170.781 348.723 170.633 350.451 170.633 352.429" stroke="#1F1A17" stroke-width="0.458749" stroke-linejoin="round"/>
<path d="M172.018 342.521C171.515 343.827 169.31 346.598 168.931 347.964C168.631 349.044 168.718 350.405 168.718 351.649" stroke="#1F1A17" stroke-width="0.458749" stroke-linejoin="round"/>
<path d="M170.021 344.012L169.688 343.699L169.736 343.648L169.784 343.595L169.832 343.541L169.878 343.487L169.925 343.433L169.971 343.378L170.018 343.322L170.064 343.265L170.11 343.208L170.156 343.149L170.201 343.091L170.246 343.033L170.292 342.973L170.338 342.914L170.383 342.854L170.428 342.793L170.473 342.732L170.519 342.671L170.563 342.61L170.608 342.549L170.653 342.488L170.699 342.425L170.744 342.363L170.789 342.301L170.835 342.239L170.881 342.176L170.927 342.114L170.973 342.052L171.019 341.989L171.067 341.927L171.114 341.866L171.161 341.803L171.522 342.082L171.477 342.141L171.43 342.202L171.385 342.264L171.34 342.324L171.294 342.385L171.248 342.448L171.204 342.508L171.158 342.57L171.113 342.632L171.068 342.694L171.022 342.755L170.977 342.818L170.932 342.879L170.886 342.942L170.84 343.003L170.795 343.065L170.749 343.127L170.702 343.188L170.656 343.249L170.61 343.309L170.563 343.371L170.515 343.431L170.468 343.491L170.421 343.551L170.371 343.61L170.324 343.669L170.274 343.727L170.224 343.786L170.173 343.843L170.124 343.899L170.073 343.955L170.021 344.012ZM169.688 343.699L170.021 344.012L170.012 344.021L170.004 344.03L169.995 344.037L169.986 344.045L169.975 344.05L169.965 344.056L169.954 344.061L169.943 344.065L169.932 344.07L169.921 344.073L169.911 344.076L169.901 344.079L169.89 344.083L169.879 344.084L169.868 344.085L169.857 344.085H169.845L169.835 344.085L169.824 344.084L169.813 344.083L169.802 344.08L169.791 344.076L169.78 344.073L169.769 344.07L169.759 344.066L169.748 344.061L169.737 344.056L169.726 344.05L169.715 344.045L169.707 344.039L169.698 344.032L169.689 344.024L169.68 344.016L169.672 344.007L169.664 343.998L169.657 343.99L169.651 343.98L169.646 343.969L169.64 343.958L169.636 343.947L169.632 343.937L169.627 343.927L169.623 343.916L169.619 343.906V343.895V343.884V343.873V343.864V343.852V343.842V343.831V343.82V343.81L169.623 343.8L169.627 343.789L169.632 343.778L169.636 343.767L169.64 343.757L169.646 343.747L169.651 343.736L169.657 343.726L169.662 343.717L169.67 343.709L169.677 343.7L169.688 343.699ZM167.815 349.808H167.356V349.551L167.361 349.301L167.368 349.06L167.379 348.826L167.392 348.599L167.409 348.379L167.431 348.164L167.455 347.955L167.485 347.752L167.518 347.553L167.555 347.359L167.598 347.17L167.646 346.983L167.699 346.801L167.756 346.621L167.819 346.445L167.888 346.269L167.963 346.098L168.044 345.927L168.13 345.758L168.223 345.589L168.322 345.422L168.428 345.256L168.54 345.088L168.658 344.92L168.784 344.753L168.916 344.583L169.055 344.411L169.202 344.238L169.356 344.061L169.517 343.882L169.686 343.699L170.019 344.012L169.855 344.19L169.697 344.364L169.548 344.535L169.406 344.702L169.273 344.866L169.147 345.028L169.029 345.189L168.916 345.347L168.811 345.504L168.713 345.66L168.621 345.817L168.535 345.972L168.454 346.128L168.381 346.285L168.311 346.445L168.248 346.604L168.19 346.767L168.135 346.933L168.086 347.103L168.042 347.275L168.003 347.452L167.967 347.634L167.935 347.821L167.907 348.014L167.884 348.213L167.864 348.418L167.847 348.63L167.834 348.849L167.823 349.076L167.816 349.312L167.811 349.554V349.808H167.815Z" fill="#1F1A17"/>
<path d="M169.003 341.375C168.938 342.354 167.903 343.83 167.301 344.564C167.071 344.844 166.881 345.412 166.663 345.768C166.406 346.186 166.383 346.756 166.096 347.115" stroke="#1F1A17" stroke-width="0.458749" stroke-linejoin="round"/>
<path d="M166.166 341.304C165.931 341.606 165.138 343.38 164.943 344.637" stroke="#1F1A17" stroke-width="0.458749" stroke-linejoin="round"/>
<path d="M164.138 341.304C163.34 341.369 162.608 342.756 162.339 343.43" stroke="#1F1A17" stroke-width="0.458749" stroke-linejoin="round"/>
<path d="M161.6 340.666C161.088 341.279 160.063 342.3 159.499 342.863" stroke="#1F1A17" stroke-width="0.458749" stroke-linejoin="round"/>
<path d="M159.2 340.745C158.459 340.574 156.909 341.883 156.735 342.579" stroke="#1F1A17" stroke-width="0.458749" stroke-linejoin="round"/>
<path d="M202.671 264.163C203.87 263.999 204.704 262.857 204.533 261.614C204.362 260.371 203.251 259.496 202.052 259.661C200.852 259.826 200.018 260.967 200.189 262.21C200.36 263.453 201.471 264.328 202.671 264.163Z" fill="#1F1A17" stroke="#1F1A17" stroke-width="0.201388"/>
<path fill-rule="evenodd" clip-rule="evenodd" d="M197.363 260.582C197.399 261.684 198.011 262.859 198.993 263.629C199.757 264.228 200.795 264.569 201.643 264.531C203.027 264.47 205.112 262.815 204.521 259.821C200.826 259.207 200.6 259.634 197.363 260.582Z" fill="white" stroke="#1F1A17" stroke-width="1.835"/>
<path fill-rule="evenodd" clip-rule="evenodd" d="M198.708 260.383C198.659 260.753 199.106 262.172 199.268 262.499C200.021 264.018 203.46 263.981 203.474 261.678C203.474 261.35 203.515 259.447 202.891 259.386C202.186 259.317 201.255 259.362 200.597 259.634C200.22 259.79 198.925 260.116 198.708 260.383Z" fill="#1F1A17" stroke="#1F1A17" stroke-width="0.412874"/>
<path fill-rule="evenodd" clip-rule="evenodd" d="M201.246 262.811C201.833 262.539 202.003 262.283 202.309 261.767C202.338 261.718 202.35 261.576 202.365 261.631C202.467 261.996 202.548 262.369 202.464 262.74C202.39 263.069 201.968 263.155 201.686 263.061C201.589 263.029 201.331 262.821 201.246 262.811Z" fill="white" stroke="#1F1A17" stroke-width="0.412874"/>
<path d="M152.041 288.93C161.021 288.93 165.547 283.75 174.682 283.75C179.227 283.75 183.085 284.172 186.768 284.931C188.834 285.356 191.177 285.312 193.322 286.388C196.669 288.378 196.291 292.284 193.545 292.929C191.602 293.385 188.432 293.34 187.002 292.897C181.336 291.14 170.543 286.864 164.99 289.552C162.53 290.742 159.769 291.388 156.765 291.555C155.448 291.629 154.302 291.796 153.1 291.21C152.344 290.842 150.65 289.366 152.041 288.93Z" stroke="#1F1A17" stroke-width="0.917499" stroke-linejoin="round"/>
<path fill-rule="evenodd" clip-rule="evenodd" d="M152.041 288.93C161.021 288.93 165.547 283.75 174.682 283.75C179.227 283.75 183.085 284.172 186.768 284.931C188.834 285.356 191.177 285.312 193.322 286.388C196.669 288.378 196.291 292.284 193.545 292.929C191.602 293.385 188.432 293.34 187.002 292.897C181.336 291.14 170.543 286.864 164.99 289.552C162.53 290.742 159.769 291.388 156.765 291.555C155.448 291.629 154.302 291.796 153.1 291.21C152.344 290.842 150.65 289.366 152.041 288.93Z" fill="#A92211"/>
<path fill-rule="evenodd" clip-rule="evenodd" d="M179.461 280.66C179.61 280.787 179.079 283.129 179.039 283.474C178.925 284.447 178.846 285.724 178.575 286.652C178.516 286.854 178.061 288.842 177.753 288.541C176.376 287.2 174.825 283.236 174.774 281.22L179.461 280.66Z" fill="white" stroke="#1F1A17" stroke-width="1.37625"/>
<path fill-rule="evenodd" clip-rule="evenodd" d="M139.306 579.33L140.735 579.007C141.075 578.734 143.884 577.464 144.247 577.435C144.578 577.407 150.61 576.517 150.61 576.517L152.054 575.714L153.61 575.36L155.42 574.947C155.42 574.947 155.42 574.947 154.882 575.433C154.345 575.918 153.084 576.302 153.084 576.302L154.314 577.044L153.362 577.473L146.198 578.123L139.962 581.59L138.915 579.335H139.306L139.306 579.33Z" fill="#1F1A17" stroke="#1F1A17" stroke-width="0.412874"/>
<path fill-rule="evenodd" clip-rule="evenodd" d="M142.436 585.36L144.604 582.99L146.788 582.314L150.301 582.972L146.753 583.828C146.753 583.828 144.847 584.937 144.636 584.967C144.425 584.995 143.201 585.893 143.201 585.893L142.436 585.36Z" fill="#1F1A17" stroke="#1F1A17" stroke-width="0.412874"/>
<path d="M135.992 575.633C136.701 575.279 137.562 574.711 138.261 574.711C138.568 574.711 139.225 574.366 139.609 574.286C140.395 574.123 141.197 573.649 142.019 573.649C142.423 573.649 143.367 573.506 143.579 573.224" stroke="#1F1A17" stroke-width="2.7525"/>
<path fill-rule="evenodd" clip-rule="evenodd" d="M325.847 586.786L324.429 586.717L322.373 586.859L319.748 588.982L318.614 591.679L318.261 593.449V594.513L320.601 592.954L322.905 590.615L325.915 588.913L327.549 588.276L325.847 586.786Z" fill="#D1A345" stroke="#1F1A17" stroke-width="0.412874"/>
<path d="M188.084 259.96L193.685 259.005M193.685 259.005C196.87 258.089 200.164 255.283 203.267 254.111L203.245 253.849L201.725 253.941L199.5 255.321L196.451 257.376L193.685 259.005Z" stroke="#1F1A17" stroke-width="0.412874"/>
<path fill-rule="evenodd" clip-rule="evenodd" d="M195.813 258.415L193.908 258.998L193.977 258.834L197.061 256.965L198.208 256.192L199.576 255.263L200.599 254.471L201.375 253.87L203.752 253.579L203.33 254.258L201.343 255.227L199.241 256.376L197.268 257.485L195.813 258.415Z" fill="#1F1A17" stroke="#1F1A17" stroke-width="0.412874"/>
<path fill-rule="evenodd" clip-rule="evenodd" d="M166.391 265.351C164.555 265.764 159.013 266.474 159.584 269.23C159.817 270.354 160.425 271.258 161.235 272.105C161.868 272.767 163.945 276.799 165.342 275.727C166.81 274.599 166.654 274.784 166.993 273.15C167.195 272.176 166.636 271.459 166.067 270.723C165.549 270.053 168.012 269.169 168.281 268.445C168.946 266.66 166.692 266.118 166.391 265.351Z" fill="#1F1A17" stroke="#1F1A17" stroke-width="0.412874"/>
<path fill-rule="evenodd" clip-rule="evenodd" d="M164.092 265.233C163.634 265.233 163.371 265.448 163.058 265.76C162.942 265.877 162.346 266.073 162.168 266.166C160.935 266.809 162.381 268.124 163.363 267.139C163.776 266.725 164.242 266.339 164.638 265.943C165.2 265.382 164.543 265.192 164.092 265.233Z" fill="white"/>
<path d="M185.17 330.606C182.874 334.658 176.865 342.873 175.801 347.179C177.369 345.768 183.378 343.077 184.451 342.178" stroke="#1F1A17" stroke-width="3.66999"/>
<path d="M96.5021 194.273L92.7042 194.963L87.3526 247.75L49.5459 249.82V256.548L96.5021 262.759L143.286 256.548V249.82L105.479 247.75L100.127 194.963L96.5021 194.273Z" fill="#405A9F"/>
<path d="M106.68 253.537H86.1719V580.447H106.68V253.537Z" fill="#405A9F"/>
<path d="M104.3 195.962L96.4258 188.093L88.5511 195.962L96.4258 203.831L104.3 195.962Z" fill="#D1A345" stroke="#405A9F" stroke-width="4.14169"/>
<path d="M54.0075 253.293L46.1328 245.424L38.2581 253.293L46.1328 261.162L54.0075 253.293Z" fill="#D1A345" stroke="#405A9F" stroke-width="4.14169"/>
<path d="M138.844 253.293L146.719 245.424L154.593 253.293L146.719 261.162L138.844 253.293Z" fill="#D1A345" stroke="#405A9F" stroke-width="4.14169"/>
<path d="M100.3 253.537H92.5518V354.712H100.3V253.537Z" fill="#D4CAC6"/>
<path d="M119.131 244.754H73.7207V264.759H119.131V244.754Z" fill="#D1A345" stroke="#103E6F" stroke-width="1.38056"/>
<path d="M96.5025 552.917C93.6002 555.419 92.3562 557.747 91.4962 559.817C92.2292 561.538 93.2167 563.396 94.2583 565.855C92.9048 565.961 89.3718 565.81 86.1445 566.545V580.518C86.1445 582.988 89.0574 588.798 96.5025 588.798C103.948 588.798 106.688 582.988 106.688 580.518V566.545C103.461 565.81 100.1 565.961 98.7468 565.855C99.7884 563.396 100.603 561.538 101.336 559.817C100.476 557.747 99.4049 555.419 96.5025 552.917Z" fill="#D1A345" stroke="#103E6F" stroke-width="1.38056"/>
<path d="M96.5022 487.536C90.7609 487.536 88.5189 488.155 86.1442 489.088C84.3605 490.882 84.3585 495.946 86.1442 498.059C89.4573 498.409 91.7035 498.921 96.5022 498.921C101.301 498.921 103.374 498.409 106.688 498.059C108.473 495.946 108.471 490.882 106.688 489.088C104.313 488.155 102.243 487.536 96.5022 487.536Z" fill="#D1A345" stroke="#103E6F" stroke-width="1.38056"/>
<path d="M96.426 389.896C90.6847 389.896 88.4427 390.516 86.068 391.449C84.2844 393.243 84.2823 398.307 86.068 400.419C89.3812 400.77 91.6273 401.282 96.426 401.282C101.225 401.282 103.298 400.77 106.611 400.419C108.397 398.307 108.395 393.243 106.611 391.449C104.237 390.516 102.167 389.896 96.426 389.896Z" fill="#D1A345" stroke="#103E6F" stroke-width="1.38056"/>
<path d="M311.134 497.151C330.187 456.344 324.271 391.491 327.455 338.195C327.455 338.195 311.21 334.948 268.845 334.948C226.48 334.948 210.235 338.195 210.235 338.195C213.42 391.491 207.504 456.344 226.557 497.151C235.645 516.615 246.347 530.221 268.845 541.12C291.344 530.221 302.046 516.615 311.134 497.151Z" fill="#405A9F" stroke="#D1A345" stroke-width="4.24001"/>
<path fill-rule="evenodd" clip-rule="evenodd" d="M260.579 409.569L269.828 400.327L279.077 409.569L269.828 418.811L260.579 409.569ZM269.828 424.972L254.414 409.569L269.828 394.166L285.242 409.569L269.828 424.972ZM309.905 428.053L300.656 437.295L285.242 421.892L288.325 418.811L300.656 431.134L303.739 428.053L288.325 412.65L272.911 428.053L288.325 443.456L291.408 440.375L279.077 428.053L282.159 424.972L297.574 440.375L288.325 449.617L269.828 431.134L251.331 449.617L242.082 440.375L257.497 424.972L260.579 428.053L248.248 440.375L251.331 443.456L266.745 428.053L251.331 412.65L235.917 428.053L238.999 431.134L251.331 418.811L254.414 421.892L238.999 437.295L229.751 428.053L248.248 409.569L229.751 391.086L238.999 381.844L254.414 397.247L251.331 400.327L238.999 388.005L235.917 391.086L251.331 406.489L266.745 391.086L251.331 375.683L248.248 378.763L260.579 391.086L257.497 394.166L242.082 378.763L251.331 369.521L269.828 388.005L288.325 369.521L297.574 378.763L282.159 394.166L279.077 391.086L291.408 378.763L288.325 375.683L272.911 391.086L288.325 406.489L303.739 391.086L300.656 388.005L288.325 400.327L285.242 397.247L300.656 381.844L309.905 391.086L291.408 409.569L309.905 428.053Z" fill="#D1A345"/>
<path fill-rule="evenodd" clip-rule="evenodd" d="M86.1636 296.935C80.2095 307.988 79.5011 315.881 84.3045 328.273C84.8834 329.766 85.4915 330.82 87.2147 330.938C87.5616 330.962 89.7416 335.699 90.9325 336.431C91.3987 336.717 96.0248 340.474 96.0248 338.208C96.0248 335.87 93.1949 332.423 92.0642 330.373C91.9354 330.139 94.0404 332.164 96.9137 333.119C101.05 334.494 93.7791 323.502 92.7915 322.296C92.5739 322.03 95.6768 323.313 97.318 323.669C102.846 324.871 97.9799 319.937 96.7522 318.096C95.4503 316.144 90.8897 313.977 94.893 313.977C101.689 313.977 97.1235 311.437 94.8123 308.162C92.171 304.417 89.4483 300.216 86.1636 296.935Z" fill="#1F1A17"/>
<path fill-rule="evenodd" clip-rule="evenodd" d="M84.6717 301.744C84.6717 308.296 81.0645 314.319 83.5041 320.655C83.8477 321.547 87.1687 329.889 88.1747 326.208C89.1217 322.743 86.8137 321.11 87.41 318.12C88.2219 314.048 86.0023 310.151 87.6917 305.888C88.5243 303.785 87.3819 300.288 84.6717 301.744Z" fill="#A92211"/>
<path fill-rule="evenodd" clip-rule="evenodd" d="M89.3023 304.641C87.2058 304.641 88.092 307.887 88.5776 308.986C89.9956 312.198 92.5843 313.13 95.9064 313.13C97.0338 313.13 96.0528 312.698 95.5037 312.004C95.001 311.368 93.992 310.869 93.4099 310.314C92.4966 309.443 91.6515 308.391 90.7924 307.376C90.0916 306.549 89.7923 305.236 89.3023 304.641Z" fill="#BB9858"/>
<path fill-rule="evenodd" clip-rule="evenodd" d="M91.0736 315.304C90.4557 314.716 87.6854 314.809 88.6979 317.074C90.0205 320.033 93.491 322.477 96.7914 322.707C98.0999 322.799 94.9719 319.803 94.4158 319.247C93.762 318.594 91.5848 315.965 91.0736 315.304Z" fill="#BB9858"/>
<path fill-rule="evenodd" clip-rule="evenodd" d="M91.7629 323.351C90.9081 322.545 90.4246 321.318 89.3471 322.747C86.8267 326.09 93.2561 330.324 95.1853 332.122C96.0742 332.951 96.0731 332.938 95.9907 331.68C95.9073 330.392 94.5598 327.806 93.776 326.731C92.9472 325.594 92.6686 324.256 91.7629 323.351Z" fill="#BB9858"/>
<path fill-rule="evenodd" clip-rule="evenodd" d="M90.9134 331.036C90.6377 330.443 90.0699 328.196 89.2222 328.099C87.2124 327.87 87.5685 330.476 88.4943 331.757C89.5459 333.213 90.3816 334.428 91.3963 335.865C92.0689 336.817 95.9141 340.082 94.3764 336.75C93.8996 335.717 93.3736 334.762 92.8056 333.732C92.3863 332.971 91.1882 331.629 90.9134 331.036Z" fill="#BB9858"/>
<path fill-rule="evenodd" clip-rule="evenodd" d="M108.333 299.923C107.261 299.619 106.176 298.619 104.781 299.059C103.065 299.599 100.004 303.438 98.7177 305.261C98.4309 305.668 96.0389 308.16 96.3859 308.16C97.9366 308.16 99.0483 308.409 100.476 307.499C101.85 306.623 102.708 305.567 104.279 305.567C104.859 305.567 108.405 306.196 108.405 305.363C108.405 303.509 108.591 301.749 108.333 299.923Z" fill="#1F1A17"/>
<path fill-rule="evenodd" clip-rule="evenodd" d="M107.288 300.295C106.335 300.23 105.299 299.695 104.147 300.176C102.728 300.769 100.499 303.777 99.5843 305.184C99.3799 305.498 97.5853 307.504 97.8828 307.458C99.2151 307.254 100.196 307.277 101.327 306.471C102.416 305.696 103.043 304.866 104.393 304.659C104.891 304.583 107.496 304.604 107.41 304.039C107.216 302.781 107.321 301.554 107.288 300.295Z" fill="#BB9858"/>
</g>
<defs>
<clipPath id="clip0_806_91493">
<rect width="434" height="690.06" fill="white"/>
</clipPath>
</defs>
</svg>
