<svg id="id-svg" width="690" height="690" viewBox="0 0 690 690" fill="none" xmlns="http://www.w3.org/2000/svg">
<g clip-path="url(#clip0_806_91042)">
<path d="M345 688.187C534.537 688.187 688.187 534.537 688.187 345C688.187 155.463 534.537 1.81299 345 1.81299C155.463 1.81299 1.8125 155.463 1.8125 345C1.8125 534.537 155.463 688.187 345 688.187Z" stroke="black" stroke-width="0.726316" stroke-miterlimit="22.9256"/>
<path d="M344.273 652.813C514.274 652.813 652.087 515 652.087 345C652.087 174.999 514.274 37.1865 344.273 37.1865C174.273 37.1865 36.46 174.999 36.46 345C36.46 515 174.273 652.813 344.273 652.813Z" fill="white"/>
<path fill-rule="evenodd" clip-rule="evenodd" d="M272.559 7.60887C458.895 -31.9982 642.058 86.9491 681.665 273.285C721.272 459.621 602.324 642.784 415.988 682.391C229.652 721.998 46.4885 603.051 6.8818 416.715C-32.7253 230.379 86.2224 47.2156 272.559 7.60887ZM344.273 64.4605C499.211 64.4605 624.813 190.062 624.813 345C624.813 499.937 499.211 625.539 344.273 625.539C189.336 625.539 63.7338 499.938 63.7338 345C63.7338 190.063 189.335 64.4605 344.273 64.4605Z" fill="#234082"/>
<path fill-rule="evenodd" clip-rule="evenodd" d="M344.273 73.5391C494.196 73.5391 615.734 195.076 615.734 345C615.734 494.923 494.197 616.46 344.273 616.46C194.35 616.46 72.8125 494.923 72.8125 345C72.8125 195.076 194.349 73.5391 344.273 73.5391ZM344.273 77.7154C491.89 77.7154 611.557 197.382 611.557 345C611.557 492.617 491.891 612.284 344.273 612.284C196.656 612.284 76.9888 492.617 76.9888 345C76.9888 197.382 196.656 77.7154 344.273 77.7154Z" fill="#C82222"/>
<path fill-rule="evenodd" clip-rule="evenodd" d="M344.273 85.4331C487.629 85.4331 603.84 201.644 603.84 345C603.84 488.356 487.629 604.567 344.273 604.567C200.918 604.567 84.7061 488.356 84.7061 345C84.7061 201.645 200.917 85.4331 344.273 85.4331ZM344.273 94.5121C482.615 94.5121 594.761 206.658 594.761 345C594.761 483.342 482.615 595.488 344.273 595.488C205.931 595.488 93.785 483.342 93.785 345C93.785 206.658 205.931 94.5121 344.273 94.5121Z" fill="#C82222"/>
<path fill-rule="evenodd" clip-rule="evenodd" d="M381.801 33.1099L389.372 28.1931L394.485 36.0679L386.914 40.9843L381.801 33.1099ZM393.027 25.8199L396.993 23.244L406.859 38.436L391.667 48.3023L389.288 44.6391L396.859 39.7223L400.514 37.3491L398.14 33.6939L393.027 25.8199ZM400.648 20.8704L415.84 11.0049L425.705 26.1969L410.514 36.0628L400.648 20.8704ZM428.079 29.8517L430.458 33.5152L422.887 38.4313L419.232 40.8049L421.606 44.4594L426.719 52.3337L422.753 54.9096L412.887 39.7172L428.079 29.8517ZM432.831 37.1697L437.945 45.0437L430.374 49.9601L425.261 42.0861L432.831 37.1697ZM419.098 57.2828L403.906 67.1487L394.04 51.9571L409.232 42.0912L419.098 57.2828Z" fill="white"/>
<path fill-rule="evenodd" clip-rule="evenodd" d="M316.135 32.1227L322.518 25.7395L329.157 32.3788L322.774 38.762L316.135 32.1227ZM325.599 22.6581L328.944 19.3138L341.753 32.1227L328.944 44.9321L325.855 41.8434L332.238 35.4602L335.32 32.3788L332.238 29.297L325.599 22.6581ZM332.025 16.2324L344.834 3.42383L357.643 16.2328L344.834 29.0414L332.025 16.2324ZM360.724 19.3142L363.813 22.4028L357.43 28.7857L354.348 31.8671L357.43 34.9485L364.068 41.5874L360.724 44.9317L347.915 32.1227L360.724 19.3142ZM366.894 25.4842L373.533 32.1227L367.15 38.506L360.511 31.8671L366.894 25.4842ZM357.643 48.0131L344.834 60.822L332.025 48.0134L344.834 35.2045L357.643 48.0131Z" fill="white"/>
<path fill-rule="evenodd" clip-rule="evenodd" d="M445.826 47.7275L454.254 44.4924L457.618 53.258L449.19 56.493L445.826 47.7275ZM458.322 42.9309L462.737 41.2356L469.229 58.1472L452.318 64.6394L450.752 60.5615L459.18 57.3264L463.248 55.7649L461.687 51.696L458.322 42.9309ZM466.806 39.6741L483.717 33.1826L490.208 50.0942L473.297 56.5856L466.806 39.6741ZM491.77 54.1622L493.335 58.2401L484.908 61.4752L480.84 63.0367L482.402 67.1052L485.766 75.8704L481.351 77.5652L474.859 60.6537L491.77 54.1622ZM494.897 62.3086L498.262 71.0734L489.834 74.3088L486.47 65.5436L494.897 62.3086ZM477.282 79.1268L460.371 85.6186L453.879 68.7074L470.791 62.216L477.282 79.1268Z" fill="white"/>
<path fill-rule="evenodd" clip-rule="evenodd" d="M505.413 75.3379L514.329 73.9259L515.798 83.1991L506.882 84.6115L505.413 75.3379ZM518.633 73.2443L523.305 72.5041L526.139 90.3958L508.246 93.2299L507.563 88.9156L516.479 87.5033L520.784 86.822L520.102 82.5171L518.633 73.2443ZM527.609 71.8225L545.5 68.9888L548.334 86.8805L530.443 89.7142L527.609 71.8225ZM549.015 91.1846L549.698 95.4986L540.783 96.9109L536.479 97.5922L537.161 101.897L538.629 111.17L533.958 111.91L531.124 94.0183L549.015 91.1846ZM550.38 99.8027L551.849 109.076L542.933 110.488L541.464 101.215L550.38 99.8027ZM529.654 112.591L511.762 115.425L508.928 97.5341L526.82 94.7L529.654 112.591Z" fill="white"/>
<path fill-rule="evenodd" clip-rule="evenodd" d="M251.699 44.8099L256.616 37.2392L264.49 42.3528L259.573 49.9239L251.699 44.8099ZM258.989 33.5843L261.565 29.6179L276.757 39.4838L266.892 54.6762L263.228 52.2971L268.145 44.7264L270.518 41.0716L266.863 38.698L258.989 33.5843ZM263.938 25.9631L273.804 10.7715L288.996 20.6374L279.131 35.829L263.938 25.9631ZM292.651 23.0106L296.314 25.3897L291.398 32.9601L289.024 36.6149L292.679 38.9881L300.553 44.1018L297.978 48.0682L282.786 38.2023L292.651 23.0106ZM299.969 27.7629L307.843 32.8762L302.927 40.4469L295.053 35.3333L299.969 27.7629ZM295.604 51.723L285.738 66.9153L270.546 57.0494L280.412 41.8574L295.604 51.723Z" fill="white"/>
<path fill-rule="evenodd" clip-rule="evenodd" d="M191.31 70.6174L194.545 62.1896L203.31 65.5546L200.075 73.9824L191.31 70.6174ZM196.106 58.1215L197.801 53.7058L214.713 60.1976L208.221 77.1092L204.143 75.544L207.378 67.1162L208.94 63.0477L204.871 61.4861L196.106 58.1215ZM199.363 49.6377L205.854 32.7266L222.766 39.2184L216.274 56.1292L199.363 49.6377ZM226.834 40.78L230.912 42.3455L227.677 50.7726L226.115 54.8411L230.184 56.4026L238.949 59.7673L237.254 64.1826L220.343 57.6911L226.834 40.78ZM234.98 43.9071L243.745 47.2714L240.511 55.6988L231.745 52.3342L234.98 43.9071ZM235.692 68.251L229.2 85.1626L212.289 78.6711L218.781 61.7596L235.692 68.251Z" fill="white"/>
<path fill-rule="evenodd" clip-rule="evenodd" d="M137.604 108.416L139.017 99.5002L148.29 100.969L146.878 109.885L137.604 108.416ZM139.698 95.196L140.438 90.5247L158.33 93.3584L155.496 111.25L151.182 110.567L152.594 101.651L153.276 97.3466L148.972 96.665L139.698 95.196ZM141.12 86.2206L143.954 68.3296L161.845 71.1633L159.012 89.0543L141.12 86.2206ZM166.149 71.845L170.463 72.5284L169.051 81.4439L168.369 85.7481L172.674 86.4297L181.947 87.8987L181.207 92.5697L163.316 89.7359L166.149 71.845ZM174.768 73.2101L184.041 74.6783L182.629 83.5942L173.356 82.1256L174.768 73.2101ZM180.525 96.8742L177.691 114.766L159.8 111.932L162.634 94.0404L180.525 96.8742Z" fill="white"/>
<path d="M85.3776 154.996C84.6372 154.469 84.0176 154.086 83.5201 153.859C83.0164 153.627 82.5817 153.502 82.2007 153.493C81.8238 153.477 81.4595 153.567 81.1055 153.751C80.7579 153.94 80.2956 154.29 79.7211 154.812L78.7939 154.152L84.6862 145.866L85.6133 146.526C85.2545 147.453 85.1027 148.13 85.1659 148.572C85.2229 149.011 85.447 149.432 85.8425 149.829C86.2336 150.234 86.9018 150.767 87.8286 151.426L104.15 163.032C105.013 163.646 105.673 164.067 106.107 164.288C106.552 164.508 106.928 164.62 107.259 164.632C107.579 164.646 107.89 164.576 108.194 164.434C108.493 164.288 108.934 163.981 109.507 163.516L110.434 164.175L103.777 173.537C101.685 176.479 99.5673 178.27 97.4152 178.911C95.2675 179.545 93.0417 179.049 90.7433 177.414C89.4301 176.48 88.4187 175.422 87.6957 174.23C86.9781 173.03 86.575 171.784 86.4958 170.477C86.4235 169.175 86.6363 167.853 87.1589 166.519C87.675 165.179 88.3737 163.883 89.2573 162.64C90.2509 161.243 91.0458 160.18 91.6421 159.45L85.3776 154.996ZM93.207 160.563L91.6505 162.752C90.6383 164.175 89.9919 165.479 89.7043 166.661C89.4185 167.854 89.5329 169.002 90.0475 170.104C90.5555 171.203 91.5281 172.262 92.9444 173.269C94.0262 174.039 95.0282 174.538 95.9619 174.766C96.889 174.989 97.7522 175.002 98.5581 174.809C99.3574 174.612 100.102 174.22 100.788 173.651C101.467 173.077 102.102 172.375 102.692 171.544C103.581 170.295 104.219 169.344 104.616 168.676L93.207 160.563Z" fill="white" stroke="white" stroke-width="0.726316" stroke-miterlimit="22.9256"/>
<path d="M83.3041 205.648L77.2426 202.164L78.3731 200.198C79.1485 200.37 79.8421 200.496 80.4573 200.567C81.0794 200.642 81.6205 200.652 82.0861 200.619C82.5513 200.586 82.9642 200.487 83.3204 200.326C83.6767 200.167 83.9984 199.924 84.2904 199.59C84.578 199.264 84.8726 198.832 85.1718 198.311L88.8183 191.969L78.3052 185.924L75.8361 190.219C75.4976 190.808 75.3161 191.314 75.2943 191.747C75.2656 192.177 75.392 192.624 75.6629 193.071C75.9411 193.523 76.4491 194.097 77.191 194.789L76.1041 196.679L68.399 192.249L69.4859 190.358C70.3938 190.634 71.1183 190.768 71.6594 190.779C72.1933 190.785 72.6414 190.687 72.9937 190.47C73.3528 190.258 73.7069 189.832 74.069 189.202L76.5381 184.908L64.9635 178.253L61.3762 184.492C60.9982 185.15 60.7458 185.715 60.63 186.186C60.5032 186.66 60.501 187.124 60.6056 187.576C60.7099 188.028 60.9165 188.493 61.2248 188.971C61.54 189.453 61.8887 189.908 62.2707 190.338C62.6567 190.76 63.2331 191.375 63.9837 192.161L62.8416 194.148L56.0215 189.716L66.7052 171.134L67.6916 171.702C67.4236 172.659 67.3375 173.348 67.4432 173.782C67.5419 174.212 67.8052 174.61 68.2374 174.968C68.6656 175.332 69.3817 175.799 70.368 176.366L87.7299 186.349C88.648 186.877 89.3456 187.232 89.7988 187.411C90.2629 187.586 90.6479 187.662 90.978 187.642C91.2975 187.626 91.6008 187.526 91.8902 187.356C92.1728 187.181 92.5824 186.833 93.1079 186.315L94.0942 186.882L83.3041 205.648Z" fill="white" stroke="white" stroke-width="0.726316" stroke-miterlimit="22.9256"/>
<path d="M70.8491 230.92L65.011 228.281L65.9549 226.193C67.3316 226.408 68.4988 226.415 69.4528 226.223C70.4144 226.033 71.2061 225.663 71.8278 225.112C72.4499 224.56 72.9754 223.801 73.4148 222.829C74.0692 221.382 74.1691 219.876 73.7155 218.309C73.2692 216.746 72.2186 215.196 70.5822 213.676C68.9386 212.153 66.7527 210.774 64.0101 209.534C61.2527 208.288 58.7752 207.497 56.5905 207.151C54.3988 206.801 52.5758 206.922 51.1104 207.517C49.6552 208.107 48.5792 209.164 47.8925 210.683C47.3717 211.835 47.111 212.853 47.1099 213.737C47.1124 214.614 47.3506 215.467 47.8463 216.29C48.3413 217.112 49.1777 218.062 50.3692 219.147L49.4254 221.235L43.3926 218.507C43.6388 217.023 43.9845 215.549 44.4367 214.089C44.8848 212.618 45.4855 211.06 46.2372 209.397C47.8514 205.827 50.281 203.674 53.5236 202.946C56.7688 202.211 60.7893 202.927 65.5833 205.095C68.5925 206.456 71.0126 208.122 72.8538 210.09C74.6841 212.062 75.8022 214.25 76.2075 216.653C76.6121 219.055 76.2388 221.531 75.0799 224.093C74.5007 225.375 73.9026 226.526 73.2772 227.545C72.6562 228.573 71.8475 229.69 70.8491 230.92Z" fill="white" stroke="white" stroke-width="0.726316" stroke-miterlimit="22.9256"/>
<path d="M60.4232 261.904L59.3454 261.539C59.422 260.648 59.382 260 59.2368 259.593C59.0911 259.185 58.7832 258.838 58.3071 258.544C57.8386 258.252 57.0034 257.911 55.806 257.506L36.835 251.086C35.9896 250.8 35.3457 250.608 34.9143 250.503C34.4723 250.404 34.1102 250.365 33.8128 250.381C33.5256 250.392 33.2732 250.449 33.0651 250.545C32.8523 250.631 32.6395 250.793 32.4136 251.017C32.1949 251.243 31.911 251.614 31.5739 252.142L30.4961 251.777L33.6134 242.565L34.6913 242.93C34.6219 243.799 34.6543 244.444 34.7923 244.849C34.9379 245.257 35.2386 245.601 35.7118 245.903C36.1777 246.202 37.018 246.553 38.2303 246.963L60.6585 254.552L64.5912 242.931L42.1629 235.341C41.19 235.012 40.459 234.806 39.9825 234.712C39.5108 234.627 39.1131 234.618 38.8008 234.679C38.4856 234.747 38.1852 234.896 37.9114 235.137C37.6307 235.375 37.294 235.804 36.8942 236.419L35.8164 236.054L38.9413 226.82L40.0188 227.184C39.9418 228.176 39.9912 228.868 40.1793 229.274C40.3598 229.677 40.6957 230.016 41.1889 230.283C41.6799 230.557 42.473 230.876 43.5505 231.24L62.5212 237.659C63.5246 237.999 64.2778 238.212 64.7571 238.299C65.2463 238.381 65.6389 238.381 65.9588 238.297C66.269 238.219 66.5471 238.062 66.7977 237.838C67.0414 237.612 67.3751 237.192 67.7902 236.582L68.8681 236.946L60.4232 261.904Z" fill="white" stroke="white" stroke-width="0.726316" stroke-miterlimit="22.9256"/>
<path d="M51.917 293.066C51.8546 292.25 51.5702 291.479 51.0531 290.767C50.5363 290.056 49.1861 288.845 46.9937 287.138L34.7153 277.559C30.9984 274.658 28.599 272.336 27.5212 270.612C26.4375 268.878 26.1296 267.016 26.5915 265.014C26.8719 263.798 27.3026 262.705 27.8923 261.73L33.6429 263.057L33.0815 265.49C31.3097 265.227 30.2634 265.756 29.9543 267.095C29.5403 268.889 30.6211 270.882 33.1886 273.072L50.938 269.449C53.7125 268.881 55.4771 268.437 56.2321 268.117C56.9885 267.789 57.5939 267.239 58.0588 266.455L59.1671 266.71L56.9341 276.387L55.8253 276.131C55.996 274.654 55.5628 273.792 54.5238 273.552C53.5611 273.33 51.9879 273.437 49.7973 273.864L37.1899 276.322L46.5641 283.237C48.5669 284.713 50.1347 285.577 51.259 285.837C52.5827 286.142 53.471 285.666 53.9159 284.406L55.0242 284.662L53.0258 293.322L51.917 293.066Z" fill="white" stroke="white" stroke-width="0.726316" stroke-miterlimit="22.9256"/>
<path d="M21.0286 293.309L22.1573 293.452C22.3123 294.674 22.6177 295.47 23.0724 295.838C23.5351 296.207 24.6449 296.5 26.4004 296.723L46.268 299.247C48.1804 299.49 49.3868 299.46 49.8953 299.158C50.3946 298.863 50.8464 298.188 51.2415 297.148L52.3702 297.291L49.6766 318.491L42.7403 317.61L43.0294 315.337C44.9142 314.979 46.2589 314.552 47.0724 314.042C47.8786 313.524 48.3812 312.513 48.5737 311L49.4609 304.017L37.8693 302.544C37.772 304.754 37.6187 306.709 37.4059 308.387C36.5223 315.338 33.1816 318.442 27.382 317.705C21.1825 316.917 18.566 312.69 19.54 305.025L21.0286 293.309ZM35.8004 302.282L22.2967 300.566C22.0679 301.675 21.8609 302.931 21.6815 304.342C21.3282 307.124 21.655 309.188 22.6533 310.542C23.6531 311.887 25.348 312.716 27.715 313.016C32.2447 313.592 34.8173 311.522 35.4169 306.804C35.67 304.813 35.7975 303.308 35.8004 302.282Z" fill="white" stroke="white" stroke-width="0.726316" stroke-miterlimit="22.9256"/>
<path d="M16.7168 352.061L16.9645 342.252L18.1019 342.281C18.3768 343.599 18.8071 344.401 19.3998 344.7C20.0012 344.992 21.0878 345.154 22.6751 345.194L46.4398 345.795L46.6022 339.366C42.6455 338.942 38.4206 338.211 33.9261 337.172C29.4324 336.126 25.8869 335.073 23.282 334.003C20.6854 332.934 18.9818 331.863 18.1556 330.783C17.3371 329.704 16.9409 328.508 16.9743 327.181C17.008 325.854 17.2278 324.659 17.6178 323.602L22.2934 323.72L22.2361 325.994C21.1426 326.101 20.5761 326.632 20.5521 327.572C20.5347 328.267 20.8651 328.947 21.5435 329.628C22.2215 330.309 23.9001 331.126 26.5794 332.071C29.2501 333.024 32.4753 333.919 36.2318 334.765C39.9959 335.603 42.7349 336.051 44.4642 336.095C45.6096 336.124 46.3959 335.97 46.8229 335.641C47.258 335.312 47.542 334.711 47.6669 333.837L48.7804 333.865L48.3003 352.859L47.1629 352.831C46.9156 351.679 46.5626 350.943 46.097 350.607C45.6394 350.271 44.4664 350.075 42.5867 350.028L22.5655 349.522C20.7333 349.475 19.5683 349.612 19.0624 349.923C18.5645 350.235 18.1593 350.952 17.8542 352.089L16.7168 352.061Z" fill="white" stroke="white" stroke-width="0.726316" stroke-miterlimit="22.9256"/>
<path d="M18.792 379.481L19.9265 379.395C20.3227 380.546 20.781 381.256 21.3007 381.525C21.828 381.794 22.9737 381.858 24.7383 381.723L34.6641 380.969C37.91 380.722 40 380.595 40.9264 380.587L40.9192 380.493L23.7396 368.591C21.8966 368.732 20.7512 368.985 20.2958 369.353C19.848 369.719 19.5255 370.481 19.3352 371.621L18.2007 371.707L17.4668 362.056L18.6013 361.97C18.999 363.136 19.4576 363.854 19.9777 364.131C20.5057 364.408 21.6522 364.479 23.4168 364.345L43.3865 362.827C45.4191 362.672 46.6251 362.382 47.0122 361.949C47.391 361.516 47.6681 360.782 47.8352 359.747L48.9693 359.661L49.7032 369.311L48.5687 369.397C48.2303 368.385 47.8384 367.71 47.3841 367.364C46.9302 367.018 45.7107 366.921 43.7097 367.073L33.5551 367.845C31.2784 368.018 29.353 368.117 27.7946 368.148L27.8048 368.282L44.984 380.184C46.6146 380.06 47.6663 379.821 48.1308 379.469C48.6029 379.116 48.9413 378.353 49.1603 377.172L50.2948 377.086L51.0251 386.689L49.8906 386.775C49.5522 385.763 49.1599 385.087 48.706 384.742C48.2517 384.396 47.0322 384.299 45.0312 384.451L25.0615 385.97C23.2181 386.11 22.0727 386.363 21.6173 386.73C21.1696 387.097 20.8474 387.859 20.6568 388.998L19.5223 389.084L18.792 379.481Z" fill="white" stroke="white" stroke-width="0.726316" stroke-miterlimit="22.9256"/>
<path d="M25.0227 417.595L26.1314 417.34C27.5056 416.374 28.7186 415.551 29.7601 414.864L33.9281 412.127C35.3269 411.196 36.3165 410.425 36.8856 409.799C37.4485 409.182 37.8229 408.52 37.9943 407.824C38.1661 407.127 38.1323 406.243 37.8857 405.173L37.2513 402.425L27.929 404.576C26.1278 404.992 25.0336 405.415 24.6385 405.847C24.251 406.276 24.0451 407.07 24.0298 408.233L22.9211 408.489L20.7236 398.966L21.8324 398.71C22.307 399.68 22.7922 400.305 23.2872 400.588C23.7745 400.873 25.0024 400.784 26.95 400.335L46.4646 395.831C48.4507 395.372 49.5994 394.905 49.9168 394.418C50.2266 393.933 50.39 393.166 50.3994 392.117L51.5082 391.862L53.7056 401.384L52.5969 401.64C52.1103 400.69 51.6211 400.082 51.1203 399.808C50.6192 399.534 49.3989 399.621 47.4433 400.072L39.1833 401.979L39.8087 404.689C40.0894 405.905 40.6795 406.774 41.5649 407.308C42.4575 407.84 44.5344 408.301 47.7931 408.684C50.8625 409.021 53.0625 409.56 54.3985 410.289C55.7252 411.013 56.6505 412.494 57.164 414.718C57.3274 415.426 57.3732 416.397 57.3085 417.628L52.1277 418.824L51.6124 416.591C53.0574 416.072 53.653 415.245 53.3919 414.113C53.2339 413.428 52.772 412.902 52.0115 412.559C51.2496 412.207 49.6611 411.861 47.2494 411.493C45.288 411.216 43.8179 410.923 42.8541 410.61C41.8899 410.297 41.0198 409.76 40.2597 408.995L40.0825 409.036C39.8987 411.682 38.4664 414.014 35.7812 416.045L31.6681 419.127C30.1487 420.272 29.106 421.234 28.5475 422.012C27.9893 422.789 27.7787 423.811 27.9171 425.076L26.8083 425.332L25.0227 417.595Z" fill="white" stroke="white" stroke-width="0.726316" stroke-miterlimit="22.9256"/>
<path d="M33.4846 447.822L34.562 447.457C34.9524 448.143 35.2996 448.626 35.593 448.927C35.8865 449.228 36.2246 449.414 36.5972 449.48C36.9727 449.553 37.4194 449.493 37.9507 449.314C38.4446 449.147 38.9657 448.912 39.5014 448.597C40.037 448.282 40.6322 447.898 41.2699 447.44L43.8226 445.667L40.366 435.452L37.9652 435.43C36.761 435.421 35.8516 435.445 35.26 435.52C34.6655 435.588 34.1364 435.7 33.6876 435.852C32.812 436.148 32.2444 436.59 31.9847 437.179C31.7225 437.759 31.6862 438.539 31.8703 439.502L30.7928 439.867L27.625 430.505L28.7025 430.141C29.106 430.913 29.8254 431.462 30.8462 431.792C31.8667 432.122 33.242 432.316 34.9535 432.371L62.3167 433.304L63.4894 436.769L41.5626 452.495C40.544 453.232 39.7799 453.832 39.2722 454.304C38.7649 454.776 38.4046 455.265 38.1969 455.76C37.987 456.249 37.9176 456.856 37.983 457.568L36.9055 457.932L33.4846 447.822ZM42.4745 435.397L45.5766 444.565L58.31 435.611L42.4745 435.397Z" fill="white" stroke="white" stroke-width="0.726316" stroke-miterlimit="22.9256"/>
<path d="M83.6826 485.146L77.9799 488.066L76.9354 486.027C77.9614 485.085 78.6946 484.176 79.1384 483.31C79.5894 482.44 79.7931 481.59 79.7496 480.76C79.7063 479.93 79.4401 479.046 78.9539 478.096C78.2297 476.683 77.1141 475.666 75.6063 475.044C74.1057 474.419 72.2387 474.275 70.03 474.607C67.8144 474.943 65.3739 475.794 62.6949 477.166C60.0018 478.545 57.8391 479.99 56.2071 481.483C54.5682 482.979 53.5263 484.48 53.0781 485.997C52.6329 487.503 52.7891 489.003 53.5488 490.487C54.1251 491.612 54.7588 492.45 55.4496 493.002C56.1367 493.546 56.9527 493.892 57.9045 494.017C58.856 494.142 60.1201 494.08 61.7115 493.824L62.7559 495.864L56.863 498.881C55.8559 497.764 54.919 496.575 54.0583 495.312C53.1878 494.045 52.3435 492.604 51.5115 490.979C49.7255 487.492 49.5559 484.25 51.0074 481.261C52.4553 478.265 55.5211 475.567 60.204 473.169C63.1434 471.663 65.9546 470.809 68.6416 470.596C71.3247 470.394 73.7324 470.883 75.8638 472.063C77.9948 473.244 79.6983 475.079 80.9803 477.582C81.6213 478.834 82.1489 480.019 82.5553 481.143C82.9729 482.27 83.3423 483.598 83.6826 485.146Z" fill="white" stroke="white" stroke-width="0.726316" stroke-miterlimit="22.9256"/>
<path d="M68.8823 520.777L69.8399 520.163C70.3843 520.734 70.8375 521.119 71.1949 521.34C71.5526 521.561 71.9255 521.66 72.3032 521.634C72.6849 521.614 73.1043 521.449 73.5764 521.146C74.0155 520.865 74.4644 520.511 74.9081 520.076C75.3523 519.642 75.8367 519.125 76.3452 518.526L78.3941 516.19L72.5741 507.111L70.239 507.67C69.0678 507.951 68.1912 508.194 67.6352 508.41C67.0748 508.619 66.5886 508.856 66.1894 509.112C65.4116 509.611 64.9674 510.177 64.8574 510.81C64.743 511.437 64.8962 512.202 65.3073 513.093L64.3497 513.707L59.0156 505.387L59.9733 504.773C60.5511 505.425 61.382 505.784 62.4522 505.858C63.5224 505.932 64.9035 505.788 66.5777 505.428L93.3569 499.728L95.3311 502.807L77.8497 523.361C77.0388 524.322 76.4425 525.089 76.0637 525.67C75.6853 526.251 75.4536 526.812 75.3719 527.343C75.2858 527.868 75.365 528.474 75.6003 529.148L74.6427 529.763L68.8823 520.777ZM74.6071 506.549L79.8304 514.697L90.0253 502.933L74.6071 506.549Z" fill="white" stroke="white" stroke-width="0.726316" stroke-miterlimit="22.9256"/>
<path d="M108.721 522.939L107.826 523.643C107.287 523.122 106.798 522.833 106.368 522.759C105.938 522.685 105.524 522.81 105.126 523.122C104.785 523.391 104.45 523.834 104.121 524.464C103.793 525.094 103.443 525.902 103.073 526.876L100.724 532.992L106.975 532.29C107.91 532.188 108.643 532.085 109.173 531.98C109.703 531.874 110.121 531.767 110.439 531.647C110.753 531.522 111.048 531.36 111.315 531.15C111.694 530.853 111.923 530.492 112.012 530.069C112.103 529.647 111.995 529.139 111.688 528.556L112.582 527.853L117.889 534.606L116.994 535.309C116.5 534.973 115.971 534.736 115.408 534.595C114.85 534.461 114.144 534.393 113.293 534.409C112.436 534.419 111.138 534.505 109.391 534.661L99.7929 535.553L95.8152 546.154C95.253 547.651 94.8663 548.719 94.6622 549.341C94.4519 549.969 94.3016 550.519 94.1988 551.001C94.0957 551.484 94.051 551.951 94.0521 552.413C94.059 552.87 94.1512 553.37 94.3277 553.914L93.4329 554.617L87.1553 546.629L88.0502 545.926C88.5826 546.412 89.0597 546.7 89.481 546.801C89.9019 546.902 90.3323 546.785 90.755 546.453C91.0963 546.185 91.401 545.805 91.6756 545.297C91.9487 544.801 92.2483 544.134 92.5689 543.289L95.4793 535.677L87.0497 536.674C85.6279 536.847 84.6092 537.175 83.9944 537.658C83.5906 537.976 83.3556 538.341 83.2717 538.759C83.1817 539.182 83.2957 539.685 83.6029 540.267L82.7081 540.97L77.3047 534.094L78.1991 533.391C78.6811 533.735 79.1303 533.975 79.5461 534.12C79.9619 534.266 80.4242 534.355 80.9257 534.393C81.4276 534.431 82.0283 534.441 82.7404 534.414C83.4417 534.385 84.6343 534.292 86.319 534.134L96.3883 533.164L100.798 521.399C101.194 520.304 101.471 519.493 101.625 518.961C101.778 518.439 101.883 517.985 101.934 517.603C101.986 517.22 101.989 516.906 101.951 516.664C101.912 516.424 101.837 516.162 101.734 515.891L102.629 515.188L108.721 522.939Z" fill="white" stroke="white" stroke-width="0.726316" stroke-miterlimit="22.9256"/>
<path d="M109.121 571.691L109.945 570.906C110.587 571.363 111.106 571.655 111.499 571.804C111.892 571.953 112.277 571.979 112.642 571.881C113.014 571.789 113.394 571.548 113.8 571.16C114.177 570.801 114.551 570.368 114.904 569.857C115.257 569.345 115.634 568.745 116.019 568.062L117.586 565.378L110.145 557.573L107.959 558.565C106.863 559.064 106.048 559.47 105.543 559.787C105.033 560.099 104.601 560.424 104.258 560.751C103.589 561.389 103.261 562.03 103.273 562.673C103.28 563.31 103.576 564.032 104.15 564.828L103.326 565.613L96.5059 558.46L97.3295 557.675C98.021 558.206 98.9049 558.4 99.9697 558.269C101.034 558.138 102.363 557.733 103.938 557.061L129.143 546.369L131.667 549.017L118.416 572.522C117.803 573.619 117.364 574.486 117.103 575.128C116.842 575.77 116.721 576.366 116.741 576.902C116.757 577.434 116.95 578.014 117.31 578.631L116.486 579.416L109.121 571.691ZM112.034 556.634L118.712 563.638L126.482 550.15L112.034 556.634Z" fill="white" stroke="white" stroke-width="0.726316" stroke-miterlimit="22.9256"/>
<path d="M139.348 612.391C137.285 610.77 135.841 609.143 135.025 607.497C134.208 605.851 133.933 604.117 134.201 602.268C134.469 600.429 135.235 598.368 136.497 596.084C137.766 593.805 139.761 590.922 142.485 587.456C145.194 584.009 147.513 581.389 149.442 579.6C151.371 577.81 153.201 576.555 154.938 575.84C156.682 575.131 158.457 574.968 160.276 575.352C162.089 575.743 164.026 576.742 166.089 578.363L164.917 579.854C164.066 579.185 163.256 578.669 162.491 578.299C161.615 577.892 160.728 577.717 159.825 577.792C158.822 577.867 157.759 578.248 156.647 578.921C155.34 579.703 153.861 580.932 152.206 582.616C150.456 584.396 148.368 586.835 145.938 589.928C143.79 592.661 142.056 595.047 140.732 597.101C139.415 599.161 138.494 600.959 137.965 602.502C137.506 603.79 137.303 604.917 137.364 605.889C137.42 606.737 137.657 607.536 138.078 608.279C138.563 609.132 139.376 610.002 140.519 610.9L139.348 612.391Z" fill="white" stroke="white" stroke-width="0.726316" stroke-miterlimit="22.9256"/>
<path d="M163.751 617.472L164.365 616.514C165.509 616.882 166.345 616.939 166.873 616.687C167.405 616.427 168.145 615.551 169.101 614.061L173.663 606.944L171.661 605.661C170.397 604.85 169.207 604.482 168.095 604.548C166.983 604.613 165.436 605.358 163.46 606.785C160.604 608.97 158.361 610.582 156.71 611.607L156.096 612.564L149.451 608.304L150.065 607.347C151.093 607.865 152.087 608.014 153.058 607.802C154.03 607.589 155.346 606.941 157.01 605.868L159.229 604.456C161.907 602.767 164.423 602.137 166.76 602.575L166.897 602.362C163.395 598.484 162.759 594.792 164.998 591.301C166.695 588.654 168.841 587.326 171.416 587.335C174.002 587.342 177.131 588.521 180.802 590.875L188.969 596.111L188.355 597.069C187.213 596.684 186.36 596.625 185.808 596.9C185.252 597.181 184.501 598.061 183.554 599.537L172.745 616.397C171.688 618.047 171.203 619.153 171.288 619.724C171.377 620.288 171.788 620.964 172.532 621.75L171.918 622.708L163.751 617.472ZM181.871 594.141C181.013 593.488 180.128 592.864 179.216 592.28C174.84 589.474 171.445 589.953 169.032 593.718C167.83 595.594 167.395 597.295 167.728 598.841C168.058 600.376 169.823 602.174 173.016 604.221L174.712 605.308L181.871 594.141Z" fill="white" stroke="white" stroke-width="0.726316" stroke-miterlimit="22.9256"/>
<path d="M197.073 637.081L197.592 636.068C197.739 634.395 197.891 632.937 198.037 631.698L198.63 626.747C198.819 625.077 198.866 623.824 198.755 622.985C198.646 622.157 198.381 621.444 197.959 620.864C197.537 620.284 196.839 619.74 195.862 619.24L193.351 617.954L188.99 626.47C188.147 628.115 187.765 629.224 187.841 629.805C187.92 630.378 188.394 631.047 189.274 631.808L188.755 632.82L180.057 628.366L180.576 627.353C181.623 627.614 182.414 627.646 182.949 627.45C183.48 627.261 184.204 626.264 185.115 624.485L194.245 606.66C195.174 604.846 195.556 603.665 195.389 603.109C195.217 602.56 194.736 601.94 193.94 601.258L194.459 600.245L203.157 604.7L202.639 605.713C201.598 605.473 200.818 605.455 200.286 605.662C199.754 605.869 199.034 606.858 198.119 608.644L194.255 616.189L196.73 617.457C197.841 618.026 198.886 618.135 199.864 617.802C200.846 617.462 202.537 616.17 204.93 613.925C207.166 611.795 208.995 610.46 210.413 609.908C211.822 609.36 213.551 609.606 215.583 610.647C216.229 610.978 217.001 611.569 217.901 612.412L215.477 617.144L213.438 616.1C213.972 614.66 213.723 613.671 212.69 613.142C212.064 612.822 211.364 612.836 210.611 613.196C209.852 613.552 208.563 614.544 206.728 616.151C205.253 617.472 204.081 618.408 203.221 618.943C202.36 619.479 201.389 619.799 200.314 619.887L200.231 620.049C202.136 621.894 202.997 624.492 202.82 627.854L202.527 632.985C202.424 634.885 202.487 636.303 202.722 637.231C202.957 638.159 203.602 638.978 204.659 639.688L204.141 640.7L197.073 637.081Z" fill="white" stroke="white" stroke-width="0.726316" stroke-miterlimit="22.9256"/>
<path d="M246.125 624.73C245.308 624.671 244.503 624.838 243.723 625.244C242.944 625.65 241.545 626.805 239.533 628.721L228.24 639.444C224.82 642.69 222.169 644.719 220.304 645.529C218.428 646.344 216.541 646.373 214.629 645.619C213.468 645.161 212.451 644.574 211.575 643.846L213.74 638.356L216.062 639.271C215.54 640.984 215.908 642.098 217.186 642.602C218.899 643.277 221.03 642.504 223.576 640.289L222.624 622.198C222.473 619.371 222.295 617.56 222.09 616.765C221.878 615.969 221.425 615.289 220.717 614.713L221.135 613.654L230.373 617.297L229.956 618.355C228.521 617.968 227.604 618.268 227.213 619.261C226.85 620.179 226.723 621.751 226.821 623.981L227.383 636.814L235.611 628.567C237.367 626.806 238.454 625.383 238.878 624.31C239.376 623.046 239.037 622.097 237.857 621.47L238.274 620.412L246.543 623.672L246.125 624.73Z" fill="white" stroke="white" stroke-width="0.726316" stroke-miterlimit="22.9256"/>
<path d="M249.87 625.083L273.962 631.924L271.76 639.676L269.579 639.056C269.615 637.687 269.583 636.586 269.475 635.75C269.368 634.915 269.185 634.255 268.938 633.766C268.697 633.287 268.389 632.895 268.031 632.622C267.666 632.345 267.074 632.087 266.261 631.856L263.434 631.053L256.959 653.853C256.711 654.727 256.558 655.439 256.51 655.984C256.46 656.536 256.488 656.988 256.599 657.348C256.718 657.71 256.917 658.021 257.21 658.293C257.504 658.557 257.996 658.878 258.673 659.242L258.362 660.337L248.186 657.447L248.497 656.353C248.973 656.381 249.4 656.379 249.777 656.355C250.152 656.338 250.466 656.271 250.736 656.159C250.996 656.053 251.234 655.882 251.454 655.656C251.666 655.429 251.884 655.097 252.099 654.657C252.312 654.225 252.542 653.559 252.795 652.67L259.269 629.87L256.465 629.074C255.766 628.876 255.169 628.78 254.683 628.782C254.189 628.789 253.693 628.944 253.185 629.26C252.676 629.575 252.156 630.076 251.616 630.76C251.075 631.453 250.5 632.349 249.873 633.46L247.669 632.834L249.87 625.083Z" fill="white" stroke="white" stroke-width="0.726316" stroke-miterlimit="22.9256"/>
<path d="M291.058 667.629L291.258 666.509C292.471 666.412 293.273 666.146 293.664 665.71C294.056 665.267 294.404 664.173 294.715 662.431L296.465 652.632C297.037 649.427 297.436 647.372 297.661 646.473L297.568 646.456L281.75 660.116C281.425 661.935 281.384 663.108 281.626 663.641C281.869 664.166 282.526 664.668 283.582 665.138L283.382 666.258L273.854 664.556L274.055 663.436C275.283 663.342 276.093 663.078 276.491 662.643C276.891 662.201 277.247 661.109 277.558 659.367L281.079 639.652C281.437 637.645 281.458 636.405 281.135 635.922C280.81 635.447 280.169 634.995 279.209 634.575L279.409 633.455L288.936 635.156L288.736 636.276C287.672 636.351 286.92 636.561 286.471 636.915C286.023 637.268 285.624 638.425 285.271 640.4L283.481 650.425C283.079 652.673 282.694 654.562 282.335 656.079L282.467 656.103L298.284 642.443C298.572 640.833 298.604 639.755 298.379 639.218C298.156 638.672 297.501 638.154 296.412 637.647L296.612 636.527L306.093 638.22L305.893 639.34C304.828 639.415 304.076 639.625 303.628 639.979C303.18 640.332 302.781 641.489 302.428 643.464L298.907 663.18C298.582 665 298.541 666.172 298.783 666.705C299.026 667.23 299.683 667.732 300.738 668.202L300.539 669.322L291.058 667.629Z" fill="white" stroke="white" stroke-width="0.726316" stroke-miterlimit="22.9256"/>
<path d="M324.856 671.065L324.942 669.93C326.123 669.711 326.887 669.365 327.232 668.892C327.577 668.412 327.813 667.289 327.947 665.524L328.588 657.095L326.217 656.915C324.72 656.801 323.498 657.041 322.551 657.626C321.602 658.212 320.594 659.601 319.531 661.794C318.054 665.073 316.843 667.556 315.875 669.241L315.789 670.375L307.919 669.777L308.005 668.643C309.157 668.611 310.102 668.271 310.856 667.623C311.61 666.975 312.462 665.78 313.418 664.046L314.702 661.751C316.258 658.994 318.174 657.246 320.439 656.523L320.458 656.271C315.537 654.517 313.226 651.569 313.541 647.433C313.779 644.298 315.039 642.112 317.309 640.898C319.589 639.677 322.904 639.231 327.252 639.562L336.925 640.298L336.839 641.433C335.652 641.635 334.872 641.988 334.517 642.492C334.16 643.004 333.916 644.134 333.783 645.883L332.264 665.852C332.116 667.806 332.214 669.01 332.56 669.472C332.905 669.926 333.588 670.326 334.616 670.666L334.53 671.8L324.856 671.065ZM329.742 641.931C328.677 641.762 327.601 641.633 326.522 641.551C321.339 641.157 318.578 643.189 318.238 647.648C318.07 649.869 318.494 651.574 319.52 652.776C320.538 653.971 322.946 654.717 326.727 655.004L328.736 655.157L329.742 641.931Z" fill="white" stroke="white" stroke-width="0.726316" stroke-miterlimit="22.9256"/>
<path d="M341.829 638.895C344.451 638.829 346.602 639.17 348.28 639.91C349.958 640.658 351.284 641.825 352.249 643.413C353.213 645.001 353.938 647.077 354.422 649.641C354.897 652.205 355.199 655.699 355.311 660.106C355.421 664.489 355.304 667.985 354.959 670.594C354.614 673.202 354.004 675.336 353.122 676.995C352.231 678.653 350.967 679.918 349.321 680.773C347.675 681.637 345.545 682.093 342.923 682.16L342.875 680.264C343.957 680.237 344.911 680.118 345.735 679.916C346.67 679.679 347.465 679.24 348.112 678.607C348.838 677.909 349.414 676.946 349.841 675.71C350.35 674.283 350.705 672.385 350.907 670.041C351.121 667.546 351.182 664.335 351.082 660.402C350.994 656.927 350.801 653.985 350.511 651.558C350.213 649.139 349.775 647.159 349.199 645.632C348.732 644.348 348.169 643.351 347.503 642.64C346.919 642.023 346.228 641.558 345.429 641.254C344.512 640.914 343.33 640.754 341.877 640.791L341.829 638.895Z" fill="white" stroke="white" stroke-width="0.726316" stroke-miterlimit="22.9256"/>
<path d="M399.72 660.596C398.374 660.837 397.122 660.747 395.973 660.334C394.824 659.922 393.873 659.225 393.107 658.262C392.348 657.29 391.854 656.142 391.618 654.82C391.396 653.576 391.487 652.38 391.898 651.223C392.31 650.067 393.009 649.083 393.978 648.267C394.956 647.451 396.106 646.924 397.428 646.688C398.782 646.447 400.023 646.522 401.169 646.919C402.316 647.316 403.263 647.99 404.01 648.94C404.765 649.888 405.258 651.028 405.497 652.366C405.733 653.688 405.642 654.932 405.233 656.104C404.825 657.277 404.133 658.259 403.175 659.049C402.208 659.839 401.057 660.357 399.72 660.596Z" fill="white"/>
<path d="M399.72 660.596C398.374 660.837 397.122 660.747 395.973 660.334C394.824 659.922 393.873 659.225 393.107 658.262C392.348 657.29 391.854 656.142 391.618 654.82C391.396 653.576 391.487 652.38 391.898 651.223C392.31 650.067 393.009 649.083 393.978 648.267C394.956 647.451 396.106 646.924 397.428 646.688C398.782 646.447 400.023 646.522 401.169 646.919C402.316 647.316 403.263 647.99 404.01 648.94C404.765 649.888 405.258 651.028 405.497 652.366C405.733 653.688 405.642 654.932 405.233 656.104C404.825 657.277 404.133 658.259 403.175 659.049C402.208 659.839 401.057 660.357 399.72 660.596Z" stroke="white" stroke-width="0.726316" stroke-miterlimit="22.9256"/>
<path d="M454.92 619.932L456.974 626.002L454.804 626.736C454.022 625.582 453.23 624.724 452.439 624.159C451.644 623.584 450.833 623.259 450.006 623.18C449.178 623.101 448.265 623.235 447.255 623.577C445.75 624.086 444.58 625.041 443.745 626.441C442.907 627.834 442.49 629.66 442.495 631.893C442.503 634.134 442.987 636.673 443.951 639.524C444.921 642.39 446.033 644.741 447.271 646.575C448.511 648.415 449.843 649.666 451.278 650.331C452.702 650.992 454.209 651.057 455.788 650.523C456.986 650.118 457.908 649.614 458.555 649.012C459.194 648.412 459.655 647.655 459.919 646.732C460.182 645.809 460.306 644.549 460.286 642.938L462.456 642.203L464.578 648.475C463.325 649.308 462.012 650.06 460.636 650.726C459.255 651.402 457.706 652.026 455.978 652.611C452.266 653.867 449.034 653.56 446.29 651.685C443.538 649.814 441.319 646.386 439.633 641.402C438.574 638.274 438.141 635.368 438.324 632.679C438.517 629.995 439.353 627.685 440.833 625.75C442.313 623.815 444.379 622.399 447.043 621.497C448.375 621.046 449.625 620.698 450.796 620.461C451.971 620.213 453.34 620.042 454.92 619.932Z" fill="white" stroke="white" stroke-width="0.726316" stroke-miterlimit="22.9256"/>
<path d="M487.714 638.935L487.245 637.899C487.889 637.443 488.335 637.05 488.606 636.729C488.877 636.407 489.029 636.052 489.057 635.675C489.093 635.294 488.991 634.855 488.76 634.344C488.545 633.869 488.259 633.374 487.894 632.871C487.528 632.369 487.087 631.815 486.569 631.225L484.553 628.859L474.727 633.301L474.941 635.693C475.05 636.892 475.163 637.795 475.296 638.377C475.422 638.961 475.586 639.477 475.781 639.908C476.162 640.751 476.658 641.272 477.268 641.473C477.872 641.677 478.652 641.636 479.593 641.358L480.061 642.395L471.056 646.467L470.587 645.43C471.316 644.953 471.792 644.183 472.02 643.135C472.249 642.087 472.306 640.699 472.193 638.991L470.435 611.668L473.768 610.161L491.571 630.438C492.404 631.379 493.076 632.08 493.596 632.539C494.116 632.998 494.637 633.308 495.151 633.466C495.657 633.628 496.269 633.637 496.97 633.502L497.439 634.538L487.714 638.935ZM474.466 631.209L483.285 627.221L473.123 615.429L474.466 631.209Z" fill="white" stroke="white" stroke-width="0.726316" stroke-miterlimit="22.9256"/>
<path d="M495.216 598.893L495.783 599.88C495.191 600.339 494.835 600.781 494.699 601.196C494.564 601.61 494.628 602.039 494.88 602.477C495.097 602.853 495.488 603.249 496.064 603.664C496.64 604.08 497.389 604.543 498.3 605.049L504.014 608.252L504.219 601.965C504.252 601.025 504.255 600.285 504.227 599.746C504.199 599.206 504.153 598.776 504.081 598.444C504.001 598.116 503.884 597.801 503.714 597.507C503.474 597.089 503.15 596.811 502.745 596.661C502.34 596.511 501.822 596.544 501.201 596.765L500.634 595.778L508.079 591.498L508.646 592.484C508.243 592.925 507.932 593.414 507.712 593.951C507.499 594.483 507.33 595.173 507.224 596.017C507.11 596.866 507.009 598.164 506.912 599.915L506.415 609.541L516.335 615.002C517.735 615.773 518.736 616.309 519.323 616.601C519.914 616.899 520.437 617.127 520.899 617.298C521.363 617.47 521.818 617.581 522.275 617.646C522.728 617.705 523.237 617.686 523.801 617.589L524.368 618.576L515.56 623.64L514.993 622.654C515.551 622.196 515.904 621.765 516.065 621.363C516.225 620.961 516.171 620.518 515.904 620.052C515.687 619.676 515.354 619.32 514.892 618.976C514.44 618.633 513.823 618.241 513.033 617.802L505.918 613.828L505.694 622.314C505.66 623.746 505.838 624.801 506.228 625.479C506.484 625.924 506.812 626.209 507.214 626.352C507.619 626.502 508.133 626.461 508.754 626.241L509.321 627.228L501.739 631.587L501.172 630.601C501.582 630.173 501.884 629.763 502.088 629.372C502.292 628.982 502.446 628.537 502.556 628.046C502.665 627.555 502.762 626.962 502.837 626.253C502.91 625.555 502.989 624.361 503.074 622.672L503.562 612.568L492.553 606.512C491.526 605.964 490.764 605.572 490.259 605.344C489.764 605.118 489.33 604.948 488.959 604.843C488.588 604.737 488.278 604.688 488.033 604.691C487.789 604.695 487.519 604.732 487.236 604.794L486.669 603.808L495.216 598.893Z" fill="white" stroke="white" stroke-width="0.726316" stroke-miterlimit="22.9256"/>
<path d="M542.845 605.037L542.186 604.11C542.73 603.538 543.093 603.067 543.297 602.7C543.501 602.332 543.581 601.954 543.537 601.579C543.499 601.198 543.314 600.787 542.989 600.33C542.686 599.905 542.311 599.474 541.856 599.051C541.4 598.629 540.86 598.17 540.239 597.691L537.806 595.756L529.018 602.006L529.688 604.311C530.025 605.467 530.31 606.331 530.552 606.876C530.788 607.426 531.048 607.9 531.322 608.286C531.858 609.04 532.445 609.456 533.083 609.536C533.715 609.62 534.472 609.43 535.342 608.976L536.001 609.904L527.947 615.631L527.287 614.704C527.911 614.095 528.23 613.249 528.252 612.176C528.275 611.103 528.065 609.731 527.625 608.076L520.645 581.601L523.626 579.481L544.996 595.956C545.994 596.719 546.789 597.278 547.388 597.628C547.986 597.979 548.558 598.183 549.092 598.239C549.62 598.3 550.222 598.192 550.884 597.924L551.543 598.852L542.845 605.037ZM528.359 600.002L536.246 594.393L524.007 584.775L528.359 600.002Z" fill="white" stroke="white" stroke-width="0.726316" stroke-miterlimit="22.9256"/>
<path d="M578.047 573.729C575.218 576.697 572.109 578.012 568.748 577.667C565.375 577.323 561.791 575.335 557.994 571.715C556.096 569.906 554.6 568.119 553.519 566.346C552.431 564.578 551.774 562.772 551.529 560.923C551.289 559.067 551.465 557.325 552.052 555.68C552.638 554.034 553.619 552.491 554.982 551.061C557.887 548.014 561.029 546.654 564.401 546.987C567.778 547.314 571.334 549.263 575.073 552.828C577.006 554.671 578.524 556.479 579.623 558.269C580.728 560.053 581.402 561.864 581.653 563.708C581.909 565.546 581.722 567.299 581.108 568.974C580.494 570.648 579.476 572.231 578.047 573.729ZM559.565 566.816L570.697 555.14C569.202 553.824 567.764 552.791 566.388 552.047C565.018 551.297 563.715 550.82 562.504 550.625C561.286 550.425 560.154 550.491 559.117 550.823C558.074 551.15 557.149 551.741 556.342 552.588C554.598 554.418 553.966 556.523 554.453 558.908C554.94 561.294 556.641 563.93 559.565 566.816ZM572.53 556.767L561.321 568.524C564.665 571.668 567.637 573.508 570.254 574.038C572.871 574.568 575.095 573.873 576.921 571.957C577.82 571.014 578.399 569.972 578.673 568.825C578.948 567.679 578.885 566.44 578.496 565.107C578.106 563.776 577.415 562.429 576.421 561.078C575.428 559.727 574.154 558.316 572.598 556.833L572.53 556.767Z" fill="white" stroke="white" stroke-width="0.726316" stroke-miterlimit="22.9256"/>
<path d="M593.049 547.481C593.763 548.042 594.364 548.454 594.849 548.705C595.342 548.961 595.77 549.106 596.15 549.134C596.526 549.168 596.894 549.096 597.256 548.928C597.613 548.756 598.091 548.429 598.69 547.935L599.585 548.638L593.302 556.632L592.408 555.929C592.811 555.02 592.995 554.351 592.953 553.906C592.917 553.466 592.713 553.034 592.337 552.619C591.966 552.196 591.324 551.631 590.429 550.929L574.683 538.554C573.85 537.9 573.211 537.448 572.788 537.206C572.354 536.965 571.984 536.835 571.654 536.807C571.336 536.778 571.022 536.832 570.71 536.959C570.406 537.092 569.95 537.377 569.356 537.814L568.461 537.111L575.559 528.079C577.79 525.24 579.99 523.553 582.171 523.016C584.346 522.485 586.545 523.088 588.763 524.83C590.03 525.826 590.989 526.932 591.654 528.158C592.314 529.389 592.657 530.654 592.673 531.963C592.683 533.267 592.407 534.577 591.821 535.885C591.242 537.198 590.482 538.46 589.54 539.658C588.48 541.007 587.635 542.031 587.005 542.731L593.049 547.481ZM585.495 541.544L587.155 539.433C588.234 538.06 588.942 536.788 589.286 535.621C589.628 534.443 589.569 533.292 589.108 532.165C588.653 531.044 587.732 529.939 586.366 528.865C585.322 528.045 584.345 527.498 583.423 527.226C582.508 526.959 581.646 526.905 580.832 527.059C580.024 527.217 579.262 527.573 578.55 528.109C577.844 528.649 577.176 529.32 576.546 530.122C575.6 531.327 574.917 532.246 574.488 532.894L585.495 541.544Z" fill="white" stroke="white" stroke-width="0.726316" stroke-miterlimit="22.9256"/>
<path d="M619.344 522.113C617.131 525.565 614.329 527.447 610.964 527.749C607.588 528.052 603.69 526.783 599.274 523.952C597.066 522.536 595.258 521.068 593.859 519.532C592.455 518.003 591.466 516.356 590.873 514.587C590.285 512.811 590.126 511.067 590.389 509.34C590.652 507.613 591.321 505.911 592.387 504.248C594.659 500.704 597.484 498.77 600.858 498.456C604.236 498.135 608.098 499.371 612.448 502.16C614.696 503.601 616.53 505.087 617.949 506.635C619.373 508.177 620.38 509.826 620.977 511.589C621.578 513.344 621.728 515.101 621.444 516.862C621.16 518.623 620.461 520.37 619.344 522.113ZM599.885 518.843L608.591 505.262C606.873 504.254 605.264 503.514 603.772 503.045C602.284 502.57 600.915 502.349 599.688 502.389C598.455 502.424 597.356 502.705 596.401 503.228C595.439 503.747 594.644 504.504 594.013 505.488C592.648 507.617 592.429 509.803 593.361 512.053C594.293 514.302 596.464 516.567 599.885 518.843ZM610.7 506.511L601.933 520.185C605.814 522.636 609.082 523.877 611.752 523.899C614.422 523.922 616.473 522.816 617.901 520.588C618.605 519.49 618.975 518.357 619.026 517.179C619.077 516.001 618.78 514.797 618.144 513.563C617.508 512.33 616.573 511.139 615.341 510.002C614.108 508.865 612.589 507.722 610.78 506.562L610.7 506.511Z" fill="white" stroke="white" stroke-width="0.726316" stroke-miterlimit="22.9256"/>
<path d="M613.362 469.229L619.065 472.149L618.021 474.189C616.656 473.907 615.491 473.843 614.529 473.989C613.559 474.131 612.75 474.463 612.102 474.983C611.454 475.503 610.892 476.236 610.406 477.185C609.682 478.599 609.509 480.099 609.885 481.685C610.255 483.268 611.229 484.868 612.789 486.465C614.357 488.067 616.473 489.55 619.152 490.922C621.845 492.302 624.282 493.213 626.447 493.665C628.619 494.12 630.446 494.089 631.938 493.566C633.42 493.047 634.547 492.044 635.307 490.56C635.883 489.435 636.193 488.431 636.237 487.548C636.277 486.672 636.081 485.808 635.626 484.962C635.171 484.117 634.382 483.127 633.245 481.986L634.289 479.946L640.182 482.965C639.864 484.435 639.447 485.89 638.924 487.327C638.405 488.774 637.729 490.301 636.897 491.925C635.111 495.413 632.579 497.444 629.305 498.013C626.028 498.59 622.047 497.678 617.364 495.28C614.425 493.774 612.089 491.992 610.346 489.936C608.613 487.877 607.603 485.638 607.316 483.218C607.028 480.799 607.522 478.344 608.804 475.841C609.445 474.589 610.099 473.469 610.773 472.482C611.443 471.485 612.305 470.409 613.362 469.229Z" fill="white" stroke="white" stroke-width="0.726316" stroke-miterlimit="22.9256"/>
<path d="M624.962 438.598L626.02 439.015C625.9 439.902 625.908 440.55 626.033 440.965C626.158 441.38 626.449 441.741 626.909 442.058C627.363 442.373 628.181 442.755 629.357 443.218L647.988 450.564C648.819 450.892 649.452 451.115 649.878 451.242C650.315 451.362 650.674 451.419 650.972 451.418C651.26 451.421 651.514 451.377 651.727 451.291C651.944 451.215 652.165 451.064 652.401 450.852C652.631 450.636 652.932 450.28 653.295 449.769L654.354 450.186L650.786 459.234L649.728 458.817C649.84 457.952 649.839 457.306 649.721 456.894C649.596 456.48 649.313 456.122 648.855 455.797C648.404 455.475 647.583 455.083 646.392 454.614L624.364 445.929L619.864 457.343L641.892 466.028C642.847 466.404 643.567 466.646 644.039 466.764C644.506 466.872 644.902 466.901 645.217 466.855C645.535 466.802 645.842 466.668 646.128 466.441C646.42 466.217 646.777 465.806 647.207 465.211L648.265 465.628L644.69 474.698L643.631 474.281C643.757 473.294 643.741 472.6 643.574 472.186C643.413 471.774 643.095 471.419 642.615 471.128C642.138 470.83 641.362 470.473 640.303 470.056L621.672 462.71C620.687 462.321 619.945 462.072 619.471 461.961C618.986 461.854 618.594 461.836 618.27 461.904C617.956 461.967 617.671 462.109 617.409 462.32C617.155 462.534 616.801 462.938 616.356 463.527L615.298 463.109L624.962 438.598Z" fill="white" stroke="white" stroke-width="0.726316" stroke-miterlimit="22.9256"/>
<path d="M646.388 428.815L633.222 431.712C631.635 432.066 630.487 432.348 629.784 432.567C629.081 432.787 628.5 433.04 628.05 433.323C627.598 433.614 627.22 433.991 626.918 434.447L625.823 434.137L628.517 424.652L629.611 424.962C629.374 426.406 629.775 427.276 630.817 427.571C631.242 427.692 631.759 427.724 632.347 427.677C632.943 427.633 633.799 427.482 634.926 427.244L644.672 425.199L638.173 418.614C637.285 417.722 636.537 417.058 635.932 416.615C635.332 416.182 634.744 415.883 634.181 415.723C633.642 415.57 633.178 415.611 632.784 415.844C632.389 416.077 632.073 416.496 631.843 417.104L630.748 416.794L633.144 408.357L634.238 408.668C634.286 409.339 634.439 409.957 634.702 410.533C634.968 411.101 635.366 411.724 635.902 412.384C636.426 413.051 637.363 414.064 638.687 415.443L647.487 424.627L654.699 426.675C655.543 426.914 656.24 427.063 656.782 427.119C657.331 427.184 657.784 427.148 658.154 427.032C658.524 426.915 658.855 426.705 659.127 426.413C659.396 426.128 659.724 425.638 660.089 424.961L661.183 425.272L658.296 435.441L657.201 435.13C657.257 434.382 657.249 433.805 657.171 433.414C657.101 433.024 656.936 432.681 656.675 432.385C656.414 432.089 656.039 431.819 655.543 431.571C655.054 431.325 654.375 431.083 653.517 430.839L646.388 428.815Z" fill="white" stroke="white" stroke-width="0.726316" stroke-miterlimit="22.9256"/>
<path d="M652.987 399.993L640.175 404.19C638.631 404.7 637.517 405.095 636.84 405.383C636.162 405.672 635.609 405.982 635.19 406.309C634.769 406.643 634.431 407.056 634.176 407.54L633.056 407.34L634.789 397.634L635.909 397.834C635.817 399.294 636.303 400.119 637.369 400.31C637.804 400.387 638.321 400.368 638.902 400.262C639.49 400.159 640.327 399.923 641.425 399.574L650.918 396.566L643.795 390.663C642.822 389.864 642.011 389.277 641.365 388.897C640.725 388.526 640.11 388.288 639.534 388.185C638.982 388.086 638.525 388.173 638.155 388.444C637.786 388.715 637.513 389.164 637.345 389.792L636.225 389.592L637.767 380.959L638.887 381.159C639.001 381.822 639.215 382.422 639.535 382.968C639.856 383.507 640.314 384.087 640.913 384.691C641.502 385.302 642.534 386.217 643.99 387.456L653.662 395.716L661.043 397.034C661.906 397.188 662.614 397.266 663.16 397.267C663.712 397.278 664.16 397.197 664.516 397.044C664.873 396.891 665.18 396.649 665.422 396.331C665.662 396.021 665.939 395.501 666.234 394.791L667.354 394.991L665.496 405.397L664.376 405.197C664.358 404.447 664.291 403.874 664.175 403.492C664.066 403.111 663.867 402.787 663.578 402.519C663.289 402.25 662.889 402.019 662.371 401.821C661.86 401.626 661.16 401.453 660.282 401.296L652.987 399.993Z" fill="white" stroke="white" stroke-width="0.726316" stroke-miterlimit="22.9256"/>
<path d="M669.433 379.706L668.299 379.62C668.083 378.407 667.737 377.628 667.265 377.283C666.784 376.937 665.661 376.702 663.896 376.567L643.926 375.048C642.005 374.902 640.801 374.993 640.309 375.32C639.824 375.64 639.407 376.337 639.065 377.397L637.931 377.31L639.551 356.001L646.523 356.531L646.349 358.816C644.485 359.268 643.163 359.762 642.377 360.313C641.597 360.871 641.147 361.906 641.031 363.427L640.497 370.445L652.148 371.332C652.134 369.12 652.188 367.16 652.316 365.473C652.848 358.486 656.028 355.218 661.857 355.661C668.088 356.135 670.915 360.225 670.329 367.929L669.433 379.706ZM654.228 371.49L667.801 372.522C667.973 371.402 668.117 370.137 668.225 368.72C668.437 365.923 668.007 363.878 666.941 362.577C665.875 361.283 664.14 360.541 661.761 360.36C657.208 360.014 654.743 362.212 654.382 366.954C654.23 368.955 654.179 370.464 654.228 371.49Z" fill="white" stroke="white" stroke-width="0.726316" stroke-miterlimit="22.9256"/>
<path d="M657.919 338.971L646.21 345.652C644.8 346.463 643.788 347.073 643.182 347.491C642.576 347.91 642.096 348.325 641.751 348.729C641.406 349.141 641.157 349.613 641.005 350.139L639.867 350.167L639.618 340.311L640.755 340.282C640.958 341.731 641.6 342.442 642.682 342.415C643.124 342.403 643.627 342.28 644.175 342.06C644.73 341.841 645.502 341.442 646.508 340.88L655.205 336.028L647.042 331.675C645.928 331.087 645.017 330.675 644.307 330.432C643.606 330.197 642.955 330.087 642.371 330.102C641.81 330.116 641.38 330.293 641.072 330.632C640.765 330.972 640.588 331.467 640.549 332.116L639.411 332.144L639.189 323.378L640.327 323.349C640.572 323.975 640.902 324.52 641.325 324.991C641.747 325.455 642.313 325.93 643.02 326.403C643.72 326.883 644.915 327.572 646.59 328.494L657.722 334.645L665.217 334.456C666.094 334.433 666.804 334.368 667.339 334.259C667.881 334.159 668.304 333.99 668.622 333.769C668.94 333.547 669.194 333.248 669.366 332.889C669.539 332.537 669.706 331.971 669.853 331.217L670.991 331.188L671.258 341.755L670.121 341.784C669.952 341.053 669.772 340.504 669.582 340.154C669.399 339.803 669.139 339.525 668.802 339.32C668.465 339.115 668.026 338.969 667.479 338.88C666.939 338.79 666.219 338.761 665.327 338.783L657.919 338.971Z" fill="white" stroke="white" stroke-width="0.726316" stroke-miterlimit="22.9256"/>
<path d="M666.743 289.433L667.98 299.167L666.851 299.31C666.381 298.048 665.834 297.321 665.203 297.115C664.564 296.917 663.466 296.921 661.89 297.122L638.308 300.118L639.119 306.498C643.094 306.319 647.381 306.403 651.981 306.751C656.581 307.106 660.245 307.612 662.981 308.276C665.71 308.94 667.555 309.741 668.535 310.684C669.508 311.627 670.08 312.749 670.247 314.066C670.414 315.383 670.378 316.598 670.152 317.702L665.512 318.291L665.225 316.034C666.29 315.763 666.77 315.153 666.651 314.22C666.564 313.53 666.134 312.908 665.361 312.337C664.588 311.767 662.805 311.213 660.014 310.684C657.23 310.145 653.906 309.747 650.065 309.479C646.218 309.219 643.442 309.19 641.726 309.408C640.589 309.552 639.836 309.823 639.463 310.213C639.083 310.603 638.893 311.241 638.901 312.124L637.796 312.264L635.401 293.415L636.53 293.272C636.949 294.373 637.409 295.048 637.92 295.309C638.423 295.572 639.612 295.588 641.477 295.351L661.345 292.827C663.163 292.596 664.294 292.285 664.747 291.901C665.192 291.518 665.485 290.747 665.614 289.576L666.743 289.433Z" fill="white" stroke="white" stroke-width="0.726316" stroke-miterlimit="22.9256"/>
<path d="M650.06 274.589L639.926 283.479C638.706 284.555 637.837 285.356 637.327 285.887C636.817 286.418 636.431 286.921 636.173 287.386C635.917 287.859 635.768 288.371 635.724 288.916L634.615 289.173L632.398 279.565L633.506 279.309C633.995 280.688 634.767 281.256 635.821 281.013C636.252 280.913 636.72 280.692 637.213 280.367C637.713 280.041 638.39 279.496 639.262 278.743L646.812 272.25L637.943 269.618C636.734 269.265 635.759 269.044 635.015 268.948C634.281 268.858 633.621 268.88 633.052 269.012C632.505 269.138 632.119 269.397 631.885 269.791C631.652 270.186 631.578 270.706 631.67 271.35L630.561 271.605L628.589 263.061L629.698 262.805C630.063 263.369 630.495 263.837 631.004 264.214C631.51 264.584 632.159 264.936 632.947 265.257C633.729 265.588 635.038 266.024 636.863 266.592L649.002 270.39L656.308 268.704C657.162 268.507 657.844 268.301 658.346 268.088C658.858 267.881 659.238 267.631 659.506 267.35C659.773 267.069 659.961 266.726 660.059 266.338C660.157 265.959 660.208 265.371 660.201 264.603L661.31 264.347L663.687 274.647L662.578 274.903C662.267 274.221 661.981 273.719 661.724 273.414C661.475 273.106 661.164 272.886 660.793 272.753C660.422 272.619 659.963 272.563 659.409 272.586C658.862 272.606 658.151 272.722 657.281 272.923L650.06 274.589Z" fill="white" stroke="white" stroke-width="0.726316" stroke-miterlimit="22.9256"/>
<path d="M650.809 231.379L649.731 231.744C648.46 232.841 647.334 233.78 646.366 234.567L642.491 237.705C641.191 238.77 640.283 239.636 639.779 240.315C639.28 240.985 638.973 241.681 638.872 242.391C638.77 243.101 638.891 243.977 639.243 245.017L640.147 247.689L649.21 244.623C650.961 244.03 652.008 243.501 652.358 243.032C652.701 242.566 652.827 241.755 652.727 240.597L653.804 240.232L656.937 249.489L655.859 249.854C655.29 248.937 654.746 248.363 654.225 248.13C653.712 247.895 652.498 248.105 650.605 248.746L631.634 255.165C629.703 255.819 628.607 256.398 628.339 256.914C628.079 257.427 627.993 258.207 628.088 259.251L627.01 259.616L623.878 250.358L624.955 249.994C625.534 250.891 626.081 251.448 626.607 251.67C627.133 251.893 628.338 251.685 630.239 251.042L638.269 248.325L637.378 245.69C636.978 244.508 636.304 243.702 635.37 243.259C634.429 242.818 632.317 242.566 629.036 242.508C625.948 242.477 623.706 242.16 622.304 241.567C620.912 240.978 619.844 239.596 619.112 237.433C618.879 236.745 618.737 235.784 618.68 234.553L623.716 232.848L624.45 235.018C623.064 235.679 622.553 236.561 622.926 237.661C623.151 238.327 623.663 238.804 624.454 239.071C625.247 239.345 626.862 239.532 629.298 239.659C631.277 239.74 632.769 239.885 633.759 240.101C634.75 240.316 635.669 240.764 636.501 241.45L636.673 241.392C636.594 238.741 637.787 236.277 640.257 233.99L644.044 230.515C645.442 229.225 646.385 228.164 646.863 227.335C647.341 226.505 647.449 225.468 647.186 224.223L648.264 223.858L650.809 231.379Z" fill="white" stroke="white" stroke-width="0.726316" stroke-miterlimit="22.9256"/>
<path d="M644.435 217.482L638.532 220.151L637.644 218.185C639.19 216.81 640.182 215.477 640.622 214.186C641.061 212.895 640.871 211.342 640.05 209.528C637.87 204.705 632.674 204.124 624.448 207.773L629.701 219.392L627.405 220.43L622.171 208.854C614.897 212.576 612.24 216.613 614.206 220.961C614.867 222.423 615.727 223.481 616.794 224.135C617.861 224.788 619.57 225.039 621.92 224.887L622.789 226.809L617.203 229.334C615.023 226.643 613.332 223.975 612.131 221.318C608.856 214.077 612.093 208.252 621.833 203.849C626.685 201.655 630.83 201.003 634.274 201.891C637.719 202.779 640.326 205.19 642.099 209.113C643.167 211.474 643.942 214.263 644.435 217.482Z" fill="white" stroke="white" stroke-width="0.726316" stroke-miterlimit="22.9256"/>
<path d="M604.796 205.89L592.312 184.179L599.299 180.162L600.429 182.128C599.447 183.084 598.702 183.895 598.196 184.569C597.69 185.242 597.361 185.842 597.197 186.365C597.035 186.877 596.983 187.372 597.048 187.817C597.116 188.27 597.36 188.868 597.781 189.601L599.246 192.149L619.793 180.335C620.581 179.882 621.188 179.479 621.602 179.122C622.023 178.761 622.318 178.418 622.49 178.083C622.658 177.74 622.732 177.378 622.712 176.979C622.686 176.585 622.557 176.012 622.326 175.278L623.313 174.711L628.586 183.882L627.599 184.45C627.278 184.096 626.97 183.799 626.684 183.554C626.404 183.305 626.132 183.133 625.86 183.025C625.6 182.92 625.31 182.876 624.996 182.884C624.685 182.899 624.297 182.985 623.836 183.15C623.382 183.311 622.753 183.627 621.951 184.088L601.404 195.902L602.857 198.429C603.22 199.059 603.581 199.545 603.93 199.882C604.289 200.222 604.752 200.456 605.336 200.585C605.921 200.714 606.643 200.718 607.507 200.604C608.378 200.486 609.415 200.245 610.64 199.887L611.782 201.873L604.796 205.89Z" fill="white" stroke="white" stroke-width="0.726316" stroke-miterlimit="22.9256"/>
<path d="M614.136 162.427L608.857 166.181L607.607 164.424C608.859 162.777 609.577 161.278 609.76 159.926C609.943 158.575 609.458 157.088 608.304 155.465C605.236 151.151 600.025 151.58 592.655 156.744L600.045 167.135L597.991 168.596L590.629 158.243C584.206 163.294 582.375 167.767 585.141 171.656C586.07 172.963 587.118 173.836 588.291 174.272C589.464 174.708 591.189 174.626 593.465 174.024L594.688 175.743L589.692 179.296C587.036 177.074 584.862 174.781 583.173 172.405C578.567 165.928 580.623 159.59 589.334 153.395C593.674 150.31 597.616 148.873 601.167 149.082C604.718 149.291 607.739 151.155 610.235 154.664C611.737 156.776 613.034 159.363 614.136 162.427Z" fill="white" stroke="white" stroke-width="0.726316" stroke-miterlimit="22.9256"/>
<path fill-rule="evenodd" clip-rule="evenodd" d="M307.301 274.066C310.439 273.026 317.585 273.483 319.308 275.864C321.46 278.838 319.93 296.816 315.587 299.907C309.092 304.53 311.724 304.361 308.872 307.328C305.745 310.58 300.69 306.498 298.899 304.614C295.405 300.941 296.87 298.486 297.292 293.016C297.834 285.969 299.822 276.546 307.301 274.066ZM278.217 306.919C274.082 307.275 269.004 303.478 268.955 300.186C268.861 293.972 267.81 276.554 272.282 272.015C275.774 268.47 280.747 271.512 285.117 272.12C287.547 278.623 284.701 284.165 282.804 289.624C281.053 294.663 279.153 291.409 278.921 296.775C278.717 301.503 279.519 301.971 278.217 306.919ZM189.776 264.839C193.542 265.117 196.728 266.104 200.393 266.824C205.937 267.912 205.304 267.185 209.227 270.23C212.028 272.404 217.75 280.135 219.166 284.597C216.918 289.924 209.753 293.01 203.989 288.186L204.866 281.506C201.906 281.201 201.106 283.543 200.177 285.132C193.326 283.289 184.365 274.844 189.776 264.839ZM431.178 193.321C428.828 190.545 425.078 188.137 421.453 185.931C399.84 172.778 372.133 170.891 359.561 162.329C357.127 160.671 356.36 160.439 356.065 156.721C355.239 146.312 356.891 143.683 359.38 134.71L354.511 134.682C352.778 138.629 350.814 149.341 349.733 154.079L336.419 211.488C333.386 224.426 330.346 237.018 327.495 250.118C325.854 257.66 325.638 264.098 320.731 267.13C314.761 270.82 307.552 269.852 303.097 265.868C315.455 246.442 296.065 240.632 291.299 250.542C289.651 253.97 289.959 258.808 291.029 262.511C285.125 263.438 284.795 263.517 279.665 265.266C270.666 268.334 268.434 262.728 267.511 271.092C267.209 273.829 266.637 277.247 264.352 278.915C262.451 280.303 262.208 279.873 259.918 279.272C257.22 275.439 259.798 270.218 259.584 264.768C257.909 263.772 255.993 263.162 253.517 263.398C252.639 268.195 254.234 269.743 251.759 274.004C249.176 270.042 246.435 266.939 241.392 266.361C240.707 259.873 244.975 260.253 241.381 253.519L237.603 254.079L236.112 262.9C232.673 261.934 232.824 260.31 230.218 258.251C228.441 256.847 226.402 255.063 224.433 253.731C219.624 250.479 215.419 248.919 208.108 249.291L206.985 242.228C204.079 241.522 202.842 241.294 200.172 242.363C199.397 246.499 202.23 247.539 201.807 252.457C199.616 257.068 185.134 258.119 184.659 262.099C185.189 265.581 185.989 262.296 185.697 266.384C185.6 267.747 185.232 269.321 185.171 271.086C184.87 279.739 190.955 287.101 198.528 290.57C198.852 300.445 189.879 301.558 190.364 313.522C192.271 315.183 194.169 316.477 197.262 314.896C200.33 313.132 199.51 306.738 200.262 303.445C201.204 299.315 203.607 297.038 204.982 294.04C212.981 294.197 213.091 294.532 220.543 292.933C220.986 297.286 221.949 303.106 221.063 307.644C219.895 313.618 211.029 319.711 206.947 323.704C204.489 326.109 201.94 328.59 200.274 331.806C196.213 339.641 194.357 346.318 195.056 356.599C195.888 368.835 203.529 369.75 204.352 376.516C199.97 380.123 198.212 380.371 190.343 387.414C189.264 388.38 188.501 388.737 187.407 389.652C180.263 395.623 170.774 410.801 169.525 420.61C167.93 433.13 168.67 446.018 169.552 458.357C170.292 468.71 165.075 474.355 165.272 483.232C165.361 487.251 166.051 487.352 168.334 489.541C176.442 490.097 175.819 484.532 176.98 478.208C178.066 472.298 179.438 467.329 179.466 460.724C179.521 447.536 177.059 437.323 179.434 424.113C181.348 413.469 184.842 404.785 193.95 398.752C196.545 397.033 197.003 395.715 199.605 394.115C205.864 390.27 213.812 390.41 217.723 383.31C220.846 385.738 221.739 389.049 225.876 390.547C224.676 394.574 220.306 398.72 217.796 400.747C204.382 411.581 211.559 429.552 215.273 442.247C219.644 457.188 216.241 483.74 219.432 492.045C220.639 495.186 226.711 499.453 230.253 496.099C232.205 493.875 230.729 488.049 230.423 485.115C230.054 481.585 229.571 478.298 229 474.714C226.161 456.921 218.496 428.768 225.694 412.49C228.3 406.598 232.638 403.918 237.968 400.978C258.06 389.895 250.845 384.27 268.782 384.348C272.432 384.364 275.988 384.291 279.041 382.926C282.674 381.301 282.952 380.417 285.165 377.628L298.326 376.458C299.657 392.451 293.615 411.012 290.637 426.01C289.263 432.933 282.527 471.79 284.633 476.256C293.375 484.148 296.226 431.761 296.71 426.179C297.483 417.252 302.593 377.339 306.213 372.26C307.203 371.061 319.379 365.973 321.417 364.851C324.25 363.291 325.978 362.135 328.6 360.483C332.438 358.064 333.421 359.636 337.854 358.878C348.702 357.022 366.897 343.139 370.085 353.375C368.448 356.359 362.843 358.384 360.089 361.105L360.77 364.212C365.412 364.329 369.591 362.228 372.257 365.593C374.405 368.304 376.244 369.623 379.904 371.474C386.35 374.732 392.258 377.547 397.783 381.228C403.367 384.948 408.136 388.622 408.592 398.358C408.777 402.302 407.785 406.81 406.067 409.633C403.227 414.298 381.144 438.127 374.832 447.193C372.154 451.04 354.336 478.573 355.814 482.445C358.167 484.986 362.269 485.064 365.853 483.199C367.677 479.369 366.766 473.326 369.065 470.349C369.79 469.41 370.384 469.229 371.309 468.128C378.266 459.849 382.541 451.189 388.657 441.748C396.795 429.184 406.733 420.282 417.996 411.322C423.968 406.571 420.596 392.502 418.624 386.072C417.397 382.072 417.795 378.618 419.508 374.917C421.368 370.9 422.853 370.3 426.281 367.986C432.807 369.185 435.682 374.777 438.839 378.751C442.612 383.502 446.145 385.775 448.731 391.368C451.039 396.361 453.619 401.888 456.788 405.779C463.566 414.099 455.32 432.459 454.106 442.804C453.632 446.846 452.446 448.014 451.029 451.412C447.575 459.703 449.899 468.346 444.584 473.236C442.991 474.701 443.59 474.012 442.47 476.271C440.754 479.734 435.456 487.76 435.252 491.575C437.112 494.731 439.162 496.687 444.165 495.948C446.758 495.565 447.466 495.122 448.321 493.045C453.801 479.717 454.29 467.76 457.785 455.608C458.884 451.787 460.662 449.955 462.657 446.969C464.296 444.514 466.035 441.373 467.585 438.37C470.002 433.689 470.471 433.757 470.539 427.944C470.622 420.88 474.883 409.873 472.782 403.928C468.433 391.623 455.381 390.16 456.869 379.995C458.089 371.664 470.544 372.184 467.605 352.097C473.985 345.546 480.436 346.98 484.506 355.598C488.455 363.96 482.91 369.859 489.495 378.223C493.572 383.402 497.942 388.328 502.768 392.603C519.07 407.042 513.175 417.255 513.985 436.272C514.241 442.297 519.414 450.209 521.432 456.219C524.59 465.621 523.994 470.542 523.584 480.623C523.013 494.676 532.196 490.851 534.962 483.918C541.091 468.56 517.759 432.988 522.197 415.831C523.211 411.908 524.032 407.864 523.821 403.56C523.374 394.455 511.748 385.479 505.483 380.242C488.227 365.817 493.816 356.675 486.699 343.75C480.652 332.769 471.344 340.607 466.138 339.457C463.863 338.299 461.925 334.534 460.047 332.479C454.853 326.797 450.211 321.047 444.273 316.112C434.006 307.58 422.693 300.043 407.207 295.962C391.452 291.81 377.163 293.925 361.853 297.303C352.252 299.421 340.921 302.028 332.297 306.316C329.097 307.907 325.402 308.409 322.556 306.692C320.018 303.536 331.923 255.625 333.724 246.03C334.912 239.702 335.937 232.137 337.406 225.958C338.431 221.649 341.459 224.882 344.305 226.414C352.976 231.084 365.342 229.984 372.538 234.193C375.352 235.84 376.935 237.267 380.083 238.872C388.139 242.979 398.094 246.265 407.159 247.905L407.443 242.368C394.351 239.673 392.252 239.833 381.899 232.581C384.15 207.131 383.745 219.679 389.343 210.37C396.969 213.124 408.295 220.455 417.031 220.218V213.463C407.568 209.755 397.602 211.746 390.21 204.891C390.044 198.397 390.9 185.713 394.781 181.773C406.767 181.748 418.995 192.077 426.97 196.398L431.178 193.321Z" fill="#C82222"/>
</g>
<defs>
<clipPath id="clip0_806_91042">
<rect width="690" height="690" fill="white"/>
</clipPath>
</defs>
</svg>
