<svg id="id-svg" width="690" height="690" viewBox="0 0 690 690" fill="none" xmlns="http://www.w3.org/2000/svg">
<g clip-path="url(#clip0_806_92185)">
<path fill-rule="evenodd" clip-rule="evenodd" d="M345.003 599.957C204.634 599.957 90.4219 485.731 90.4219 344.636C90.4219 204.248 204.634 90.043 345.003 90.043C485.367 90.043 599.579 204.248 599.579 344.636C599.579 480.514 491.33 599.957 345.003 599.957ZM345.003 595.584C207.04 595.584 94.7889 483.318 94.7889 344.643C94.7889 206.661 207.04 94.4165 345.003 94.4165C482.959 94.4165 595.212 206.661 595.212 344.643C595.212 478.192 488.822 595.584 345.003 595.584Z" fill="black"/>
<path fill-rule="evenodd" clip-rule="evenodd" d="M345.013 686.328C533.026 686.328 686.328 533.739 686.328 344.998C686.328 156.262 533.026 3.67236 345.013 3.67236C156.976 3.67236 3.67383 156.262 3.67383 344.998C3.67383 533.739 156.976 686.328 345.013 686.328ZM345.011 630.918C502.504 630.918 630.919 503.1 630.919 344.998C630.919 186.9 502.504 59.0826 345.011 59.0826C187.498 59.0826 59.0827 186.9 59.0827 344.998C59.0827 503.1 187.498 630.918 345.011 630.918Z" fill="#008000"/>
<path fill-rule="evenodd" clip-rule="evenodd" d="M345.013 690C535.048 690 690 535.77 690 344.998C690 154.23 535.048 0 345.013 0C154.954 0 0 154.23 0 344.998C0 535.77 154.954 690 345.013 690ZM345.013 686.328C533.026 686.328 686.328 533.739 686.328 344.998C686.328 156.262 533.026 3.67237 345.013 3.67237C156.976 3.67237 3.67388 156.262 3.67388 344.998C3.67388 533.739 156.976 686.328 345.013 686.328Z" fill="#FFCB00"/>
<path fill-rule="evenodd" clip-rule="evenodd" d="M209.859 612.899L205.639 620.088L204.953 619.675C205.495 617.767 205.746 616.302 205.668 615.295C205.585 614.264 205.218 613.292 204.58 612.334C204.244 611.796 203.444 611.183 202.209 610.455L200.267 609.292L188.271 629.765C187.475 631.133 187.041 632.01 187.013 632.437C186.964 632.865 187.095 633.323 187.353 633.836C187.636 634.368 188.145 634.843 188.897 635.276L189.778 635.792L189.351 636.51L175.561 628.359L175.972 627.664L176.865 628.163C177.624 628.607 178.322 628.843 178.948 628.843C179.395 628.858 179.841 628.712 180.299 628.359C180.626 628.15 181.165 627.365 181.963 626.022L193.957 605.559L192.051 604.444C190.272 603.406 188.756 603.005 187.505 603.293C185.775 603.682 184.164 604.764 182.737 606.553L181.998 606.101L186.215 598.924L209.859 612.899ZM172.165 589.435C164.945 580.748 156.976 585.802 156.976 582.931C157.719 579.314 154.086 575.686 149.743 577.141C149.026 577.849 148.296 572.073 145.412 568.461C141.796 564.843 134.545 561.946 127.343 562.692C122.997 562.692 119.378 562.692 119.378 562.692C116.475 561.946 111.418 561.946 109.981 560.499H109.259C104.924 559.777 101.306 557.614 98.4058 554.009C95.5136 549.657 94.0701 540.257 100.582 537.345C104.199 536.636 110.686 540.257 108.538 540.991C107.809 540.991 106.363 540.991 104.925 542.419C102.013 545.327 104.199 551.092 108.538 551.831C114.316 552.544 113.598 546.035 114.316 548.198C115.048 551.092 118.665 554.009 122.275 555.456C125.878 556.893 129.504 556.157 129.504 556.157C129.504 556.157 128.057 554.713 124.431 550.396C120.095 546.768 120.834 544.601 116.476 538.076C109.982 527.959 104.199 531.579 104.925 529.413C105.626 525.796 102.012 521.444 98.4058 522.173C97.6832 522.173 97.6834 516.4 95.5139 512.787C93.3377 507.717 88.256 504.087 82.4979 502.649C76.7053 501.931 72.3845 499.761 72.3845 499.761C70.2018 499.043 68.0288 498.321 65.8592 496.867L64.4122 496.132C60.8286 494.691 56.4731 491.07 55.013 487.481C52.8533 482.406 53.5791 473.007 60.8285 471.557C65.1398 471.557 70.2018 475.896 68.0289 475.896C67.3244 475.896 66.5916 476.62 64.4122 477.318C60.8286 478.783 61.535 485.292 65.14 486.01C70.2017 487.481 71.6487 483.129 71.6487 485.292C71.6487 488.189 74.5425 492.525 77.4282 494.691C81.0512 496.132 84.6641 496.867 84.6641 496.867C84.6641 496.867 83.2336 495.406 80.3332 490.352C77.4278 485.292 78.8784 483.129 75.9977 475.896C73.0956 467.937 67.3244 464.324 68.0289 463.601C70.9409 458.51 68.0288 454.202 63.693 453.478C63.693 453.478 64.4124 451.308 62.256 446.251C60.0799 441.186 57.1778 436.103 51.4033 433.947C46.3431 431.78 41.2778 428.164 41.2778 428.164C39.8243 426.72 36.9402 424.534 35.4818 423.097L34.7776 422.378C31.8821 419.477 29.7138 415.867 28.9846 411.535C28.2685 406.471 31.1508 397.797 38.3723 398.503C42.7246 398.503 47.0771 405.02 44.1668 404.289C43.4655 403.583 42.7248 403.583 40.5535 404.289C36.2078 406.471 35.482 411.535 39.0985 414.412C43.4656 417.324 46.343 411.535 45.6073 414.412C44.8912 417.324 46.343 421.66 49.2155 424.534C51.4031 426.72 55.013 428.164 55.013 428.164C55.013 428.164 54.2903 426.72 52.8533 420.913C51.4031 415.138 52.853 413.711 52.132 405.739C51.4028 394.177 44.1669 397.082 45.6073 392.73C49.2155 385.494 43.4655 384.792 44.1668 384.045C44.1668 383.345 45.6073 378.267 46.343 373.928C46.343 368.868 44.1667 363.803 39.8243 360.915C38.3724 359.485 32.6109 353.673 32.6109 353.673C31.1508 352.232 27.5445 347.877 26.0861 344.998L25.3568 344.263C23.2053 340.657 21.7502 336.321 22.4729 331.985C23.2054 326.925 28.2689 318.96 34.7776 321.132C38.3727 322.587 39.8245 329.085 39.0985 328.38C38.3726 328.38 36.9403 326.925 34.0448 327.638C30.4185 327.638 28.2685 333.434 31.1508 337.054C34.7772 341.384 39.0986 336.321 37.6681 338.494C36.9405 341.384 36.9405 346.446 39.0985 349.343C40.5537 352.232 43.4656 355.126 43.4656 355.126C43.4656 355.126 43.4656 352.947 43.4656 347.174C42.7249 340.657 44.8912 339.937 46.343 331.985C47.7867 321.132 42.0203 318.959 43.4656 318.255C47.0772 315.346 47.0772 310.268 43.4656 308.833C42.7249 308.12 47.0773 304.507 48.5078 299.45C49.2156 294.383 48.5075 290.041 44.891 284.997C42.0202 279.922 39.0985 275.588 39.0985 275.588C38.3726 273.397 36.2077 269.089 35.4818 266.903V266.174C34.0447 261.836 34.0447 257.501 35.4818 253.161C37.6678 248.108 44.1666 242.312 49.9543 245.932C53.579 248.108 53.5792 255.318 52.8533 253.897C52.1323 253.161 51.4033 252.434 48.5078 251.714C44.8913 250.987 41.2779 256.053 42.7248 260.419C45.6072 265.466 50.6673 261.836 49.2155 263.28C47.0771 265.466 46.3427 270.523 47.0768 274.133C47.7863 277.733 50.6675 280.645 50.6675 280.645C50.6675 280.645 50.667 278.465 52.132 272.676C53.579 266.903 55.013 266.903 58.6327 258.918C62.9637 248.814 57.1774 244.475 59.347 245.189C62.9635 245.189 64.4122 237.987 61.5347 235.798C60.8285 235.798 65.8593 232.198 68.7532 227.839C70.9408 223.513 71.6487 218.443 68.7532 213.38C66.5918 208.318 65.14 200.377 65.14 200.377C64.4124 197.475 63.6928 195.309 64.4122 193.133V192.412C63.6928 188.069 65.1399 183.738 67.3242 180.117C70.2017 175.776 78.8781 171.447 83.2337 176.504C86.1292 180.117 85.3968 187.352 83.9449 185.182C83.2338 184.463 83.2336 183.009 81.0509 182.283C76.7052 180.117 72.3845 184.463 73.0957 188.799C73.8118 194.595 80.3335 191.679 78.1524 193.133C75.2783 195.309 73.8114 199.648 73.8114 203.261C73.8114 206.871 75.278 210.488 75.278 210.488C75.278 210.488 75.9974 208.318 78.8782 203.261C81.051 198.195 83.234 198.195 88.2563 191.679C95.5139 182.283 88.2564 177.947 92.6169 177.947C99.8597 177.213 96.2398 170.013 96.9608 170.013C97.6835 169.271 102.013 167.095 105.626 163.491C109.259 159.852 110.686 155.526 109.981 149.743C108.538 143.965 107.809 135.287 107.809 135.287C107.809 133.108 107.809 131.657 108.538 129.501V128.777C109.259 124.431 112.872 120.095 116.476 117.173C120.095 113.598 130.224 111.418 133.843 117.173C135.287 120.834 131.671 128.054 130.935 125.878C130.935 125.157 130.935 123.72 128.796 122.274C125.158 119.377 120.095 122.274 119.378 127.343C119.378 132.386 125.878 131.657 123.722 132.387C120.834 133.843 117.932 137.456 116.476 141.07C115.756 144.673 116.476 148.296 116.476 148.296C116.476 148.296 117.932 146.862 121.552 142.528C125.158 137.456 127.343 138.186 133.843 133.108C142.538 126.597 139.639 120.834 141.079 120.834C149.743 122.274 146.862 115.048 147.592 114.314C148.296 114.314 153.366 113.598 157.719 110.686C161.322 107.799 164.211 104.198 164.945 98.3894C164.945 92.6132 170.728 78.1505 170.728 78.1505V77.4279C172.884 73.0953 175.789 70.1917 179.403 68.0155C183.74 65.8591 193.146 65.8591 194.595 72.3842C196.035 76.7053 191.699 82.4979 191.699 80.3185C190.96 79.6041 191.699 77.4279 190.252 75.9974C187.353 72.3842 181.579 73.8115 180.117 78.8716C177.948 83.9285 184.463 83.9285 182.284 84.6642C179.403 85.3803 175.79 88.2544 173.602 91.1728C172.165 94.7762 172.165 98.3894 172.165 98.3894C172.165 98.3894 173.602 96.9475 177.948 94.0701C183.011 90.4437 184.463 91.1729 192.413 88.2544C202.545 83.2074 198.208 76.7052 202.545 78.1505C209.762 80.3184 209.762 73.0954 210.498 73.0954C211.217 73.0954 216.271 73.0953 220.618 71.6484C225.677 70.1916 229.296 66.5915 230.747 61.5281C232.919 55.7305 235.811 47.7865 235.811 47.7865C237.258 45.6071 238.692 44.1568 240.136 42.7115V41.9938C243.759 39.0983 247.372 38.3707 251.728 39.0983C256.06 39.8242 259.674 41.9938 257.501 47.0753C256.793 49.9429 253.872 50.6672 253.872 50.6672C253.872 50.6672 253.873 47.7864 249.545 47.0753C249.545 47.0753 246.661 47.0754 245.206 49.2137C243.048 52.1322 246.661 53.5791 245.206 54.2738C237.259 58.6195 237.258 65.8591 237.988 65.1299C246.661 56.4599 259.674 55.0129 259.674 55.0129C262.579 58.6195 268.34 57.9034 268.34 52.8499H273.404C279.922 52.1322 285.712 52.1322 293.661 48.5059C293.661 48.5059 276.289 47.0753 266.903 40.5534C259.673 36.1979 253.162 32.5847 248.092 33.3271C244.475 33.3271 240.868 34.7773 237.988 37.6514C237.258 38.3708 235.076 35.4818 231.492 36.1979C227.123 37.6514 227.841 41.9938 226.409 41.9938C223.517 42.7115 221.35 41.9938 215.554 45.607C210.498 49.2136 210.497 50.6671 203.268 52.1321C196.752 53.5791 193.869 55.0129 193.869 55.0129C193.869 55.0129 196.035 57.1758 198.932 57.1758C201.082 57.9034 205.441 58.6196 209.07 56.4598C209.07 56.4598 208.331 60.0664 211.941 61.5281C214.83 62.2557 217.006 60.799 218.45 58.6196C219.171 57.9035 219.171 55.0129 217.006 53.5791C214.83 52.1322 220.618 51.4029 222.796 52.1321C226.409 53.5791 226.409 57.1759 224.954 60.0664C224.242 61.5281 222.066 64.399 218.45 65.8591C214.83 67.3241 209.071 67.3241 205.441 65.8591C201.813 63.6928 197.482 62.9619 190.96 61.5281C185.184 59.3273 178.68 60.799 173.602 65.1299C168.558 68.0156 168.558 69.4723 166.39 73.8114L165.664 74.5259C164.945 75.2617 162.772 71.6484 159.149 73.8114C155.542 75.9974 156.976 79.6041 155.542 80.3185C152.655 82.4979 151.198 81.7703 146.155 86.0947C141.796 91.1729 142.538 92.6133 135.992 95.5121C129.504 99.1351 127.343 100.566 127.343 100.566C127.343 100.566 130.224 102.013 133.121 102.013C135.287 102.013 138.913 101.301 142.538 98.3894C142.538 98.3894 143.233 102.727 146.862 102.727C150.476 102.727 152.655 99.1351 152.655 96.9474C152.655 94.7762 151.926 94.7763 149.026 94.0701C146.863 93.336 150.475 89.7555 154.821 91.1728C156.976 91.8807 159.149 95.512 159.149 97.6767C158.435 99.8594 156.976 103.469 154.085 105.626C150.475 107.799 145.412 109.252 141.079 108.538C137.456 107.799 133.121 107.799 125.878 107.799C120.095 107.799 113.598 109.981 110.686 114.314C107.07 117.927 105.626 119.377 104.925 125.157L104.199 125.878C104.199 127.343 101.306 125.157 98.4058 128.054C94.8025 130.935 97.6832 133.843 96.2396 135.287C94.07 137.457 91.8808 137.456 89.0066 143.233C85.3967 148.296 86.1291 149.743 81.0509 154.805C75.9973 159.147 73.8114 161.322 73.8114 161.322C73.8114 161.322 77.4283 162.038 79.6044 161.322C81.7723 160.588 85.397 159.147 88.2563 155.526C88.2563 155.526 89.0067 159.852 93.3376 159.147C96.2397 158.421 98.4058 156.262 98.4058 152.655C97.6832 150.466 96.2397 149.743 93.3376 149.743C91.173 149.743 95.5136 145.399 98.4058 145.399C102.012 145.399 103.47 148.296 104.199 151.198C104.199 153.364 103.469 156.974 101.306 159.852C98.4059 162.76 93.3374 165.651 89.7554 165.651C85.3966 165.651 81.0509 167.095 74.5422 168.556C68.7528 170.013 62.2558 175.776 60.8285 180.117C58.6327 185.182 58.6327 188.069 58.6327 191.679V192.412C51.403 192.412 49.2152 196.749 52.132 202.519C52.132 202.519 48.5073 205.441 47.0768 211.938C45.6069 218.443 46.3429 219.169 42.7248 224.954C38.3725 231.49 36.9403 233.625 36.9403 233.625C36.9403 233.625 40.5536 233.625 42.7248 232.198C44.8911 231.49 47.7866 228.578 49.2155 224.242C49.2155 224.242 51.4031 227.135 55.013 226.399C57.9167 224.954 59.3472 222.057 58.6327 219.169C57.9167 216.993 54.2901 215.554 52.132 216.27C51.4028 216.993 54.2903 212.682 56.473 211.938C59.3472 211.217 62.9638 213.38 63.693 216.27C64.4123 218.443 65.1398 222.056 62.9637 225.676C60.8286 229.296 57.1776 232.198 52.8533 233.625C49.2154 235.076 45.6072 237.258 39.0985 240.136C34.045 243.048 28.9846 250.248 28.9846 254.603C28.2685 259.66 28.9848 263.28 30.4186 266.903C23.2053 268.34 21.7502 274.133 26.0861 277.733C26.0861 277.733 23.9311 282.079 23.2051 289.328C23.2051 295.824 24.6457 296.541 22.4729 303.066C19.5757 309.572 19.5754 312.462 19.5754 312.462C19.5754 312.462 22.4728 311.733 24.6456 309.572C26.086 308.12 28.2685 305.208 28.9846 300.887C28.9846 300.887 31.8821 304.507 34.7776 301.598C37.6682 299.45 37.6681 295.094 36.208 292.918C34.045 291.498 32.6109 291.498 31.1508 292.205C28.9845 293.657 31.1509 287.847 33.3271 286.418C36.2078 285.712 39.0984 286.418 40.5535 288.594C42.7248 291.497 42.7247 294.383 42.0201 297.988C41.2777 302.334 38.3727 306.655 34.7776 308.833C31.1512 311.007 28.2686 313.896 23.2051 318.96C18.8627 322.588 15.2495 330.515 16.6899 335.598C17.4125 339.937 17.4124 342.124 19.5754 344.998V345.71C15.2494 350.063 15.2496 355.126 20.2966 358.015C20.2966 358.015 18.1366 363.075 19.5754 369.594C21.0354 376.104 22.4728 376.809 21.7501 383.345C21.0357 390.55 21.0359 393.459 21.0359 393.459C21.0359 393.459 23.9313 392.012 25.3568 389.113C26.8185 387.666 28.2689 384.045 27.5446 379.732C27.5446 379.732 31.151 382.606 34.0448 378.993C35.4819 376.104 34.7771 371.745 32.6109 371.041C29.7137 369.594 29.7142 369.594 27.5446 371.041C25.357 373.182 26.0862 367.413 28.2689 365.258C29.7141 363.075 34.045 363.803 36.208 365.258C37.6681 366.682 39.8243 369.594 39.8243 373.928C39.8243 378.267 38.3724 383.345 35.4818 386.223C32.6109 389.113 30.4187 392.73 26.0861 398.503C23.2054 402.862 21.7503 411.535 23.9314 415.868C26.0862 420.913 26.8185 423.097 30.4186 425.273V426.001C31.1511 426.72 26.8187 428.893 27.5446 432.5C28.985 436.84 32.611 436.841 33.3271 438.286C34.0448 441.186 32.6109 442.631 35.4818 448.396C38.3724 454.925 39.8243 454.925 41.2778 461.422C42.0201 468.67 42.7248 471.557 42.7248 471.557C42.7248 471.557 45.6073 469.384 46.343 466.487C46.343 464.324 47.7867 460.704 45.6073 456.375C45.6073 456.375 49.2156 457.802 51.4033 454.202C52.1325 450.585 50.6675 448.396 48.5078 446.953C47.0773 445.525 44.1669 446.952 43.4656 448.396C43.4656 449.864 40.5537 446.251 43.4656 441.892C44.8912 439.752 48.5078 439.007 50.6675 440.462C52.1325 441.892 55.013 444.069 56.473 447.688C57.1776 452.013 56.4731 457.091 55.013 460.704C52.8533 464.324 51.4031 468.67 49.2155 475.17C47.0771 480.238 47.7868 488.918 51.4033 492.525C54.2905 496.867 56.4731 499.044 60.0797 500.474L60.8285 501.202C61.5348 501.931 57.1774 504.087 59.347 507.717C60.8284 511.34 64.4124 510.611 65.14 512.053C66.5918 514.224 65.8593 516.4 70.2017 521.444C74.5425 526.538 75.9974 525.796 78.8782 532.284C81.772 538.802 83.2337 541.704 83.2337 541.704C83.2337 541.704 84.6641 538.802 84.6641 535.925C85.3966 533.739 84.6642 530.148 82.4979 526.538C82.4979 526.538 86.1295 526.539 86.8374 522.173C86.8374 519.283 84.6642 517.116 82.4979 516.4C81.051 516.4 78.8783 517.116 78.1524 519.282C77.4281 520.729 75.2783 516.4 75.9977 513.496C76.7056 511.34 80.3333 509.157 83.2337 509.883C85.3967 510.611 88.2561 512.053 90.4601 515.669C92.6166 519.283 93.3379 524.349 91.8811 527.959C91.1732 532.283 91.1728 536.636 89.7554 543.846C89.0065 548.93 92.6165 556.893 96.2396 560.499C100.582 563.397 102.747 564.844 107.069 565.569V566.28C105.626 569.166 107.809 573.525 107.809 573.525C111.418 576.402 113.598 574.246 115.048 575.686C117.211 577.849 115.756 578.585 120.834 582.931C126.607 586.531 128.058 585.802 131.671 591.611C135.992 596.664 138.186 598.827 138.186 598.827C138.186 598.827 138.913 595.93 138.913 593.053C138.186 590.865 137.457 587.273 133.843 584.374C133.843 584.374 138.186 583.653 137.457 580.019C137.457 576.402 135.287 575.686 132.403 574.952C130.224 574.246 128.057 575.686 128.057 578.585C127.343 580.019 125.158 576.402 125.158 573.525C125.158 571.336 127.343 568.461 130.224 568.461C132.403 568.461 135.991 569.166 138.913 572.073C141.796 574.952 143.967 580.019 143.233 583.653C143.233 587.988 144.683 592.323 145.412 599.547C145.412 601.746 146.862 610.396 154.821 614.003L158.434 608.949C152.655 606.065 149.743 595.93 155.542 591.611C158.435 589.434 165.664 590.865 163.492 591.611C162.772 592.323 162.041 593.053 161.322 595.224C159.149 599.547 160.601 601.007 162.772 602.45L172.165 589.435ZM345.617 22.4594C343.84 28.3391 335.558 36.6102 340.33 42.8265C342.756 45.9717 347.844 46.5695 350.605 43.0597C355.346 37.0404 347.514 28.1256 345.617 22.4594ZM344.906 53.5281C328.17 53.5281 335.416 32.3778 327.533 30.4004C323.189 29.6728 320.31 32.5814 320.31 32.5814C320.31 17.199 335.96 21.277 336.939 23.1739C336.939 17.1136 340.856 12.019 344.906 7.99023C349.698 11.9943 351.898 16.6488 353.129 22.7797C354.095 22.1047 369.262 17.2762 371.655 31.1098C370.775 30.7485 367.316 29.6728 365.145 30.4004C354.652 33.0561 361.642 53.5281 344.906 53.5281ZM516.435 589.435C523.655 580.748 531.624 585.802 531.624 582.931C530.881 579.314 534.514 575.686 538.857 577.141C539.573 577.849 540.303 572.073 543.186 568.461C546.802 564.843 554.055 561.946 561.255 562.692C565.601 562.692 569.22 562.692 569.22 562.692C572.123 561.946 577.18 561.946 578.617 560.499H579.341C583.673 559.777 587.293 557.614 590.192 554.009C593.086 549.657 594.53 540.257 588.016 537.345C584.399 536.636 577.912 540.257 580.06 540.991C580.789 540.991 582.236 540.991 583.673 542.419C586.585 545.327 584.399 551.092 580.06 551.831C574.284 552.544 575 546.035 574.284 548.198C573.551 551.092 569.935 554.009 566.325 555.456C562.72 556.893 559.096 556.157 559.096 556.157C559.096 556.157 560.542 554.713 564.167 550.396C568.504 546.768 567.765 544.601 572.122 538.076C578.616 527.959 584.399 531.579 583.673 529.413C582.972 525.796 586.585 521.444 590.192 522.173C590.916 522.173 590.916 516.4 593.086 512.787C595.262 507.717 600.343 504.087 606.102 502.649C611.894 501.931 616.215 499.761 616.215 499.761C618.396 499.043 620.569 498.321 622.74 496.867L624.186 496.132C627.771 494.691 632.127 491.07 633.585 487.481C635.746 482.406 635.02 473.007 627.771 471.557C623.46 471.557 618.396 475.896 620.569 475.896C621.274 475.896 622.006 476.62 624.186 477.318C627.771 478.783 627.063 485.292 623.46 486.01C618.396 487.481 616.951 483.129 616.951 485.292C616.951 488.189 614.057 492.525 611.17 494.691C607.548 496.132 603.935 496.867 603.935 496.867C603.935 496.867 605.366 495.406 608.264 490.352C611.17 485.292 609.721 483.129 612.602 475.896C615.504 467.937 621.274 464.324 620.569 463.601C617.657 458.51 620.569 454.202 624.907 453.478C624.907 453.478 624.185 451.308 626.344 446.251C628.52 441.186 631.422 436.103 637.195 433.947C642.255 431.78 647.322 428.164 647.322 428.164C648.774 426.72 651.658 424.534 653.118 423.097L653.822 422.378C656.718 419.477 658.884 415.867 659.613 411.535C660.331 406.471 657.447 397.797 650.227 398.503C645.875 398.503 641.523 405.02 644.431 404.289C645.133 403.583 645.875 403.583 648.044 404.289C652.39 406.471 653.117 411.535 649.501 414.412C645.132 417.324 642.255 411.535 642.991 414.412C643.708 417.324 642.255 421.66 639.384 424.534C637.195 426.72 633.585 428.164 633.585 428.164C633.585 428.164 634.309 426.72 635.746 420.913C637.195 415.138 635.746 413.711 636.465 405.739C637.195 394.177 644.431 397.082 642.991 392.73C639.384 385.494 645.133 384.792 644.431 384.045C644.431 383.345 642.991 378.267 642.255 373.928C642.255 368.868 644.431 363.803 648.774 360.915C650.227 359.485 655.989 353.673 655.989 353.673C657.447 352.232 661.053 347.877 662.513 344.998L663.243 344.263C665.394 340.657 666.849 336.321 666.127 331.985C665.394 326.925 660.331 318.96 653.822 321.132C650.227 322.587 648.773 329.085 649.501 328.38C650.227 328.38 651.658 326.925 654.555 327.638C658.179 327.638 660.331 333.434 657.447 337.054C653.822 341.384 649.501 336.321 650.931 338.494C651.657 341.384 651.657 346.446 649.501 349.343C648.044 352.232 645.132 355.126 645.132 355.126C645.132 355.126 645.132 352.947 645.132 347.174C645.875 340.657 643.708 339.937 642.255 331.985C640.811 321.132 646.579 318.959 645.132 318.255C641.522 315.346 641.522 310.268 645.132 308.833C645.875 308.12 641.522 304.507 640.092 299.45C639.384 294.383 640.092 290.041 643.708 284.997C646.579 279.922 649.501 275.588 649.501 275.588C650.227 273.397 652.39 269.089 653.118 266.903V266.174C654.555 261.836 654.555 257.501 653.118 253.161C650.932 248.108 644.431 242.312 638.645 245.932C635.021 248.108 635.02 255.318 635.746 253.897C636.466 253.161 637.195 252.434 640.092 251.714C643.708 250.987 647.322 256.053 645.875 260.419C642.991 265.466 637.932 261.836 639.384 263.28C641.522 265.466 642.255 270.523 641.523 274.133C640.812 277.733 637.933 280.645 637.933 280.645C637.933 280.645 637.932 278.465 636.465 272.676C635.02 266.903 633.585 266.903 629.967 258.918C625.636 248.814 631.422 244.475 629.253 245.189C625.636 245.189 624.186 237.987 627.063 235.798C627.771 235.798 622.74 232.198 619.846 227.839C617.657 223.513 616.951 218.443 619.846 213.38C622.006 208.318 623.46 200.377 623.46 200.377C624.185 197.475 624.907 195.309 624.186 193.133V192.412C624.907 188.069 623.46 183.738 621.274 180.117C618.396 175.776 609.721 171.447 605.366 176.504C602.469 180.117 603.203 187.352 604.655 185.182C605.366 184.463 605.366 183.009 607.549 182.283C611.894 180.117 616.215 184.463 615.504 188.799C614.787 194.595 608.264 191.679 610.447 193.133C613.321 195.309 614.787 199.648 614.787 203.261C614.787 206.871 613.322 210.488 613.322 210.488C613.322 210.488 612.602 208.318 609.721 203.261C607.548 198.195 605.366 198.195 600.343 191.679C593.086 182.283 600.343 177.947 595.981 177.947C588.74 177.213 592.36 170.013 591.639 170.013C590.916 169.271 586.585 167.095 582.972 163.491C579.341 159.852 577.912 155.526 578.617 149.743C580.06 143.965 580.789 135.287 580.789 135.287C580.789 133.108 580.789 131.657 580.06 129.501V128.777C579.341 124.431 575.727 120.095 572.122 117.173C568.504 113.598 558.374 111.418 554.756 117.173C553.312 120.834 556.929 128.054 557.665 125.878C557.665 125.157 557.665 123.72 559.803 122.274C563.441 119.377 568.504 122.274 569.22 127.343C569.22 132.386 562.72 131.657 564.878 132.387C567.765 133.843 570.667 137.456 572.122 141.07C572.843 144.673 572.122 148.296 572.122 148.296C572.122 148.296 570.668 146.862 567.048 142.528C563.441 137.456 561.255 138.186 554.756 133.108C546.06 126.597 548.96 120.834 547.52 120.834C538.857 122.274 541.737 115.048 541.006 114.314C540.303 114.314 535.233 113.598 530.881 110.686C527.277 107.799 524.387 104.198 523.654 98.3894C523.654 92.6132 517.872 78.1505 517.872 78.1505V77.4279C515.714 73.0953 512.809 70.1917 509.195 68.0155C504.86 65.8591 495.453 65.8591 494.003 72.3842C492.563 76.7053 496.9 82.4979 496.9 80.3185C497.639 79.6041 496.9 77.4279 498.347 75.9974C501.246 72.3842 507.019 73.8115 508.482 78.8716C510.652 83.9285 504.137 83.9285 506.314 84.6642C509.195 85.3803 512.808 88.2544 514.997 91.1728C516.435 94.7762 516.435 98.3894 516.435 98.3894C516.435 98.3894 514.998 96.9475 510.652 94.0701C505.589 90.4437 504.137 91.1729 496.186 88.2544C486.054 83.2074 490.39 76.7052 486.054 78.1505C478.837 80.3184 478.838 73.0954 478.102 73.0954C477.381 73.0954 472.328 73.0953 467.982 71.6484C462.922 70.1916 459.303 66.5915 457.853 61.5281C455.68 55.7305 452.787 47.7865 452.787 47.7865C451.341 45.6071 449.906 44.1568 448.464 42.7115V41.9938C444.841 39.0983 441.227 38.3707 436.872 39.0983C432.537 39.8242 428.924 41.9938 431.099 47.0753C431.805 49.9429 434.727 50.6672 434.727 50.6672C434.727 50.6672 434.727 47.7864 439.054 47.0753C439.054 47.0753 441.939 47.0754 443.394 49.2137C445.552 52.1322 441.939 53.5791 443.394 54.2738C451.341 58.6195 451.341 65.8591 450.61 65.1299C441.939 56.4599 428.924 55.0129 428.924 55.0129C426.019 58.6195 420.26 57.9034 420.26 52.8499H415.196C408.677 52.1322 402.888 52.1322 394.937 48.5059C394.937 48.5059 412.309 47.0753 421.697 40.5534C428.925 36.1979 435.438 32.5847 440.506 33.3271C444.123 33.3271 447.73 34.7773 450.61 37.6514C451.341 38.3708 453.522 35.4818 457.108 36.1979C461.476 37.6514 460.758 41.9938 462.189 41.9938C465.083 42.7115 467.249 41.9938 473.045 45.607C478.102 49.2136 478.102 50.6671 485.332 52.1321C491.847 53.5791 494.731 55.0129 494.731 55.0129C494.731 55.0129 492.563 57.1758 489.667 57.1758C487.516 57.9034 483.159 58.6196 479.529 56.4598C479.529 56.4598 480.268 60.0664 476.658 61.5281C473.768 62.2557 471.592 60.799 470.148 58.6196C469.429 57.9035 469.429 55.0129 471.592 53.5791C473.768 52.1322 467.982 51.4029 465.802 52.1321C462.189 53.5791 462.189 57.1759 463.646 60.0664C464.355 61.5281 466.532 64.399 470.148 65.8591C473.768 67.3241 479.529 67.3241 483.159 65.8591C486.787 63.6928 491.118 62.9619 497.64 61.5281C503.416 59.3273 509.919 60.799 514.997 65.1299C520.041 68.0156 520.042 69.4723 522.208 73.8114L522.935 74.5259C523.654 75.2617 525.827 71.6484 529.45 73.8114C533.057 75.9974 531.623 79.6041 533.057 80.3185C535.944 82.4979 537.4 81.7703 542.443 86.0947C546.802 91.1729 546.06 92.6133 552.608 95.5121C559.095 99.1351 561.255 100.566 561.255 100.566C561.255 100.566 558.374 102.013 555.479 102.013C553.312 102.013 549.686 101.301 546.06 98.3894C546.06 98.3894 545.365 102.727 541.737 102.727C538.124 102.727 535.945 99.1351 535.945 96.9474C535.945 94.7762 536.674 94.7763 539.572 94.0701C541.737 93.336 538.124 89.7555 533.778 91.1728C531.624 91.8807 529.45 95.512 529.45 97.6767C530.165 99.8594 531.624 103.469 534.514 105.626C538.124 107.799 543.186 109.252 547.52 108.538C551.143 107.799 555.479 107.799 562.72 107.799C568.504 107.799 575 109.981 577.912 114.314C581.528 117.927 582.972 119.377 583.673 125.157L584.399 125.878C584.399 127.343 587.293 125.157 590.192 128.054C593.797 130.935 590.916 133.843 592.36 135.287C594.529 137.457 596.717 137.456 599.591 143.233C603.203 148.296 602.469 149.743 607.549 154.805C612.602 159.147 614.787 161.322 614.787 161.322C614.787 161.322 611.17 162.038 608.994 161.322C606.827 160.588 603.203 159.147 600.343 155.526C600.343 155.526 599.591 159.852 595.262 159.147C592.36 158.421 590.192 156.262 590.192 152.655C590.916 150.466 592.36 149.743 595.262 149.743C597.425 149.743 593.086 145.399 590.192 145.399C586.585 145.399 585.13 148.296 584.399 151.198C584.399 153.364 585.13 156.974 587.293 159.852C590.192 162.76 595.262 165.651 598.844 165.651C603.203 165.651 607.549 167.095 614.057 168.556C619.847 170.013 626.344 175.776 627.771 180.117C629.967 185.182 629.967 188.069 629.967 191.679V192.412C637.195 192.412 639.384 196.749 636.465 202.519C636.465 202.519 640.092 205.441 641.523 211.938C642.991 218.443 642.255 219.169 645.875 224.954C650.227 231.49 651.658 233.625 651.658 233.625C651.658 233.625 648.044 233.625 645.875 232.198C643.708 231.49 640.811 228.578 639.384 224.242C639.384 224.242 637.195 227.135 633.585 226.399C630.683 224.954 629.252 222.057 629.967 219.169C630.683 216.993 634.309 215.554 636.465 216.27C637.195 216.993 634.309 212.682 632.126 211.938C629.252 211.217 625.636 213.38 624.907 216.27C624.186 218.443 623.46 222.056 625.636 225.676C627.771 229.296 631.422 232.198 635.746 233.625C639.384 235.076 642.991 237.258 649.501 240.136C654.555 243.048 659.613 250.248 659.613 254.603C660.331 259.66 659.613 263.28 658.179 266.903C665.394 268.34 666.849 274.133 662.513 277.733C662.513 277.733 664.667 282.079 665.394 289.328C665.394 295.824 663.954 296.541 666.127 303.066C669.022 309.572 669.022 312.462 669.022 312.462C669.022 312.462 666.127 311.733 663.954 309.572C662.514 308.12 660.331 305.208 659.613 300.887C659.613 300.887 656.718 304.507 653.822 301.598C650.932 299.45 650.932 295.094 652.39 292.918C654.555 291.498 655.988 291.498 657.447 292.205C659.613 293.657 657.447 287.847 655.271 286.418C652.39 285.712 649.501 286.418 648.044 288.594C645.875 291.497 645.875 294.383 646.579 297.988C647.322 302.334 650.227 306.655 653.822 308.833C657.447 311.007 660.331 313.896 665.394 318.96C669.737 322.588 673.35 330.515 671.91 335.598C671.187 339.937 671.187 342.124 669.022 344.998V345.71C673.35 350.063 673.35 355.126 668.303 358.015C668.303 358.015 670.462 363.075 669.022 369.594C667.564 376.104 666.127 376.809 666.849 383.345C667.564 390.55 667.564 393.459 667.564 393.459C667.564 393.459 664.667 392.012 663.243 389.113C661.781 387.666 660.331 384.045 661.053 379.732C661.053 379.732 657.447 382.606 654.555 378.993C653.118 376.104 653.822 371.745 655.989 371.041C658.884 369.594 658.884 369.594 661.053 371.041C663.243 373.182 662.514 367.413 660.331 365.258C658.884 363.075 654.555 363.803 652.39 365.258C650.932 366.682 648.774 369.594 648.774 373.928C648.774 378.267 650.227 383.345 653.118 386.223C655.989 389.113 658.179 392.73 662.513 398.503C665.394 402.862 666.849 411.535 664.667 415.868C662.513 420.913 661.781 423.097 658.179 425.273V426.001C657.447 426.72 661.781 428.893 661.053 432.5C659.613 436.84 655.989 436.841 655.271 438.286C654.555 441.186 655.989 442.631 653.118 448.396C650.227 454.925 648.774 454.925 647.322 461.422C646.579 468.67 645.875 471.557 645.875 471.557C645.875 471.557 642.991 469.384 642.255 466.487C642.255 464.324 640.811 460.704 642.991 456.375C642.991 456.375 639.384 457.802 637.195 454.202C636.466 450.585 637.932 448.396 640.092 446.953C641.522 445.525 644.431 446.952 645.132 448.396C645.132 449.864 648.044 446.251 645.132 441.892C643.708 439.752 640.092 439.007 637.933 440.462C636.466 441.892 633.585 444.069 632.126 447.688C631.422 452.013 632.127 457.091 633.585 460.704C635.746 464.324 637.195 468.67 639.384 475.17C641.522 480.238 640.811 488.918 637.195 492.525C634.309 496.867 632.126 499.044 628.52 500.474L627.771 501.202C627.063 501.931 631.422 504.087 629.253 507.717C627.771 511.34 624.185 510.611 623.46 512.053C622.006 514.224 622.74 516.4 618.396 521.444C614.057 526.538 612.602 525.796 609.721 532.284C606.827 538.802 605.366 541.704 605.366 541.704C605.366 541.704 603.935 538.802 603.935 535.925C603.203 533.739 603.935 530.148 606.102 526.538C606.102 526.538 602.469 526.539 601.763 522.173C601.763 519.283 603.935 517.116 606.102 516.4C607.549 516.4 609.721 517.116 610.447 519.282C611.17 520.729 613.321 516.4 612.602 513.496C611.894 511.34 608.265 509.157 605.366 509.883C603.203 510.611 600.343 512.053 598.139 515.669C595.981 519.283 595.262 524.349 596.717 527.959C597.425 532.283 597.425 536.636 598.844 543.846C599.591 548.93 595.981 556.893 592.36 560.499C588.016 563.397 585.853 564.844 581.528 565.569V566.28C582.972 569.166 580.789 573.525 580.789 573.525C577.18 576.402 575 574.246 573.551 575.686C571.387 577.849 572.844 578.585 567.765 582.931C561.991 586.531 560.542 585.802 556.929 591.611C552.608 596.664 550.412 598.827 550.412 598.827C550.412 598.827 549.686 595.93 549.686 593.053C550.412 590.865 551.143 587.273 554.756 584.374C554.756 584.374 550.412 583.653 551.143 580.019C551.143 576.402 553.313 575.686 556.195 574.952C558.374 574.246 560.542 575.686 560.542 578.585C561.255 580.019 563.441 576.402 563.441 573.525C563.441 571.336 561.255 568.461 558.374 568.461C556.195 568.461 552.608 569.166 549.686 572.073C546.802 574.952 544.633 580.019 545.365 583.653C545.365 587.988 543.916 592.323 543.186 599.547C543.186 601.746 541.737 610.396 533.778 614.003L530.165 608.949C535.945 606.065 538.856 595.93 533.057 591.611C530.165 589.434 522.935 590.865 525.108 591.611C525.827 592.323 526.557 593.053 527.278 595.224C529.45 599.547 527.997 601.007 525.828 602.45L516.435 589.435ZM224.938 643.623L214.978 639.501L212.633 641.77C211.881 642.534 211.365 643.211 211.114 643.809C210.79 644.617 210.866 645.333 211.35 645.971C211.623 646.359 212.485 646.903 213.9 647.635L213.589 648.402L204.202 644.493L204.519 643.705C205.595 644.001 206.596 643.928 207.542 643.486C208.479 643.076 209.872 641.969 211.731 640.205L231.19 621.696L231.582 621.861L232.139 649.396C232.205 652.025 232.432 653.751 232.813 654.587C233.098 655.22 233.67 655.72 234.488 656.172L234.192 656.952L220.523 651.276L220.825 650.493L221.397 650.729C222.5 651.193 223.346 651.365 223.9 651.224C224.3 651.125 224.595 650.89 224.765 650.454C224.863 650.189 224.929 649.953 224.954 649.636C224.97 649.488 225.019 648.88 224.97 647.799L224.938 643.623ZM224.871 641.783L224.724 630.249L216.346 638.252L224.871 641.783ZM278.761 637.776L276.398 645.773L275.621 645.535C275.703 643.534 275.588 642.079 275.274 641.11C274.951 640.141 274.356 639.267 273.52 638.487C273.057 638.081 272.124 637.661 270.764 637.242L268.58 636.6L261.853 659.372C261.416 660.881 261.224 661.855 261.265 662.27C261.314 662.707 261.547 663.126 261.941 663.55C262.344 663.99 262.966 664.323 263.799 664.563L264.765 664.865L264.535 665.66L249.202 661.104L249.432 660.318L250.422 660.594C251.265 660.843 251.992 660.909 252.588 660.741C253.02 660.643 253.406 660.39 253.79 659.961C254.035 659.657 254.4 658.792 254.828 657.286L261.561 634.528L259.44 633.899C257.473 633.317 255.906 633.307 254.761 633.882C253.161 634.683 251.894 636.13 250.903 638.225L250.074 637.976L252.436 629.983L278.761 637.776ZM300.859 663.188L290.177 661.604L288.463 664.391C287.901 665.317 287.567 666.087 287.466 666.736C287.351 667.578 287.597 668.283 288.228 668.771C288.569 669.078 289.538 669.39 291.092 669.761L290.977 670.576L280.911 669.088L281.026 668.283C282.146 668.25 283.098 667.94 283.903 667.324C284.729 666.673 285.833 665.268 287.189 663.092L301.642 640.402L302.055 640.468L309.207 667.05C309.907 669.569 310.532 671.182 311.125 671.906C311.554 672.44 312.229 672.808 313.133 673.025L313.017 673.859L298.392 671.676L298.507 670.858L299.12 670.957C300.292 671.105 301.138 671.055 301.664 670.809C302.029 670.63 302.234 670.303 302.306 669.853C302.355 669.582 302.355 669.29 302.289 669.011C302.289 668.863 302.142 668.275 301.88 667.219L300.859 663.188ZM300.33 661.415L297.413 650.265L291.223 660.05L300.33 661.415ZM337.888 661.047L337.52 669.572C337.438 671.251 337.471 672.285 337.685 672.714C337.862 673.179 338.203 673.529 338.707 673.811C339.226 674.079 340.172 674.242 341.55 674.306L341.501 675.142L326 674.499L326.014 673.65C327.434 673.716 328.388 673.617 328.912 673.378C329.417 673.148 329.79 672.811 330.019 672.392C330.256 671.975 330.384 670.94 330.456 669.287L331.36 649.33C331.425 647.666 331.376 646.632 331.195 646.173C330.985 645.738 330.655 645.377 330.167 645.109C329.665 644.802 328.716 644.654 327.324 644.592L327.341 643.764L340.673 644.321C345.032 644.485 348.154 645.421 350.01 647.075C351.825 648.718 352.696 650.713 352.596 653.098C352.481 655.069 351.809 656.749 350.509 658.145C349.233 659.493 347.488 660.387 345.293 660.84C343.837 661.104 341.35 661.188 337.888 661.047ZM338.558 646.003L337.97 659.283C338.473 659.332 338.831 659.365 339.088 659.365C340.92 659.447 342.344 658.946 343.39 657.902C344.416 656.87 345.016 655.167 345.117 652.858C345.216 650.578 344.802 648.9 343.853 647.798C342.9 646.698 341.46 646.119 339.488 646.034L338.558 646.003ZM391.513 639.883L392.878 650.437L392.014 650.536C391 647.878 389.511 645.942 387.525 644.699C385.555 643.477 383.422 643.014 381.151 643.319C379.264 643.58 377.592 644.364 376.158 645.678C374.73 646.977 373.739 648.561 373.258 650.425C372.617 652.822 372.463 655.4 372.824 658.174C373.158 660.904 373.838 663.348 374.835 665.489C375.791 667.639 377.088 669.203 378.693 670.159C380.312 671.108 382.268 671.423 384.589 671.108C386.51 670.835 388.189 670.18 389.69 669.127C391.161 668.099 392.617 666.407 394.129 664.098L394.479 666.756C393.011 668.753 391.4 670.297 389.67 671.338C387.926 672.394 385.809 673.074 383.372 673.407C380.136 673.851 377.173 673.572 374.509 672.617C371.818 671.65 369.637 670.032 367.957 667.787C366.293 665.501 365.258 662.98 364.893 660.247C364.532 657.347 364.926 654.476 366.12 651.68C367.272 648.85 369.057 646.53 371.429 644.774C373.838 642.986 376.462 641.9 379.346 641.501C381.481 641.24 383.777 641.386 386.287 641.992C387.727 642.36 388.639 642.508 389.004 642.442C389.457 642.393 389.869 642.155 390.174 641.756C390.485 641.338 390.636 640.782 390.636 639.988L391.513 639.883ZM431.247 632.082L433.011 640.205L432.22 640.381C431.337 638.617 430.519 637.37 429.755 636.689C429.026 635.997 428.092 635.523 426.988 635.265C426.369 635.117 425.379 635.232 423.976 635.523L421.759 636.035L426.822 659.173C427.157 660.71 427.456 661.648 427.699 662.006C427.957 662.349 428.378 662.604 428.916 662.789C429.491 662.968 430.179 662.965 431.024 662.773L432.042 662.553L432.189 663.379L416.558 666.882L416.378 666.077L417.379 665.841C418.236 665.654 418.909 665.345 419.384 664.898C419.707 664.612 419.928 664.19 420.029 663.63C420.112 663.257 419.997 662.31 419.668 660.81L414.582 637.633L412.438 638.131C410.421 638.578 409.05 639.341 408.337 640.389C407.321 641.879 406.894 643.772 407.035 646.068L406.186 646.244L404.419 638.121L431.247 632.082ZM463.168 643.74L453.108 647.752L452.993 651.007C452.977 652.094 453.076 652.937 453.31 653.541C453.632 654.353 454.172 654.802 454.967 654.917C455.431 654.999 456.439 654.802 457.949 654.326L458.267 655.095L448.792 658.864L448.49 658.091C449.442 657.526 450.134 656.764 450.512 655.808C450.899 654.858 451.154 653.101 451.251 650.516L452.518 623.652L452.931 623.487L472.339 642.856C474.195 644.7 475.55 645.77 476.402 646.098C477.046 646.339 477.823 646.326 478.719 646.065L479.028 646.85L465.25 652.332L464.952 651.542L465.518 651.312C466.641 650.882 467.348 650.417 467.66 649.93C467.89 649.58 467.911 649.191 467.758 648.757C467.66 648.524 467.507 648.282 467.315 648.049C467.233 647.918 466.822 647.486 466.07 646.709L463.168 643.74ZM461.834 642.472L453.749 634.306L453.222 645.896L461.834 642.472ZM493.491 622.941L498.129 631.22C498.891 632.595 499.451 633.412 499.803 633.677C500.143 633.915 500.604 634.049 501.181 634.049C501.769 634.059 502.415 633.862 503.171 633.43L504.055 632.938L504.469 633.663L490.544 641.604L490.139 640.859L491.023 640.368C491.785 639.928 492.322 639.432 492.648 638.893C492.888 638.487 492.96 638.047 492.9 637.49C492.867 637.108 492.469 636.226 491.724 634.867L481.85 617.296C481.093 615.924 480.529 615.11 480.189 614.845C479.853 614.594 479.375 614.459 478.818 614.459C478.233 614.459 477.56 614.666 476.821 615.088L475.951 615.584L475.524 614.845L489.451 606.906L489.863 607.648L488.973 608.141C488.202 608.591 487.661 609.079 487.337 609.629C487.099 610.01 487 610.465 487.066 611.035C487.082 611.437 487.508 612.324 488.248 613.638L492.501 621.208L501.9 615.839L497.651 608.268C496.891 606.906 496.312 606.082 496.01 605.837C495.645 605.559 495.171 605.443 494.621 605.443C494.016 605.443 493.349 605.638 492.61 606.078L491.758 606.566L491.321 605.837L505.237 597.875L505.661 598.622L504.78 599.116C504.013 599.563 503.45 600.066 503.148 600.595C502.91 600.972 502.821 601.434 502.879 602C502.912 602.403 503.296 603.267 504.055 604.607L513.935 622.202C514.695 623.57 515.242 624.384 515.582 624.645C515.919 624.897 516.4 625.035 516.967 625.038C517.573 625.038 518.233 624.831 518.986 624.409L519.849 623.914L520.262 624.645L506.349 632.573L505.943 631.846L506.796 631.367C507.582 630.917 508.129 630.412 508.432 629.881C508.668 629.503 508.771 629.022 508.714 628.465C508.665 628.07 508.274 627.201 507.528 625.849L502.887 617.575L493.491 622.941Z" fill="#FFCB00"/>
<path fill-rule="evenodd" clip-rule="evenodd" d="M345.013 631.368C502.674 631.368 630.674 503.368 630.674 344.998C630.674 186.632 502.674 58.6196 345.013 58.6196C187.354 58.6196 59.3477 186.632 59.3477 344.998C59.3477 503.368 187.354 631.368 345.013 631.368ZM345.013 626.786C500.153 626.786 626.105 500.834 626.105 344.998C626.105 189.163 500.153 63.2018 345.013 63.2018C189.875 63.2018 63.9172 189.163 63.9172 344.998C63.9172 500.834 189.875 626.786 345.013 626.786Z" fill="#FFCB00"/>
<path fill-rule="evenodd" clip-rule="evenodd" d="M345.003 596.37C206.607 596.37 94.0029 483.751 94.0029 344.641C94.0029 206.227 206.607 93.6299 345.003 93.6299C483.392 93.6299 595.995 206.227 595.995 344.641C595.995 478.607 489.272 596.37 345.003 596.37Z" fill="#FF0000"/>
<path fill-rule="evenodd" clip-rule="evenodd" d="M240.448 167.583V167.934L240.652 167.755L240.448 167.583Z" fill="#ECEDED"/>
<path fill-rule="evenodd" clip-rule="evenodd" d="M334.293 341.742C355.12 341.742 372.003 358.287 372.003 378.699C372.003 399.107 355.12 415.654 334.293 415.654C313.466 415.654 296.582 399.107 296.582 378.699C296.582 358.287 313.466 341.742 334.293 341.742Z" fill="black"/>
<path fill-rule="evenodd" clip-rule="evenodd" d="M211.826 520.332C210.773 523.628 211.468 525.182 212.297 528.475C207.812 527.173 203.949 525.898 202.865 520.575C201.488 519.876 200.444 518.928 199.694 517.859L198.7 517.359C194.314 515.157 193.438 510.327 194.642 507.4L194.757 506.331C195.951 494.261 209.791 489.282 220.291 491.77C222.797 491.836 226.619 493.565 228.621 494.575C231.671 496.102 235.667 497.552 239.014 496.115C244.442 493.76 247.292 483.187 248.825 478.035L255.163 456.953C257.977 447.593 261.2 437.907 263.664 428.486C264.388 425.692 264.122 419.969 263.812 416.873C263.593 416.267 263.391 415.641 263.201 414.999L261.744 414.401C260.801 414.014 259.887 413.621 258.993 413.224L258.315 413.652C249.607 419.157 238.841 418.09 229.841 413.949C223.81 411.172 217.845 407.994 211.988 404.867C206.8 402.098 201.64 399.28 196.482 396.457C194.108 395.162 191.021 393.247 188.591 392.214C185.886 391.117 182.484 389.181 179.453 389.943C176.438 390.7 176.57 394.686 176.325 397.099C172.643 395.213 170.571 393.935 170.571 389.192C170.571 388.02 170.747 386.596 171.199 385.308C166.416 385.193 160.515 386.381 159.406 391.518C158.771 394.931 160.694 399.058 159.44 403.249C159.489 403.238 159.538 403.217 159.587 403.2L164.158 402.719C163.041 405.706 162.261 408.608 159.085 410.095L158.953 410.369C157.777 412.852 155.775 414.296 153.703 414.913C150.838 419.955 144.256 419.956 142.244 417.303C134.19 416.806 130.215 402.323 131.074 396.021C132.408 386.052 140.804 374.391 149.263 369.251C157.413 364.307 167.561 363.722 176.852 363.836C190.066 364 202.683 367.699 215.467 370.473C219.67 371.4 224.308 371.575 228.6 371.442L228.682 371.438C228.501 369.86 228.35 368.232 228.225 366.549C227.565 357.619 227.549 349.67 228.291 340.787C229.193 330.079 228.357 322.251 226.41 311.561C225.108 304.274 224.009 299.933 219.949 293.881C217.106 289.681 212.475 285.203 207.086 285.06C206.163 285.043 204.426 286.608 203.767 287.17C201.68 288.977 199.73 290.218 197.081 291.033C193.359 292.207 190.257 293.089 186.525 291.213C184.97 290.432 184.11 289.602 183.119 288.244C182.674 287.643 182.249 287.155 181.654 286.697C180.337 285.679 178.737 284.211 178.785 282.425C178.785 281.783 178.959 281.263 179.256 280.826L178.061 276.705C176.592 275.545 175.449 274.335 174.976 272.497C173.792 271.65 172.977 270.503 172.117 269.24C171.097 267.767 170.626 265.929 170.471 264.16L170.422 263.628C168.921 261.689 168.349 258.374 168.349 256.266C168.349 252.486 172.258 250.496 175.012 248.837C177.965 246.971 179.818 243.935 183.485 242.686L186.997 241.798C190.812 240.965 192.694 240.258 194.967 236.974C200.546 229.006 210.851 227.734 219.841 228.119C221.989 228.201 224.122 228.408 226.252 228.671L226.302 228.605L226.466 228.593C228.102 226.626 229.913 224.505 232.252 223.504C235.691 221.975 238.542 221.86 242.028 223.515C245.82 225.33 246.439 227.606 247.075 231.441C247.319 232.975 247.659 235.096 247.756 236.779C251.469 239.366 257.392 244.424 260.118 247.279C272.489 260.306 276.616 274.54 284.333 290.131C287.664 297.693 291.714 303.755 297.224 307.921C299.645 293.963 301.076 279.761 301.076 265.593C301.076 259.961 300.85 254.324 300.338 248.712C298.139 223.959 289.829 188.973 270.028 172.094C264.129 167.336 254.317 161.227 246.564 164.97C242.361 167 241.392 168.839 237.752 173.727L238.076 166.024C238.419 157.842 244.041 151.271 252.097 149.615C265.214 147.211 277.94 155.165 287.25 164.286C286.12 157.672 285.79 150.798 286.859 144.261C288.914 131.841 299.052 114.588 314.054 119.184C317.539 120.251 322.109 122.623 326.746 124.18L318.726 126.118C307.269 128.887 302.984 142.238 302.775 152.678C302.857 162.357 309.665 175.037 313.989 183.597L316.678 189.149C315.865 169.7 324.314 145.711 346.384 154.808C348.763 155.79 352.966 160.047 356.22 162.261L349.222 162.655C328.043 163.856 334.279 192.374 339.205 205.206C340.507 208.569 341.782 211.925 342.918 215.326C344.715 206.134 348.956 196.795 357.356 193.769C361.032 192.545 364.609 192.479 368.104 194.289C372.913 196.786 377.853 201.209 382.453 204.255L371.977 202.746C364.267 201.634 360.526 210.437 359.317 216.691C356.972 226.112 360.406 238.65 362.927 248.151C364.65 240.382 368.606 233.028 376.913 232.795C379.862 232.611 382.576 233.182 385.119 234.708C387.947 236.401 391.67 240.243 395.242 242.864L387.645 242.66C379.919 242.448 378.177 243.46 377.671 251.338C377.06 260.559 379.423 272.228 380.97 282.928C382.779 279.208 385.741 275.961 389.742 275.159C392.169 274.567 394.636 274.888 396.803 276.148C398.58 277.183 400.479 280.17 402.655 282.225L398.512 283.312C392.122 284.991 393.258 293.307 393.258 298.325C393.291 300.258 393.324 302.176 393.324 304.109C393.324 304.208 393.324 304.316 393.324 304.418C397.479 302.919 399.541 301.538 403.403 298.552L405.451 296.973C415.059 289.621 426.932 283.877 439.031 282.279C448.552 281.062 459.694 282.97 468.809 285.753C478.529 288.75 485.748 293.436 494.039 299.158C500.597 303.679 514.58 310.249 520.992 302.226C527.773 293.733 519.35 282.497 514.079 275.606C506.547 265.735 476.039 249.637 463.995 243.056C444.678 232.335 425.404 222.152 415.19 201.36C408.263 187.222 408.23 170.38 416.275 156.704C419.94 150.515 429.78 138.794 437.878 143.458C445.502 147.864 442.613 158.055 439.207 164.189C434.168 173.515 434.439 180.656 441.285 189.329C450.664 201.253 475.861 216.016 489.707 222.655C506.201 230.6 524.357 241.647 535.736 256.298C545.496 268.789 551.139 282.655 549.758 298.629C548.625 312.027 539.927 322.245 528.56 328.673C527.762 329.123 524.602 330.931 523.518 331.97C524.52 332.939 526.62 333.482 526.826 335.589C528.345 345.555 529.439 355.174 529.439 365.276C529.439 376.356 527.54 388.775 526.116 399.805C525.337 405.997 524.022 413.769 524.022 419.944C524.022 428.814 533.197 433.269 533.197 442.305C533.197 448.306 520.365 467.589 516.323 473.352C514.032 476.624 502.932 491.845 502.932 495.567C502.934 495.649 502.939 495.715 502.939 495.715C503.348 498.201 507.566 496.501 509.341 496.501C509.108 502.695 501.602 505.943 496.075 504.429C494.428 507.627 492.022 510.691 489.376 512.969C482.789 518.603 475.244 518.691 467.318 520.774C464.638 521.488 461.822 522.293 459.074 522.568C456.09 522.907 452.328 522.561 449.291 521.876C448.797 523.425 449.39 525.69 449.532 527.291C445.911 526.274 443.408 525.925 442.037 521.817L441.038 521.316C438.856 520.217 437.51 518.489 436.84 516.653L436.709 516.588C430.742 513.6 431.025 505.922 434.209 504.176C434.193 503.926 434.176 503.667 434.176 503.388C434.176 502.092 434.029 502.294 434.814 501.307C437.223 497.727 438.542 496.153 442.436 494.082C446.565 491.834 453.959 489.763 458.634 489.97C463.036 490.213 467.39 491.862 471.711 491.862C476.4 491.862 477.543 491.351 480.449 487.577C484.798 481.906 491.112 468.133 493.527 461.215C495.767 454.798 496.491 450.891 497.017 444.253C497.463 438.657 493.77 433.608 491.837 428.593C489.077 421.634 483.924 413.468 480.112 406.912L474.191 396.504C470.919 401.282 467.528 410.463 466.945 415.951C466.398 421.151 468.64 423.041 466.863 428.908C464.644 436.276 465.409 433.497 458.22 437.531C451.687 441.213 426.741 456.144 424.174 462.273C423.931 462.856 422.588 466.326 423.805 466.783L425.248 467.113C426.147 471.683 423.059 472.377 418.98 472.06C416.991 471.928 414.839 471.15 413.338 469.749C413.305 469.765 413.272 469.798 413.239 469.815C413.124 469.897 412.973 469.997 412.894 470.125C411.109 473.057 410.955 473.944 408.262 476.747C402.62 482.642 397.911 480.618 391.411 482.164C387.318 483.188 376.889 485.214 373.049 484.187C371.599 483.783 370.085 483.256 368.644 482.63C368.401 483.331 368.214 483.914 368.398 484.302L369.418 488.6L365.186 487.444C363.042 486.371 361.776 484.645 361.206 482.839C360.776 482.594 360.378 482.321 360.017 482.026L359.613 482.267L359.761 481.807C358.672 480.846 357.925 479.688 357.473 478.484C352.479 475.817 352.212 469.695 354.426 467.251C354.262 464.894 354.753 462.611 356.069 460.574C359.215 455.693 365.99 453.925 371.413 453.312C375.276 452.877 384.748 452.722 388.553 454.697C397.256 456.792 397.335 454.063 403.468 449.062C411.504 442.487 418.607 433.093 426.116 425.788C430.307 421.654 432.697 417.637 433.303 411.655C434.011 404.447 428.172 390.281 425.01 383.588C422.745 378.835 421.12 372.021 420.19 366.511C402.781 379.555 386.238 401.816 369.659 411.643C358.298 421.81 348.123 426.563 330.781 425.804L326.839 426.341C318.997 427.413 310.981 427.877 303.063 427.661C302.398 431.779 301.141 435.392 299.228 439.659L298.767 440.755C295.061 449.006 288.717 458.95 284.148 466.94C281.142 472.234 277.588 477.956 274.903 483.405C273.591 485.918 271.987 490.251 271.987 493.108C271.987 493.746 272.07 494.752 272.577 495.243C274.446 497.129 277.386 496.58 279.797 496.58C277.53 500.353 276.42 502.302 271.689 503.155C269.948 503.488 267.685 503.588 265.831 502.93C264.384 506.484 260.624 510.667 259.629 511.754C252.814 519.204 243.952 519.726 234.617 520.744C232.594 521.025 230.611 521.529 228.619 522.073C221.585 523.835 217.834 521.137 211.826 520.358V520.332ZM301.489 378.269C301.489 359.626 316.632 344.459 335.296 344.459C353.934 344.459 369.117 359.626 369.117 378.269C369.117 396.929 353.934 412.108 335.296 412.108C316.632 412.108 301.489 396.929 301.489 378.269ZM183.145 276.552L184.937 277.915C185.739 277.654 186.478 277.398 187.463 277.378C188.55 277.345 190.372 277.685 191.334 277.193C195.412 275.125 193.955 271.579 190.582 270.746C189.946 272.356 188.426 273.499 186.563 273.499C186.233 273.499 185.917 273.466 185.615 273.4C185.059 274.02 184.313 274.483 183.411 274.731C183.2 274.78 182.988 274.829 182.779 274.846C182.812 274.944 182.828 275.03 182.845 275.102L183.145 276.552Z" fill="black"/>
<path fill-rule="evenodd" clip-rule="evenodd" d="M303.897 378.269C303.897 395.701 318.058 409.456 335.296 409.653C352.612 409.456 366.7 395.763 366.7 378.269C366.7 360.986 352.569 346.881 335.296 346.881C318.004 346.881 303.897 360.986 303.897 378.269ZM305.831 378.269C305.831 394.632 319.119 407.539 335.296 407.72C351.543 407.539 364.764 394.684 364.764 378.269C364.764 362.054 351.502 348.818 335.296 348.818C319.07 348.818 305.831 362.054 305.831 378.269Z" fill="white"/>
<path fill-rule="evenodd" clip-rule="evenodd" d="M380.528 378.267C380.528 403.204 360.097 423.503 335.296 423.503C310.475 423.503 290.066 403.249 290.066 378.267C290.066 362.978 297.671 349.456 309.299 341.279H309.331C311.532 339.751 313.814 338.39 316.282 337.232L316.266 337.281C316.791 337.058 317.32 336.803 317.844 336.58V336.531C326.053 333.113 335.181 332.188 343.917 333.896C353.787 335.795 362.873 341.031 369.498 348.676L369.465 348.709C369.782 349.08 370.098 349.455 370.403 349.831L370.418 349.814C372.288 352.087 373.924 354.572 375.305 357.205L375.302 357.238C376.286 359.131 376.623 359.621 377.878 363.121L377.891 363.088C379.108 366.487 379.874 370.019 380.254 373.591L380.287 373.579C380.435 375.117 380.528 376.682 380.528 378.267ZM302.686 378.267C302.686 360.286 317.292 345.657 335.296 345.657C353.273 345.657 367.918 360.286 367.918 378.267C367.918 396.27 353.273 410.912 335.296 410.912C317.292 410.912 302.686 396.27 302.686 378.267Z" fill="#FFCB00"/>
<path fill-rule="evenodd" clip-rule="evenodd" d="M207.314 515.638C204.414 514.263 203.557 522.344 209.036 525.092C207.049 520.872 213.015 518.369 207.314 515.638Z" fill="white"/>
<path fill-rule="evenodd" clip-rule="evenodd" d="M198.365 507.569C196.02 506.426 195.311 512.997 199.768 515.234C198.155 511.819 203 509.783 198.365 507.569Z" fill="white"/>
<path fill-rule="evenodd" clip-rule="evenodd" d="M202.465 510.374C199.987 509.195 199.271 516.095 203.942 518.456C202.233 514.848 207.344 512.701 202.465 510.374Z" fill="white"/>
<path fill-rule="evenodd" clip-rule="evenodd" d="M153.553 406.795C152.554 408.997 158.664 409.515 160.656 405.317C157.504 406.905 155.507 402.42 153.553 406.795Z" fill="white"/>
<path fill-rule="evenodd" clip-rule="evenodd" d="M148.759 411.016C147.641 413.524 154.561 414.084 156.808 409.344C153.218 411.15 150.976 406.092 148.759 411.016Z" fill="white"/>
<path fill-rule="evenodd" clip-rule="evenodd" d="M144.196 414.912C143.129 417.275 149.706 417.825 151.858 413.309C148.448 415.025 146.315 410.226 144.196 414.912Z" fill="white"/>
<path fill-rule="evenodd" clip-rule="evenodd" d="M364.939 478.158C362.739 477.11 362.095 483.214 366.251 485.292C364.735 482.084 369.243 480.214 364.939 478.158Z" fill="white"/>
<path fill-rule="evenodd" clip-rule="evenodd" d="M357.303 468.752C354.964 467.627 354.263 474.168 358.72 476.428C357.114 472.994 361.939 470.962 357.303 468.752Z" fill="white"/>
<path fill-rule="evenodd" clip-rule="evenodd" d="M361.228 472.855C358.773 471.685 358.014 478.57 362.725 480.93C361.015 477.319 366.119 475.189 361.228 472.855Z" fill="white"/>
<path fill-rule="evenodd" clip-rule="evenodd" d="M445.694 516.988C443.542 515.958 442.866 522.056 447.031 524.135C445.517 520.936 450.028 519.056 445.694 516.988Z" fill="white"/>
<path fill-rule="evenodd" clip-rule="evenodd" d="M436.277 506.363C433.818 505.183 433.058 512.08 437.767 514.439C436.062 510.831 441.186 508.691 436.277 506.363Z" fill="white"/>
<path fill-rule="evenodd" clip-rule="evenodd" d="M440.632 511.095C438.157 509.908 437.413 516.812 442.107 519.171C440.413 515.556 445.51 513.408 440.632 511.095Z" fill="white"/>
<path fill-rule="evenodd" clip-rule="evenodd" d="M360.538 471.782C361.597 471.342 362.939 471.848 364.092 473.705C365.846 470.59 371.604 465.702 379.425 466.804C373.437 466.436 365.537 471.378 363.749 477.041C364.555 476.565 366.782 476.926 367.63 479.478C369.614 480.547 372.023 481.405 373.684 481.869C376.499 482.623 385.806 481.091 390.843 479.83C395.866 478.636 401.677 480.165 406.548 475.075C411.426 470 409.844 469.227 411.903 467.824C413.935 466.438 413.935 466.438 413.935 466.438C413.935 466.438 414.879 469.376 419.141 469.665C423.395 470 423.21 469.061 423.21 469.061C423.21 469.061 419.141 468.126 421.976 461.335C424.808 454.573 448.541 440.234 457.049 435.437C465.538 430.672 462.86 433.922 464.583 428.199C466.315 422.49 463.944 421.751 464.583 415.679C465.218 409.705 469.002 399.531 472.62 394.586L472.603 394.471C468.55 387.112 465.131 380.841 463.456 374.137C461.551 366.78 458.313 356.887 442.607 357.082C435.048 357.148 428.174 360.384 422.569 364.138L422.286 364.527C422.286 364.527 424.012 375.934 427.159 382.539C430.303 389.189 436.442 403.995 435.67 411.86C434.874 419.711 431.095 424.19 427.785 427.453C424.477 430.669 410.637 446.238 404.976 450.872C399.32 455.485 398.214 459.51 387.677 456.901C383.967 454.57 354.708 452.768 356.894 467.952C357.846 467.162 359.739 468.543 359.988 469.476C362.03 462.997 368.28 460.614 373.314 461.322C366.135 461.683 361.489 465.268 360.538 471.782Z" fill="white"/>
<path fill-rule="evenodd" clip-rule="evenodd" d="M381.821 378.267C381.821 390.164 377.352 401.02 370.006 409.253C392.669 395.075 416.245 354.462 444.211 354.157C461.182 353.978 464.147 365.757 465.722 372.105C467.472 379.081 471.077 385.743 475.242 393.47L476.077 394.988L482.176 405.706C486.829 413.712 492.1 422.78 494.048 427.699C496.209 433.299 499.894 438.059 499.386 444.418C498.879 450.846 498.544 454.031 495.772 461.973C492.921 470.141 485.768 484.525 482.332 489C478.818 493.571 476.917 494.216 471.711 494.216C467.193 494.216 462.987 492.566 458.511 492.321C455.097 492.173 448.082 493.691 443.568 496.149C439.935 498.081 438.913 499.449 436.758 502.648C436.627 502.822 436.555 503.049 436.555 503.364C436.555 503.865 436.522 504.422 436.937 505.261C437.277 505.327 438.956 507.296 439.306 507.572C443.142 500.387 446.9 499.998 453.699 500.121C447.637 500.963 442.001 502.732 440.179 509.783C441.661 510.325 443.303 510.932 443.653 512.473C446.313 505.898 453.535 505.981 458.953 504.332C456.697 505.741 443.684 508.339 444.573 515.606C446.149 515.592 448.695 517.152 448.462 518.73C448.643 518.908 449.004 519.258 449.171 519.384C450.066 519.609 454.811 520.642 458.812 520.185C461.131 519.952 463.705 519.257 466.707 518.456C474.229 516.479 481.746 516.346 487.831 511.143C492.605 507.037 494.632 501.889 494.662 501.84L495.123 500.763C497.288 503.591 505.319 502.004 506.686 498.859C503.836 498.859 501.254 500.168 500.587 496.034C500.574 495.887 500.554 495.711 500.554 495.555C500.554 491.846 505.892 484.079 514.377 471.972C522.283 460.704 530.82 446.147 530.82 442.289C530.82 434.156 521.646 429.824 521.646 419.929C521.646 416.289 522.623 408.503 523.759 399.489C525.321 387.4 527.061 373.714 527.061 365.261C527.061 354.914 526.031 346.126 524.472 335.899C524.39 334.999 521.053 333.777 520.914 332.06C520.848 330.98 521.862 329.713 527.391 326.586C539.321 319.843 546.421 309.865 547.391 298.412C548.613 284.261 544.182 270.949 533.862 257.745C524.617 245.841 509.374 234.752 488.675 224.782C474.671 218.067 448.938 202.888 439.417 190.786C429.113 177.729 434.536 167.819 437.12 163.038C438.337 160.845 443.939 149.692 436.689 145.501C430.994 142.221 422.54 150.771 418.321 157.899C415.526 162.65 407.227 179.688 417.326 200.298C427.301 220.608 446.528 230.629 465.145 240.962C482.575 250.484 508.899 264.881 515.968 274.147C523.709 284.272 529.914 294.849 522.848 303.695C516.376 311.795 503.034 308.233 492.687 301.098C482.723 294.22 476.821 290.696 468.109 288.009C457.754 284.85 447.271 283.607 439.335 284.622C433.106 285.445 420.582 288.373 406.896 298.845L404.857 300.418C400.672 303.654 398.749 305.162 392.273 307.277C392.207 311.741 391.979 316.451 391.325 321.267C396.308 312.022 404.438 317.113 406.521 324.737C397.13 322.397 397.808 330.103 396.873 337.943C396.555 340.865 396.2 343.595 395.709 345.663C393.323 355.057 388.037 365.093 381.453 372.323C381.693 374.261 381.821 376.257 381.821 378.267Z" fill="white"/>
<path fill-rule="evenodd" clip-rule="evenodd" d="M245.526 162.813C254.349 158.557 264.901 164.897 271.53 170.238C287.925 184.215 299.593 213.477 302.702 248.485C303.206 254.01 303.447 259.701 303.447 265.577C303.447 279.528 302.06 294.383 299.274 309.946C300.629 310.841 302.017 311.575 303.405 312.186C306.271 296.493 307.734 281.425 307.734 267.144C307.734 260.724 307.425 254.447 306.852 248.388C303.239 211.928 290.925 182.736 273.135 168.302C266.452 163.329 253.53 156.854 245.526 162.813Z" fill="#FFCB00"/>
<path fill-rule="evenodd" clip-rule="evenodd" d="M289.59 170.201C280.723 160.138 266.748 149.331 252.534 151.936C245.255 153.432 240.728 159.353 240.445 166.11C249.406 154.079 264.242 159.988 273.969 167.208C292.055 181.904 304.531 211.432 308.207 248.248C310.327 270.264 308.635 290.874 304.757 312.581C308.068 313.844 311.692 314.468 315.214 314.923C323.761 270.434 320.195 240.21 302.207 200.123C297.987 190.001 293.377 180.554 289.59 170.201Z" fill="white"/>
<path fill-rule="evenodd" clip-rule="evenodd" d="M311.364 338.392C313.057 337.369 314.841 336.444 316.669 335.648C321.297 316.544 325.485 295.111 325.485 273.068C325.485 246.418 318.045 222.51 306.795 198.447C300.303 183.679 290.924 169.318 290.696 152.655C290.975 139.843 297.422 120.151 313.353 121.442C299.869 117.309 290.975 133.901 289.201 144.634C287.901 152.573 288.745 161.305 290.806 169.737C294.058 180.092 299.808 190.829 303.469 199.597C318.142 232.359 323.81 258.074 319.843 293.858L319.712 294.958C317.95 309.627 314.923 324.079 311.364 338.392Z" fill="#FFCB00"/>
<path fill-rule="evenodd" clip-rule="evenodd" d="M318.247 334.999C321.499 333.693 324.958 332.773 328.535 332.245C332.424 316.025 335.715 299.798 336.008 283.103V283.087C336.014 282.712 336.024 282.305 336.024 281.916C336.024 257.909 330.501 234.223 322.998 211.581C321.499 206.915 320.538 204.582 319.269 199.948L311.85 184.632C305.995 173.038 300.467 162.046 300.393 152.67C300.63 140.877 305.64 126.822 318.164 123.795C300.467 117.853 292.349 138.327 292.064 152.658C292.266 169.131 301.649 183.293 308.038 197.895C314.524 211.732 321.57 228.283 324.554 245.986C330.131 277.089 324.652 308.282 318.247 334.999Z" fill="white"/>
<path fill-rule="evenodd" clip-rule="evenodd" d="M329.994 332.062C331.533 331.883 333.111 331.77 334.681 331.755C338.235 316.667 341.646 299.867 341.646 282.553C341.646 276.357 341.224 270.078 340.193 263.801C337.151 245.485 333.756 227.399 327.343 209.951C324.498 202.151 321.568 194.154 321.568 185.824C321.568 172.937 328.908 151.249 345.471 156.993C320.726 146.792 315.05 184.164 321.245 201.647L324.278 211.13C331.862 234.102 337.435 257.959 337.367 282.323V283.141V283.174C337.09 299.729 333.824 315.938 329.994 332.062Z" fill="#FFCB00"/>
<path fill-rule="evenodd" clip-rule="evenodd" d="M336.097 331.755C338.883 331.821 341.634 332.098 344.265 332.632C348.117 319.217 351.766 303.887 351.766 288.848C351.766 287.057 351.751 285.281 351.618 283.501C350.841 271.213 348.394 260.168 345.761 248.983C344.354 242.791 342.835 234.752 342.835 226.667C342.835 225.497 342.867 224.323 342.933 223.195C342.348 221.262 341.765 219.332 341.107 217.427C339.819 213.41 338.397 209.696 336.985 206.047C331.686 192.244 325.324 161.614 349.085 160.269C332.177 148.769 322.914 172.485 322.914 185.798C322.914 193.901 325.828 201.808 328.636 209.473C335.078 227 338.531 245.165 341.539 263.581C342.577 269.93 343.025 276.288 343.025 282.566C343.025 299.867 339.632 316.667 336.097 331.755Z" fill="white"/>
<path fill-rule="evenodd" clip-rule="evenodd" d="M345.62 332.908C346.781 333.172 347.957 333.481 349.079 333.825C352.859 320.485 356.453 305.205 356.453 289.688C356.453 287.566 356.388 285.436 356.25 283.317C355.959 273.593 353.589 263.834 351.29 254.431C348.806 244.458 346.452 234.864 346.452 225.4C346.452 217.947 348.222 207.234 352.755 201.154C356.223 196.674 361.61 194.877 367.004 196.386C364.146 194.903 361.262 194.957 358.117 196.005C347.265 199.916 344.189 216.486 344.189 226.667C344.189 234.64 345.682 242.583 347.075 248.666C349.759 259.907 352.158 271.019 352.983 283.402C353.098 285.235 353.152 287.032 353.152 288.848C353.152 304.006 349.456 319.416 345.62 332.908Z" fill="#FFCB00"/>
<path fill-rule="evenodd" clip-rule="evenodd" d="M350.363 334.25C352.105 334.846 353.81 335.548 355.438 336.328C361.091 325.166 364.394 315.167 365.432 305.847C366.552 296.254 365.58 286.49 364.479 278.186C363.602 271.94 362.569 264.535 362.822 257.182C362.221 254.828 361.618 252.523 361.015 250.233C357.575 237.109 354.604 225.755 357 216.131C358.409 208.813 362.978 199.032 372.312 200.377C369.544 198.545 365.432 196.5 361.262 197.354C357.574 198.008 355.195 200.233 353.81 201.966C343.478 215.924 349.021 239.625 352.575 254.111C354.924 263.591 357.333 273.404 357.614 283.253C358.81 301.12 354.72 318.96 350.363 334.25Z" fill="white"/>
<path fill-rule="evenodd" clip-rule="evenodd" d="M356.65 336.929C357.679 337.446 358.656 338.019 359.65 338.607C365.495 327.022 368.844 316.452 369.914 306.471C371.25 296.73 369.766 286.873 368.344 277.238C367.313 270.337 366.293 263.697 366.293 257.16C366.293 247.073 369.65 231.755 383.892 236.729C382.013 235.603 379.823 234.98 377.036 235.151C366.153 235.458 364.123 251.215 364.123 259.43C364.123 265.832 365.038 272.172 365.836 278.014C366.597 283.732 367.316 290.161 367.316 296.769C367.316 299.836 367.168 302.933 366.782 305.993C365.728 315.491 362.386 325.623 356.65 336.929Z" fill="#FFCB00"/>
<path fill-rule="evenodd" clip-rule="evenodd" d="M360.784 339.353C362.978 340.79 365.038 342.423 366.937 344.172C370.634 338.395 373.269 332.917 374.941 327.462C377.689 319.058 378.321 310.505 379.001 301.424C379.192 298.601 379.421 295.733 379.697 292.831C378.604 276.505 374.565 262.155 375.293 251.168C375.887 241.941 378.681 240.023 387.704 240.267C373.258 229.661 367.652 246.346 367.652 257.149C367.652 263.591 368.67 270.157 369.682 277.043C371.104 286.812 372.594 296.77 371.277 306.629C370.172 316.843 366.766 327.543 360.784 339.353Z" fill="white"/>
<path fill-rule="evenodd" clip-rule="evenodd" d="M367.919 345.116C368.727 345.914 369.486 346.711 370.246 347.57C374.405 341.168 377.322 335.002 379.113 328.837C382.029 319.328 382.395 309.574 382.709 300.089C382.907 294.114 382.252 285.528 386.551 280.581C388.554 277.978 392.587 277.191 395.603 278.186C394.085 277.304 392.241 276.979 390.286 277.46C386.215 278.275 382.646 282.875 381.546 288.604C380.989 292.902 380.674 297.302 380.36 301.534C379.734 310.268 379.021 319.328 376.256 327.855C374.511 333.498 371.756 339.161 367.919 345.116Z" fill="#FFCB00"/>
<path fill-rule="evenodd" clip-rule="evenodd" d="M371.181 348.662C373.071 350.961 374.73 353.4 376.149 356.011C382.822 346.211 384.482 335.336 389.44 324.586L389.457 324.553C390.694 317.476 390.948 310.442 390.948 304.096C390.948 302.096 390.915 300.181 390.882 298.345C390.882 292.031 389.899 283.105 397.91 281.001C395.223 278.467 389.99 278.36 387.63 281.455C383.582 286.066 384.274 294.613 384.08 300.13C383.745 309.69 383.401 319.572 380.415 329.221C378.586 335.625 375.533 342.019 371.181 348.662Z" fill="white"/>
<path fill-rule="evenodd" clip-rule="evenodd" d="M376.949 357.565C377.417 358.458 377.831 359.377 378.225 360.309C378.879 359.365 379.493 358.409 380.05 357.427C384.859 349.35 387.623 340.113 389.934 331.044C390.998 326.233 394.562 315.645 402.171 319.115C394.583 313.425 389.456 327.344 388.32 331.387C385.17 340.389 382.343 349.591 376.949 357.565Z" fill="#FFCB00"/>
<path fill-rule="evenodd" clip-rule="evenodd" d="M378.832 361.842C379.882 364.629 380.673 367.526 381.169 370.55C387.272 363.535 392.117 354.264 394.366 345.354C394.891 343.367 395.205 340.626 395.535 337.796C396.21 332.086 396.044 321.473 404.16 322.836C397.589 313.272 392.485 326.252 391.279 331.378C388.894 340.544 386.116 349.889 381.212 358.096C380.527 359.365 379.739 360.615 378.832 361.842Z" fill="white"/>
<path fill-rule="evenodd" clip-rule="evenodd" d="M303.795 412.51C294.563 403.998 288.772 391.817 288.772 378.267C288.772 362.065 297.069 347.793 309.643 339.469C311.373 331.862 313.37 324.227 314.869 316.575C298.181 315.333 288.75 306.05 282.163 291.098C274.664 275.952 270.673 261.836 258.39 248.901C255.046 245.403 245.752 238.28 245.642 238.209L245.419 238.017L245.402 237.717C245.402 237.684 245.228 234.98 244.722 231.804C244.213 228.741 243.976 227.071 240.997 225.645C237.883 224.164 235.705 224.555 233.204 225.661C230.652 226.754 227.701 230.866 227.637 230.871L227.412 231.214L227.012 231.149C226.996 231.149 223.588 230.64 219.734 230.475C211.453 230.122 201.905 231.185 196.911 238.319C194.301 242.087 191.992 243.123 187.517 244.097L184.111 244.961C181.253 245.935 178.947 249.142 176.267 250.834C174.516 251.89 170.722 253.746 170.722 256.247C170.722 257.977 171.394 261.899 172.885 262.69C173.576 263.068 174.368 263.334 174.68 262.773C175.462 261.362 176.764 259.851 176.705 258.622C177.623 260.805 176.266 262.618 175.409 263.919C174.814 264.821 173.412 264.109 172.832 263.93C172.931 265.014 173.21 266.632 174.066 267.87C174.999 269.235 175.79 270.38 177.127 270.981C177.305 273.277 178.88 274.368 180.514 275.563C180.299 274.54 179.683 272.728 179.985 271.773C180.034 271.625 180.051 271.459 180.116 271.308C180.313 271.275 180.522 271.242 180.729 271.209C181.09 272.136 181.944 272.633 182.806 272.41C183.798 272.136 184.383 271.375 184.383 270.265V270.15C184.383 270.019 184.383 269.858 184.334 269.7L184.68 269.511C184.973 270.516 185.679 271.116 186.556 271.116C187.66 271.116 188.515 270.226 188.515 269.046V268.948C188.515 268.716 188.515 268.465 188.483 268.21C188.565 268.204 188.63 268.194 188.742 268.177C195.796 267.795 199.427 275.739 192.398 279.306C190.728 280.159 189.046 279.71 187.504 279.748C186.458 279.765 185.508 280.264 184.439 280.528L180.831 277.779L181.933 281.581C181.614 281.763 181.141 281.991 181.141 282.427C181.134 282.701 181.318 283.435 183.086 284.8C183.987 285.496 184.544 286.188 185.009 286.815C185.646 287.687 186.188 288.379 187.572 289.077C190.576 290.586 193.137 289.763 196.35 288.75C198.687 288.031 200.334 286.968 202.195 285.355C203.832 283.958 205.409 282.634 207.115 282.666C212.374 282.814 217.741 286.395 221.9 292.536C224.565 296.507 226.673 299.612 228.729 311.125C231.741 327.708 231.263 333.554 230.639 340.971C230.161 346.714 229.609 353.226 230.573 366.358C232.34 390.477 239.761 402.794 262.616 412.193C256.772 389.284 266.81 376.567 272.959 370.303C260.756 384.196 263.473 409.223 266.114 416.324C266.147 416.672 266.962 425.121 265.937 429.074C265.304 431.491 261.279 444.762 257.411 457.63L251.073 478.708C248.321 487.961 245.574 495.839 239.929 498.29C236.577 499.728 232.524 499.193 227.526 496.692C222.158 493.985 219.993 494.139 219.98 494.139C210.692 491.797 198.135 496.027 197.093 506.556C198.46 505.828 200.807 507.405 200.7 507.912C203.628 497.728 212.65 500.18 213.765 500.676C211.034 501.238 203.95 499.331 202.093 508.898C204.509 509.574 205.238 510.317 205.775 512.519C208.181 506.109 215.751 507.201 219.714 508.421C215.522 508.203 208.713 508.274 206.498 514.314C208.227 514.769 210.283 515.574 210.79 517.829C217.043 518.323 221.224 521.434 228.009 519.734C230.018 519.186 232.122 518.653 234.288 518.353C242.852 517.42 251.53 517.029 257.853 510.115C264.629 502.721 263.966 500.215 263.951 500.206L265.197 499.63C265.247 499.696 266.462 501.699 271.225 500.783C273.827 500.315 275.058 499.521 275.656 498.922C274.39 498.922 272.532 498.561 270.874 496.887C269.949 495.977 269.589 494.613 269.589 493.074C269.589 488.757 272.345 483.091 272.769 482.282C273.621 480.55 277.54 473.697 282.061 465.732C288.368 454.698 295.478 442.195 296.572 439.759L297.022 438.69C298.755 434.829 300.917 430.028 301.211 421.78C301.386 417.344 302.565 414.385 303.775 412.502L303.795 412.51ZM207.595 245.101C207.595 244.766 207.693 244.421 207.813 244.109C207.799 244.289 207.698 244.401 207.698 244.542C207.698 245.947 208.931 247.05 210.469 247.05C211.434 247.05 212.236 246.577 212.721 245.897C212.391 246.971 211.418 247.765 210.255 247.765C208.784 247.765 207.595 246.551 207.595 245.101ZM214.603 245.117C214.966 245.562 215.192 246.03 215.192 246.529C215.192 248.315 212.996 249.765 210.303 249.765C207.595 249.765 205.422 248.315 205.422 246.529C205.422 246.055 205.596 245.631 205.897 245.204C205.946 247.559 207.866 249.471 210.252 249.471C212.648 249.471 214.603 247.523 214.603 245.117ZM203.705 246.226C203.927 243.608 206.755 241.602 210.303 241.602C212.717 241.602 214.905 242.581 216.073 244.174C216.221 244.257 220.974 246.454 220.974 246.454L220.638 247.367C219.692 247.134 218.078 246.894 217.608 247.162L216.554 248.09L216.652 247.926C215.846 250.02 213.236 251.498 210.303 251.498C209.299 251.498 208.355 251.284 207.488 250.974C207.34 250.957 204.382 250.466 204.382 250.466L201.393 250.384L200.439 248.274L201 248.142C201.017 248.142 202.17 247.834 202.914 247.177C203.2 246.968 203.454 246.608 203.705 246.226ZM232.692 228.905C235.142 225.565 240.284 226.611 241.524 230.193C242.421 232.796 242.996 237.986 241.263 239.415C239.169 239.154 235.845 238.866 234.288 239.807C236.568 236.25 240.961 240.742 239.907 232.629C239.478 229.268 235.893 226.775 232.692 228.905ZM246.129 259.158C249.114 266.435 245.332 278.273 238.151 281.734C235.541 282.961 225.235 284.119 218.572 280.238C222.934 281.236 233.661 282.419 237.676 280.07C244.855 276.657 247.176 266.496 246.129 259.158Z" fill="white"/>
<path fill-rule="evenodd" clip-rule="evenodd" d="M142.23 397.928C142.241 400.651 143.228 408.503 147.533 411.424C147.3 409.953 149.994 407.698 151.197 408.15C151.58 407.596 150.939 407.283 150.979 406.788C148.289 402.075 148.361 398.691 149.985 394.063C149.262 397.261 149.604 402.01 152.334 406.859C152.82 405.413 154.142 403.044 156.523 404.047C158.483 400.598 156.622 393.148 157.069 391.025C158.673 383.591 167.444 382.393 173.752 383.102L174.453 384.449C174.453 384.449 172.937 385.623 172.937 389.192C172.937 392.698 174.301 393.398 174.301 393.398C174.301 393.398 174.787 388.666 178.858 387.637C182.894 386.622 187.452 389.192 189.477 390.012C191.506 390.856 217.991 405.88 230.823 411.789C236.274 414.297 247.397 417.734 257.035 411.641C240.333 405.724 231.1 392.93 228.676 373.809C225.257 373.908 219.82 373.859 214.959 372.788C207.197 371.101 190.327 366.365 176.826 366.205C163.311 366.038 156.063 367.9 150.501 371.275C144.918 374.665 134.946 385.014 133.432 396.33C132.91 400.168 135.715 415.59 143.113 414.91C143.806 413.083 144.451 411.988 145.927 411.899C142.24 407.255 140.732 401.942 142.23 397.928Z" fill="white"/>
<path fill-rule="evenodd" clip-rule="evenodd" d="M326.516 423.959C318.337 422.402 310.895 418.689 304.841 413.457C303.784 415.161 302.749 417.833 302.601 421.829C302.569 423.035 302.47 424.147 302.361 425.236C309.678 425.476 317.977 425.137 326.516 423.959Z" fill="white"/>
<path fill-rule="evenodd" clip-rule="evenodd" d="M307.112 380.363C307.58 386.784 310.19 392.554 314.222 397.033C312.697 394.833 312.495 391.844 315.117 389.203C316.664 387.651 328.136 379.895 330.924 382.657C333.57 385.286 326.152 396.662 324.359 398.452C321.875 400.965 318.42 400.59 315.999 398.836C320.629 403.147 326.712 405.928 333.406 406.434C330.862 405.767 328.734 403.717 328.734 400.281C328.734 398.171 331.391 384.452 335.296 384.452C339.218 384.452 341.836 398.194 341.836 400.281C341.836 403.724 339.703 405.773 337.162 406.437C343.451 405.969 349.186 403.525 353.691 399.687C351.452 400.869 348.597 400.822 346.217 398.452C344.737 396.96 336.88 385.393 339.653 382.657C342.454 379.895 354.003 387.719 355.486 389.203C357.886 391.598 357.91 394.477 356.688 396.724C360.533 392.311 363.015 386.686 363.483 380.431C362.734 382.859 360.671 384.85 357.298 384.85C355.163 384.85 341.47 382.194 341.47 378.268C341.47 374.353 355.225 371.729 357.298 371.729C360.676 371.729 362.737 373.714 363.483 376.142C363.02 369.971 360.553 364.343 356.736 359.902C357.148 360.743 357.383 361.697 357.383 362.73C357.383 364.473 356.708 366.118 355.486 367.365C353.625 369.232 342.401 376.669 339.653 373.906C336.903 371.149 344.737 359.582 346.217 358.09C348.452 355.88 351.426 355.73 353.742 356.9C349.28 353.047 343.605 350.557 337.394 350.099C339.833 350.838 341.836 352.909 341.836 356.305C341.836 358.356 339.218 372.102 335.296 372.102C331.402 372.102 328.734 358.936 328.734 356.305C328.734 352.909 330.739 350.839 333.181 350.1C326.853 350.572 321.095 353.144 316.601 357.117C318.817 355.653 321.79 355.509 324.359 358.09C325.799 359.536 333.713 371.129 330.924 373.906C328.155 376.697 316.59 368.827 315.117 367.365C312.599 364.821 312.922 361.452 314.612 359.056C310.352 363.633 307.587 369.618 307.11 376.222C307.836 373.759 309.907 371.729 313.322 371.729C315.385 371.729 329.108 374.351 329.108 378.268C329.108 382.194 315.46 384.85 313.322 384.85C309.911 384.85 307.841 382.821 307.112 380.363ZM330.568 378.268C330.568 375.677 332.682 373.54 335.296 373.54C337.918 373.54 340.021 375.677 340.021 378.268C340.021 380.893 337.918 383.025 335.296 383.025C332.682 383.025 330.568 380.893 330.568 378.268Z" fill="#FFCB00"/>
<path fill-rule="evenodd" clip-rule="evenodd" d="M347.144 397.528C352.039 402.4 359.445 395.003 354.562 390.129C353.081 388.644 342.346 381.84 340.572 383.589C338.835 385.303 345.697 396.072 347.144 397.528ZM342.778 378.269C342.778 380.754 355.209 383.541 357.298 383.541C364.242 383.541 364.253 373.037 357.298 373.037C355.227 373.037 342.778 375.81 342.778 378.269ZM347.144 359.016C345.685 360.481 338.851 371.25 340.582 372.984C342.402 374.815 353.036 367.972 354.555 366.447C355.536 365.446 356.076 364.133 356.076 362.731C356.076 358.165 350.476 355.718 347.144 359.016ZM330.041 356.306C330.041 358.462 332.715 370.795 335.297 370.795C337.757 370.795 340.53 358.377 340.53 356.306C340.53 349.339 330.041 349.345 330.041 356.306ZM316.038 366.437C317.508 367.898 328.258 374.74 330 372.982C331.749 371.241 324.894 360.481 323.433 359.014C318.402 353.964 311.611 361.964 316.038 366.437ZM327.801 378.269C327.801 375.81 315.392 373.037 313.322 373.037C306.365 373.037 306.365 383.541 313.322 383.541C315.411 383.541 327.801 380.756 327.801 378.269ZM330.005 383.587C328.226 381.825 317.53 388.636 316.043 390.127C310.942 395.271 319.189 401.826 323.434 397.528C324.899 396.066 331.71 385.279 330.005 383.587ZM340.53 400.282C340.53 398.204 337.764 385.76 335.297 385.76C332.837 385.76 330.041 398.204 330.041 400.282C330.041 407.076 340.53 407.091 340.53 400.282ZM331.876 378.269C331.876 380.164 333.395 381.718 335.297 381.718C337.204 381.718 338.715 380.166 338.715 378.269C338.715 376.387 337.182 374.848 335.297 374.848C333.415 374.848 331.876 376.389 331.876 378.269Z" fill="white"/>
</g>
<defs>
<clipPath id="clip0_806_92185">
<rect width="690" height="690" fill="white"/>
</clipPath>
</defs>
</svg>
