<svg id="id-svg" width="696" height="690" viewBox="0 0 696 690" fill="none" xmlns="http://www.w3.org/2000/svg">
<g clip-path="url(#clip0_806_91343)">
<path fill-rule="evenodd" clip-rule="evenodd" d="M105.189 437.28C88.948 585.778 217.731 695.075 349.595 617.066C481.46 695.075 610.201 585.338 593.024 437.72C692.163 327.691 653.828 162.806 500.506 148.353C425.355 19.2432 258.443 6.88331 198.224 148.717C45.1544 163.364 5.02787 327.251 105.189 437.28Z" fill="#61AFE3"/>
<path fill-rule="evenodd" clip-rule="evenodd" d="M104.341 436.429C88.0992 584.927 216.497 695.8 348.36 617.791C480.225 695.8 611.618 584.505 594.44 436.888C693.58 326.859 653.828 162.806 500.506 148.353C425.355 19.2439 258.443 6.88378 198.224 148.717C43.8501 162.899 2.21021 325.698 104.341 436.429Z" stroke="#61AFE3" stroke-width="5.67853"/>
<path fill-rule="evenodd" clip-rule="evenodd" d="M253.334 417.174C276.216 420.027 291.789 406.422 305.611 388.891H339.894L341.609 416.318H403.318L402.459 398.319L416.174 396.603C419.397 401.781 424.392 401.659 429.886 400.03H469.311L465.884 404.319L439.313 405.174L429.886 414.602C423.841 419.16 419.879 423.44 430.742 425.745C443.029 429.184 455.312 427.96 467.596 425.745L497.594 408.603L510.45 388.891C509.874 381.976 498.641 373.654 484.739 375.176L448.741 376.891C453.296 368.458 460.311 360.643 460.74 351.181L461.596 334.037C486.548 336.066 506.339 329.986 523.305 319.471C530.407 321.917 537.308 323.764 542.16 319.471C552.87 315.724 553.421 308.351 548.16 298.899C542.75 297.728 539.003 293.783 537.017 286.9C536.366 283.174 522.467 286.53 516.449 280.044L502.734 273.188L501.023 262.045L490.739 268.044L488.166 257.762L470.168 271.473C458.796 271.784 446.415 270.939 442.741 280.044L424.742 289.472L408.459 303.183C403.887 304.532 399.318 307.71 394.747 301.471L386.176 294.616L384.463 267.189C391.461 265.355 393.548 261.855 390.463 249.189L393.891 230.334C381.563 235.055 376.977 227.61 372.464 220.051C372.88 212.051 365.782 214.325 363.037 219.191L364.749 229.479C359.91 230.63 352.715 230.601 358.749 237.19C359.893 242.778 361.588 248.794 352.749 246.618C346.018 244.667 338.498 238.781 333.894 247.478C331.794 250.749 331.738 253.338 336.466 254.333C339.61 257.189 339.322 259.473 335.61 261.189C334.321 269.335 340.165 270.346 346.749 270.617C353.796 266.815 360.797 263.092 365.608 263.761C358.177 270.855 350.749 284.19 343.322 295.472L347.609 315.182C341.749 315.589 334.656 314.587 336.466 323.754C338.726 330.582 333.478 329.906 327.894 328.898C313.611 326.558 299.328 324.042 285.044 330.61C273.901 340.419 265.33 341.063 254.19 334.897L215.62 332.326C205.625 339.944 194.765 335.549 184.339 334.897L147.056 334.037C147.554 356.397 167.474 359.333 183.053 366.608C200.374 367.603 216.867 365.309 231.907 357.181L254.19 352.893C261.33 353.752 262.191 356.321 256.762 360.609L250.763 374.32C244.603 383.897 238.333 392.599 231.048 393.175C223.908 391.463 219.051 393.746 216.48 400.03L207.052 414.602C203.337 419.174 199.052 419.745 194.197 416.318C191.785 418.671 188.297 416.723 184.769 414.602L174.483 427.458C169.211 434.667 176.582 435.551 184.769 436.029C196.426 437.01 209.152 441.193 216.48 429.173C212.023 434.782 205.308 441.297 217.336 440.313C248.24 445.491 245.58 427.783 253.334 417.174Z" fill="#FCC900"/>
<path fill-rule="evenodd" clip-rule="evenodd" d="M216.699 605.038L167.609 550.494V490.498H198.52C211.58 486.092 200.627 483.69 195.489 480.803C149.901 482.952 130.398 468.332 130.037 441.408L164.58 442.015C157.658 469.07 184.453 468.356 203.369 474.134C223.728 473.801 248.658 486.622 203.369 506.253L203.97 517.165C277.163 474.567 415.006 472.345 495.473 518.374V506.253C450.183 486.622 475.113 473.801 495.473 474.134C514.387 468.356 541.183 469.07 534.258 442.015L568.803 441.408C568.443 468.332 548.939 482.952 503.352 480.803C498.215 483.69 487.259 486.092 500.322 490.498H531.229V550.494L482.139 605.038C409.089 560.324 299.643 551.693 216.699 605.038Z" fill="white"/>
<path fill-rule="evenodd" clip-rule="evenodd" d="M213.964 535.424L258.731 518.974L262.211 528.443L246.108 534.36L260.474 573.463L247.947 578.066L233.581 538.963L217.444 544.893L213.964 535.424ZM302.973 553.902C305.736 553.475 307.657 552.653 308.728 551.433C309.882 550.109 310.291 548.387 309.964 546.262C309.642 544.186 308.735 542.7 307.24 541.809C305.871 540.969 303.792 540.765 301.009 541.195L293.265 542.394L295.231 555.1L302.973 553.902ZM323.087 543.811C323.93 549.246 322.868 553.433 319.908 556.369C316.648 559.61 311.784 561.728 305.32 562.729L283.432 566.115L275.523 514.974L288.711 512.937L291.723 532.426L300.426 531.078C306.887 530.079 312.162 530.63 316.252 532.734C319.961 534.638 322.238 538.332 323.087 543.811ZM336.916 508.164L350.26 508.115L350.448 559.863L337.103 559.911L336.916 508.164ZM388.2 531.036C390.286 531.299 391.925 531.043 393.121 530.263C394.314 529.483 395.025 528.201 395.253 526.412C395.474 524.648 395.107 523.237 394.147 522.183C393.191 521.106 391.669 520.434 389.583 520.17L382.259 519.238L380.876 530.103L388.2 531.036ZM385.79 553.544C388.449 553.88 390.515 553.575 391.988 552.619C393.482 551.669 394.376 550.058 394.663 547.791C394.948 545.565 394.494 543.818 393.305 542.55C392.116 541.258 390.183 540.443 387.503 540.1L379.732 539.112L378.02 552.557L385.79 553.544ZM400.449 536.647C403.187 537.833 405.194 539.635 406.469 542.058C407.745 544.48 408.178 547.306 407.765 550.539C407.138 555.489 404.993 558.968 401.34 560.972C397.683 562.975 392.439 563.544 385.607 562.674L363.636 559.88L370.166 508.545L390.04 511.075C397.17 511.979 402.189 513.713 405.1 516.274C408.036 518.836 409.204 522.492 408.598 527.237C408.282 529.733 407.426 531.792 406.032 533.407C404.642 535.001 402.781 536.079 400.449 536.647ZM449.912 567.128L429.799 561.582L424.118 569.797L411.186 566.233L443.417 521.439L458.754 525.667L463.478 580.648L450.55 577.082L449.912 567.128ZM435.556 553.211L449.223 556.979L447.878 535.254L435.556 553.211Z" fill="#FFC900"/>
<path fill-rule="evenodd" clip-rule="evenodd" d="M559.449 142.332C559.449 170.455 536.76 193.279 508.807 193.279C480.85 193.279 458.165 170.455 458.165 142.332C458.165 114.208 480.85 91.3853 508.807 91.3853L510.623 141.424L559.449 142.332Z" fill="#FCC900"/>
<path d="M385.174 79.6074L488.201 133.546M374.573 107.909L486.988 137.789M387.588 133.533L483.353 141.424H483.959M387.343 154.13L485.172 148.089M374.873 182.635L477.897 153.544M389.879 201.628L483.353 160.21M410.022 220.813L490.624 158.393M446.109 220.263L496.686 162.636M462.931 230.862L500.928 166.879M481.536 237.783L503.958 171.117M502.745 242.632L505.777 177.179M590.555 223.398L537.291 167.481M609.261 212.346L544.562 165.666M581.514 243.132L532.442 172.33M560.319 255.359L526.986 175.966M539.713 254.146L520.321 178.392M519.714 257.175L513.049 178.392" stroke="#FCC900" stroke-width="7.29126" stroke-linecap="round"/>
<path fill-rule="evenodd" clip-rule="evenodd" d="M181.802 126.551C235.89 11.8995 398.799 -33.0273 522.172 126.78C649.374 145.039 731.963 296.93 620.381 445.342C622.079 628.988 477.065 704.68 348.479 646.125C217.335 707.234 78.8645 631.786 78.57 445.342C-46.5087 289.021 62.5676 136.087 181.802 126.551Z" stroke="#FFC900" stroke-width="46.1395"/>
<path fill-rule="evenodd" clip-rule="evenodd" d="M181.802 126.551C235.89 11.8995 398.799 -33.0273 522.172 126.78C649.374 145.039 731.963 296.93 620.381 445.342C622.079 628.988 477.065 704.68 348.479 646.125C217.335 707.234 78.8645 631.786 78.57 445.342C-46.5087 289.021 62.5676 136.087 181.802 126.551Z" stroke="white" stroke-width="14.9065"/>
<path fill-rule="evenodd" clip-rule="evenodd" d="M253.028 341.229C240.874 340.294 228.719 339.359 216.563 338.424C208.674 342.397 201.269 342.693 193.949 340.527C187.22 338.537 182.309 338.894 179.398 338.949C169.988 339.129 160.582 338.366 151.174 338.073C160.815 341.579 170.341 343.223 179.749 342.982C186.293 342.815 190.903 343.21 193.072 344.91C200.797 350.961 209.123 348.724 218.141 342.982C229.77 342.397 241.399 341.813 253.028 341.229Z" fill="white"/>
<path fill-rule="evenodd" clip-rule="evenodd" d="M185.822 417.605C177.361 426.562 174.268 431.61 176.544 432.748C179.345 433.069 182.145 433.389 184.947 433.71C186.872 428.284 189.615 423.907 193.175 420.581C190.257 420.522 187.806 419.53 185.822 417.605Z" fill="white"/>
<path fill-rule="evenodd" clip-rule="evenodd" d="M221.858 427.789C212.275 435.19 211.932 437.681 214.794 438.525C217.237 439.244 218.261 438.861 219.282 438.482C222.433 435.127 224.685 432.426 227.836 429.072C224.569 428.957 221.858 428.898 221.858 427.789Z" fill="white"/>
<path fill-rule="evenodd" clip-rule="evenodd" d="M305.092 378.308C285.704 404.732 267.937 420.868 236.549 410.826C230.968 404.297 223.413 413.607 221.272 418.744C215.75 431.988 206.708 438.337 191.949 434.148C206.888 435.987 214.411 431.397 218.644 418.568C223.088 405.098 235.533 398.254 239.218 405.522C263.125 415.233 284.381 394.011 305.092 378.308Z" fill="white"/>
<path fill-rule="evenodd" clip-rule="evenodd" d="M236.76 412.875C240.065 419.993 238.311 425.406 228.535 428.326C233.933 423.54 235.914 418.127 236.76 412.875Z" fill="white"/>
<path fill-rule="evenodd" clip-rule="evenodd" d="M447.007 379.378C479.671 376.399 493.288 376.807 491.009 378.502C487.21 378.443 474.469 380.486 447.007 379.378Z" fill="white"/>
<path fill-rule="evenodd" clip-rule="evenodd" d="M446.831 383.037C484.463 381.693 489.657 384.589 496.013 389.174C492.506 394.609 496.531 399.606 493.025 405.041C483.792 410.066 475.063 415.707 465.831 420.733C451.554 422.78 447.667 421.212 440.103 419.806L449.198 407.495C446.043 407.612 442.886 407.729 439.731 407.845C435.465 412.287 431.2 416.728 426.934 421.169C436.05 425.961 449.373 426.545 466.904 422.922C476.429 417.546 485.954 412.169 495.479 406.794C499.394 400.483 503.31 394.171 507.225 387.861C504.244 380.497 484.172 380.115 446.831 383.037Z" fill="white"/>
<path fill-rule="evenodd" clip-rule="evenodd" d="M418.519 391.542C420.872 398.113 425.751 398.814 432.543 394.873C427.869 394.633 423.194 393.523 418.519 391.542Z" fill="white"/>
<path fill-rule="evenodd" clip-rule="evenodd" d="M432.895 386.283C452.136 368.936 459.937 351.744 456.736 335.093C453.694 333.312 451.416 333.556 450.866 335.908C447.501 350.283 444.545 371.217 432.895 386.283Z" fill="white"/>
<path fill-rule="evenodd" clip-rule="evenodd" d="M500.876 273.438C500.672 268.478 500.429 267.523 499.875 265.131L490.146 271.302L487.359 261.279C482.428 264.985 477.497 268.69 472.566 272.395C482.223 271.549 491.393 272.183 500.876 273.438Z" fill="white"/>
<path fill-rule="evenodd" clip-rule="evenodd" d="M436.827 321.608C437.747 322.2 437.47 323.014 435.997 324.054C472.701 334.582 500.81 331.174 520.205 312.475C520.505 311.354 520.488 310.532 520.155 310.006C498.409 324.401 470.633 328.268 436.827 321.608Z" fill="white"/>
<path fill-rule="evenodd" clip-rule="evenodd" d="M520.416 311.228C522.77 303.303 529.619 296.852 536.937 288.897C534.689 288.38 528.228 285.522 527.183 285.93C521.157 294.706 519.975 304.061 518.032 311.366C518.898 311.944 519.693 311.897 520.416 311.228Z" fill="white"/>
<path fill-rule="evenodd" clip-rule="evenodd" d="M525.653 303.333C534.886 304.925 540.421 306.871 548.54 309.245C548.248 310.12 547.344 313.009 547.052 313.884L524.48 307.6L525.653 303.333Z" fill="white"/>
<path fill-rule="evenodd" clip-rule="evenodd" d="M464.625 321.419C477.305 315.458 484.493 311.543 494.602 309.323C496.706 311.718 504.186 311.017 514.237 311.777C503.192 308.739 494.281 304.914 493.288 303.277C476.926 307.776 471.17 316.218 464.625 321.419Z" fill="white"/>
<path fill-rule="evenodd" clip-rule="evenodd" d="M501.439 284.429C506.465 282.091 509.621 283.027 510.906 287.234C508.424 289.608 503.554 289.733 501.439 284.429Z" fill="white"/>
<path fill-rule="evenodd" clip-rule="evenodd" d="M413.609 304.063C414.311 302.369 418.752 298.686 426.933 293.019C433.127 289.513 439.322 286.007 445.516 282.5C447.678 276.715 455.567 274.085 469.183 274.611C460.826 284.604 459.8 293.016 462.43 296.698C449.341 308.736 435.816 313.354 425.531 313.706C444.99 305.465 454.749 298.512 454.807 292.843C454.457 287.174 458.08 281.624 465.676 276.189C456.21 276.656 450.92 281.067 448.934 287.144C438.59 288.838 426.524 293.72 413.609 304.063Z" fill="white"/>
<path fill-rule="evenodd" clip-rule="evenodd" d="M418.297 304.256C413.571 307.348 410.828 310.557 410.07 313.884C417.801 314.643 424.424 312.717 429.939 308.107C421.099 311.784 417.911 311.88 415.022 311.121C415.256 309.662 414.563 308.282 418.297 304.256Z" fill="white"/>
<path fill-rule="evenodd" clip-rule="evenodd" d="M397.885 378.891L400.286 413.105L345.064 413.28L335.948 339.3L342.988 337.594L347.847 410.588L396.999 410.39L391.696 379.952L397.885 378.891Z" fill="white"/>
<path fill-rule="evenodd" clip-rule="evenodd" d="M335.072 334.742C311.931 328.841 295.693 327.852 286.578 333.403C283.077 339.518 270.793 345.436 263.722 342.28C271.26 346.838 282.394 348.419 291.245 340.002C296.727 334.787 309.36 330.71 335.072 334.742Z" fill="white"/>
<path fill-rule="evenodd" clip-rule="evenodd" d="M184.744 363.842C201.009 365.317 216.027 361.694 229.797 352.973C217.239 357.424 194.553 357.065 180.295 359.412C178.696 359.676 183.68 362.443 184.744 363.842Z" fill="white"/>
<path fill-rule="evenodd" clip-rule="evenodd" d="M518.861 300.338C503.545 295.904 494.266 295.028 491.903 294.561C500.452 298.062 509 301.564 517.549 305.065C517.841 304.014 518.57 301.388 518.861 300.338Z" fill="white"/>
<path fill-rule="evenodd" clip-rule="evenodd" d="M361.505 244.269C376.119 251.303 385.737 248.471 388.363 245.437C389.064 243.833 389.297 242.753 389.064 242.198C385.154 245.32 377.317 246.166 361.505 244.269Z" fill="white"/>
<path fill-rule="evenodd" clip-rule="evenodd" d="M365.868 218.633C369.751 215.052 371.286 215.744 370.473 220.709C371.587 223.612 374.487 227.302 379.173 231.781C371.377 228.383 365.69 224.883 365.868 218.633Z" fill="white"/>
<path fill-rule="evenodd" clip-rule="evenodd" d="M357.387 250.819C342.04 242.884 337.08 244.78 336.205 252.832C338.597 248.047 348.46 248.602 357.387 250.819Z" fill="white"/>
<path fill-rule="evenodd" clip-rule="evenodd" d="M345.591 319.49C346.612 333.803 346.137 347.242 373.464 350.169C373.937 348.535 374.648 347.273 373.321 346.601C357.658 338.673 350.286 331.188 345.591 319.49Z" fill="white"/>
<path fill-rule="evenodd" clip-rule="evenodd" d="M353.83 387.685C366.569 378.036 374.462 365.053 370.363 353.003C369.859 351.523 365.813 352.213 365.05 350.695C365.985 365.012 362.245 377.342 353.83 387.685Z" fill="white"/>
<path fill-rule="evenodd" clip-rule="evenodd" d="M385.91 320.192C404.786 334.8 412.3 343.555 412.242 344.607L402.099 346.762L385.91 320.192Z" fill="white"/>
<path fill-rule="evenodd" clip-rule="evenodd" d="M402.1 346.762C394.715 358.533 391.894 369.953 384.509 381.724C397.851 370.109 408.323 357.443 412.242 344.607C410.519 343.723 402.867 344.968 402.1 346.762Z" fill="white"/>
<path fill-rule="evenodd" clip-rule="evenodd" d="M357.64 389.509C356.736 393.797 354.343 399.691 351.514 406.139C354.869 406.401 358.223 406.665 361.579 406.926C363.019 407.284 370.455 406.762 375.768 407.898C382.999 409.444 392.252 406.259 385.037 397.649C381.703 396.924 376.795 395.936 373.462 395.211L375.583 389.071C371.061 392.251 367.232 395.312 367.728 396.975C371.404 398.259 376.897 398.903 380.573 400.187C382.09 402.697 382.206 404.622 380.923 405.964C376.226 403.717 369.953 403.397 362.104 405.001C359.799 404.68 357.495 404.359 355.19 404.038C359.444 398.724 361.146 393.772 357.64 389.509Z" fill="white"/>
<path fill-rule="evenodd" clip-rule="evenodd" d="M373.508 294.639L369.257 284.78L367.965 296.6L373.508 294.639Z" fill="white"/>
<path fill-rule="evenodd" clip-rule="evenodd" d="M367.965 296.599C373.51 300.639 379.053 304.679 384.598 308.72L373.508 294.638C373.094 293.252 368.998 294.929 367.965 296.599Z" fill="white"/>
<path fill-rule="evenodd" clip-rule="evenodd" d="M388.625 310.996C393.206 312.396 397.494 312.746 401.492 312.045C402.358 312.498 404.04 314.074 403.1 314.514C399.022 316.421 391.154 314.825 388.625 310.996Z" fill="white"/>
<path fill-rule="evenodd" clip-rule="evenodd" d="M403.506 311.521C404.502 311.29 405.319 312.435 406.121 312.158C410.453 310.66 411.926 307.117 409.02 304.693C408.174 307.786 406.336 310.062 403.506 311.521Z" fill="white"/>
<path fill-rule="evenodd" clip-rule="evenodd" d="M348.396 317.912C360.434 323.406 371.536 323.756 381.705 318.965C381.156 317.676 380.935 317.004 379.114 316.946C369.833 316.653 357.678 318.206 348.396 317.912Z" fill="white"/>
<path fill-rule="evenodd" clip-rule="evenodd" d="M362.739 252.828C361.923 255.162 362.506 257.73 364.49 260.53C355.941 262.398 350.135 264.731 347.072 267.532C342.053 267.328 339.369 266.015 339.02 263.594C343.833 264.703 346.605 264.995 347.334 264.47C353.695 260.151 358.421 258.517 361.514 259.567C360.756 258.08 361.164 255.833 362.739 252.828Z" fill="white"/>
<path fill-rule="evenodd" clip-rule="evenodd" d="M367.329 264.97C370.66 267.716 375.744 268.943 382.581 268.651C369.433 273.618 364.349 272.391 367.329 264.97Z" fill="white"/>
</g>
<defs>
<clipPath id="clip0_806_91343">
<rect width="695.855" height="690" fill="white"/>
</clipPath>
</defs>
</svg>
