<svg id="id-svg" width="679" height="690" viewBox="0 0 679 690" fill="none" xmlns="http://www.w3.org/2000/svg">
<g clip-path="url(#clip0_806_91392)">
<mask id="mask0_806_91392" style="mask-type:luminance" maskUnits="userSpaceOnUse" x="46" y="54" width="582" height="584">
<path d="M627.88 344.378C628.348 382.728 621.177 420.79 606.784 456.356C592.39 491.922 571.06 524.284 544.03 551.567C517 578.85 484.808 600.51 449.321 615.291C413.834 630.073 375.757 637.682 337.299 637.678C298.84 637.673 260.766 630.055 225.282 615.265C189.798 600.474 157.612 578.807 130.588 551.517C103.565 524.228 82.2427 491.861 67.8576 456.291C53.4725 420.722 46.3109 382.659 46.788 344.308C46.7972 267.455 77.4194 193.754 131.918 139.417C158.903 112.512 190.937 91.1712 226.193 76.6129C261.448 62.0545 299.233 54.5638 337.391 54.5684C375.549 54.5729 413.332 62.0727 448.584 76.6394C483.835 91.2062 515.865 112.555 542.843 139.466C569.822 166.377 591.221 198.324 605.819 233.483C620.417 268.642 627.929 306.324 627.924 344.378H627.88Z" fill="white"/>
</mask>
<g mask="url(#mask0_806_91392)">
<path d="M666.99 2.47314H42.8047V397.919H666.99V2.47314Z" fill="#DD2211" stroke="black" stroke-opacity="0.941176" stroke-width="1.62556" stroke-linecap="round"/>
</g>
<mask id="mask1_806_91392" style="mask-type:luminance" maskUnits="userSpaceOnUse" x="46" y="54" width="582" height="584">
<path d="M627.88 344.378C628.348 382.728 621.177 420.79 606.784 456.356C592.39 491.922 571.06 524.284 544.03 551.567C517 578.85 484.808 600.51 449.321 615.291C413.834 630.073 375.757 637.682 337.299 637.678C298.84 637.673 260.766 630.055 225.282 615.265C189.798 600.474 157.612 578.807 130.588 551.517C103.565 524.228 82.2427 491.861 67.8576 456.291C53.4725 420.722 46.3109 382.659 46.788 344.308C46.7972 267.455 77.4194 193.754 131.918 139.417C158.903 112.512 190.937 91.1712 226.193 76.6129C261.448 62.0545 299.233 54.5638 337.391 54.5684C375.549 54.5729 413.332 62.0727 448.584 76.6394C483.835 91.2062 515.865 112.555 542.843 139.466C569.822 166.377 591.221 198.324 605.819 233.483C620.417 268.642 627.929 306.324 627.924 344.378H627.88Z" fill="white"/>
</mask>
<g mask="url(#mask1_806_91392)">
<path d="M667.016 353.673H42.7793V701.947H667.016V353.673Z" fill="black" stroke="black" stroke-opacity="0.941176" stroke-width="1.57059" stroke-linecap="round"/>
</g>
<mask id="mask2_806_91392" style="mask-type:luminance" maskUnits="userSpaceOnUse" x="-33" y="-6" width="734" height="723">
<path d="M296.218 -4.53526L280.041 25.6985L303.993 49.7285H365.56L390.611 25.6985L374.983 -5.08496L695.147 19.6518L700.959 716.364L-32.4277 692.805L-19.1461 28.6827L296.218 -4.53526Z" fill="white"/>
</mask>
<g mask="url(#mask2_806_91392)">
<path fill-rule="evenodd" clip-rule="evenodd" d="M651.013 340.13C651.013 512.973 511.026 653.227 338.509 653.227C165.938 653.227 25.9776 512.973 25.9776 340.13C25.9197 167.366 165.992 27.1122 338.509 27.1122C510.995 27.1122 651.04 167.366 651.04 340.13H651.013ZM664.756 341.23C664.756 522.161 518.857 669.09 339.039 669.09C159.184 669.09 13.2813 522.161 13.2813 341.23C13.2765 160.219 159.221 13.291 339.039 13.291C518.848 13.291 664.796 160.219 664.796 341.23H664.756Z" fill="white" stroke="white" stroke-opacity="0.941176" stroke-width="4.71176" stroke-linecap="round"/>
<path fill-rule="evenodd" clip-rule="evenodd" d="M637.978 342.878C637.978 509.439 503.567 644.667 337.918 644.667C172.221 644.667 37.828 509.439 37.828 342.878C37.7783 176.318 172.268 41.0901 337.918 41.0901C503.536 41.0901 638.007 176.318 638.007 342.878H637.978ZM652.506 341.779C652.506 515.172 511.607 655.896 337.918 655.896C164.211 655.896 23.2617 515.172 23.2617 341.779C23.2504 168.386 164.228 27.6616 337.918 27.6616C511.546 27.6616 652.573 168.386 652.573 341.779H652.506Z" fill="#DD2211" stroke="black" stroke-width="1.57059" stroke-linecap="round"/>
<path fill-rule="evenodd" clip-rule="evenodd" d="M663.735 340.13C663.735 519.962 518.039 665.948 338.488 665.948C158.87 665.948 13.214 519.962 13.214 340.13C13.1984 160.219 158.937 14.3118 338.488 14.3118C517.985 14.3118 663.761 160.219 663.761 340.13H663.735ZM678.028 341.229C678.028 529.543 526.189 682.439 339.039 682.439C151.881 682.439 2.63658e-05 529.543 2.63658e-05 341.229C-0.073079 152.838 151.89 -0.059082 339.039 -0.059082C526.152 -0.059082 678.078 152.838 678.078 341.229H678.028Z" fill="black"/>
</g>
<path d="M463.643 136.346V158.963L452.963 147.498L442.204 158.963V136.425L419.273 136.346L430.739 125.666L419.273 114.908L442.204 114.829V92.6841L452.963 104.149L463.643 92.6841V114.829L486.573 114.908L475.108 125.666L486.573 136.346H463.643Z" fill="white" stroke="black" stroke-opacity="0.941176" stroke-width="1.57059"/>
<path d="M627.88 344.378C628.348 382.728 621.177 420.79 606.784 456.356C592.39 491.922 571.06 524.284 544.03 551.567C517 578.85 484.808 600.51 449.321 615.291C413.834 630.073 375.757 637.682 337.299 637.678C298.84 637.673 260.766 630.055 225.282 615.265C189.798 600.474 157.612 578.807 130.588 551.517C103.565 524.228 82.2427 491.861 67.8576 456.291C53.4725 420.722 46.3109 382.659 46.788 344.308C46.7972 267.455 77.4194 193.754 131.918 139.417C158.903 112.512 190.937 91.1712 226.193 76.6129C261.448 62.0545 299.233 54.5638 337.391 54.5684C375.549 54.5729 413.332 62.0727 448.584 76.6394C483.835 91.2062 515.865 112.555 542.843 139.466C569.822 166.377 591.221 198.324 605.819 233.483C620.417 268.642 627.929 306.324 627.924 344.378H627.88Z" stroke="#00000F" stroke-opacity="0.941176" stroke-width="1.54831" stroke-linecap="round"/>
<path d="M334.777 603.439C328.966 614.826 320.703 621.265 309.601 624.485L312.396 606.502C307.606 614.669 300.108 621.265 287.164 622.207L292.999 605.952C285.539 613.805 279.323 615.611 268.934 615.532L274.231 602.025C267.006 608.072 258.878 610.428 250.143 610.428L294.963 489.886C289.23 506.769 278.877 513.68 264.166 511.167L271.404 501.665C263.629 507.476 254.951 508.811 245.655 507.241L251.222 501.665C244.311 503.471 237.428 503.471 230.51 501.665L237.165 494.911C230.019 496.168 222.923 497.346 216.487 494.911L224.836 487.058C217.062 489.807 209.539 490.278 202.464 487.058L210.858 480.855C204.104 480.933 197.271 481.561 191.246 478.106L200.178 472.452C193.11 473.551 186.164 474.651 180.588 471.353L189.498 465.149C182.666 464.442 173.978 466.17 170.492 460.673L179.446 456.196C170.572 456.275 163.268 454.783 158.151 451.171L167.667 446.694C159.814 445.674 152.042 444.574 146.372 439.941L159.814 434.287C148.034 435.151 138.145 432.481 134.592 422.821L146.307 420.858C137.511 419.288 129.576 416.539 124.496 409.079L132.878 407.43C123.69 403.896 114.012 401.147 109.912 391.096H119.371C111.832 386.384 104.28 381.751 100.376 372.641L113.796 373.191C105.707 369.657 97.9226 365.731 94.2059 356.386L106.492 357.485C98.7179 352.459 90.9124 347.433 87.4748 337.303L102.566 338.402C94.3202 332.513 86.1189 326.702 82.9874 314.294L95.8123 315.943C88.6661 309.032 82.349 301.886 79.6218 293.562L96.4405 295.211C88.9802 288.379 82.0428 281.233 79.0609 270.003L94.1632 274.48C87.1741 266.391 81.0775 257.596 78.5 245.816L95.2626 251.47C87.8023 242.283 83.1819 232.388 82.4265 221.708L96.9902 229.561C90.7864 220.137 87.5304 209.693 85.792 198.699L103.116 211.106C97.4614 200.348 93.9276 189.432 94.2059 177.967L110.419 191.474C102.487 180.716 101.887 167.915 102.059 154.958L112.696 162.811C108.141 152.445 107.02 141.058 107.668 129.2L124.475 142.629C120.549 129.907 120.408 115.536 121.972 102.814L208.58 191.474C230.412 211.028 249.363 237.571 245.655 270.553C244.782 292.934 268.707 364.553 326.989 344.606L326.924 334.476C315.145 320.027 321.913 295.525 335.146 295.211C348.363 295.525 355.082 320.027 343.303 334.476L343.258 344.606C401.527 364.553 425.465 292.934 424.637 270.553C420.924 237.571 439.82 211.028 461.658 191.474L548.298 102.814C549.869 115.536 549.734 129.907 545.797 142.629L562.591 129.2C563.219 141.058 562.151 152.445 557.576 162.811L568.166 154.958C568.402 167.915 567.75 180.716 559.82 191.474L576.019 177.967C576.333 189.432 572.805 200.348 567.112 211.106L584.5 198.699C582.694 209.693 579.497 220.137 573.282 229.561L587.799 221.708C587.092 232.388 582.447 242.283 574.965 251.47L591.725 245.816C589.212 257.596 583.115 266.391 576.086 274.48L591.175 270.003C588.191 281.233 581.239 288.379 573.843 295.211L590.626 293.562C587.877 301.886 581.575 309.032 574.404 315.943L587.249 314.294C584.108 326.702 575.912 332.513 567.673 338.402L582.773 337.303C579.317 347.433 571.564 352.459 563.746 357.485L576.019 356.386C572.328 365.731 564.581 369.657 556.454 373.191L569.894 372.641C565.967 381.751 558.392 386.384 550.845 391.096H560.313C556.23 401.147 546.526 403.896 537.383 407.43L545.785 409.079C540.681 416.539 532.71 419.288 523.921 420.858L535.655 422.821C532.121 432.481 522.223 435.151 510.458 434.287L523.876 439.941C518.222 444.574 510.474 445.674 502.605 446.694L512.096 451.171C506.992 454.783 499.679 456.275 490.826 456.196L499.767 460.673C496.312 466.17 487.62 464.442 480.729 465.149L489.637 471.353C484.061 474.651 477.11 473.551 470.072 472.452L479.035 478.106C472.989 481.561 466.155 480.933 459.414 480.855L467.806 487.058C460.738 490.278 453.212 489.807 445.391 487.058L453.749 494.911C447.31 497.346 440.219 496.168 433.051 494.911L439.771 501.665C432.86 503.471 425.946 503.471 419.028 501.665L424.615 507.241C415.27 508.811 406.636 507.476 398.835 501.665L406.082 511.167C391.397 513.68 381.013 506.769 375.276 489.886L420.138 610.428C411.343 610.428 403.271 608.072 396.03 602.025L401.291 615.532C390.926 615.611 384.734 613.805 377.239 605.952L383.073 622.207C370.115 621.265 362.663 614.669 357.887 606.502L361.163 624.092C350.09 620.951 340.722 614.826 334.853 603.439H334.777Z" fill="white" stroke="black" stroke-opacity="0.941176" stroke-width="1.57059"/>
<path d="M479.271 212.206C479.821 193.437 535.326 157.157 545.236 143.519Z" fill="white"/>
<path d="M479.271 212.206C479.821 193.437 535.326 157.157 545.236 143.519" stroke="black" stroke-opacity="0.941176" stroke-width="1.57059"/>
<path d="M557.252 163.125C536.756 186.056 482.994 214.169 486.62 231.865Z" fill="white"/>
<path d="M557.252 163.125C536.756 186.056 482.994 214.169 486.62 231.865" stroke="black" stroke-opacity="0.941176" stroke-width="1.57059"/>
<path d="M488.301 250.057C484.375 235.372 541.776 212.834 559.258 191.758Z" fill="white"/>
<path d="M488.301 250.057C484.375 235.372 541.776 212.834 559.258 191.758" stroke="black" stroke-opacity="0.941176" stroke-width="1.57059"/>
<path d="M566.833 211.106C544.766 233.566 498.197 245.973 490.547 263.557Z" fill="white"/>
<path d="M566.833 211.106C544.766 233.566 498.197 245.973 490.547 263.557" stroke="black" stroke-opacity="0.941176" stroke-width="1.57059"/>
<path d="M572.72 229.561C550.811 248.643 496.364 269.846 493.35 278.982Z" fill="white"/>
<path d="M572.72 229.561C550.811 248.643 496.364 269.846 493.35 278.982" stroke="black" stroke-opacity="0.941176" stroke-width="1.57059"/>
<path d="M491.365 295.525C497.805 278.406 558.512 268.276 574.404 251.777Z" fill="white"/>
<path d="M491.365 295.525C497.805 278.406 558.512 268.276 574.404 251.777" stroke="black" stroke-opacity="0.941176" stroke-width="1.57059"/>
<path d="M575.47 274.479C555.13 287.201 503.516 297.881 490.826 310.955Z" fill="white"/>
<path d="M575.47 274.479C555.13 287.201 503.516 297.881 490.826 310.955" stroke="black" stroke-opacity="0.941176" stroke-width="1.57059"/>
<path d="M487.988 328.037C499.297 310.289 544.861 306.52 573.282 295.81Z" fill="white"/>
<path d="M487.988 328.037C499.297 310.289 544.861 306.52 573.282 295.81" stroke="black" stroke-opacity="0.941176" stroke-width="1.57059"/>
<path d="M574.056 316.257C549.397 326.309 489.296 332.827 485.777 343.208Z" fill="white"/>
<path d="M574.056 316.257C549.397 326.309 489.296 332.827 485.777 343.208" stroke="black" stroke-opacity="0.941176" stroke-width="1.57059"/>
<path d="M481.785 355.522C485.555 346.884 540.265 345.156 567.393 338.721Z" fill="white"/>
<path d="M481.785 355.522C485.555 346.884 540.265 345.156 567.393 338.721" stroke="black" stroke-opacity="0.941176" stroke-width="1.57059"/>
<path d="M563.691 357.721C541.31 364.239 480.718 360.234 477.926 370.413Z" fill="white"/>
<path d="M563.691 357.721C541.31 364.239 480.718 360.234 477.926 370.413" stroke="black" stroke-opacity="0.941176" stroke-width="1.57059"/>
<path d="M473.695 380.18C484.061 373.427 530.465 377.118 556.734 373.498Z" fill="white"/>
<path d="M473.695 380.18C484.061 373.427 530.465 377.118 556.734 373.498" stroke="black" stroke-opacity="0.941176" stroke-width="1.57059"/>
<path d="M550.497 391.096C523.168 392.274 472.041 382.614 468.389 394.532Z" fill="white"/>
<path d="M550.497 391.096C523.168 392.274 472.041 382.614 468.389 394.532" stroke="black" stroke-opacity="0.941176" stroke-width="1.57059"/>
<path d="M464.115 402.875C475.738 399.341 512.796 405.938 537.103 407.43L537.069 407.434" fill="white"/>
<path d="M464.115 402.875C475.738 399.341 512.796 405.938 537.103 407.43L537.069 407.434" stroke="black" stroke-opacity="0.941176" stroke-width="1.57059"/>
<path d="M524.425 420.544C501.73 419.052 463.691 404.76 454.646 411.921Z" fill="white"/>
<path d="M524.425 420.544C501.73 419.052 463.691 404.76 454.646 411.921" stroke="black" stroke-opacity="0.941176" stroke-width="1.57059"/>
<path d="M448.723 421.173C455.398 414.89 489.891 431.067 510.458 434.358Z" fill="white"/>
<path d="M448.723 421.173C455.398 414.89 489.891 431.067 510.458 434.358" stroke="black" stroke-opacity="0.941176" stroke-width="1.57059"/>
<path d="M502.279 447.244C482.804 441.197 449.68 426.591 443.988 429.31Z" fill="white"/>
<path d="M502.279 447.244C482.804 441.197 449.68 426.591 443.988 429.31" stroke="black" stroke-opacity="0.941176" stroke-width="1.57059"/>
<path d="M435.295 438.841C449.823 434.915 472.657 450.307 491.387 456.234Z" fill="white"/>
<path d="M435.295 438.841C449.823 434.915 472.657 450.307 491.387 456.234" stroke="black" stroke-opacity="0.941176" stroke-width="1.57059"/>
<path d="M480.448 465.149C462.151 460.516 440.904 446.302 426.6 447.82Z" fill="white"/>
<path d="M480.448 465.149C462.151 460.516 440.904 446.302 426.6 447.82" stroke="black" stroke-opacity="0.941176" stroke-width="1.57059"/>
<path d="M470.004 472.217C451.785 466.17 431.307 457.139 415.381 454.233L415.348 454.271" fill="white"/>
<path d="M470.004 472.217C451.785 466.17 431.307 457.139 415.381 454.233L415.348 454.271" stroke="black" stroke-opacity="0.941176" stroke-width="1.57059"/>
<path d="M406.631 461.222C424.064 463.735 441.745 476.378 458.853 480.634Z" fill="white"/>
<path d="M406.631 461.222C424.064 463.735 441.745 476.378 458.853 480.634" stroke="black" stroke-opacity="0.941176" stroke-width="1.57059"/>
<path d="M395.715 468.29C403.175 464.835 428.656 480.933 445.11 487.365Z" fill="white"/>
<path d="M395.715 468.29C403.175 464.835 428.656 480.933 445.11 487.365" stroke="black" stroke-opacity="0.941176" stroke-width="1.57059"/>
<path d="M432.702 494.597C416.682 486.901 400.152 476.221 384.811 471.94Z" fill="white"/>
<path d="M432.702 494.597C416.682 486.901 400.152 476.221 384.811 471.94" stroke="black" stroke-opacity="0.941176" stroke-width="1.57059"/>
<path d="M376.084 477.478C389.041 475.986 404.423 494.44 419.028 501.108Z" fill="white"/>
<path d="M376.084 477.478C389.041 475.986 404.423 494.44 419.028 501.108" stroke="black" stroke-opacity="0.941176" stroke-width="1.57059"/>
<path d="M373.807 483.682C382.288 486.509 390.702 495.225 399.116 501.388Z" fill="white"/>
<path d="M373.807 483.682C382.288 486.509 390.702 495.225 399.116 501.388" stroke="black" stroke-opacity="0.941176" stroke-width="1.57059"/>
<path d="M396.03 601.476C388.02 572.263 364.334 517.606 372.752 515.131Z" fill="white"/>
<path d="M396.03 601.476C388.02 572.263 364.334 517.606 372.752 515.131" stroke="black" stroke-opacity="0.941176" stroke-width="1.57059"/>
<path d="M361.241 519.884C352.524 520.983 370.672 574.619 377.239 605.72Z" fill="white"/>
<path d="M361.241 519.884C352.524 520.983 370.672 574.619 377.239 605.72" stroke="black" stroke-opacity="0.941176" stroke-width="1.57059"/>
<path d="M357.55 605.952C354.252 578.231 342.383 539.909 348.07 523.265Z" fill="white"/>
<path d="M357.55 605.952C354.252 578.231 342.383 539.909 348.07 523.265" stroke="black" stroke-opacity="0.941176" stroke-width="1.57059"/>
<path d="M334.855 603.439L334.541 523.265Z" fill="white"/>
<path d="M334.855 603.439L334.541 523.265" stroke="black" stroke-opacity="0.941176" stroke-width="1.57059"/>
<path d="M190.911 212.206C190.362 193.437 134.966 157.157 125.057 143.519Z" fill="white"/>
<path d="M190.911 212.206C190.362 193.437 134.966 157.157 125.057 143.519" stroke="black" stroke-opacity="0.941176" stroke-width="1.57059"/>
<path d="M112.932 163.125C133.428 186.056 187.3 214.169 183.673 231.865Z" fill="white"/>
<path d="M112.932 163.125C133.428 186.056 187.3 214.169 183.673 231.865" stroke="black" stroke-opacity="0.941176" stroke-width="1.57059"/>
<path d="M181.959 250.057C185.807 235.372 128.515 212.834 111.033 191.758Z" fill="white"/>
<path d="M181.959 250.057C185.807 235.372 128.515 212.834 111.033 191.758" stroke="black" stroke-opacity="0.941176" stroke-width="1.57059"/>
<path d="M103.43 211.106C125.496 233.566 172.096 245.973 179.747 263.557Z" fill="white"/>
<path d="M103.43 211.106C125.496 233.566 172.096 245.973 179.747 263.557" stroke="black" stroke-opacity="0.941176" stroke-width="1.57059"/>
<path d="M97.541 229.561C119.372 248.643 173.929 269.846 176.943 278.982Z" fill="white"/>
<path d="M97.541 229.561C119.372 248.643 173.929 269.846 176.943 278.982" stroke="black" stroke-opacity="0.941176" stroke-width="1.57059"/>
<path d="M178.896 295.525C172.457 278.406 111.782 268.276 95.8887 251.777Z" fill="white"/>
<path d="M178.896 295.525C172.457 278.406 111.782 268.276 95.8887 251.777" stroke="black" stroke-opacity="0.941176" stroke-width="1.57059"/>
<path d="M94.7129 274.479C115.131 287.201 166.776 297.881 179.466 310.955Z" fill="white"/>
<path d="M94.7129 274.479C115.131 287.201 166.776 297.881 179.466 310.955" stroke="black" stroke-opacity="0.941176" stroke-width="1.57059"/>
<path d="M182.194 328.037C170.886 310.289 125.431 306.52 97.0098 295.81Z" fill="white"/>
<path d="M182.194 328.037C170.886 310.289 125.431 306.52 97.0098 295.81" stroke="black" stroke-opacity="0.941176" stroke-width="1.57059"/>
<path d="M96.127 316.257C120.785 326.309 180.996 332.827 184.515 343.208Z" fill="white"/>
<path d="M96.127 316.257C120.785 326.309 180.996 332.827 184.515 343.208" stroke="black" stroke-opacity="0.941176" stroke-width="1.57059"/>
<path d="M188.399 355.522C184.708 346.884 130.028 345.156 102.9 338.721Z" fill="white"/>
<path d="M188.399 355.522C184.708 346.884 130.028 345.156 102.9 338.721" stroke="black" stroke-opacity="0.941176" stroke-width="1.57059"/>
<path d="M106.492 357.721C128.952 364.239 189.575 360.234 192.367 370.413Z" fill="white"/>
<path d="M106.492 357.721C128.952 364.239 189.575 360.234 192.367 370.413" stroke="black" stroke-opacity="0.941176" stroke-width="1.57059"/>
<path d="M196.564 380.18C186.198 373.427 139.827 377.118 113.557 373.498Z" fill="white"/>
<path d="M196.564 380.18C186.198 373.427 139.827 377.118 113.557 373.498" stroke="black" stroke-opacity="0.941176" stroke-width="1.57059"/>
<path d="M119.686 391.096C147.092 392.274 198.252 382.614 201.904 394.532Z" fill="white"/>
<path d="M119.686 391.096C147.092 392.274 198.252 382.614 201.904 394.532" stroke="black" stroke-opacity="0.941176" stroke-width="1.57059"/>
<path d="M206.067 402.875C194.523 399.341 157.496 405.938 133.19 407.43L133.113 407.434" fill="white"/>
<path d="M206.067 402.875C194.523 399.341 157.496 405.938 133.19 407.43L133.113 407.434" stroke="black" stroke-opacity="0.941176" stroke-width="1.57059"/>
<path d="M145.758 420.544C168.453 419.052 206.602 404.76 215.647 411.921Z" fill="white"/>
<path d="M145.758 420.544C168.453 419.052 206.602 404.76 215.647 411.921" stroke="black" stroke-opacity="0.941176" stroke-width="1.57059"/>
<path d="M221.459 421.173C214.784 414.89 180.401 431.067 159.834 434.358Z" fill="white"/>
<path d="M221.459 421.173C214.784 414.89 180.401 431.067 159.834 434.358" stroke="black" stroke-opacity="0.941176" stroke-width="1.57059"/>
<path d="M167.902 447.244C187.378 441.197 220.611 426.591 226.304 429.31Z" fill="white"/>
<path d="M167.902 447.244C187.378 441.197 220.611 426.591 226.304 429.31" stroke="black" stroke-opacity="0.941176" stroke-width="1.57059"/>
<path d="M234.967 438.841C220.439 434.915 197.637 450.307 178.906 456.234Z" fill="white"/>
<path d="M234.967 438.841C220.439 434.915 197.637 450.307 178.906 456.234" stroke="black" stroke-opacity="0.941176" stroke-width="1.57059"/>
<path d="M189.812 465.149C208.031 460.516 229.388 446.302 243.693 447.82Z" fill="white"/>
<path d="M189.812 465.149C208.031 460.516 229.388 446.302 243.693 447.82" stroke="black" stroke-opacity="0.941176" stroke-width="1.57059"/>
<path d="M200.178 472.217C218.397 466.17 238.985 457.139 254.911 454.233L254.834 454.271" fill="white"/>
<path d="M200.178 472.217C218.397 466.17 238.985 457.139 254.911 454.233L254.834 454.271" stroke="black" stroke-opacity="0.941176" stroke-width="1.57059"/>
<path d="M263.551 461.222C246.196 463.735 228.548 476.378 211.439 480.634Z" fill="white"/>
<path d="M263.551 461.222C246.196 463.735 228.548 476.378 211.439 480.634" stroke="black" stroke-opacity="0.941176" stroke-width="1.57059"/>
<path d="M274.467 468.29C267.085 464.835 241.635 480.933 225.182 487.365Z" fill="white"/>
<path d="M274.467 468.29C267.085 464.835 241.635 480.933 225.182 487.365" stroke="black" stroke-opacity="0.941176" stroke-width="1.57059"/>
<path d="M237.479 494.597C253.498 486.901 270.139 476.221 285.48 471.94Z" fill="white"/>
<path d="M237.479 494.597C253.498 486.901 270.139 476.221 285.48 471.94" stroke="black" stroke-opacity="0.941176" stroke-width="1.57059"/>
<path d="M294.098 477.478C281.141 475.986 265.869 494.44 251.264 501.108Z" fill="white"/>
<path d="M294.098 477.478C281.141 475.986 265.869 494.44 251.264 501.108" stroke="black" stroke-opacity="0.941176" stroke-width="1.57059"/>
<path d="M296.377 483.682C287.974 486.509 279.592 495.225 271.178 501.388Z" fill="white"/>
<path d="M296.377 483.682C287.974 486.509 279.592 495.225 271.178 501.388" stroke="black" stroke-opacity="0.941176" stroke-width="1.57059"/>
<path d="M274.23 601.476C282.24 572.263 305.958 517.606 297.54 515.131Z" fill="white"/>
<path d="M274.23 601.476C282.24 572.263 305.958 517.606 297.54 515.131" stroke="black" stroke-opacity="0.941176" stroke-width="1.57059"/>
<path d="M309.019 519.884C317.736 520.983 299.619 574.619 293.053 605.72Z" fill="white"/>
<path d="M309.019 519.884C317.736 520.983 299.619 574.619 293.053 605.72" stroke="black" stroke-opacity="0.941176" stroke-width="1.57059"/>
<path d="M312.631 605.952C315.929 578.231 327.907 539.909 322.22 523.265Z" fill="white"/>
<path d="M312.631 605.952C315.929 578.231 327.907 539.909 322.22 523.265" stroke="black" stroke-opacity="0.941176" stroke-width="1.57059"/>
<path d="M228.055 136.346V158.963L217.375 147.498L206.616 158.963V136.425L183.686 136.346L195.151 125.666L183.686 114.908L206.616 114.829V92.6841L217.375 104.149L228.055 92.6841V114.829L250.985 114.908L239.52 125.666L250.985 136.346H228.055Z" fill="white" stroke="black" stroke-opacity="0.941176" stroke-width="1.57059"/>
<path d="M351.974 436.643V472.452L335.012 454.233L318.049 472.452L317.971 436.721L281.533 436.564L299.831 419.602L281.533 402.639L318.049 402.482V367.301L335.012 385.52L351.974 367.301L352.053 402.482L388.412 402.639L370.193 419.602L388.412 436.564L351.974 436.643Z" fill="#DD2211" stroke="black" stroke-width="1.57059"/>
<mask id="mask3_806_91392" style="mask-type:luminance" maskUnits="userSpaceOnUse" x="177" y="620" width="327" height="70">
<path d="M209.531 621.917C296.979 662.72 394.167 658.113 468.586 620.436L503.958 661.075C475.165 673.415 447.616 682.793 420.599 689.127L392.571 656.057L283.652 658.525L260.947 689.539C233.964 683.286 206.517 673.826 177.865 661.075L209.531 621.917Z" fill="white"/>
</mask>
<g mask="url(#mask3_806_91392)">
<path fill-rule="evenodd" clip-rule="evenodd" d="M665.856 340.077C665.856 521.142 519.21 668.067 338.486 668.067C157.705 668.067 11.0874 521.142 11.0874 340.077C11.0268 159.094 157.762 12.1686 338.486 12.1686C519.178 12.1686 665.884 159.094 665.884 340.077H665.856ZM680.253 341.229C680.253 530.767 527.413 684.685 339.041 684.685C150.631 684.685 -2.21289 530.767 -2.21289 341.229C-2.21787 151.608 150.669 -2.31006 339.041 -2.31006C527.404 -2.31006 680.295 151.608 680.295 341.229H680.253Z" fill="white" stroke="white" stroke-opacity="0.941176" stroke-width="4.9359" stroke-linecap="round"/>
<path fill-rule="evenodd" clip-rule="evenodd" d="M652.199 342.956C652.199 517.44 511.394 659.101 337.864 659.101C164.285 659.101 23.4994 517.44 23.4994 342.956C23.4474 168.472 164.335 26.8119 337.864 26.8119C511.361 26.8119 652.229 168.472 652.229 342.956H652.199ZM667.418 341.805C667.418 523.446 519.817 670.865 337.864 670.865C155.894 670.865 8.24024 523.446 8.24024 341.805C8.22836 160.164 155.912 12.7446 337.864 12.7446C519.752 12.7446 667.488 160.164 667.488 341.805H667.418Z" fill="#DD2211" stroke="black" stroke-width="1.6453" stroke-linecap="round"/>
<path fill-rule="evenodd" clip-rule="evenodd" d="M679.183 340.077C679.183 528.464 526.924 685.837 338.832 685.837C150.712 685.837 -2.28434 528.464 -2.28434 340.077C-2.30072 151.608 150.37 -1.24043 338.463 -1.24043C526.499 -1.24043 679.21 151.608 679.21 340.077H679.183ZM694.155 341.229C694.155 538.5 535.461 706.814 339.409 706.814C143.308 706.814 -16.1269 538.5 -16.1269 341.229C-16.2035 143.875 142.988 -16.2949 339.04 -16.2949C535.054 -16.2949 694.207 143.875 694.207 341.229H694.155Z" fill="black"/>
</g>
<mask id="mask4_806_91392" style="mask-type:luminance" maskUnits="userSpaceOnUse" x="216" y="614" width="245" height="70">
<path d="M432.332 614.189L460.882 657.767C382.669 690.675 301.54 693.079 216.969 659.345L244.724 616.143C309.414 639.735 387.742 634.851 432.34 614.189H432.332Z" fill="white"/>
</mask>
<g mask="url(#mask4_806_91392)">
<path fill-rule="evenodd" clip-rule="evenodd" d="M637.52 340.178C637.52 505.547 503.587 639.735 338.53 639.735C173.422 639.735 39.5145 505.547 39.5145 340.178C39.4591 174.885 173.473 40.6971 338.53 40.6971C503.557 40.6971 637.546 174.885 637.546 340.178H637.52ZM650.668 341.23C650.668 514.337 511.079 671.591 339.037 671.591C166.96 671.591 27.3672 514.337 27.3672 341.23C27.3626 168.048 166.995 27.4736 339.037 27.4736C511.071 27.4736 650.707 168.048 650.707 341.23H650.668Z" fill="white" stroke="white" stroke-opacity="0.941176" stroke-width="4.508" stroke-linecap="round"/>
<path fill-rule="evenodd" clip-rule="evenodd" d="M625.048 342.808C625.048 502.166 496.45 631.545 337.964 631.545C179.433 631.545 50.8523 502.166 50.8523 342.808C50.8048 183.45 179.478 54.0709 337.964 54.0709C496.42 54.0709 625.076 183.45 625.076 342.808H625.048ZM638.948 341.756C638.948 507.651 504.143 649.577 337.964 649.577C171.769 649.577 36.916 507.651 36.916 341.756C36.9052 175.862 171.786 41.2231 337.964 41.2231C504.084 41.2231 639.012 175.862 639.012 341.756H638.948Z" fill="#DD2211" stroke="black" stroke-width="1.50267" stroke-linecap="round"/>
<path fill-rule="evenodd" clip-rule="evenodd" d="M649.692 340.179C649.692 512.234 510.296 667.534 338.51 667.534C166.66 667.534 27.3027 512.234 27.3027 340.179C27.2878 168.048 166.723 28.4506 338.51 28.4506C510.245 28.4506 649.717 168.048 649.717 340.179H649.692ZM663.366 341.23C663.366 521.4 518.831 685.792 339.775 685.792C160.649 685.792 14.6602 521.4 14.6602 341.23C14.5902 160.986 159.981 14.7012 339.037 14.7012C518.058 14.7012 663.414 160.986 663.414 341.23H663.366Z" fill="black"/>
</g>
<path d="M432.31 614.198L460.895 657.782C382.601 690.685 301.542 693.12 216.971 659.352L244.703 616.161C309.412 639.72 387.744 634.851 432.342 614.198H432.31Z" stroke="black" stroke-width="1.57059"/>
<path d="M245.959 647.337C245.802 647.494 245.648 647.651 245.452 647.808C244.938 648.044 244.182 648.044 243.089 647.651L242.582 647.494L242.896 646.395L243.367 646.552C243.839 646.709 244.274 646.787 244.515 646.709C244.624 646.709 244.806 646.552 244.947 646.395L245.409 645.845L244.859 637.364L246.273 637.835L246.744 644.431L251.142 639.563L252.555 640.034L245.959 647.337ZM252.869 649.693L257.188 651.028L259.544 643.411L256.403 642.468L255.932 643.882C255.304 646.081 254.494 647.808 253.552 649.065C253.341 649.379 253.144 649.536 252.91 649.693M250.906 649.065C251.613 648.986 252.142 648.751 252.472 648.279C253.262 647.023 254.113 645.217 254.86 642.782L255.382 640.898L261.272 642.704L258.523 651.421L259.701 651.813L258.681 655.033L257.581 654.719L258.209 652.598L251.22 650.4L250.592 652.52L249.493 652.206L250.435 648.986L250.906 649.065ZM264.021 643.568L266.062 644.117L266.769 651.578L271.088 645.452L273.13 646.002L270.46 655.975L269.125 655.583L271.481 646.866L267.083 652.991L265.748 652.598L264.963 645.138L262.607 653.855L261.351 653.541L264.021 643.568ZM276.507 656.132C276.35 656.289 276.197 656.446 276.014 656.603C275.486 656.918 274.774 656.996 273.65 656.761L273.13 656.603L273.366 655.426L273.758 655.583C274.308 655.661 274.74 655.74 274.974 655.661C275.093 655.583 275.252 655.504 275.376 655.347L275.8 654.64L274.386 646.316L275.8 646.63L276.978 653.148L280.826 647.808L282.318 648.201L276.507 656.132ZM284.752 649.85L283.967 653.619L285.695 654.012C286.323 654.091 286.897 654.091 287.311 653.776C287.658 653.541 287.995 653.07 288.119 652.52C288.208 651.892 288.164 651.421 287.884 651.028C287.579 650.557 287.146 650.321 286.51 650.164L284.752 649.85ZM283.653 648.436L286.716 649.065C287.815 649.3 288.673 649.771 289.145 650.4C289.621 651.028 289.761 651.813 289.559 652.756C289.307 653.776 288.912 654.483 288.226 654.876C287.501 655.268 286.639 655.347 285.507 655.111L283.731 654.797L282.946 658.802L281.533 658.567L283.653 648.436ZM290.249 649.771L298.888 651.263L298.652 652.441L295.04 651.813L293.469 660.844L292.134 660.608L293.705 651.578L290.092 650.949L290.249 649.771ZM307.369 653.305L307.212 654.797C306.819 654.248 306.384 653.855 305.886 653.541C305.327 653.305 304.849 653.07 304.256 652.991C303.05 652.834 302.146 653.07 301.426 653.698C300.694 654.326 300.253 655.347 300.064 656.682C299.83 658.017 300.041 659.116 300.561 659.902C301.008 660.687 301.924 661.158 303.091 661.315C303.678 661.394 304.257 661.394 304.811 661.237C305.327 661.08 305.911 660.844 306.437 660.53L306.191 661.943C305.641 662.179 305.159 662.336 304.593 662.493C303.992 662.572 303.451 662.572 302.85 662.493C301.243 662.258 300.155 661.629 299.398 660.53C298.573 659.431 298.379 658.096 298.608 656.446C298.809 654.797 299.463 653.619 300.484 652.756C301.479 651.97 302.788 651.656 304.333 651.892C304.934 651.97 305.506 652.127 306.021 652.363C306.505 652.598 307.015 652.913 307.444 653.305M309.332 652.756L310.667 652.834L310.196 657.938L315.614 653.384L317.42 653.541L313.023 657.232L316.557 663.828L315.065 663.671L312.08 658.017L309.96 659.745L309.646 663.121L308.233 662.964L309.332 652.756ZM322.289 655.268L320.012 660.294L323.86 660.53L322.289 655.268ZM321.583 653.855L323.153 653.933L326.373 664.535L324.959 664.378L324.174 661.708L319.541 661.394L318.441 663.985L316.949 663.907L321.583 653.855ZM329.593 657.232C329.514 657.86 329.734 658.331 330.065 658.645C330.378 658.959 330.904 659.116 331.575 659.195H333.676L333.833 655.583L331.634 655.504C331.006 655.504 330.503 655.661 330.148 655.897C329.75 656.211 329.615 656.682 329.596 657.232M327.472 664.535L330.378 660.137C329.907 659.98 329.455 659.745 328.878 659.352C328.258 658.881 328.028 658.174 328.058 657.232C328.022 656.289 328.408 655.583 329.022 655.033C329.593 654.562 330.536 654.326 331.722 654.326L335.247 654.483L334.933 664.771L333.519 664.692L333.676 660.373L331.791 660.294L328.964 664.613L327.472 664.535ZM343.414 655.583L343.492 659.509L345.22 659.431C345.927 659.431 346.429 659.273 346.776 658.881C347.105 658.567 347.29 658.096 347.277 657.467C347.262 656.839 347.076 656.368 346.715 656.054C346.319 655.74 345.848 655.583 345.2 655.583H343.414ZM342 654.483L345.141 654.405C346.319 654.405 347.207 654.64 347.807 655.19C348.361 655.661 348.725 656.446 348.746 657.389C348.754 658.41 348.488 659.195 347.906 659.745C347.262 660.294 346.462 660.53 345.307 660.608H343.492L343.571 664.771H342.236L342 654.483ZM350.167 654.248L356.685 653.933L356.764 655.111L351.659 655.347L351.816 658.41L356.685 658.174L356.764 659.352L351.895 659.588L352.052 663.278L357.313 663.043L357.392 664.221L350.717 664.535L350.167 654.248ZM366.501 653.855L366.658 655.347C366.109 654.954 365.623 654.64 365.071 654.483C364.46 654.326 363.953 654.248 363.358 654.326C362.182 654.405 361.32 654.876 360.762 655.661C360.14 656.446 359.987 657.467 360.111 658.802C360.219 660.216 360.641 661.158 361.33 661.865C361.947 662.493 362.95 662.807 364.123 662.65C364.695 662.65 365.27 662.493 365.777 662.179C366.266 661.943 366.759 661.551 367.186 661.08L367.287 662.572C366.815 662.886 366.37 663.2 365.84 663.436C365.245 663.671 364.749 663.75 364.145 663.828C362.575 663.985 361.324 663.593 360.344 662.729C359.355 661.865 358.798 660.608 358.647 658.959C358.491 657.31 358.825 655.975 359.631 654.954C360.376 653.933 361.618 653.305 363.171 653.148C363.753 653.148 364.37 653.148 364.926 653.305C365.48 653.384 366.019 653.541 366.525 653.855M375.925 651.813L377.26 662.022L375.925 662.258L374.747 653.227L369.721 653.855L370.899 662.886L369.485 663.121L368.15 652.834L375.925 651.813ZM382.914 659.902C382.835 660.137 382.813 660.373 382.697 660.53C382.364 661.001 381.697 661.394 380.558 661.551L380.008 661.629L379.773 660.451L380.244 660.373C380.794 660.294 381.171 660.216 381.359 660.059C381.422 659.902 381.554 659.823 381.604 659.588L381.736 658.802L377.181 651.656L378.673 651.421L382.207 656.918L383.699 650.557L385.191 650.321L382.914 659.902ZM393.672 655.975C393.515 655.347 393.298 654.954 392.88 654.719C392.416 654.483 391.891 654.483 391.156 654.562L388.961 655.033L389.667 658.724L391.866 658.331C392.573 658.174 393.162 657.86 393.451 657.546C393.672 657.153 393.827 656.603 393.7 655.975M392.966 648.751L393.123 649.85L388.097 650.871L388.725 653.933L390.924 653.462C392.102 653.227 393.048 653.305 393.761 653.698C394.458 654.012 394.935 654.719 395.14 655.74C395.322 656.682 395.19 657.546 394.678 658.096C394.144 658.724 393.344 659.195 392.213 659.431L388.568 660.137L386.448 650.086L392.966 648.751ZM397.285 658.331L396.971 657.232C397.913 656.761 398.435 656.132 398.533 655.347C398.62 654.091 398.364 652.127 397.706 649.457L397.285 647.73L403.175 646.316L405.687 656.289L404.274 656.603L402.154 647.73L398.855 648.515L399.17 649.771C399.798 652.284 400.065 654.248 399.898 655.504C399.719 656.761 398.867 657.703 397.289 658.331M412.991 643.489L415.896 653.384L414.561 653.776L412.205 645.531L410.164 655.033L408.357 655.583L405.53 645.688L406.865 645.295L409.221 653.541L411.185 644.039L412.991 643.489ZM415.347 642.782L416.603 642.39L418.252 647.18L421.393 640.819L423.042 640.269L420.53 645.374L426.498 650.007L425.006 650.478L419.98 646.552L418.802 648.986L419.823 652.127L418.488 652.598L415.347 642.782ZM428.225 639.877V645.295L431.759 644.039L428.225 639.877ZM426.969 638.856L428.461 638.306L435.686 646.63L434.351 647.101L432.544 644.981L428.225 646.552V649.379L426.89 649.85L426.969 638.87" fill="black"/>
<path d="M265.277 634.301C265.12 634.458 264.979 634.694 264.793 634.772C264.256 635.086 263.546 635.165 262.427 634.851L261.9 634.694L262.136 633.594L262.607 633.673C263.157 633.83 263.54 633.83 263.776 633.751C263.864 633.751 264.057 633.673 264.186 633.437L264.649 632.809L263.392 624.485L264.806 624.799L265.827 631.317L269.832 626.134L271.245 626.527L265.277 634.301ZM272.345 636.107L276.742 637.128L278.549 629.354L275.25 628.647L274.936 630.06C274.465 632.259 273.809 634.065 272.969 635.479C272.737 635.715 272.599 635.95 272.376 636.107M270.382 635.636C271.01 635.557 271.535 635.165 271.827 634.694C272.502 633.437 273.231 631.552 273.791 629.04L274.151 627.155L280.198 628.568L278.156 637.442L279.255 637.678L278.549 640.976L277.371 640.74L277.842 638.62L270.774 636.971L270.303 639.091L269.125 638.856L269.91 635.557L270.382 635.636ZM282.946 629.118L284.988 629.511L286.323 636.892L290.171 630.532L292.213 630.924L290.328 641.055L288.993 640.74L290.642 631.867L286.716 638.306L285.381 638.07L284.046 630.61L282.397 639.484L281.062 639.248L282.946 629.118ZM296.375 640.74C296.218 640.897 296.112 641.133 295.94 641.29C295.511 641.604 294.732 641.683 293.591 641.526L292.998 641.447L293.234 640.269L293.626 640.348C294.176 640.426 294.601 640.426 294.829 640.348C294.961 640.269 295.094 640.191 295.206 640.034L295.589 639.327L293.548 631.081L294.961 631.317L296.61 637.678L300.066 632.102L301.558 632.338L296.375 640.74ZM304.149 633.83L303.678 637.678L305.406 637.913C306.034 637.992 306.601 637.913 306.995 637.599C307.369 637.285 307.624 636.814 307.702 636.264C307.762 635.636 307.664 635.165 307.354 634.772C306.976 634.38 306.569 634.144 305.925 634.065L304.149 633.83ZM302.893 632.495L306.034 632.887C307.212 633.045 308.047 633.437 308.565 634.065C309.018 634.615 309.287 635.4 309.161 636.421C309.018 637.442 308.642 638.149 307.988 638.62C307.29 639.013 306.44 639.17 305.295 639.013L303.521 638.856L302.971 642.939L301.636 642.782L302.893 632.495ZM309.646 633.359L318.363 634.222L318.206 635.4L314.594 635.086L313.73 644.117L312.316 644.039L313.18 634.929L309.568 634.537L309.646 633.359ZM325.038 635.793L324.881 639.72L326.609 639.798C327.237 639.798 327.794 639.72 328.166 639.327C328.493 639.013 328.739 638.542 328.772 637.992C328.729 637.364 328.653 636.892 328.317 636.5C327.944 636.186 327.489 635.95 326.842 635.95L325.038 635.793ZM323.703 634.615L326.844 634.772C328.022 634.851 328.912 635.165 329.473 635.715C329.985 636.264 330.294 637.05 330.24 638.07C330.142 639.091 329.849 639.798 329.229 640.269C328.572 640.819 327.729 640.976 326.576 640.897L324.802 640.819L324.567 644.981L323.153 644.902L323.703 634.615ZM331.949 635.008L338.466 635.165L338.388 636.343L333.284 636.186L333.205 639.248L338.152 639.405L338.074 640.583L333.205 640.426L333.126 644.196L338.388 644.274L338.309 645.452L331.713 645.295L331.949 635.008ZM348.283 635.872V637.364C347.811 636.971 347.336 636.578 346.8 636.421C346.241 636.186 345.704 636.107 345.106 636.107C343.885 636.107 343.03 636.5 342.411 637.207C341.765 637.913 341.49 638.934 341.504 640.348C341.451 641.683 341.84 642.704 342.473 643.41C343.1 644.117 344.011 644.51 345.189 644.51C345.77 644.51 346.35 644.353 346.877 644.117C347.34 643.96 347.907 643.567 348.372 643.175L348.361 644.588C347.89 644.981 347.387 645.217 346.841 645.374C346.241 645.531 345.725 645.609 345.118 645.609C343.492 645.688 342.325 645.217 341.418 644.274C340.508 643.332 340.05 641.997 340.034 640.348C339.959 638.699 340.453 637.364 341.341 636.421C342.157 635.479 343.452 634.929 345.012 634.929C345.613 634.929 346.209 635.008 346.753 635.165C347.262 635.322 347.818 635.558 348.3 635.872M357.863 634.694L358.334 644.981L356.999 645.06L356.528 635.95L351.502 636.186L351.895 645.295L350.56 645.374L350.01 635.086L357.863 634.694ZM364.146 643.332C364.067 643.567 364.016 643.725 363.883 643.96C363.517 644.353 362.816 644.667 361.664 644.745L361.083 644.824L361.004 643.646L361.397 643.567C361.947 643.567 362.394 643.489 362.595 643.332C362.654 643.253 362.811 643.096 362.879 642.861L363.125 642.154L359.198 634.615L360.69 634.458L363.674 640.348L365.795 634.065L367.287 633.987L364.146 643.332ZM375.218 640.426C375.14 639.798 374.944 639.327 374.548 639.013C374.119 638.777 373.588 638.699 372.843 638.777L370.585 639.013L370.978 642.782L373.255 642.547C373.962 642.468 374.545 642.232 374.867 641.84C375.14 641.526 375.321 641.055 375.249 640.426M375.14 633.123L375.297 634.222L370.114 634.772L370.428 637.913L372.705 637.599C373.883 637.521 374.843 637.678 375.521 638.07C376.161 638.463 376.596 639.248 376.71 640.269C376.789 641.212 376.598 641.997 376.033 642.625C375.454 643.175 374.611 643.489 373.463 643.646L369.721 644.039L368.622 633.83L375.14 633.123ZM378.595 643.018L378.438 641.918C379.38 641.526 379.959 640.976 380.13 640.191C380.323 638.934 380.257 636.971 379.849 634.222L379.537 632.495L385.584 631.553L387.155 641.761L385.741 641.997L384.406 632.966L381.108 633.437L381.265 634.694C381.658 637.285 381.757 639.17 381.473 640.505C381.186 641.683 380.245 642.547 378.613 643.018M395.636 629.746L397.599 639.877L396.264 640.112L394.615 631.631L391.788 640.976L389.903 641.29L388.018 631.16L389.353 630.924L390.924 639.405L393.83 630.06L395.636 629.746ZM397.992 629.275L399.405 628.961L400.505 633.908L404.274 627.862L406.002 627.469L403.018 632.338L408.436 637.442L406.944 637.835L402.311 633.437L400.897 635.715L401.683 639.013L400.269 639.327L397.992 629.275ZM411.185 627.547L410.635 632.966L414.326 632.024L411.185 627.547ZM410.085 626.448L411.577 626.055L418.017 635.008L416.603 635.4L415.033 633.045L410.478 634.222L410.242 636.971L408.829 637.364L410.085 626.454" fill="black"/>
<path d="M292.233 3.20654L279.668 25.7445L297.73 43.8638" stroke="black" stroke-width="1.57059"/>
<path d="M372.254 43.4924L390.708 25.7448L378.929 2.54346" stroke="black" stroke-width="1.57059"/>
</g>
<defs>
<clipPath id="clip0_806_91392">
<rect width="678.078" height="690" fill="white"/>
</clipPath>
</defs>
</svg>
