<svg id="id-svg" width="600" height="680" viewBox="0 0 600 680" fill="none" xmlns="http://www.w3.org/2000/svg">
<path fill-rule="evenodd" clip-rule="evenodd" d="M587.886 11.2183H9.42047L8.94727 570.007C8.96183 572.386 9.22017 578.5 9.80528 584.18C9.97267 585.805 10.2055 587.472 10.5279 589.127C11.4945 594.09 13.6866 598.741 15.7901 602.625C16.1046 603.206 16.4926 603.75 16.8671 604.306C25.4533 617.055 42.2705 627.558 73.1185 627.558H240.4C242.158 627.603 268.916 630.495 287.723 649.277C291.091 652.775 296.908 659.247 300.768 667.687H301.969C303.108 665.116 304.41 662.707 305.795 660.475C308.721 655.761 312.022 651.838 314.965 648.845C334.269 629.526 359.687 627.601 361.507 627.556L528.673 627.558C530.777 627.558 532.812 627.493 534.779 627.366C561.201 625.664 579.062 614.979 587.258 602.189C589.664 598.434 591.283 594.526 592.365 590.809C594.719 584.041 594.274 576.997 594.251 570.001L594.232 564.507L592.364 11.2185L587.886 11.2183Z" fill="white" stroke="black" stroke-width="4.37562"/>
<path fill-rule="evenodd" clip-rule="evenodd" d="M301.476 68.6699C440.148 68.6699 552.707 181.228 552.707 319.901C552.707 458.573 440.148 571.133 301.476 571.133C162.804 571.133 50.2441 458.573 50.2441 319.901C50.2441 181.228 162.804 68.6699 301.476 68.6699Z" fill="#136EC9"/>
<path fill-rule="evenodd" clip-rule="evenodd" d="M301.478 80.4326C433.656 80.4326 540.946 187.722 540.946 319.901C540.946 452.081 433.656 559.369 301.478 559.369C169.297 559.369 62.0078 452.081 62.0078 319.901C62.0078 187.722 169.297 80.4326 301.478 80.4326Z" fill="#F4DD12"/>
<path fill-rule="evenodd" clip-rule="evenodd" d="M301.478 133.838C404.179 133.838 487.541 217.199 487.541 319.901C487.541 422.602 404.179 505.964 301.478 505.964C198.777 505.964 115.414 422.602 115.414 319.901C115.414 217.199 198.777 133.838 301.478 133.838Z" fill="#136EC9"/>
<path fill-rule="evenodd" clip-rule="evenodd" d="M301.477 193.96C370.991 193.96 427.416 250.385 427.416 319.901C427.416 389.416 370.991 445.841 301.477 445.841C231.962 445.841 175.537 389.416 175.537 319.901C175.537 250.385 231.962 193.96 301.477 193.96Z" fill="white"/>
<path fill-rule="evenodd" clip-rule="evenodd" d="M202.3 439.384C189.552 433.287 190.328 417.657 191.769 405.131C200.083 415.551 206.512 425.417 203.076 439.162C202.743 439.162 202.521 439.273 202.3 439.384ZM189.663 430.516C187.335 428.742 186.559 428.077 183.788 427.523C184.009 426.858 188 424.198 188.998 422.867C188.998 425.195 189.884 428.41 189.663 430.516ZM170.818 425.306C160.066 421.426 155.299 414.886 149.202 405.242C147.761 401.917 147.761 401.917 147.429 399.921C157.294 407.127 170.375 409.122 178.467 418.655C180.351 422.424 180.351 422.424 180.24 423.2C177.026 424.752 174.476 424.974 170.818 425.306ZM185.229 419.764C177.358 413.888 177.247 409.233 177.247 399.367C179.464 385.289 179.464 385.289 180.019 384.402C186.226 395.487 191.658 406.794 186.116 419.542C185.783 419.542 185.45 419.653 185.229 419.764ZM172.703 408.679C170.596 407.237 169.266 406.461 166.828 405.575C168.49 404.244 170.264 402.914 172.038 401.695C172.148 404.91 172.924 408.346 172.703 408.679ZM156.851 401.362C144.214 397.15 136.233 384.07 134.792 370.989C139.447 377.308 146.098 380.966 152.86 384.846C157.627 388.836 163.835 393.27 162.948 400.365C159.733 401.141 159.733 401.141 156.851 401.362ZM169.377 398.702C164.389 392.827 163.945 390.61 163.945 382.739C165.054 378.527 167.825 365.114 171.372 362.786C174.698 375.202 178.023 387.617 169.377 398.702ZM158.625 384.291C157.294 382.074 155.964 381.077 153.858 379.636C158.957 378.195 159.179 377.862 160.287 377.973C159.511 380.079 159.29 382.074 159.068 384.291H158.625ZM146.874 374.758C134.57 369.881 127.697 353.697 129.027 340.838C131.799 344.939 131.799 344.939 135.678 349.706C143.771 357.133 151.641 362.675 152.417 374.315C150.532 374.426 148.648 374.536 146.874 374.758ZM158.625 374.315C148.759 364.449 159.068 347.6 165.386 338.843C167.714 350.149 167.603 359.35 162.504 369.548C161.174 371.1 159.844 372.652 158.625 374.315ZM150.865 358.463C149.867 356.357 147.872 355.248 146.985 353.475C151.53 352.699 151.53 352.699 153.636 351.923C152.749 354.362 151.974 355.914 151.641 358.463H150.865ZM144.214 349.928C132.353 346.27 129.914 338.288 128.141 326.316C128.141 316.229 128.141 316.229 128.584 312.793L129.249 313.125C133.351 323.545 142.551 331.083 145.877 341.725C145.877 344.274 145.988 346.935 146.098 349.595C145.433 349.706 144.768 349.817 144.214 349.928ZM151.308 349.263C148.87 341.836 148.537 338.51 152.084 331.083C155.077 326.649 155.077 326.649 164.167 315.675C164.278 315.786 164.5 315.896 164.721 316.007C164.389 326.982 163.391 344.163 151.308 349.263ZM146.098 332.635C145.877 330.196 144.657 328.866 143.216 326.982C145.433 326.76 147.65 326.649 149.978 326.538C148.426 328.755 147.54 330.196 146.874 332.635H146.098ZM148.648 323.323C146.985 315.01 147.872 311.462 152.971 304.701C161.063 297.274 161.063 297.274 167.16 292.396C166.495 303.149 160.509 320.441 148.648 323.323ZM141.332 321.882C126.145 315.231 129.249 296.054 132.464 282.752H133.129C135.235 293.283 141.554 301.929 144.436 312.128C144.436 315.231 144.547 318.335 143.66 321.328C142.884 321.439 142.108 321.661 141.332 321.882ZM146.431 305.255C146.209 303.038 145.212 301.264 144.214 299.38C150.865 299.491 150.865 299.491 150.976 299.823C148.981 301.818 147.761 302.816 147.207 305.255H146.431ZM151.974 297.163C151.087 288.738 152.749 285.413 158.625 279.537C161.618 277.542 171.372 269.45 174.587 269.45C170.818 280.868 165.054 294.281 151.974 297.163ZM145.766 294.946C133.905 289.071 135.013 275.658 137.785 264.462C141.443 254.818 141.443 254.818 141.775 254.707C141.886 254.929 142.108 255.15 142.33 255.372C142.773 264.573 146.209 273.108 148.87 281.865C148.87 285.302 149.202 293.283 145.766 294.946ZM151.974 277.875C151.863 276.212 150.532 272.665 150.754 271.335C152.749 272 154.856 272.665 156.962 273.441C154.745 274.882 154.745 274.882 151.974 277.875ZM158.625 270.115C159.622 254.929 173.146 252.49 185.561 247.723C185.894 247.723 186.226 247.723 186.559 247.834C179.354 258.919 173.146 269.228 158.625 270.115ZM152.417 268.342C138.45 258.808 148.426 237.968 156.075 227.659C155.964 231.539 155.853 235.419 155.853 239.41C156.518 244.73 160.952 266.235 152.417 268.342ZM161.618 253.155C162.172 250.827 162.172 250.827 162.283 246.282C164.167 247.723 164.167 247.723 168.269 249.608C165.497 250.273 163.835 251.492 161.618 253.155ZM170.153 246.504C171.816 231.983 189.441 230.763 201.191 228.435C195.76 235.197 194.984 235.53 194.097 236.749C185.561 243.844 180.906 245.728 170.153 246.504ZM164.611 243.178C158.07 235.419 159.179 228.879 162.837 219.567C166.273 213.581 170.264 208.593 174.92 203.605C174.92 207.485 173.368 211.919 172.813 215.798C172.592 222.782 173.257 239.742 164.611 243.178ZM176.028 231.317C176.804 229.433 177.913 226.329 177.469 224.334C178.245 224.556 180.019 226.662 182.901 228.435C177.691 230.209 177.691 230.209 176.028 231.317ZM183.012 222.449C183.899 208.039 196.314 199.947 209.616 196.621C204.517 206.598 199.307 214.136 190.106 220.454C187.667 221.119 185.34 221.784 183.012 222.449ZM292.089 488.934C290.98 488.602 289.872 488.38 288.763 488.158C289.428 484.833 294.084 482.394 296.634 480.51C291.424 477.96 284.329 478.847 278.787 479.623C278.787 472.639 278.787 472.639 279.119 472.085C286.879 474.635 286.879 474.635 300.957 478.293C308.495 476.852 316.143 474.745 323.46 472.307C323.57 474.856 323.681 477.406 323.792 480.066C317.917 478.958 312.707 479.29 306.832 480.177C306.721 480.288 306.61 480.51 306.61 480.731C308.495 482.173 313.261 485.276 313.261 487.937C311.931 488.048 310.601 488.158 309.271 488.269C306.499 485.387 304.615 482.948 300.735 482.394C298.962 483.503 297.188 484.611 295.525 485.72C292.754 488.713 292.754 488.713 292.089 488.934ZM341.196 488.491C336.762 487.05 328.78 483.835 328.78 477.96C330.776 477.184 332.771 476.408 334.766 475.743H341.972C350.951 478.404 359.597 481.286 368.908 481.84V482.616C363.809 484.611 358.71 486.496 353.389 487.937C349.288 488.048 345.186 488.269 341.196 488.491ZM252.848 488.158C246.418 486.939 237.994 485.387 232.673 481.397C235.555 481.064 238.437 480.731 241.43 480.51C250.409 477.849 259.72 473.748 269.143 475.743C270.584 476.297 272.025 476.852 273.577 477.406C272.468 486.828 260.275 487.826 252.848 488.158ZM366.691 479.29C363.144 478.293 355.385 476.076 355.385 471.309C365.583 464.769 375.005 466.986 386.644 468.316C389.527 468.094 392.409 467.873 395.291 467.762C385.647 474.191 385.647 474.191 382.765 475.743C377.444 477.295 372.234 478.736 366.691 479.29ZM230.678 478.514C223.361 476.63 217.043 474.302 210.503 470.311C207.177 467.762 207.177 467.762 206.29 467.429V466.764C209.283 466.986 212.276 467.319 215.38 467.651C227.685 466.543 236.22 464.104 246.973 470.755C243.758 477.738 237.55 478.293 230.678 478.514ZM350.84 474.08C348.512 472.972 346.738 472.972 344.189 472.75C346.184 470.977 347.625 469.425 348.733 467.097C349.509 470.422 350.951 473.304 350.84 474.08ZM329.002 473.748C328.337 473.637 327.672 473.526 327.118 473.415C331.773 459.781 340.198 453.906 354.498 449.693C347.514 461.887 343.967 472.75 329.002 473.748ZM251.074 473.415C251.85 471.198 252.626 468.981 253.402 466.764C256.727 471.531 256.727 471.531 257.836 472.307C255.286 472.307 253.513 472.639 251.074 473.415ZM269.143 473.415C257.393 469.536 253.624 459.448 247.416 449.25C255.176 449.25 266.815 458.34 271.581 464.104C274.464 469.979 274.464 469.979 275.239 472.307C274.685 473.526 270.362 473.415 269.143 473.415ZM352.613 466.321C352.613 453.684 363.588 442.71 374.783 438.276C371.68 448.03 368.908 455.901 362.368 463.55C358.932 464.769 356.271 465.877 352.613 466.321ZM246.197 465.656C233.449 461.443 231.121 449.693 226.798 438.276C226.798 437.943 226.798 437.611 226.909 437.278C238.548 444.151 248.081 450.802 249.633 465.323C248.414 465.434 247.305 465.545 246.197 465.656ZM389.194 464.88C386.423 464.104 379.439 462.33 379.439 458.783C389.527 449.582 399.725 452.243 412.805 450.248C414.468 449.804 416.463 448.363 418.237 448.917C411.253 458.007 400.39 463.55 389.194 464.88ZM210.724 464.104C199.196 461.554 191.658 456.788 183.233 448.363C183.233 448.03 183.233 447.809 183.344 447.587C196.092 452.354 211.722 447.476 222.031 457.785C222.031 462.33 214.161 463.993 210.724 464.104ZM368.132 462.33C369.795 460.667 370.793 458.561 371.79 456.455C372.788 458.34 373.786 460.335 374.783 462.33C372.234 461.776 370.682 461.998 368.132 462.33ZM226.687 461.554C227.685 459.559 228.793 457.675 229.902 455.79C230.899 457.785 232.008 459.559 233.449 461.222C231.121 461.333 228.904 461.443 226.687 461.554ZM376.668 455.236C376.668 444.816 378.552 439.717 385.093 431.514L393.739 423.533C393.85 424.974 393.85 424.974 390.857 440.493C388.196 448.806 385.203 452.797 376.668 455.236ZM224.026 454.571C215.269 451.356 213.607 447.809 210.503 439.384C209.505 433.842 208.507 428.41 207.51 422.978H208.286C218.041 432.29 226.354 439.828 225.135 454.571H224.026ZM392.52 448.585C393.85 446.146 393.85 446.146 395.402 442.045C397.508 445.148 397.508 445.148 399.392 447.144C396.843 447.144 394.847 447.92 392.52 448.585ZM208.507 447.92C206.845 446.479 204.406 446.589 202.3 446.811C202.3 446.479 202.3 446.146 202.411 445.813C204.184 444.927 204.96 442.377 206.734 441.269C206.845 442.821 208.84 446.922 208.507 447.92ZM408.815 447.476C405.822 446.257 405.822 446.257 403.383 444.594C404.381 440.493 408.371 437.5 411.808 435.394C420.786 432.29 430.763 430.405 438.744 425.306C438.744 425.639 438.744 425.971 438.855 426.304C431.872 436.945 426.551 442.155 415.133 447.255C413.027 447.255 410.921 447.365 408.815 447.476ZM187.446 446.811C176.139 443.042 167.936 434.839 162.393 424.419C163.613 424.752 165.83 426.304 172.37 429.186C178.356 430.849 197.977 434.507 197.977 443.929C194.208 446.146 191.769 446.589 187.446 446.811ZM411.808 431.292C412.14 428.853 412.473 426.415 412.805 423.976C414.911 426.082 414.911 426.082 417.904 427.967C415.687 428.742 413.581 429.74 411.808 431.292ZM418.015 223.225C406.043 219.235 397.397 209.147 392.963 197.397C402.939 201.166 421.673 209.147 419.124 223.225H418.015ZM425.775 232.093C423.669 230.541 421.562 230.098 419.124 229.322C422.117 227.438 423.779 225.664 424.666 225.442C424.999 227.659 425.331 229.876 425.775 232.093ZM427.659 247.612C415.133 244.841 410.256 239.188 401.609 230.098C401.609 229.765 401.609 229.433 401.72 229.211C412.584 231.65 429.765 233.313 432.315 246.837C431.317 247.391 431.317 247.391 427.659 247.612ZM297.188 188.862C298.075 187.975 302.73 185.314 305.058 183.319C306.721 180.88 308.495 178.552 310.268 176.225C315.478 163.477 311.377 154.387 302.398 145.408C300.846 144.41 299.405 143.413 297.964 142.526C297.853 142.193 297.853 141.972 297.853 141.75C305.502 140.42 312.042 142.083 318.25 146.517C328.337 157.491 330.443 172.123 319.247 183.319C312.374 188.418 305.502 188.64 297.188 188.862ZM202.877 222.449C229.373 195.984 262.432 186.897 276.699 184.722C277.497 185.647 278.349 186.523 279.25 187.35C252.164 190.275 225.874 206.096 202.877 222.449ZM398.156 222.449C371.567 195.891 338.37 186.834 324.185 184.7C323.386 185.627 322.534 186.504 321.634 187.333C348.77 190.218 375.116 206.067 398.156 222.449ZM389.288 195.18C389.51 194.404 389.731 193.628 389.953 192.963C390.396 192.963 390.729 192.963 391.062 193.074C374.662 181.405 352.295 170.454 331.558 168.168C331.338 169.914 330.974 171.614 330.479 173.258C352.73 176.417 371.284 184.742 389.288 195.18ZM411.015 200.279C380.289 170.6 348.53 163.124 331.475 159.728C331.69 161.204 331.804 162.712 331.804 164.247C331.804 164.359 331.801 164.471 331.8 164.584C360.729 169.535 387.146 183.664 411.015 200.279ZM422.01 201.055C399.525 169.426 353.911 154.156 327.435 148.312C328.489 150.093 329.375 151.985 330.066 153.967C362.18 160.841 395.682 177.475 422.01 201.055ZM399.928 214.357C385.698 196.535 355.417 180.491 329.057 177.059C328.514 178.271 327.894 179.439 327.205 180.563C366.51 189.237 376.502 198.409 399.928 214.357ZM211.745 195.18C211.523 194.404 211.302 193.628 211.08 192.963C210.637 192.963 210.304 192.963 209.972 193.074C226.328 181.436 248.62 170.511 269.311 168.185C269.531 169.932 269.897 171.635 270.394 173.281C248.213 176.456 229.706 184.766 211.745 195.18ZM190.018 200.279C220.642 170.697 252.29 163.173 269.387 159.76C269.175 161.227 269.064 162.722 269.064 164.247C269.064 164.368 269.067 164.488 269.068 164.611C240.201 169.587 213.841 183.695 190.018 200.279ZM179.021 201.055C201.453 169.501 246.902 154.228 273.407 148.353C272.356 150.133 271.474 152.024 270.787 154.004C238.727 160.903 205.3 177.518 179.021 201.055ZM201.105 214.357C215.306 196.57 245.495 180.554 271.817 177.081C272.365 178.295 272.987 179.469 273.68 180.596C234.496 189.259 224.501 198.429 201.105 214.357ZM398.505 440.16C395.734 425.86 400.944 417.657 409.369 406.351C409.591 406.24 409.923 406.129 410.256 406.129C410.256 418.212 412.584 435.172 398.505 440.16ZM425.442 426.082C424.112 425.417 422.782 424.752 421.562 424.198C421.562 413.113 442.846 407.792 449.829 404.355C450.938 403.579 453.266 400.808 454.818 401.252C451.825 407.459 451.825 407.459 448.499 412.891C441.183 421.426 436.306 425.528 425.442 426.082ZM415.798 420.872C409.591 408.457 415.466 396.152 421.673 385.178C424.334 397.372 428.435 413.445 415.798 420.872ZM428.435 409.787C428.989 407.348 429.322 405.353 429.211 402.693C430.874 403.136 433.756 405.464 434.643 406.905C432.093 407.127 430.541 408.457 428.435 409.787ZM442.846 402.471C441.183 401.917 439.52 401.362 437.968 400.919C441.626 388.947 449.275 385.843 460.138 379.303C464.572 375.534 464.572 375.534 467.233 372.541C467.233 382.85 458.476 394.6 450.605 400.365C446.504 401.806 446.504 401.806 442.846 402.471ZM431.761 399.478C427.548 392.051 426.662 387.728 426.662 379.081C428.213 371.322 428.213 371.322 430.43 363.784H431.096C434.199 372.43 444.287 392.716 431.761 399.478ZM442.846 385.067C442.846 382.739 442.181 380.744 441.405 378.638C445.063 380.079 445.063 380.079 447.945 380.744C447.058 381.188 446.171 381.631 445.395 382.074V382.85C444.287 382.85 443.511 384.291 442.846 385.067ZM451.27 375.867C450.716 375.645 450.273 375.534 449.829 375.423C449.829 360.348 466.235 354.14 473.108 342.279C473.108 353.586 468.896 371.322 456.48 375.202C454.707 375.423 452.933 375.645 451.27 375.867ZM443.178 375.423C433.423 365.668 434.643 352.588 436.195 339.951C436.416 339.951 436.638 340.062 436.971 340.173C443.843 352.366 452.379 362.786 443.178 375.423ZM450.605 359.572C450.162 357.355 449.497 355.248 448.499 353.142C452.046 354.14 452.046 354.14 455.039 354.362C454.707 355.359 451.603 358.907 450.605 359.572ZM456.48 350.704C456.37 348.265 456.259 345.937 456.259 343.609C459.362 332.746 468.785 324.654 473.33 314.234H473.995C475.214 326.982 474.438 344.496 460.914 350.482C459.363 350.482 457.921 350.593 456.48 350.704ZM449.829 350.371C439.188 341.614 436.86 329.864 437.525 316.451C445.839 325.873 457.367 336.736 450.716 350.038C450.384 350.149 450.051 350.26 449.829 350.371ZM455.372 333.743C455.15 331.194 453.598 329.642 452.046 327.647C453.155 327.536 455.039 327.979 459.03 327.758C458.808 328.644 458.808 328.644 457.035 330.307C456.702 331.416 456.37 332.524 456.148 333.743H455.372ZM452.822 324.432C448.832 321.882 444.952 319.111 441.848 315.342C438.19 308.359 436.084 301.153 434.643 293.394C434.864 293.394 435.197 293.505 435.53 293.615C446.171 302.816 456.924 308.802 453.598 323.878C453.266 323.989 453.044 324.21 452.822 324.432ZM459.03 322.991C456.037 310.908 461.912 302.927 467.344 292.285C468.785 287.74 468.785 287.74 469.45 283.861H470.115C473.108 295.943 476.544 320.552 459.03 322.991ZM455.372 306.363C453.709 303.26 453.709 303.26 451.825 301.042L458.143 300.71C457.367 301.486 457.367 301.486 455.372 306.363ZM449.053 298.271C440.518 294.059 437.303 290.512 432.315 282.863C429.322 276.212 429.322 276.212 427.437 270.448C430.874 270.448 439.964 277.875 443.4 280.424C449.608 286.078 450.716 289.957 450.605 298.271H449.053ZM455.704 296.054C450.273 283.639 456.924 273.995 459.917 261.58C460.138 259.473 460.36 257.367 460.693 255.372C466.568 267.898 472.332 289.403 455.704 296.054ZM449.829 278.983C448.499 276.766 447.169 275.769 445.063 274.327C448.61 273.662 448.61 273.662 451.27 272.443C450.716 274.549 450.273 276.766 449.829 278.983ZM440.961 271.224C427.881 267.344 422.449 259.917 415.466 248.61C416.242 248.499 416.242 248.499 431.539 254.374C439.52 257.922 442.735 262.688 443.511 271.224H440.961ZM448.721 269.45C447.169 266.457 445.839 263.797 444.841 260.582C444.841 249.94 446.615 239.52 446.393 228.879C454.707 240.407 460.804 253.598 453.266 266.9C450.716 268.785 450.716 268.785 448.721 269.45ZM439.853 253.488C438.966 251.936 436.306 251.271 434.643 250.938V250.162C436.527 249.497 438.301 248.499 439.853 247.28C439.964 250.827 439.964 250.827 440.629 253.488H439.853ZM436.527 243.954C428.657 235.53 429.765 225.553 429.322 214.69C428.546 209.923 428.546 209.923 426.883 204.713C427.105 204.713 427.437 204.824 427.77 204.935C436.749 214.246 449.608 231.539 438.079 243.622C437.525 243.733 436.971 243.844 436.527 243.954Z" fill="#FFDC00"/>
<path fill-rule="evenodd" clip-rule="evenodd" d="M202.3 439.384C189.552 433.287 190.328 417.657 191.769 405.131C200.083 415.551 206.512 425.417 203.076 439.162C202.743 439.162 202.521 439.273 202.3 439.384ZM189.663 430.516C187.335 428.742 186.559 428.077 183.788 427.523C184.009 426.858 188 424.198 188.998 422.867C188.998 425.195 189.884 428.41 189.663 430.516ZM170.818 425.306C160.066 421.426 155.299 414.886 149.202 405.242C147.761 401.917 147.761 401.917 147.429 399.921C157.294 407.127 170.375 409.122 178.467 418.655C180.351 422.424 180.351 422.424 180.24 423.2C177.026 424.752 174.476 424.974 170.818 425.306ZM185.229 419.764C177.358 413.888 177.247 409.233 177.247 399.367C179.464 385.289 179.464 385.289 180.019 384.402C186.226 395.487 191.658 406.794 186.116 419.542C185.783 419.542 185.45 419.653 185.229 419.764ZM172.703 408.679C170.596 407.237 169.266 406.461 166.828 405.575C168.49 404.244 170.264 402.914 172.038 401.695C172.148 404.91 172.924 408.346 172.703 408.679ZM156.851 401.362C144.214 397.15 136.233 384.07 134.792 370.989C139.447 377.308 146.098 380.966 152.86 384.846C157.627 388.836 163.835 393.27 162.948 400.365C159.733 401.141 159.733 401.141 156.851 401.362ZM169.377 398.702C164.389 392.827 163.945 390.61 163.945 382.739C165.054 378.527 167.825 365.114 171.372 362.786C174.698 375.202 178.023 387.617 169.377 398.702ZM158.625 384.291C157.294 382.074 155.964 381.077 153.858 379.636C158.957 378.195 159.179 377.862 160.287 377.973C159.511 380.079 159.29 382.074 159.068 384.291H158.625ZM146.874 374.758C134.57 369.881 127.697 353.697 129.027 340.838C131.799 344.939 131.799 344.939 135.678 349.706C143.771 357.133 151.641 362.675 152.417 374.315C150.532 374.426 148.648 374.536 146.874 374.758ZM158.625 374.315C148.759 364.449 159.068 347.6 165.386 338.843C167.714 350.149 167.603 359.35 162.504 369.548C161.174 371.1 159.844 372.652 158.625 374.315ZM150.865 358.463C149.867 356.357 147.872 355.248 146.985 353.475C151.53 352.699 151.53 352.699 153.636 351.923C152.749 354.362 151.974 355.914 151.641 358.463H150.865ZM144.214 349.928C132.353 346.27 129.914 338.288 128.141 326.316C128.141 316.229 128.141 316.229 128.584 312.793L129.249 313.125C133.351 323.545 142.551 331.083 145.877 341.725C145.877 344.274 145.988 346.935 146.098 349.595C145.433 349.706 144.768 349.817 144.214 349.928ZM151.308 349.263C148.87 341.836 148.537 338.51 152.084 331.083C155.077 326.649 155.077 326.649 164.167 315.675C164.278 315.786 164.5 315.896 164.721 316.007C164.389 326.982 163.391 344.163 151.308 349.263ZM146.098 332.635C145.877 330.196 144.657 328.866 143.216 326.982C145.433 326.76 147.65 326.649 149.978 326.538C148.426 328.755 147.54 330.196 146.874 332.635H146.098ZM148.648 323.323C146.985 315.01 147.872 311.462 152.971 304.701C161.063 297.274 161.063 297.274 167.16 292.396C166.495 303.149 160.509 320.441 148.648 323.323ZM141.332 321.882C126.145 315.231 129.249 296.054 132.464 282.752H133.129C135.235 293.283 141.554 301.929 144.436 312.128C144.436 315.231 144.547 318.335 143.66 321.328C142.884 321.439 142.108 321.661 141.332 321.882ZM146.431 305.255C146.209 303.038 145.212 301.264 144.214 299.38C150.865 299.491 150.865 299.491 150.976 299.823C148.981 301.818 147.761 302.816 147.207 305.255H146.431ZM151.974 297.163C151.087 288.738 152.749 285.413 158.625 279.537C161.618 277.542 171.372 269.45 174.587 269.45C170.818 280.868 165.054 294.281 151.974 297.163ZM145.766 294.946C133.905 289.071 135.013 275.658 137.785 264.462C141.443 254.818 141.443 254.818 141.775 254.707C141.886 254.929 142.108 255.15 142.33 255.372C142.773 264.573 146.209 273.108 148.87 281.865C148.87 285.302 149.202 293.283 145.766 294.946ZM151.974 277.875C151.863 276.212 150.532 272.665 150.754 271.335C152.749 272 154.856 272.665 156.962 273.441C154.745 274.882 154.745 274.882 151.974 277.875ZM158.625 270.115C159.622 254.929 173.146 252.49 185.561 247.723C185.894 247.723 186.226 247.723 186.559 247.834C179.354 258.919 173.146 269.228 158.625 270.115ZM152.417 268.342C138.45 258.808 148.426 237.968 156.075 227.659C155.964 231.539 155.853 235.419 155.853 239.41C156.518 244.73 160.952 266.235 152.417 268.342ZM161.618 253.155C162.172 250.827 162.172 250.827 162.283 246.282C164.167 247.723 164.167 247.723 168.269 249.608C165.497 250.273 163.835 251.492 161.618 253.155ZM170.153 246.504C171.816 231.983 189.441 230.763 201.191 228.435C195.76 235.197 194.984 235.53 194.097 236.749C185.561 243.844 180.906 245.728 170.153 246.504ZM164.611 243.178C158.07 235.419 159.179 228.879 162.837 219.567C166.273 213.581 170.264 208.593 174.92 203.605C174.92 207.485 173.368 211.919 172.813 215.798C172.592 222.782 173.257 239.742 164.611 243.178ZM176.028 231.317C176.804 229.433 177.913 226.329 177.469 224.334C178.245 224.556 180.019 226.662 182.901 228.435C177.691 230.209 177.691 230.209 176.028 231.317ZM183.012 222.449C183.899 208.039 196.314 199.947 209.616 196.621C204.517 206.598 199.307 214.136 190.106 220.454C187.667 221.119 185.34 221.784 183.012 222.449ZM292.089 488.934C290.98 488.602 289.872 488.38 288.763 488.158C289.428 484.833 294.084 482.394 296.634 480.51C291.424 477.96 284.329 478.847 278.787 479.623C278.787 472.639 278.787 472.639 279.119 472.085C286.879 474.635 286.879 474.635 300.957 478.293C308.495 476.852 316.143 474.745 323.46 472.307C323.57 474.856 323.681 477.406 323.792 480.066C317.917 478.958 312.707 479.29 306.832 480.177C306.721 480.288 306.61 480.51 306.61 480.731C308.495 482.173 313.261 485.276 313.261 487.937C311.931 488.048 310.601 488.158 309.271 488.269C306.499 485.387 304.615 482.948 300.735 482.394C298.962 483.503 297.188 484.611 295.525 485.72C292.754 488.713 292.754 488.713 292.089 488.934ZM341.196 488.491C336.762 487.05 328.78 483.835 328.78 477.96C330.776 477.184 332.771 476.408 334.766 475.743H341.972C350.951 478.404 359.597 481.286 368.908 481.84V482.616C363.809 484.611 358.71 486.496 353.389 487.937C349.288 488.048 345.186 488.269 341.196 488.491ZM252.848 488.158C246.418 486.939 237.994 485.387 232.673 481.397C235.555 481.064 238.437 480.731 241.43 480.51C250.409 477.849 259.72 473.748 269.143 475.743C270.584 476.297 272.025 476.852 273.577 477.406C272.468 486.828 260.275 487.826 252.848 488.158ZM366.691 479.29C363.144 478.293 355.385 476.076 355.385 471.309C365.583 464.769 375.005 466.986 386.644 468.316C389.527 468.094 392.409 467.873 395.291 467.762C385.647 474.191 385.647 474.191 382.765 475.743C377.444 477.295 372.234 478.736 366.691 479.29ZM230.678 478.514C223.361 476.63 217.043 474.302 210.503 470.311C207.177 467.762 207.177 467.762 206.29 467.429V466.764C209.283 466.986 212.276 467.319 215.38 467.651C227.685 466.543 236.22 464.104 246.973 470.755C243.758 477.738 237.55 478.293 230.678 478.514ZM350.84 474.08C348.512 472.972 346.738 472.972 344.189 472.75C346.184 470.977 347.625 469.425 348.733 467.097C349.509 470.422 350.951 473.304 350.84 474.08ZM329.002 473.748C328.337 473.637 327.672 473.526 327.118 473.415C331.773 459.781 340.198 453.906 354.498 449.693C347.514 461.887 343.967 472.75 329.002 473.748ZM251.074 473.415C251.85 471.198 252.626 468.981 253.402 466.764C256.727 471.531 256.727 471.531 257.836 472.307C255.286 472.307 253.513 472.639 251.074 473.415ZM269.143 473.415C257.393 469.536 253.624 459.448 247.416 449.25C255.176 449.25 266.815 458.34 271.581 464.104C274.464 469.979 274.464 469.979 275.239 472.307C274.685 473.526 270.362 473.415 269.143 473.415ZM352.613 466.321C352.613 453.684 363.588 442.71 374.783 438.276C371.68 448.03 368.908 455.901 362.368 463.55C358.932 464.769 356.271 465.877 352.613 466.321ZM246.197 465.656C233.449 461.443 231.121 449.693 226.798 438.276C226.798 437.943 226.798 437.611 226.909 437.278C238.548 444.151 248.081 450.802 249.633 465.323C248.414 465.434 247.305 465.545 246.197 465.656ZM389.194 464.88C386.423 464.104 379.439 462.33 379.439 458.783C389.527 449.582 399.725 452.243 412.805 450.248C414.468 449.804 416.463 448.363 418.237 448.917C411.253 458.007 400.39 463.55 389.194 464.88ZM210.724 464.104C199.196 461.554 191.658 456.788 183.233 448.363C183.233 448.03 183.233 447.809 183.344 447.587C196.092 452.354 211.722 447.476 222.031 457.785C222.031 462.33 214.161 463.993 210.724 464.104ZM368.132 462.33C369.795 460.667 370.793 458.561 371.79 456.455C372.788 458.34 373.786 460.335 374.783 462.33C372.234 461.776 370.682 461.998 368.132 462.33ZM226.687 461.554C227.685 459.559 228.793 457.675 229.902 455.79C230.899 457.785 232.008 459.559 233.449 461.222C231.121 461.333 228.904 461.443 226.687 461.554ZM376.668 455.236C376.668 444.816 378.552 439.717 385.093 431.514L393.739 423.533C393.85 424.974 393.85 424.974 390.857 440.493C388.196 448.806 385.203 452.797 376.668 455.236ZM224.026 454.571C215.269 451.356 213.607 447.809 210.503 439.384C209.505 433.842 208.507 428.41 207.51 422.978H208.286C218.041 432.29 226.354 439.828 225.135 454.571H224.026ZM392.52 448.585C393.85 446.146 393.85 446.146 395.402 442.045C397.508 445.148 397.508 445.148 399.392 447.144C396.843 447.144 394.847 447.92 392.52 448.585ZM208.507 447.92C206.845 446.479 204.406 446.589 202.3 446.811C202.3 446.479 202.3 446.146 202.411 445.813C204.184 444.927 204.96 442.377 206.734 441.269C206.845 442.821 208.84 446.922 208.507 447.92ZM408.815 447.476C405.822 446.257 405.822 446.257 403.383 444.594C404.381 440.493 408.371 437.5 411.808 435.394C420.786 432.29 430.763 430.405 438.744 425.306C438.744 425.639 438.744 425.971 438.855 426.304C431.872 436.945 426.551 442.155 415.133 447.255C413.027 447.255 410.921 447.365 408.815 447.476ZM187.446 446.811C176.139 443.042 167.936 434.839 162.393 424.419C163.613 424.752 165.83 426.304 172.37 429.186C178.356 430.849 197.977 434.507 197.977 443.929C194.208 446.146 191.769 446.589 187.446 446.811ZM411.808 431.292C412.14 428.853 412.473 426.415 412.805 423.976C414.911 426.082 414.911 426.082 417.904 427.967C415.687 428.742 413.581 429.74 411.808 431.292ZM418.015 223.225C406.043 219.235 397.397 209.147 392.963 197.397C402.939 201.166 421.673 209.147 419.124 223.225H418.015ZM425.775 232.093C423.669 230.541 421.562 230.098 419.124 229.322C422.117 227.438 423.779 225.664 424.666 225.442C424.999 227.659 425.331 229.876 425.775 232.093ZM427.659 247.612C415.133 244.841 410.256 239.188 401.609 230.098C401.609 229.765 401.609 229.433 401.72 229.211C412.584 231.65 429.765 233.313 432.315 246.837C431.317 247.391 431.317 247.391 427.659 247.612ZM297.188 188.862C298.075 187.975 302.73 185.314 305.058 183.319C306.721 180.88 308.495 178.552 310.268 176.225C315.478 163.477 311.377 154.387 302.398 145.408C300.846 144.41 299.405 143.413 297.964 142.526C297.853 142.193 297.853 141.972 297.853 141.75C305.502 140.42 312.042 142.083 318.25 146.517C328.337 157.491 330.443 172.123 319.247 183.319C312.374 188.418 305.502 188.64 297.188 188.862ZM202.877 222.449C229.373 195.984 262.432 186.897 276.699 184.722C277.497 185.647 278.349 186.523 279.25 187.35C252.164 190.275 225.874 206.096 202.877 222.449ZM398.156 222.449C371.567 195.891 338.37 186.834 324.185 184.7C323.386 185.627 322.534 186.504 321.634 187.333C348.77 190.218 375.116 206.067 398.156 222.449ZM389.288 195.18C389.51 194.404 389.731 193.628 389.953 192.963C390.396 192.963 390.729 192.963 391.062 193.074C374.662 181.405 352.295 170.454 331.558 168.168C331.338 169.914 330.974 171.614 330.479 173.258C352.73 176.417 371.284 184.742 389.288 195.18ZM411.015 200.279C380.289 170.6 348.53 163.124 331.475 159.728C331.69 161.204 331.804 162.712 331.804 164.247C331.804 164.359 331.801 164.471 331.8 164.584C360.729 169.535 387.146 183.664 411.015 200.279ZM422.01 201.055C399.525 169.426 353.911 154.156 327.435 148.312C328.489 150.093 329.375 151.985 330.066 153.967C362.18 160.841 395.682 177.475 422.01 201.055ZM399.928 214.357C385.698 196.535 355.417 180.491 329.057 177.059C328.514 178.271 327.894 179.439 327.205 180.563C366.51 189.237 376.502 198.409 399.928 214.357ZM211.745 195.18C211.523 194.404 211.302 193.628 211.08 192.963C210.637 192.963 210.304 192.963 209.972 193.074C226.328 181.436 248.62 170.511 269.311 168.185C269.531 169.932 269.897 171.635 270.394 173.281C248.213 176.456 229.706 184.766 211.745 195.18ZM190.018 200.279C220.642 170.697 252.29 163.173 269.387 159.76C269.175 161.227 269.064 162.722 269.064 164.247C269.064 164.368 269.067 164.488 269.068 164.611C240.201 169.587 213.841 183.695 190.018 200.279ZM179.021 201.055C201.453 169.501 246.902 154.228 273.407 148.353C272.356 150.133 271.474 152.024 270.787 154.004C238.727 160.903 205.3 177.518 179.021 201.055ZM201.105 214.357C215.306 196.57 245.495 180.554 271.817 177.081C272.365 178.295 272.987 179.469 273.68 180.596C234.496 189.259 224.501 198.429 201.105 214.357ZM398.505 440.16C395.734 425.86 400.944 417.657 409.369 406.351C409.591 406.24 409.923 406.129 410.256 406.129C410.256 418.212 412.584 435.172 398.505 440.16ZM425.442 426.082C424.112 425.417 422.782 424.752 421.562 424.198C421.562 413.113 442.846 407.792 449.829 404.355C450.938 403.579 453.266 400.808 454.818 401.252C451.825 407.459 451.825 407.459 448.499 412.891C441.183 421.426 436.306 425.528 425.442 426.082ZM415.798 420.872C409.591 408.457 415.466 396.152 421.673 385.178C424.334 397.372 428.435 413.445 415.798 420.872ZM428.435 409.787C428.989 407.348 429.322 405.353 429.211 402.693C430.874 403.136 433.756 405.464 434.643 406.905C432.093 407.127 430.541 408.457 428.435 409.787ZM442.846 402.471C441.183 401.917 439.52 401.362 437.968 400.919C441.626 388.947 449.275 385.843 460.138 379.303C464.572 375.534 464.572 375.534 467.233 372.541C467.233 382.85 458.476 394.6 450.605 400.365C446.504 401.806 446.504 401.806 442.846 402.471ZM431.761 399.478C427.548 392.051 426.662 387.728 426.662 379.081C428.213 371.322 428.213 371.322 430.43 363.784H431.096C434.199 372.43 444.287 392.716 431.761 399.478ZM442.846 385.067C442.846 382.739 442.181 380.744 441.405 378.638C445.063 380.079 445.063 380.079 447.945 380.744C447.058 381.188 446.171 381.631 445.395 382.074V382.85C444.287 382.85 443.511 384.291 442.846 385.067ZM451.27 375.867C450.716 375.645 450.273 375.534 449.829 375.423C449.829 360.348 466.235 354.14 473.108 342.279C473.108 353.586 468.896 371.322 456.48 375.202C454.707 375.423 452.933 375.645 451.27 375.867ZM443.178 375.423C433.423 365.668 434.643 352.588 436.195 339.951C436.416 339.951 436.638 340.062 436.971 340.173C443.843 352.366 452.379 362.786 443.178 375.423ZM450.605 359.572C450.162 357.355 449.497 355.248 448.499 353.142C452.046 354.14 452.046 354.14 455.039 354.362C454.707 355.359 451.603 358.907 450.605 359.572ZM456.48 350.704C456.37 348.265 456.259 345.937 456.259 343.609C459.362 332.746 468.785 324.654 473.33 314.234H473.995C475.214 326.982 474.438 344.496 460.914 350.482C459.363 350.482 457.921 350.593 456.48 350.704ZM449.829 350.371C439.188 341.614 436.86 329.864 437.525 316.451C445.839 325.873 457.367 336.736 450.716 350.038C450.384 350.149 450.051 350.26 449.829 350.371ZM455.372 333.743C455.15 331.194 453.598 329.642 452.046 327.647C453.155 327.536 455.039 327.979 459.03 327.758C458.808 328.644 458.808 328.644 457.035 330.307C456.702 331.416 456.37 332.524 456.148 333.743H455.372ZM452.822 324.432C448.832 321.882 444.952 319.111 441.848 315.342C438.19 308.359 436.084 301.153 434.643 293.394C434.864 293.394 435.197 293.505 435.53 293.615C446.171 302.816 456.924 308.802 453.598 323.878C453.266 323.989 453.044 324.21 452.822 324.432ZM459.03 322.991C456.037 310.908 461.912 302.927 467.344 292.285C468.785 287.74 468.785 287.74 469.45 283.861H470.115C473.108 295.943 476.544 320.552 459.03 322.991ZM455.372 306.363C453.709 303.26 453.709 303.26 451.825 301.042L458.143 300.71C457.367 301.486 457.367 301.486 455.372 306.363ZM449.053 298.271C440.518 294.059 437.303 290.512 432.315 282.863C429.322 276.212 429.322 276.212 427.437 270.448C430.874 270.448 439.964 277.875 443.4 280.424C449.608 286.078 450.716 289.957 450.605 298.271H449.053ZM455.704 296.054C450.273 283.639 456.924 273.995 459.917 261.58C460.138 259.473 460.36 257.367 460.693 255.372C466.568 267.898 472.332 289.403 455.704 296.054ZM449.829 278.983C448.499 276.766 447.169 275.769 445.063 274.327C448.61 273.662 448.61 273.662 451.27 272.443C450.716 274.549 450.273 276.766 449.829 278.983ZM440.961 271.224C427.881 267.344 422.449 259.917 415.466 248.61C416.242 248.499 416.242 248.499 431.539 254.374C439.52 257.922 442.735 262.688 443.511 271.224H440.961ZM448.721 269.45C447.169 266.457 445.839 263.797 444.841 260.582C444.841 249.94 446.615 239.52 446.393 228.879C454.707 240.407 460.804 253.598 453.266 266.9C450.716 268.785 450.716 268.785 448.721 269.45ZM439.853 253.488C438.966 251.936 436.306 251.271 434.643 250.938V250.162C436.527 249.497 438.301 248.499 439.853 247.28C439.964 250.827 439.964 250.827 440.629 253.488H439.853ZM436.527 243.954C428.657 235.53 429.765 225.553 429.322 214.69C428.546 209.923 428.546 209.923 426.883 204.713C427.105 204.713 427.437 204.824 427.77 204.935C436.749 214.246 449.608 231.539 438.079 243.622C437.525 243.733 436.971 243.844 436.527 243.954Z" fill="#F5DE0B"/>
<path fill-rule="evenodd" clip-rule="evenodd" d="M283.885 543.584C272.135 539.15 264.708 531.169 255.175 522.855C248.856 518.975 240.986 512.878 235.665 521.414C235.665 527.289 239.656 530.614 244.533 526.513C244.533 524.185 244.311 523.52 242.981 521.636C245.531 519.64 248.856 523.631 249.854 525.515C249.854 527.067 249.965 528.619 250.075 530.282C245.087 539.704 236.219 535.603 230.122 530.06C228.57 526.956 228.57 526.956 228.127 526.735C226.908 527.511 225.688 528.397 224.58 529.284C224.247 528.952 224.247 528.952 223.25 522.633C214.603 526.956 208.95 526.07 202.077 518.532C194.318 507.225 191.103 493.258 180.129 484.279C172.923 481.951 169.265 486.607 171.593 493.036C175.362 496.029 180.35 493.701 177.912 488.824C181.237 488.824 182.013 490.487 182.789 493.59C182.235 500.241 179.796 502.015 173.367 502.015C166.383 500.352 163.945 495.031 162.947 488.269C161.617 488.269 161.617 488.269 158.291 489.267C158.845 486.607 158.845 486.607 158.624 485.277C147.428 485.277 143.548 478.847 140.666 467.873C139.668 460.335 136.675 426.193 121.489 435.615C120.269 438.83 119.493 441.047 122.265 443.818C126.699 445.259 127.696 442.821 128.029 439.052C129.581 439.052 130.689 440.936 131.133 442.266C131.133 452.021 123.595 454.017 116.279 448.252C113.618 442.932 112.399 440.16 113.507 434.285C111.845 434.174 110.293 434.174 108.741 434.174C110.182 431.514 111.623 428.964 113.064 426.415C106.08 423.533 103.42 421.537 101.536 413.889C101.092 403.801 102.977 394.712 104.529 384.624C104.529 378.416 105.304 362.011 93.776 366.888C92.0024 369.659 91.2265 370.324 91.2265 373.65C94.1086 377.197 97.8775 376.754 98.7643 372.098C98.986 372.098 99.3186 372.209 99.6511 372.32C104.861 382.85 87.6792 388.504 83.7995 373.206C83.9103 371.544 84.0212 369.881 84.132 368.329C84.7971 366.666 86.5707 364.228 86.1273 362.454C84.7971 362.121 83.4669 361.789 82.1367 361.456C82.1367 359.018 86.7924 357.466 88.3443 355.47C80.2522 350.15 79.9197 342.944 82.691 333.965C83.7995 331.527 109.849 290.623 89.0094 292.84C85.7948 295.278 84.132 296.609 85.7948 300.599C88.8986 303.038 90.0071 301.929 92.7784 299.491C94.3303 301.819 93.0001 303.592 91.7807 305.809C80.0305 314.234 74.7097 298.604 80.9173 289.514C84.0212 286.854 84.0212 286.854 84.132 286.41C80.8065 283.972 80.8065 283.972 80.3631 283.085C83.1344 282.087 85.9056 281.09 88.7877 280.203C88.7877 279.87 88.7877 279.538 88.7877 279.205C82.1367 272.554 85.2405 265.57 89.342 258.698C97.8775 248.499 117.055 240.075 117.055 225.442C114.948 221.563 112.288 220.011 107.965 221.895C104.418 225.442 105.194 229.655 110.625 229.655C111.956 228.546 111.956 228.546 112.842 228.435C112.842 234.311 106.524 235.419 101.868 234.089C95.7713 227.992 98.3209 221.563 103.42 216.02C106.191 214.468 106.191 214.468 108.852 213.471C108.63 212.251 108.63 212.251 106.967 209.48C109.406 208.926 111.956 208.926 114.616 209.037C111.956 197.176 119.604 191.855 129.137 187.421C133.017 186.201 170.706 174.895 157.515 163.588C152.194 162.147 149.201 162.479 149.201 168.576C150.975 170.35 151.973 171.015 154.633 170.128C154.633 170.571 154.633 171.126 154.744 171.68C150.421 175.781 145.211 174.895 141.885 170.239C141.885 159.043 146.098 156.161 157.072 155.163C156.739 153.39 156.407 151.727 156.074 150.064C158.956 151.062 161.838 152.17 164.831 153.279C165.275 141.085 170.706 139.201 181.459 136.54C185.117 136.54 229.79 139.422 220.368 123.682C216.488 121.354 214.825 120.134 211.278 123.682C211.278 128.116 211.832 127.672 215.712 129.224C214.049 131.441 212.719 131.33 209.948 131.33C203.962 129.002 202.631 124.79 205.403 119.137C211.167 113.372 215.379 113.483 223.028 115.589C223.25 114.038 223.471 112.486 223.693 110.934C226.132 110.934 227.684 114.592 230.012 115.589C232.45 109.714 233.004 108.938 238.325 105.835C243.868 104.615 249.3 105.28 254.731 106.611C260.274 108.606 293.307 124.679 293.307 107.608C291.977 103.396 286.878 100.957 283.996 105.169C283.885 106.167 283.774 107.165 283.774 108.273C284.55 108.938 285.437 109.604 286.324 110.379C286.324 110.712 286.324 111.045 286.324 111.377C284.993 111.821 284.993 111.821 282.666 111.821C267.59 104.283 285.769 88.7636 298.074 100.403C299.071 100.403 300.291 97.4099 300.734 96.634C300.956 96.634 301.178 96.634 301.399 96.634C303.062 100.07 303.062 100.07 304.171 101.511C306.166 101.068 308.605 97.6316 311.487 96.9665C326.562 96.9665 335.431 108.052 346.516 117.363C349.509 119.137 352.391 120.799 355.605 122.13C371.568 123.46 362.921 104.948 356.16 112.929C356.16 115.589 356.381 115.811 358.044 117.806C355.827 118.915 353.943 117.917 352.28 116.255C346.405 104.504 359.263 100.292 368.021 106.611C370.238 109.049 371.679 111.599 372.344 112.153C373.341 111.266 374.45 110.379 375.558 109.493C376.667 110.601 376.667 114.038 376.889 115.7C377.11 115.811 377.332 116.033 377.554 116.255C381.655 113.594 384.981 113.262 389.747 114.37C405.821 122.351 406.264 144.743 421.229 154.72C426.439 154.72 427.991 154.498 429.654 149.51C428.434 140.642 419.123 144.3 422.337 150.064C417.349 150.397 417.46 145.408 417.46 141.861C419.344 136.762 421.451 136.873 426.217 136.54C433.312 138.092 436.415 143.08 437.413 150.064C438.189 150.286 441.625 149.066 442.291 149.177C440.739 155.607 440.739 155.607 440.739 156.826C463.906 149.177 463.352 178.109 465.902 193.185C467.454 199.393 468.784 206.154 475.324 208.593C481.088 208.593 482.086 205.822 482.086 200.501C479.758 198.506 479.869 198.284 476.654 198.284C474.881 200.39 474.77 200.39 474.548 203.272C468.451 200.279 472.22 192.409 477.43 190.525C487.85 191.522 491.065 199.282 489.07 208.704C490.732 208.704 492.395 208.704 494.169 208.815C493.947 209.702 493.947 209.702 489.846 215.355C498.048 217.461 500.82 219.235 503.591 227.549C504.034 238.855 500.931 250.162 499.49 261.358C499.49 268.12 499.49 276.545 508.579 276.545C511.683 274.217 512.792 272.887 512.792 268.896C510.575 267.233 510.242 266.679 507.36 266.679C505.919 268.009 505.586 268.896 505.254 270.559C502.482 269.229 503.037 266.014 503.924 263.686C511.461 254.707 520.219 262.245 520.219 272C519.443 274.882 518.445 277.431 517.115 280.092C518.556 280.535 519.997 281.09 521.549 281.644C519.443 283.972 516.671 285.856 515.785 286.854C522.657 290.955 523.544 292.618 524.653 300.488C522.546 314.234 510.685 324.876 505.365 337.734C504.256 344.718 503.369 346.713 509.577 350.482C514.787 349.706 519.221 345.494 514.011 341.281C513.013 341.281 512.016 341.281 511.129 341.281C510.575 341.836 510.02 342.39 509.466 343.055C509.023 342.944 508.69 342.833 508.358 342.723C508.358 336.071 514.565 333.522 520.219 336.293C526.537 344.829 523.433 350.925 516.45 356.911C517.447 357.798 518.445 358.796 519.443 359.794C519.332 360.126 519.221 360.459 519.11 360.791C514.454 362.011 514.454 362.011 514.344 362.454C528.2 378.638 502.593 393.16 492.506 401.695C487.407 407.238 480.756 414.221 488.183 420.318C493.282 420.872 496.164 419.542 496.164 414.11C493.614 412.004 492.506 411.561 489.624 413.445C489.513 412.448 489.513 411.561 489.513 410.674C493.06 407.127 498.27 405.575 502.372 409.676C505.697 419.653 501.485 424.641 492.395 428.632C494.28 431.736 494.28 431.736 494.501 433.066C492.284 432.955 490.067 432.844 487.961 432.844C493.725 461.665 448.166 451.91 440.739 471.864C441.293 477.184 443.621 478.293 448.609 478.293C454.152 476.519 451.602 468.871 446.392 470.977C446.281 470.423 446.281 469.868 446.281 469.425C450.604 465.545 456.369 466.654 459.362 471.531C459.362 482.284 453.265 485.498 443.288 486.052C443.732 489.156 443.732 489.156 443.51 490.93C437.967 488.38 437.967 488.38 437.413 488.491C436.748 498.579 432.757 501.572 422.892 504.232C412.804 505.451 386.089 498.468 380.103 511.77C380.103 516.98 386.533 521.857 390.08 516.536C390.08 515.317 390.08 514.209 390.08 513.1C388.639 511.437 387.863 511.437 385.868 511.105C385.868 508.223 390.523 508.999 392.186 508.999C396.953 511.326 397.174 512.657 397.507 517.756C393.405 526.07 386.311 527.621 378.33 524.074C377.554 526.956 377.554 526.956 377.443 528.841C375.669 527.4 373.896 525.959 372.233 524.518C371.679 524.961 371.679 524.961 370.127 529.395C360.926 541.256 344.964 532.388 334.211 527.843C326.452 525.404 321.574 524.185 313.704 524.185C307.94 528.397 306.831 532.61 313.815 536.379C317.362 536.379 319.911 533.164 317.694 529.838C315.81 528.952 315.81 528.952 315.477 528.287C318.914 526.624 321.352 528.287 324.013 530.614C325.121 533.275 324.9 534.938 324.789 537.931C319.025 544.692 310.711 545.136 304.171 538.596C303.838 538.485 303.506 538.485 303.173 538.485C301.399 541.921 301.399 541.921 300.734 542.254C299.847 540.591 299.071 539.039 298.296 537.487C297.963 537.487 297.741 537.487 297.52 537.487C293.751 542.808 290.203 543.03 283.885 543.584ZM283.22 534.716C267.812 528.619 258.722 510.44 241.429 508.999C239.323 509.553 237.217 510.107 235.111 510.661C234.556 505.562 234.556 505.562 234.113 504.565C232.45 505.895 230.787 507.225 229.236 508.666C228.792 508.555 228.349 508.444 227.905 508.333C224.691 500.463 217.264 495.364 209.282 500.131C206.289 504.565 206.289 508.666 211.61 510.994C211.61 499.244 226.686 509.885 216.488 515.982C213.716 515.982 212.054 515.871 209.615 514.541C198.53 502.458 195.98 483.725 180.683 476.076C178.799 475.743 176.914 475.411 175.03 475.189C175.362 473.194 175.695 471.309 176.138 469.425C174.143 469.979 172.258 471.088 170.263 470.644C169.265 465.545 166.162 460.668 161.284 458.451C154.855 458.451 150.753 459.448 151.418 466.986C153.081 469.425 153.081 469.425 153.968 469.868C154.411 469.647 154.633 467.873 155.52 466.543C159.178 464.769 160.065 466.21 162.171 469.203C162.171 476.741 155.187 477.628 150.753 472.418C144.878 458.672 145.322 443.597 137.229 430.738C134.569 428.078 132.352 427.191 128.916 425.861C129.802 423.976 130.689 422.202 131.576 420.429C130.024 420.429 128.472 420.429 126.92 420.54C126.92 419.431 128.472 415.995 128.916 413.778C128.916 405.242 122.93 397.039 113.951 401.473C113.397 402.36 109.517 410.563 113.729 409.787C116.944 402.693 126.588 412.558 116.168 416.992C97.2124 416.992 123.595 368.994 104.529 360.348C104.529 360.015 104.529 359.683 104.529 359.35C105.859 358.131 107.189 356.911 108.63 355.803C104.639 354.14 104.639 354.14 103.642 354.029C108.408 347.157 109.406 343.831 106.635 335.517C102.644 330.529 96.769 330.307 93.4435 335.961C93.4435 337.18 93.4435 338.399 93.4435 339.619C93.5543 339.73 93.776 339.84 93.9977 340.062C98.8752 334.52 104.639 343.498 97.3232 347.157C90.8939 347.933 89.6745 344.496 89.6745 338.732C93.3326 323.102 105.748 312.349 104.861 295.278C103.863 293.283 102.866 291.399 101.868 289.514C105.083 287.962 107.3 287.297 107.411 286.965C102.644 283.196 102.644 283.196 102.644 282.863C113.286 279.87 117.831 260.693 103.198 260.693C100.649 261.469 98.5426 263.797 99.0969 266.679C104.75 264.794 106.967 270.337 102.644 273.995C97.3232 275.436 94.1086 273.108 94.1086 267.787C98.3209 257.257 108.187 250.938 116.722 243.733C121.71 237.747 127.031 230.985 124.371 222.782C126.366 222.45 128.361 222.228 130.468 222.006C129.692 220.676 129.027 219.346 128.361 218.015C136.232 216.02 141.774 211.364 141.109 202.496C137.895 196.621 132.574 195.513 128.805 201.166C136.232 201.942 134.458 209.369 127.918 209.369C110.736 199.836 145.1 189.305 150.199 187.532C159.289 182.987 166.051 179.329 167.935 168.909C169.82 169.463 171.704 170.017 173.699 170.682C172.813 165.916 172.813 165.916 172.923 163.81C180.683 166.137 184.341 164.142 190.216 158.71C193.098 152.946 190.66 146.849 183.787 146.849C182.678 147.514 181.57 148.29 180.572 149.066C187.334 151.727 182.346 159.486 176.581 156.05C164.72 140.198 205.181 143.191 209.504 143.191C218.04 141.75 224.136 140.531 228.349 132.55C230.344 132.993 231.563 134.877 233.226 135.875C233.67 133.769 234.113 131.663 234.556 129.557C235.222 129.557 237.328 130.998 241.097 132.106C247.858 132.106 255.618 130.222 255.618 122.019C254.288 117.806 251.517 115.257 246.528 117.031C246.417 117.474 247.858 118.472 248.745 119.802C248.745 124.679 244.422 125.233 240.875 123.46C234.224 111.821 248.967 113.151 255.84 114.703C267.479 118.915 281.114 125.899 293.64 121.465C294.97 120.467 296.522 118.472 298.296 118.472C299.071 120.023 299.958 121.575 300.845 123.238C302.286 122.241 302.508 120.245 303.838 119.137C310.489 123.792 318.138 127.007 324.345 119.691C326.008 114.148 323.791 109.825 318.027 110.379C322.239 116.809 310.267 120.245 310.267 110.047C313.704 103.063 319.801 106.167 325.454 109.271C334.211 116.587 350.506 135.21 364.363 129.113C364.806 129.113 365.249 129.113 365.693 129.224C365.914 130.887 365.804 133.436 367.023 134.656C368.686 133.326 370.348 131.441 372.233 130.887C373.563 138.979 384.981 144.521 391.41 138.757C393.627 134.656 393.627 130.111 388.639 128.337C388.195 128.781 388.195 128.781 388.195 131.774C385.202 134.767 382.985 133.658 380.547 130.887C380.547 123.903 383.983 121.243 390.412 124.79C400.056 134.434 403.825 148.29 412.804 158.71C417.238 161.814 419.899 162.812 425.441 163.034C424.444 167.8 424.444 167.8 424.665 169.13C432.314 166.47 432.314 166.47 433.533 166.359C433.866 174.229 435.861 178.663 443.177 182.322C449.828 182.322 454.706 178.442 451.38 171.791C450.715 171.458 450.161 171.126 449.607 170.793C447.168 180.659 435.307 168.798 446.059 164.585C452.932 164.585 454.817 171.237 456.258 176.89C458.031 189.416 457.81 210.921 472.553 216.02C472.664 216.353 472.775 216.685 472.885 217.018C471.888 218.459 470.89 219.9 469.892 221.452C472.442 221.563 474.992 221.674 477.652 221.895C475.767 228.657 475.546 231.096 478.428 237.636C484.192 244.287 492.838 242.957 492.838 233.756C492.506 233.313 492.284 232.869 492.063 232.426C491.73 232.315 491.508 232.315 491.287 232.315C485.633 240.407 478.206 225.221 490.843 225.221C496.718 227.105 495.831 234.976 495.831 239.853C493.836 251.16 488.294 267.787 495.056 278.651C496.386 279.87 497.827 281.2 499.268 282.531C497.716 283.861 496.164 285.191 494.723 286.521C496.829 287.297 498.935 288.073 501.041 288.849C501.041 289.182 501.152 289.514 501.263 289.847C495.277 295.833 495.055 310.576 506.251 310.576C509.799 309.578 513.124 307.029 511.461 302.705C506.917 305.698 505.032 303.814 504.7 298.715C507.027 293.948 511.572 295.168 515.009 297.717C516.671 303.592 514.011 308.248 511.351 313.347C504.81 323.324 491.176 338.954 498.714 351.701C498.603 352.034 498.492 352.367 498.381 352.699C493.393 354.251 493.393 354.251 493.282 354.694C495.055 356.357 496.94 358.02 498.824 359.683C492.284 364.782 486.298 374.426 495.166 380.744C499.268 381.742 504.81 380.966 504.034 375.534C498.603 378.638 495.942 369.438 501.817 367.886C507.471 367.886 509.134 369.105 509.134 375.091C501.707 391.719 473.329 397.594 477.209 419.099C475.102 419.099 472.996 419.099 471.001 419.21C472.442 421.427 472.442 421.427 473.883 424.641C466.789 425.195 464.35 429.186 461.024 434.95C461.024 442.377 467.01 448.142 473.218 441.934C473.218 441.601 473.218 441.269 473.329 440.936C469.56 440.271 468.784 439.939 468.784 436.059C470.114 433.177 471.444 432.844 474.548 432.844C492.284 442.71 455.371 452.797 450.604 454.349C441.293 458.229 434.864 461.665 432.868 471.864C430.873 471.088 428.988 470.312 427.104 469.647C427.326 471.974 427.658 474.302 427.991 476.741C425.663 476.63 423.335 476.519 421.007 476.519C412.915 479.623 407.705 485.277 413.469 492.925C416.573 494.588 419.123 494.477 421.561 492.038C420.453 491.262 419.344 490.486 418.236 489.821C418.236 482.616 424.887 482.838 427.88 488.159C427.547 492.704 426.882 493.812 422.67 496.029C421.007 496.362 419.344 496.694 417.682 497.138C403.715 497.138 381.766 492.814 373.231 507.225C371.79 505.895 370.348 504.675 368.907 503.456C367.134 505.23 368.021 508.666 366.69 510.883C359.818 507.003 349.509 507.557 346.848 516.204C346.848 521.636 350.285 524.85 355.605 523.409C355.605 523.187 355.605 522.966 355.716 522.855C350.506 518.975 356.381 513.543 361.148 517.091C363.476 521.414 363.365 523.963 359.153 526.735C357.268 526.846 355.384 526.956 353.61 527.067C340.086 524.407 318.47 508.888 305.501 520.416C304.947 520.305 304.503 520.194 304.06 520.084C303.506 518.643 302.619 516.426 301.399 515.65C300.069 517.867 299.071 520.084 297.076 521.525C292.088 516.536 279.118 512.989 276.347 522.19C276.347 527.621 277.456 530.06 282.998 530.06C278.453 523.631 290.758 520.305 290.758 530.614C288.319 534.383 287.543 534.162 283.22 534.716Z" fill="#E21C2A"/>
<path fill-rule="evenodd" clip-rule="evenodd" d="M283.885 543.584C272.135 539.15 264.708 531.169 255.175 522.855C248.856 518.975 240.986 512.878 235.665 521.414C235.665 527.289 239.656 530.614 244.533 526.513C244.533 524.185 244.311 523.52 242.981 521.636C245.531 519.64 248.856 523.631 249.854 525.515C249.854 527.067 249.965 528.619 250.075 530.282C245.087 539.704 236.219 535.603 230.122 530.06C228.57 526.956 228.57 526.956 228.127 526.735C226.908 527.511 225.688 528.397 224.58 529.284C224.247 528.952 224.247 528.952 223.25 522.633C214.603 526.956 208.95 526.07 202.077 518.532C194.318 507.225 191.103 493.258 180.129 484.279C172.923 481.951 169.265 486.607 171.593 493.036C175.362 496.029 180.35 493.701 177.912 488.824C181.237 488.824 182.013 490.487 182.789 493.59C182.235 500.241 179.796 502.015 173.367 502.015C166.383 500.352 163.945 495.031 162.947 488.269C161.617 488.269 161.617 488.269 158.291 489.267C158.845 486.607 158.845 486.607 158.624 485.277C147.428 485.277 143.548 478.847 140.666 467.873C139.668 460.335 136.675 426.193 121.489 435.615C120.269 438.83 119.493 441.047 122.265 443.818C126.699 445.259 127.696 442.821 128.029 439.052C129.581 439.052 130.689 440.936 131.133 442.266C131.133 452.021 123.595 454.017 116.279 448.252C113.618 442.932 112.399 440.16 113.507 434.285C111.845 434.174 110.293 434.174 108.741 434.174C110.182 431.514 111.623 428.964 113.064 426.415C106.08 423.533 103.42 421.537 101.536 413.889C101.092 403.801 102.977 394.712 104.529 384.624C104.529 378.416 105.304 362.011 93.776 366.888C92.0024 369.659 91.2265 370.324 91.2265 373.65C94.1086 377.197 97.8775 376.754 98.7643 372.098C98.986 372.098 99.3186 372.209 99.6511 372.32C104.861 382.85 87.6792 388.504 83.7995 373.206C83.9103 371.544 84.0212 369.881 84.132 368.329C84.7971 366.666 86.5707 364.228 86.1273 362.454C84.7971 362.121 83.4669 361.789 82.1367 361.456C82.1367 359.018 86.7924 357.466 88.3443 355.47C80.2522 350.15 79.9197 342.944 82.691 333.965C83.7995 331.527 109.849 290.623 89.0094 292.84C85.7948 295.278 84.132 296.609 85.7948 300.599C88.8986 303.038 90.0071 301.929 92.7784 299.491C94.3303 301.819 93.0001 303.592 91.7807 305.809C80.0305 314.234 74.7097 298.604 80.9173 289.514C84.0212 286.854 84.0212 286.854 84.132 286.41C80.8065 283.972 80.8065 283.972 80.3631 283.085C83.1344 282.087 85.9056 281.09 88.7877 280.203C88.7877 279.87 88.7877 279.538 88.7877 279.205C82.1367 272.554 85.2405 265.57 89.342 258.698C97.8775 248.499 117.055 240.075 117.055 225.442C114.948 221.563 112.288 220.011 107.965 221.895C104.418 225.442 105.194 229.655 110.625 229.655C111.956 228.546 111.956 228.546 112.842 228.435C112.842 234.311 106.524 235.419 101.868 234.089C95.7713 227.992 98.3209 221.563 103.42 216.02C106.191 214.468 106.191 214.468 108.852 213.471C108.63 212.251 108.63 212.251 106.967 209.48C109.406 208.926 111.956 208.926 114.616 209.037C111.956 197.176 119.604 191.855 129.137 187.421C133.017 186.201 170.706 174.895 157.515 163.588C152.194 162.147 149.201 162.479 149.201 168.576C150.975 170.35 151.973 171.015 154.633 170.128C154.633 170.571 154.633 171.126 154.744 171.68C150.421 175.781 145.211 174.895 141.885 170.239C141.885 159.043 146.098 156.161 157.072 155.163C156.739 153.39 156.407 151.727 156.074 150.064C158.956 151.062 161.838 152.17 164.831 153.279C165.275 141.085 170.706 139.201 181.459 136.54C185.117 136.54 229.79 139.422 220.368 123.682C216.488 121.354 214.825 120.134 211.278 123.682C211.278 128.116 211.832 127.672 215.712 129.224C214.049 131.441 212.719 131.33 209.948 131.33C203.962 129.002 202.631 124.79 205.403 119.137C211.167 113.372 215.379 113.483 223.028 115.589C223.25 114.038 223.471 112.486 223.693 110.934C226.132 110.934 227.684 114.592 230.012 115.589C232.45 109.714 233.004 108.938 238.325 105.835C243.868 104.615 249.3 105.28 254.731 106.611C260.274 108.606 293.307 124.679 293.307 107.608C291.977 103.396 286.878 100.957 283.996 105.169C283.885 106.167 283.774 107.165 283.774 108.273C284.55 108.938 285.437 109.604 286.324 110.379C286.324 110.712 286.324 111.045 286.324 111.377C284.993 111.821 284.993 111.821 282.666 111.821C267.59 104.283 285.769 88.7636 298.074 100.403C299.071 100.403 300.291 97.4099 300.734 96.634C300.956 96.634 301.178 96.634 301.399 96.634C303.062 100.07 303.062 100.07 304.171 101.511C306.166 101.068 308.605 97.6316 311.487 96.9665C326.562 96.9665 335.431 108.052 346.516 117.363C349.509 119.137 352.391 120.799 355.605 122.13C371.568 123.46 362.921 104.948 356.16 112.929C356.16 115.589 356.381 115.811 358.044 117.806C355.827 118.915 353.943 117.917 352.28 116.255C346.405 104.504 359.263 100.292 368.021 106.611C370.238 109.049 371.679 111.599 372.344 112.153C373.341 111.266 374.45 110.379 375.558 109.493C376.667 110.601 376.667 114.038 376.889 115.7C377.11 115.811 377.332 116.033 377.554 116.255C381.655 113.594 384.981 113.262 389.747 114.37C405.821 122.351 406.264 144.743 421.229 154.72C426.439 154.72 427.991 154.498 429.654 149.51C428.434 140.642 419.123 144.3 422.337 150.064C417.349 150.397 417.46 145.408 417.46 141.861C419.344 136.762 421.451 136.873 426.217 136.54C433.312 138.092 436.415 143.08 437.413 150.064C438.189 150.286 441.625 149.066 442.291 149.177C440.739 155.607 440.739 155.607 440.739 156.826C463.906 149.177 463.352 178.109 465.902 193.185C467.454 199.393 468.784 206.154 475.324 208.593C481.088 208.593 482.086 205.822 482.086 200.501C479.758 198.506 479.869 198.284 476.654 198.284C474.881 200.39 474.77 200.39 474.548 203.272C468.451 200.279 472.22 192.409 477.43 190.525C487.85 191.522 491.065 199.282 489.07 208.704C490.732 208.704 492.395 208.704 494.169 208.815C493.947 209.702 493.947 209.702 489.846 215.355C498.048 217.461 500.82 219.235 503.591 227.549C504.034 238.855 500.931 250.162 499.49 261.358C499.49 268.12 499.49 276.545 508.579 276.545C511.683 274.217 512.792 272.887 512.792 268.896C510.575 267.233 510.242 266.679 507.36 266.679C505.919 268.009 505.586 268.896 505.254 270.559C502.482 269.229 503.037 266.014 503.924 263.686C511.461 254.707 520.219 262.245 520.219 272C519.443 274.882 518.445 277.431 517.115 280.092C518.556 280.535 519.997 281.09 521.549 281.644C519.443 283.972 516.671 285.856 515.785 286.854C522.657 290.955 523.544 292.618 524.653 300.488C522.546 314.234 510.685 324.876 505.365 337.734C504.256 344.718 503.369 346.713 509.577 350.482C514.787 349.706 519.221 345.494 514.011 341.281C513.013 341.281 512.016 341.281 511.129 341.281C510.575 341.836 510.02 342.39 509.466 343.055C509.023 342.944 508.69 342.833 508.358 342.723C508.358 336.071 514.565 333.522 520.219 336.293C526.537 344.829 523.433 350.925 516.45 356.911C517.447 357.798 518.445 358.796 519.443 359.794C519.332 360.126 519.221 360.459 519.11 360.791C514.454 362.011 514.454 362.011 514.344 362.454C528.2 378.638 502.593 393.16 492.506 401.695C487.407 407.238 480.756 414.221 488.183 420.318C493.282 420.872 496.164 419.542 496.164 414.11C493.614 412.004 492.506 411.561 489.624 413.445C489.513 412.448 489.513 411.561 489.513 410.674C493.06 407.127 498.27 405.575 502.372 409.676C505.697 419.653 501.485 424.641 492.395 428.632C494.28 431.736 494.28 431.736 494.501 433.066C492.284 432.955 490.067 432.844 487.961 432.844C493.725 461.665 448.166 451.91 440.739 471.864C441.293 477.184 443.621 478.293 448.609 478.293C454.152 476.519 451.602 468.871 446.392 470.977C446.281 470.423 446.281 469.868 446.281 469.425C450.604 465.545 456.369 466.654 459.362 471.531C459.362 482.284 453.265 485.498 443.288 486.052C443.732 489.156 443.732 489.156 443.51 490.93C437.967 488.38 437.967 488.38 437.413 488.491C436.748 498.579 432.757 501.572 422.892 504.232C412.804 505.451 386.089 498.468 380.103 511.77C380.103 516.98 386.533 521.857 390.08 516.536C390.08 515.317 390.08 514.209 390.08 513.1C388.639 511.437 387.863 511.437 385.868 511.105C385.868 508.223 390.523 508.999 392.186 508.999C396.953 511.326 397.174 512.657 397.507 517.756C393.405 526.07 386.311 527.621 378.33 524.074C377.554 526.956 377.554 526.956 377.443 528.841C375.669 527.4 373.896 525.959 372.233 524.518C371.679 524.961 371.679 524.961 370.127 529.395C360.926 541.256 344.964 532.388 334.211 527.843C326.452 525.404 321.574 524.185 313.704 524.185C307.94 528.397 306.831 532.61 313.815 536.379C317.362 536.379 319.911 533.164 317.694 529.838C315.81 528.952 315.81 528.952 315.477 528.287C318.914 526.624 321.352 528.287 324.013 530.614C325.121 533.275 324.9 534.938 324.789 537.931C319.025 544.692 310.711 545.136 304.171 538.596C303.838 538.485 303.506 538.485 303.173 538.485C301.399 541.921 301.399 541.921 300.734 542.254C299.847 540.591 299.071 539.039 298.296 537.487C297.963 537.487 297.741 537.487 297.52 537.487C293.751 542.808 290.203 543.03 283.885 543.584ZM283.22 534.716C267.812 528.619 258.722 510.44 241.429 508.999C239.323 509.553 237.217 510.107 235.111 510.661C234.556 505.562 234.556 505.562 234.113 504.565C232.45 505.895 230.787 507.225 229.236 508.666C228.792 508.555 228.349 508.444 227.905 508.333C224.691 500.463 217.264 495.364 209.282 500.131C206.289 504.565 206.289 508.666 211.61 510.994C211.61 499.244 226.686 509.885 216.488 515.982C213.716 515.982 212.054 515.871 209.615 514.541C198.53 502.458 195.98 483.725 180.683 476.076C178.799 475.743 176.914 475.411 175.03 475.189C175.362 473.194 175.695 471.309 176.138 469.425C174.143 469.979 172.258 471.088 170.263 470.644C169.265 465.545 166.162 460.668 161.284 458.451C154.855 458.451 150.753 459.448 151.418 466.986C153.081 469.425 153.081 469.425 153.968 469.868C154.411 469.647 154.633 467.873 155.52 466.543C159.178 464.769 160.065 466.21 162.171 469.203C162.171 476.741 155.187 477.628 150.753 472.418C144.878 458.672 145.322 443.597 137.229 430.738C134.569 428.078 132.352 427.191 128.916 425.861C129.802 423.976 130.689 422.202 131.576 420.429C130.024 420.429 128.472 420.429 126.92 420.54C126.92 419.431 128.472 415.995 128.916 413.778C128.916 405.242 122.93 397.039 113.951 401.473C113.397 402.36 109.517 410.563 113.729 409.787C116.944 402.693 126.588 412.558 116.168 416.992C97.2124 416.992 123.595 368.994 104.529 360.348C104.529 360.015 104.529 359.683 104.529 359.35C105.859 358.131 107.189 356.911 108.63 355.803C104.639 354.14 104.639 354.14 103.642 354.029C108.408 347.157 109.406 343.831 106.635 335.517C102.644 330.529 96.769 330.307 93.4435 335.961C93.4435 337.18 93.4435 338.399 93.4435 339.619C93.5543 339.73 93.776 339.84 93.9977 340.062C98.8752 334.52 104.639 343.498 97.3232 347.157C90.8939 347.933 89.6745 344.496 89.6745 338.732C93.3326 323.102 105.748 312.349 104.861 295.278C103.863 293.283 102.866 291.399 101.868 289.514C105.083 287.962 107.3 287.297 107.411 286.965C102.644 283.196 102.644 283.196 102.644 282.863C113.286 279.87 117.831 260.693 103.198 260.693C100.649 261.469 98.5426 263.797 99.0969 266.679C104.75 264.794 106.967 270.337 102.644 273.995C97.3232 275.436 94.1086 273.108 94.1086 267.787C98.3209 257.257 108.187 250.938 116.722 243.733C121.71 237.747 127.031 230.985 124.371 222.782C126.366 222.45 128.361 222.228 130.468 222.006C129.692 220.676 129.027 219.346 128.361 218.015C136.232 216.02 141.774 211.364 141.109 202.496C137.895 196.621 132.574 195.513 128.805 201.166C136.232 201.942 134.458 209.369 127.918 209.369C110.736 199.836 145.1 189.305 150.199 187.532C159.289 182.987 166.051 179.329 167.935 168.909C169.82 169.463 171.704 170.017 173.699 170.682C172.813 165.916 172.813 165.916 172.923 163.81C180.683 166.137 184.341 164.142 190.216 158.71C193.098 152.946 190.66 146.849 183.787 146.849C182.678 147.514 181.57 148.29 180.572 149.066C187.334 151.727 182.346 159.486 176.581 156.05C164.72 140.198 205.181 143.191 209.504 143.191C218.04 141.75 224.136 140.531 228.349 132.55C230.344 132.993 231.563 134.877 233.226 135.875C233.67 133.769 234.113 131.663 234.556 129.557C235.222 129.557 237.328 130.998 241.097 132.106C247.858 132.106 255.618 130.222 255.618 122.019C254.288 117.806 251.517 115.257 246.528 117.031C246.417 117.474 247.858 118.472 248.745 119.802C248.745 124.679 244.422 125.233 240.875 123.46C234.224 111.821 248.967 113.151 255.84 114.703C267.479 118.915 281.114 125.899 293.64 121.465C294.97 120.467 296.522 118.472 298.296 118.472C299.071 120.023 299.958 121.575 300.845 123.238C302.286 122.241 302.508 120.245 303.838 119.137C310.489 123.792 318.138 127.007 324.345 119.691C326.008 114.148 323.791 109.825 318.027 110.379C322.239 116.809 310.267 120.245 310.267 110.047C313.704 103.063 319.801 106.167 325.454 109.271C334.211 116.587 350.506 135.21 364.363 129.113C364.806 129.113 365.249 129.113 365.693 129.224C365.914 130.887 365.804 133.436 367.023 134.656C368.686 133.326 370.348 131.441 372.233 130.887C373.563 138.979 384.981 144.521 391.41 138.757C393.627 134.656 393.627 130.111 388.639 128.337C388.195 128.781 388.195 128.781 388.195 131.774C385.202 134.767 382.985 133.658 380.547 130.887C380.547 123.903 383.983 121.243 390.412 124.79C400.056 134.434 403.825 148.29 412.804 158.71C417.238 161.814 419.899 162.812 425.441 163.034C424.444 167.8 424.444 167.8 424.665 169.13C432.314 166.47 432.314 166.47 433.533 166.359C433.866 174.229 435.861 178.663 443.177 182.322C449.828 182.322 454.706 178.442 451.38 171.791C450.715 171.458 450.161 171.126 449.607 170.793C447.168 180.659 435.307 168.798 446.059 164.585C452.932 164.585 454.817 171.237 456.258 176.89C458.031 189.416 457.81 210.921 472.553 216.02C472.664 216.353 472.775 216.685 472.885 217.018C471.888 218.459 470.89 219.9 469.892 221.452C472.442 221.563 474.992 221.674 477.652 221.895C475.767 228.657 475.546 231.096 478.428 237.636C484.192 244.287 492.838 242.957 492.838 233.756C492.506 233.313 492.284 232.869 492.063 232.426C491.73 232.315 491.508 232.315 491.287 232.315C485.633 240.407 478.206 225.221 490.843 225.221C496.718 227.105 495.831 234.976 495.831 239.853C493.836 251.16 488.294 267.787 495.056 278.651C496.386 279.87 497.827 281.2 499.268 282.531C497.716 283.861 496.164 285.191 494.723 286.521C496.829 287.297 498.935 288.073 501.041 288.849C501.041 289.182 501.152 289.514 501.263 289.847C495.277 295.833 495.055 310.576 506.251 310.576C509.799 309.578 513.124 307.029 511.461 302.705C506.917 305.698 505.032 303.814 504.7 298.715C507.027 293.948 511.572 295.168 515.009 297.717C516.671 303.592 514.011 308.248 511.351 313.347C504.81 323.324 491.176 338.954 498.714 351.701C498.603 352.034 498.492 352.367 498.381 352.699C493.393 354.251 493.393 354.251 493.282 354.694C495.055 356.357 496.94 358.02 498.824 359.683C492.284 364.782 486.298 374.426 495.166 380.744C499.268 381.742 504.81 380.966 504.034 375.534C498.603 378.638 495.942 369.438 501.817 367.886C507.471 367.886 509.134 369.105 509.134 375.091C501.707 391.719 473.329 397.594 477.209 419.099C475.102 419.099 472.996 419.099 471.001 419.21C472.442 421.427 472.442 421.427 473.883 424.641C466.789 425.195 464.35 429.186 461.024 434.95C461.024 442.377 467.01 448.142 473.218 441.934C473.218 441.601 473.218 441.269 473.329 440.936C469.56 440.271 468.784 439.939 468.784 436.059C470.114 433.177 471.444 432.844 474.548 432.844C492.284 442.71 455.371 452.797 450.604 454.349C441.293 458.229 434.864 461.665 432.868 471.864C430.873 471.088 428.988 470.312 427.104 469.647C427.326 471.974 427.658 474.302 427.991 476.741C425.663 476.63 423.335 476.519 421.007 476.519C412.915 479.623 407.705 485.277 413.469 492.925C416.573 494.588 419.123 494.477 421.561 492.038C420.453 491.262 419.344 490.486 418.236 489.821C418.236 482.616 424.887 482.838 427.88 488.159C427.547 492.704 426.882 493.812 422.67 496.029C421.007 496.362 419.344 496.694 417.682 497.138C403.715 497.138 381.766 492.814 373.231 507.225C371.79 505.895 370.348 504.675 368.907 503.456C367.134 505.23 368.021 508.666 366.69 510.883C359.818 507.003 349.509 507.557 346.848 516.204C346.848 521.636 350.285 524.85 355.605 523.409C355.605 523.187 355.605 522.966 355.716 522.855C350.506 518.975 356.381 513.543 361.148 517.091C363.476 521.414 363.365 523.963 359.153 526.735C357.268 526.846 355.384 526.956 353.61 527.067C340.086 524.407 318.47 508.888 305.501 520.416C304.947 520.305 304.503 520.194 304.06 520.084C303.506 518.643 302.619 516.426 301.399 515.65C300.069 517.867 299.071 520.084 297.076 521.525C292.088 516.536 279.118 512.989 276.347 522.19C276.347 527.621 277.456 530.06 282.998 530.06C278.453 523.631 290.758 520.305 290.758 530.614C288.319 534.383 287.543 534.162 283.22 534.716Z" fill="#AB1235"/>
<path fill-rule="evenodd" clip-rule="evenodd" d="M258.584 258.27L295.094 233.424L303.962 242.266L310.559 238.8L343.439 258.285L311.043 248.5L319.204 257.217L298.073 249.941L293.902 257.619L291.976 247.724L280.214 257.729L281.556 249.941L258.584 258.27Z" fill="#009FE0"/>
<path fill-rule="evenodd" clip-rule="evenodd" d="M258.584 258.27L295.094 233.424L303.962 242.266L310.559 238.8L343.439 258.285L311.043 248.5L319.204 257.217L298.073 249.941L293.902 257.619L291.976 247.724L280.214 257.729L281.556 249.941L258.584 258.27Z" fill="#136EC9"/>
<path fill-rule="evenodd" clip-rule="evenodd" d="M301.903 315.329C300.554 318.179 297.338 323.934 290.753 328.422C300.065 334.186 303.264 346.117 298.842 355.313C293.42 366.59 284.495 369.03 274.301 367.62C269.159 366.907 268.583 366.105 264.371 364.221C260.602 364.221 261.113 364.51 259.45 368.057C255.841 363.842 256.611 361.456 259.161 357.133C251.623 341.946 261.436 329.146 272.878 319.743C270.061 319.071 269.727 311.017 274.272 311.017C274.826 311.904 274.569 313.236 275.123 314.233C275.898 315.765 278.07 315.243 279.085 314.569C290.827 306.774 295.05 293.84 284.472 287.004C279.7 283.92 271.725 284.802 269.695 290.214C264.873 303.08 281.325 304.378 279.003 296.719C278.661 295.592 275.503 294.878 273.541 296.916C272.204 290.784 278.438 288.125 282.328 290.622C288.67 294.694 285.871 305.952 278.262 307.921C275.796 308.558 272.412 308.32 270.594 307.65C264.688 321.064 253.707 312.398 259.116 305.365C260.582 309.715 264.988 309.511 264.676 303.666C259.658 298.343 262.109 291.135 262.908 290.094C257.181 289.48 254.591 280.855 260.318 279.026C259.837 283.357 261.932 282.863 265.147 282.53C277.008 278.539 287.004 276.054 294.591 287.526C305.727 304.363 284.698 317.794 274.526 329.931C268.905 336.636 266.477 340.727 272.906 348.93C277.451 352.698 284.55 351.538 282.256 344.831C281.452 342.48 277.784 343.673 275.123 345.447C274.102 342.568 274.193 339.378 276.41 338.063C284.425 333.309 290.205 342.205 289.86 347.445C289.121 358.724 278.155 360.946 269.802 354.909C266.879 352.797 263.151 344.606 262.819 344.717C263.706 358.019 274.452 365.183 286.313 360.193C292.802 357.464 294.633 350.481 293.857 343.276C292.305 338.842 289.312 336.071 285.543 333.521C281.331 331.969 279.668 332.259 279.114 331.815C289.689 323.071 298.166 314.449 301.924 300.908C301.925 300.902 301.929 300.894 301.931 300.887C301.937 300.865 301.942 300.842 301.948 300.82C301.948 300.823 301.948 300.823 301.948 300.827C301.949 300.823 301.949 300.823 301.949 300.82C301.961 300.863 301.973 300.908 301.984 300.951C305.747 314.466 314.218 323.08 324.782 331.815C324.228 332.259 322.565 331.969 318.353 333.521C314.584 336.071 311.591 338.842 310.039 343.276C309.263 350.481 311.094 357.464 317.582 360.193C329.443 365.183 340.191 358.019 341.077 344.717C340.745 344.606 337.018 352.797 334.094 354.909C325.742 360.946 314.775 358.724 314.035 347.445C313.691 342.205 319.471 333.309 327.486 338.063C329.703 339.378 329.792 342.568 328.773 345.447C326.113 343.673 322.444 342.48 321.64 344.831C319.346 351.538 326.445 352.698 330.99 348.93C337.419 340.727 334.991 336.636 329.37 329.931C319.197 317.794 298.169 304.363 309.305 287.526C316.892 276.054 326.889 278.539 338.75 282.53C341.964 282.863 344.06 283.357 343.578 279.026C349.303 280.855 346.714 289.48 340.988 290.094C341.786 291.135 344.237 298.343 339.221 303.666C338.907 309.511 343.314 309.715 344.779 305.365C350.189 312.398 339.207 321.064 333.301 307.65C331.484 308.32 328.1 308.558 325.632 307.921C318.025 305.952 315.226 294.694 321.568 290.622C325.458 288.125 331.692 290.784 330.354 296.916C328.391 294.878 325.233 295.592 324.893 296.719C322.572 304.378 339.024 303.08 334.2 290.214C332.171 284.802 324.196 283.92 319.423 287.004C308.846 293.84 313.069 306.774 324.812 314.569C325.826 315.243 327.999 315.765 328.773 314.233C329.327 313.236 329.069 311.904 329.623 311.017C334.168 311.017 333.834 319.071 331.016 319.743C342.46 329.146 352.273 341.946 344.736 357.133C347.285 361.456 348.055 363.842 344.446 368.057C342.783 364.51 343.294 364.221 339.526 364.221C335.313 366.105 334.737 366.907 329.595 367.62C319.4 369.03 310.476 366.59 305.054 355.313C300.632 346.117 303.832 334.186 313.143 328.422C306.511 323.902 303.273 318.116 301.943 315.288C301.929 315.305 301.915 315.319 301.903 315.329Z" fill="#E21C2A"/>
<path fill-rule="evenodd" clip-rule="evenodd" d="M301.903 315.329C300.554 318.179 297.338 323.934 290.753 328.422C300.065 334.186 303.264 346.117 298.842 355.313C293.42 366.59 284.495 369.03 274.301 367.62C269.159 366.907 268.583 366.105 264.371 364.221C260.602 364.221 261.113 364.51 259.45 368.057C255.841 363.842 256.611 361.456 259.161 357.133C251.623 341.946 261.436 329.146 272.878 319.743C270.061 319.071 269.727 311.017 274.272 311.017C274.826 311.904 274.569 313.236 275.123 314.233C275.898 315.765 278.07 315.243 279.085 314.569C290.827 306.774 295.05 293.84 284.472 287.004C279.7 283.92 271.725 284.802 269.695 290.214C264.873 303.08 281.325 304.378 279.003 296.719C278.661 295.592 275.503 294.878 273.541 296.916C272.204 290.784 278.438 288.125 282.328 290.622C288.67 294.694 285.871 305.952 278.262 307.921C275.796 308.558 272.412 308.32 270.594 307.65C264.688 321.064 253.707 312.398 259.116 305.365C260.582 309.715 264.988 309.511 264.676 303.666C259.658 298.343 262.109 291.135 262.908 290.094C257.181 289.48 254.591 280.855 260.318 279.026C259.837 283.357 261.932 282.863 265.147 282.53C277.008 278.539 287.004 276.054 294.591 287.526C305.727 304.363 284.698 317.794 274.526 329.931C268.905 336.636 266.477 340.727 272.906 348.93C277.451 352.698 284.55 351.538 282.256 344.831C281.452 342.48 277.784 343.673 275.123 345.447C274.102 342.568 274.193 339.378 276.41 338.063C284.425 333.309 290.205 342.205 289.86 347.445C289.121 358.724 278.155 360.946 269.802 354.909C266.879 352.797 263.151 344.606 262.819 344.717C263.706 358.019 274.452 365.183 286.313 360.193C292.802 357.464 294.633 350.481 293.857 343.276C292.305 338.842 289.312 336.071 285.543 333.521C281.331 331.969 279.668 332.259 279.114 331.815C289.689 323.071 298.166 314.449 301.924 300.908C301.925 300.902 301.929 300.894 301.931 300.887C301.937 300.865 301.942 300.842 301.948 300.82C301.948 300.823 301.948 300.823 301.948 300.827C301.949 300.823 301.949 300.823 301.949 300.82C301.961 300.863 301.973 300.908 301.984 300.951C305.747 314.466 314.218 323.08 324.782 331.815C324.228 332.259 322.565 331.969 318.353 333.521C314.584 336.071 311.591 338.842 310.039 343.276C309.263 350.481 311.094 357.464 317.582 360.193C329.443 365.183 340.191 358.019 341.077 344.717C340.745 344.606 337.018 352.797 334.094 354.909C325.742 360.946 314.775 358.724 314.035 347.445C313.691 342.205 319.471 333.309 327.486 338.063C329.703 339.378 329.792 342.568 328.773 345.447C326.113 343.673 322.444 342.48 321.64 344.831C319.346 351.538 326.445 352.698 330.99 348.93C337.419 340.727 334.991 336.636 329.37 329.931C319.197 317.794 298.169 304.363 309.305 287.526C316.892 276.054 326.889 278.539 338.75 282.53C341.964 282.863 344.06 283.357 343.578 279.026C349.303 280.855 346.714 289.48 340.988 290.094C341.786 291.135 344.237 298.343 339.221 303.666C338.907 309.511 343.314 309.715 344.779 305.365C350.189 312.398 339.207 321.064 333.301 307.65C331.484 308.32 328.1 308.558 325.632 307.921C318.025 305.952 315.226 294.694 321.568 290.622C325.458 288.125 331.692 290.784 330.354 296.916C328.391 294.878 325.233 295.592 324.893 296.719C322.572 304.378 339.024 303.08 334.2 290.214C332.171 284.802 324.196 283.92 319.423 287.004C308.846 293.84 313.069 306.774 324.812 314.569C325.826 315.243 327.999 315.765 328.773 314.233C329.327 313.236 329.069 311.904 329.623 311.017C334.168 311.017 333.834 319.071 331.016 319.743C342.46 329.146 352.273 341.946 344.736 357.133C347.285 361.456 348.055 363.842 344.446 368.057C342.783 364.51 343.294 364.221 339.526 364.221C335.313 366.105 334.737 366.907 329.595 367.62C319.4 369.03 310.476 366.59 305.054 355.313C300.632 346.117 303.832 334.186 313.143 328.422C306.511 323.902 303.273 318.116 301.943 315.288C301.929 315.305 301.915 315.319 301.903 315.329Z" fill="#B01128"/>
<path fill-rule="evenodd" clip-rule="evenodd" d="M340.513 408.013C330.093 407.792 319.784 407.57 309.474 407.348C307.368 406.905 303.045 405.796 302.38 403.579C300.717 403.579 299.83 405.353 298.389 406.24C296.837 406.572 295.396 406.905 293.955 407.348C236.313 406.683 236.313 406.683 216.36 406.129L211.482 399.478H217.025L220.794 257.261H218.76V253.058H222.176V248.816H225.479V243.974H228.744V239.171H234.261V243.974H237.526V248.816H240.829V253.058H244.245V257.261H241.856L247.952 399.478C256.931 399.478 266.021 399.478 275.111 399.589C276.773 398.813 278.436 398.037 280.21 397.372C291.295 402.36 297.281 396.374 301.826 386.176C306.038 398.369 311.691 402.249 324.218 397.372C333.529 401.473 344.836 399.589 354.923 399.478C355.699 377.308 356.586 355.248 357.473 333.189C356.475 333.078 355.477 332.968 354.48 332.968C354.48 330.418 354.48 327.979 354.48 325.541C355.699 325.541 356.919 325.541 358.249 325.541C358.36 315.675 358.47 305.809 358.581 295.943C357.473 295.943 356.364 295.943 355.256 296.054C355.256 293.283 355.256 290.512 355.256 287.851C356.475 287.74 357.694 287.63 359.025 287.519C359.357 277.542 359.69 267.566 360.022 257.589C359.025 257.589 358.027 257.589 357.14 257.589C356.919 252.157 356.919 252.157 357.362 250.495C361.131 250.495 360.798 249.829 360.466 246.171C361.796 246.171 363.126 246.171 364.456 246.171C364.567 247.502 364.678 248.832 364.9 250.162C368.89 250.051 372.992 249.94 377.093 249.83C377.093 248.61 377.204 247.502 377.315 246.393C378.424 246.282 379.532 246.171 380.751 246.171C380.751 247.391 380.862 248.61 380.973 249.83C382.192 250.051 383.523 250.273 384.853 250.605C384.964 252.933 385.075 255.261 385.185 257.589C383.744 257.589 382.303 257.7 380.973 257.811C381.971 283.417 381.971 283.417 382.525 287.519C383.634 287.63 384.742 287.74 385.961 287.851C385.961 290.512 385.961 293.283 385.961 296.054C384.631 296.054 383.412 296.054 382.192 296.054C382.525 305.809 382.858 315.675 383.301 325.541C384.41 325.651 385.518 325.762 386.737 325.873C386.848 328.201 386.959 330.529 387.07 332.968C385.74 332.968 384.41 333.078 383.19 333.189C383.19 355.248 384.52 377.419 385.407 399.478C387.402 399.478 389.398 399.478 391.504 399.478C391.504 401.252 385.851 406.24 384.52 407.681C369.777 407.792 355.145 407.903 340.513 408.013Z" fill="#009FE0"/>
<path fill-rule="evenodd" clip-rule="evenodd" d="M340.513 408.013C330.093 407.792 319.784 407.57 309.474 407.348C307.368 406.905 303.045 405.796 302.38 403.579C300.717 403.579 299.83 405.353 298.389 406.24C296.837 406.572 295.396 406.905 293.955 407.348C236.313 406.683 236.313 406.683 216.36 406.129L211.482 399.478H217.025L220.794 257.261H218.76V253.058H222.176V248.816H225.479V243.974H228.744V239.171H234.261V243.974H237.526V248.816H240.829V253.058H244.245V257.261H241.856L247.952 399.478C256.931 399.478 266.021 399.478 275.111 399.589C276.773 398.813 278.436 398.037 280.21 397.372C291.295 402.36 297.281 396.374 301.826 386.176C306.038 398.369 311.691 402.249 324.218 397.372C333.529 401.473 344.836 399.589 354.923 399.478C355.699 377.308 356.586 355.248 357.473 333.189C356.475 333.078 355.477 332.968 354.48 332.968C354.48 330.418 354.48 327.979 354.48 325.541C355.699 325.541 356.919 325.541 358.249 325.541C358.36 315.675 358.47 305.809 358.581 295.943C357.473 295.943 356.364 295.943 355.256 296.054C355.256 293.283 355.256 290.512 355.256 287.851C356.475 287.74 357.694 287.63 359.025 287.519C359.357 277.542 359.69 267.566 360.022 257.589C359.025 257.589 358.027 257.589 357.14 257.589C356.919 252.157 356.919 252.157 357.362 250.495C361.131 250.495 360.798 249.829 360.466 246.171C361.796 246.171 363.126 246.171 364.456 246.171C364.567 247.502 364.678 248.832 364.9 250.162C368.89 250.051 372.992 249.94 377.093 249.83C377.093 248.61 377.204 247.502 377.315 246.393C378.424 246.282 379.532 246.171 380.751 246.171C380.751 247.391 380.862 248.61 380.973 249.83C382.192 250.051 383.523 250.273 384.853 250.605C384.964 252.933 385.075 255.261 385.185 257.589C383.744 257.589 382.303 257.7 380.973 257.811C381.971 283.417 381.971 283.417 382.525 287.519C383.634 287.63 384.742 287.74 385.961 287.851C385.961 290.512 385.961 293.283 385.961 296.054C384.631 296.054 383.412 296.054 382.192 296.054C382.525 305.809 382.858 315.675 383.301 325.541C384.41 325.651 385.518 325.762 386.737 325.873C386.848 328.201 386.959 330.529 387.07 332.968C385.74 332.968 384.41 333.078 383.19 333.189C383.19 355.248 384.52 377.419 385.407 399.478C387.402 399.478 389.398 399.478 391.504 399.478C391.504 401.252 385.851 406.24 384.52 407.681C369.777 407.792 355.145 407.903 340.513 408.013Z" fill="#136EC9"/>
<path fill-rule="evenodd" clip-rule="evenodd" d="M221.902 399.478L224.23 257.256H238.53L242.742 399.478H235.315C235.204 393.935 236.313 386.065 233.763 380.966C225.671 376.643 228.11 396.485 228.11 399.478H221.902Z" fill="white"/>
<path fill-rule="evenodd" clip-rule="evenodd" d="M221.902 399.478L224.23 257.256H238.53L242.742 399.478H235.315C235.204 393.935 236.313 386.065 233.763 380.966C225.671 376.643 228.11 396.485 228.11 399.478H221.902Z" fill="white"/>
<path fill-rule="evenodd" clip-rule="evenodd" d="M376.651 399.811C376.318 398.37 376.097 396.929 375.875 395.487C374.656 395.377 373.547 395.266 372.439 395.155C372.328 394.379 372.217 393.603 372.217 392.827C372.66 392.716 373.104 392.716 373.658 392.716C373.658 392.051 373.658 391.497 373.769 390.943C374.988 391.164 374.988 391.164 375.321 391.608C375.21 390.943 375.099 390.277 375.099 389.612C373.547 389.723 373.325 389.28 372.217 389.169C372.217 384.181 372.328 379.192 372.439 374.315C373.769 378.638 380.974 396.042 379.866 399.589C378.757 399.589 377.648 399.7 376.651 399.811Z" fill="white"/>
<path fill-rule="evenodd" clip-rule="evenodd" d="M376.651 399.811C376.318 398.37 376.097 396.929 375.875 395.487C374.656 395.377 373.547 395.266 372.439 395.155C372.328 394.379 372.217 393.603 372.217 392.827C372.66 392.716 373.104 392.716 373.658 392.716C373.658 392.051 373.658 391.497 373.769 390.943C374.988 391.164 374.988 391.164 375.321 391.608C375.21 390.943 375.099 390.277 375.099 389.612C373.547 389.723 373.325 389.28 372.217 389.169C372.217 384.181 372.328 379.192 372.439 374.315C373.769 378.638 380.974 396.042 379.866 399.589C378.757 399.589 377.648 399.7 376.651 399.811Z" fill="white"/>
<path fill-rule="evenodd" clip-rule="evenodd" d="M360.467 399.478C368.226 376.199 368.226 376.199 369.113 374.758C369.002 379.525 368.891 384.291 368.891 389.169C368.448 389.28 368.005 389.391 367.561 389.501C367.561 391.497 367.561 391.497 367.894 392.384C368.116 392.384 368.337 392.494 368.67 392.605C368.67 393.381 368.781 394.157 368.891 395.044C367.783 395.044 366.674 395.044 365.677 395.155C365.344 396.596 365.123 398.037 364.901 399.478C363.349 399.478 361.908 399.478 360.467 399.478Z" fill="white"/>
<path fill-rule="evenodd" clip-rule="evenodd" d="M360.467 399.478C368.226 376.199 368.226 376.199 369.113 374.758C369.002 379.525 368.891 384.291 368.891 389.169C368.448 389.28 368.005 389.391 367.561 389.501C367.561 391.497 367.561 391.497 367.894 392.384C368.116 392.384 368.337 392.494 368.67 392.605C368.67 393.381 368.781 394.157 368.891 395.044C367.783 395.044 366.674 395.044 365.677 395.155C365.344 396.596 365.123 398.037 364.901 399.478C363.349 399.478 361.908 399.478 360.467 399.478Z" fill="white"/>
<path fill-rule="evenodd" clip-rule="evenodd" d="M381.084 392.494C378.313 383.737 375.653 374.98 372.992 366.223C375.542 366.223 378.091 366.223 380.752 366.223C381.306 386.287 381.306 386.287 381.084 392.494Z" fill="white"/>
<path fill-rule="evenodd" clip-rule="evenodd" d="M381.084 392.494C378.313 383.737 375.653 374.98 372.992 366.223C375.542 366.223 378.091 366.223 380.752 366.223C381.306 386.287 381.306 386.287 381.084 392.494Z" fill="white"/>
<path fill-rule="evenodd" clip-rule="evenodd" d="M360.023 391.718C360.245 383.072 360.467 374.426 360.799 365.89C363.349 366.001 365.899 366.112 368.559 366.223C362.795 384.291 362.795 384.291 360.023 391.718Z" fill="white"/>
<path fill-rule="evenodd" clip-rule="evenodd" d="M360.023 391.718C360.245 383.072 360.467 374.426 360.799 365.89C363.349 366.001 365.899 366.112 368.559 366.223C362.795 384.291 362.795 384.291 360.023 391.718Z" fill="white"/>
<path fill-rule="evenodd" clip-rule="evenodd" d="M363.791 362.565C364.345 359.239 368.447 351.48 371.218 350.149C377.204 360.791 377.204 360.791 377.758 362.565C373.102 362.565 368.447 362.565 363.791 362.565Z" fill="white"/>
<path fill-rule="evenodd" clip-rule="evenodd" d="M363.791 362.565C364.345 359.239 368.447 351.48 371.218 350.149C377.204 360.791 377.204 360.791 377.758 362.565C373.102 362.565 368.447 362.565 363.791 362.565Z" fill="white"/>
<path fill-rule="evenodd" clip-rule="evenodd" d="M379.975 360.68C377.425 356.468 373.213 351.812 372.326 347.045C374.543 343.387 376.76 339.729 379.088 336.071C379.31 335.96 379.642 335.96 379.975 335.96C379.975 344.163 379.975 352.366 379.975 360.68Z" fill="white"/>
<path fill-rule="evenodd" clip-rule="evenodd" d="M379.975 360.68C377.425 356.468 373.213 351.812 372.326 347.045C374.543 343.387 376.76 339.729 379.088 336.071C379.31 335.96 379.642 335.96 379.975 335.96C379.975 344.163 379.975 352.366 379.975 360.68Z" fill="white"/>
<path fill-rule="evenodd" clip-rule="evenodd" d="M360.799 360.348C361.021 352.034 361.242 343.72 361.575 335.517C361.796 335.517 362.018 335.517 362.24 335.517C363.681 338.067 369.556 345.494 368.891 348.265C366.12 352.256 363.459 356.246 360.799 360.348Z" fill="white"/>
<path fill-rule="evenodd" clip-rule="evenodd" d="M360.799 360.348C361.021 352.034 361.242 343.72 361.575 335.517C361.796 335.517 362.018 335.517 362.24 335.517C363.681 338.067 369.556 345.494 368.891 348.265C366.12 352.256 363.459 356.246 360.799 360.348Z" fill="white"/>
<path fill-rule="evenodd" clip-rule="evenodd" d="M229.662 345.937C229.773 337.401 229.773 337.401 230.216 336.515C230.881 336.515 231.547 336.515 232.323 336.626C233.653 339.286 233.209 342.944 233.32 345.937C232.101 345.937 230.881 345.937 229.662 345.937Z" fill="#009FE0"/>
<path fill-rule="evenodd" clip-rule="evenodd" d="M229.662 345.937C229.773 337.401 229.773 337.401 230.216 336.515C230.881 336.515 231.547 336.515 232.323 336.626C233.653 339.286 233.209 342.944 233.32 345.937C232.101 345.937 230.881 345.937 229.662 345.937Z" fill="#009FE0"/>
<path fill-rule="evenodd" clip-rule="evenodd" d="M370.443 344.829C368.226 340.949 366.009 337.069 363.902 333.3C368.669 333.189 373.435 333.079 378.202 332.968C376.872 335.185 372.549 344.164 370.443 344.829Z" fill="white"/>
<path fill-rule="evenodd" clip-rule="evenodd" d="M370.443 344.829C368.226 340.949 366.009 337.069 363.902 333.3C368.669 333.189 373.435 333.079 378.202 332.968C376.872 335.185 372.549 344.164 370.443 344.829Z" fill="white"/>
<path fill-rule="evenodd" clip-rule="evenodd" d="M363.791 325.54C365.232 321.217 368.336 317.005 370.664 313.125C372.659 313.125 377.204 322.547 377.758 325.54C373.102 325.54 368.447 325.54 363.791 325.54Z" fill="white"/>
<path fill-rule="evenodd" clip-rule="evenodd" d="M363.791 325.54C365.232 321.217 368.336 317.005 370.664 313.125C372.659 313.125 377.204 322.547 377.758 325.54C373.102 325.54 368.447 325.54 363.791 325.54Z" fill="white"/>
<path fill-rule="evenodd" clip-rule="evenodd" d="M378.867 321.883C376.761 318.335 373.103 313.901 372.438 309.8C374.433 306.363 376.428 303.038 378.534 299.712C379.643 306.696 379.421 314.677 379.643 321.883C379.31 321.883 379.089 321.883 378.867 321.883Z" fill="white"/>
<path fill-rule="evenodd" clip-rule="evenodd" d="M378.867 321.883C376.761 318.335 373.103 313.901 372.438 309.8C374.433 306.363 376.428 303.038 378.534 299.712C379.643 306.696 379.421 314.677 379.643 321.883C379.31 321.883 379.089 321.883 378.867 321.883Z" fill="white"/>
<path fill-rule="evenodd" clip-rule="evenodd" d="M362.239 321.55C362.017 319.887 362.017 319.887 362.793 299.491C363.902 300.488 363.902 300.488 369.112 309.246C368.447 313.569 364.788 318.003 362.239 321.55Z" fill="white"/>
<path fill-rule="evenodd" clip-rule="evenodd" d="M362.239 321.55C362.017 319.887 362.017 319.887 362.793 299.491C363.902 300.488 363.902 300.488 369.112 309.246C368.447 313.569 364.788 318.003 362.239 321.55Z" fill="white"/>
<path fill-rule="evenodd" clip-rule="evenodd" d="M229.663 310.797C229.33 305.92 229.33 305.92 229.774 302.04C230.66 301.375 230.66 301.375 231.991 301.375C233.543 302.927 233.21 308.469 233.321 310.797C232.102 310.797 230.882 310.797 229.663 310.797Z" fill="#009FE0"/>
<path fill-rule="evenodd" clip-rule="evenodd" d="M229.663 310.797C229.33 305.92 229.33 305.92 229.774 302.04C230.66 301.375 230.66 301.375 231.991 301.375C233.543 302.927 233.21 308.469 233.321 310.797C232.102 310.797 230.882 310.797 229.663 310.797Z" fill="#009FE0"/>
<path fill-rule="evenodd" clip-rule="evenodd" d="M370.775 307.472C368.558 303.703 366.341 299.934 364.234 296.276C368.558 296.165 372.992 296.054 377.426 296.054C371.218 307.25 371.218 307.25 370.775 307.472Z" fill="white"/>
<path fill-rule="evenodd" clip-rule="evenodd" d="M370.775 307.472C368.558 303.703 366.341 299.934 364.234 296.276C368.558 296.165 372.992 296.054 377.426 296.054C371.218 307.25 371.218 307.25 370.775 307.472Z" fill="white"/>
<path fill-rule="evenodd" clip-rule="evenodd" d="M365.233 287.851C365.122 287.629 365.011 287.408 364.9 287.297C366.674 283.639 368.669 279.87 370.997 276.544C371.662 276.988 371.662 276.988 376.651 287.851C372.771 287.851 369.002 287.851 365.233 287.851Z" fill="white"/>
<path fill-rule="evenodd" clip-rule="evenodd" d="M365.233 287.851C365.122 287.629 365.011 287.408 364.9 287.297C366.674 283.639 368.669 279.87 370.997 276.544C371.662 276.988 371.662 276.988 376.651 287.851C372.771 287.851 369.002 287.851 365.233 287.851Z" fill="white"/>
<path fill-rule="evenodd" clip-rule="evenodd" d="M378.203 284.194C376.318 280.646 373.547 276.545 372.66 272.776C374.323 269.34 375.986 265.903 377.759 262.467C378.314 267.788 378.314 267.788 378.868 284.194C378.646 284.194 378.424 284.194 378.203 284.194Z" fill="white"/>
<path fill-rule="evenodd" clip-rule="evenodd" d="M378.203 284.194C376.318 280.646 373.547 276.545 372.66 272.776C374.323 269.34 375.986 265.903 377.759 262.467C378.314 267.788 378.314 267.788 378.868 284.194C378.646 284.194 378.424 284.194 378.203 284.194Z" fill="white"/>
<path fill-rule="evenodd" clip-rule="evenodd" d="M363.348 283.861C363.569 276.544 363.902 269.228 364.234 262.023C365.676 265.016 369.888 270.669 369.223 273.995C367.227 277.209 365.232 280.535 363.348 283.861Z" fill="white"/>
<path fill-rule="evenodd" clip-rule="evenodd" d="M363.348 283.861C363.569 276.544 363.902 269.228 364.234 262.023C365.676 265.016 369.888 270.669 369.223 273.995C367.227 277.209 365.232 280.535 363.348 283.861Z" fill="white"/>
<path fill-rule="evenodd" clip-rule="evenodd" d="M228.886 277.542C228.886 274.882 228.664 269.34 230.216 267.344C234.318 267.344 232.987 270.559 233.098 273.995C234.318 274.549 233.985 276.323 234.096 277.542C232.322 277.542 230.549 277.542 228.886 277.542Z" fill="#009FE0"/>
<path fill-rule="evenodd" clip-rule="evenodd" d="M228.886 277.542C228.886 274.882 228.664 269.34 230.216 267.344C234.318 267.344 232.987 270.559 233.098 273.995C234.318 274.549 233.985 276.323 234.096 277.542C232.322 277.542 230.549 277.542 228.886 277.542Z" fill="#009FE0"/>
<path fill-rule="evenodd" clip-rule="evenodd" d="M370.775 269.783C368.891 265.792 367.117 261.802 365.344 257.811C369.224 257.7 373.103 257.589 377.094 257.589C375.764 260.471 373.103 268.231 370.775 269.783Z" fill="white"/>
<path fill-rule="evenodd" clip-rule="evenodd" d="M370.775 269.783C368.891 265.792 367.117 261.802 365.344 257.811C369.224 257.7 373.103 257.589 377.094 257.589C375.764 260.471 373.103 268.231 370.775 269.783Z" fill="white"/>
<path fill-rule="evenodd" clip-rule="evenodd" d="M288.211 169.963L279.778 171.67L286.025 166.072L278.453 162.451L286.884 161.398L283.336 154.089L290.262 158.715L292.637 150.197L294.901 158.674L301.997 153.477L298.501 161.783L306.887 162.046L298.942 166.525L304.826 171.502L296.611 170.17L297.347 178.252L292.593 171.564L287.389 178.733L288.211 169.963Z" fill="#F9E103"/>
</svg>
