<svg id="id-svg" width="697" height="704" viewBox="0 0 697 704" fill="none" xmlns="http://www.w3.org/2000/svg">
<path fill-rule="evenodd" clip-rule="evenodd" d="M110.648 301.108C130.944 301.108 140.614 295.164 144.253 291.771C147.527 288.724 148.29 285.91 145.853 283.679C142.639 280.729 137.8 280.119 132.119 279.944C127.669 286.717 117.596 296.979 110.648 301.108ZM586.352 301.108C566.056 301.108 556.386 295.164 552.747 291.771C549.473 288.724 548.71 285.91 551.147 283.679C554.36 280.729 559.2 280.119 564.881 279.944C569.331 286.717 579.404 296.979 586.352 301.108ZM673.28 221.282C673.337 221.444 673.398 221.611 673.46 221.773L673.28 221.282ZM23.7199 221.282C23.6629 221.444 23.6015 221.611 23.5402 221.773L23.7199 221.282ZM348.5 590.328C327.533 590.328 307.162 587.751 287.699 582.898C278.177 590.543 267.753 592.375 256.43 588.386C155.497 550.981 83.5567 453.83 83.5567 339.877C83.5567 332.004 83.8986 324.21 84.5737 316.512C101.876 316.512 113.839 318.463 121.616 324.188C125.933 327.362 132.263 335.897 130.931 343.638C130.501 346.137 119.332 336.756 111.651 339.877C109.403 340.789 112.642 346.838 115.531 349.534C120.585 354.247 126.806 353.488 126.823 355.799C126.841 358.692 121.445 357.228 116.513 364.084C113.348 368.489 111.91 372.899 112.984 374.46C113.76 375.582 116.342 375.367 119.656 374.653C123.772 373.767 126.183 371.457 127.095 371.926C127.691 372.233 127.143 375.104 126.692 377.743C126.31 379.996 127.021 382.482 128.533 382.749C130.102 383.025 132.193 381.399 133.557 379.317C135.617 376.152 137.743 374.21 138.655 374.648C139.277 374.951 140.676 384.152 148.294 389.772C150.504 391.403 152.582 391.775 153.568 391.552C155.606 391.087 156.391 384.209 155.742 379.733C155.085 375.183 150.539 372.43 151.056 370.843C151.367 369.883 162.318 370.835 161.309 365.486C161.046 364.092 157.636 363.667 154.962 360.248C150.697 354.79 144.853 357.714 144.717 355.198C144.603 353.12 159.332 354.576 163.501 343.673C164.79 340.302 159.197 342.442 156.343 340.25C148.952 334.569 143.626 342.328 141.89 341.105C140.15 339.877 142.495 329.856 137.848 323.228C131.299 313.882 118.043 309.871 111.752 309.871C142.092 309.871 148.356 306.855 158.359 298.395C163.558 293.994 165.974 285.235 164.588 280.356C163.348 276.012 159.578 271.374 155.133 270.528C149.846 269.524 143.656 269.243 137.3 269.182C138.519 264.934 138.905 260.266 138.523 254.326C138.12 248.005 135.968 241.732 131.343 237.282C126.898 233.004 119.297 232.105 113.252 235.766C104.826 240.864 96.2736 249.837 88.8039 258.135C84.0827 252.16 82.5353 244.222 82.2284 234.92C81.9391 226.279 87.5896 215.347 91.4341 214.913C96.7471 214.308 98.7197 222.409 104.449 226.143C110.393 230.019 114.444 229.089 119.143 226.998C120.848 225.368 119.634 223.281 119.928 220.493C125.903 218.507 133.456 222.426 138.08 211.656C137.318 209.604 134.894 209.183 133.421 207.241C136.494 204.835 143.341 204.309 147.26 191.28C145.52 187.703 137.182 189.956 137.305 185.59C137.392 182.588 127.205 183.846 124.04 183.916C129.712 182.618 138.392 180.694 134.319 172.325C139.698 167.714 140.075 159.622 139.996 157.614C137.901 156.422 136.884 157.377 133.833 156.588C136.406 151.63 140.706 148.527 133.662 137.068C116.829 135.306 114.852 142.635 112.357 144.02C111.13 143.117 110.257 138.847 109.552 138.628C100.32 138.396 97.0101 149.684 96.0369 152.174C94.1081 152.726 90.7985 148.268 89.1721 149.772C86.0729 152.643 89.2423 163.361 89.0845 168.832C88.7469 161.884 83.7978 155.654 79.7561 157.579C78.0245 158.407 70.0375 148.364 65.4654 149.5C63.0061 150.109 61.0028 154.563 60.1305 157.513C58.4252 163.299 60.3672 167.67 59.5124 168.854C58.171 170.708 53.3753 168.718 51.9111 170.151C50.824 171.221 50.0349 179.16 50.8722 187.05C48.2332 187.322 45.1077 188.142 42.8326 189.882C37.2347 194.16 36.301 201.025 35.4724 201.314C33.7804 201.906 30.1726 197.562 28.52 197.851C26.5342 198.202 23.2684 202.187 22.4925 205.492C21.0327 211.748 24.6273 220.383 23.5445 221.773C21.8963 223.89 8.98645 215.07 7.18477 218.231C-0.736483 232.127 8.73658 238.505 8.6226 240.219C8.44288 242.937 2.45043 241.776 2.01206 244.463C0.429567 254.159 11.7043 262.931 17.6924 262.848C19.871 262.817 26.3238 257.728 29.7956 259.854C33.0483 261.848 36.656 290.175 56.6718 292.275C70.0463 293.674 80.9747 284.591 89.9787 274.692C92.0171 275.727 94.2659 276.656 96.7646 277.546C104.414 280.264 112.261 280.141 118.481 279.935C115.895 283.574 112.449 287.024 108.044 290.083C89.7508 302.774 56.7945 301.108 49.0705 301.108H19.0206L3.61648 316.512C3.10359 324.232 2.84057 332.026 2.84057 339.877C2.84057 506.614 120.897 645.777 277.98 678.334C293.643 681.867 302.621 688.614 304.909 698.574C319.2 700.292 333.749 701.177 348.5 701.177C363.251 701.177 377.8 700.292 392.091 698.574C394.379 688.614 403.357 681.867 419.02 678.334C576.103 645.777 694.159 506.614 694.159 339.877C694.159 332.026 693.896 324.232 693.383 316.512L677.979 301.108H647.929C640.205 301.108 607.249 302.774 588.956 290.083C584.551 287.024 581.105 283.574 578.519 279.935C584.739 280.141 592.586 280.264 600.235 277.546C602.734 276.656 604.983 275.727 607.021 274.692C616.025 284.591 626.954 293.674 640.328 292.275C660.344 290.175 663.952 261.848 667.204 259.854C670.676 257.728 677.129 262.817 679.308 262.848C685.296 262.931 696.57 254.159 694.988 244.463C694.549 241.776 688.557 242.937 688.377 240.219C688.263 238.505 697.736 232.127 689.815 218.231C688.013 215.07 675.104 223.89 673.455 221.773C672.373 220.383 675.967 211.748 674.507 205.492C673.732 202.187 670.466 198.202 668.48 197.851C666.827 197.562 663.22 201.906 661.527 201.314C660.699 201.025 659.765 194.16 654.167 189.882C651.892 188.142 648.767 187.322 646.128 187.05C646.965 179.16 646.176 171.221 645.089 170.151C643.625 168.718 638.829 170.708 637.488 168.854C636.633 167.67 638.575 163.299 636.869 157.513C635.997 154.563 633.994 150.109 631.535 149.5C626.962 148.364 618.975 158.407 617.244 157.579C613.202 155.654 608.253 161.884 607.915 168.832C607.758 163.361 610.927 152.643 607.828 149.772C606.201 148.268 602.892 152.726 600.963 152.174C599.99 149.684 596.68 138.396 587.448 138.628C586.742 138.847 585.87 143.117 584.643 144.02C582.148 142.635 580.171 135.306 563.338 137.068C556.294 148.527 560.594 151.63 563.167 156.588C560.116 157.377 559.099 156.422 557.004 157.614C556.925 159.622 557.302 167.714 562.681 172.325C558.608 180.694 567.288 182.618 572.96 183.916C569.795 183.846 559.608 182.588 559.695 185.59C559.818 189.956 551.48 187.703 549.74 191.28C553.659 204.309 560.506 204.835 563.579 207.241C562.106 209.183 559.682 209.604 558.919 211.656C563.544 222.426 571.097 218.507 577.072 220.493C577.366 223.281 576.152 225.368 577.857 226.998C582.556 229.089 586.607 230.019 592.551 226.143C598.28 222.409 600.253 214.308 605.566 214.913C609.41 215.347 615.061 226.279 614.771 234.92C614.465 244.222 612.917 252.16 608.196 258.135C600.726 249.837 592.174 240.864 583.748 235.766C577.703 232.105 570.102 233.004 565.657 237.282C561.032 241.732 558.88 248.005 558.477 254.326C558.095 260.266 558.481 264.934 559.7 269.182C553.343 269.243 547.154 269.524 541.867 270.528C537.422 271.374 533.652 276.012 532.412 280.356C531.026 285.235 533.442 293.994 538.641 298.395C548.644 306.855 554.908 309.871 585.248 309.871C578.957 309.871 565.701 313.882 559.152 323.228C554.505 329.856 556.85 339.877 555.11 341.105C553.374 342.328 548.048 334.569 540.657 340.25C537.803 342.442 532.21 340.302 533.499 343.673C537.668 354.576 552.397 353.12 552.283 355.198C552.147 357.714 546.303 354.79 542.038 360.248C539.364 363.667 535.954 364.092 535.69 365.486C534.682 370.835 545.633 369.883 545.944 370.843C546.461 372.43 541.915 375.183 541.258 379.733C540.609 384.209 541.394 391.087 543.432 391.552C544.418 391.775 546.496 391.403 548.706 389.772C556.324 384.152 557.723 374.951 558.345 374.648C559.257 374.21 561.383 376.152 563.443 379.317C564.807 381.399 566.898 383.025 568.467 382.749C569.979 382.482 570.69 379.996 570.308 377.743C569.857 375.104 569.309 372.233 569.905 371.926C570.817 371.457 573.228 373.767 577.344 374.653C580.658 375.367 583.24 375.582 584.016 374.46C585.09 372.899 583.652 368.489 580.487 364.084C575.555 357.228 570.159 358.692 570.177 355.799C570.194 353.488 576.415 354.247 581.469 349.534C584.358 346.838 587.597 340.789 585.348 339.877C577.668 336.756 566.499 346.137 566.069 343.638C564.737 335.897 571.067 327.362 575.384 324.188C583.161 318.463 595.124 316.512 612.426 316.512C613.101 324.21 613.443 332.004 613.443 339.877C613.443 453.83 541.503 550.981 440.57 588.386C429.247 592.375 418.822 590.543 409.301 582.898C389.838 587.751 369.467 590.328 348.5 590.328ZM616.477 267.38C618.585 264.886 620.426 261.857 622.14 258.061C623.964 254.019 625.025 248.912 625.266 242.705C627.918 244.901 630.518 246.269 630.671 247.137C631.096 249.605 625.783 248.921 626.524 251.314C627.857 255.606 631.188 261.3 637.689 262.444C642.204 263.238 648.499 254.479 651.695 260.494C654.286 265.364 649.516 275.135 642.384 278.848C639.162 280.523 632.657 280.886 625.498 276.043C623.105 274.421 620.028 271.277 616.477 267.38ZM631.881 206.698C628.146 215.767 638.11 224.333 637.588 226.656C637.295 227.958 629.264 225.337 624.192 225.802C622.487 216.026 619.186 210.336 621.18 207.684C622.149 206.404 626.822 207.509 631.881 206.698ZM573.368 269.191C572.018 264.251 571.97 259.345 572.995 254.944C575.104 245.931 582.24 249.828 587.571 253.37C590.903 255.584 594.686 260.108 599.003 265.311C597.605 265.986 596.084 266.596 594.436 267.139C589.145 268.875 581.565 269.165 573.368 269.191ZM80.5232 267.38C78.4147 264.886 76.5735 261.857 74.8595 258.061C73.0359 254.019 71.9751 248.912 71.734 242.705C69.0819 244.901 66.4824 246.269 66.3289 247.137C65.9037 249.605 71.2167 248.921 70.4759 251.314C69.1432 255.606 65.8117 261.3 59.3107 262.444C54.7956 263.238 48.5006 254.479 45.305 260.494C42.7142 265.364 47.4836 275.135 54.6158 278.848C57.8378 280.523 64.3431 280.886 71.5016 276.043C73.8951 274.421 76.9724 271.277 80.5232 267.38ZM65.1191 206.698C68.8539 215.767 58.8899 224.333 59.4115 226.656C59.7052 227.958 67.7361 225.337 72.808 225.802C74.5132 216.026 77.8141 210.336 75.8195 207.684C74.8508 206.404 70.1778 207.509 65.1191 206.698ZM123.632 269.191C124.982 264.251 125.03 259.345 124.005 254.944C121.896 245.931 114.759 249.828 109.429 253.37C106.097 255.584 102.314 260.108 97.9964 265.311C99.3948 265.986 100.916 266.596 102.564 267.139C107.855 268.875 115.435 269.165 123.632 269.191Z" fill="#FFDF00"/>
<path d="M673.28 221.282C673.337 221.444 673.398 221.611 673.46 221.773M23.7199 221.282C23.6629 221.444 23.6015 221.611 23.5402 221.773M110.648 301.108C130.944 301.108 140.614 295.164 144.253 291.771C147.527 288.724 148.29 285.91 145.853 283.679C142.639 280.729 137.8 280.119 132.119 279.944C127.669 286.717 117.596 296.979 110.648 301.108ZM586.352 301.108C566.056 301.108 556.386 295.164 552.747 291.771C549.473 288.724 548.71 285.91 551.147 283.679C554.36 280.729 559.2 280.119 564.881 279.944C569.331 286.717 579.404 296.979 586.352 301.108ZM348.5 590.328C327.533 590.328 307.162 587.751 287.699 582.898C278.177 590.543 267.753 592.375 256.43 588.386C155.497 550.981 83.5567 453.83 83.5567 339.877C83.5567 332.004 83.8986 324.21 84.5737 316.512C101.876 316.512 113.839 318.463 121.616 324.188C125.933 327.362 132.263 335.897 130.931 343.638C130.501 346.137 119.332 336.756 111.651 339.877C109.403 340.789 112.642 346.838 115.531 349.534C120.585 354.247 126.806 353.488 126.823 355.799C126.841 358.692 121.445 357.228 116.513 364.084C113.348 368.489 111.91 372.899 112.984 374.46C113.76 375.582 116.342 375.367 119.656 374.653C123.772 373.767 126.183 371.457 127.095 371.926C127.691 372.233 127.143 375.104 126.692 377.743C126.31 379.996 127.021 382.482 128.533 382.749C130.102 383.025 132.193 381.399 133.557 379.317C135.617 376.152 137.743 374.21 138.655 374.648C139.277 374.951 140.676 384.152 148.294 389.772C150.504 391.403 152.582 391.775 153.568 391.552C155.606 391.087 156.391 384.209 155.742 379.733C155.085 375.183 150.539 372.43 151.056 370.843C151.367 369.883 162.318 370.835 161.309 365.486C161.046 364.092 157.636 363.667 154.962 360.248C150.697 354.79 144.853 357.714 144.717 355.198C144.603 353.12 159.332 354.576 163.501 343.673C164.79 340.302 159.197 342.442 156.343 340.25C148.952 334.569 143.626 342.328 141.89 341.105C140.15 339.877 142.495 329.856 137.848 323.228C131.299 313.882 118.043 309.871 111.752 309.871C142.092 309.871 148.356 306.855 158.359 298.395C163.558 293.994 165.974 285.235 164.588 280.356C163.348 276.012 159.578 271.374 155.133 270.528C149.846 269.524 143.656 269.243 137.3 269.182C138.519 264.934 138.905 260.266 138.523 254.326C138.12 248.005 135.968 241.732 131.343 237.282C126.898 233.004 119.297 232.105 113.252 235.766C104.826 240.864 96.2736 249.837 88.8039 258.135C84.0827 252.16 82.5353 244.222 82.2284 234.92C81.9391 226.279 87.5896 215.347 91.4341 214.913C96.7471 214.308 98.7197 222.409 104.449 226.143C110.393 230.019 114.444 229.089 119.143 226.998C120.848 225.368 119.634 223.281 119.928 220.493C125.903 218.507 133.456 222.426 138.08 211.656C137.318 209.604 134.894 209.183 133.421 207.241C136.494 204.835 143.341 204.309 147.26 191.28C145.52 187.703 137.182 189.956 137.305 185.59C137.392 182.588 127.205 183.846 124.04 183.916C129.712 182.618 138.392 180.694 134.319 172.325C139.698 167.714 140.075 159.622 139.996 157.614C137.901 156.422 136.884 157.377 133.833 156.588C136.406 151.63 140.706 148.527 133.662 137.068C116.829 135.306 114.852 142.635 112.357 144.02C111.13 143.117 110.257 138.847 109.552 138.628C100.32 138.396 97.0101 149.684 96.0369 152.174C94.1081 152.726 90.7985 148.268 89.1721 149.772C86.0729 152.643 89.2423 163.361 89.0845 168.832C88.7469 161.884 83.7978 155.654 79.7561 157.579C78.0245 158.407 70.0375 148.364 65.4654 149.5C63.0061 150.109 61.0028 154.563 60.1305 157.513C58.4252 163.299 60.3672 167.67 59.5124 168.854C58.171 170.708 53.3753 168.718 51.9111 170.151C50.824 171.221 50.0349 179.16 50.8722 187.05C48.2332 187.322 45.1077 188.142 42.8326 189.882C37.2347 194.16 36.301 201.025 35.4724 201.314C33.7804 201.906 30.1726 197.562 28.52 197.851C26.5342 198.202 23.2684 202.187 22.4925 205.492C21.0327 211.748 24.6273 220.383 23.5445 221.773C21.8963 223.89 8.98645 215.07 7.18477 218.231C-0.736483 232.127 8.73658 238.505 8.6226 240.219C8.44288 242.937 2.45043 241.776 2.01206 244.463C0.429567 254.159 11.7043 262.931 17.6924 262.848C19.871 262.817 26.3238 257.728 29.7956 259.854C33.0483 261.848 36.656 290.175 56.6718 292.275C70.0463 293.674 80.9747 284.591 89.9787 274.692C92.0171 275.727 94.2659 276.656 96.7646 277.546C104.414 280.264 112.261 280.141 118.481 279.935C115.895 283.574 112.449 287.024 108.044 290.083C89.7508 302.774 56.7945 301.108 49.0705 301.108H19.0206L3.61648 316.512C3.10359 324.232 2.84057 332.026 2.84057 339.877C2.84057 506.614 120.897 645.777 277.98 678.334C293.643 681.867 302.621 688.614 304.909 698.574C319.2 700.292 333.749 701.177 348.5 701.177C363.251 701.177 377.8 700.292 392.091 698.574C394.379 688.614 403.357 681.867 419.02 678.334C576.103 645.777 694.159 506.614 694.159 339.877C694.159 332.026 693.896 324.232 693.383 316.512L677.979 301.108H647.929C640.205 301.108 607.249 302.774 588.956 290.083C584.551 287.024 581.105 283.574 578.519 279.935C584.739 280.141 592.586 280.264 600.235 277.546C602.734 276.656 604.983 275.727 607.021 274.692C616.025 284.591 626.954 293.674 640.328 292.275C660.344 290.175 663.952 261.848 667.204 259.854C670.676 257.728 677.129 262.817 679.308 262.848C685.296 262.931 696.57 254.159 694.988 244.463C694.549 241.776 688.557 242.937 688.377 240.219C688.263 238.505 697.736 232.127 689.815 218.231C688.013 215.07 675.104 223.89 673.455 221.773C672.373 220.383 675.967 211.748 674.507 205.492C673.732 202.187 670.466 198.202 668.48 197.851C666.827 197.562 663.22 201.906 661.527 201.314C660.699 201.025 659.765 194.16 654.167 189.882C651.892 188.142 648.767 187.322 646.128 187.05C646.965 179.16 646.176 171.221 645.089 170.151C643.625 168.718 638.829 170.708 637.488 168.854C636.633 167.67 638.575 163.299 636.869 157.513C635.997 154.563 633.994 150.109 631.535 149.5C626.962 148.364 618.975 158.407 617.244 157.579C613.202 155.654 608.253 161.884 607.915 168.832C607.758 163.361 610.927 152.643 607.828 149.772C606.201 148.268 602.892 152.726 600.963 152.174C599.99 149.684 596.68 138.396 587.448 138.628C586.742 138.847 585.87 143.117 584.643 144.02C582.148 142.635 580.171 135.306 563.338 137.068C556.294 148.527 560.594 151.63 563.167 156.588C560.116 157.377 559.099 156.422 557.004 157.614C556.925 159.622 557.302 167.714 562.681 172.325C558.608 180.694 567.288 182.618 572.96 183.916C569.795 183.846 559.608 182.588 559.695 185.59C559.818 189.956 551.48 187.703 549.74 191.28C553.659 204.309 560.506 204.835 563.579 207.241C562.106 209.183 559.682 209.604 558.919 211.656C563.544 222.426 571.097 218.507 577.072 220.493C577.366 223.281 576.152 225.368 577.857 226.998C582.556 229.089 586.607 230.019 592.551 226.143C598.28 222.409 600.253 214.308 605.566 214.913C609.41 215.347 615.061 226.279 614.771 234.92C614.465 244.222 612.917 252.16 608.196 258.135C600.726 249.837 592.174 240.864 583.748 235.766C577.703 232.105 570.102 233.004 565.657 237.282C561.032 241.732 558.88 248.005 558.477 254.326C558.095 260.266 558.481 264.934 559.7 269.182C553.343 269.243 547.154 269.524 541.867 270.528C537.422 271.374 533.652 276.012 532.412 280.356C531.026 285.235 533.442 293.994 538.641 298.395C548.644 306.855 554.908 309.871 585.248 309.871C578.957 309.871 565.701 313.882 559.152 323.228C554.505 329.856 556.85 339.877 555.11 341.105C553.374 342.328 548.048 334.569 540.657 340.25C537.803 342.442 532.21 340.302 533.499 343.673C537.668 354.576 552.397 353.12 552.283 355.198C552.147 357.714 546.303 354.79 542.038 360.248C539.364 363.667 535.954 364.092 535.69 365.486C534.682 370.835 545.633 369.883 545.944 370.843C546.461 372.43 541.915 375.183 541.258 379.733C540.609 384.209 541.394 391.087 543.432 391.552C544.418 391.775 546.496 391.403 548.706 389.772C556.324 384.152 557.723 374.951 558.345 374.648C559.257 374.21 561.383 376.152 563.443 379.317C564.807 381.399 566.898 383.025 568.467 382.749C569.979 382.482 570.69 379.996 570.308 377.743C569.857 375.104 569.309 372.233 569.905 371.926C570.817 371.457 573.228 373.767 577.344 374.653C580.658 375.367 583.24 375.582 584.016 374.46C585.09 372.899 583.652 368.489 580.487 364.084C575.555 357.228 570.159 358.692 570.177 355.799C570.194 353.488 576.415 354.247 581.469 349.534C584.358 346.838 587.597 340.789 585.348 339.877C577.668 336.756 566.499 346.137 566.069 343.638C564.737 335.897 571.067 327.362 575.384 324.188C583.161 318.463 595.124 316.512 612.426 316.512C613.101 324.21 613.443 332.004 613.443 339.877C613.443 453.83 541.503 550.981 440.57 588.386C429.247 592.375 418.822 590.543 409.301 582.898C389.838 587.751 369.467 590.328 348.5 590.328ZM616.477 267.38C618.585 264.886 620.426 261.857 622.14 258.061C623.964 254.019 625.025 248.912 625.266 242.705C627.918 244.901 630.518 246.269 630.671 247.137C631.096 249.605 625.783 248.921 626.524 251.314C627.857 255.606 631.188 261.3 637.689 262.444C642.204 263.238 648.499 254.479 651.695 260.494C654.286 265.364 649.516 275.135 642.384 278.848C639.162 280.523 632.657 280.886 625.498 276.043C623.105 274.421 620.028 271.277 616.477 267.38ZM631.881 206.698C628.146 215.767 638.11 224.333 637.588 226.656C637.295 227.958 629.264 225.337 624.192 225.802C622.487 216.026 619.186 210.336 621.18 207.684C622.149 206.404 626.822 207.509 631.881 206.698ZM573.368 269.191C572.018 264.251 571.97 259.345 572.995 254.944C575.104 245.931 582.24 249.828 587.571 253.37C590.903 255.584 594.686 260.108 599.003 265.311C597.605 265.986 596.084 266.596 594.436 267.139C589.145 268.875 581.565 269.165 573.368 269.191ZM80.5232 267.38C78.4147 264.886 76.5735 261.857 74.8595 258.061C73.0359 254.019 71.9751 248.912 71.734 242.705C69.0819 244.901 66.4824 246.269 66.3289 247.137C65.9037 249.605 71.2167 248.921 70.4759 251.314C69.1432 255.606 65.8117 261.3 59.3107 262.444C54.7956 263.238 48.5006 254.479 45.305 260.494C42.7142 265.364 47.4836 275.135 54.6158 278.848C57.8378 280.523 64.3431 280.886 71.5016 276.043C73.8951 274.421 76.9724 271.277 80.5232 267.38ZM65.1191 206.698C68.8539 215.767 58.8899 224.333 59.4115 226.656C59.7052 227.958 67.7361 225.337 72.808 225.802C74.5132 216.026 77.8141 210.336 75.8195 207.684C74.8508 206.404 70.1778 207.509 65.1191 206.698ZM123.632 269.191C124.982 264.251 125.03 259.345 124.005 254.944C121.896 245.931 114.759 249.828 109.429 253.37C106.097 255.584 102.314 260.108 97.9964 265.311C99.3948 265.986 100.916 266.596 102.564 267.139C107.855 268.875 115.435 269.165 123.632 269.191Z" stroke="black" stroke-width="3.50692" stroke-miterlimit="22.9256" stroke-linejoin="round"/>
<path fill-rule="evenodd" clip-rule="evenodd" d="M679.321 316.513H626.507C627.147 324.215 627.471 332.009 627.471 339.878C627.471 456.662 554.773 561.225 445.422 601.546C431.802 606.57 418.31 605.11 406.452 597.982C387.436 602.234 367.998 604.356 348.5 604.356C329.002 604.356 309.564 602.234 290.548 597.982C278.69 605.11 265.198 606.57 251.578 601.546C142.227 561.225 69.529 456.662 69.529 339.878C69.529 332.009 69.8534 324.215 70.4934 316.513H17.6793C17.1401 324.228 16.8683 332.022 16.8683 339.878C16.8683 496.974 127.38 632.543 280.847 664.605C294.568 667.472 307.785 673.758 314.68 685.524C325.92 686.611 337.208 687.15 348.5 687.15C359.792 687.15 371.08 686.611 382.32 685.524C389.215 673.758 402.432 667.472 416.153 664.605C569.62 632.543 680.132 496.974 680.132 339.878C680.132 332.022 679.86 324.228 679.321 316.513Z" fill="#A2260B"/>
<path fill-rule="evenodd" clip-rule="evenodd" d="M144.253 403.589C142.438 402.726 141.132 401.143 140.193 399.942C136.63 395.37 137.274 392.288 135.88 392.236C134.179 392.174 132.443 398.553 129.861 401.529C129.918 403.598 129.695 405.68 130.286 407.662C130.782 409.336 132.158 411.559 132.991 411.717C134.07 411.923 137.576 410.923 139.273 409.648C141.412 408.039 142.451 405.566 144.253 403.589Z" fill="#FFDF00" stroke="black" stroke-width="3.50692" stroke-miterlimit="22.9256" stroke-linecap="round" stroke-linejoin="round"/>
<path fill-rule="evenodd" clip-rule="evenodd" d="M148.294 389.772C140.676 384.152 139.277 374.951 138.655 374.649C137.743 374.21 135.617 376.152 133.557 379.317C132.193 381.399 130.102 383.026 128.533 382.75C127.021 382.482 126.31 379.997 126.692 377.744C127.143 375.105 127.691 372.233 127.095 371.926C126.183 371.457 123.772 373.768 119.656 374.653C118.043 377.66 115.658 381.158 115.123 384.529C114.602 387.83 114.979 390.522 117.035 393.161C117.727 394.051 120.809 392.464 121.804 393.433C122.58 394.191 120.997 396.418 121.282 400.442C121.374 401.696 123.176 404.585 124.601 404.918C125.473 405.119 127.428 404.335 129.861 401.529C132.443 398.553 134.179 392.175 135.88 392.236C137.274 392.288 136.63 395.37 140.193 399.942C141.132 401.143 142.438 402.726 144.253 403.59C144.831 403.866 145.796 404.287 146.418 403.839C147.589 403.002 148.33 400.56 148.448 398.895C148.759 394.498 148.439 392.512 148.294 389.772Z" fill="#FFDF00" stroke="black" stroke-width="3.50692" stroke-miterlimit="22.9256" stroke-linecap="round" stroke-linejoin="round"/>
<path fill-rule="evenodd" clip-rule="evenodd" d="M552.747 403.589C554.562 402.726 555.868 401.143 556.807 399.942C560.37 395.37 559.726 392.288 561.12 392.236C562.821 392.174 564.557 398.553 567.139 401.529C567.082 403.598 567.305 405.68 566.714 407.662C566.218 409.336 564.842 411.559 564.009 411.717C562.931 411.923 559.424 410.923 557.727 409.648C555.588 408.039 554.549 405.566 552.747 403.589Z" fill="#FFDF00" stroke="black" stroke-width="3.50692" stroke-miterlimit="22.9256" stroke-linecap="round" stroke-linejoin="round"/>
<path fill-rule="evenodd" clip-rule="evenodd" d="M548.706 389.772C556.324 384.152 557.723 374.951 558.345 374.649C559.257 374.21 561.383 376.152 563.443 379.317C564.807 381.399 566.898 383.026 568.467 382.75C569.979 382.482 570.69 379.997 570.308 377.744C569.857 375.105 569.309 372.233 569.905 371.926C570.817 371.457 573.228 373.768 577.344 374.653C578.957 377.66 581.342 381.158 581.877 384.529C582.398 387.83 582.021 390.522 579.965 393.161C579.273 394.051 576.191 392.464 575.196 393.433C574.42 394.191 576.003 396.418 575.718 400.442C575.626 401.696 573.824 404.585 572.399 404.918C571.527 405.119 569.572 404.335 567.139 401.529C564.557 398.553 562.821 392.175 561.12 392.236C559.726 392.288 560.37 395.37 556.807 399.942C555.868 401.143 554.562 402.726 552.747 403.59C552.169 403.866 551.204 404.287 550.582 403.839C549.411 403.002 548.671 400.56 548.552 398.895C548.241 394.498 548.561 392.512 548.706 389.772Z" fill="#FFDF00" stroke="black" stroke-width="3.50692" stroke-miterlimit="22.9256" stroke-linecap="round" stroke-linejoin="round"/>
<path d="M97.9965 265.311C95.5066 268.314 92.837 271.545 89.9788 274.692M50.8679 187.05C53.2833 186.805 55.291 187.02 55.8565 187.41C56.8867 188.12 58.6007 191.548 58.8462 195.037C59.1749 199.811 57.6976 202.844 58.3859 204.431C59.3284 206.606 63.6463 203.717 64.7202 205.834C64.8693 206.119 65.0008 206.408 65.1192 206.693M72.8081 225.802C74.7237 225.977 76.2142 226.591 76.7095 228.024C79.1293 235.073 75.3857 239.676 71.7341 242.705M80.5233 267.381C83.0614 264.593 85.8494 261.414 88.804 258.135" stroke="black" stroke-width="3.50692" stroke-miterlimit="22.9256" stroke-linecap="round" stroke-linejoin="round"/>
<path d="M132.119 279.944C129.76 279.87 127.253 279.87 124.653 279.808C122.882 279.769 120.796 279.856 118.481 279.935M123.632 269.191C128.095 269.204 132.741 269.138 137.3 269.182" stroke="black" stroke-width="3.50692" stroke-miterlimit="22.9256" stroke-linecap="round" stroke-linejoin="round"/>
<path d="M599.003 265.311C601.493 268.314 604.163 271.545 607.021 274.692M646.132 187.05C643.717 186.805 641.709 187.02 641.143 187.41C640.113 188.12 638.399 191.548 638.154 195.037C637.825 199.811 639.302 202.844 638.614 204.431C637.672 206.606 633.354 203.717 632.28 205.834C632.131 206.119 631.999 206.408 631.881 206.693M624.192 225.802C622.276 225.977 620.786 226.591 620.29 228.024C617.871 235.073 621.614 239.676 625.266 242.705M616.477 267.381C613.939 264.593 611.151 261.414 608.196 258.135" stroke="black" stroke-width="3.50692" stroke-miterlimit="22.9256" stroke-linecap="round" stroke-linejoin="round"/>
<path d="M564.881 279.944C567.24 279.87 569.747 279.87 572.347 279.808C574.118 279.769 576.204 279.856 578.519 279.935M573.368 269.191C568.905 269.204 564.259 269.138 559.7 269.182" stroke="black" stroke-width="3.50692" stroke-miterlimit="22.9256" stroke-linecap="round" stroke-linejoin="round"/>
<path fill-rule="evenodd" clip-rule="evenodd" d="M348.5 580.307C344.993 580.307 342.556 580.25 339.571 579.325C327.866 543.493 308.127 538.386 270.813 538.671C213.26 539.11 158.811 502.199 161.279 427.511C181.312 415.6 184.113 388.128 187.274 359.854C189.027 344.182 188.756 317.674 185.218 297.246C179.278 262.922 170.458 245.923 141.618 245.239C162.169 146.453 141.618 245.239 162.169 146.453C186.231 146.453 214.097 140.684 243.556 113.602C266.754 92.2758 306.417 76.4157 348.5 108.6C390.583 76.4157 430.246 92.2758 453.445 113.602C482.903 140.684 510.77 146.453 534.831 146.453C555.382 245.239 534.831 146.453 555.382 245.239C526.542 245.923 517.722 262.922 511.782 297.246C508.245 317.674 507.973 344.182 509.726 359.854C512.887 388.128 515.688 415.6 535.721 427.511C538.189 502.199 483.74 539.11 426.187 538.671C388.873 538.386 369.134 543.493 357.43 579.325C354.444 580.25 352.007 580.307 348.5 580.307Z" fill="#FFDF00" stroke="black" stroke-width="3.50692" stroke-miterlimit="22.9256"/>
<path fill-rule="evenodd" clip-rule="evenodd" d="M334.486 289.076V272.049L271.65 209.368H248.899L214.843 243.424L243.323 271.9H266.079L285.967 252.012L263.216 229.256L248.899 243.424L257.487 252.012L263.216 246.282L268.788 252.012L257.487 263.308L237.598 243.424L263.216 217.955L334.486 289.076Z" fill="#A2260B"/>
<path fill-rule="evenodd" clip-rule="evenodd" d="M362.514 289.076V272.049L425.196 209.368H447.947L482.157 243.424L453.677 271.9H430.921L411.033 252.012L433.784 229.256L447.947 243.424L439.513 252.012L433.784 246.282L428.059 252.012L439.513 263.308L459.402 243.424L433.784 217.955L362.514 289.076Z" fill="#A2260B"/>
<path fill-rule="evenodd" clip-rule="evenodd" d="M433.876 22.8697V1.2583L455.672 22.8697L477.283 1.2583V22.8697H499.078L477.283 44.6608L499.078 66.2722H477.283V88.0677L455.672 66.2722L433.876 88.0677V66.2722H412.269L433.876 44.6608L412.269 22.8697H433.876Z" fill="#FFDF00"/>
<path fill-rule="evenodd" clip-rule="evenodd" d="M433.876 22.8697V1.2583L455.672 22.8697L477.283 1.2583V22.8697H499.078L477.283 44.6608L499.078 66.2722H477.283V88.0677L455.672 66.2722L433.876 88.0677V66.2722H412.269L433.876 44.6608L412.269 22.8697H433.876ZM440.89 18.0608V22.8697V29.8835H433.876H429.072L438.838 39.7292L443.761 44.6959L438.838 49.6187L429.199 59.2583H433.876H440.89V66.2722V71.138L450.714 61.3143L455.68 56.3476L460.629 61.3406L470.269 71.0635V66.2722V59.2583H477.283H482.07L472.351 49.6187L467.358 44.6696L472.325 39.7029L482.144 29.8835H477.283H470.269V22.8697V18.1923L460.629 27.8276L455.707 32.7504L450.74 27.8276L440.89 18.0608Z" fill="#A2260B"/>
<path fill-rule="evenodd" clip-rule="evenodd" d="M326.7 22.8697V1.07422L348.5 22.8697L370.107 1.07422V22.8697H391.907L370.107 44.4767L391.907 66.2722H370.107V87.8836L348.5 66.2722L326.7 87.8836V66.2722H305.093L326.7 44.4767L305.093 22.8697H326.7Z" fill="#FFDF00"/>
<path fill-rule="evenodd" clip-rule="evenodd" d="M326.7 22.8697V1.07422L348.5 22.8697L370.107 1.07422V22.8697H391.907L370.107 44.4767L391.907 66.2722H370.107V87.8836L348.5 66.2722L326.7 87.8836V66.2722H305.093L326.7 44.4767L305.093 22.8697H326.7ZM333.714 18.0039V22.8697V29.8836H326.7H322.027L331.662 39.5188L336.585 44.4416L331.662 49.4083L321.896 59.2584H326.7H333.714V66.2722V71.0811L343.568 61.3143L348.535 56.3915L353.458 61.3143L363.093 70.9496V66.2722V59.2584H370.107H374.973L365.149 49.4346L360.182 44.468L365.175 39.5188L374.894 29.8836H370.107H363.093V22.8697V18.0828L353.458 27.8013L348.509 32.7943L343.542 27.8276L333.714 18.0039Z" fill="#A2260B"/>
<path fill-rule="evenodd" clip-rule="evenodd" d="M219.722 22.8697V1.2583L241.333 22.8697L263.124 1.2583V22.8697H284.735L263.124 44.6608L284.735 66.2722H263.124V88.0677L241.333 66.2722L219.722 88.0677V66.2722H197.926L219.722 44.6608L197.926 22.8697H219.722Z" fill="#FFDF00"/>
<path fill-rule="evenodd" clip-rule="evenodd" d="M219.722 22.8697V1.2583L241.333 22.8697L263.124 1.2583V22.8697H284.735L263.124 44.6608L284.735 66.2722H263.124V88.0677L241.333 66.2722L219.722 88.0677V66.2722H197.926L219.722 44.6608L197.926 22.8697H219.722ZM226.735 18.1879V22.8697V29.8835H219.722H214.86L224.679 39.7029L229.646 44.6696L224.653 49.6187L214.93 59.2583H219.722H226.735V66.2722V71.0635L236.371 61.3406L241.324 56.3476L246.291 61.3143L256.11 71.138V66.2722V59.2583H263.124H267.801L258.166 49.6187L253.243 44.6959L258.166 39.7292L267.933 29.8835H263.124H256.11V22.8697V18.0608L246.265 27.8276L241.298 32.7504L236.371 27.8276L226.735 18.1879Z" fill="#A2260B"/>
<path fill-rule="evenodd" clip-rule="evenodd" d="M348.496 205.935L330.9 223.531L348.526 241.158L366.166 223.601L348.496 205.935ZM348.496 200.973L325.942 223.531L348.513 246.102L371.124 223.601L348.496 200.973Z" fill="black"/>
<path fill-rule="evenodd" clip-rule="evenodd" d="M197.282 402.077H310.156V312.23L282.088 340.298L279.607 342.784L277.13 340.285L251.968 314.891L250.942 313.852V312.423V284.174H239.693H238.242L237.212 283.144L199.964 245.901L197.488 243.424L199.964 240.943L242.788 198.119L243.814 197.093H245.269H265.101V177.244V175.802L266.144 174.763L309.13 131.97L311.612 129.502L314.075 131.97L348.574 166.469L383.087 131.957L385.568 129.475L388.045 131.957L430.869 174.776L431.894 175.802V177.257V197.093H451.568H453.002L454.036 198.119L497.035 240.93L499.525 243.411L497.049 245.888L459.788 283.144L458.757 284.174H457.306H446.058V312.423V313.852L445.032 314.891L419.87 340.285L417.393 342.784L414.912 340.298L386.844 312.23V402.077H499.718C496.286 389.776 494.839 376.709 493.511 364.719L493.178 361.699C492.038 351.529 491.701 339.921 492.082 328.3C492.468 316.486 493.594 304.69 495.37 294.414C497.982 279.326 501.498 265.487 507.916 254.383C514.04 243.797 522.706 235.783 535.546 231.654C533.481 221.747 531.394 211.726 528.804 199.206C526.958 190.272 524.49 178.441 522.049 166.71L521.163 162.48C506.469 161.108 492.902 157.478 480.15 151.639C466.666 145.467 454.137 136.853 442.174 125.854C429.378 114.089 415.333 107.768 401.064 107.084C386.918 106.404 372.435 111.257 358.613 121.826L350.622 127.937L348.5 129.559L346.378 127.937L338.387 121.826C324.565 111.257 310.082 106.404 295.936 107.084C281.667 107.768 267.622 114.089 254.826 125.854C242.863 136.853 230.334 145.467 216.85 151.639C204.098 157.478 190.531 161.108 175.837 162.48L174.951 166.71C172.51 178.441 170.042 190.272 168.196 199.206C165.605 211.726 163.519 221.747 161.454 231.654C174.294 235.783 182.96 243.797 189.084 254.383C195.502 265.487 199.018 279.326 201.63 294.414C203.406 304.69 204.532 316.486 204.918 328.3C205.299 339.921 204.962 351.529 203.822 361.699L203.485 364.724C202.161 376.713 200.714 389.781 197.282 402.077ZM157.369 234.104C184.56 241.131 193.073 265.535 198.176 295.002C201.665 315.145 202.603 341.087 200.341 361.318C198.768 375.416 197.242 391.319 192.565 405.584H313.663V309.13L310.98 306.448L279.611 337.821L254.449 312.423V280.667H239.693L202.446 243.424L245.269 200.6H268.608V177.244L311.598 134.451L348.574 171.427L385.568 134.433L428.392 177.257V200.6H451.568L494.567 243.406L457.306 280.667H442.551V312.423L417.389 337.821L386.02 306.448L383.337 309.13V405.584H504.435C499.758 391.319 498.232 375.416 496.658 361.318C494.397 341.087 495.335 315.145 498.824 295.002C503.927 265.535 512.44 241.131 539.631 234.104C537.159 222.242 534.682 210.376 532.227 198.509C529.518 185.406 526.787 172.308 524.056 159.21C493.45 156.935 467.95 144.801 444.546 123.281C417.827 98.7153 385.616 96.7734 356.487 119.047L348.5 125.153L340.513 119.047C311.384 96.7734 279.173 98.7153 252.454 123.281C229.05 144.801 203.55 156.935 172.944 159.21C170.213 172.308 167.482 185.406 164.773 198.509C162.318 210.376 159.841 222.242 157.369 234.104Z" fill="black"/>
<path fill-rule="evenodd" clip-rule="evenodd" d="M362.514 426.406V300.53L405.308 257.737L433.784 286.064V308.815L417.363 325.394L391.745 299.776L405.913 285.612L414.5 294.051L408.771 299.776L414.5 305.501L425.35 294.652L405.308 274.763L374.569 305.501V414.351H507.841C509.809 418.652 512.172 422.707 515.035 426.406H362.514Z" fill="#A2260B"/>
<path fill-rule="evenodd" clip-rule="evenodd" d="M334.485 426.406V300.53L291.692 257.737L263.216 286.064V308.815L279.637 325.394L305.255 299.776L291.087 285.612L282.5 294.051L288.229 299.776L282.5 305.501L271.65 294.652L291.692 274.763L322.43 305.501V414.351H189.159C187.191 418.652 184.828 422.707 181.965 426.406H334.485Z" fill="#A2260B"/>
<path fill-rule="evenodd" clip-rule="evenodd" d="M522.636 434.314H354.528V268.735L419.625 203.638V180.887L385.568 146.834L357.088 175.315V197.917L376.981 217.806L399.732 195.05L385.568 180.891L377.13 189.474L382.859 195.204L377.13 200.929L365.68 189.628L385.568 169.739L411.186 195.357L348.5 257.736L285.967 195.204L311.585 169.586L331.474 189.474L320.019 200.775L314.294 195.05L320.019 189.321L311.585 180.733L297.422 194.897L320.173 217.648L340.062 197.759V175.315L311.585 146.834L277.375 180.887V203.638L342.473 268.735V434.314H174.364C174.851 463.873 185.757 490.942 211.011 508.341C228.397 520.321 249.754 525.682 270.712 525.52C308.96 525.231 333.894 531.416 348.5 565.679C363.106 531.416 388.041 525.231 426.288 525.52C447.246 525.682 468.603 520.321 485.989 508.341C511.243 490.942 522.149 463.873 522.636 434.314Z" fill="#A2260B"/>
<path fill-rule="evenodd" clip-rule="evenodd" d="M293.647 637.141L294.432 632.161L298.667 637.934L304.431 633.744L303.642 638.723L308.661 639.517L302.849 643.743L307.079 649.516L302.06 648.718L301.262 653.738L297.08 647.929L291.267 652.155L292.061 647.136L287.085 646.347L292.85 642.16L288.668 636.352L293.647 637.141Z" fill="#FFDF00"/>
<path fill-rule="evenodd" clip-rule="evenodd" d="M13.3526 231.071C12.8967 229.594 14.2469 230.107 14.9965 230.558C18.7927 232.833 21.0109 236.042 24.6624 238.545C27.5337 240.513 31.8867 242.499 34.7667 244.45C36.7087 245.765 37.1865 247.216 34.6572 247.098C29.765 246.87 25.3726 244.419 21.7079 241.789C18.1615 239.242 14.6502 235.266 13.3526 231.071Z" fill="black"/>
<path fill-rule="evenodd" clip-rule="evenodd" d="M38.4402 245.975C36.9279 245.651 37.9537 244.542 38.7953 244.292C42.7406 243.122 47.2733 241.798 51.2405 239.834C54.3616 238.295 62.0418 235.573 64.8386 235.363C66.0046 235.275 66.6183 235.862 65.6802 236.91C62.5591 240.377 57.5354 242.701 53.4498 244.612C49.4958 246.462 42.7318 246.892 38.4402 245.975Z" fill="black"/>
<path fill-rule="evenodd" clip-rule="evenodd" d="M46.2519 201.389C47.361 199.123 48.9303 199.189 48.5446 201.341C47.5495 206.86 44.63 215.035 41.8464 227.538C40.619 233.052 38.4052 251.113 37.6468 254.506C37.1515 256.72 36.1739 257.623 35.0912 253.905C33.7279 249.206 35.6961 233.026 36.7175 228.634C38.3833 221.506 39.26 215.689 46.2519 201.389Z" fill="black"/>
<path fill-rule="evenodd" clip-rule="evenodd" d="M71.5324 173.387C71.642 171.681 72.8343 172.747 73.4305 173.505C76.4465 177.358 77.4635 181.545 80.2427 185.573C82.4258 188.738 86.1299 192.508 88.3349 195.66C89.8166 197.786 89.7333 199.474 87.1689 198.352C82.2153 196.177 78.6514 191.916 75.9117 187.752C73.2596 183.723 71.2124 178.226 71.5324 173.387Z" fill="black"/>
<path fill-rule="evenodd" clip-rule="evenodd" d="M91.5174 198.689C90.084 197.759 91.5876 197.019 92.5476 197.093C97.0847 197.444 102.284 197.873 107.158 197.422C110.985 197.062 119.989 197.295 122.957 198.185C124.193 198.553 124.592 199.403 123.207 200.113C118.617 202.459 112.515 202.866 107.544 203.221C102.731 203.568 95.5811 201.336 91.5174 198.689Z" fill="black"/>
<path fill-rule="evenodd" clip-rule="evenodd" d="M117.219 155.777C119.262 153.875 120.853 154.563 119.603 156.637C116.39 161.936 110.148 169.213 102.328 181.014C98.8776 186.217 89.4483 203.976 87.3223 207.18C85.937 209.267 84.5693 209.815 84.9288 205.549C85.3759 200.157 93.8101 184.24 96.6025 180.12C101.144 173.422 104.348 167.767 117.219 155.777Z" fill="black"/>
<path fill-rule="evenodd" clip-rule="evenodd" d="M683.647 231.071C684.103 229.594 682.753 230.107 682.003 230.558C678.207 232.833 675.989 236.042 672.338 238.545C669.466 240.513 665.113 242.499 662.233 244.45C660.291 245.765 659.813 247.216 662.343 247.098C667.235 246.87 671.627 244.419 675.292 241.789C678.838 239.242 682.35 235.266 683.647 231.071Z" fill="black"/>
<path fill-rule="evenodd" clip-rule="evenodd" d="M658.56 245.975C660.072 245.651 659.046 244.542 658.205 244.292C654.259 243.122 649.727 241.798 645.76 239.834C642.638 238.295 634.958 235.573 632.161 235.363C630.995 235.275 630.382 235.862 631.32 236.91C634.441 240.377 639.465 242.701 643.55 244.612C647.504 246.462 654.268 246.892 658.56 245.975Z" fill="black"/>
<path fill-rule="evenodd" clip-rule="evenodd" d="M650.748 201.389C649.639 199.123 648.07 199.189 648.456 201.341C649.451 206.86 652.37 215.035 655.154 227.538C656.381 233.052 658.595 251.113 659.353 254.506C659.849 256.72 660.826 257.623 661.909 253.905C663.272 249.206 661.304 233.026 660.283 228.634C658.617 221.506 657.74 215.689 650.748 201.389Z" fill="black"/>
<path fill-rule="evenodd" clip-rule="evenodd" d="M625.468 173.387C625.358 171.681 624.166 172.747 623.57 173.505C620.554 177.358 619.537 181.545 616.757 185.573C614.574 188.738 610.87 192.508 608.665 195.66C607.183 197.786 607.267 199.474 609.831 198.352C614.785 196.177 618.349 191.916 621.088 187.752C623.741 183.723 625.788 178.226 625.468 173.387Z" fill="black"/>
<path fill-rule="evenodd" clip-rule="evenodd" d="M605.483 198.689C606.916 197.759 605.413 197.019 604.453 197.093C599.916 197.444 594.717 197.873 589.842 197.422C586.015 197.062 577.011 197.295 574.043 198.185C572.807 198.553 572.408 199.403 573.793 200.113C578.383 202.459 584.485 202.866 589.456 203.221C594.269 203.568 601.419 201.336 605.483 198.689Z" fill="black"/>
<path fill-rule="evenodd" clip-rule="evenodd" d="M579.781 155.777C577.739 153.875 576.147 154.563 577.397 156.637C580.61 161.936 586.852 169.213 594.673 181.014C598.123 186.217 607.552 203.976 609.678 207.18C611.063 209.267 612.431 209.815 612.071 205.549C611.624 200.157 603.19 184.24 600.398 180.12C595.856 173.422 592.652 167.767 579.781 155.777Z" fill="black"/>
<path d="M47.453 339.334C50.7408 339.251 53.897 339.251 56.2291 339.514L56.3606 339.47C56.3606 339.47 56.1809 337.637 56.1458 336.243C56.1107 334.889 56.1984 333.052 56.1984 333.052L56.0625 332.973C53.5726 333.355 50.5961 333.512 47.3084 333.596L46.3001 333.622C41.9603 333.732 38.5411 335.494 38.6594 340.035C38.712 342.183 39.4046 345.655 41.3466 348.426L36.9454 348.539C33.6577 348.623 30.5409 348.539 28.165 348.281L28.0378 348.325C28.0378 348.325 28.2176 350.236 28.2526 351.63C28.2877 352.984 28.2044 354.905 28.2044 354.905L28.3359 354.979C30.8258 354.598 33.8023 354.361 37.0901 354.278L47.8256 354.006C51.1134 353.923 54.2696 354.006 56.6017 354.265L56.7332 354.221C56.7332 354.221 56.5535 352.309 56.5184 350.915C56.4833 349.561 56.5666 347.641 56.5666 347.641L56.4307 347.566C53.9408 347.948 50.9687 348.184 47.681 348.268L43.6918 348.369C42.1488 346.08 41.9559 343.849 41.9296 342.788C41.8551 339.917 43.0299 339.448 46.6201 339.356L47.453 339.334ZM62.3224 368.888C62.2215 367.573 62.9098 366.802 63.655 366.745C63.8698 366.727 64.1372 366.749 64.2249 366.74C64.8824 366.692 65.4742 365.846 65.4041 364.93C65.3252 363.86 64.6808 363.51 63.8522 363.571C61.5771 363.742 60.3278 366.398 60.5294 369.024C60.7267 371.646 62.3618 374.083 64.6369 373.908C65.4654 373.846 66.0485 373.404 65.9695 372.33C65.8994 371.413 65.1805 370.668 64.5273 370.721C64.4397 370.725 64.181 370.786 63.9618 370.8C63.2166 370.857 62.4188 370.199 62.3224 368.888ZM41.5439 373.767C41.4387 372.641 41.3203 371.391 41.2502 370.449C41.1625 369.296 41.0485 367.543 41.0134 366.293L50.8328 369.287L50.8503 369.52C47.3741 371.207 44.2486 372.593 41.5439 373.767ZM38.4753 365.552C38.6244 367.06 38.8392 369.406 38.9487 370.822C39.0452 372.102 39.1285 373.482 39.1986 374.784C33.833 377.059 30.6198 378.177 29.6817 378.489C29.8658 379.155 30.0061 381.022 30.0587 381.697C30.1113 382.377 30.2823 384.643 30.2034 385.327C34.4643 383.004 48.7374 376.398 58.0483 372.251L57.7765 368.674C47.7818 365.592 38.1772 362.405 28.2088 359.122C28.3798 359.586 28.4762 360.901 28.5113 361.34C28.542 361.774 28.6121 362.65 28.5157 363.137C31.159 363.571 34.6922 364.474 38.4753 365.552ZM56.5666 391.315C57.9913 391.061 58.5787 391.359 59.1442 394.537C59.5387 396.738 58.6269 398.276 54.857 398.951C51.7052 399.513 50.1446 398.982 49.5616 395.725L49.0136 392.661L56.5666 391.315ZM46.7253 393.069L47.3785 396.72C48.1982 401.314 44.6212 402.682 41.5482 403.23C38.5717 403.765 36.5377 403.844 35.5996 398.583C35.1087 395.835 35.5909 395.059 37.0156 394.805L46.7253 393.069ZM60.1875 387.913C59.9508 386.576 59.7272 384.591 59.7272 384.591L59.587 384.534C57.1803 385.288 54.274 385.971 51.0388 386.546L40.4655 388.435C37.2304 389.014 34.1355 389.404 31.7508 389.505L31.628 389.57C31.628 389.57 32.1103 391.508 32.3557 392.884C32.8599 395.708 32.8905 396.637 33.513 400.131C34.9114 407.942 39.786 410.068 43.499 409.406C47.6415 408.666 49.487 405.299 49.9561 401.691C51.3939 403.497 54.046 405.132 56.4176 404.707C59.3108 404.194 62.7563 401.551 61.4544 394.248C61.2089 392.876 60.6303 390.386 60.1875 387.913ZM51.7797 425.166C51.4465 424.079 51.0827 422.882 50.8284 421.974C50.5128 420.861 50.0525 419.169 49.7676 417.946L59.9859 418.919L60.0516 419.147C56.9787 421.501 54.1907 423.474 51.7797 425.166ZM47.1286 417.727C47.5801 419.173 48.2552 421.426 48.6454 422.803C48.9961 424.03 49.3511 425.367 49.6799 426.634C44.8754 429.931 41.9515 431.667 41.0967 432.162C41.408 432.776 41.9209 434.582 42.105 435.231C42.2891 435.884 42.9116 438.071 42.9685 438.759C46.6859 435.629 59.3502 426.314 67.6485 420.392L66.6665 416.938C56.2598 415.912 46.2081 414.706 35.7881 413.474C36.0468 413.9 36.4062 415.167 36.529 415.587C36.6473 416.013 36.8884 416.854 36.8928 417.35C39.5625 417.24 43.2096 417.429 47.1286 417.727ZM64.4616 470.146L74.4519 466.205C77.5117 465 80.326 464.018 82.7677 463.4L82.8597 463.277C82.8597 463.277 82.0532 461.581 81.5534 460.318C81.0405 459.021 80.4926 457.267 80.4926 457.267L80.3523 457.276C78.3095 458.424 75.4032 459.656 72.3434 460.862L62.7213 464.658C62.0286 464.934 57.9343 466.503 56.8516 466.631C56.4439 466.661 56.0932 466.499 55.8302 465.833L54.0899 461.418C53.8268 460.748 53.9715 460.393 54.2915 460.134C55.1682 459.49 59.2319 457.846 59.9245 457.574L69.551 453.778C72.6108 452.572 75.5741 451.489 77.8536 450.933L77.9588 450.845C77.9588 450.845 77.1654 449.188 76.6525 447.89C76.1571 446.628 75.5917 444.835 75.5917 444.835L75.4382 444.809C73.2333 446.023 70.5022 447.229 67.4425 448.434L57.8203 452.23C57.1277 452.502 53.0334 454.076 51.9506 454.199C51.543 454.234 51.1967 454.071 50.9293 453.401L49.2196 449.061C48.9566 448.395 49.0969 448.035 49.4213 447.781C50.298 447.136 54.3616 445.488 55.0543 445.216L64.6808 441.42C67.7362 440.215 70.7039 439.132 72.979 438.575L73.0886 438.492C73.0886 438.492 72.2952 436.835 71.7823 435.533C71.2825 434.275 70.717 432.482 70.717 432.482L70.568 432.456C68.3586 433.67 65.632 434.875 62.5722 436.081L52.5819 440.017C49.5221 441.223 46.5982 442.293 44.2793 442.862L44.1697 442.95C44.1697 442.95 44.9806 444.647 45.4935 445.944L55.2515 470.69C55.7469 471.952 56.2992 473.706 56.2992 473.706L56.4483 473.732C58.6576 472.518 61.4018 471.356 64.4616 470.146ZM88.7338 482.206C89.8341 481.574 90.5618 481.522 91.9953 484.012C93.1701 486.05 93.4769 488.084 88.953 490.684C85.1173 492.889 82.531 492.086 81.3737 490.074C80.874 489.211 80.1726 487.725 80.1813 487.124L88.7338 482.206ZM81.5403 479.812L72.2294 485.165C69.38 486.804 66.6008 488.216 64.3914 489.119L64.295 489.22C64.295 489.22 65.3646 490.815 66.0616 492.025C66.7367 493.2 67.5345 494.857 67.5345 494.857H67.6879C69.6956 493.336 72.2031 491.714 75.0525 490.074L78.2438 488.238C78.4147 489.149 78.9583 490.359 79.6553 491.569C83.2718 497.86 88.7251 497.759 92.6397 495.51C94.0205 494.717 95.8967 492.994 96.2649 490.206C96.4929 488.448 95.7696 486.357 94.3581 483.898C93.8408 482.999 91.1668 478.966 90.5706 477.932C89.8955 476.752 89.0538 475.03 89.0538 475.03L88.9004 475.025C86.8927 476.546 84.3896 478.173 81.5403 479.812ZM87.2127 510.248L91.307 507.622C92.3416 509.235 94.814 513.334 96.0414 515.815L96.2167 515.846C96.506 515.565 97.2206 515.061 97.5537 514.846C97.8869 514.636 98.6058 514.219 98.9828 514.07L99.031 513.899C97.5757 512.036 96.0984 510.143 93.5602 506.18L96.2518 504.453C96.8787 504.049 100.258 501.932 101.297 501.599C104.182 506.097 107.009 511.484 107.009 511.484L107.202 511.458C107.474 511.234 108.338 510.634 108.671 510.419C108.964 510.23 109.46 509.945 110.003 509.66L110.073 509.52C109.653 509.034 109.122 508.284 108.671 507.578L102.126 497.369C101.394 496.229 100.429 494.48 100.429 494.48L100.276 494.484C98.3428 496.102 95.923 497.842 93.1525 499.618L84.1135 505.413C81.343 507.188 78.6383 508.736 76.4728 509.744L76.3851 509.849C76.3851 509.849 77.5687 511.453 78.3227 512.628L85.0823 523.171C85.5338 523.877 85.9897 524.674 86.2615 525.257L86.4149 525.253C86.8708 524.894 87.3311 524.574 87.7037 524.337C88.0719 524.1 89.4571 523.259 89.7728 523.101L89.878 522.939C89.878 522.939 85.582 518.02 82.6975 513.522C83.434 512.72 86.5858 510.651 87.2127 510.248ZM120.467 521.808C118.227 518.954 115.277 516.986 112.05 516.35C107.982 515.548 103.345 516.902 99.5527 519.883C95.9362 522.728 93.4331 526.923 93.5515 530.838C93.6435 533.81 94.5159 536.177 96.6069 538.834C98.8031 541.63 102.231 544.002 107.299 544.283L107.877 542.608C103.546 542.205 101.609 540.942 99.316 538.027C96.6288 534.608 98.3603 529.089 104.226 524.477C111.222 518.98 116.377 520.506 118.398 523.079C120.616 525.902 120.476 528.699 118.661 532.206L119.433 533.122C121.278 531.85 122.422 531.189 124.408 530.229L124.461 530.084C124.461 530.084 123.474 525.634 120.467 521.808ZM142.556 547.448L130.225 534.516C129.291 533.534 128.064 532.061 128.064 532.061L127.941 532.122C126.451 533.985 124.25 536.19 121.874 538.461L114.098 545.869C111.722 548.14 109.482 550.108 107.452 551.603L107.413 551.752C107.413 551.752 108.828 553.045 109.762 554.027C110.727 555.04 111.871 556.43 111.871 556.43L111.993 556.364C113.453 554.531 115.685 552.296 118.06 550.029L125.837 542.617C126.376 542.104 129.134 539.531 130.085 539.005C130.563 538.934 130.799 538.93 131.211 539.364L137.432 545.887C137.844 546.321 137.831 546.558 137.739 547.031C137.169 547.956 134.468 550.591 133.925 551.103L126.153 558.512C123.772 560.783 121.436 562.904 119.533 564.276L119.468 564.395C119.468 564.395 121.129 565.951 122.093 566.959C123.027 567.941 123.926 569.072 123.926 569.072L124.075 569.037C125.662 567.082 127.735 564.938 130.115 562.672L137.892 555.259C140.268 552.988 142.578 550.902 144.511 549.499L144.577 549.381C144.577 549.381 143.494 548.429 142.556 547.448ZM136.625 575.696C135.63 576.195 134.039 576.507 133.337 575.897C132.316 575.016 132.662 572.636 133.053 571.672L132.106 570.957C131.163 571.803 128.353 573.438 127.45 573.653L127.376 573.771C127.472 574.639 129.129 576.586 130.085 577.41C131.54 578.672 133.351 579.382 135.678 579.185C137.66 579.019 138.87 578.475 141.311 577.221L163.05 566.074C162.598 565.859 161.936 565.285 161.608 565C161.274 564.71 159.797 563.43 159.521 563.018C155.935 565.565 149.342 569.708 143.56 572.798C146.993 563.15 148.479 560.296 150.99 555.627C150.39 555.285 148.794 553.9 148.281 553.457C147.768 553.015 145.778 551.292 145.353 550.748C144.27 554.361 139.913 567.2 136.625 575.696ZM161.419 582.959L163.773 584.805C168.319 588.382 166.557 591.398 164.93 593.467C163.251 595.602 160.919 597.732 156.154 593.984C154.432 592.63 154.567 591.679 155.462 590.543L161.419 582.959ZM160.271 575.196L153.634 583.639C151.6 586.225 149.614 588.623 147.9 590.289L147.852 590.416C147.852 590.416 149.5 591.543 150.57 592.38C151.477 593.094 155.251 596.229 156.382 597.119C160.174 600.1 165.325 603.032 170.094 596.965C172.505 593.901 174.197 589.877 167.42 584.551L162.94 581.026L164.755 578.72C165.215 578.133 167.517 575.205 168.385 574.547C172.589 577.852 177.774 583.709 177.774 583.709L177.945 583.621C178.287 583.056 179.887 581.022 180.707 580.106L180.725 579.952C180.168 579.628 179.423 579.097 178.761 578.58L168.038 570.15C166.973 569.313 165.518 568.002 165.518 568.002L165.373 568.055C164.08 570.216 162.3 572.61 160.271 575.196ZM188.896 589.324L194.235 592.744C193.976 593.515 193.06 595.168 191.451 597.68L185.893 606.351C183.784 609.634 182.101 612.045 180.826 613.518L180.786 613.649C181.908 614.263 182.873 614.829 183.644 615.324C184.416 615.819 185.266 616.415 186.226 617.134L186.366 617.069C187.362 615 188.808 612.439 190.728 609.45L196.523 600.406C198.628 597.123 200.289 594.751 201.591 593.244L201.626 593.112C200.473 592.472 199.544 591.928 198.772 591.433L188.563 584.893C187.813 584.41 187.191 583.95 186.586 583.468L186.423 583.573C185.586 585.327 184.845 586.624 183.828 588.211C180.755 593.007 177.542 597.351 175.214 599.508C172.795 601.805 169.998 603.137 168.174 602.804L166.785 604.308C167.03 604.882 169.928 607.311 170.533 607.696C171.37 608.236 172.001 608.433 173.851 607.17C177.231 604.86 181.194 599.122 187.226 589.71C187.581 589.158 188.326 588.956 188.896 589.324ZM201.999 603.032L197.102 612.593C195.603 615.521 194.042 618.217 192.679 620.177L192.657 620.313C192.657 620.313 194.419 621.071 195.66 621.707C196.87 622.325 198.514 623.315 198.514 623.315L198.645 623.232C199.136 621.842 199.763 620.348 200.486 618.761L217.113 609.923C216.995 610.147 216.881 610.37 216.767 610.598L211.871 620.155C210.371 623.083 208.811 625.779 207.447 627.743L207.421 627.874C207.421 627.874 209.188 628.633 210.428 629.268C211.634 629.886 213.278 630.877 213.278 630.877L213.409 630.794C214.264 628.427 215.483 625.7 216.982 622.776L221.878 613.215C223.378 610.287 224.956 607.552 226.301 605.632L226.323 605.496C226.323 605.496 224.561 604.737 223.316 604.102C222.111 603.484 220.467 602.493 220.467 602.493L220.335 602.576C219.844 603.948 219.226 605.448 218.503 607.03L201.88 615.863C201.99 615.648 202.104 615.425 202.213 615.21L207.11 605.654C208.609 602.725 210.192 599.99 211.533 598.066L211.559 597.93C211.559 597.93 209.793 597.176 208.552 596.54C207.342 595.922 205.698 594.931 205.698 594.931L205.567 595.015C204.712 597.382 203.498 600.108 201.999 603.032ZM226.573 615.508L222.632 625.498C221.427 628.558 220.138 631.394 218.972 633.481L218.963 633.617C218.963 633.617 220.791 634.196 222.089 634.708C223.351 635.208 225.083 636.032 225.083 636.032L225.206 635.936C225.824 633.494 226.771 630.662 227.976 627.607L229.769 623.057C233.346 624.893 233.622 627.607 233.71 631.329C233.771 633.897 233.837 635.901 234.306 639.715C235.156 639.956 235.928 640.166 236.857 640.53C237.708 640.867 240.312 641.99 240.763 642.261L240.938 642.139C239.4 637.343 240.132 633.529 239.255 629.886C238.563 627.068 237.936 625.078 235.569 623.578C235.358 623.447 235.249 623.302 235.275 623.228C239.071 621.001 247.15 617.682 251.652 615.832C251.012 615.718 248.785 614.842 248.228 614.623C247.746 614.434 245.594 613.584 245.16 613.272C240.829 615.977 236.621 618.48 232.631 620.348C231.755 620.755 231.115 621.005 230.567 621.031L231.917 617.617C233.122 614.557 234.429 611.677 235.577 609.634L235.59 609.498C235.59 609.498 233.758 608.915 232.461 608.407C231.198 607.907 229.466 607.083 229.466 607.083L229.344 607.175C228.726 609.616 227.779 612.448 226.573 615.508ZM250.508 625.064L247.575 635.397C246.677 638.557 245.673 641.507 244.717 643.699L244.722 643.835C244.722 643.835 246.598 644.234 247.944 644.611C249.245 644.984 251.052 645.632 251.052 645.632L251.166 645.527C251.38 644.072 251.696 642.481 252.099 640.78L266.675 628.865C266.605 629.11 266.539 629.352 266.469 629.597L263.536 639.929C262.638 643.09 261.634 646.04 260.678 648.232L260.682 648.368C260.682 648.368 262.559 648.762 263.9 649.144C265.206 649.516 267.012 650.165 267.012 650.165L267.122 650.06C267.499 647.57 268.161 644.659 269.06 641.494L271.992 631.166C272.891 628.001 273.908 625.007 274.85 622.864L274.846 622.724C274.846 622.724 272.97 622.329 271.624 621.948C270.322 621.575 268.516 620.926 268.516 620.926L268.402 621.031C268.187 622.474 267.876 624.065 267.477 625.757L252.901 637.667C252.967 637.435 253.033 637.194 253.099 636.966L256.031 626.634C256.93 623.469 257.947 620.479 258.89 618.331L258.885 618.191C258.885 618.191 257.009 617.796 255.668 617.415C254.361 617.042 252.555 616.394 252.555 616.394L252.441 616.499C252.069 618.989 251.407 621.899 250.508 625.064ZM329.247 640.64C329.326 637.356 329.488 634.2 329.865 631.885L329.83 631.754C329.83 631.754 327.993 631.842 326.595 631.806C325.24 631.771 323.408 631.592 323.408 631.592L323.325 631.723C323.583 634.226 323.588 637.211 323.504 640.495L323.478 641.503C323.369 645.843 324.955 649.345 329.501 649.464C331.649 649.516 335.152 648.999 338.014 647.202L337.905 651.603C337.821 654.891 337.585 657.999 337.203 660.357L337.238 660.489C337.238 660.489 339.158 660.405 340.552 660.44C341.907 660.475 343.818 660.655 343.818 660.655L343.902 660.524C343.647 658.021 343.564 655.035 343.643 651.748L343.915 641.012C343.998 637.724 344.239 634.573 344.616 632.258L344.581 632.126C344.581 632.126 342.665 632.21 341.267 632.175C339.912 632.14 338.001 631.96 338.001 631.96L337.918 632.091C338.172 634.599 338.26 637.58 338.177 640.867L338.076 644.857C335.713 646.277 333.473 646.36 332.412 646.334C329.541 646.264 329.133 645.067 329.225 641.472L329.247 640.64ZM357.175 656.692C356.776 657.731 355.812 659.038 354.883 659.06C353.537 659.095 352.187 657.104 351.823 656.127L350.644 656.236C350.517 657.495 349.543 660.598 349.017 661.365L349.048 661.501C349.701 662.076 352.235 662.4 353.497 662.369C355.426 662.321 357.241 661.624 358.828 659.91C360.182 658.45 360.709 657.24 361.669 654.663L370.225 631.785C369.748 631.929 368.871 631.951 368.432 631.96C367.994 631.973 366.043 632.021 365.561 631.903C364.623 636.203 362.541 643.699 360.349 649.88C356.386 640.438 355.562 637.33 354.278 632.188C353.603 632.337 351.49 632.389 350.81 632.407C350.135 632.424 347.501 632.49 346.821 632.376C348.456 635.778 353.883 648.201 357.175 656.692ZM378.681 635.199C378.497 633.766 378.826 633.192 382.031 632.784C384.249 632.503 385.739 633.494 386.221 637.29C386.625 640.464 386.02 642.003 382.732 642.419L379.646 642.809L378.681 635.199ZM379.94 645.115L383.622 644.646C388.251 644.059 389.435 647.702 389.829 650.796C390.21 653.799 390.189 655.833 384.884 656.508C382.118 656.859 381.369 656.337 381.185 654.899L379.94 645.115ZM375.464 631.412C374.118 631.583 372.124 631.706 372.124 631.706L372.062 631.846C372.693 634.283 373.228 637.22 373.645 640.482L374.999 651.134C375.411 654.395 375.644 657.503 375.626 659.893L375.683 660.02C375.683 660.02 377.647 659.638 379.028 659.458C381.877 659.099 382.806 659.112 386.327 658.665C394.2 657.666 396.567 652.901 396.093 649.161C395.563 644.988 392.293 642.972 388.711 642.323C390.592 640.977 392.354 638.413 392.052 636.019C391.683 633.104 389.215 629.531 381.86 630.465C380.474 630.645 377.958 631.096 375.464 631.412ZM412.585 642.09C411.471 642.314 410.244 642.555 409.314 642.717C408.175 642.923 406.443 643.208 405.198 643.375L407.188 633.301L407.425 633.262C409.455 636.55 411.142 639.522 412.585 642.09ZM404.716 645.974C406.202 645.672 408.512 645.225 409.919 644.971C411.177 644.747 412.541 644.528 413.834 644.326C416.639 649.433 418.073 652.519 418.476 653.418C419.121 653.168 420.966 652.839 421.632 652.721C422.303 652.602 424.539 652.204 425.231 652.212C422.487 648.206 414.483 634.673 409.415 625.823L405.882 626.454C403.826 636.707 401.621 646.588 399.355 656.833C399.806 656.618 401.099 656.39 401.533 656.311C401.963 656.232 402.827 656.079 403.322 656.123C403.48 653.453 404.032 649.845 404.716 645.974ZM457.863 632.021L454.422 621.847C453.37 618.734 452.528 615.872 452.029 613.404L451.91 613.303C451.91 613.303 450.179 614.026 448.894 614.465C447.57 614.912 445.791 615.372 445.791 615.372L445.795 615.512C446.843 617.608 447.93 620.576 448.982 623.688L452.3 633.49C452.537 634.196 453.905 638.36 453.975 639.447C453.988 639.859 453.808 640.197 453.129 640.425L448.636 641.946C447.956 642.178 447.606 642.016 447.364 641.683C446.764 640.775 445.322 636.637 445.085 635.927L441.767 626.13C440.714 623.017 439.776 620.001 439.334 617.695L439.255 617.586C439.255 617.586 437.558 618.296 436.239 618.743C434.954 619.182 433.135 619.655 433.135 619.655L433.1 619.804C434.205 622.07 435.274 624.854 436.326 627.971L439.64 637.768C439.882 638.474 441.249 642.643 441.319 643.726C441.333 644.138 441.153 644.48 440.473 644.708L436.055 646.202C435.375 646.435 435.024 646.272 434.788 645.939C434.183 645.032 432.741 640.894 432.504 640.184L429.185 630.386C428.133 627.274 427.195 624.258 426.753 621.952L426.674 621.842C426.674 621.842 424.977 622.553 423.658 623C422.373 623.438 420.554 623.912 420.554 623.912L420.519 624.06C421.624 626.327 422.693 629.11 423.745 632.227L427.191 642.402C428.243 645.514 429.164 648.486 429.619 650.831L429.703 650.945C429.703 650.945 431.434 650.218 432.758 649.771L457.955 641.244C459.24 640.81 461.02 640.346 461.02 640.346L461.055 640.197C459.95 637.935 458.924 635.134 457.863 632.021ZM467.876 606.223C464.57 607.718 461.953 610.112 460.564 613.088C458.815 616.849 459.021 621.676 461.006 626.073C462.9 630.268 466.381 633.696 470.208 634.516C473.114 635.142 475.621 634.857 478.703 633.463C481.943 631.999 485.068 629.242 486.55 624.385L485.064 623.421C483.635 627.532 481.943 629.115 478.567 630.64C474.604 632.433 469.66 629.43 466.587 622.636C462.922 614.526 465.636 609.884 468.616 608.538C471.887 607.056 474.569 607.863 477.541 610.467L478.615 609.932C477.822 607.837 477.449 606.57 476.994 604.413L476.866 604.325C476.866 604.325 472.312 604.22 467.876 606.223ZM483.968 609.152L489.325 618.463C490.96 621.312 492.376 624.091 493.279 626.301L493.38 626.397C493.38 626.397 494.971 625.327 496.181 624.63C497.36 623.955 499.083 623.114 499.083 623.114L499.087 622.96C497.566 620.953 495.94 618.449 494.3 615.6L491.863 611.361C495.532 609.708 497.825 611.19 500.788 613.439C502.831 614.991 504.44 616.192 507.714 618.204C508.429 617.691 509.077 617.218 509.941 616.718C510.739 616.262 513.238 614.925 513.729 614.745L513.746 614.531C509.034 612.742 506.513 609.792 503.116 608.205C500.481 606.986 498.535 606.237 495.887 607.153C495.655 607.236 495.471 607.232 495.431 607.162C496.054 602.809 498.504 594.423 499.863 589.745C499.376 590.179 497.303 591.372 496.781 591.67C496.334 591.928 494.326 593.081 493.814 593.226C493.226 598.298 492.555 603.151 491.53 607.433C491.302 608.371 491.1 609.029 490.78 609.476L488.948 606.289C487.308 603.44 485.875 600.621 484.994 598.451L484.893 598.355C484.893 598.355 483.297 599.424 482.087 600.121C480.913 600.797 479.185 601.634 479.185 601.634V601.787C480.706 603.795 482.328 606.302 483.968 609.152ZM521.838 595.317C520.891 595.948 519.852 596.641 519.059 597.149C518.081 597.776 516.595 598.701 515.504 599.332L513.483 589.268L513.685 589.14C516.823 591.398 519.519 593.498 521.838 595.317ZM516.056 601.919C517.314 601.073 519.274 599.771 520.479 598.999C521.553 598.311 522.728 597.583 523.846 596.899C528.396 600.547 530.904 602.844 531.618 603.519C532.118 603.045 533.696 602.033 534.27 601.664C534.84 601.301 536.756 600.073 537.396 599.819C533.328 597.167 520.742 587.738 512.676 581.504L509.656 583.442C511.681 593.704 513.43 603.672 515.267 614.004C515.6 613.632 516.709 612.922 517.078 612.685C517.446 612.448 518.187 611.975 518.66 611.83C517.783 609.301 516.907 605.759 516.056 601.919ZM533.047 569.383C534.994 567.853 535.752 568.371 536.537 569.37L541.99 576.305L540.92 577.142C537.878 579.531 536.3 580.496 532.911 576.182C529.716 572.114 531.136 570.887 533.047 569.383ZM537.391 582.157C537.694 586.62 539.105 595.001 539.07 598.215L539.211 598.267C539.759 597.671 541.42 596.369 542.047 595.874C542.643 595.405 543.897 594.418 544.576 594.054C543.998 592.612 543.401 589.013 543.02 585.3C542.827 583.301 542.384 581.031 542.336 579.137C542.735 578.83 543.134 578.528 543.507 578.234L546.102 581.539C548.131 584.125 549.911 586.515 551.204 588.68L551.349 588.733C551.349 588.733 552.708 587.497 553.778 586.659C554.873 585.796 556.399 584.766 556.399 584.766L556.346 584.638C554.632 582.973 552.585 580.623 550.551 578.041L543.919 569.594C541.885 567.012 540.171 564.566 538.877 562.405L538.733 562.352C538.733 562.352 537.247 563.689 536.182 564.526C535.239 565.263 531.881 567.511 531.097 568.13C529.027 569.756 527.037 571.544 526.406 573.71C525.823 575.617 526.261 577.725 528.024 579.965C530.86 583.573 534.226 583.512 537.391 582.157ZM555.737 551.073C554.86 550.152 554.637 549.455 556.719 547.474C558.42 545.852 560.318 545.067 563.921 548.846C566.972 552.05 566.806 554.755 565.127 556.355C564.408 557.043 563.132 558.073 562.545 558.209L555.737 551.073ZM555.119 558.63L562.532 566.402C564.798 568.783 566.832 571.146 568.235 573.079L568.353 573.144C568.353 573.144 569.646 571.729 570.659 570.769C571.641 569.83 573.057 568.66 573.057 568.66L573.026 568.511C571.071 566.92 568.897 564.873 566.63 562.492L564.088 559.831C564.934 559.446 565.977 558.635 566.99 557.67C572.241 552.66 570.847 547.386 567.735 544.12C566.635 542.967 564.517 541.552 561.721 541.858C559.958 542.051 558.1 543.248 556.044 545.207C555.294 545.922 552.011 549.477 551.147 550.301C550.165 551.239 548.688 552.462 548.688 552.462L548.723 552.616C550.678 554.203 552.848 556.25 555.119 558.63ZM582.604 545.677L578.927 542.49C580.18 541.043 583.411 537.51 585.445 535.629L585.423 535.454C585.077 535.257 584.384 534.713 584.086 534.454C583.788 534.196 583.187 533.621 582.942 533.301L582.762 533.306C581.386 535.23 579.987 537.181 576.906 540.736L574.486 538.641C573.925 538.154 570.935 535.511 570.321 534.612C573.82 530.575 578.186 526.336 578.186 526.336L578.107 526.161C577.813 525.963 576.993 525.301 576.695 525.043C576.432 524.815 576.016 524.42 575.591 523.977L575.437 523.956C575.086 524.495 574.517 525.214 573.969 525.849L566.03 535.011C565.144 536.037 563.737 537.457 563.737 537.457L563.785 537.606C565.885 539 568.239 540.833 570.725 542.985L578.843 550.016C581.329 552.169 583.578 554.325 585.156 556.118L585.283 556.171C585.283 556.171 586.488 554.58 587.404 553.523L595.602 544.059C596.15 543.428 596.785 542.761 597.268 542.336L597.219 542.192C596.746 541.858 596.308 541.503 595.975 541.218C595.646 540.929 594.445 539.837 594.208 539.579L594.019 539.522C594.019 539.522 590.521 545.037 587.019 549.078C586.046 548.6 583.165 546.163 582.604 545.677ZM585.138 510.94C583.034 513.899 581.982 517.288 582.28 520.558C582.661 524.688 585.274 528.756 589.206 531.548C592.954 534.218 597.688 535.428 601.406 534.209C604.233 533.284 606.259 531.776 608.218 529.019C610.278 526.121 611.585 522.163 610.419 517.222L608.648 517.139C609.489 521.409 608.823 523.627 606.675 526.647C604.154 530.193 598.372 530.093 592.292 525.77C585.042 520.611 585.046 515.232 586.94 512.567C589.022 509.643 591.749 508.985 595.624 509.739L596.281 508.736C594.541 507.328 593.585 506.417 592.099 504.786L591.946 504.773C591.946 504.773 587.961 506.978 585.138 510.94ZM603.523 482.719L594.616 498.21C593.941 499.385 592.871 500.981 592.871 500.981L592.967 501.077C595.177 501.985 597.917 503.466 600.766 505.106L610.077 510.458C612.926 512.098 615.451 513.685 617.459 515.206H617.612C617.612 515.206 618.449 513.479 619.129 512.304C619.822 511.094 620.83 509.603 620.83 509.603L620.738 509.503C618.563 508.622 615.789 507.118 612.939 505.478L603.628 500.126C602.98 499.753 599.731 497.838 598.96 497.075C598.758 496.637 598.684 496.409 598.982 495.891L603.475 488.075C603.773 487.558 604.005 487.506 604.488 487.462C605.54 487.742 608.827 489.588 609.472 489.96L618.783 495.313C621.632 496.952 624.328 498.596 626.182 500.03L626.318 500.06C626.318 500.06 627.34 498.026 628.032 496.816C628.707 495.637 629.54 494.458 629.54 494.458L629.466 494.326C627.138 493.358 624.495 491.972 621.645 490.333L612.334 484.981C609.485 483.341 606.824 481.723 604.935 480.264L604.799 480.233C604.799 480.233 604.198 481.544 603.523 482.719ZM632.696 480.159C633.42 481.005 634.104 482.477 633.678 483.306C633.065 484.503 630.671 484.735 629.641 484.586L629.172 485.678C630.22 486.392 632.477 488.729 632.898 489.557L633.034 489.597C633.854 489.298 635.348 487.229 635.923 486.103C636.804 484.389 637.058 482.46 636.313 480.246C635.677 478.361 634.866 477.318 633.065 475.244L617.06 456.785C616.959 457.271 616.56 458.052 616.363 458.442C616.161 458.836 615.271 460.572 614.934 460.941C618.265 463.816 623.854 469.234 628.234 474.113C618.042 473.079 614.921 472.312 609.792 470.984C609.599 471.65 608.635 473.53 608.323 474.135C608.016 474.736 606.815 477.081 606.39 477.625C610.16 477.813 623.666 478.988 632.696 480.159ZM632.604 454.957L633.7 452.173C635.822 446.795 639.219 447.619 641.665 448.583C644.195 449.578 646.899 451.205 644.677 456.842C643.87 458.885 642.919 459.025 641.573 458.495L632.604 454.957ZM625.494 458.284L635.484 462.221C638.544 463.431 641.411 464.645 643.498 465.811L643.634 465.82C643.634 465.82 644.243 463.917 644.738 462.655C645.163 461.581 647.083 457.065 647.614 455.728C649.38 451.24 650.717 445.462 643.541 442.634C639.912 441.201 635.572 440.736 632.411 448.75L630.32 454.054L627.585 452.976C626.892 452.704 623.425 451.336 622.553 450.692C624.512 445.721 628.637 439.075 628.637 439.075L628.506 438.935C627.866 438.768 625.459 437.821 624.345 437.295L624.192 437.322C624.043 437.944 623.745 438.816 623.438 439.597L618.436 452.283C617.937 453.545 617.099 455.316 617.099 455.316L617.191 455.439C619.633 456.057 622.434 457.079 625.494 458.284ZM631.522 426.972L633.253 420.87C634.068 420.892 635.914 421.295 638.781 422.106L648.692 424.92C652.445 425.985 655.237 426.906 657.017 427.699H657.153C657.416 426.446 657.679 425.359 657.933 424.477C658.183 423.596 658.507 422.61 658.919 421.483L658.814 421.369C656.543 421.014 653.676 420.366 650.262 419.397L639.929 416.464C636.177 415.399 633.424 414.491 631.605 413.685H631.465C631.188 414.978 630.938 416.026 630.689 416.907L627.375 428.572C627.133 429.427 626.87 430.154 626.585 430.873L626.73 431C628.655 431.294 630.11 431.627 631.92 432.14C637.404 433.696 642.494 435.515 645.225 437.12C648.127 438.777 650.213 441.065 650.419 442.906L652.261 443.805C652.738 443.402 654.229 439.925 654.422 439.237C654.694 438.277 654.702 437.615 652.958 436.208C649.771 433.644 643.129 431.509 632.376 428.458C631.741 428.278 631.337 427.62 631.522 426.972ZM641.665 410.853L652.239 412.742C655.474 413.321 658.512 414.022 660.787 414.754L660.923 414.737C660.923 414.737 661.129 412.83 661.374 411.454C661.611 410.121 662.076 408.258 662.076 408.258L661.962 408.157C660.489 408.091 658.88 407.929 657.144 407.701L643.835 394.388C644.085 394.432 644.331 394.476 644.58 394.52L655.154 396.409C658.393 396.988 661.427 397.689 663.702 398.421L663.838 398.403C663.838 398.403 664.044 396.497 664.289 395.125C664.53 393.787 664.995 391.929 664.995 391.929L664.881 391.824C662.365 391.701 659.401 391.333 656.166 390.754L645.593 388.865C642.353 388.29 639.276 387.576 637.045 386.853L636.909 386.87C636.909 386.87 636.703 388.777 636.457 390.153C636.216 391.486 635.752 393.349 635.752 393.349L635.866 393.45C637.325 393.52 638.939 393.674 640.661 393.901L653.966 407.215C653.729 407.175 653.484 407.131 653.247 407.087L642.674 405.198C639.438 404.619 636.361 403.909 634.13 403.186L633.994 403.204C633.994 403.204 633.784 405.11 633.538 406.487C633.301 407.82 632.837 409.683 632.837 409.683L632.951 409.783C635.467 409.906 638.43 410.274 641.665 410.853ZM646.755 382.425L657.411 383.78C660.673 384.192 663.741 384.744 666.047 385.358L666.183 385.336C666.183 385.336 666.293 383.42 666.472 382.035C666.639 380.689 667.012 378.809 667.012 378.809L666.893 378.712C664.373 378.712 661.396 378.497 658.135 378.081L653.286 377.467C654.181 373.544 656.745 372.61 660.326 371.606C662.803 370.914 664.728 370.357 668.309 368.963C668.331 368.082 668.344 367.28 668.471 366.289C668.585 365.377 669.032 362.58 669.186 362.076L669.024 361.936C664.754 364.61 660.879 364.842 657.565 366.591C655.005 367.955 653.229 369.055 652.361 371.72C652.287 371.953 652.173 372.097 652.09 372.088C648.999 368.959 643.791 361.945 640.885 358.039C640.933 358.688 640.635 361.064 640.556 361.655C640.495 362.168 640.201 364.465 640.004 364.961C643.695 368.494 647.158 371.957 649.95 375.359C650.564 376.108 650.963 376.669 651.125 377.191L647.482 376.726C644.217 376.314 641.109 375.758 638.842 375.148L638.706 375.17C638.706 375.17 638.597 377.086 638.421 378.471C638.25 379.817 637.878 381.697 637.878 381.697L638.001 381.794C640.517 381.794 643.493 382.009 646.755 382.425ZM656.916 344.235C656.907 345.37 656.898 346.619 656.877 347.566C656.846 348.724 656.78 350.473 656.688 351.731L647.224 347.759L647.228 347.522C650.858 346.19 654.11 345.133 656.916 344.235ZM659.143 352.721C659.143 351.205 659.165 348.855 659.204 347.426C659.235 346.15 659.292 344.765 659.353 343.459C664.921 341.736 668.23 340.951 669.195 340.737C669.081 340.053 669.129 338.181 669.146 337.501C669.164 336.826 669.221 334.551 669.366 333.876C664.89 335.761 650.029 340.89 640.346 344.077L640.254 347.663C649.885 351.735 659.121 355.882 668.704 360.152C668.585 359.67 668.616 358.354 668.629 357.916C668.638 357.478 668.66 356.601 668.804 356.123C666.222 355.435 662.794 354.172 659.143 352.721Z" fill="#FFDF00"/>
</svg>
