<svg id="id-svg" width="684" height="711" viewBox="0 0 684 711" fill="none" xmlns="http://www.w3.org/2000/svg">
<g clip-path="url(#clip0_806_92511)">
<path d="M405.954 574.332C377.454 573.078 359.67 600.096 306.546 580.374C298.794 577.41 288.762 573.876 278.16 574.332L275.88 571.14L269.04 575.814L271.662 579.576L264.252 570.684L263.796 564.642L259.578 564.984L258.438 563.73L256.956 564.984C254.79 562.932 252.51 561.564 250.23 560.652L249.432 552.672L241.11 553.47L241.452 557.232C237.576 561.336 240.198 559.284 235.638 560.652L230.394 541.158L222.3 543.324L227.088 560.88L224.238 558.6L214.092 530.442L206.226 533.292L211.584 547.998L210.558 547.086L197.79 519.726L190.266 523.146L192.204 527.364L181.944 509.352L176.358 512.658C176.016 512.43 175.674 512.316 175.218 512.316L166.668 499.89L159.828 504.564L164.274 510.948C161.652 510.948 158.916 511.062 155.838 511.29L161.082 497.04L160.968 494.418L156.522 484.842L166.554 457.482L158.802 454.632L151.62 474.354L148.77 467.97L158.688 440.496L150.936 437.646L143.754 457.368L141.018 451.554L146.262 422.028L138.168 420.66L134.976 438.558L133.494 435.252L136.116 405.384L127.794 404.586L126.426 420.204L125.856 419.064V388.74H117.648V393.186L115.824 372.78L108.642 373.464L105.906 357.618L104.424 357.504C105.564 355.68 106.818 353.628 107.958 351.576C111.492 345.42 115.026 338.694 118.104 332.082L136.572 323.874L133.152 316.35L122.892 321.024L126.54 312.246L140.79 302.1L136.116 295.26L131.442 298.452L133.722 292.752L145.464 283.062L140.106 276.678L142.044 271.89L150.024 264.138L144.096 258.21L140.79 261.402L154.128 245.67L148.77 240.996L157.776 228L151.164 223.212L151.506 222.528H151.392L158.004 204.402L150.252 201.552L142.728 222.072L141.132 208.05L145.806 195.282L157.548 197.334L159.03 189.24L148.656 187.416L150.708 181.83H173.622V173.622H155.382L158.346 171.57L188.214 168.948L187.53 160.626L171.912 161.994L173.052 161.31L202.92 156.066L201.438 147.858L196.878 148.656L216.828 143.298L215.004 136.458L216.942 135.774L233.13 143.298L236.55 135.774L228 131.784L230.052 130.986L228.228 125.97L252.51 132.468L254.676 124.488L237.12 119.814L240.54 118.56L270.066 123.804L271.548 115.71L256.044 112.86L257.298 112.518L287.508 115.14L288.192 106.818L283.974 106.362C288.306 106.362 299.934 106.362 304.266 106.362V99.4081L320.226 98.0401L319.542 89.8321L338.352 82.9921L335.502 75.1261L314.184 82.9921L324.558 71.9341L342 65.6641L359.442 71.9341L369.816 82.9921L348.612 75.1261L345.762 82.9921L364.002 89.4901H363.888L364.572 89.8321L363.888 98.0401L379.848 99.4081V106.362C384.18 106.362 395.808 106.362 400.14 106.362L395.808 106.818L396.606 115.14L426.816 112.518L427.956 112.86L412.566 115.71L414.048 123.804L443.574 118.56L446.88 119.814L429.438 124.488L431.376 132.468L455.886 125.97L454.062 130.986L456.114 131.784L447.564 135.774L450.984 143.298L467.058 135.774L468.996 136.458L467.172 143.298L487.236 148.656L482.562 147.858L481.194 156.066L511.062 161.31L512.088 161.994L496.47 160.626L495.786 168.948L525.768 171.57L528.618 173.622H510.492V181.83H533.406L535.458 187.416L525.084 189.24L526.566 197.334L538.308 195.282L542.982 208.05L541.386 222.072L533.862 201.552L526.11 204.402L532.836 223.212L526.224 228L535.344 240.996L529.872 245.67L543.21 261.402L540.018 258.21L534.09 264.138L541.956 271.89L544.008 276.678L538.65 283.062L550.278 292.752L552.672 298.452L547.998 295.26L543.324 302.1L557.574 312.246L561.222 321.024L550.962 316.35L547.428 323.874L566.01 332.082C569.088 338.694 572.622 345.42 576.156 351.576C577.296 353.628 578.436 355.68 579.69 357.504L578.208 357.618L575.358 373.464L568.29 372.78L566.466 393.186V388.74H558.258V419.064L557.688 420.204L556.32 404.586L547.998 405.384L550.62 435.252L549.138 438.558L545.946 420.66L537.852 422.028L543.096 451.554L540.36 457.368L533.064 437.646L525.426 440.496L535.344 467.97L532.38 474.354L525.312 454.632L517.446 457.482L527.592 484.842L523.146 494.418L523.032 497.04L528.162 511.29C525.198 511.062 522.462 510.948 519.84 510.948L524.286 504.564L517.446 499.89L508.782 512.316C508.44 512.316 508.098 512.43 507.642 512.658L502.17 509.352L491.796 527.364L493.848 523.146L486.21 519.726L473.442 547.086L472.416 547.998L477.888 533.292L470.022 530.442L459.762 558.6L457.026 560.88L461.814 543.324L453.72 541.158L448.476 560.652C443.916 559.284 446.652 561.45 442.548 557.232L442.89 553.47L434.568 552.672L433.884 560.652C431.49 561.564 429.324 562.932 427.044 564.984L425.562 563.73L424.536 564.984L420.318 564.642L419.862 570.684L412.338 579.576L415.074 575.814L408.12 571.14L405.954 574.332ZM389.082 8.63382e-05H387.372L382.698 5.47209L371.07 8.63382e-05H363.204L361.152 4.44609L380.874 13.6801L366.624 14.0221L345.876 4.33209L344.508 1.36809L342 2.50809L339.606 1.36809L338.238 4.33209L317.376 14.0221L303.126 13.6801L322.962 4.44609L320.91 8.63382e-05H313.044L301.302 5.47209L296.742 8.63382e-05C294.462 8.63382e-05 295.374 -0.341914 293.436 1.36809L283.86 9.46209L278.844 4.44609L264.252 19.0381L267.216 15.5041L260.832 10.2601L241.338 33.2881L240.084 33.8581L249.204 21.0901L242.364 16.3021L231.306 32.1481L229.824 32.9461L228.456 31.4641L228 31.8061L230.964 26.7901L223.782 22.5721L214.548 38.7601C210.9 39.9001 208.05 41.3821 205.884 43.0921C206.682 41.0401 206.112 41.8381 208.506 40.0141L207.48 38.7601L210.216 31.4641L202.464 28.7281L199.5 36.7081L187.758 46.6261L181.146 41.8381L171.912 54.9481L165.87 51.3001L156.522 67.2601C155.04 69.3121 150.024 73.7581 147.858 75.2401C146.034 76.4941 143.982 77.6341 141.93 78.7741C132.354 84.2461 128.592 89.8321 127.908 96.7861L124.716 99.4081C126.084 96.2161 127.338 92.9101 128.592 89.6041C133.95 75.1261 139.08 59.7361 144.552 42.2941L147.972 26.2201L138.396 39.4441C128.592 54.6061 120.156 68.5141 112.518 82.1941C110.01 86.5261 107.616 90.8581 105.336 95.3041L98.2682 94.6201L96.7862 111.834C95.1902 115.026 93.7082 118.104 92.2262 121.182C90.8582 124.146 89.6042 127.11 88.3502 130.074L87.7802 130.53L86.5262 132.81L86.4122 134.406C85.1582 137.37 83.7902 140.334 82.5362 143.412C81.5102 144.78 80.3702 146.034 79.3442 147.288C71.5922 156.522 69.6542 163.704 71.3642 171C71.5922 173.394 67.7162 183.198 66.9182 185.706L64.0682 176.016L69.3122 146.604L61.1042 145.122L55.9742 174.762L46.8542 186.846L50.8442 164.388L42.6362 162.906L39.2162 182.742L31.0082 183.426L32.3762 199.386L25.4222 200.64L29.0702 221.046L27.8162 216.486L19.8362 218.652L27.1322 245.898C26.9042 246.354 26.7902 246.924 26.6762 247.38L22.1162 234.498L14.3642 237.348L24.5102 265.62L24.0542 269.04L16.3022 252.624L8.77817 256.158L21.5462 283.404L20.4062 289.56L8.32217 272.46L1.59617 277.248L18.3542 301.188L16.5302 311.448L17.1002 314.07L20.9762 319.542L14.5922 321.138L19.0382 337.668L3.76217 301.188L0.342168 294.348C0.114168 298.68 -0.227832 305.52 0.114168 309.738L7.52417 366.51L3.99017 368.562L8.77817 376.998L9.69017 383.952L6.15617 386.46L10.9442 393.414L12.0842 402.306L8.66417 405.156L17.2142 415.302L29.6402 445.512C29.7542 445.968 29.7542 446.424 29.7542 446.88C30.5522 456.684 33.0602 463.41 37.0502 468.084L20.9762 458.736L16.7582 466.032L42.0662 480.624L43.8902 487.236L25.7642 476.862L21.6602 484.044L46.9682 498.636L50.0462 510.036L67.2602 520.068C69.0842 522.576 70.4522 525.198 71.5922 527.82C72.2762 529.302 72.8462 530.784 73.4162 532.266L29.7542 509.01L37.2782 520.296C58.4822 539.79 76.8362 555.522 95.1902 569.316L93.4802 573.078L112.29 581.742L107.844 580.146L105.108 588.012L133.494 598.272L154.356 619.134H154.47L161.766 626.658C154.242 626.202 140.22 625.29 132.126 625.404L124.146 625.746C128.592 628.026 133.266 630.42 137.94 632.13C162.108 639.882 182.856 645.81 202.806 650.256V651.966L163.704 670.434L249.204 710.22L282.948 662.796C283.86 662.796 284.886 662.796 285.798 662.796C284.43 664.164 281.694 670.548 290.244 668.268C309.396 663.366 323.532 657.21 342.798 657.324C356.25 657.438 365.37 660.174 377.226 663.708C378.594 664.05 394.44 668.838 396.72 668.838C400.482 668.952 400.596 665.874 398.316 662.796C399.228 662.796 400.14 662.796 401.166 662.796L434.796 710.22L520.41 670.434L481.308 651.966V650.256C501.144 645.81 522.006 639.882 546.06 632.13C551.19 630.306 555.18 628.14 559.968 625.746L545.034 625.518C537.054 625.86 529.53 626.202 522.348 626.658L550.506 598.272L579.006 588.012L576.27 580.146L571.824 581.742L590.634 573.078L588.924 569.316C607.278 555.522 625.518 539.79 646.836 520.296L654.36 509.01L610.812 532.266C611.268 530.784 611.838 529.302 612.522 527.82C613.662 525.198 615.03 522.576 616.854 520.068L634.068 510.036L637.146 498.636L662.454 484.044L658.35 476.862L640.224 487.236L642.048 480.624L667.242 466.032L663.138 458.736L646.95 468.084C651.054 463.41 653.562 456.684 654.36 446.88C654.36 446.424 654.36 445.968 654.36 445.512L666.9 415.302L675.45 405.156L672.03 402.306L673.17 393.414L677.958 386.46L674.424 383.952C675.678 374.49 674.766 377.91 680.124 368.562L676.59 366.51L684 309.738L683.772 294.348L677.388 308.028L665.076 337.668L669.522 321.138L663.138 319.542L667.014 314.07L667.584 311.448L665.76 301.188L682.518 277.248L675.792 272.46L663.708 289.56L662.568 283.404L675.336 256.158L667.812 252.624L660.06 269.04L659.49 265.62L669.75 237.348L661.884 234.498L657.324 247.38C657.21 246.924 657.096 246.354 656.982 245.898L664.164 218.652L656.298 216.486L655.044 221.046L658.692 200.64L651.624 199.386L653.106 183.426L644.898 182.742L641.364 162.906L633.156 164.388L637.146 186.846L628.14 174.762L623.01 145.122L614.802 146.604L620.046 176.016L617.196 185.706C616.398 183.426 612.636 173.28 612.636 171C614.346 163.704 612.522 156.522 604.77 147.288C603.63 146.034 602.604 144.78 601.464 143.412C600.21 140.334 598.956 137.37 597.588 134.406C597.474 133.836 597.93 132.81 596.22 130.53C594.966 129.048 592.914 123.462 591.888 121.182C590.406 118.104 588.81 115.026 587.328 111.834L585.846 94.6201L578.778 95.3041C576.498 90.8581 574.104 86.5261 571.596 82.1941C563.844 68.5141 555.408 54.6061 545.604 39.4441L536.142 26.2201L539.448 42.2941C544.92 59.7361 550.05 75.1261 555.522 89.6041C556.776 92.9101 558.03 96.2161 559.284 99.4081L556.206 96.7861C555.522 89.8321 551.76 84.2461 542.184 78.7741C537.852 76.3801 534.318 74.4421 530.784 70.7941L527.592 67.2601L518.244 51.3001L512.202 54.9481L502.968 41.8381L496.356 46.6261L484.5 36.7081L481.65 28.7281L473.898 31.4641L476.52 38.7601L475.608 40.0141C478.002 41.9521 477.432 41.1541 478.116 43.0921C475.95 41.3821 473.214 39.9001 469.566 38.7601L460.332 22.5721L453.036 26.7901L456.114 31.8061L455.544 31.4641L454.29 32.9461L452.808 32.1481L441.75 16.3021L434.91 21.0901L443.916 33.8581L442.776 33.2881L423.282 10.2601L416.898 15.5041L419.862 19.0381L405.27 4.44609L400.254 9.46209L389.082 8.63382e-05ZM342 11.7421L363.318 21.5461L372.552 33.4021L352.032 23.8261L348.612 31.2361L366.738 39.9001L365.37 47.9941L380.076 50.3881L377.568 54.0361L376.884 53.8081L376.998 53.9221L358.644 47.3101L355.794 55.0621L376.428 62.5861L362.292 64.1821L352.26 60.5341L349.98 53.9221L342 56.7721L334.134 53.9221L331.854 60.5341L321.708 64.1821L307.686 62.5861L328.206 55.0621L325.356 47.3101L307.116 53.9221V53.8081L306.546 54.0361L303.924 50.3881L318.744 47.9941L317.376 39.9001L335.502 31.2361L332.082 23.8261L311.448 33.4021L320.796 21.5461L342 11.7421Z" fill="#5B4431"/>
<path d="M280.554 577.638C292.752 577.866 304.038 583.566 311.79 585.846C333.792 592.686 350.094 592.686 372.324 585.846C380.076 583.566 391.248 577.866 403.446 577.638L400.596 581.856C383.952 595.194 379.962 606.252 376.656 624.606C375.516 635.094 375.516 650.712 395.124 664.506L395.922 665.19L394.782 665.076C336.528 650.142 347.472 650.142 289.332 665.076L288.078 665.19L288.99 664.506C308.598 650.712 308.598 635.094 307.458 624.606C304.152 606.252 300.048 595.194 283.518 581.856L280.554 577.638ZM527.592 615.03C532.152 610.014 536.94 605.796 541.272 601.236C527.592 594.738 510.834 590.862 496.47 585.504L484.158 587.784L481.422 590.064L499.548 588.468L500.232 596.676L470.364 599.298L465.462 603.402L486.324 605.226L485.64 613.434L463.182 611.496C492.48 625.404 507.87 636.348 527.592 615.03ZM447.678 564.072C445.74 563.616 443.802 563.274 442.092 563.16L441.066 574.332L445.968 570.228L447.678 564.072ZM433.542 564.756C432.744 565.098 428.412 567.606 428.412 568.86L426.816 586.302L432.06 581.856L433.542 564.756ZM419.064 578.55C417.468 580.146 415.644 581.628 413.82 582.996C415.302 583.794 416.898 584.592 418.494 585.39L419.064 578.55ZM605.91 535.572C608.076 529.416 610.242 523.374 614.346 517.56C595.764 515.964 576.954 519.27 558.372 517.674C540.588 516.078 527.136 514.026 517.332 514.482L510.036 524.97L508.554 542.526L525.996 544.008L548.454 533.634L551.988 541.044L537.51 547.884L539.448 553.242C541.386 553.47 543.324 553.698 545.148 553.926C578.094 556.776 596.106 563.046 605.91 535.572ZM650.826 446.538C651.282 440.154 651.852 433.656 654.474 427.044C636.12 430.122 618.564 438.33 600.21 441.636C599.64 441.636 599.07 441.75 598.614 441.864L585.048 451.326L583.566 454.518L599.184 445.512L603.402 452.58L577.524 467.628L574.788 473.442L594.51 466.374L597.246 474.126L575.13 482.22C582.426 481.764 589.722 481.308 596.904 480.054C629.394 474.24 648.546 475.722 650.826 446.538ZM660.63 344.394C659.034 338.352 657.324 332.082 657.324 324.786C641.25 334.248 627.57 347.814 611.382 357.162C600.438 363.432 591.09 368.334 583.794 372.78L581.97 383.61L588.012 400.14L604.542 393.984L620.502 375.06L626.886 380.304L616.512 392.73L619.476 395.466C647.748 378.48 668.838 374.034 660.63 344.394ZM648.774 235.98C645.468 230.508 642.276 225.036 640.566 217.968C633.954 224.466 628.254 231.876 622.668 239.286L615.372 266.304L615.6 267.558L621.072 252.738L628.71 255.588L618.564 283.974L619.134 287.394L626.886 270.864L634.296 274.398L626.088 292.182C648.09 270.408 663.138 260.49 648.774 235.98ZM578.322 287.166C577.866 287.85 577.41 288.42 576.84 288.99L581.742 294.006C580.944 289.446 581.742 291.27 578.322 287.166ZM572.28 296.172C571.938 296.856 571.596 297.426 571.368 298.11L582.426 312.474L585.39 314.526L584.25 308.142L572.28 296.172ZM602.148 149.568C598.614 145.464 595.08 141.36 592.686 135.888C586.416 144.666 581.856 154.812 576.726 164.388L581.97 163.362L587.214 193.002L590.292 196.992L585.39 178.98L593.484 176.814L594.852 182.286L600.438 181.26L601.236 185.82C602.946 183.312 604.428 181.032 605.682 178.752L604.086 169.632L609.444 168.606C610.242 162.678 608.304 156.75 602.148 149.568ZM574.446 168.264C572.85 171.114 571.14 173.964 569.202 176.586C552.33 200.64 541.158 211.698 550.164 223.668C553.47 228 557.232 231.876 559.74 237.462C560.652 236.208 561.564 234.954 562.362 233.7L559.854 229.254L565.896 225.606L559.17 211.128L566.58 207.708L563.046 187.872L571.254 186.39L575.016 208.05L579.006 194.37L574.446 168.264ZM578.436 215.346C578.55 215.232 578.664 215.118 578.664 215.118L575.586 210.786C576.156 214.32 575.358 213.066 578.436 215.346ZM540.474 81.852C536.256 79.458 532.152 77.064 528.504 73.188C524.856 86.526 524.856 100.89 521.208 114.228C514.482 139.422 508.554 151.848 519.726 159.03C523.716 161.652 528.048 163.818 531.696 167.694C535.344 154.356 542.526 141.816 545.946 128.592C552.33 104.88 559.284 92.454 540.474 81.852ZM465.804 41.268C461.814 40.128 457.824 39.102 453.72 36.708C453.72 48.906 456.912 61.104 456.912 73.188C456.912 96.102 454.632 108.186 465.804 111.834C469.794 113.088 474.012 113.886 478.116 116.394C478.116 104.082 481.308 91.998 481.308 79.8C481.308 58.14 484.386 46.056 465.804 41.268ZM156.636 614.802C152.532 610.014 147.972 605.682 142.386 601.236C156.066 594.738 173.166 590.862 187.416 585.504L199.956 587.784L202.692 590.064L184.566 588.468L183.882 596.676L213.75 599.298L218.652 603.402L197.676 605.226L198.474 613.434L220.932 611.496C191.634 625.404 175.332 636.918 156.636 614.802ZM236.436 564.072C238.374 563.616 240.198 563.274 242.022 563.16L242.934 574.332L238.032 570.228L236.436 564.072ZM250.572 564.756C252.282 565.554 253.992 566.808 255.702 568.518L257.184 586.302L252.054 581.856L250.572 564.756ZM264.936 578.55C266.646 580.146 268.356 581.628 270.294 582.996C268.812 583.794 267.216 584.592 265.62 585.39L264.936 578.55ZM78.204 535.572C76.038 529.416 73.872 523.374 69.654 517.56C88.236 515.964 107.16 519.27 125.742 517.674C143.526 516.078 156.864 514.026 166.782 514.482L174.078 524.97L175.56 542.526L158.004 544.008L135.66 533.634L132.126 541.044L146.604 547.884L144.552 553.242C142.728 553.47 140.79 553.698 138.852 553.926C106.02 556.776 88.008 563.046 78.204 535.572ZM33.288 446.538C32.718 440.154 32.262 433.656 29.64 427.044C47.994 430.122 65.436 438.33 83.79 441.636C84.36 441.636 84.93 441.75 85.5 441.864L99.066 451.326L100.548 454.518L84.816 445.512L80.712 452.58L106.59 467.628L109.326 473.442L89.604 466.374L86.868 474.126L108.87 482.22C101.688 481.764 94.278 481.308 87.21 480.054C54.72 474.24 35.568 475.722 33.288 446.538ZM23.484 344.394C25.08 338.352 26.79 332.082 26.676 324.786C42.864 334.248 56.544 347.814 72.732 357.162C83.676 363.432 92.91 368.334 100.206 372.78L102.144 383.61L96.102 400.14L79.572 393.984L63.612 375.06L57.228 380.304L67.602 392.73L64.638 395.466C63.954 395.124 63.27 394.668 62.586 394.326C34.086 377.796 15.618 372.666 23.484 344.394ZM35.34 235.98C38.646 230.508 41.724 225.036 43.548 217.968C50.16 224.466 55.86 231.876 61.446 239.286L68.628 266.304L68.4 267.558L63.042 252.738L55.29 255.588L65.55 283.974L64.98 287.394L57.228 270.864L49.818 274.398L58.026 292.182C35.91 270.408 20.976 260.49 35.34 235.98ZM105.792 287.166C106.134 287.85 106.704 288.42 107.16 288.99L102.372 294.006C103.056 289.446 102.258 291.27 105.792 287.166ZM111.834 296.172C112.176 296.856 112.404 297.426 112.632 298.11L101.574 312.474L98.724 314.526L99.864 308.142L111.834 296.172ZM81.966 149.568C85.5 145.464 89.034 141.36 91.428 135.888C97.698 144.666 102.258 154.812 107.388 164.388L102.144 163.362L96.9 193.002L93.822 196.992L98.61 178.98L90.63 176.814L89.262 182.286L83.676 181.26L82.878 185.82C81.168 183.312 79.686 181.032 78.432 178.752L80.028 169.632L74.67 168.606C73.872 162.678 75.81 156.75 81.966 149.568ZM109.554 168.264C111.264 171.114 112.974 173.964 114.912 176.586C131.67 200.64 142.956 211.698 133.836 223.668C130.644 228 126.882 231.876 124.374 237.462C123.462 236.208 122.55 234.954 121.752 233.7L124.26 229.254L118.218 225.606L124.944 211.128L117.534 207.708L121.068 187.872L112.86 186.39L108.984 208.05L105.108 194.37L109.554 168.264ZM105.564 215.346C105.564 215.232 105.45 215.118 105.336 215.118L108.528 210.786C107.844 214.32 108.642 213.066 105.564 215.346ZM143.64 81.852C147.744 79.458 151.962 77.064 155.61 73.188C159.258 86.526 159.258 100.89 162.792 114.228C169.632 139.422 175.56 151.848 164.388 159.03C160.398 161.652 156.066 163.818 152.418 167.694C148.77 154.356 141.588 141.816 138.168 128.592C131.784 104.88 124.716 92.454 143.64 81.852ZM218.196 41.268C222.186 40.128 226.29 39.102 230.394 36.708C230.394 48.906 227.088 61.104 227.088 73.188C227.088 96.102 229.368 108.186 218.196 111.834C214.206 113.088 210.102 113.886 205.998 116.394C205.998 104.082 202.806 91.998 202.806 79.8C202.806 58.14 199.728 46.056 218.196 41.268Z" fill="#007CC3"/>
<path d="M322.62 68.9699L312.474 79.7999L296.172 77.8619L307.458 66.0059L322.164 67.6019L347.928 58.3679L348.384 59.6219L322.62 68.9699ZM318.63 18.8099L309.396 30.4379L293.094 30.0959L303.24 17.0999L317.946 17.5559L336.186 9.11993L337.896 9.91793L318.63 18.8099ZM295.944 11.7419V11.8559L317.718 1.48193L318.402 2.73593L295.26 13.5659L289.218 30.0959L276.678 35.9099L283.404 17.5559L295.944 11.7419ZM279.414 19.3799L272.688 37.7339L260.262 43.6619L266.988 25.3079L274.512 21.6599L295.602 3.98993L296.514 5.12993L279.414 19.3799ZM262.884 27.1319L256.158 45.4859L243.732 51.2999L250.458 32.9459L259.236 28.8419L278.844 9.34793L279.756 10.2599L262.884 27.1319ZM246.468 34.7699L239.742 53.1239L231.99 56.7719L233.928 40.6979L243.504 36.1379L261.174 14.9339L262.314 15.8459L246.468 34.7699ZM233.928 34.5419L243.162 21.0899L244.302 21.8879L233.928 36.9359V34.5419ZM219.336 37.3919L225.036 27.3599L226.29 28.0439L221.046 36.8219C220.476 37.0499 219.792 37.1639 219.336 37.3919ZM197.334 52.6679C199.386 47.0819 198.246 48.4499 201.324 46.1699L199.044 52.3259L197.334 52.6679ZM203.946 34.5419L204.402 33.0599L205.77 33.6299L204.972 35.7959L203.946 34.5419ZM309.054 39.8999L330.942 29.7539L330.372 28.4999L307.116 39.2159L290.7 33.1739L278.16 39.1019L296.514 45.8279L309.054 39.8999ZM292.524 47.6519L274.17 40.9259L261.63 46.8539L280.098 53.4659L287.622 49.8179L314.754 45.1439L314.526 43.7759L292.524 47.6519ZM275.994 55.2899L257.64 48.6779L245.214 54.4919L263.568 61.2179L272.346 56.9999L299.934 54.6059L299.82 53.2379L275.994 55.2899ZM259.464 63.0419L241.224 56.3159L231.534 60.8759C231.42 61.6739 231.306 62.3579 231.192 63.1559L247.038 68.7419L256.614 64.4099H284.316V63.0419H259.464ZM243.048 70.6799L230.964 66.3479L230.622 76.4939L240.54 71.8199L268.014 74.2139L268.128 72.8459L243.048 70.6799ZM230.622 80.5979L244.188 82.9919L245.784 81.8519L230.622 79.1159C230.622 79.5719 230.622 80.0279 230.622 80.5979ZM249.546 83.9039L251.598 84.2459L251.826 82.8779L248.406 82.3079L249.546 83.9039ZM300.732 59.9639H300.618L323.304 51.6419L323.76 53.0099L299.82 61.7879L292.41 77.6339L279.414 82.4219L286.14 67.8299H287.622V64.7519L300.732 59.9639ZM282.834 67.8299L275.31 83.9039L262.314 88.5779L267.444 77.7479L271.092 78.0899L271.776 70.4519L278.73 67.8299H282.834ZM287.622 61.5599C292.296 58.3679 290.586 58.9379 294.348 58.5959L287.622 63.2699V61.5599ZM264.138 77.4059L258.096 90.0599L245.214 94.8479C247.152 90.7439 246.24 91.6559 249.204 89.4899C252.396 87.2099 251.256 87.5519 254.334 88.1219L255.816 80.0279L252.282 79.4579C254.22 75.6959 253.194 76.4939 264.138 77.4059ZM267.9 69.3119C270.066 67.4879 269.04 67.8299 271.776 67.8299C269.61 69.7679 270.18 69.7679 267.9 69.3119ZM249.318 78.6599L249.204 78.8879L247.494 78.5459L249.888 76.1519L251.712 76.2659L249.318 78.6599ZM241.794 94.7339C240.768 96.8999 241.68 96.1019 237.804 97.5839L241.794 94.7339ZM233.016 90.7439H232.902L235.638 84.9299L240.198 85.6139L233.016 90.7439ZM257.526 68.3999L258.096 67.8299H260.148L259.35 68.6279L257.526 68.3999ZM232.218 84.9299L230.736 87.8939C230.736 86.7539 230.736 85.6139 230.736 84.5879L231.078 84.1319L232.674 84.4739L232.218 84.9299ZM239.514 76.1519L238.716 77.0639L237.918 76.9499L239.514 76.1519ZM311.22 89.1479L333.906 80.9399L333.564 79.5719L309.396 88.2359L293.55 80.9399L280.554 85.6139L298.338 93.8219L311.22 89.1479ZM294.12 95.4179L276.45 87.0959L263.454 91.8839L281.238 100.092L289.104 97.2419L316.578 94.8479L316.464 93.4799L294.12 95.4179ZM277.02 101.688L259.35 93.3659L246.354 98.1539L264.138 106.248L273.258 102.942H300.96V101.688H277.02ZM259.92 107.844L242.25 99.6359L229.596 104.082C229.596 104.196 229.596 104.31 229.596 104.424L235.638 107.274L238.83 104.88L242.82 110.694L247.038 112.518L256.842 108.984L284.43 111.378L284.544 110.01L259.92 107.844ZM242.82 114.114L241.338 113.43L237.69 115.938L240.198 115.026L267.33 119.814L267.558 118.446L242.82 114.114ZM232.674 109.326L228.456 107.388C227.316 110.01 225.492 112.062 222.642 113.658L221.844 115.14L223.44 115.824L232.674 109.326ZM228.456 122.436L250.23 128.25L250.572 126.882L229.938 121.524L228.456 122.436ZM221.502 134.064L231.42 138.738L232.104 137.484L223.326 133.38L221.502 134.064ZM199.158 69.1979L186.276 72.3899L192.66 57.3419L199.614 55.6319C199.044 59.6219 199.044 64.1819 199.158 69.1979ZM184.224 54.0359L202.806 38.5319L203.604 39.5579L184.11 55.9739L182.514 73.4159L171.912 82.4219L173.622 62.9279L184.224 54.0359ZM170.316 65.7779L168.606 85.1579L162.336 90.4019C161.538 85.3859 160.854 80.1419 159.6 75.0119C159.6 74.0999 165.186 70.2239 166.212 69.0839L181.944 46.6259L183.084 47.4239L170.316 65.7779ZM158.574 70.7939L167.124 56.0879L168.264 56.7719L159.03 72.6179L158.574 70.7939ZM131.1 116.622L130.074 117.534L130.416 114.114C130.644 114.912 130.872 115.824 131.1 116.622ZM128.136 103.968L126.768 120.384L116.166 129.162L117.192 117.99C118.902 114.114 120.498 110.124 122.094 106.134L127.908 101.346C127.908 102.258 128.022 103.17 128.136 103.968ZM113.316 126.654L112.746 132.012L112.404 132.354H112.062V132.696L109.44 134.862L113.316 126.654ZM101.004 103.398L101.46 98.3819L102.828 98.4959C102.6 100.89 102.714 100.32 101.004 103.398ZM199.386 77.4059L184.794 76.1519L174.078 85.0439L193.572 86.6399L199.386 81.9659V77.4059ZM190.266 89.4899L170.772 87.7799L162.792 94.5059C162.906 95.3039 163.02 96.2159 163.134 97.0139L179.664 98.4959C181.602 96.6719 181.83 96.7859 183.084 95.0759L183.426 95.3039L186.162 92.9099L199.614 86.6399C199.614 86.1839 199.614 85.6139 199.5 85.1579L190.266 89.4899ZM176.244 101.346L163.59 100.206C163.932 102.486 164.274 104.652 164.73 106.818L166.44 103.854L170.43 106.134L173.166 103.74L178.296 102.03L179.664 100.092L176.244 101.346ZM187.872 98.4959C190.836 97.4699 189.81 98.1539 191.976 95.5319L186.618 97.5839L187.872 98.4959ZM171.228 111.948L172.482 110.238H172.254L171.228 111.948ZM131.898 123.12L128.934 122.892L118.446 131.898L128.364 132.696L131.898 123.12ZM127.338 135.774L120.042 135.09L118.332 144.78L123.804 145.236L127.338 135.774ZM111.15 137.94L105.792 142.386C105.564 142.842 105.45 143.184 105.222 143.64L110.01 143.982L111.15 137.94ZM135.432 137.712L137.37 137.598C137.142 137.142 137.028 136.686 136.914 136.23H136.002L135.432 137.712ZM107.274 156.75L107.73 156.864L109.44 147.06L103.74 146.604C103.398 147.174 103.17 147.63 102.828 148.2L107.274 156.75ZM117.306 150.822L119.016 149.34L122.208 149.682L122.778 148.314L117.762 147.858L117.306 150.822ZM202.578 117.762L201.666 117.876L202.578 116.052V117.762ZM230.622 96.6719L246.468 85.4999L247.266 86.6399L230.508 98.4959C230.622 97.8119 230.622 97.2419 230.622 96.6719ZM201.324 101.118L200.982 101.346L197.904 118.674L186.618 126.54L189.924 107.274L201.096 99.5219C201.21 99.9779 201.324 100.548 201.324 101.118ZM186.39 109.782L182.97 129.048L172.482 136.458C172.254 135.774 172.14 135.204 172.026 134.634L174.99 117.762L181.944 112.86L199.614 91.7699C199.842 91.9979 200.526 92.4539 200.298 93.1379L186.39 109.782ZM171.342 120.27L170.202 127.566L168.606 121.866L183.996 99.9779L185.136 100.776L171.342 120.27ZM144.666 155.952L141.816 157.89L142.842 151.62C143.526 152.988 144.096 154.47 144.666 155.952ZM165.756 111.948L167.694 108.642L168.948 109.326L166.326 113.772L165.756 111.948ZM140.676 146.262L138.282 160.398L126.882 168.378L130.302 149.112L139.194 142.728C139.764 143.868 140.22 145.122 140.676 146.262ZM126.654 151.62L123.234 170.886L117.762 174.762L113.772 168.606L115.368 159.486L124.716 152.988L134.178 127.11L134.748 129.504L126.654 151.62ZM110.238 162.45L114.912 136.344L116.28 136.572L111.378 164.388C111.036 163.704 110.694 163.02 110.238 162.45ZM219.108 124.83L238.83 110.922L238.032 109.782L217.17 124.488L203.262 121.98L202.578 122.322V121.866L199.842 121.524L188.442 129.39L207.708 132.81L219.108 124.83ZM204.06 135.318L185.022 131.898L173.622 139.764L192.774 143.184L199.842 138.396L225.606 128.934L225.15 127.566L204.06 135.318ZM189.24 145.692L173.736 142.956C174.306 146.718 174.306 150.024 173.394 152.874L177.954 153.672L186.048 148.086L212.61 140.79L212.268 139.536L189.24 145.692ZM174.306 156.18L172.254 155.838C171.456 157.32 170.43 158.688 168.948 159.942L171.684 158.118L198.93 153.216L198.702 151.848L174.306 156.18ZM145.92 159.144L143.754 160.626L146.718 161.196C146.49 160.512 146.262 159.828 145.92 159.144ZM159.372 166.668L159.03 166.554C157.776 167.352 156.522 168.378 155.382 169.404L157.092 168.264L184.566 165.756L184.452 164.388L159.372 166.668ZM147.858 164.616L140.106 163.248L128.82 171.228L148.086 174.648L150.252 173.052L147.858 164.616ZM144.438 177.042L125.286 173.736L119.814 177.498C121.296 179.664 122.55 181.602 123.918 183.312L133.266 185.022L142.5 178.41H143.07L143.526 176.928L147.516 178.41H170.202V177.042H144.438ZM127.794 188.784L138.624 190.608L139.08 189.24L126.54 186.96C126.996 187.644 127.338 188.214 127.794 188.784ZM146.946 191.976L154.812 193.458L155.04 192.09L147.402 190.722L146.946 191.976ZM59.1662 176.016L50.2742 187.986L55.0622 203.718L64.7522 190.608L60.5342 176.244L65.2082 149.34L63.8402 149.112L59.1662 176.016ZM72.3902 193.458L76.0382 172.368L74.6702 172.14L71.0222 193.116L72.3902 193.458ZM69.5402 197.79L55.9742 207.48L53.4662 221.046L57.3422 218.31V212.382H65.5502L69.5402 197.79ZM57.3422 222.072L54.1502 224.352C55.1762 225.72 56.3162 227.088 57.3422 228.456V222.072ZM67.7162 231.078L68.4002 229.938L68.1722 229.596L67.7162 231.078ZM41.8382 286.596L40.9262 291.954L41.1542 292.524L43.0922 291.156L41.8382 286.596ZM43.5482 294.69L42.2942 295.602L42.8642 297.198L43.0922 296.4L42.4082 295.488L43.5482 294.69ZM38.1902 308.142L37.7342 310.65L38.7602 309.966L38.1902 308.142ZM36.9362 315.096C36.7082 316.236 36.5942 315.78 37.5062 317.262L38.4182 314.07L36.9362 315.096ZM41.2682 190.836L45.4862 167.01L46.8542 167.238L42.4082 192.432L52.5542 206.796L50.1602 219.906C49.5902 219.108 48.9062 218.424 48.2222 217.74L38.8742 204.402L41.2682 190.836ZM38.1902 208.734L41.1542 213.18C40.0142 217.854 39.4442 220.59 37.5062 224.922L35.6822 222.3L37.1642 213.978L34.7702 186.618L36.1382 186.504L38.1902 208.734ZM34.9982 226.746L35.9102 228C35.3402 229.14 34.7702 230.166 34.2002 231.078L34.3142 230.622L29.4122 203.49L30.7802 203.148L34.9982 226.746ZM29.1842 240.312L24.1682 221.16L25.3082 220.818L30.0962 238.374C29.7542 238.944 29.5262 239.628 29.1842 240.312ZM39.7862 279.186L38.6462 285.342L36.7082 280.098L30.5522 282.378L26.2202 276.108L28.1582 265.278L18.8102 239.4L20.0642 238.944L25.9922 255.36C26.6762 263.91 31.9202 270.978 39.7862 279.186ZM25.4222 280.554L30.7802 288.078L35.7962 301.758L34.3142 310.08C29.9822 303.924 30.2102 304.494 27.0182 299.136L26.6762 299.364L23.1422 294.12L24.9662 282.948L13.3382 257.754L14.5922 257.184L25.4222 280.554ZM25.6502 320.34L19.9502 312.018L21.0902 305.292L31.6922 323.76L25.6502 320.34ZM21.6602 302.214L22.0022 300.39L6.38418 278.046L7.52418 277.248L24.0542 300.846L21.6602 302.214ZM141.246 41.2679C128.136 83.4479 117.648 110.922 100.89 144.438C99.5222 142.158 98.2682 139.878 96.7862 137.712L111.036 104.766L95.1902 135.204L91.8842 130.416C103.968 102.714 121.182 72.8459 141.246 41.2679ZM100.092 194.37L91.2002 206.34L95.9882 221.958L105.792 208.848L101.46 194.598L106.134 167.694L104.88 167.466L100.092 194.37ZM88.1222 211.47L87.4382 207.936C86.9822 210.444 86.7542 209.532 88.1222 211.47ZM88.2362 204.63L94.3922 181.374L93.0242 181.032L90.1742 191.976L87.8942 205.086L88.2362 204.63ZM58.5962 318.516L57.5702 322.164L58.9382 321.366C59.3942 319.086 59.5082 319.77 58.5962 318.516ZM58.1402 325.356L56.5442 326.382L53.1242 339.264L53.4662 339.378L60.1922 335.502C57.1142 330.942 57.2282 331.74 58.1402 325.356ZM64.6382 347.814L65.0942 347.586L66.1202 343.824L62.0162 338.124L56.0882 341.544C58.8242 343.71 61.6742 345.762 64.6382 347.814ZM67.4882 218.766L72.0482 201.78L72.3902 205.884L68.9702 218.424L67.4882 218.766ZM72.0482 201.78L73.1882 197.22L74.5562 197.562L73.4162 201.666L72.0482 201.78ZM64.5242 235.98L63.3842 233.928L66.8042 221.16L69.9962 239.286L68.8562 234.84L64.5242 235.98ZM60.7622 232.788V215.802H62.2442V234.612C61.7882 234.042 61.2182 233.358 60.7622 232.788ZM60.1922 299.136L58.9382 303.582L51.4142 290.472L60.1922 299.136ZM48.1082 291.042L48.3362 291.384L46.9682 292.296L44.8022 284.202C47.5382 286.824 46.6262 285.456 48.1082 291.042ZM56.0882 314.868L54.2642 321.366L44.4602 304.266L45.6002 300.048L56.0882 314.868ZM43.3202 308.598L53.1242 325.47L50.0462 336.984C50.0462 336.87 50.0462 336.87 50.0462 336.87L47.1962 334.704L39.9002 321.936L42.7502 310.878L33.2882 284.886L34.6562 284.43L43.3202 308.598ZM38.1902 328.092L24.5102 304.494L25.6502 303.696L40.8122 330.03C40.0142 329.346 39.1022 328.662 38.1902 328.092ZM112.86 214.434H112.746L116.964 190.722L115.596 190.494L111.15 215.574L96.7862 225.72L94.3922 239.286L110.352 228.114L112.86 214.434ZM109.668 232.332L93.5942 243.618L91.2002 257.298L107.274 246.126L108.756 237.69L120.384 212.724L119.13 212.268L109.668 232.332ZM106.476 250.344L90.5162 261.63L88.1222 275.196L104.196 264.024L105.792 254.334L119.7 230.508L118.446 229.824L106.476 250.344ZM103.398 268.242L87.4382 279.528L84.9302 293.094L101.004 281.922L102.828 271.434L118.674 248.862L117.534 248.178L103.398 268.242ZM100.206 286.254L84.2462 297.426L81.8522 311.106L97.8122 299.934L99.7502 288.99L117.42 267.786L116.394 266.988L100.206 286.254ZM97.0142 304.152L81.0542 315.438L78.6602 329.004L94.6202 317.832L96.5582 306.546L116.166 286.938L115.14 286.026L97.0142 304.152ZM77.8622 333.336L75.4682 346.902L91.4282 335.73L93.4802 323.988L115.824 308.37L115.026 307.23L77.8622 333.336ZM82.1942 209.076L82.3082 209.19L86.5262 185.25L87.8942 185.478L83.4482 210.786L93.3662 225.15L90.9722 238.716L79.8002 222.756L82.1942 209.076ZM79.0022 227.088L90.1742 243.048L87.8942 256.614L76.6082 240.654L78.0902 232.218L75.6962 204.972L77.0642 204.744L79.0022 227.088ZM75.9242 244.986L87.0962 260.946L84.7022 274.626L73.4162 258.552L75.1262 248.862L70.4522 221.73L71.8202 221.502L75.9242 244.986ZM72.8462 262.998L84.0182 278.958L81.5102 292.524L70.3382 276.564L72.2762 266.19L65.0942 239.4L66.3482 239.058L72.8462 262.998ZM69.6542 280.896L80.8262 296.856L78.3182 310.422L67.2602 294.462L69.0842 283.632L59.6222 257.754L60.9902 257.184L69.6542 280.896ZM66.4622 298.908L77.6342 314.868L75.2402 328.434L64.0682 312.36L66.0062 301.188L54.3782 276.108L55.6322 275.538L66.4622 298.908ZM74.4422 332.766L72.1622 346.332L60.8762 330.372L62.9282 318.744L47.3102 296.4L48.4502 295.602L74.4422 332.766ZM138.282 205.542L146.946 181.944L145.692 181.374L137.598 203.718C137.94 204.288 138.168 204.972 138.282 205.542ZM145.35 229.254L153.672 206.454L152.304 205.998L143.526 229.938L128.364 237.12C127.338 238.146 123.462 248.862 122.892 250.344L140.562 242.136L145.35 229.254ZM139.08 246.354L121.524 254.562L117.99 263.91L120.384 265.848L134.406 259.236L137.37 251.256L153.102 228.798L151.962 228L139.08 246.354ZM132.924 263.454L121.068 268.926L112.518 279.072L110.466 284.658C113.544 283.176 112.29 283.974 115.14 281.124L116.052 282.036L127.68 276.564C129.162 275.424 130.644 268.584 131.556 267.102L149.226 246.126L148.2 245.214L132.924 263.454ZM123.576 282.036L118.446 284.43L120.27 286.254L123.576 282.036ZM114.57 293.55C114.57 293.55 114.57 293.55 114.57 293.664L115.254 292.752L114.57 293.55ZM136.458 285.912L140.562 282.606L139.65 281.466C136.914 283.746 137.826 282.606 136.458 285.912ZM127.794 306.888L136.116 301.188L135.318 300.048L128.82 304.494L127.794 306.888ZM119.13 328.206L132.012 322.164L131.442 321.024L119.928 326.268L119.13 328.206ZM119.814 237.006C120.042 237.12 120.156 237.348 120.27 237.576H120.384L122.664 240.996L120.84 246.24L117.078 243.504L116.622 242.592L119.814 237.006ZM114.684 245.898L114.798 246.012L114 247.038L114.684 245.898ZM116.508 257.868L114.228 264.138L113.088 265.62L112.29 263.91L116.508 257.868ZM110.238 266.874L110.808 268.128L105.792 274.17L106.02 272.916L110.238 266.874ZM107.73 308.142L141.816 263.91C126.312 301.644 120.384 332.31 94.6202 365.598L87.5522 361.494L101.916 334.362L84.0182 359.556C82.0802 358.416 79.8002 357.162 77.2922 355.908L78.0902 351.576L93.0242 342.798L96.6722 326.04L120.726 309.282L115.938 302.556L107.73 308.142ZM8.09418 344.394L3.53418 309.282L19.2662 347.13C18.2402 351.576 17.8982 355.452 18.1262 358.872L13.7942 342.912L8.09418 344.394ZM102.258 506.73L104.31 514.368L95.0762 514.026L88.9202 510.378L85.8422 498.978L62.1302 485.298L62.9282 484.044L102.258 506.73ZM105.564 505.818L107.73 514.482C109.098 514.596 110.466 514.596 111.72 514.596L118.902 502.284L118.104 499.548L110.694 496.812L105.564 505.818ZM116.28 489.972L116.736 489.288L116.052 487.692L114.912 489.516L116.28 489.972ZM63.9542 399L76.7222 411.882L73.5302 409.374L72.1622 411.198L60.4202 404.358L57.9122 395.58L63.9542 399ZM61.5602 408.69L70.1102 413.478L68.2862 415.644L80.4842 426.018L81.2822 428.868L79.1162 427.386L77.7482 429.324L65.2082 422.028L62.5862 412.452L46.7402 389.88L47.9942 389.196L61.5602 408.69ZM66.3482 426.246L76.0382 431.832L74.3282 434.112L78.4322 436.962C75.1262 436.164 71.8202 435.252 68.5142 434.226L67.1462 429.438L49.3622 408.234L50.5022 407.322L66.3482 426.246ZM55.5182 430.236L52.3262 427.044L53.3522 426.132L58.3682 431.148L55.5182 430.236ZM98.2682 492.252L101.004 502.17L84.0182 492.366L81.3962 482.562C90.6302 484.158 86.9822 482.79 95.7602 487.806L94.7342 490.998L98.2682 492.252ZM85.1582 429.894L85.5002 430.806L85.7282 430.236L85.1582 429.894ZM88.2362 432.288L87.6662 433.2L91.9982 436.278C91.0862 434.34 90.7442 434.454 88.2362 432.288ZM102.258 493.734L104.31 501.258L107.502 495.672L102.258 493.734ZM111.72 488.376L113.202 485.754C109.782 485.64 106.476 485.412 103.284 485.184L111.72 488.376ZM66.5762 491.796L68.4002 498.636L70.9082 494.304L66.5762 491.796ZM75.0122 487.122L77.4062 482.904L74.4422 481.422C72.1622 481.08 69.8822 480.738 67.7162 480.396L66.5762 482.334L75.0122 487.122ZM63.2702 479.598L63.8402 480.738L64.4102 479.826C64.0682 479.712 63.6122 479.712 63.2702 479.598ZM56.6582 422.256L55.8602 423.738L62.9282 430.806L63.2702 430.122L56.6582 422.256ZM47.8802 411.768L45.9422 414.846L48.7922 425.676L53.3522 421.23L53.5802 421.458L54.6062 419.634L47.8802 411.768ZM44.2322 392.274L41.1542 397.29L44.8022 410.742L45.7142 409.146L44.5742 407.778C48.9062 404.244 47.7662 405.612 50.3882 401.052L44.2322 392.274ZM37.8482 384.294L40.1282 393.186L42.1802 389.424L41.9522 389.082L43.3202 387.6C41.3822 386.46 39.5582 385.32 37.8482 384.294ZM62.3582 489.288L65.0942 499.548L48.1082 489.744L45.0302 478.344L21.5462 464.778L22.2302 463.524L58.5962 484.614L57.4562 486.552L62.3582 489.288ZM59.5082 478.914L60.1922 481.878L51.4142 476.748C53.9222 477.546 56.6582 478.23 59.5082 478.914ZM28.2722 423.168L13.5662 405.612L14.5922 404.7L30.4382 423.624L28.2722 423.168ZM25.6502 406.068L42.6362 415.758L45.7142 427.272C43.8902 426.816 42.0662 426.246 40.3562 425.79L29.2982 419.406L26.6762 409.944L10.9442 387.372L12.0842 386.574L25.6502 406.068ZM21.0902 388.512L37.9622 398.202L41.4962 411.54L24.5102 401.85L22.4582 393.528L8.66418 369.816L9.80418 369.132L21.0902 388.512ZM16.3022 370.842V370.956L10.0322 347.472L11.4002 347.13L18.0122 371.868L28.8422 378.138C30.3242 379.278 31.8062 380.418 33.4022 381.444L36.8222 393.87L19.9502 384.18L16.3022 370.842ZM22.1162 335.844L18.8102 323.646L20.1782 323.19L22.6862 332.766L22.1162 335.844ZM69.6542 503.31L72.5042 513.912C73.1882 513.798 74.1002 513.798 74.8982 513.684L82.3082 500.916L73.7582 496.014L69.6542 503.31ZM79.0022 487.008L77.9762 488.832L79.8002 489.858L79.0022 487.008ZM66.3482 504.222L68.9702 514.14L64.5242 514.482L53.0102 507.756L49.9322 496.356L26.3342 482.79L27.0182 481.536L66.3482 504.222ZM142.158 503.082L146.376 512.088L139.992 512.772L129.732 509.01L124.602 498.294L99.1802 488.946L99.6362 487.578L142.158 503.082ZM145.35 501.714L150.024 511.746C150.822 511.632 151.506 511.632 152.19 511.518L157.776 495.9L152.874 485.07L162.108 459.534L160.854 459.078L145.35 501.714ZM77.5202 396.948L95.8742 403.674L101.688 416.214L83.3342 409.602L79.8002 401.85L62.1302 380.76L63.1562 379.848L77.5202 396.948ZM85.2722 413.478L103.626 420.204L109.326 432.744L90.9722 426.132L86.9822 417.126L67.3742 397.632L68.4002 396.606L85.2722 413.478ZM92.9102 430.008L111.264 436.734L117.078 449.16L98.7242 442.548L94.2782 432.972L73.0742 415.188L73.9862 414.162L92.9102 430.008ZM100.662 446.538L119.016 453.15L124.716 465.804L106.362 459.078L101.802 449.046L79.2302 433.2L80.0282 432.06L100.662 446.538ZM108.3 463.068L126.654 469.68L132.468 482.334L114.114 475.608L109.326 465.234L85.3862 451.326L86.0702 450.186L108.3 463.068ZM134.406 486.21L140.106 498.75L121.866 492.024L116.85 481.422L91.2002 471.96L91.6562 470.706L134.406 486.21ZM105.792 383.838L99.0662 402.192L104.88 414.732L111.492 396.378L107.844 388.74L103.17 361.608L101.802 361.836L105.792 383.838ZM113.316 400.368L106.59 418.722L112.518 431.262L119.244 412.908L115.14 404.016L112.632 376.428L111.264 376.542L113.316 400.368ZM121.068 416.898L114.342 435.252L120.27 447.792L126.882 429.438L122.436 419.862V392.274H121.068V416.898ZM128.706 433.428L121.98 451.782L127.908 464.322L134.634 445.968L129.96 435.936L132.354 408.576L130.986 408.462L128.706 433.428ZM136.458 449.958L129.732 468.198L135.66 480.852L142.272 462.498L137.484 452.01L142.272 424.878L140.904 424.65L136.458 449.958ZM137.484 484.728L143.298 497.382L150.024 478.914L145.008 468.198L154.356 442.662L152.988 442.092L137.484 484.728ZM39.5582 517.674C52.4402 524.286 64.1822 530.67 75.0122 536.94C77.8622 544.806 81.2822 550.278 85.5002 553.812L84.0182 556.206C70.1102 545.034 55.7462 532.494 39.5582 517.674ZM101.46 559.854C104.766 560.196 108.3 560.082 112.29 559.854C114.228 561.222 116.166 562.476 118.104 563.844H108.3L101.46 559.854ZM288.078 596.904L293.094 615.714L303.696 621.87C301.986 614.802 300.048 608.304 297.198 602.148L290.928 598.5L275.082 575.814L273.942 576.612L288.078 596.904ZM272.232 587.784L277.362 606.708L289.332 613.548L284.316 594.624L275.766 589.836L272.46 585.846L271.092 586.416L272.232 587.784ZM272.004 598.614L268.926 587.556C268.014 588.012 266.988 588.582 265.848 589.152L266.304 593.826L272.004 598.614ZM277.248 622.554L291.384 618.792L303.354 625.746L284.544 630.648L277.476 625.86L277.248 622.554ZM276.108 610.014L287.622 616.512L276.906 619.476L276.108 610.014ZM167.694 584.592H179.892C176.7 585.618 173.508 586.644 170.316 587.67L147.744 574.674L148.428 573.42L167.694 584.592ZM161.994 590.292L158.346 588.696L158.916 587.442L163.932 589.722C163.248 589.95 162.564 590.064 161.994 590.292ZM206.34 623.238H212.496L212.724 625.518L226.86 624.264L235.638 632.928H222.87C220.134 632.472 217.626 632.13 214.89 631.788L208.278 625.176L203.49 623.922C205.542 622.896 204.972 622.896 206.34 623.238ZM248.862 658.692H241.794L240.654 657.552C243.39 658.008 246.012 658.35 248.862 658.692ZM222.186 614.688L223.668 616.17L225.15 616.056V613.32L222.186 614.688ZM228.342 611.838V615.714L232.902 615.372L228.456 611.61C228.456 611.838 228.342 611.838 228.342 611.838ZM231.42 623.922L238.032 630.534V623.352L231.42 623.922ZM241.11 623.01V633.612L244.302 636.804C246.582 637.26 248.748 637.716 250.914 638.172V629.964L249.888 629.736L241.794 623.01H241.11ZM263.796 641.136V636.69L257.07 629.964L253.992 630.306V638.856C257.184 639.54 260.49 640.338 263.796 641.136ZM260.946 616.398L271.434 625.29L252.054 627L242.934 619.362L215.916 621.756L215.802 620.388L260.946 616.398ZM263.112 613.776L273.714 622.668L272.004 603.174L262.998 595.536L260.604 568.404L259.236 568.518L263.112 613.776ZM157.434 547.542L176.928 545.832L187.416 554.838L168.036 556.548L161.538 551.076L136.686 539.334L137.256 538.194L157.434 547.542ZM171.342 559.284L190.836 557.574L201.438 566.466L182.058 568.176L174.42 561.906L148.542 552.444L148.998 551.19L171.342 559.284ZM185.478 571.026L204.744 569.316L215.46 578.094L195.966 579.804L187.758 573.078L161.196 565.896L161.538 564.642L185.478 571.026ZM199.386 582.654L218.766 580.944L229.368 589.95L209.874 591.66L201.438 584.478L174.306 579.69L174.534 578.322L199.386 582.654ZM213.294 594.396L232.674 592.8L243.276 601.578L223.782 603.288L215.118 595.878L187.53 593.598L187.644 592.23L213.294 594.396ZM246.696 604.428L257.184 613.206L237.69 615.03L228.684 607.392L201.666 609.786L201.552 608.418L246.696 604.428ZM177.384 523.716L179.094 543.21L189.696 552.102L187.986 532.608L181.488 527.136L165.756 504.678L164.616 505.476L177.384 523.716ZM191.406 535.458L193.116 554.952L203.604 563.844L202.008 544.35L194.484 538.08L180.69 514.14L179.436 514.824L191.406 535.458ZM205.314 547.2L207.024 566.694L217.626 575.472L215.916 556.092L207.822 549.252L196.194 524.172L194.94 524.742L205.314 547.2ZM219.336 558.828L220.932 578.322L231.534 587.214L229.824 567.834L221.388 560.652L211.926 534.888L210.672 535.344L219.336 558.828ZM233.244 570.684L234.954 590.064L245.556 598.956L243.846 579.462L235.068 572.166L227.886 545.376L226.518 545.832L233.244 570.684ZM248.862 601.806L259.464 610.698L257.754 591.204L248.634 583.566L246.354 556.434L244.872 556.548L248.862 601.806ZM289.902 659.49C235.866 655.5 197.448 647.52 138.852 628.938C202.236 631.56 241.566 637.374 296.4 653.334L293.892 655.956L239.058 645.126L206.226 639.654L241.794 646.722L292.296 657.552C291.498 658.464 290.928 658.692 289.902 659.49ZM248.064 705.888L240.54 702.354L251.826 686.508L238.944 701.67L231.306 698.136L246.468 680.238L229.368 697.224L221.16 693.462L240.996 673.74L218.88 692.322L210.444 688.332L235.638 667.242L207.366 686.964L198.702 682.974L230.28 660.858L194.94 681.264L185.82 676.932L224.238 654.816L234.84 656.64L240.312 662.226C257.982 662.226 267.216 661.086 279.186 662.112L248.064 705.888ZM224.124 654.702L181.374 674.88L171.798 670.434L207.138 653.79H219.108C220.704 654.132 222.414 654.474 224.124 654.702ZM264.024 632.016L274.284 628.938L287.736 636.462L293.094 633.726L302.784 639.654L296.742 633.156L302.1 629.622L300.39 632.814L304.494 637.488L303.468 641.478L295.716 638.286L292.752 640.452L300.96 647.634L271.89 631.56L299.706 649.344L298.11 651.624L277.476 643.644L268.47 637.26L264.024 632.016ZM107.274 567.378H126.882L136.686 577.068H117.192L111.15 571.14L87.4382 557.346L88.1222 556.206L107.274 567.378ZM120.27 580.146H139.764L149.568 589.95H129.96L123.006 582.996L98.0402 571.368L98.6102 570.114L120.27 580.146ZM133.152 593.028H152.646L152.988 593.37L139.194 599.184L135.432 595.308L109.44 585.96L109.896 584.592L133.152 593.028ZM129.39 558.258V564.87L139.08 574.674V557.232C138.966 557.232 138.966 557.232 138.966 557.346L134.178 557.688V557.802L129.39 558.258ZM142.158 558.144V577.752L152.076 587.556V581.058L142.956 575.814L147.174 568.746L152.076 571.482V567.948L145.008 560.994L143.07 556.89C142.614 556.89 142.158 557.118 141.702 557.118L142.158 558.144ZM155.04 571.14V573.306L160.284 576.27L157.32 573.42L151.506 557.118L149.796 556.548L155.04 571.14ZM155.04 582.882V587.556L156.75 583.908L155.04 582.882ZM155.496 591.204C156.636 592.116 156.522 592.23 157.206 591.888L155.496 591.204ZM168.606 581.058L165.87 570.798L164.274 570.342L167.01 580.146L168.606 581.058ZM203.49 629.736V627.456C196.65 625.518 200.184 625.632 193.686 628.026V628.14L203.49 629.736Z" fill="#FBDD73"/>
<path d="M361.494 68.9699L371.64 79.7999L387.828 77.8619L376.656 66.0059L361.95 67.6019L349.182 63.0419L347.13 63.8399L361.494 68.9699ZM336.87 58.5959L336.186 58.3679L335.958 58.9379L336.87 58.5959ZM365.484 18.8099L374.604 30.4379L391.02 30.0959L380.874 17.0999L366.054 17.5559L341.202 6.04193L340.632 7.29593L365.484 18.8099ZM388.17 11.7419V11.8559L366.282 1.48193L365.712 2.73593L388.854 13.5659L394.896 30.0959L407.322 35.9099L400.596 17.5559L388.17 11.7419ZM404.7 19.3799L411.426 37.7339L423.852 43.6619L417.126 25.3079L409.488 21.6599L388.398 3.98993L387.6 5.12993L404.7 19.3799ZM421.116 27.1319L427.842 45.4859L440.382 51.2999L433.656 32.9459L424.878 28.8419L405.27 9.34793L404.244 10.2599L421.116 27.1319ZM437.646 34.7699L444.372 53.1239L452.01 56.7719L450.186 40.6979L440.61 36.1379L422.826 14.9339L421.8 15.8459L437.646 34.7699ZM450.186 34.5419L440.838 21.0899L439.698 21.8879L450.186 36.9359V34.5419ZM464.778 37.3919L459.078 27.3599L457.824 28.0439L462.954 36.8219C463.638 37.0499 464.094 37.1639 464.778 37.3919ZM486.666 52.6679C484.728 47.0819 485.754 48.4499 482.79 46.1699L485.07 52.3259L486.666 52.6679ZM480.168 34.5419L479.712 33.0599L478.344 33.6299L479.142 35.7959L480.168 34.5419ZM375.06 39.8999L353.058 29.7539L353.742 28.4999L376.884 39.2159L393.414 33.1739L405.84 39.1019L387.486 45.8279L375.06 39.8999ZM391.59 47.6519L409.944 40.9259L422.37 46.8539L404.016 53.4659L396.378 49.8179L369.246 45.1439L369.474 43.7759L391.59 47.6519ZM408.006 55.2899L426.36 48.6779L438.9 54.4919L420.546 61.2179L411.768 56.9999L384.18 54.6059L384.294 53.2379L408.006 55.2899ZM424.536 63.0419L442.89 56.3159L452.58 60.8759C452.694 61.6739 452.808 62.3579 452.808 63.1559L437.076 68.7419L427.5 64.4099H399.798V63.0419H424.536ZM441.066 70.6799L453.15 66.3479L453.492 76.4939L443.574 71.8199L416.1 74.2139L415.986 72.8459L441.066 70.6799ZM453.378 80.5979L439.812 82.9919L438.216 81.8519L453.378 79.1159C453.378 79.5719 453.378 80.0279 453.378 80.5979ZM434.568 83.9039L432.402 84.2459L432.174 82.8779L435.708 82.3079L434.568 83.9039ZM383.382 59.9639L360.696 51.6419L360.24 53.0099L384.294 61.7879L391.704 77.6339L404.7 82.4219L397.974 67.8299H396.492V64.7519L383.382 59.9639ZM401.28 67.8299L408.804 83.9039L421.8 88.5779L416.67 77.7479L413.022 78.0899L412.338 70.4519L405.27 67.8299H401.28ZM396.492 61.5599C391.818 58.3679 393.528 58.9379 389.652 58.5959L396.492 63.2699V61.5599ZM419.976 77.4059L425.904 90.0599L438.9 94.8479C436.62 89.9459 437.988 91.7699 432.288 87.6659L429.78 88.1219L428.298 80.0279L431.718 79.4579C430.008 75.6959 430.806 76.4939 419.976 77.4059ZM416.214 69.3119C413.82 67.4879 414.96 67.8299 412.224 67.8299C414.39 69.6539 413.82 69.8819 416.214 69.3119ZM434.796 78.6599V78.8879L436.62 78.5459L434.226 76.1519L432.402 76.2659L434.796 78.6599ZM442.32 94.7339L443.004 96.3299L446.31 97.5839L442.32 94.7339ZM451.098 90.7439L448.362 84.9299L443.916 85.6139L451.098 90.7439ZM426.588 68.3999C425.676 67.7159 426.246 67.8299 423.966 67.8299L424.764 68.6279L426.588 68.3999ZM451.896 84.9299L453.264 87.8939C453.264 85.8419 453.72 84.9299 453.036 84.1319L451.44 84.4739L451.896 84.9299ZM444.6 76.1519L445.398 77.0639L446.196 76.9499L444.6 76.1519ZM372.78 89.1479H372.894L350.094 80.9399L350.55 79.5719L374.604 88.2359L390.564 80.9399L403.446 85.6139L385.776 93.8219L372.78 89.1479ZM389.88 95.4179L407.664 87.0959L420.546 91.8839L402.876 100.092L395.01 97.2419L367.536 94.8479L367.65 93.4799L389.88 95.4179ZM406.98 101.688L424.764 93.3659L437.646 98.1539L419.976 106.248L410.856 102.942H383.154V101.688H406.98ZM424.194 107.844L441.864 99.6359L454.404 104.082C454.518 104.196 454.518 104.31 454.518 104.424L448.362 107.274L445.17 104.88L441.18 110.694L437.076 112.518L427.158 108.984L399.684 111.378L399.456 110.01L424.194 107.844ZM441.294 114.114L442.776 113.43L446.424 115.938L443.916 115.026L416.67 119.814L416.442 118.446L441.294 114.114ZM451.326 109.326L455.544 107.388C456.798 110.01 458.622 112.062 461.472 113.658L462.27 115.14L460.674 115.824L451.326 109.326ZM455.658 122.436L433.884 128.25L433.542 126.882L454.176 121.524L455.658 122.436ZM462.612 134.064L452.58 138.738L452.01 137.484L460.788 133.38L462.612 134.064ZM484.842 69.1979L497.838 72.3899L491.454 57.3419L484.386 55.6319C484.956 59.6219 484.956 64.1819 484.842 69.1979ZM499.776 54.0359L481.308 38.5319L480.396 39.5579L500.004 55.9739L501.486 73.4159L512.202 82.4219L510.492 62.9279L499.776 54.0359ZM513.798 65.7779L515.508 85.1579L521.778 90.4019C522.462 85.3859 523.26 80.1419 524.4 75.0119V74.5559L517.902 69.0839L502.056 46.6259L500.916 47.4239L513.798 65.7779ZM525.54 70.7939L516.99 56.0879L515.736 56.7719L524.97 72.6179L525.54 70.7939ZM553.014 116.622L553.926 117.534L553.698 114.114C553.47 114.912 553.242 115.824 553.014 116.622ZM555.978 103.968L557.346 120.384L567.948 129.162L566.922 117.99C565.212 114.114 563.502 110.124 562.02 106.134L556.206 101.346C556.206 102.258 556.092 103.17 555.978 103.968ZM570.798 126.654L571.254 132.012C572.508 132.696 573.534 133.836 574.674 134.862L570.798 126.654ZM583.11 103.398L582.654 98.3819L581.286 98.4959C581.514 100.89 581.4 100.32 583.11 103.398ZM484.728 77.4059L499.32 76.1519L509.922 85.0439L490.428 86.6399L484.728 81.9659V77.4059ZM493.848 89.4899L513.228 87.7799L521.208 94.5059C521.208 95.3039 521.094 96.2159 520.98 97.0139L504.45 98.4959C502.398 96.6719 502.17 96.7859 500.916 95.0759L500.688 95.3039L497.838 92.9099L484.386 86.6399C484.5 86.1839 484.5 85.6139 484.5 85.1579L493.848 89.4899ZM507.756 101.346L520.524 100.206C520.182 102.486 519.84 104.652 519.384 106.818L517.674 103.854L513.684 106.134L510.948 103.74L505.818 102.03L504.336 100.092L507.756 101.346ZM496.242 98.4959C493.164 97.4699 494.19 98.2679 492.138 95.5319L497.496 97.5839L496.242 98.4959ZM512.772 111.948L511.632 110.238H511.86L512.772 111.948ZM552.216 123.12L555.066 122.892L565.668 131.898L555.636 132.696L552.216 123.12ZM556.776 135.774L563.958 135.09L565.668 144.78L560.196 145.236L556.776 135.774ZM572.964 137.94L578.322 142.386C578.436 142.842 578.664 143.184 578.892 143.64L574.104 143.982L572.964 137.94ZM548.568 137.712L546.744 137.598C546.858 137.142 547.086 136.686 547.2 136.23H548.112L548.568 137.712ZM576.84 156.75L576.27 156.864L574.56 147.06L580.374 146.604C580.602 147.174 580.944 147.63 581.172 148.2L576.84 156.75ZM566.808 150.822L564.984 149.34L561.792 149.682L561.336 148.314L566.238 147.858L566.808 150.822ZM481.422 117.762L482.448 117.876L481.422 116.052V117.762ZM453.378 96.6719L437.646 85.4999L436.848 86.6399L453.492 98.4959C453.492 97.8119 453.492 97.2419 453.378 96.6719ZM482.676 101.118L483.132 101.346L486.21 118.674L497.496 126.54L494.19 107.274L482.904 99.5219C482.904 99.9779 482.79 100.548 482.676 101.118ZM497.724 109.782L501.144 129.048L511.632 136.458C511.746 135.774 511.86 135.204 512.088 134.634L509.124 117.762L502.056 112.86L484.386 91.7699L483.816 92.2259C483.816 92.5679 483.816 92.9099 483.702 93.1379L497.724 109.782ZM512.658 120.27L513.912 127.566L515.508 121.866L500.118 99.9779L498.978 100.776L512.658 120.27ZM539.448 155.952L542.298 157.89L541.158 151.62C540.588 152.988 540.018 154.47 539.448 155.952ZM518.244 111.948L516.42 108.642L515.166 109.326L517.788 113.772L518.244 111.948ZM543.438 146.262L545.832 160.398L557.232 168.378L553.812 149.112L544.806 142.728C544.35 143.868 543.894 145.122 543.438 146.262ZM557.46 151.62L560.766 170.886L566.238 174.762L570.342 168.606L568.632 159.486L559.398 152.988L549.936 127.11L549.252 129.504L557.46 151.62ZM573.762 162.45L569.202 136.344L567.834 136.572L572.736 164.388C573.078 163.704 573.42 163.02 573.762 162.45ZM465.006 124.83L445.284 110.922L446.082 109.782L466.944 124.488L480.852 121.98L481.422 122.322V121.866L484.158 121.524L495.558 129.39L476.292 132.81L465.006 124.83ZM479.94 135.318L499.092 131.898L510.492 139.764L491.226 143.184L484.272 138.396L458.508 128.934L458.964 127.566L479.94 135.318ZM494.874 145.692L510.264 142.956C509.808 146.718 509.808 150.024 510.606 152.874L506.16 153.672L498.066 148.086L471.504 140.79L471.846 139.536L494.874 145.692ZM509.808 156.18L511.86 155.838C512.658 157.32 513.684 158.688 515.166 159.942L512.43 158.118L485.184 153.216L485.412 151.848L509.808 156.18ZM538.08 159.144L540.246 160.626L537.396 161.196C537.624 160.512 537.852 159.828 538.08 159.144ZM524.628 166.668L525.084 166.554C526.338 167.352 527.478 168.378 528.618 169.404L526.908 168.264L499.434 165.756L499.548 164.388L524.628 166.668ZM536.256 164.616L543.894 163.248L555.18 171.228L535.914 174.648L533.862 173.052L536.256 164.616ZM539.676 177.042L558.828 173.736L564.3 177.498C562.704 179.664 561.45 181.602 560.196 183.312L550.848 185.022L541.5 178.41H541.044L540.474 176.928L536.598 178.41H513.912V177.042H539.676ZM556.206 188.784L556.092 188.67L545.49 190.608L544.92 189.24L557.574 186.96C557.118 187.644 556.662 188.214 556.206 188.784ZM537.168 191.976L529.188 193.458L529.074 192.09L536.598 190.722L537.168 191.976ZM624.948 176.016L633.726 187.986L629.052 203.718L619.362 190.608L623.58 176.244L618.792 149.34L620.16 149.112L624.948 176.016ZM611.724 193.458L608.076 172.368L609.444 172.14L613.092 193.116L611.724 193.458ZM614.574 197.79L628.14 207.48L630.534 221.046L626.772 218.31V212.382H618.45L614.574 197.79ZM626.772 222.072L629.964 224.352C628.824 225.72 627.798 227.088 626.772 228.456V222.072ZM616.398 231.078L615.714 229.938L615.942 229.596L616.398 231.078ZM642.162 286.596L643.188 291.954L642.96 292.524L641.022 291.156L642.162 286.596ZM640.566 294.69L641.82 295.602L641.25 297.198L641.022 296.4L641.592 295.488L640.566 294.804V294.69ZM645.924 308.142L646.38 310.65L645.24 309.966L645.924 308.142ZM647.178 315.096C647.406 316.236 647.406 315.78 646.608 317.262L645.696 314.07L647.178 315.096ZM642.846 190.836L638.628 167.01L637.26 167.238L641.706 192.432L631.56 206.796L633.954 219.906C634.524 219.108 635.208 218.424 635.892 217.74L645.126 204.402L642.846 190.836ZM645.924 208.734L642.96 213.18C644.1 218.424 644.328 219.906 646.608 224.922L648.318 222.3L646.836 213.978L649.23 186.618L647.862 186.504L645.924 208.734ZM649.116 226.746L648.204 228C648.774 229.14 649.344 230.166 649.914 231.078L649.8 230.622L654.588 203.49L653.22 203.148L649.116 226.746ZM654.93 240.312L659.946 221.16L658.692 220.818L654.018 238.374C654.246 238.944 654.588 239.628 654.93 240.312ZM644.328 279.186L645.468 285.342L647.406 280.098L653.562 282.378L657.894 276.108L655.956 265.278L665.304 239.4L664.05 238.944L658.122 255.36C657.438 263.91 652.194 270.978 644.328 279.186ZM658.578 280.554L653.334 288.078L648.318 301.758L649.8 310.08C654.132 303.924 654.018 304.494 657.096 299.136L657.438 299.364L660.972 294.12L659.034 282.948L670.662 257.754L669.408 257.184L658.578 280.554ZM658.464 320.34L664.164 312.018L662.91 305.292L652.308 323.76L658.464 320.34ZM662.454 302.214L662.112 300.39L677.73 278.046L676.59 277.248L660.06 300.846L662.454 302.214ZM542.754 41.2679C554.952 80.0279 567.378 114.114 583.224 144.438C584.478 142.158 585.846 139.878 587.328 137.712L572.964 104.766L588.924 135.204L592.23 130.416C580.146 102.828 562.932 72.7319 542.754 41.2679ZM583.908 194.37L592.8 206.34L588.126 221.958L578.322 208.848L582.54 194.598L577.866 167.694L579.12 167.466L583.908 194.37ZM595.992 211.47L596.676 207.936C597.132 210.444 597.36 209.532 595.992 211.47ZM595.764 204.63L589.722 181.374L590.976 181.032L593.94 191.976L596.106 205.086L595.764 204.63ZM625.518 318.516L626.544 322.164L625.176 321.366C624.72 319.086 624.606 319.77 625.518 318.516ZM625.86 325.356L627.57 326.382L630.99 339.264C630.876 339.264 630.762 339.378 630.648 339.378L623.808 335.502L626.088 332.31L626.658 329.688L625.86 325.356ZM619.476 347.814L619.02 347.586L617.994 343.824L622.098 338.124L628.026 341.544L619.476 347.814ZM616.626 218.766L612.066 201.78L611.724 205.884L615.144 218.424L616.626 218.766ZM612.066 201.78L610.812 197.22L609.558 197.562L610.584 201.666L612.066 201.78ZM619.59 235.98L620.73 233.928L617.31 221.16L614.004 239.286L615.258 234.84L619.59 235.98ZM623.238 232.788V215.802H621.87V234.612C622.326 234.042 622.782 233.358 623.238 232.788ZM623.922 299.136L625.176 303.582L632.7 290.472L623.922 299.136ZM636.006 291.042L635.778 291.384L637.032 292.296L639.312 284.202C636.576 286.824 637.602 285.228 636.006 291.042ZM628.026 314.868L629.736 321.366L639.54 304.266L638.4 300.048L628.026 314.868ZM640.68 308.598L630.876 325.47L633.954 336.984H634.068C634.068 336.87 634.068 336.87 634.068 336.87C634.182 336.87 634.182 336.87 634.182 336.87C634.182 336.87 634.182 336.87 634.182 336.756C635.094 336.072 636.006 335.388 636.918 334.704L644.214 321.936L641.364 310.878L650.712 284.886L649.458 284.43L640.68 308.598ZM645.924 328.092L659.49 304.494L658.35 303.696L643.188 330.03C644.1 329.346 645.012 328.662 645.924 328.092ZM571.254 214.434L567.036 190.722L568.404 190.494L572.85 215.574L587.214 225.72L589.608 239.286L573.648 228.114L571.254 214.434ZM574.446 232.332L590.406 243.618L592.8 257.298L576.84 246.126L575.358 237.69L563.73 212.724L564.984 212.268L574.446 232.332ZM577.638 250.344L593.598 261.63L595.878 275.196L579.918 264.024L578.208 254.334L564.414 230.508L565.668 229.824L577.638 250.344ZM580.716 268.242L596.676 279.528L599.07 293.094L583.11 281.922L581.286 271.434L565.44 248.862L566.58 248.178L580.716 268.242ZM583.908 286.254L599.868 297.426L602.262 311.106L586.302 299.934L584.364 288.99L566.694 267.786L567.72 266.988L583.908 286.254ZM587.1 304.152L603.06 315.438L605.454 329.004L589.494 317.832L587.442 306.546L567.948 286.938L568.86 286.026L587.1 304.152ZM606.252 333.336L608.646 346.902L592.686 335.73L590.634 323.988L568.29 308.37L569.088 307.23L606.252 333.336ZM601.806 209.076V209.19L597.588 185.25L596.22 185.478L600.666 210.786L590.634 225.15L593.142 238.716L604.2 222.756L601.806 209.076ZM604.998 227.088L593.826 243.048L596.106 256.614L607.392 240.654L605.91 232.218L608.418 204.972L606.936 204.744L604.998 227.088ZM608.19 244.986L596.904 260.946L599.298 274.626L610.584 258.552L608.874 248.862L613.662 221.73L612.294 221.502L608.19 244.986ZM611.268 262.998L600.096 278.958L602.49 292.524L613.662 276.564L611.838 266.19L619.02 239.4L617.652 239.058L611.268 262.998ZM614.46 280.896L603.288 296.856L605.682 310.422L616.854 294.462L614.916 283.632L624.378 257.754L623.124 257.184L614.46 280.896ZM617.652 298.908L606.48 314.868L608.874 328.434L620.046 312.36L618.108 301.188L629.736 276.108L628.482 275.538L617.652 298.908ZM609.672 332.766L611.952 346.332L623.238 330.372L621.186 318.744L636.804 296.4L635.664 295.602L609.672 332.766ZM545.604 205.542L537.168 181.944L538.422 181.374L546.516 203.718C546.174 204.288 545.946 204.972 545.604 205.542ZM538.764 229.254L530.442 206.454L531.696 205.998L540.588 229.938L555.75 237.12C556.548 237.918 560.652 249.09 561.222 250.344L543.438 242.136L538.764 229.254ZM545.034 246.354L562.59 254.562L566.01 263.91L563.73 265.848L549.594 259.236L546.744 251.256L531.012 228.798L532.152 228L545.034 246.354ZM551.19 263.454L563.046 268.926L571.596 279.072L573.648 284.658C570.57 283.176 571.71 283.974 568.86 281.124L568.062 282.036L556.434 276.564C554.952 275.424 553.47 268.584 552.558 267.102L534.774 246.126L535.914 245.214L551.19 263.454ZM560.538 282.036L565.668 284.43L563.73 286.254L560.538 282.036ZM569.544 293.55C569.544 293.55 569.544 293.55 569.544 293.664L568.86 292.752L569.544 293.55ZM547.542 285.912L543.552 282.606L544.464 281.466C546.972 283.746 546.174 282.606 547.542 285.912ZM556.206 306.888L547.998 301.188L548.796 300.048L555.294 304.494L556.206 306.888ZM564.984 328.206L552.102 322.164L552.672 321.024L564.186 326.268L564.984 328.206ZM564.186 237.006L561.45 240.996L563.274 246.24L567.036 243.504L567.492 242.592L564.186 237.006ZM569.43 245.898L569.316 246.012L570.114 247.038L569.43 245.898ZM567.492 257.868C568.746 261.402 568.86 263.112 571.026 265.62L571.824 263.91L567.492 257.868ZM573.876 266.874L573.192 268.128L578.208 274.17L578.094 272.916L573.876 266.874ZM576.384 308.142L542.184 263.91C557.802 301.644 563.73 332.31 589.38 365.598L596.562 361.494L582.198 334.362L599.982 359.556C602.034 358.416 604.2 357.162 606.822 355.908L606.138 352.374L590.862 343.14L587.442 326.04L563.388 309.282L568.176 302.556L576.384 308.142ZM675.906 344.394L680.58 309.282L664.848 347.13C665.874 351.576 666.216 355.452 665.874 358.872L670.206 342.912L675.906 344.394ZM581.856 506.73L579.804 514.368L589.038 514.026L595.194 510.378L598.272 498.978L621.87 485.298L621.186 484.044L581.856 506.73ZM578.55 505.818L576.27 514.482C575.016 514.596 573.648 514.596 572.28 514.596L565.212 502.284L565.896 499.548L573.306 496.812L578.55 505.818ZM567.834 489.972L567.378 489.288L568.062 487.692L569.088 489.516L567.834 489.972ZM620.16 399L607.278 411.882L610.584 409.374L611.952 411.198L623.694 404.358L626.202 395.58L620.16 399ZM622.554 408.69L614.004 413.478L615.828 415.644L603.516 426.018L602.832 428.868L604.884 427.386L606.252 429.324L618.906 422.028L621.414 412.452L637.26 389.88L636.12 389.196L622.554 408.69ZM617.766 426.246L608.076 431.832L609.672 434.112L605.568 436.962C608.988 436.164 612.18 435.252 615.6 434.226L616.854 429.438L634.638 408.234L633.612 407.322L617.766 426.246ZM628.482 430.236L631.788 427.044L630.762 426.132L625.746 431.148L628.482 430.236ZM585.732 492.252L583.11 502.17L599.982 492.366L602.718 482.562C593.484 484.158 597.132 482.904 588.24 487.806L589.38 490.998L585.732 492.252ZM598.956 429.894L598.614 430.806L598.272 430.236L598.956 429.894ZM595.878 432.288L596.448 433.2L592.116 436.278C593.028 434.34 593.37 434.454 595.878 432.288ZM581.742 493.734L579.804 501.258L576.612 495.672L581.742 493.734ZM572.394 488.376L570.912 485.754C574.218 485.64 577.638 485.412 580.83 485.184L572.394 488.376ZM617.538 491.796L615.714 498.636L613.092 494.304L617.538 491.796ZM609.102 487.122L606.594 482.904L609.672 481.422C611.952 481.08 614.232 480.738 616.398 480.396L617.538 482.334L609.102 487.122ZM620.844 479.598L620.616 480.51L620.16 480.738L619.704 479.826C620.046 479.712 620.388 479.712 620.844 479.598ZM627.342 422.256L628.254 423.738L621.186 430.806L620.73 430.122L627.342 422.256ZM636.234 411.768L638.172 414.846L635.208 425.676L630.762 421.23L630.534 421.458L629.508 419.634L636.234 411.768ZM639.882 392.274L642.846 397.29L639.312 410.742L638.4 409.146L639.54 407.778C635.094 404.13 636.348 405.726 633.726 401.052L639.882 392.274ZM646.266 384.294L643.872 393.186L641.934 389.424L642.162 389.082L640.794 387.6C642.732 386.46 644.556 385.32 646.266 384.294ZM621.756 489.288L619.02 499.548L635.892 489.744L638.97 478.344L662.568 464.778L661.884 463.524L625.518 484.614L626.658 486.552L621.756 489.288ZM624.606 478.914L623.808 481.764L623.922 481.878L632.7 476.748C630.078 477.546 627.456 478.23 624.606 478.914ZM655.842 423.168L670.548 405.612L669.522 404.7L653.676 423.624L655.842 423.168ZM658.35 406.068L641.478 415.758L638.4 427.272C640.224 426.816 641.934 426.246 643.644 425.79L654.816 419.406L657.324 409.944L673.17 387.372L672.03 386.574L658.35 406.068ZM663.024 388.512L646.152 398.202L642.618 411.54L659.49 401.85L661.656 393.528L675.45 369.816L674.31 369.132L663.024 388.512ZM667.812 370.842L667.698 370.956L674.082 347.472L672.714 347.13L665.988 371.868L655.272 378.138C653.79 379.278 652.308 380.418 650.598 381.444L647.292 393.87L664.164 384.18L667.812 370.842ZM661.998 335.844L665.19 323.646L663.936 323.19L661.314 332.766L661.998 335.844ZM614.346 503.31L611.61 513.912C610.812 513.798 610.014 513.798 609.216 513.684L601.806 500.916L610.242 496.014L614.346 503.31ZM605.112 487.008L606.138 488.832L604.314 489.858L605.112 487.008ZM617.766 504.222L615.144 514.14L619.476 514.482L631.104 507.756L634.182 496.356L657.78 482.79L657.096 481.536L617.766 504.222ZM541.842 503.082L537.738 512.088L544.122 512.772L554.382 509.01L559.398 498.294L584.934 488.946L584.478 487.578L541.842 503.082ZM538.764 501.714L533.976 511.746C533.292 511.632 532.608 511.632 531.924 511.518L526.224 495.9L531.126 485.07L521.892 459.534L523.26 459.078L538.764 501.714ZM606.594 396.948L588.24 403.674L582.312 416.214L600.666 409.602L604.314 401.85L621.984 380.76L620.958 379.848L606.594 396.948ZM598.842 413.478L580.488 420.204L574.674 432.744L593.028 426.132L597.132 417.126L616.626 397.632L615.714 396.606L598.842 413.478ZM591.204 430.008L572.85 436.734L566.922 449.16L585.276 442.548L589.836 432.972L610.926 415.188L610.128 414.162L591.204 430.008ZM583.452 446.538L565.098 453.15L559.284 465.804L577.638 459.078L582.312 449.046L604.884 433.2L604.086 432.06L583.452 446.538ZM575.814 463.068L557.46 469.68L551.532 482.334L570 475.608L574.788 465.234L598.614 451.326L597.93 450.186L575.814 463.068ZM549.708 486.21L543.894 498.75L562.248 492.024L567.264 481.422L592.914 471.96L592.458 470.706L549.708 486.21ZM578.322 383.838L585.048 402.192L579.234 414.732L572.622 396.378L576.156 388.74L580.83 361.608L582.198 361.836L578.322 383.838ZM570.684 400.368L577.41 418.722L571.596 431.262L564.87 412.908L568.974 404.016L571.368 376.428L572.85 376.542L570.684 400.368ZM562.932 416.898L569.658 435.252L563.844 447.792L557.232 429.438L561.678 419.862V392.274H562.932V416.898ZM555.294 433.428L562.02 451.782L556.206 464.322L549.48 445.968L554.154 435.936L551.76 408.576L553.128 408.462L555.294 433.428ZM547.542 449.958L554.268 468.198L548.454 480.852L541.842 462.498L546.516 452.01L541.842 424.878L543.21 424.65L547.542 449.958ZM546.516 484.728L540.816 497.382L534.09 478.914L539.106 468.198L529.758 442.662L531.012 442.092L546.516 484.728ZM644.442 517.674C631.56 524.286 619.932 530.67 609.102 536.94C606.252 544.806 602.832 550.278 598.614 553.812L599.982 556.206C614.004 545.034 628.368 532.494 644.442 517.674ZM582.654 559.854C579.234 560.196 575.7 560.082 571.824 559.854C569.886 561.222 567.948 562.476 566.01 563.844H575.814L582.654 559.854ZM396.036 596.904L390.906 615.714L380.418 621.87C382.128 614.802 384.066 608.304 386.916 602.148L393.186 598.5L409.032 575.814L410.172 576.612L396.036 596.904ZM411.768 587.784L406.752 606.708L394.782 613.548L399.798 594.624L408.234 589.836L411.654 585.846L412.908 586.416L411.768 587.784ZM412.11 598.614L415.074 587.556C416.1 588.012 417.126 588.582 418.152 589.152L417.81 593.826L412.11 598.614ZM406.866 622.554L392.73 618.792L380.76 625.746L399.57 630.648L404.244 628.14L403.902 628.026L406.638 625.86L406.866 622.554ZM408.006 610.014L396.492 616.512L407.208 619.476L408.006 610.014ZM516.306 584.592H504.222C507.414 585.618 510.606 586.644 513.798 587.67L536.37 574.674L535.686 573.42L516.306 584.592ZM522.12 590.292L525.654 588.696L525.084 587.442L520.182 589.722C520.866 589.95 521.436 590.064 522.12 590.292ZM477.774 623.238H471.618L471.39 625.518L457.14 624.264L448.362 632.928H461.244C463.866 632.472 466.488 632.13 469.11 631.788L475.836 625.176L480.624 623.922C478.572 622.782 479.028 622.896 477.774 623.238ZM435.252 658.692H442.32L443.46 657.552C440.724 658.008 437.988 658.35 435.252 658.692ZM461.814 614.688L460.332 616.17L458.964 616.056V613.32L461.814 614.688ZM455.772 611.838V615.714L451.212 615.372L455.658 611.61C455.658 611.838 455.772 611.838 455.772 611.838ZM452.694 623.922L446.082 630.534V623.352L452.694 623.922ZM442.89 623.01V633.612L439.812 636.804C437.532 637.26 435.366 637.716 433.086 638.172V629.964L434.226 629.736L442.206 623.01H442.89ZM420.318 641.136V636.69L427.044 629.964L430.122 630.306V638.856C426.816 639.54 423.51 640.338 420.318 641.136ZM423.168 616.398L412.566 625.29L431.946 627L441.066 619.362L468.198 621.756L468.312 620.388L423.168 616.398ZM420.888 613.776L410.4 622.668L412.11 603.174L421.116 595.536L423.51 568.404L424.878 568.518L420.888 613.776ZM526.68 547.542L507.186 545.832L496.47 554.838L515.964 556.548L522.576 551.076L547.314 539.334L546.744 538.194L526.68 547.542ZM512.772 559.284L493.278 557.574L482.562 566.466L502.056 568.176L509.58 561.906L535.458 552.444L535.002 551.19L512.772 559.284ZM498.636 571.026L479.37 569.316L468.654 578.094L488.148 579.804L496.242 573.078L522.918 565.896L522.576 564.642L498.636 571.026ZM484.728 582.654L465.234 580.944L454.746 589.95L474.24 591.66L482.676 584.478L509.808 579.69L509.58 578.322L484.728 582.654ZM470.82 594.396L451.326 592.8L440.838 601.578L460.332 603.288L468.996 595.878L496.47 593.598V592.23L470.82 594.396ZM437.418 604.428L426.93 613.206L446.31 615.03L455.43 607.392L482.448 609.786L482.562 608.418L437.418 604.428ZM506.616 523.716L504.906 543.21L494.418 552.102L496.128 532.608L502.512 527.136L518.244 504.678L519.384 505.476L506.616 523.716ZM492.708 535.458L490.998 554.952L480.396 563.844L482.106 544.35L489.63 538.08L503.424 514.14L504.564 514.824L492.708 535.458ZM478.8 547.2L477.09 566.694L466.374 575.472L468.198 556.092L476.292 549.252L487.92 524.172L489.174 524.742L478.8 547.2ZM464.778 558.828L463.182 578.322L452.466 587.214L454.176 567.834L462.726 560.652L472.074 534.888L473.442 535.344L464.778 558.828ZM450.87 570.684L449.16 590.064L438.558 598.956L440.268 579.462L448.932 572.166L456.228 545.376L457.482 545.832L450.87 570.684ZM435.138 601.806L424.65 610.698L426.36 591.204L435.366 583.566L437.76 556.434L439.128 556.548L435.138 601.806ZM394.098 659.49C448.134 655.5 486.666 647.52 545.148 628.938C481.878 631.56 442.548 637.374 387.714 653.334L390.108 655.956L445.056 645.126L477.888 639.654L442.32 646.722L391.704 657.552C392.616 658.464 393.072 658.692 394.098 659.49ZM436.05 705.888L443.574 702.354L432.174 686.508L445.056 701.67L452.808 698.136L437.646 680.238L454.746 697.224L462.84 693.462L443.118 673.74L465.234 692.322L473.67 688.332L448.362 667.242L476.748 686.964L485.412 682.974L453.834 660.858L489.06 681.264L498.18 676.932L459.876 654.816L449.16 656.64L443.688 662.226C426.132 662.226 416.784 661.086 404.928 662.112L436.05 705.888ZM459.99 654.702L502.626 674.88L512.316 670.434L476.976 653.79H464.892C463.296 654.132 461.7 654.474 459.99 654.702ZM419.976 632.814L409.83 628.938L397.974 635.778L391.134 633.612L381.672 638.514L388.398 632.13L381.9 629.622L384.294 632.244L379.848 637.944L381.102 640.908L389.196 637.716L391.818 639.882L384.18 646.95L409.602 633.498L385.206 648.888L386.802 651.168L408.918 642.732L417.126 636.576L419.976 632.814ZM576.726 567.378H557.232L547.314 577.068H566.922L572.964 571.14L596.676 557.346L595.992 556.206L576.726 567.378ZM563.73 580.146H544.35L534.546 589.95H554.04L560.994 582.996L585.96 571.368L585.39 570.114L563.73 580.146ZM550.962 593.028H531.354L531.126 593.37L544.806 599.184L548.682 595.308L574.674 585.96L574.218 584.592L550.962 593.028ZM554.724 558.258V564.87L545.034 574.674V557.232C545.034 557.232 545.148 557.232 545.148 557.346L554.724 558.258ZM541.842 558.144V577.752L532.038 587.556V581.058L541.158 575.814L536.94 568.746L532.038 571.482V567.948L538.992 560.994L540.93 556.89C541.386 556.89 541.956 557.118 542.412 557.118L541.842 558.144ZM529.074 571.14V573.306L523.83 576.27L526.68 573.42L532.608 557.118L534.318 556.548L529.074 571.14ZM529.074 582.882V587.556L527.364 583.908L529.074 582.882ZM528.618 591.204C527.478 592.116 527.592 592.23 526.908 591.888L528.618 591.204ZM515.394 581.058L518.244 570.798L519.726 570.342L517.104 580.146L515.394 581.058ZM480.51 629.736V627.456C487.464 625.518 483.93 625.632 490.428 628.026V628.14L480.51 629.736Z" fill="#FBDD73"/>
<path d="M165.414 134.064H517.104V478.458C517.104 549.48 441.408 538.878 405.156 538.878C377.34 538.878 365.484 539.448 341.316 560.652C317.148 539.448 305.178 538.878 277.362 538.878C241.11 538.878 165.414 549.48 165.414 478.458V134.064Z" fill="#1F1A17"/>
<path d="M506.958 499.206C504.906 504.792 503.196 508.44 499.206 513.228C486.324 528.504 460.788 531.696 442.434 532.038C422.826 532.38 391.362 529.872 373.806 533.862C361.608 536.598 350.778 543.324 341.316 551.304C317.832 532.266 304.038 531.24 273.714 531.582C246.468 531.81 198.93 536.598 181.032 510.15C174.42 500.346 172.824 489.972 172.596 478.344V344.964H510.036C510.036 352.83 510.264 477.09 509.808 484.272C509.352 490.428 508.554 493.506 506.958 499.206Z" fill="#DE411A"/>
<path d="M234.156 314.868C212.838 313.842 193.458 313.386 172.14 315.324V281.922C180.234 281.922 189.354 283.404 198.702 286.596C216.714 292.98 230.052 304.152 234.156 314.868ZM244.758 295.83V295.944C255.36 300.96 262.998 305.748 266.418 317.376C256.956 316.578 247.722 315.78 238.26 315.21C238.26 313.614 235.296 308.484 234.27 306.774C229.596 299.82 220.818 293.094 213.522 289.104C213.522 288.99 213.408 288.99 213.408 288.99C224.466 289.446 235.068 291.498 244.758 295.83ZM221.046 285.684C217.056 285.114 212.838 285.114 208.848 285.114C203.49 285.114 208.164 286.14 200.07 283.062C193.686 280.782 185.478 279.072 178.752 278.388C176.472 278.16 174.306 278.16 172.14 278.046V266.874C175.446 266.988 178.866 267.216 182.4 267.672C199.614 270.18 213.978 277.248 221.046 285.684ZM225.492 274.17C225.492 274.284 225.606 274.398 225.606 274.512C230.622 276.678 233.7 278.16 237.576 282.378C240.312 285.114 242.022 287.508 243.39 291.042C239.514 289.788 235.296 288.078 231.192 287.28C229.596 287.052 228 286.71 226.404 286.368C222.414 279.756 213.066 273.372 205.998 270.408C205.428 270.18 204.744 269.952 204.174 269.61C212.154 270.18 219.45 271.776 225.492 274.17ZM194.94 265.848L192.546 265.962C187.53 264.252 177.612 263.226 172.14 263.226V251.37C180.69 253.536 190.38 258.096 194.94 265.848ZM205.086 258.21C212.04 260.832 217.056 262.884 222.3 268.47C222.528 268.698 222.642 268.926 222.87 269.154C215.232 266.874 207.252 265.734 199.272 265.734C196.08 259.92 194.94 259.122 189.696 254.904C195.282 255.474 200.526 256.614 205.086 258.21ZM194.256 248.634C196.308 250.002 198.702 251.142 200.412 252.852C194.826 251.598 191.406 251.256 185.706 250.8C178.866 250.344 184.338 251.37 178.524 249.204L172.14 247.38V244.416C180.348 244.074 186.96 245.442 194.256 248.634Z" fill="white"/>
<path d="M171.912 337.896V318.516C204.63 315.096 236.778 317.376 269.382 320.682C265.506 304.836 261.402 300.504 247.38 293.094C245.67 283.404 235.866 274.398 228.912 271.776C226.86 267.102 225.378 265.62 221.16 262.2C217.056 258.666 213.978 257.412 209.19 255.816C201.894 245.214 187.074 240.426 171.912 241.908V141.246H509.352V337.896H171.912Z" fill="#007CC3"/>
<path d="M367.308 171C369.816 168.036 372.894 168.492 375.06 170.886C377.454 173.622 377.91 179.778 382.584 183.768C388.398 189.012 394.896 188.328 399.342 187.53C400.938 187.416 405.27 185.934 407.778 183.654C409.716 181.944 410.742 178.296 407.778 177.27C406.752 176.814 405.498 176.472 405.954 175.446C407.094 172.596 413.592 177.27 408.462 183.654C407.892 184.338 407.322 186.618 409.146 188.1C413.25 191.406 427.386 178.752 421.686 175.446C423.168 171.684 425.904 171.342 429.096 171C427.956 171.342 426.018 172.026 425.22 173.736C422.028 180.348 429.438 183.996 433.77 181.488C441.18 185.022 454.062 178.524 458.28 172.482C461.244 168.036 459.648 162.108 455.772 160.854C448.476 158.46 450.072 152.532 451.782 151.164C453.72 149.568 456.114 149.226 457.824 149.112C456.684 149.454 454.86 149.568 453.15 151.734C451.554 154.014 452.352 158.346 455.202 160.056C458.508 162.108 470.934 158.232 473.67 153.672C476.292 149.226 477.318 143.412 472.302 144.438C469.566 145.008 469.11 141.588 472.644 141.816C479.028 142.272 475.95 150.024 474.126 153.216C476.862 150.024 478.572 145.92 478.23 141.246H423.168C420.432 142.158 419.064 143.298 419.064 143.298C429.096 139.65 431.148 150.024 429.666 151.164C426.018 153.672 430.92 141.132 418.494 143.868C416.442 144.324 413.364 147.972 412.794 148.998C412.224 150.024 408.918 157.206 413.706 160.056C418.266 163.02 423.966 157.32 423.966 157.32C423.966 157.32 423.282 160.398 419.178 161.88C415.074 163.362 409.83 158.688 407.436 155.952C405.042 153.102 409.488 156.066 403.104 149.796C396.834 143.412 387.258 144.21 387.258 144.21C392.046 145.236 395.466 148.998 395.238 153.216C394.326 150.822 393.414 148.77 391.932 147.63C387.258 144.096 380.646 142.842 374.034 143.868C364.344 145.464 359.898 155.496 353.514 156.864C350.892 157.434 347.13 157.776 348.156 155.382C349.182 152.988 351.006 156.294 353.742 155.724C355.566 155.382 358.074 154.242 359.784 152.304C353.628 150.48 346.218 148.77 342.114 148.656C329.802 148.314 321.366 152.76 317.832 163.02H356.592L367.308 171Z" fill="white"/>
<path d="M308.598 163.02V172.71H313.614V194.598C300.162 202.464 292.068 217.284 291.384 232.902H282.264V244.302H273.942V321.822H411.882V244.302H403.446V232.902H393.87C393.072 213.408 381.102 196.992 364.8 191.406V180.576H367.422V171L356.592 163.02H308.598Z" fill="#1F1A17"/>
<path d="M311.448 165.756H353.856V169.974H311.448V165.756ZM347.7 191.634C346.56 191.178 345.42 190.722 344.28 190.38V173.394H348.954V192.204L347.7 191.634ZM340.062 189.354C334.704 188.214 329.802 188.556 324.444 189.582V173.394H340.86V189.468L340.062 189.354ZM320.682 190.722L316.464 192.432V173.394H320.91V190.608L320.682 190.722ZM293.778 234.042C294.348 228.684 294.234 225.948 296.172 220.476C300.276 208.62 308.256 199.158 319.998 194.37L326.952 192.66V196.764C317.718 198.36 309.396 204.744 304.494 212.496C298.794 221.73 298.11 228.798 297.654 239.856H288.876V251.142H280.554V319.2H276.45V247.038H284.772V235.752H293.664L293.778 234.042ZM341.43 193.23C347.586 195.168 351.348 196.878 356.478 201.21C360.24 204.402 364.344 209.874 366.51 214.32C370.386 221.958 370.956 227.43 371.526 235.752H380.532V247.038H388.854V319.2H384.636V251.142H376.428V239.856H367.65C366.852 228.342 366.966 223.668 361.494 213.636C359.214 209.646 354.312 204.402 350.208 201.78C345.534 198.816 344.052 198.018 338.352 196.764V192.66C339.378 192.774 340.404 193.002 341.43 193.23ZM330.372 192.204H334.818V319.2H330.372V192.204ZM364.458 243.39H372.894V254.676H381.33V319.2H368.22V258.552C367.308 248.064 353.628 242.136 345.306 251.598C343.368 253.878 342.342 256.956 342.342 259.92V319.2H338.352V200.298C347.586 202.122 355.566 209.418 359.67 217.626C364.002 226.29 363.888 233.7 364.458 243.39ZM326.952 200.298V319.2H322.962L322.848 258.552C322.164 253.65 319.428 249.888 314.982 247.95C308.712 245.1 300.732 248.292 297.996 254.79L296.97 259.92V319.2H284.088V254.676H292.296V243.39H300.846C301.758 233.13 301.188 225.036 306.774 215.346C310.878 208.392 318.744 201.78 326.952 200.298Z" fill="white"/>
<path d="M411.882 317.49C444.372 317.376 476.862 292.41 509.352 291.726V303.24C476.862 303.696 444.372 321.708 411.882 321.822V317.49ZM509.352 243.048V254.562C476.862 255.93 444.372 303.126 411.882 303.354V299.136C444.372 298.794 476.862 244.644 509.352 243.048ZM509.352 259.692V271.32C476.862 272.346 444.372 309.396 411.882 309.624V305.178C444.372 304.95 476.862 261.06 509.352 259.692ZM509.352 276.222V287.736C476.862 288.534 444.372 315.666 411.882 315.78V311.334C444.372 311.22 476.862 277.248 509.352 276.222Z" fill="white"/>
<path d="M396.036 507.072V489.516H388.626C380.532 479.598 368.334 482.904 361.266 478.686C353.856 474.354 352.488 467.058 363.204 465.576C365.256 465.234 367.308 465.006 369.36 464.778C368.79 461.586 367.422 458.052 364.8 455.886C382.812 454.974 394.896 452.466 412.11 445.626C418.494 442.89 424.536 439.926 430.578 436.392C434.568 433.884 438.444 431.148 442.434 428.412C443.46 427.5 447.222 424.536 450.3 422.256C454.974 418.95 455.316 418.494 453.264 414.618C450.984 410.4 447.906 409.146 443.574 408.234V403.788H456.684C453.72 397.062 451.44 392.16 444.144 389.424V383.838C379.734 383.838 302.784 383.838 238.374 383.838V389.424C230.85 392.388 228.798 397.29 225.948 403.788H239.058V408.234C234.954 409.146 231.192 410.514 229.254 414.618C227.544 418.266 227.43 418.836 232.218 422.256C240.996 428.526 243.048 430.92 252.168 436.392C264.48 443.916 281.466 450.528 295.602 453.378C303.24 454.974 310.764 455.544 317.832 455.886C314.982 458.052 313.956 461.814 313.158 464.778C316.578 465.12 322.278 465.462 325.014 467.286C330.144 470.706 325.698 479.028 314.754 480.852C307.344 481.992 298.794 483.018 294.006 489.516H286.482V507.072H396.036Z" fill="#1F1A17"/>
<path d="M322.848 480.966C329.346 477.432 332.766 469.452 326.61 465.12C336.414 465.12 346.218 465.12 355.908 465.12C355.224 465.69 354.54 466.146 353.97 466.83C350.322 472.188 354.996 478.344 359.784 480.966C347.472 480.966 335.046 480.966 322.848 480.966ZM440.724 403.674V408.348H241.794V403.674H440.724ZM441.408 391.932C446.538 392.274 450.3 396.378 452.352 400.938H230.28C231.99 396.72 236.208 392.046 241.224 391.932H441.408ZM441.408 386.688V389.196H241.11V386.688H441.408ZM359.442 453.492C376.428 453.378 386.46 451.326 397.974 448.248C410.628 444.03 422.028 438.672 433.2 431.376C439.584 427.044 445.512 422.37 451.44 417.468C450.072 414.504 449.274 412.566 444.942 411.426C440.154 410.058 439.356 410.172 434.34 411.882C423.168 415.986 416.1 431.034 400.71 440.382C389.424 447.45 377.34 450.528 359.442 453.492ZM356.022 451.668C356.022 451.782 357.048 451.668 357.504 451.554C367.65 450.414 370.5 450.984 381.444 447.564C401.622 440.61 405.27 436.392 412.11 429.552C416.1 425.334 419.634 421.344 423.51 416.67C429.552 409.716 413.706 408.348 409.26 413.478C404.13 419.406 403.674 420.888 398.772 426.474C393.3 432.288 387.144 441.18 376.998 445.512C371.64 447.792 364.002 449.502 357.39 451.212C356.934 451.326 355.794 451.554 356.022 451.668ZM351.69 450.87C351.804 450.87 352.488 450.756 352.944 450.642C361.038 449.16 364.8 448.932 372.666 445.854C387.486 439.926 389.082 435.252 395.124 428.982C398.43 425.106 401.622 420.888 404.7 416.442C409.374 409.716 395.238 408.918 392.16 413.592C386.004 423.054 385.092 427.386 377.454 435.594C367.764 445.854 350.55 450.3 351.69 450.87ZM346.788 449.958C347.016 450.072 347.7 449.844 348.042 449.844C354.312 448.704 357.732 447.45 362.976 444.714C372.894 439.47 378.252 434.112 381.9 428.412C384.294 424.308 386.46 421.116 389.082 416.328C392.844 409.716 378.48 408.462 375.63 414.276C371.868 422.37 371.298 425.904 365.484 433.77C355.11 447.792 345.306 448.932 346.788 449.958ZM343.14 449.958C344.394 450.642 351.12 445.626 352.488 444.714C360.012 439.47 364.002 434.112 367.65 428.412C369.816 424.992 371.298 421.116 373.236 416.328C375.972 409.716 361.152 407.664 358.302 415.986C355.68 423.852 355.68 426.474 352.26 433.77C349.41 440.382 348.384 443.232 343.824 448.932C343.596 449.16 342.798 449.616 343.14 449.958ZM341.772 449.844C342.114 449.844 342.342 449.502 342.456 449.274C348.726 439.812 351.804 432.402 356.25 417.126C358.644 408.918 343.482 407.322 343.026 416.784L341.544 448.932C341.544 449.16 341.544 449.844 341.772 449.844ZM316.692 462.384H365.94C365.598 461.244 364.914 460.104 364.116 459.306C357.504 452.352 349.98 450.87 341.088 450.87C332.88 450.87 324.216 452.694 318.402 459.306C317.718 460.104 317.148 461.244 316.692 462.384ZM372.324 484.272C378.138 485.412 380.646 486.096 384.864 489.516H297.768C301.074 486.21 305.862 485.184 310.308 484.272C311.562 484.044 312.816 483.93 314.07 483.816C332.196 483.816 350.322 483.816 368.562 483.816C369.816 483.93 371.07 484.044 372.324 484.272ZM393.3 492.252V495.216H289.332V492.252H393.3ZM393.3 497.952V504.336C357.162 504.336 325.47 504.336 289.332 504.336V497.952H393.3ZM323.076 453.492C306.09 453.378 296.172 451.326 284.772 448.248C272.004 444.03 260.604 438.672 249.318 431.376L231.078 417.354C232.56 414.39 233.586 412.452 237.576 411.426C242.478 410.058 243.276 410.172 248.292 411.882C259.122 415.986 267.102 431.376 281.808 440.382C293.208 447.45 305.178 450.528 323.076 453.492ZM326.61 451.668C326.496 451.782 325.47 451.668 325.014 451.554C314.982 450.414 312.132 450.984 301.074 447.564C280.896 440.61 277.248 436.392 270.522 429.552C266.532 425.334 262.884 421.344 259.008 416.67C253.08 409.716 268.812 408.348 273.372 413.478C278.388 419.406 278.844 420.888 283.974 426.474C289.218 432.288 295.488 441.18 305.634 445.512C310.878 447.792 318.63 449.502 325.128 451.212C325.584 451.326 326.724 451.554 326.61 451.668ZM330.942 450.87C330.828 450.87 330.03 450.756 329.688 450.642C321.594 449.16 317.718 448.932 309.852 445.854C295.146 439.926 293.55 435.252 287.508 428.982C284.202 425.106 280.896 420.888 277.932 416.442C273.144 409.716 287.394 408.918 290.472 413.592C296.514 423.054 297.426 427.386 305.178 435.594C314.868 445.854 331.854 450.186 330.942 450.87ZM335.844 449.958C335.502 450.072 334.818 449.844 334.59 449.844C328.32 448.704 324.786 447.45 319.542 444.714C309.738 439.47 304.38 434.112 300.732 428.412C298.224 424.308 296.058 421.116 293.436 416.328C289.788 409.716 304.152 408.462 306.888 414.276C310.764 422.37 311.22 425.904 317.148 433.77C327.408 447.678 337.212 449.046 335.844 449.958ZM339.378 449.958C338.694 450.756 331.17 445.512 330.03 444.714C322.62 439.47 318.63 434.112 314.868 428.412C312.816 424.992 311.334 421.116 309.396 416.328C306.66 409.716 321.366 407.664 324.216 415.986C326.952 423.852 326.838 426.474 330.258 433.77C333.222 440.382 334.248 443.232 338.808 448.932C338.922 449.16 339.72 449.616 339.378 449.958ZM340.86 449.844C340.518 449.844 340.176 449.502 340.176 449.274C333.906 439.812 330.828 432.402 326.382 417.126C323.988 408.918 339.15 407.322 339.606 416.784L341.088 448.932C341.088 449.16 341.088 449.844 340.86 449.844Z" fill="#007436"/>
</g>
<defs>
<clipPath id="clip0_806_92511">
<rect width="684" height="710.22" fill="white"/>
</clipPath>
</defs>
</svg>
