<svg id="id-svg" width="580" height="710" viewBox="0 0 580 710" fill="none" xmlns="http://www.w3.org/2000/svg">
<g clip-path="url(#clip0_806_92499)">
<path fill-rule="evenodd" clip-rule="evenodd" d="M2.97079 537.558C2.97079 568.911 52.4034 627.18 89.3431 627.179L197.877 627.182C246.639 627.182 283.442 670.109 283.445 706.309C290.025 706.31 290.293 706.31 297.28 706.311C297.279 669.706 320.651 627.046 382.98 627.045L489.905 627.047C528.722 627.045 577.08 568.913 577.081 537.557C577.079 358.849 577.078 180.948 577.08 2.91041L2.96826 2.77588L2.97079 537.558Z" fill="#00923F"/>
<path d="M89.343 624.431V629.927L85.5975 629.748L81.8014 629.222L77.9871 628.375L74.155 627.222L70.316 625.779L66.472 624.085L62.6545 622.131L58.8433 619.944L55.0719 617.542L51.3282 614.939L47.6465 612.15L44.0166 609.191L40.4498 606.089L36.9677 602.836L33.5708 599.462L30.282 595.991L27.1011 592.416L24.0403 588.766L21.1102 585.054L18.333 581.298L15.6985 577.502L13.2288 573.691L10.9462 569.873L8.84032 566.07L6.94483 562.291L5.24829 558.548L3.77346 554.849L2.54243 551.219L1.55583 547.662L0.823786 544.195L0.381019 540.821L0.216797 537.558H5.72454L5.84581 540.325L6.24562 543.267L6.89051 546.368L7.7912 549.602L8.93633 552.953L10.3038 556.393L11.893 559.92L13.7025 563.506L15.701 567.135L17.8978 570.782L20.2588 574.441L22.7859 578.087L25.4772 581.714L28.2999 585.296L31.2534 588.817L34.3269 592.262L37.5084 595.625L40.7751 598.871L44.1284 601.993L47.5448 604.988L51.0244 607.818L54.5558 610.477L58.1049 612.952L61.683 615.225L65.258 617.282L68.838 619.106L72.3814 620.694L75.897 622.006L79.364 623.051L82.7691 623.812L86.0927 624.274L89.343 624.431ZM197.876 629.93L89.343 629.927V624.431L197.876 624.434V629.93ZM283.445 703.56V709.057L280.702 706.309L280.595 703.058L280.287 699.788L279.795 696.476L279.09 693.151L278.208 689.812L277.134 686.469L275.871 683.141L274.435 679.827L272.821 676.545L271.042 673.295L269.094 670.096L266.979 666.948L264.714 663.87L262.292 660.869L259.719 657.947L257.009 655.121L254.157 652.401L251.166 649.785L248.051 647.294L244.819 644.936L241.451 642.709L237.985 640.635L234.392 638.721L230.71 636.965L226.91 635.389L223.02 634.001L219.043 632.787L214.972 631.791L210.814 630.988L206.583 630.41L202.273 630.055L197.876 629.93V624.434L202.552 624.558L207.164 624.936L211.696 625.558L216.134 626.403L220.484 627.485L224.741 628.763L228.89 630.259L232.926 631.944L236.866 633.807L240.674 635.85L244.377 638.054L247.938 640.41L251.386 642.919L254.694 645.561L257.857 648.327L260.881 651.22L263.764 654.217L266.488 657.313L269.06 660.507L271.475 663.78L273.718 667.123L275.796 670.536L277.705 674.002L279.426 677.52L280.969 681.071L282.319 684.658L283.478 688.261L284.446 691.879L285.195 695.506L285.752 699.12L286.081 702.735L286.188 706.309L283.445 703.56ZM283.445 709.057H280.703L280.702 706.309L283.445 709.057ZM294.537 706.311H300.023L297.28 709.059L296.644 709.07L296.046 709.059L295.481 709.059H294.949L294.447 709.069L293.973 709.059H293.523L293.096 709.069H292.689L292.3 709.059L291.927 709.058H291.567L291.217 709.069H290.876H290.541H290.21H289.88H289.548H289.213H288.872L288.522 709.058L288.162 709.057L287.789 709.068H287.4H286.994L286.567 709.057L286.117 709.068H285.642L285.14 709.057L284.608 709.057L284.044 709.067L283.445 709.057V703.56L284.044 703.55L284.608 703.56L285.14 703.561L285.642 703.55H286.117L286.567 703.561L286.994 703.55H287.4H287.789L288.162 703.561L288.522 703.562L288.872 703.551H289.213H289.548H289.88H290.21H290.541H290.876H291.217L291.567 703.562H291.927L292.3 703.562L292.689 703.552H293.096L293.523 703.562H293.973L294.447 703.552L294.949 703.562H295.481L296.046 703.563L296.644 703.552L297.28 703.563L294.537 706.311ZM300.023 706.311V709.059H297.28L300.023 706.311ZM382.98 624.296V629.793L377.369 629.916L371.983 630.27L366.83 630.856L361.908 631.654L357.192 632.656L352.7 633.863L348.42 635.257L344.348 636.826L340.481 638.563L336.807 640.471L333.343 642.517L330.065 644.715L326.97 647.056L324.066 649.51L321.34 652.099L318.8 654.783L316.431 657.585L314.231 660.475L312.208 663.454L310.339 666.513L308.639 669.644L307.108 672.838L305.721 676.085L304.497 679.377L303.432 682.716L302.514 686.071L301.74 689.444L301.116 692.837L300.641 696.22L300.3 699.604L300.092 702.971L300.023 706.311H294.537L294.605 702.755L294.814 699.173L295.176 695.573L295.694 691.953L296.361 688.345L297.179 684.735L298.162 681.144L299.313 677.589L300.623 674.059L302.096 670.575L303.755 667.144L305.584 663.776L307.583 660.48L309.778 657.264L312.15 654.137L314.712 651.12L317.468 648.198L320.409 645.415L323.549 642.746L326.881 640.232L330.417 637.862L334.161 635.643L338.094 633.606L342.24 631.74L346.591 630.062L351.151 628.583L355.923 627.311L360.897 626.245L366.099 625.404L371.509 624.795L377.132 624.42L382.98 624.296ZM489.905 629.795L382.98 629.793V624.296L489.905 624.298V629.795ZM574.338 537.557H579.824L579.673 540.809L579.239 544.182L578.521 547.648L577.552 551.203L576.341 554.829L574.901 558.526L573.229 562.264L571.349 566.039L569.281 569.837L567.014 573.65L564.581 577.455L561.97 581.246L559.203 585.006L556.291 588.712L553.243 592.356L550.072 595.924L546.775 599.4L543.386 602.757L539.884 606.004L536.31 609.111L532.644 612.064L528.916 614.847L525.138 617.446L521.301 619.843L517.423 622.025L513.515 623.974L509.59 625.666L505.645 627.106L501.693 628.255L497.743 629.101L493.807 629.616L489.905 629.795V624.298L493.333 624.141L496.818 623.67L500.359 622.911L503.946 621.868L507.567 620.558L511.213 618.974L514.862 617.154L518.504 615.102L522.127 612.834L525.733 610.364L529.288 607.711L532.782 604.887L536.227 601.908L539.579 598.792L542.86 595.542L546.027 592.195L549.091 588.757L552.031 585.242L554.836 581.666L557.495 578.056L559.999 574.416L562.345 570.763L564.505 567.121L566.487 563.496L568.26 559.914L569.824 556.392L571.178 552.955L572.303 549.607L573.186 546.376L573.818 543.276L574.208 540.335L574.338 537.557ZM577.08 5.65839V0.162023L579.823 2.91021V19.6008L579.822 36.2908V52.9807L579.833 69.6694L579.822 86.3588L579.822 103.048L579.832 119.737V136.427L579.822 153.118L579.832 169.809V186.501L579.822 203.195L579.832 219.889V236.585L579.822 253.282V269.982L579.822 286.683L579.833 303.387V320.093L579.822 336.801V353.512V370.226L579.823 386.942L579.834 403.662V420.385L579.823 437.113L579.824 453.843L579.834 470.577V487.316L579.824 504.058L579.824 520.805V537.557H574.338V520.805L574.337 504.058L574.327 487.316V470.577L574.337 453.843L574.337 437.113L574.326 420.385V403.662L574.337 386.942L574.336 370.226V353.512V336.801L574.325 320.093V303.387L574.336 286.683L574.335 269.982V253.282L574.325 236.585V219.889L574.335 203.195L574.325 186.501V169.809L574.335 153.118L574.325 136.427V119.737L574.335 103.048L574.336 86.3588L574.325 69.6694L574.336 52.9807V36.2908L574.337 19.6008V2.91021L577.08 5.65839ZM577.08 0.162023L579.823 0.162654V2.91021L577.08 0.162023ZM0.225009 2.77567L2.96814 0.0274872L577.08 0.162023V5.65839L2.96814 5.52386L0.225009 2.77567ZM0.225009 2.77567V0.0268555L2.96814 0.0274872L0.225009 2.77567ZM5.72454 537.558H0.227535L0.225009 2.77567H5.71127L5.7138 537.558H5.72454Z" fill="#71625B"/>
<path fill-rule="evenodd" clip-rule="evenodd" d="M510.012 622.481C537.516 612.39 577.171 566.573 577.173 535.177L577.171 513.549L372.978 296.65L577.173 78.4676L577.174 2.70014H482.513L289.83 207.744L97.148 2.69824H2.96757L2.96694 78.4676L205.082 296.648L2.96631 513.549L2.96884 536.938C2.96757 568.015 43.74 610.465 69.6453 622.476L289.829 386.678L510.012 622.481Z" fill="#28166F"/>
<path d="M574.466 535.177H579.881L579.766 538.363L579.408 541.603L578.825 544.9L578.038 548.22L577.046 551.589L575.869 554.975L574.518 558.379L572.999 561.794L571.325 565.208L569.503 568.624L567.545 572.023L565.457 575.394L563.252 578.75L560.937 582.05L558.524 585.317L556.019 588.521L553.435 591.661L550.779 594.73L548.051 597.707L545.282 600.606L542.459 603.404L539.603 606.084L536.724 608.657L533.819 611.104L530.91 613.414L528.006 615.579L525.095 617.591L522.207 619.439L519.343 621.114L516.499 622.618L513.698 623.921L510.947 625.034L509.079 619.928L511.553 618.942L514.099 617.746L516.709 616.37L519.383 614.801L522.101 613.059L524.841 611.154L527.618 609.095L530.4 606.891L533.177 604.551L535.95 602.084L538.7 599.49L541.416 596.797L544.101 594.006L546.723 591.113L549.294 588.15L551.793 585.116L554.212 582.02L556.541 578.881L558.771 575.687L560.892 572.48L562.893 569.236L564.767 565.986L566.504 562.74L568.094 559.496L569.527 556.273L570.794 553.081L571.886 549.929L572.793 546.837L573.515 543.793L574.035 540.838L574.351 537.959L574.466 535.177ZM579.146 511.688L579.879 513.549L579.881 535.177H574.466L574.463 513.549L579.146 511.688ZM579.146 511.688L579.878 512.465L579.879 513.549L579.146 511.688ZM371.004 294.789H374.954L579.146 511.688L575.196 515.411L371.004 298.512V294.789ZM371.004 298.512L369.256 296.656L371.004 294.789V298.512ZM579.881 78.4675L579.148 80.3289L374.954 298.512L371.004 294.789L575.198 76.6061L579.881 78.4675ZM579.881 78.4675V79.5457L579.148 80.3289L579.881 78.4675ZM577.174 -0.0234958L579.882 2.70006L579.881 78.4675H574.465L574.466 2.70006L577.174 -0.0234958ZM577.174 -0.0234958H579.882V2.70006L577.174 -0.0234958ZM480.538 0.838668L482.513 -0.0234958H577.174V5.42361H482.513L480.538 0.838668ZM480.538 0.838668L481.348 -0.0234958H482.513L480.538 0.838668ZM287.856 209.605V205.883L480.538 0.838668L484.488 4.56145L291.806 209.605H287.856ZM291.806 209.605L289.831 211.707L287.856 209.605H291.806ZM97.1483 -0.0253906L99.1233 0.836773L291.806 205.883L287.856 209.605L95.1732 4.55955L97.1483 -0.0253906ZM97.1483 -0.0253906H98.313L99.1233 0.836773L97.1483 -0.0253906ZM0.260053 2.69816L2.96781 -0.0253906H97.1483V5.42171H2.96781L0.260053 2.69816ZM0.260053 2.69816V-0.0247589L2.96781 -0.0253906L0.260053 2.69816ZM0.981364 80.3181L0.259421 78.4675L0.260053 2.69816H5.67557L5.67494 78.4675L0.981364 80.3181ZM0.981364 80.3181L0.259421 79.5393V78.4675L0.981364 80.3181ZM207.068 298.499H203.096L0.981364 80.3181L4.953 76.6168L207.068 294.797V298.499ZM207.068 294.797L208.787 296.653L207.068 298.499V294.797ZM0.258789 513.549L0.980733 511.699L203.096 294.797L207.068 298.499L4.95237 515.4L0.258789 513.549ZM0.258789 513.549V512.474L0.980733 511.699L0.258789 513.549ZM5.67684 536.938H0.261316L0.258789 513.549H5.67431L5.67684 536.938ZM67.6705 620.625L71.6207 624.327L68.5093 624.944L65.9329 623.677L63.2902 622.239L60.6014 620.649L57.8557 618.892L55.076 616.999L52.2589 614.966L49.4267 612.8L46.5788 610.509L43.7245 608.101L40.8859 605.584L38.062 602.965L35.2531 600.263L32.4892 597.453L29.7707 594.574L27.1185 591.625L24.5219 588.601L22.0011 585.522L19.5656 582.394L17.2267 579.225L14.9838 576.013L12.8685 572.766L10.8789 569.501L9.02696 566.226L7.31211 562.927L5.76527 559.634L4.37507 556.331L3.17309 553.051L2.15871 549.777L1.34328 546.518L0.747033 543.292L0.378797 540.086L0.261316 536.938H5.67684L5.79432 539.681L6.11961 542.484L6.65269 545.37L7.38348 548.309L8.31196 551.306L9.4293 554.353L10.7134 557.42L12.1756 560.523L13.7843 563.63L15.5516 566.756L17.4553 569.872L19.486 572.972L21.6228 576.056L23.877 579.117L26.2266 582.139L28.6628 585.112L31.1748 588.029L33.7638 590.893L36.3964 593.687L39.0757 596.391L41.7784 599.029L44.5178 601.563L47.2716 603.996L50.0186 606.318L52.7604 608.524L55.4865 610.604L58.176 612.553L60.8294 614.361L63.426 616.01L65.9657 617.516L68.4177 618.847L70.7819 620.008L67.6705 620.625ZM71.6207 624.327L70.2784 625.764L68.5093 624.944L71.6207 624.327ZM291.804 384.827V388.529L71.6207 624.327L67.6705 620.625L287.854 384.827H291.804ZM287.854 384.827L289.829 382.713L291.804 384.827H287.854ZM510.947 625.034L508.038 624.331L287.854 388.529L291.804 384.827L511.988 620.63L510.947 625.034ZM510.947 625.034L509.269 625.649L508.038 624.331L510.947 625.034Z" fill="#71625B"/>
<path fill-rule="evenodd" clip-rule="evenodd" d="M154.827 287.786C158.502 290.982 161.858 295.456 163.935 299.61C163.136 300.09 164.255 300.729 164.414 301.528C174.321 303.126 182.31 309.517 189.501 316.708C199.407 317.027 209.953 315.429 217.143 321.98C226.731 326.933 235.519 333.964 246.544 335.402C262.682 336.84 279.939 336.361 295.758 335.083C302.469 334.763 308.062 336.521 314.453 336.84C317.329 337.32 319.886 338.918 322.602 339.716C335.225 344.031 350.724 344.031 364.786 342.752C379.166 344.031 393.387 345.789 406.809 348.984C410.324 352.02 414.638 352.34 418.314 354.896C420.55 356.494 422.947 358.412 424.066 361.128C427.261 363.684 430.138 366.88 433.813 368.478C437.008 369.756 436.529 373.91 439.885 375.189C445.797 381.42 452.188 387.493 460.497 388.451C464.491 390.209 469.125 390.209 473.759 390.528C478.712 390.209 484.305 391.647 487.98 387.812C490.057 386.854 491.495 384.936 492.774 383.338C496.289 379.024 494.372 371.834 494.691 366.081C489.578 355.855 478.233 348.185 468.007 342.912C462.094 341.634 458.579 337.799 451.869 337.799C437.967 336.361 423.586 334.124 409.046 335.882C399.618 336.201 390.511 338.438 380.604 337.799L337.143 337.48C331.39 336.041 324.839 335.722 319.246 333.005C309.66 328.851 301.031 324.857 290.485 321.98C285.691 320.542 281.058 318.306 278.181 313.671C276.424 309.517 276.743 303.765 280.259 300.409C284.892 298.172 288.568 293.379 294.16 293.379C299.753 291.142 307.742 292.26 314.293 292.26C323.241 294.337 331.869 297.054 340.018 301.528C348.327 302.806 356.477 307.6 365.264 304.404C377.888 304.404 389.392 301.208 402.175 302.007C417.195 299.131 431.576 302.806 446.596 302.966C482.068 310.316 527.767 324.697 534.797 367.359C540.07 404.11 499.644 437.026 463.692 425.042C465.93 435.109 470.244 444.216 473.919 454.123C476.635 455.881 477.754 459.396 479.352 462.272C483.026 467.545 487.341 473.137 493.253 475.375C499.964 479.529 509.072 476.973 515.144 482.565C520.097 495.667 523.931 509.409 531.282 522.032C532.081 528.583 514.345 551.912 511.149 561.499H435.73C428.859 552.072 441.962 528.743 440.364 531.619C445.797 524.429 453.307 518.996 461.455 516.759C458.739 514.522 457.141 509.569 452.987 510.048C442.281 501.739 429.019 498.543 419.272 488.317C418.154 489.755 416.236 491.193 416.236 492.312C406.968 503.337 411.123 520.913 398.98 530.501C383.48 536.093 380.444 552.072 371.177 560.38H232.004C231.045 551.752 230.246 539.448 240.472 528.903C243.348 525.228 247.982 524.429 251.338 521.393C253.415 519.475 256.131 519.315 258.688 518.676C259.007 517.878 259.966 516.759 258.848 515.96C252.616 510.847 248.781 503.177 243.188 497.106C238.874 494.868 237.117 489.436 232.643 487.678C228.168 494.229 224.014 500.78 223.215 508.77L217.942 515.161C209.953 516.28 202.123 521.872 194.933 526.346C179.913 534.974 178.156 550.634 173.841 561.499C171.924 562.937 169.687 561.978 166.971 561.978H86.1192C86.4388 551.752 90.7528 541.046 93.1498 538.33C93.6292 533.376 98.7422 531.14 101.938 527.944C109.928 524.429 117.117 519.475 126.066 518.357C131.178 505.414 146.039 497.905 151.631 485.121C154.667 471.859 156.904 458.757 162.177 446.453C155.147 443.417 149.394 437.505 143.003 433.031C136.452 425.362 125.107 419.769 121.752 410.022L117.916 402.352C112.803 398.997 106.412 397.399 102.418 392.126C94.4282 392.446 87.7172 388.451 80.5269 387.173C78.9289 387.971 77.4907 387.013 75.7329 387.812C70.3003 388.291 63.7491 388.77 58.9557 386.374C56.3989 387.333 55.2803 384.457 53.3633 383.498C46.173 376.627 49.3683 367.839 48.5693 358.412C49.2085 355.535 50.9663 352.819 53.5231 351.061C59.1155 347.706 67.1049 352.34 71.8983 348.185C65.8265 346.587 60.5537 350.103 54.1624 349.304C48.8889 349.304 44.2554 347.066 40.9002 342.752C36.9052 337.799 43.4564 332.367 39.1424 327.732C35.467 327.253 34.5082 323.259 32.751 320.222C32.5912 314.63 33.55 309.357 38.663 306.002C42.8172 304.884 46.6524 303.126 51.1261 303.445C54.6417 301.208 57.9969 298.811 62.3109 298.332C77.3309 299.131 85.3202 281.555 101.778 286.028C109.608 286.987 118.236 287.307 126.385 286.827C129.102 285.07 131.977 282.833 135.333 282.673C137.411 281.395 140.446 282.034 143.003 282.194C146.997 283.632 152.11 283.472 154.827 287.786ZM343.534 451.726C341.457 459.396 342.895 468.024 344.972 475.375C343.854 483.684 348.327 491.193 350.565 498.543C344.492 504.935 338.101 512.125 329.473 516.599C324.199 517.239 317.968 518.836 313.015 520.753C312.216 510.528 315.572 499.182 306.464 493.75C301.83 486.4 297.036 478.89 294.16 470.581C292.882 467.865 291.444 465.148 290.645 462.272C310.618 461.313 326.916 453.484 343.534 451.726Z" fill="#71625B"/>
<path fill-rule="evenodd" clip-rule="evenodd" d="M168.464 507.258C168.464 507.737 168.464 508.057 167.984 508.536C165.268 508.057 161.273 509.655 159.356 507.258V503.743C159.995 504.062 159.995 503.104 160.155 502.624L168.464 507.258ZM165.428 494.795C169.902 498.949 175.494 500.227 180.767 502.944C182.205 502.944 183.644 503.104 185.082 503.743C184.922 504.381 183.963 504.701 183.324 504.861C176.134 505.18 169.103 504.381 163.99 499.588C163.83 498.309 162.871 494.954 164.789 494.155C165.268 493.995 165.428 494.155 165.428 494.795ZM376.025 491.758L382.097 492.238C377.943 494.954 372.19 494.315 366.917 494.795V491.439C367.876 491.918 368.036 490.64 368.675 490.32C371.232 490.8 374.587 489.042 376.025 491.758ZM272.325 485.846L263.696 494.315C262.577 494.155 260.98 494.795 260.501 493.356V490.959C261.938 490.48 262.737 489.682 264.335 489.522V488.723C267.531 488.563 269.288 485.207 272.325 484.888V485.846ZM169.742 483.769C172.938 484.888 176.773 484.728 179.968 485.846C186.679 489.362 195.627 493.197 202.498 498.31C193.55 495.434 182.205 490.64 171.979 492.078C170.222 491.599 168.464 490.32 167.345 488.723C167.185 487.125 166.866 484.408 167.345 482.331C168.464 482.331 169.103 483.13 169.742 483.769ZM390.886 485.367C383.376 485.846 374.907 484.248 366.917 484.408C365.319 483.769 364.201 482.651 362.923 481.373L363.083 479.295C373.788 478.336 381.618 483.769 390.886 485.367ZM456.557 474.662C455.279 476.898 453.841 477.537 451.604 479.135C446.811 480.733 444.573 484.888 438.661 483.29C438.022 483.449 437.703 483.29 437.223 482.811C440.419 480.254 444.893 477.537 448.568 476.898C451.924 477.857 452.723 474.502 456.557 474.662ZM274.562 473.064C274.881 474.022 273.763 474.821 273.283 475.461C270.247 477.058 267.052 480.414 264.175 482.491C260.98 482.491 260.021 484.408 257.145 484.888H253.47C252.351 483.769 252.351 482.172 250.753 481.532C252.671 479.775 255.547 481.692 257.944 480.733C264.016 480.094 269.768 477.058 274.562 473.064ZM184.922 476.738C188.916 476.579 190.994 481.532 195.308 481.532C198.504 485.207 202.179 486.805 206.014 489.202V490.001C194.669 482.651 181.726 481.213 169.902 475.78C170.222 474.502 170.222 473.223 170.861 472.265C176.453 471.785 181.406 472.584 184.922 476.738ZM262.897 468.59C258.743 472.105 251.233 468.75 247.717 472.584C246.28 472.265 246.439 473.863 245.481 474.182C242.764 474.182 240.208 474.182 238.29 472.584C237.012 472.904 236.053 471.785 235.574 470.826C238.45 470.826 241.166 470.187 244.042 469.069C250.274 468.59 256.665 468.27 262.897 467.471V468.59ZM454.161 463.316C454.161 463.476 454.321 463.636 454.48 463.796C451.444 464.914 447.769 465.554 444.893 467.471C441.058 468.43 438.342 471.466 434.986 473.064C431.631 474.662 427.956 472.744 424.441 472.424V471.625C430.033 469.548 436.264 467.311 441.857 464.595C446.171 464.435 450.006 463.636 454.161 463.316ZM375.546 464.755C380.18 465.394 385.293 466.193 389.607 467.791C391.045 470.187 395.679 469.229 398.236 471.785C385.612 466.512 372.51 473.703 360.686 467.471C360.047 466.353 360.047 463.796 362.124 462.997C366.758 463.316 371.232 463.476 375.546 464.755ZM190.514 461.719C196.267 465.394 201.699 470.986 207.132 474.502C196.426 470.667 184.123 464.914 172.778 462.997C172.618 459.961 175.015 459.801 175.335 456.925C176.134 455.647 177.891 456.925 178.85 457.245C183.004 458.523 186.519 460.6 190.514 461.719ZM370.593 453.41C377.464 455.008 384.494 459.002 391.685 460.92C382.577 461.24 374.907 456.925 365.319 458.203C363.722 457.085 361.325 457.564 360.206 455.168C360.526 453.889 359.887 453.09 360.686 452.451C364.361 452.132 367.077 453.889 370.593 453.41ZM193.39 454.848C197.385 456.765 200.9 459.002 205.215 460.441L204.895 460.6C211.926 466.193 219.436 472.105 226.786 476.898C225.827 481.213 222.791 485.846 219.596 489.682C217.518 493.516 216.879 497.83 215.92 502.145C214.802 502.624 214.642 503.902 214.162 504.861C201.539 508.057 186.519 520.839 177.732 529.628C176.293 533.303 173.257 536.339 171.34 539.694C171.18 543.689 168.943 546.565 168.624 550.4L100.555 550.72C99.9159 546.405 102.313 544.168 104.869 540.493C109.823 534.741 116.214 532.823 122.286 529.788C125.641 528.349 129.636 528.669 132.991 527.55C141.141 515.886 150.568 505.979 160.155 494.795C160.794 492.238 162.552 490.32 163.511 488.084C165.907 476.738 168.943 464.435 172.778 453.41C171.82 448.776 177.572 451.492 179.808 451.173C184.123 452.771 188.916 453.57 193.39 454.848ZM448.887 450.853C446.651 453.25 442.336 450.693 439.78 454.049C434.347 457.085 428.914 459.961 423.801 464.115C419.647 465.234 416.931 462.677 413.415 461.399C416.771 459.482 422.203 459.322 424.441 456.126C432.27 453.25 440.419 451.013 448.887 450.054V450.853ZM262.897 448.297C259.382 451.812 251.872 451.333 248.197 454.688C241.805 456.446 239.569 464.115 233.177 466.512C229.981 466.672 225.827 467.631 223.59 464.595C222.471 464.275 220.554 464.115 220.554 462.997C224.069 463.316 227.584 461.879 230.94 460.6C232.538 458.843 235.094 457.884 237.331 456.925V456.126C241.166 454.209 244.362 452.611 248.996 451.812C253.63 450.693 258.104 449.095 262.897 448.297ZM442.336 441.905C438.182 443.982 432.749 443.663 428.754 446.699C421.245 447.977 417.09 455.328 409.74 456.605C409.101 455.168 406.704 456.286 405.586 455.487C404.308 454.848 402.39 454.209 402.23 452.611C410.22 454.209 413.735 445.74 420.605 444.622C428.115 444.142 434.986 441.905 442.336 440.947V441.905ZM255.387 437.751C252.991 438.869 251.073 439.668 248.037 439.988C239.728 444.622 231.419 451.013 223.75 457.085C219.596 459.002 214.802 458.203 211.766 455.008C211.127 454.848 211.127 454.209 211.127 453.73C212.885 454.209 214.003 453.09 215.281 452.611C222.951 448.617 228.863 443.343 237.331 439.988C242.924 439.509 249.475 438.07 255.387 437.751ZM431.631 431.999C416.771 431.04 411.338 449.894 395.839 445.9C393.921 444.941 391.045 445.58 389.447 444.302C392.643 442.225 398.236 443.823 400.952 439.509C410.699 435.354 420.446 431.679 431.631 431.519V431.999ZM234.934 428.962C233.017 430.081 230.301 430.401 229.182 432.478C228.543 432.638 227.584 432.318 227.105 432.638C221.832 436.472 219.116 443.823 212.885 447.178C208.41 449.095 203.617 447.178 199.303 445.9C199.303 445.261 199.622 444.781 200.101 444.781C202.818 443.503 207.611 441.905 210.647 439.668C213.044 438.23 216.08 435.354 218.477 433.916C223.43 431.04 228.863 428.323 235.094 427.205C236.373 427.685 234.934 428.323 234.934 428.962ZM198.504 413.144C195.947 418.737 193.87 424.329 191.633 430.081C190.674 433.277 189.396 436.153 186.679 438.55C186.04 438.869 185.082 438.55 184.762 439.509C182.205 440.787 181.566 437.271 179.009 438.23C184.123 433.277 187.159 427.845 192.911 422.411C192.591 419.695 195.148 418.097 195.627 415.7C196.906 415.381 197.225 413.624 197.865 412.825L198.504 413.144ZM184.922 404.036C183.803 408.67 182.365 413.783 181.087 418.417C179.649 418.257 179.009 419.855 177.572 419.216C174.056 422.731 173.257 427.685 169.742 431.519C168.943 431.2 168.464 431.839 168.144 432.158C164.789 432.478 160.794 432.478 159.356 428.962C162.552 428.483 163.511 425.927 166.386 424.329C171.979 418.417 177.412 411.706 183.164 404.196C184.443 402.438 185.242 400.361 186.679 398.763C185.72 400.361 186.519 403.077 184.922 404.036ZM395.04 415.061C406.704 415.86 419.008 415.061 428.595 421.134C429.713 422.571 431.631 422.092 432.909 423.37C421.085 422.092 408.781 424.009 397.277 424.968C392.164 422.731 387.53 419.376 382.577 417.139C380.979 416.34 370.113 395.248 371.072 397.006C380.499 407.391 382.257 411.067 395.04 415.061ZM168.783 391.094C167.665 397.485 162.552 402.438 159.995 408.35C158.078 411.227 157.119 414.422 154.403 416.979C153.124 417.139 152.006 417.778 150.568 417.458C149.929 416.659 148.171 417.139 147.212 416.499C146.413 415.381 145.455 414.103 144.496 413.144C149.29 411.227 152.965 408.35 157.599 405.634C162.712 401.32 164.949 395.887 167.984 391.094H168.783ZM245.481 390.135C249.795 393.491 252.032 398.923 256.665 401.479C259.382 403.717 260.021 408.031 259.222 411.386C258.263 414.103 255.866 416.34 256.186 419.536C254.908 419.376 254.908 417.778 253.79 417.139L252.991 410.108H253.15C253.31 402.278 246.28 396.846 244.682 390.135H245.481ZM421.564 383.903C422.683 389.176 423.801 395.567 426.039 400.84C423.801 398.763 421.884 396.207 419.328 394.609C411.818 389.655 413.095 380.867 409.74 373.996L409.421 372.079C413.415 375.594 419.807 377.192 421.564 383.903ZM318.023 370.801C320.42 374.955 322.817 379.908 325.373 384.862C325.693 388.217 326.492 391.893 327.77 394.928C327.77 403.397 334.162 408.989 335.919 417.139C336.399 420.814 335.76 424.009 334.481 426.886C334.002 423.21 332.564 419.376 330.806 416.02C330.327 411.546 325.533 408.67 322.977 405.155C320.1 401.32 320.42 396.207 319.781 391.573C318.822 384.542 319.301 377.991 317.544 370.801H318.023ZM274.562 370.961C275.041 375.754 277.597 378.79 280.154 383.424C284.628 393.81 286.865 405.474 283.829 417.139C282.71 421.134 281.433 424.808 280.953 428.643C279.994 421.772 281.592 413.624 279.515 407.072C277.597 393.331 273.124 380.707 272.804 367.125C274.562 367.285 273.763 369.842 274.562 370.961ZM400.153 372.079C403.509 381.027 406.864 390.454 413.095 398.124C407.503 394.609 403.189 391.413 397.437 387.738C394.401 380.068 389.288 373.677 384.654 366.167C384.175 365.528 382.896 365.848 382.577 364.729C389.607 364.569 395.359 367.285 400.153 372.079ZM370.113 364.889C372.67 366.486 379.221 368.883 378.741 373.357C378.901 378.95 381.778 383.584 382.577 388.537C383.216 390.774 385.133 392.851 386.092 394.768C387.53 395.248 388.489 397.485 390.087 397.485C390.087 399.403 392.324 398.284 392.164 400.202C393.761 401.16 395.04 403.077 396.798 403.237C396.638 405.634 399.195 406.114 399.993 408.031C392.643 404.036 385.612 398.763 378.422 393.81C376.665 390.454 372.19 387.099 371.871 382.625C369.314 378.63 367.876 374.316 366.438 369.842C366.438 369.682 359.887 364.09 360.047 363.131C364.201 362.013 366.758 364.729 370.113 364.889ZM346.785 363.611C349.501 364.889 352.057 366.806 354.774 368.404C358.449 369.842 355.253 374.635 357.65 376.713C355.893 384.862 360.686 393.171 360.686 401.16C360.686 403.397 360.846 406.753 360.047 409.309C357.331 403.077 355.413 395.727 350.78 390.295C348.702 382.944 347.903 375.115 345.346 368.244C343.749 365.368 340.233 364.889 339.115 361.853C342.151 361.373 343.749 363.93 346.785 363.611ZM330.327 362.013C336.079 365.049 336.239 372.559 338.476 377.672L341.672 389.975C343.749 394.768 346.944 398.124 349.022 403.077C349.341 408.35 348.063 413.624 350.3 418.896L349.182 418.737C348.063 415.061 346.145 411.546 345.346 407.551C344.388 405.794 342.151 403.557 340.713 401.799C335.6 394.289 330.646 387.099 330.486 377.672C328.09 370.961 324.574 365.368 319.941 359.935L317.544 358.977C322.657 358.178 326.012 361.054 330.327 362.013ZM113.498 375.275C110.142 376.074 106.787 378.95 102.792 377.991C108.704 372.718 113.498 366.806 117.652 360.095L120.049 356.26C119.889 363.451 117.492 369.842 113.498 375.275ZM247.877 353.544C255.547 354.982 264.016 354.982 272.005 354.343C276.798 352.745 282.87 353.544 287.984 353.704C293.097 354.183 298.369 354.343 302.843 356.42C305.4 356.42 306.838 359.616 309.395 359.456C313.709 364.09 313.869 370.801 313.23 377.192C307.477 388.856 320.42 396.207 315.946 408.031C313.549 404.675 314.508 398.444 310.513 395.727C310.513 394.129 309.075 392.532 307.637 391.413C302.843 384.063 307.957 375.594 307.158 367.125C304.281 364.09 304.281 358.338 298.21 359.456C291.179 365.848 293.257 378.151 295.334 386.14C296.452 388.856 296.452 392.851 297.73 396.207C297.091 398.923 297.091 401.959 295.653 404.516C295.813 409.149 293.256 413.624 294.375 417.938C293.416 411.227 294.055 403.237 293.896 395.727C287.345 383.903 283.19 374.316 276.639 363.131C273.603 359.137 273.124 360.734 270.247 360.255C258.263 375.754 277.118 390.934 271.206 408.031C269.928 402.119 268.33 395.887 265.614 390.454C261.938 387.258 262.737 382.305 260.341 378.311C259.382 374.316 260.66 368.883 258.263 365.528C258.104 363.131 255.866 362.013 253.949 360.574L251.073 359.775C248.676 361.054 248.356 363.291 246.919 365.049C245.96 371.76 245.001 379.27 248.676 385.182H247.877C245.96 383.903 246.439 381.826 244.682 380.068C242.285 372.559 242.764 363.611 239.888 355.461C239.569 352.265 235.574 353.544 234.775 350.668C239.089 351.946 243.243 353.384 247.877 353.544ZM159.196 350.348C158.078 354.023 156.64 357.059 155.202 360.574C152.006 367.765 145.135 373.836 140.501 380.547L131.553 389.176C128.997 390.454 125.322 390.295 122.925 389.496C121.008 388.057 118.611 387.258 117.492 385.661C122.765 384.383 127.878 383.264 132.512 380.228C138.424 375.275 144.177 369.043 148.97 363.291C151.048 358.338 155.042 355.302 157.918 350.828C158.397 350.668 158.717 350.189 159.196 350.348ZM221.512 345.874C224.549 348.111 228.543 350.668 229.662 354.662C230.94 360.894 226.946 366.167 225.188 371.76C225.188 377.672 229.182 381.986 229.662 387.738C228.703 397.006 224.549 404.835 220.394 412.665C219.436 422.252 209.209 425.927 205.215 434.076H204.416C206.812 425.607 216.08 420.974 217.518 412.185C218.956 405.155 220.554 398.124 221.672 390.774C221.672 388.537 219.755 386.939 219.436 384.862C218.157 384.063 216.559 383.264 214.802 383.903C211.446 385.341 208.89 387.898 206.493 390.774C206.174 387.738 209.049 385.821 209.529 382.944C212.725 380.228 213.204 376.393 216.559 373.836C218.157 370.162 217.998 365.848 219.915 362.332C220.234 356.9 220.714 350.668 220.394 345.874H221.512ZM213.843 340.441C214.322 342.199 216.879 342.679 216.4 345.076C217.678 346.513 216.08 348.75 215.92 350.189C209.689 357.858 205.694 368.244 201.38 377.032C201.22 381.826 197.385 386.14 195.627 390.774C194.669 392.532 192.751 393.969 190.994 394.129C195.468 382.625 198.823 370.162 204.256 358.338C205.375 354.343 207.611 349.39 205.375 345.235C203.297 344.596 202.498 342.998 200.74 341.88C199.622 347.312 196.267 351.787 195.627 358.178C193.55 365.688 189.556 372.239 186.2 378.95C184.602 383.584 181.726 387.099 178.531 390.934H177.572C180.448 385.341 181.886 379.11 184.443 373.357C185.242 369.682 186.519 366.966 187.478 362.971C187.638 361.373 187.318 359.775 186.679 358.338C182.685 357.379 182.845 363.611 179.009 362.652C177.891 359.775 180.448 358.338 180.448 355.621C183.164 349.23 185.242 342.519 188.916 336.767C194.189 332.612 202.338 334.849 207.771 336.767L213.843 340.441ZM88.5713 337.885C90.0089 339.163 90.8079 340.441 92.2461 342.679C94.4833 344.916 94.3235 348.591 95.4421 351.307C94.9627 355.621 93.6843 359.935 90.0089 362.652C90.0089 364.09 88.7311 365.528 87.6125 366.008C83.9371 366.966 80.4221 368.244 76.5869 368.404C73.5514 368.883 69.5564 366.966 66.2012 366.966V366.167L76.1075 365.528C80.2623 362.013 86.9733 362.012 88.7311 355.621C89.3697 350.668 91.4471 343.318 85.5351 340.122C82.4989 337.406 79.3035 335.169 75.3092 334.689C74.8298 334.21 74.8298 333.73 74.9896 333.411C79.7829 334.529 84.4165 335.488 88.5713 337.885ZM103.75 331.973C104.39 333.251 105.348 334.37 106.467 335.488C107.266 340.601 107.745 345.714 105.508 350.668C103.591 353.224 101.034 357.219 98.4777 359.775L97.9983 359.296C98.9571 353.704 102.313 348.591 101.034 342.519C98.7973 339.802 98.4777 335.968 95.4421 334.21C91.9265 331.174 87.1331 330.056 82.6587 328.458C82.1799 329.736 80.1025 328.777 78.9839 329.097V327.978C79.9427 328.138 81.5407 328.138 82.0201 327.179C87.1331 327.818 91.6069 324.303 96.2405 327.179C97.5189 327.499 98.6375 328.298 100.076 328.458L103.75 331.973ZM179.009 329.416C181.087 332.612 181.247 338.045 179.968 341.56C180.448 344.117 178.211 345.554 178.531 348.111C176.453 350.029 176.293 353.544 174.376 355.941C171.979 355.621 173.737 352.745 172.938 351.307C169.263 358.657 163.351 364.889 159.835 372.239C158.717 373.197 158.237 374.955 156.64 374.955C155.841 370.162 161.114 366.966 160.954 362.013C162.552 361.533 162.072 358.338 163.67 356.9C163.83 351.946 167.665 348.75 167.984 343.637C170.701 338.684 169.582 331.973 169.902 326.22C168.464 324.942 169.263 322.865 167.825 321.587H168.943L179.009 329.416ZM122.126 320.628C123.724 323.185 124.682 326.38 127.239 328.777C127.399 331.334 128.518 334.849 129.317 336.767H130.435C129.157 343.158 131.873 350.189 129.157 355.941C128.038 358.338 128.358 361.693 126.121 363.291L125.322 362.172C127.719 355.621 126.28 347.472 124.523 340.921C124.523 339.802 123.405 339.483 122.446 339.163C118.93 342.519 116.694 346.673 114.616 350.668C113.817 351.307 112.539 350.668 111.9 351.627C112.379 349.549 113.338 348.91 113.977 347.152C114.137 344.436 114.456 341.72 115.895 339.483C116.374 333.571 117.013 326.54 116.694 321.267L118.611 318.551C119.25 319.829 121.008 319.829 122.126 320.628ZM162.552 319.829C162.552 326.061 157.759 330.215 157.439 336.287L153.923 343.637C144.975 350.189 141.46 361.693 133.471 369.522C131.553 372.399 127.878 375.594 124.523 376.233C129.636 372.239 133.151 366.167 136.187 360.734C138.264 352.905 138.903 344.277 141.46 336.767C144.815 334.05 147.692 330.535 149.769 326.86C150.408 326.54 150.888 327.179 151.048 327.659L150.568 334.849C151.526 334.689 152.006 336.127 152.805 335.328C154.403 333.73 154.083 331.653 155.202 330.215C154.882 325.901 155.042 320.948 157.918 317.592C160.155 316.793 162.552 317.113 162.552 319.829ZM79.6231 318.551L80.1025 319.35C72.273 323.824 64.2836 327.499 56.454 333.091C56.454 332.132 55.4952 329.896 57.253 329.416C65.0826 326.54 68.9172 314.237 78.9839 317.113L79.6231 318.551ZM141.78 305.768C141.62 307.526 140.981 309.124 141.141 311.041C140.022 313.597 137.945 314.556 137.146 316.953C135.708 318.71 134.11 319.509 132.192 320.628C131.713 315.675 137.146 312.159 134.43 307.526C133.151 305.768 132.512 304.011 131.074 302.732C131.553 300.655 134.43 301.614 136.347 301.134C138.744 301.773 141.46 303.052 141.78 305.768ZM150.408 306.567C150.249 308.804 150.728 310.562 151.686 312.319C149.45 316.953 150.408 324.463 144.815 327.659H141.141C139.862 326.54 138.903 325.581 138.584 323.664C141.141 317.911 144.975 312.479 145.455 305.608C144.975 303.531 144.656 301.614 143.857 299.536C148.491 299.377 148.171 304.011 150.408 306.567ZM147.692 292.985C151.367 297.139 156.161 300.815 156.32 306.407C156.001 306.567 155.521 306.247 155.202 306.727C156.48 306.886 156.161 308.325 156.48 308.964C162.871 311.52 170.381 310.722 175.175 316.634C179.968 318.231 183.324 323.824 187.958 326.22C195.148 326.86 202.978 326.061 209.848 327.818C216.719 332.931 224.389 336.447 231.899 340.761L247.398 345.235C264.335 346.993 281.752 345.395 298.689 344.756C309.555 344.436 320.42 348.111 330.486 351.147C341.512 353.544 354.454 352.905 366.118 352.265C373.309 352.905 381.138 353.544 387.849 354.662C393.122 355.621 398.555 356.26 403.509 357.379V358.178C416.611 359.296 418.688 371.6 429.873 376.553C430.992 377.672 430.992 380.228 432.909 380.228C437.543 385.501 443.135 389.176 448.248 393.81L463.588 399.083C471.577 400.84 481.165 400.202 489.313 399.722C491.87 397.645 494.906 396.047 497.782 395.567C498.741 391.573 503.694 391.413 504.173 387.099C509.606 383.104 508.648 366.646 506.73 362.013C506.251 358.817 502.576 356.9 502.576 353.544C494.906 345.076 486.757 338.843 476.85 333.251C472.216 331.174 469.18 329.896 463.588 327.659C451.924 325.901 439.94 324.623 427.955 323.664C412.137 323.025 398.555 325.901 383.216 326.22H341.352L327.131 323.504C324.095 322.226 323.615 321.747 320.74 320.149C311.632 316.953 303.163 312.319 293.416 310.562C292.298 309.603 291.019 308.644 289.741 308.005C290.54 305.288 294.056 306.087 295.334 303.372C297.73 303.691 299.168 301.933 301.246 301.933L314.987 302.093C323.456 304.011 331.445 307.046 339.115 311.041C349.022 312.479 358.608 316.953 369.155 314.077C386.571 311.84 404.148 311.68 421.724 311.041C432.749 311.999 444.094 312.159 454.799 313.917C481.963 320.628 515.359 332.612 524.626 362.013C533.574 393.331 500.179 422.411 468.701 414.422C461.032 413.783 454.48 411.067 447.45 408.67C447.929 415.86 453.202 422.092 455.918 429.282C458.315 440.627 462.949 449.575 467.263 460.6C471.897 465.713 475.412 472.744 481.005 477.378C482.123 482.971 488.675 481.053 491.71 485.047C497.143 487.444 503.694 488.243 509.766 489.522C509.766 493.516 511.683 496.552 512.003 500.387C514.24 508.536 518.874 515.726 522.389 524.195C519.033 532.823 509.925 540.333 507.689 550.08L447.45 550.4C447.609 542.57 450.485 535.38 457.196 530.746C464.706 526.911 472.057 522.757 481.165 522.597C481.804 522.278 481.324 521.638 481.484 521.159C479.726 519.082 477.649 517.005 476.85 514.448C473.495 510.613 469.02 506.618 466.304 502.305C453.042 496.552 441.857 488.084 429.553 480.733C426.518 478.656 425.559 475.461 423.002 473.064C415.972 467.631 409.101 462.358 402.71 455.168C392.324 448.617 379.381 443.024 367.876 439.988C344.388 438.71 328.409 442.544 308.916 449.255C300.287 451.492 291.179 451.492 283.829 450.214C281.433 447.019 280.953 443.024 279.355 439.509C279.835 436.632 276.319 435.993 274.722 433.916C266.892 431.679 258.903 424.968 252.351 418.896C254.429 420.175 253.79 424.808 256.665 425.607C260.181 430.56 265.454 433.597 269.928 436.632C271.845 436.792 273.443 437.431 274.562 439.029C274.722 448.297 279.675 455.008 281.113 464.115C286.705 472.584 287.984 483.449 295.174 492.397C297.251 494.155 298.05 498.949 300.607 501.026L303.802 504.062L304.122 537.617C304.921 540.333 304.761 543.21 306.678 545.606C308.756 545.286 309.874 542.73 311.152 541.132C313.23 536.499 314.828 536.499 317.863 532.344C322.977 529.148 329.368 525.473 334.481 526.272C337.677 526.751 339.115 523.396 342.151 523.077C345.986 519.082 350.78 512.371 356.532 510.773C359.727 507.737 361.804 506.938 365.639 503.103C364.201 494.795 358.928 486.805 357.65 477.697C358.129 467.631 352.057 457.404 357.65 448.457C356.851 446.379 359.567 447.178 360.526 446.539C366.598 447.178 372.67 447.338 378.263 449.415C386.251 450.374 392.164 454.848 399.354 457.404C403.828 461.08 408.142 466.193 413.415 470.187C413.735 472.265 416.771 473.064 416.611 474.502C413.415 477.058 414.054 481.532 410.06 483.29C405.107 491.119 402.23 499.907 399.673 508.696C399.673 511.891 398.236 514.608 397.916 517.484C394.56 523.077 388.489 524.195 387.37 525.153C377.943 532.184 376.665 542.89 367.557 549.601H244.682C250.594 527.071 262.258 529.628 269.928 525.633C271.046 522.597 271.526 517.963 273.283 515.247C274.562 512.371 272.484 511.252 270.247 510.454C263.376 502.944 257.305 493.356 249.475 486.326C246.599 481.053 240.846 478.656 236.373 475.301C225.827 470.187 214.961 464.275 206.652 454.529C205.215 454.209 204.895 452.291 203.936 451.173C191.793 443.503 178.051 440.467 165.268 434.715C153.764 427.046 145.455 417.778 135.069 408.67L127.719 393.491C121.966 389.655 114.456 388.217 110.781 381.826C104.549 378.95 97.0395 381.346 91.4471 377.192C91.2873 376.873 91.1275 376.553 90.8079 376.233C92.5657 375.275 94.1637 374.476 96.2405 374.316C97.9983 371.28 100.555 369.682 103.271 368.244C103.91 367.765 103.75 366.806 103.75 366.167C102.473 365.368 101.514 363.291 99.4365 363.93C88.5713 377.352 93.5245 368.564 79.6231 375.914C74.5102 375.754 68.7574 377.672 64.2836 375.115C61.7268 375.115 62.0464 372.718 60.9284 371.12C62.366 367.605 60.2892 363.611 60.9284 359.456C61.7268 359.456 62.366 359.616 63.0052 359.296C62.366 358.817 61.5676 358.977 60.9284 358.657C60.449 356.74 61.5676 355.461 63.0052 354.183C65.0826 355.621 62.366 361.213 67.0002 359.615C68.5976 361.533 70.5152 359.456 72.273 359.456C74.67 359.456 78.0251 359.935 78.3447 356.9C80.5819 356.26 83.7773 354.343 84.2567 351.627C85.0557 348.91 85.8547 346.194 85.5351 342.838C84.4165 340.601 82.4989 339.962 81.3809 337.246C79.6231 337.566 77.8653 336.926 76.2673 336.447C68.7574 335.648 62.366 337.885 55.1756 337.725L52.4596 336.607C54.2174 331.174 53.4184 330.535 52.6194 326.54C55.4952 324.942 57.7324 322.226 59.65 319.669C59.65 319.509 60.449 312.639 60.2892 311.041C63.6444 308.964 64.6032 308.644 67.6394 307.206C76.1075 305.608 81.7005 310.082 89.3697 310.242C94.0039 311.36 98.1581 313.278 103.271 313.278C104.23 314.237 105.988 313.597 106.946 314.876H110.142C109.503 312.798 109.184 309.923 109.343 307.206C107.905 305.288 104.709 304.649 103.111 304.011C96.4003 305.288 89.2105 305.288 82.0201 305.288C83.2979 304.649 82.9783 301.774 85.2155 301.614C87.1331 300.495 88.0919 297.778 90.4883 297.938C93.6843 295.063 98.9571 296.501 103.111 295.702C111.9 297.139 121.167 296.341 130.594 296.82C133.471 295.063 136.187 293.305 139.702 292.985C141.94 290.588 144.815 293.624 147.692 292.985ZM52.7792 311.36C52.7792 314.556 52.2998 317.273 49.743 319.35C47.6662 319.989 44.7898 321.906 42.7124 319.669H42.8722C42.7124 318.071 42.0732 316.314 42.0732 314.077C43.3516 311.36 47.3466 311.52 49.1038 310.242C50.7018 309.923 51.6606 310.562 52.7792 311.36ZM70.0358 342.679C67.959 343.318 68.2786 341.081 67.0002 340.282C65.8816 342.199 67.3198 345.235 65.7218 347.312C63.6444 346.194 62.6856 343.478 61.5676 341.56C59.3304 342.519 60.2892 345.235 59.1706 347.312C58.052 346.833 56.7736 345.874 56.6138 344.596C55.9746 343.158 54.6968 341.72 54.6968 339.802L70.675 339.163C70.8348 340.282 70.675 341.72 70.0358 342.679ZM79.9427 349.23C77.8653 353.544 74.1906 358.657 68.4384 358.657V354.343C71.3142 350.668 75.3092 349.23 79.9427 349.23Z" fill="#FFF500"/>
</g>
<defs>
<clipPath id="clip0_806_92499">
<rect width="579.694" height="710" fill="white" transform="translate(0.216797)"/>
</clipPath>
</defs>
</svg>
