<svg id="id-svg" width="573" height="710" viewBox="0 0 573 710" fill="none" xmlns="http://www.w3.org/2000/svg">
<g clip-path="url(#clip0_806_92456)">
<path d="M572.105 0.859375V576.308C572.105 623.262 550.077 654.229 488.52 654.229H359.92C328.903 654.229 296.693 666.499 286.672 709.806C276.652 666.499 244.442 654.229 213.425 654.229H84.8243C23.2678 654.229 1.24023 623.262 1.24023 576.308V0.859375H572.105Z" fill="#D6D6D6" stroke="black" stroke-width="1.71791"/>
<path d="M184.123 108.678C180.826 113.151 180.174 125.012 196.136 124.805C212.099 124.597 226.762 124.722 242.267 128.174C257.773 131.626 261.008 133.951 261.008 133.951L252.839 144.782C252.839 144.782 238.663 137.561 220.163 138.042C201.662 138.524 186.414 142.273 175.954 138.765C165.795 135.357 161.554 125.258 166.824 115.899C172.11 106.512 184.123 108.678 184.123 108.678Z" fill="black"/>
<path d="M196.136 127.692C210.305 127.508 224.933 126.954 238.734 128.996C253.911 131.241 259.807 134.432 259.807 134.432L256.443 142.375C256.443 142.375 240.697 135.618 220.063 135.465C199.429 135.312 190.441 138.367 181.243 135.282C172.044 132.197 169.435 125.07 171.866 119.621C174.297 114.173 178.837 114.936 178.837 114.936C177.21 120.741 181.967 127.877 196.136 127.692Z" fill="#D3230E"/>
<path d="M205.977 143.629C204.594 134.694 208.55 130.661 208.55 130.661C212.394 134.993 213.355 140.77 213.355 140.77C213.355 140.77 221.284 146.546 233.538 147.028C245.791 147.509 256.363 143.899 257.564 134.031C258.766 124.162 252.278 117.423 240.505 115.016C228.732 112.609 212.875 116.22 212.875 116.22C209.511 121.033 204.465 132.105 204.465 132.105C200.861 126.569 201.342 116.22 201.342 116.22C197.017 116.942 192.452 116.22 192.933 112.609C193.413 108.999 195.816 108.518 195.816 108.518C195.095 102.982 196.777 101.056 196.777 101.056C196.777 101.056 192.692 100.816 191.731 98.168C190.77 95.5204 192.692 94.5577 191.491 92.1508C190.29 89.7439 191.011 87.5777 191.011 87.5777C191.011 87.5777 188.368 87.0963 186.926 84.6894C185.484 82.2826 184.043 71.2109 184.043 71.2109L246.272 68.082C249.876 65.4344 253.72 63.7495 268.617 62.0647C283.513 60.3799 297.128 59.6579 297.128 59.6579C297.609 54.3627 289.496 53.753 289.199 44.2538C288.903 34.7546 300.011 26.2021 314.187 26.2021C328.363 26.2021 340.376 36.3111 340.376 36.3111C340.376 36.3111 340.616 37.7552 335.33 38.4773C330.045 39.1994 329.324 40.8841 329.324 40.8841C335.09 39.9214 336.772 42.3283 336.772 42.3283L328.603 48.5862C331.486 47.8641 334.61 48.8269 334.61 48.8269C331.967 55.0848 323.077 62.5461 323.077 62.5461C331.006 62.0648 335.811 64.7123 335.811 64.7123C335.811 64.7123 337.493 49.0676 342.779 39.9214C348.065 30.7753 358.877 26.4428 370.409 29.5718C381.942 32.7007 396.358 42.569 403.806 48.3455C411.255 54.122 414.138 59.8985 414.138 59.8985C403.566 60.1392 394.196 63.5089 394.196 63.5089C400.443 65.1937 403.806 70.9702 403.806 70.9702C397.559 69.0447 383.384 69.7668 383.384 69.7668C388.91 70.9702 394.196 76.0247 394.196 76.0247C394.196 76.0247 390.111 75.3026 382.663 76.7467C375.215 78.1908 376.176 81.5605 376.176 81.5605C376.176 81.5605 379.059 83.0046 382.903 88.2998C386.747 93.5949 396.839 107.314 405.008 109.48C413.177 111.647 414.378 113.091 414.378 113.091C410.774 113.572 408.371 114.776 408.371 114.776C413.657 120.552 421.346 123.2 421.346 123.2C417.021 126.81 406.93 128.254 406.93 128.254C413.177 133.79 431.677 142.214 431.677 142.214C427.352 146.306 419.664 147.268 419.664 147.268C429.515 155.452 446.333 160.988 446.333 160.988C438.885 164.357 424.709 164.839 424.709 164.839C430.476 173.263 439.846 178.799 449.217 183.612C458.587 188.426 468.918 189.87 468.918 189.87C464.113 193.481 449.217 195.406 449.217 195.406C454.743 199.979 469.159 201.183 469.159 201.183C464.834 207.681 453.621 209.767 453.621 209.767C461.55 215.062 473.323 216.747 473.323 216.747C469.239 221.08 462.511 222.283 462.511 222.283C467.557 224.449 475.726 224.69 475.726 224.69C471.882 228.782 466.356 229.985 466.356 229.985C469.96 231.429 475.005 231.429 475.005 231.429C472.603 234.558 468.999 236.002 468.999 236.002C472.603 242.501 486.057 269.458 492.064 288.232C498.071 307.005 509.363 341.905 513.208 354.662C517.052 367.418 523.299 379.453 523.299 379.453C515.61 378.49 506.48 371.991 506.48 371.991C506.48 371.991 505.519 378.971 509.844 386.192C514.169 393.412 517.532 399.189 517.532 399.189C509.363 397.504 498.551 388.117 498.551 388.117C499.512 398.226 507.681 410.261 507.681 410.261C502.155 408.576 492.304 402.077 492.304 402.077C495.668 412.186 501.703 423.542 501.703 423.542C497.796 421.84 486.923 414.522 486.923 414.522C487.772 421.5 495.588 430.639 495.588 430.639C488.861 429.917 484.295 424.862 484.295 424.862C484.295 424.862 479.905 443.895 474.777 464.181C471.11 478.687 464.834 493.218 464.834 493.218C467.477 497.069 473.003 499.476 473.003 499.476C468.918 500.679 460.269 501.161 460.269 501.161C465.555 505.012 475.886 504.53 475.886 504.53C472.522 508.622 461.23 513.436 461.23 513.436C466.996 515.602 476.607 515.843 476.607 515.843C472.522 520.897 459.068 524.267 459.068 524.267C465.795 525.711 472.042 525.23 472.042 525.23C467.957 530.284 457.145 533.413 457.145 533.413C462.191 534.857 469.399 535.338 469.639 535.338C462.672 540.152 448.736 537.505 448.736 537.505C440.087 544.725 425.19 555.316 401.644 568.072C378.098 580.828 360.318 584.68 360.078 584.92C355.273 587.568 348.545 589.734 348.545 589.734C354.552 600.806 352.87 612.599 352.87 612.599C349.746 607.064 346.863 602.49 346.863 602.49C349.026 613.081 346.623 626.559 346.623 626.559C343.5 617.654 336.291 613.562 336.291 613.562C339.895 622.468 337.733 630.41 337.733 630.41C332.207 621.023 322.356 614.766 322.356 614.766C326.681 623.19 325.48 635.465 325.48 635.465C318.031 623.912 305.537 615.969 305.537 615.969C309.622 622.227 309.622 632.817 309.622 632.817C302.895 622.227 291.362 616.13 291.362 616.13C283.913 620.703 280.31 617.333 280.31 617.333C269.539 624.833 260.937 617.046 252.759 634.903C251.077 623.831 259.727 614.685 259.727 614.685C249.876 618.055 239.544 629.367 239.544 629.367C239.785 617.092 248.674 606.743 248.674 606.743C237.862 607.705 229.213 618.777 229.213 618.296C229.213 603.373 239.785 595.19 239.785 595.19C230.654 597.115 223.446 608.428 223.446 608.428C224.648 597.356 229.59 586.927 229.59 586.927C226.362 588.799 221.265 594.245 221.265 594.245C222.794 586.757 229.42 579.438 229.42 579.438C229.42 579.438 224.323 575.694 218.547 572.46C212.771 569.227 203.825 562.616 190.61 551.785C177.395 540.954 163.82 529.522 163.82 529.522C163.82 529.522 162.139 529.642 155.772 529.401C149.404 529.161 142.317 527.356 142.317 527.356C149.885 526.513 153.129 523.986 153.129 523.986C153.129 523.986 151.567 521.459 142.076 518.57C132.586 515.682 128.982 511.109 128.982 511.109C134.268 512.192 139.313 511.831 139.313 511.831C139.313 511.831 136.911 510.507 132.826 506.656C128.742 502.805 123.576 495.584 123.576 495.584C123.576 495.584 127.54 498.473 131.865 499.556C136.19 500.639 140.274 500.759 140.274 500.759C140.274 500.759 136.911 498.834 132.586 494.622C128.261 490.41 123.095 482.106 123.095 482.106C123.095 482.106 125.979 485.355 130.303 486.077C134.628 486.8 137.752 485.837 137.752 485.837C130.303 481.504 121.173 470.433 121.173 470.433C122.855 471.396 129.583 472.118 129.583 472.118C124.777 467.304 122.375 462.972 119.491 450.215C116.608 437.459 116.608 424.461 116.608 424.461C116.608 424.461 107.946 413.274 101.49 406.466C95.0342 399.659 90.2772 390.809 90.2772 390.809C90.2772 390.809 89.9374 390.128 85.8599 391.149C81.7825 392.17 79.404 391.489 79.404 391.489L86.3696 380.767C86.3696 380.767 84.6707 381.107 79.5739 384.171C74.477 387.235 69.3802 386.213 69.3802 386.213C69.3802 386.213 76.8556 380.767 80.7631 376.172C84.6707 371.577 87.5589 368.003 87.5589 368.003C87.5589 368.003 85.3503 367.322 79.7438 369.024C74.1373 370.726 68.5308 368.343 68.5308 368.343C68.5308 368.343 77.3652 365.28 81.6126 360.174C85.8599 355.068 87.7288 348.771 87.7288 348.771C80.933 352.515 76.176 348.431 76.176 348.431C80.5932 345.878 84.8406 341.793 90.2772 335.666C95.7138 329.539 99.1117 322.561 99.1117 322.561C94.5245 323.923 87.8987 324.093 87.8987 324.093C103.869 316.775 111.514 305.712 118.649 296.692C125.785 287.672 136.998 272.525 144.473 263.675C151.949 254.825 173.015 234.742 185.418 224.19C197.82 213.638 213.79 203.086 229.59 195.087C245.39 187.088 259.831 182.323 259.831 182.323C257.962 177.217 254.395 172.962 247.769 168.878C241.143 164.793 233.073 163.772 233.073 163.772C232.139 165.474 232.393 167.857 232.393 167.857C230.27 167.261 229.08 165.133 229.08 165.133L228.741 168.878C227.976 167.516 226.532 165.048 226.532 165.048C226.362 165.899 225.768 166.75 225.768 166.75C224.918 165.389 223.899 163.942 223.899 163.942L222.285 163.602C222.2 164.963 221.524 166.042 221.524 166.042C219.122 161.95 215.518 159.544 215.518 159.544L211.353 161.95C209.912 158.821 210.392 154.008 210.392 154.008C208.47 151.36 204.274 145.102 204.274 145.102L205.977 143.629Z" fill="black"/>
<path d="M363.028 51.7926C360.589 51.8271 358.159 52.2948 355.993 53.316C347.328 57.4006 347.836 67.1034 347.836 67.1034C355.141 70.3371 363.466 71.3576 363.466 71.3576C363.466 71.3576 364.487 69.4854 369.584 64.3796C374.681 59.2738 378.246 59.9534 378.246 59.9534C377.736 55.4859 370.347 51.6889 363.028 51.7926ZM208.994 69.9571L207.582 70.0273C209.02 74.9777 207.845 82.0808 207.845 82.0808C207.845 82.0808 209.374 78.5062 209.544 73.4005C209.604 71.6153 209.347 70.5774 208.994 69.9571ZM193.742 72.0385C193.742 72.0385 190.856 71.8667 187.628 72.8879C187.628 72.8879 188.986 75.4433 191.534 75.7837C194.083 76.1241 195.101 75.9521 195.101 75.9521L193.742 72.0385ZM197.621 86.9667C195.605 86.8039 193.914 88.8867 193.914 88.8867C197.481 89.3973 200.879 88.2055 198.5 87.1843C198.203 87.0567 197.909 86.99 197.621 86.9667ZM254.681 114.215C254.681 114.215 268.135 122.636 269.096 133.949C270.057 145.261 260.929 151.281 260.929 151.281C260.929 151.281 270.779 150.556 273.662 139.003C276.545 127.45 262.13 115.659 254.681 114.215ZM207.218 115.191C206.384 115.175 205.28 115.28 203.879 115.493C203.879 115.493 203.029 124.515 204.898 128.259C204.898 128.259 205.92 122.644 208.129 119.07C209.785 116.389 209.718 115.239 207.218 115.191ZM208.637 132.853C208.637 132.853 207.13 135.8 207.277 139.621C207.425 143.441 207.889 143.927 208.469 144.258C209.049 144.588 210.846 144.428 211.356 143.236C211.866 142.045 209.316 137.449 208.637 132.853ZM399.802 163.556C403.406 170.295 407.731 172.219 407.731 172.219C393.315 171.256 377.699 165.479 377.699 165.479C380.823 171.015 389.23 175.83 389.23 175.83C381.542 176.312 364.724 173.184 364.724 173.184C369.53 180.886 379.619 184.978 379.619 184.978C370.97 184.978 350.548 182.57 350.548 182.57C354.392 187.624 362.079 191.232 362.079 191.232C355.351 194.121 345.502 190.271 345.502 190.271C345.502 190.271 351.51 198.212 369.29 192.917C365.446 192.195 357.033 184.493 357.033 184.493C357.033 184.493 363.523 186.421 374.335 187.143C385.147 187.865 393.554 185.216 393.554 185.216C382.021 184.013 371.932 177.034 371.932 177.034C382.263 181.367 403.405 181.366 403.645 181.366C396.918 179.922 390.912 172.699 390.912 172.699C404.607 176.31 414.938 174.146 414.938 174.146C410.133 172.461 405.569 167.645 405.569 167.645L410.373 166.202C410.373 166.202 400.282 163.556 399.802 163.556ZM267.656 189.067C267.656 189.067 280.87 200.139 287.117 206.638C293.364 213.137 296.006 213.858 296.006 213.858C296.006 213.858 298.169 209.284 295.526 204.711C295.526 204.711 309.701 208.804 314.507 213.858C314.507 213.858 316.188 210.97 313.305 207.119C310.422 203.268 310.183 199.899 310.183 199.899L327.482 207.6C327.482 207.6 326.521 203.75 321.956 201.103C317.391 198.455 314.027 192.436 314.027 192.436C314.027 192.436 314.508 197.492 318.592 201.103C318.592 201.103 309.221 196.528 305.617 192.917C306.007 197.984 309.773 200.505 308.743 206.638C302.567 199.52 294.812 198.301 287.597 193.402C288.499 199.359 293.558 201.053 294.086 208.565C294.086 208.565 277.267 193.158 267.656 189.067ZM430.348 193.328C417.776 192.988 382.233 198.574 346.08 208.986C309.927 219.398 287.979 230.089 287.979 230.089C287.979 230.089 272.347 228.728 257.057 219.878C241.767 211.028 228.574 198.214 228.574 198.214C228.574 198.214 235.65 218.176 243.465 233.493C251.281 248.811 252.979 247.111 256.377 255.28L332.506 255.519C337.603 243.605 361.174 228.429 383.6 215.834C406.026 203.24 430.348 193.328 430.348 193.328ZM396.935 296.692C396.935 296.692 396.594 322.222 392.177 342.985C387.76 363.749 377.227 396.425 366.693 406.296C356.16 416.167 358.88 418.55 358.88 418.55C359.559 418.209 373.489 415.485 379.945 399.487C386.401 383.489 395.576 355.24 397.615 331.413C399.654 307.586 396.935 296.692 396.935 296.692ZM178.437 302.753C178.437 302.753 171.949 319.121 175.553 338.858C179.157 358.594 191.173 386.754 197.179 396.622C203.186 406.491 209.671 414.432 209.671 414.432L204.387 400.954C204.387 400.954 199.82 396.622 192.852 385.31C185.884 373.997 180.119 345.113 177.957 334.523C175.794 323.933 176.755 310.455 178.437 302.753ZM116.607 424.461C116.607 424.461 116.659 426.743 116.821 429.813C121.37 434.596 142.291 456.479 153.451 465.939C165.945 476.529 188.048 492.176 188.048 492.176C188.048 492.176 190.209 492.174 202.943 494.581C215.677 496.987 238.742 495.785 238.742 495.785C238.742 495.785 239.225 490.489 245.231 492.415C251.238 494.34 258.447 501.32 269.499 510.948C280.552 520.575 293.284 533.093 293.284 533.093C273.342 536.222 254.121 552.827 243.55 562.454C233.192 571.886 232.737 575.694 232.737 575.694C245.951 561.734 261.81 551.625 271.661 545.367C281.512 539.109 285.834 540.794 285.834 540.794C291.361 534.295 297.369 535.016 297.369 535.016C297.369 535.016 301.211 529 307.699 517.206C314.186 505.413 323.557 492.657 323.557 492.657C323.557 492.657 341.224 500.855 364.882 497.469C388.54 494.084 399.24 486.638 417.02 476.048C434.799 465.457 456.424 451.017 466.996 443.074C475.618 436.596 480.76 432.836 482.763 431.375C483.332 428.946 484.294 424.861 484.294 424.861C484.294 424.861 481.893 426.706 476.127 432.242C470.36 437.778 442.731 456.313 421.347 469.55C401.052 482.115 384.348 488.769 365.365 493.138C346.383 497.506 329.325 491.934 329.325 491.934C329.325 491.934 329.325 489.286 325.961 490.249C322.597 491.212 318.03 495.545 309.38 508.301C300.731 521.058 293.764 531.889 293.764 531.889C293.764 531.889 285.835 520.818 275.263 511.19C264.691 501.563 252.199 492.658 245.711 490.491C239.224 488.325 236.58 492.176 236.58 492.176C236.58 492.176 230.334 493.138 218.802 491.453C207.269 489.768 187.288 487.42 187.288 487.42C187.288 487.42 176.414 479.592 158.745 464.615C141.076 449.638 116.607 424.461 116.607 424.461ZM318.102 437.62C318.102 437.62 310.175 439.305 303.928 442.193C297.682 445.081 290.474 447.729 290.474 447.729C296.39 449.491 302.771 449.329 306.423 449.027C310.085 442.521 318.102 437.62 318.102 437.62ZM255.242 438.581C255.242 438.581 260.352 442.425 262.499 447.76C265.395 448.52 271.583 449.66 278.066 447.729C278.066 447.729 270.858 445.081 264.611 442.193C258.364 439.305 255.242 438.581 255.242 438.581ZM262.793 448.578C263.114 449.541 263.341 450.544 263.41 451.579C263.513 453.141 263.368 455.146 263.017 457.409C266.101 458.417 273.851 460.429 282.632 458.557C282.632 458.557 269.842 453.022 262.793 448.578ZM305.484 450.965C297.649 454.852 284.948 458.557 284.948 458.557C294.748 460.646 302.705 458.832 304.741 458.294C304.605 456.97 304.566 455.689 304.647 454.468C304.726 453.274 305.033 452.102 305.484 450.965ZM262.919 458.059C262.41 461.062 261.516 464.495 260.312 468.038C265.995 468.115 275.421 468.045 281.43 466.742C281.43 466.742 270.089 463.584 262.919 458.059ZM304.801 458.75C297.787 464.5 287.11 466.742 287.11 466.742C292.841 467.984 301.611 468.101 307.373 468.045C306.014 464.82 305.154 461.681 304.801 458.75ZM259.85 469.298C258.902 471.932 257.818 474.589 256.531 477.157C258.87 477.548 263.815 478.044 270.621 476.851C280.231 475.167 280.712 473.482 280.712 473.482C280.712 473.482 268.029 471.488 259.85 469.298ZM308.003 469.477C299.817 471.595 287.828 473.482 287.828 473.482C287.828 473.482 288.309 475.167 297.919 476.851C304.809 478.059 310.224 477.902 312.804 477.718C310.872 474.978 309.267 472.207 308.003 469.477ZM255.508 479.126C254.264 481.402 252.892 483.564 251.398 485.514C251.398 485.514 264.374 486.96 272.302 480.221C272.302 480.221 262.997 480.61 255.508 479.126ZM314.31 479.765C306.67 481.257 296.237 480.221 296.237 480.221C304.166 486.96 319.783 485.999 319.783 485.999C317.766 483.978 315.944 481.887 314.31 479.765ZM230.095 581.229C227.211 583.757 225.287 587.727 225.287 587.727L231.657 583.514L230.095 581.229ZM234.299 587.126C234.299 587.126 228.774 590.497 227.453 600.486C227.453 600.486 232.737 592.662 237.782 590.977C237.782 590.977 235.621 589.293 234.299 587.126ZM348.547 589.734C348.547 589.734 340.7 593.564 332.545 596.287C324.39 599.011 313.007 603.093 313.007 603.093C313.007 603.093 320.652 602.245 332.885 598.33C341.465 595.584 347.02 593.239 349.682 592.044C349.336 591.273 348.964 590.502 348.547 589.734ZM349.906 596.554L347.264 598.839L351.469 605.34C351.349 600.647 349.906 596.554 349.906 596.554ZM241.626 596.874C241.626 596.874 234.418 603.371 233.217 610.472C238.262 603.612 246.311 600.847 246.311 600.847L241.626 596.874ZM343.06 603.413C342.339 605.579 339.335 608.71 339.335 608.71C339.335 608.71 339.337 609.672 341.259 612.079C343.181 614.486 344.742 618.457 344.742 618.457C344.742 618.457 345.461 614.845 344.861 610.633C344.26 606.421 343.06 603.413 343.06 603.413ZM253.522 608.667C248.957 610.713 245.231 618.776 245.231 618.776C248.956 614.444 256.524 611.676 256.524 611.676L253.522 608.667ZM333.568 612.199C331.525 613.041 327.562 613.641 327.562 613.641C329.004 614.845 334.531 622.427 334.531 622.427C335.012 616.41 333.568 612.199 333.568 612.199ZM319.153 614.606C317.351 615.449 312.667 615.93 312.667 615.93C316.031 618.577 322.758 627.362 322.758 627.362C322.638 622.307 319.153 614.606 319.153 614.606ZM300.771 614.964C300.771 614.964 296.927 615.206 296.567 615.326L303.294 621.103C303.294 621.103 303.294 616.89 300.771 614.964ZM262.772 616.249C262.772 616.249 256.643 620.823 255.922 625.877C255.922 625.877 261.57 619.738 267.457 618.896L262.772 616.249Z" fill="#FEFEFE"/>
<path d="M369.046 252.936V396.481C369.046 410.34 360.52 422.652 346.284 423.786C332.047 424.92 319.938 425.187 311.888 425.828C303.839 426.47 291.603 429.775 286.672 441.643C281.741 429.775 269.505 426.47 261.456 425.828C253.406 425.187 241.297 424.92 227.061 423.786C212.824 422.652 204.298 410.34 204.298 396.481V252.936H369.046Z" fill="#F2E847"/>
<path d="M269.24 252.936V336.099L204.327 397.258C204.641 410.796 213.091 422.674 227.06 423.787L286.671 367.619L346.283 423.787C360.252 422.674 368.702 410.796 369.016 397.258L304.103 336.099V252.936H269.24Z" fill="#2E48A5" stroke="black" stroke-width="1.14516"/>
<path d="M278.008 401.62C278.008 401.62 280.723 399.697 281.927 397.299C283.131 394.902 285.202 394.043 285.202 394.043C285.202 394.043 285.852 397.815 289.219 399.576C289.219 399.576 287.231 400.795 286.482 402.752C285.733 404.71 278.008 401.62 278.008 401.62ZM299.503 404.591C299.503 404.591 301.061 402.379 303.207 402.416C305.352 402.453 304.794 403.697 303.083 404.384C301.373 405.071 299.503 404.591 299.503 404.591ZM318.623 400.176C318.623 400.176 316.76 404.532 316.594 408.918C316.429 413.303 318.517 416.653 318.517 416.653C318.517 416.653 316.366 416.974 313.883 415.767C311.401 414.56 308.322 411.64 307.282 409.741C306.242 407.842 307.449 405.266 307.449 405.266C307.449 405.266 313.253 400.53 318.623 400.176ZM300.917 410.705C300.917 410.705 303.499 411.377 304.554 412.381C303.341 414.694 301.231 415.667 300.501 419.296C300.501 419.296 298.804 419.177 296.608 416.9C294.412 414.623 293.086 413.794 293.086 413.794L300.917 410.705ZM287.692 415.491C287.692 415.491 287.269 419.246 286.154 421.734C286.154 421.734 282.26 419.427 280.982 415.733L287.692 415.491Z" fill="#D3230E" stroke="black" stroke-width="0.572581"/>
<path d="M250.898 406.537C253.228 406.349 256.517 403.342 263.236 402.318C269.955 401.295 277.685 400.289 284.998 401.43C292.312 402.57 292.299 403.33 301.89 404.383C311.481 405.436 312.36 405.831 312.314 408.49C312.268 411.15 307.369 409.291 302.53 411.234C297.692 413.176 296.275 414.671 286.64 416.151C277.005 417.63 268.53 417.863 263.871 416.769C259.211 415.675 258.174 414.605 255.237 413.669C252.3 412.732 250.792 412.373 249.01 411.984C247.229 411.595 247.004 410.472 247.702 410.081C248.569 409.594 248.462 411.293 250.84 411.068L250.109 410.023C251.347 409.746 251.57 409.822 252.473 409.924C250.797 407.79 249.3 408.332 247.207 408.858C246.97 407.016 248.568 406.726 250.898 406.537Z" fill="#D3230E" stroke="black" stroke-width="0.572581"/>
<path d="M252.473 409.925C253.058 410.706 253.439 411.251 254.584 411.655C252.83 410.926 250.84 411.068 250.84 411.068M263.259 413.106C263.259 413.106 267.071 412.032 270.529 413.168M263.188 413.612C263.188 413.612 266.411 413.668 268.735 414.531M282.543 416.671C282.543 416.671 284.206 419.233 286.583 420.667M284.318 416.385C284.318 416.385 285.551 418.18 287.119 418.904M286.155 416.164C286.155 416.164 286.71 416.996 287.401 417.262M295.229 414.231C297.517 415.504 298.101 417.241 300.784 418.381M301.117 417.373C299.238 416.375 298.466 415.109 296.756 413.688M298.346 413.146C299.634 414.394 300.104 415.457 301.768 416.308M302.292 415.24C301.195 414.36 300.849 413.462 299.685 412.472M301.086 411.863C301.9 412.718 302.365 413.382 303.195 414.243M303.78 413.303C303.78 413.303 302.931 412.423 302.021 411.415M308.722 405.346C308.722 405.346 314.227 401.388 318.27 401.585M310.045 405.622C310.045 405.622 314.192 403.414 317.478 403.534M311.613 406.346C311.613 406.346 314.858 405.136 316.94 405.362M312.225 407.497C312.225 407.497 314.947 407.291 316.712 407.574M312.313 408.49C312.313 408.49 315.106 409.066 316.663 410.423M311.874 409.517C311.874 409.517 314.628 411.148 316.945 412.392M310.475 409.999C310.475 409.999 313.528 412.586 317.419 414.236M308.956 410.1C308.956 410.1 311.979 414.395 317.964 415.639M280.477 400.992C283.239 399.623 283.126 397.475 285.481 395.443M283.296 401.168C284.66 399.745 285.191 398.358 286.218 396.722M284.998 401.43C284.998 401.43 286.227 399.825 287.642 398.457M263.066 412.587C266.269 410.39 267.213 412.754 270.953 411.47C270.691 414.277 269.062 413.948 266.941 415.968C266.941 415.968 265.266 414.595 263.038 414.198C263.038 414.198 263.409 413.399 263.066 412.587Z" stroke="black" stroke-width="0.572581"/>
<path d="M261.988 411.243C261.707 412.472 260.444 413.486 259.098 413.819C259.769 413.323 260.256 412.58 260.393 411.665C260.614 410.195 260.008 408.382 258.069 406.947C259.624 408.631 260.144 410.302 259.949 411.601C259.755 412.897 258.862 413.82 257.655 413.959C256.916 413.937 256.125 413.782 255.316 413.462L255.155 413.877C256.016 414.217 256.867 414.387 257.669 414.408C259.84 414.468 261.816 413.284 262.406 411.391C262.996 409.498 262.472 408.734 261.185 407.712C262.316 408.832 262.269 410.015 261.988 411.243ZM305.315 408.478C303.482 408.53 298.736 408.93 298.736 408.93C298.736 408.93 302.867 409.495 305.315 408.478ZM255.727 410.475C255.904 410.85 255.717 411.273 255.52 411.412C255.323 411.551 255.05 411.611 254.667 411.453L254.492 411.868C254.987 412.072 255.454 412.005 255.776 411.778C256.099 411.55 256.433 410.885 256.012 410.153C255.59 409.421 255.021 409.273 254.261 409.615C255.471 409.592 255.551 410.1 255.727 410.475Z" fill="black"/>
<path d="M254.604 407.76C254.602 407.857 254.582 407.953 254.543 408.042C254.504 408.131 254.449 408.211 254.379 408.278C254.309 408.346 254.227 408.399 254.137 408.434C254.047 408.47 253.951 408.487 253.854 408.486C253.757 408.484 253.662 408.463 253.573 408.425C253.484 408.386 253.404 408.33 253.336 408.26C253.269 408.191 253.216 408.108 253.181 408.018C253.145 407.928 253.128 407.831 253.129 407.734C253.131 407.637 253.152 407.541 253.19 407.453C253.229 407.364 253.285 407.283 253.354 407.216C253.424 407.148 253.506 407.095 253.596 407.06C253.686 407.024 253.783 407.007 253.88 407.008C253.976 407.01 254.072 407.031 254.161 407.069C254.25 407.108 254.33 407.164 254.397 407.234C254.464 407.304 254.517 407.386 254.553 407.476C254.588 407.566 254.606 407.663 254.604 407.76Z" fill="black"/>
<path d="M261.182 404.784C261.18 404.897 261.091 405.004 260.934 405.081C260.778 405.158 260.567 405.199 260.348 405.195C260.128 405.192 259.919 405.143 259.765 405.061C259.612 404.978 259.526 404.869 259.528 404.756C259.53 404.643 259.619 404.536 259.776 404.459C259.932 404.382 260.143 404.341 260.362 404.345C260.582 404.349 260.791 404.397 260.945 404.48C261.098 404.562 261.184 404.672 261.182 404.784Z" fill="black"/>
<path d="M263.35 403.479C263.348 403.592 263.259 403.698 263.103 403.775C262.946 403.852 262.735 403.894 262.516 403.89C262.297 403.886 262.087 403.837 261.934 403.755C261.78 403.673 261.695 403.563 261.697 403.45C261.699 403.337 261.788 403.231 261.944 403.154C262.101 403.077 262.312 403.035 262.531 403.039C262.75 403.043 262.96 403.092 263.113 403.174C263.267 403.256 263.352 403.366 263.35 403.479Z" fill="black"/>
<path d="M265.751 404.237C265.749 404.349 265.66 404.456 265.504 404.533C265.347 404.61 265.136 404.651 264.917 404.648C264.698 404.644 264.488 404.595 264.335 404.513C264.181 404.43 264.096 404.321 264.098 404.208C264.1 404.095 264.189 403.989 264.345 403.911C264.501 403.834 264.712 403.793 264.932 403.797C265.151 403.801 265.36 403.849 265.514 403.932C265.668 404.014 265.753 404.124 265.751 404.237Z" fill="black"/>
<path d="M268.26 403.922C268.258 404.035 268.169 404.142 268.013 404.219C267.856 404.296 267.645 404.337 267.426 404.333C267.207 404.329 266.997 404.281 266.843 404.198C266.69 404.116 266.604 404.006 266.606 403.894C266.608 403.781 266.697 403.674 266.854 403.597C267.01 403.52 267.221 403.479 267.441 403.483C267.66 403.486 267.869 403.535 268.023 403.617C268.177 403.7 268.262 403.809 268.26 403.922Z" fill="black"/>
<path d="M269.174 402.774C269.172 402.887 269.083 402.993 268.926 403.07C268.77 403.147 268.559 403.188 268.339 403.185C268.12 403.181 267.911 403.132 267.757 403.05C267.603 402.968 267.518 402.858 267.52 402.745C267.522 402.632 267.611 402.526 267.767 402.449C267.924 402.372 268.135 402.33 268.354 402.334C268.573 402.338 268.783 402.386 268.937 402.469C269.09 402.551 269.175 402.661 269.174 402.774Z" fill="black"/>
<path d="M271.487 403.441C271.485 403.553 271.396 403.66 271.24 403.737C271.083 403.814 270.872 403.855 270.653 403.852C270.434 403.848 270.224 403.799 270.07 403.717C269.917 403.634 269.832 403.525 269.833 403.412C269.835 403.299 269.924 403.193 270.081 403.116C270.237 403.039 270.448 402.997 270.668 403.001C270.887 403.005 271.096 403.053 271.25 403.136C271.404 403.218 271.489 403.328 271.487 403.441Z" fill="black"/>
<path d="M273.472 402.401C273.47 402.513 273.381 402.62 273.224 402.697C273.068 402.774 272.857 402.815 272.638 402.812C272.418 402.808 272.209 402.759 272.055 402.677C271.902 402.594 271.816 402.485 271.818 402.372C271.82 402.259 271.909 402.153 272.066 402.076C272.222 401.998 272.433 401.957 272.652 401.961C272.872 401.965 273.081 402.013 273.235 402.096C273.389 402.178 273.474 402.288 273.472 402.401Z" fill="black"/>
<path d="M275.048 404.308C275.046 404.421 274.957 404.528 274.801 404.605C274.644 404.682 274.433 404.723 274.214 404.719C273.995 404.716 273.785 404.667 273.632 404.585C273.478 404.502 273.393 404.392 273.395 404.28C273.396 404.167 273.485 404.06 273.642 403.983C273.798 403.906 274.009 403.865 274.229 403.869C274.448 403.873 274.657 403.921 274.811 404.004C274.965 404.086 275.05 404.196 275.048 404.308Z" fill="black"/>
<path d="M278.279 403.558C278.278 403.671 278.189 403.778 278.032 403.855C277.876 403.932 277.665 403.973 277.445 403.969C277.226 403.965 277.017 403.917 276.863 403.835C276.709 403.752 276.624 403.642 276.626 403.53C276.628 403.417 276.717 403.31 276.873 403.233C277.03 403.156 277.241 403.115 277.46 403.119C277.679 403.123 277.889 403.171 278.042 403.254C278.196 403.336 278.281 403.446 278.279 403.558Z" fill="black"/>
<path d="M276.964 402.102C276.962 402.215 276.873 402.322 276.717 402.399C276.56 402.476 276.349 402.517 276.13 402.513C275.911 402.509 275.701 402.461 275.547 402.379C275.394 402.296 275.309 402.186 275.311 402.074C275.313 401.961 275.401 401.854 275.558 401.777C275.714 401.7 275.925 401.659 276.145 401.663C276.364 401.667 276.573 401.715 276.727 401.797C276.881 401.88 276.966 401.99 276.964 402.102Z" fill="black"/>
<path d="M280.517 403.418C280.515 403.531 280.426 403.638 280.27 403.715C280.113 403.792 279.902 403.833 279.683 403.829C279.464 403.825 279.254 403.777 279.101 403.695C278.947 403.612 278.862 403.502 278.864 403.39C278.866 403.277 278.955 403.17 279.111 403.093C279.268 403.016 279.479 402.975 279.698 402.979C279.917 402.983 280.127 403.031 280.28 403.113C280.434 403.196 280.519 403.305 280.517 403.418Z" fill="black"/>
<path d="M283.464 403.649C283.462 403.762 283.373 403.868 283.217 403.945C283.06 404.022 282.849 404.063 282.63 404.06C282.411 404.056 282.201 404.007 282.048 403.925C281.894 403.843 281.809 403.733 281.811 403.62C281.813 403.507 281.902 403.401 282.058 403.324C282.214 403.247 282.425 403.205 282.645 403.209C282.864 403.213 283.073 403.261 283.227 403.344C283.381 403.426 283.466 403.536 283.464 403.649Z" fill="black"/>
<path d="M281.883 402.009C281.881 402.122 281.792 402.229 281.636 402.306C281.479 402.383 281.268 402.424 281.049 402.42C280.83 402.416 280.62 402.368 280.466 402.285C280.313 402.203 280.228 402.093 280.229 401.98C280.231 401.868 280.32 401.761 280.477 401.684C280.633 401.607 280.844 401.566 281.064 401.57C281.283 401.573 281.492 401.622 281.646 401.704C281.8 401.787 281.885 401.896 281.883 402.009Z" fill="black"/>
<path d="M286.239 403.429C286.237 403.541 286.148 403.648 285.992 403.725C285.836 403.802 285.625 403.843 285.405 403.839C285.186 403.836 284.977 403.787 284.823 403.705C284.669 403.622 284.584 403.513 284.586 403.4C284.588 403.287 284.677 403.18 284.833 403.103C284.99 403.026 285.201 402.985 285.42 402.989C285.639 402.993 285.849 403.041 286.002 403.124C286.156 403.206 286.241 403.316 286.239 403.429Z" fill="black"/>
<path d="M288.839 403.026C288.837 403.138 288.748 403.245 288.592 403.322C288.435 403.399 288.224 403.44 288.005 403.437C287.786 403.433 287.576 403.384 287.422 403.302C287.269 403.219 287.184 403.11 287.186 402.997C287.188 402.884 287.276 402.778 287.433 402.701C287.589 402.623 287.8 402.582 288.02 402.586C288.239 402.59 288.448 402.638 288.602 402.721C288.756 402.803 288.841 402.913 288.839 403.026Z" fill="black"/>
<path d="M292.118 404.695C292.116 404.807 292.027 404.914 291.87 404.991C291.714 405.068 291.503 405.109 291.284 405.105C291.065 405.102 290.855 405.053 290.701 404.971C290.548 404.888 290.462 404.779 290.464 404.666C290.466 404.553 290.555 404.447 290.712 404.369C290.868 404.292 291.079 404.251 291.298 404.255C291.518 404.259 291.727 404.307 291.881 404.39C292.035 404.472 292.12 404.582 292.118 404.695Z" fill="black"/>
<path d="M295.695 404.667C295.693 404.78 295.604 404.886 295.448 404.963C295.291 405.04 295.08 405.082 294.861 405.078C294.642 405.074 294.432 405.025 294.278 404.943C294.125 404.861 294.04 404.751 294.041 404.638C294.043 404.525 294.132 404.419 294.289 404.342C294.445 404.265 294.656 404.223 294.876 404.227C295.095 404.231 295.304 404.279 295.458 404.362C295.612 404.444 295.697 404.554 295.695 404.667Z" fill="black"/>
<path d="M302.204 405.676C302.202 405.788 302.113 405.895 301.956 405.972C301.8 406.049 301.589 406.09 301.37 406.087C301.15 406.083 300.941 406.034 300.787 405.952C300.634 405.869 300.548 405.76 300.55 405.647C300.552 405.534 300.641 405.427 300.798 405.35C300.954 405.273 301.165 405.232 301.384 405.236C301.604 405.24 301.813 405.288 301.967 405.371C302.12 405.453 302.206 405.563 302.204 405.676Z" fill="black"/>
<path d="M305.238 405.997C305.236 406.11 305.147 406.216 304.991 406.293C304.834 406.37 304.623 406.412 304.404 406.408C304.185 406.404 303.975 406.355 303.821 406.273C303.668 406.191 303.583 406.081 303.584 405.968C303.586 405.855 303.675 405.749 303.832 405.672C303.988 405.595 304.199 405.554 304.419 405.557C304.638 405.561 304.847 405.61 305.001 405.692C305.155 405.774 305.24 405.884 305.238 405.997Z" fill="black"/>
<path d="M298.734 404.72C298.732 404.832 298.643 404.939 298.486 405.016C298.33 405.093 298.119 405.134 297.899 405.13C297.68 405.127 297.471 405.078 297.317 404.996C297.163 404.913 297.078 404.804 297.08 404.691C297.082 404.578 297.171 404.471 297.327 404.394C297.484 404.317 297.695 404.276 297.914 404.28C298.133 404.284 298.343 404.332 298.497 404.415C298.65 404.497 298.735 404.607 298.734 404.72Z" fill="black"/>
<path d="M291.61 403.073C291.608 403.186 291.519 403.293 291.362 403.37C291.206 403.447 290.995 403.488 290.775 403.484C290.556 403.48 290.347 403.432 290.193 403.349C290.039 403.267 289.954 403.157 289.956 403.044C289.958 402.932 290.047 402.825 290.203 402.748C290.36 402.671 290.571 402.63 290.79 402.633C291.009 402.637 291.219 402.686 291.373 402.768C291.526 402.851 291.611 402.96 291.61 403.073Z" fill="black"/>
<path d="M284.748 401.79C284.746 401.903 284.657 402.009 284.5 402.086C284.344 402.163 284.133 402.205 283.914 402.201C283.694 402.197 283.485 402.149 283.331 402.066C283.178 401.984 283.092 401.874 283.094 401.761C283.096 401.648 283.185 401.542 283.342 401.465C283.498 401.388 283.709 401.346 283.928 401.35C284.148 401.354 284.357 401.403 284.511 401.485C284.664 401.567 284.75 401.677 284.748 401.79Z" fill="black"/>
<path d="M204.298 252.936V396.481C204.298 410.34 212.824 422.652 227.061 423.786C241.297 424.92 253.406 425.187 261.456 425.828C269.505 426.47 281.741 429.775 286.672 441.643C291.603 429.775 303.839 426.47 311.888 425.828C319.938 425.187 332.047 424.92 346.284 423.786C360.52 422.652 369.046 410.34 369.046 396.481V252.936H204.298Z" stroke="black" stroke-width="1.71774"/>
<path d="M275.905 82.7615C274.507 82.8099 273.183 83.4228 272.212 84.4708C271.24 85.5189 270.697 86.9198 270.698 88.3776C270.698 89.8671 271.265 91.2956 272.275 92.3488C273.285 93.402 274.655 93.9937 276.083 93.9936C277.511 93.9937 278.881 93.402 279.891 92.3488C280.901 91.2956 281.469 89.8671 281.469 88.3776C281.469 86.8881 280.901 85.4596 279.891 84.4064C278.881 83.3531 277.511 82.7615 276.083 82.7615C276.024 82.7605 275.964 82.7605 275.905 82.7615ZM274.338 86.8437C274.355 86.8435 274.371 86.8435 274.387 86.8437C275.049 86.8444 275.684 87.1191 276.151 87.6074C276.619 88.0957 276.882 88.7578 276.882 89.4481C276.882 90.1385 276.619 90.8005 276.151 91.2889C275.684 91.7772 275.049 92.0519 274.387 92.0526C274.059 92.0527 273.734 91.9855 273.431 91.8547C273.128 91.7238 272.853 91.5321 272.621 91.2902C272.389 91.0483 272.205 90.7612 272.079 90.4451C271.954 90.129 271.889 89.7903 271.889 89.4481C271.889 88.7659 272.146 88.111 272.603 87.624C273.061 87.137 273.684 86.8568 274.338 86.8437Z" fill="#D3230E"/>
<path d="M270.988 82.0796C270.988 82.0796 264.267 86.9288 268.439 93.6527C272.347 99.9498 282.71 96.8864 284.749 91.27L292.054 91.0998L287.297 89.5682L291.885 87.5258L284.749 86.3345C284.749 86.3345 288.147 84.122 287.807 84.122H282.88C282.88 84.122 281.691 82.7604 280.332 82.5902C280.332 82.5902 284.579 87.8662 282.37 91.7806C280.162 95.695 273.536 96.3758 270.988 92.9719C268.294 89.3748 269.968 85.3133 269.968 85.3133L270.648 87.0152L274.216 86.845C274.216 86.845 273.026 85.8239 271.837 85.3133C270.648 84.8027 270.308 84.2921 270.988 82.0796Z" fill="white"/>
</g>
<defs>
<clipPath id="clip0_806_92456">
<rect width="572.581" height="710" fill="white" transform="translate(0.381836)"/>
</clipPath>
</defs>
</svg>
