<svg id="id-svg" width="574" height="710" viewBox="0 0 574 710" fill="none" xmlns="http://www.w3.org/2000/svg">
<g clip-path="url(#clip0_806_97935)">
<path fill-rule="evenodd" clip-rule="evenodd" d="M557.482 637.56C546.816 650.815 530.124 651.926 514.17 652.304L355.891 652.722C325.66 652.8 307.176 684.999 289.426 704.757C271.174 685.522 259.493 655.159 229.8 652.605C175.367 647.923 119.221 654.833 64.4641 652.014C34.563 649.418 9.96958 638.459 7.49533 605.747L7.39453 3.95264H571.981L571.945 566.001C571.516 588.581 570.926 618.314 557.482 637.56Z" fill="#EFEFEF" stroke="black" stroke-width="0.0291739"/>
<path fill-rule="evenodd" clip-rule="evenodd" d="M557.676 639.66C551.772 646.999 544.263 650.96 536.055 653.128C528.139 655.22 519.741 655.608 511.556 655.802H511.468L353.189 656.22C330.719 656.278 314.62 676.266 300.335 694.008C296.619 698.62 293.019 703.092 289.493 707.017L286.813 710L284.034 707.091L283.981 707.034C278.772 701.536 274.162 695.274 269.535 688.988C258.121 673.478 246.58 657.803 226.794 656.102L226.649 656.089C197.21 653.569 167.313 654.443 137.41 655.319C112.044 656.062 86.671 656.804 61.5756 655.512H61.4432C45.9193 654.163 31.6829 650.586 20.8554 642.987C9.76114 635.205 2.39928 623.399 1.06974 605.796V605.52L0.966797 3.72401V0H4.69289H569.281H573.005V3.72401L572.969 565.773V565.832C572.755 577.22 572.497 590.417 570.577 603.342C568.617 616.52 564.933 629.314 557.836 639.471L557.676 639.66ZM534.163 645.938C540.88 644.163 546.992 640.988 551.728 635.195L551.724 635.193C558.073 626.106 561.409 614.405 563.213 602.263C565.055 589.868 565.307 576.905 565.519 565.714L565.555 7.45007H8.41898L8.51981 605.243C9.66242 620.349 15.8397 630.383 25.1339 636.904C34.6948 643.613 47.7109 646.814 62.0839 648.06V648.068C86.9251 649.339 112.071 648.604 137.206 647.869C167.412 646.984 197.613 646.1 227.26 648.637L227.405 648.65C250.539 650.639 263.103 667.707 275.531 684.592C279.182 689.553 282.822 694.499 286.672 698.939C289.268 695.9 291.877 692.661 294.542 689.351C309.883 670.299 327.172 648.835 353.189 648.767L511.382 648.352C519.149 648.167 527.078 647.81 534.163 645.938Z" fill="black"/>
<path fill-rule="evenodd" clip-rule="evenodd" d="M74.5803 228.419C82.4484 228.1 90.2555 228.016 97.6573 229.591C97.7791 224.378 95.2649 214.571 98.0248 213.947C112.097 212.458 121.555 209.616 125.653 204.176C132.083 195.638 149.047 194.046 169.259 194.017C180.375 184.113 188.121 187.1 192.675 199.803C209.383 198.064 214.141 203.861 206.947 217.197C216.968 229.421 226.93 245.667 239.299 270.143C254.827 274.38 272.115 281.924 289.055 289.946C299.233 295.648 309.425 296.365 319.593 293.548C354.037 284.014 386.765 280.359 416.704 285.736C432.583 288.587 439.573 285.596 440.907 280.152C457.43 212.708 463.087 213.54 471.133 190.419C478.247 169.978 483.137 163.034 494.641 158.512C509.184 152.79 521.442 151.339 533.002 152.669C521.692 182.381 515.407 211.652 516.808 241.458C517.972 266.222 495.527 300.786 480.419 307.975C469.606 313.121 467.863 317.446 471.973 323.35C478.535 332.783 480.688 346.295 480.726 365.747C480.799 403.95 496.514 416.351 519.304 427.174C520.7 434.188 521.276 442.675 520.329 450.161C509.215 458.775 505.737 476.639 502.148 496.118C494.609 491.014 486.937 484.379 480.804 475.511C465.54 479.172 454.383 484.013 452.251 491.446C448.983 484.809 453.097 477.113 452.469 465.181C445.187 464.143 437.905 464.343 430.627 468.966C428.378 461.877 433.175 456.504 448.277 453.652C453.614 448.39 459.144 444.538 465.133 443.211C469.247 442.299 473.051 439.079 476.792 434.589C461.558 432.974 445.481 428.481 427.905 418.863C425.217 432.923 414.866 438.019 396.641 435.624C390.239 434.784 389.136 437.521 393.469 442.356C407.588 458.447 411.795 466.723 401.069 467.502C380.462 468.999 364.694 476.279 355.505 489.707C339.966 489.85 328.2 491.667 325.776 498.371C323.714 492.549 334.766 480.646 320.271 480.228C312.168 479.995 304.554 482.469 296.959 490.673C297.228 483.916 299.595 477.246 302.947 470.411C308.708 458.67 303.027 458.531 291.279 465.076C292.054 456.399 296.35 452.194 304.163 452.467C309.45 450.642 312.978 445.286 320.023 446.994C334.707 451.583 344.417 452.48 346.696 448.254C350.687 440.858 341.97 431.774 337.087 425.946C330.548 418.141 333.642 410.632 340.363 398.122C329.555 402.736 316.205 407.235 303.062 409.537C274.827 414.484 250.311 415.975 232.401 410.134C229.309 413.648 226.688 415.744 224.542 416.433L114.181 421.982C104.687 430.06 92.7739 436.158 80.9403 435.288L73.2928 442.984C70.9992 440.493 70.9004 435.41 72.8328 427.746C67.5293 428.628 62.4149 432.192 57.5819 439.674C56.3847 430.333 58.2498 423.228 62.2112 417.655C60.3124 412.379 56.3028 412.518 50.1843 418.073C50.9993 400.718 62.4863 395.261 74.9773 396.349C101.278 398.643 120.293 396.04 133.387 393.552C168.953 386.788 161.566 380.26 150.637 373.543C133.645 374.453 111.07 377.318 91.9358 381.363C83.2948 385.457 74.7693 387.717 67.4138 388.046C61.7385 390.134 57.4223 392.365 55.1223 394.675L55.0047 386.471L51.7722 388.181L48.5418 389.893C47.5714 380.785 51.2513 377.769 51.2933 369.628C50.972 363.111 54.5258 358.651 60.6926 354.327C68.3527 348.956 110.014 347.937 135.168 344.581L153.683 314.779L134.83 271L107.323 257.64C104.91 251.893 104.255 241.91 100.083 240.402L88.8671 248.14L95.2838 238.841L78.9092 244.968L91.2154 235.413L74.2296 238.574L87.7476 232.051L74.5803 228.419ZM120.131 232.603C128.819 229.419 134.282 230.078 140.94 230.62L129.841 235.237C138.205 235.672 145.057 236.516 149.703 237.965C146.561 239.297 139.615 239.36 134.572 240.057L152.732 246.598L133.328 245.68L145.884 255.98C136.993 252.336 128.193 248.245 119.642 242.912C118.699 239.965 119.382 235.886 120.131 232.603ZM138.245 209.364C139.732 209.564 140.646 211.931 140.278 214.63C139.915 217.329 138.403 219.366 136.913 219.163C135.426 218.963 134.511 216.596 134.878 213.897C135.244 211.198 136.754 209.161 138.245 209.364ZM208.476 309.372C217.564 304.951 225.291 302.584 232.12 303.037L227.755 309.372C221.712 309.757 215.447 312.151 209.083 315.461L214.878 309.872L208.476 309.372ZM206.898 320.941C213.731 317.448 220.883 314.606 228.36 312.418C229.734 312.539 229.532 313.512 228.726 315.096C220.681 317.156 214.252 320.424 207.505 324.108C206.697 323.176 206.373 322.485 206.898 320.941ZM207.142 328.494C212.191 324.501 217.245 322.25 222.298 321.185C223.428 322.445 222.943 323.703 220.843 324.961L208.719 330.565C206.737 330.849 206.333 329.305 207.142 328.494ZM209.809 335.679L216.115 333.852L212.962 337.02L208.11 338.114L209.809 335.679ZM404.362 335.419L414.204 346.688L414.062 350.825L402.793 337.986L404.362 335.419ZM399.796 339.84L412.778 355.675L412.35 359.527L398.798 342.835L399.796 339.84ZM395.66 345.833L411.209 362.094V366.089L395.089 348.828L395.66 345.833ZM393.663 351.68L409.64 370.939L408.783 374.219L392.379 354.533L393.663 351.68Z" fill="#2C2C2B"/>
<path fill-rule="evenodd" clip-rule="evenodd" d="M78.4053 277.679C83.022 263.707 91.1778 251.481 110.686 247.318C115.444 246.303 118.002 251.311 120.31 250.235C121.841 249.532 122.763 247.053 124.902 248.124C134.263 252.819 140.073 259.525 144.815 266.406C154.988 281.165 162.837 296.257 162.654 312.909L175.456 333.06C176.124 349.56 178.896 362.06 184.143 375.952C185.842 386.806 183.292 389.823 176.5 384.998C185.174 425.315 184.826 454.483 171.282 467.356C150.736 452.011 147.159 413.561 155.288 356.387C157.317 342.117 154.66 330.682 150.732 321.634C151.698 328.342 149.972 335.5 147.019 342.864C152.998 354.488 150.759 372.188 141.711 394.922C141.444 382.988 139.625 372.215 136.748 362.243C132.209 347.206 133.104 334.536 135.761 320.806C122.717 305.358 118.413 290.399 124.324 276.914C124.49 266.646 120.083 266.181 111.102 275.522L111.169 293.785C117.12 308.712 119.588 321.199 116.158 329.132C110.333 342.606 107.676 349.945 108.426 362.86C109.111 374.696 105.99 383.217 101.195 379.869C96.6157 376.672 95.5193 370.552 97.5839 361.976C99.8503 342.467 99.4218 330.6 97.7688 322.207C95.1076 327.366 94.3977 339.252 89.7831 347.979C85.282 356.485 82.2721 358.395 79.989 353.314C78.4032 347.212 74.8536 342.421 69.3463 338.937C69.2434 334.839 66.8532 332.047 62.1777 330.569C73.2237 311.222 72.6188 295.188 78.4053 277.679Z" fill="#E21C2A"/>
<path fill-rule="evenodd" clip-rule="evenodd" d="M78.5867 352.31C80.2922 356.344 82.5585 358.218 84.9719 356.019C85.4508 361.509 84.1107 368.167 79.1286 371.421C74.8711 374.198 72.4137 371.093 73.9743 365.55C75.1442 361.398 77.0639 358.195 78.5867 352.31Z" fill="#E21C2A"/>
<path d="M457.543 252.425L473.474 243.477" stroke="white" stroke-width="2.43842"/>
<path d="M458.852 243.477C466.344 238.968 473.836 235.33 481.33 232.563" stroke="white" stroke-width="2.43842"/>
<path d="M463.871 228.854C471.363 224.344 478.855 220.709 486.349 217.942" stroke="white" stroke-width="2.43842"/>
<path d="M466.053 215.105C473.545 210.595 481.037 206.96 488.531 204.193" stroke="white" stroke-width="2.43842"/>
<path d="M473.256 201.137C480.748 196.63 488.24 192.992 495.734 190.226" stroke="white" stroke-width="2.43842"/>
<path d="M477.84 190.662C485.332 186.153 492.824 182.517 500.318 179.751" stroke="white" stroke-width="2.43842"/>
<path d="M479.803 180.841C487.295 176.333 493.476 172.695 500.97 169.929" stroke="white" stroke-width="2.43842"/>
<path d="M493.221 203.359C489.573 196.844 484.738 188.927 478.391 184.073" stroke="white" stroke-width="2.33011"/>
<path d="M497.368 197.031C493.719 190.516 488.884 183.471 482.539 178.619" stroke="white" stroke-width="2.33011"/>
<path d="M498.896 188.955C495.248 182.44 491.066 177.798 484.721 172.944" stroke="white" stroke-width="2.33011"/>
<path d="M501.951 183.5C498.303 176.983 495.429 173.433 489.084 168.579" stroke="white" stroke-width="2.33011"/>
<path d="M489.728 206.851C486.08 200.335 483.207 196.784 476.861 191.932" stroke="white" stroke-width="2.33011"/>
<path d="M486.676 212.962C483.025 206.445 480.154 202.895 473.807 198.041" stroke="white" stroke-width="2.33011"/>
<path d="M484.275 219.728C480.627 213.21 477.754 209.661 471.406 204.807" stroke="white" stroke-width="2.33011"/>
<path d="M483.183 227.146C479.535 220.631 475.134 214.679 468.789 209.827" stroke="white" stroke-width="2.33011"/>
<path d="M481.218 234.13C476.641 227.924 473.661 223.901 468.133 218.774" stroke="white" stroke-width="2.33011"/>
<path d="M477.943 240.677C473.368 234.47 470.386 230.448 464.857 225.321" stroke="white" stroke-width="2.33011"/>
<path d="M475.328 246.353C470.751 240.146 466.46 235.468 460.932 230.341" stroke="white" stroke-width="2.33011"/>
<path fill-rule="evenodd" clip-rule="evenodd" d="M138.421 209.442C142.057 209.442 145.01 212.023 145.01 215.205C145.01 218.387 142.057 220.971 138.421 220.971C134.783 220.971 131.832 218.387 131.832 215.205C131.832 212.023 134.783 209.442 138.421 209.442Z" fill="#E21C2A" stroke="#2C2C2B" stroke-width="0.453684"/>
</g>
<defs>
<clipPath id="clip0_806_97935">
<rect width="572.038" height="710" fill="white" transform="translate(0.966797)"/>
</clipPath>
</defs>
</svg>
