<svg id="id-svg" width="580" height="703" viewBox="0 0 580 703" fill="none" xmlns="http://www.w3.org/2000/svg">
<g clip-path="url(#clip0_806_103547)">
<path d="M566.748 368.008C571.677 373.415 576.025 373.984 579.504 370L579.794 0H0L0.290079 370C4.05865 373.984 8.4074 373.415 13.0454 368.008L125.815 188.701H141.18L104.943 106.447C97.4049 85.9542 105.812 74.8545 129.584 73.1465C132.483 60.9076 138.281 53.7925 146.977 51.7998C150.747 50.6614 154.225 50.3774 157.704 50.0926C160.603 50.3774 163.792 50.6614 167.56 51.7998C176.257 53.7925 182.055 60.9076 184.954 73.1465C205.247 71.7233 212.784 82.8231 206.986 106.162L175.098 188.7H192.202L219.742 237.085C222.061 240.785 224.67 240.785 226.989 237.085L255.689 191.831H273.373L231.628 97.3382C222.93 73.7147 232.497 60.907 260.037 58.915C263.226 44.6842 270.184 36.4307 280.04 34.1532C283.519 33.2996 286.418 32.446 289.897 32.446C293.375 32.446 296.564 33.2996 299.753 34.1532C309.61 36.4307 316.567 44.6841 319.756 58.915C347.296 60.907 356.863 73.7147 348.166 97.3382L306.42 191.831H324.105L352.804 237.085C355.413 240.785 357.732 240.785 360.051 237.085L387.592 188.7H404.696L372.807 106.162C367.009 82.8231 374.546 71.7233 394.839 73.1465C398.028 60.9076 403.826 53.7925 412.233 51.7998C415.711 50.6614 419.19 50.3774 422.09 50.0926C425.568 50.3774 429.337 50.6614 432.815 51.7998C441.513 53.7925 447.31 60.9076 450.209 73.1465C474.271 74.8545 482.387 85.9542 474.85 106.447L438.613 188.701H453.978L566.748 368.008H566.748Z" fill="#0051BA"/>
<path d="M579.504 370C576.025 373.985 571.676 373.415 566.748 368.008L453.978 188.701H438.614L474.851 106.447C482.388 85.9545 474.271 74.8547 450.21 73.1468C447.31 60.9078 441.513 53.7928 432.816 51.8C429.337 50.6616 425.568 50.3777 422.09 50.0928C419.191 50.3776 415.712 50.6616 412.233 51.8C403.827 53.7928 398.028 60.9078 394.839 73.1468C374.547 71.7236 367.009 82.8233 372.807 106.162L404.696 188.701H387.592L360.052 237.085C357.733 240.785 355.414 240.785 352.805 237.085L324.105 191.831H306.421L348.166 97.3385C356.863 73.715 347.297 60.9073 319.756 58.9153C316.567 44.6845 309.61 36.431 299.753 34.1535C296.565 33.2999 293.375 32.4463 289.897 32.4463C286.418 32.4463 283.519 33.2999 280.04 34.1535C270.184 36.431 263.226 44.6844 260.038 58.9153C232.497 60.9073 222.931 73.715 231.628 97.3385L273.373 191.831H255.689L226.989 237.085C224.67 240.785 222.061 240.785 219.742 237.085L192.202 188.701H175.098L206.986 106.162C212.784 82.8233 205.247 71.7236 184.954 73.1468C182.056 60.9078 176.257 53.7928 167.561 51.8C163.792 50.6616 160.603 50.3777 157.704 50.0928C154.225 50.3776 150.747 50.6616 146.978 51.8C138.281 53.7928 132.483 60.9078 129.584 73.1468C105.813 74.8547 97.4053 85.9545 104.943 106.447L141.18 188.701H125.816L13.0457 368.008C8.40771 373.415 4.05897 373.985 0.290405 370V476.446C46.0942 495.8 87.8394 496.654 125.526 479.577C162.053 459.085 198.58 458.8 235.107 478.723C253.66 487.831 271.924 492.384 289.897 492.1C308.161 492.384 326.424 487.831 344.688 478.723C381.215 458.8 417.741 459.085 454.268 479.577C491.955 496.654 533.7 495.8 579.504 476.446L579.504 370ZM494.273 282.908L570.227 407C575.155 414.969 576.314 422.654 573.705 430.623C572.546 432.9 571.386 434.892 569.647 436.885C567.038 440.3 564.139 443.146 560.66 445.423C557.762 447.7 554.572 449.977 551.673 452.254C546.165 455.384 541.237 458.231 536.019 460.223C531.381 462.5 527.032 463.923 522.683 465.347C512.827 468.192 504.71 468.477 497.173 466.77C493.984 466.2 491.085 463.923 488.186 460.507C485.287 456.808 482.388 453.108 480.069 448.839C480.069 448.839 479.779 448.839 479.779 448.554L374.256 280.062C366.139 268.677 366.139 260.139 373.966 254.162L392.52 239.362C398.028 233.954 402.666 233.954 406.434 239.362L415.422 255.301C420.06 259.854 424.988 259.854 429.627 255.301L436.005 243.062C438.033 239.647 440.643 237.939 444.122 237.37C445.861 237.939 447.31 238.224 449.05 238.509C450.5 239.077 451.949 239.647 453.688 240.785C455.428 241.924 456.877 243.062 458.617 244.2C460.356 245.339 462.095 246.762 463.835 248.47C465.864 249.608 467.603 251.031 469.053 252.739C470.792 254.162 472.532 255.585 474.271 257.293C481.808 264.408 488.186 272.947 494.273 282.908ZM387.302 107.585C395.129 107.585 400.927 110.715 405.565 116.408C408.464 105.877 414.263 96.4851 422.959 88.2309C428.757 92.2156 435.424 101.892 442.382 117.546C448.181 109.577 453.109 106.447 456.877 108.154C458.617 131.492 451.659 158.531 436.295 188.701H407.595C393.679 156.254 386.722 129.216 387.302 107.585ZM268.734 109.862C276.271 93.354 283.519 82.5382 289.897 77.4151C296.274 82.5382 303.521 93.354 311.059 109.862C317.437 100.754 322.945 97.3387 327.583 99.0467C329.323 125.8 321.205 157.108 303.521 191.831H276.271C258.588 157.107 250.47 125.8 252.21 99.0467C256.848 97.3387 262.356 100.754 268.734 109.862ZM283.519 256.155C285.548 259.57 287.867 260.993 289.897 261.562C292.215 260.993 294.245 259.57 296.274 256.155L302.362 243.062C306.71 235.377 314.538 235.377 325.264 243.062L337.15 252.17C347.006 261.562 353.964 270.101 358.312 278.07L460.065 446.562C462.095 454.531 458.906 456.239 450.499 452.254C413.972 426.069 376.286 426.069 337.15 452.254C321.785 463.354 306.13 469.047 289.897 469.616C273.952 469.047 258.008 463.354 242.643 452.254C203.797 426.069 165.821 426.069 129.294 452.254C120.597 456.239 117.408 454.531 119.727 446.562L221.481 278.07C226.12 270.101 232.787 261.563 242.644 252.17L254.529 243.062C265.256 235.377 273.083 235.377 277.431 243.062L283.519 256.155H283.519ZM156.834 88.2312C165.53 96.4854 171.329 105.877 174.228 116.408C178.576 110.715 184.953 107.585 192.491 107.585C193.071 129.216 186.403 156.254 172.198 188.701H143.498C127.844 158.531 121.176 131.493 122.916 108.154C126.974 106.447 131.612 109.577 137.411 117.547C144.658 101.892 151.035 92.2159 156.834 88.2312ZM105.522 257.293C107.261 255.585 109.001 254.162 110.74 252.739C112.48 251.031 114.219 249.608 115.958 248.47C117.698 246.762 119.437 245.339 121.176 244.2C122.916 243.062 124.655 241.924 126.104 240.785C127.554 239.647 129.003 239.077 130.743 238.508C132.193 238.224 133.931 237.939 135.671 237.37C139.15 237.939 142.049 239.647 143.788 243.062L150.166 255.301C155.094 259.854 159.733 259.854 164.371 255.301L173.358 239.362C176.837 233.954 181.475 233.954 187.273 239.362L205.826 254.162C213.943 260.139 213.653 268.677 205.537 280.062L100.014 448.554C100.014 448.839 100.014 448.839 99.7243 448.839C97.1152 453.108 94.5061 456.807 91.607 460.507C88.7078 463.923 85.8087 466.2 82.6202 466.77C75.0831 468.477 66.9659 468.192 57.1089 465.346C53.0502 463.923 48.4122 462.5 43.7743 460.223C38.8454 458.231 33.6272 455.384 28.1199 452.254C25.2207 449.977 22.0315 447.7 19.1323 445.423C15.9439 443.146 13.0448 440.3 10.1456 436.885C8.69604 434.892 7.24729 432.9 6.08697 430.623C3.18865 422.654 4.63822 414.969 9.56628 407L85.5197 282.908C91.6073 272.947 98.275 264.408 105.522 257.293L105.522 257.293Z" fill="white"/>
<path d="M570.227 406.999L494.273 282.908C488.186 272.946 481.808 264.407 474.271 257.292C472.531 255.584 470.792 254.161 469.053 252.739C467.603 251.031 465.864 249.608 463.835 248.469C462.095 246.761 460.355 245.338 458.617 244.2C456.877 243.061 455.427 241.923 453.688 240.785C451.949 239.646 450.499 239.077 449.05 238.508C447.31 238.223 445.861 237.938 444.122 237.37C440.642 237.938 438.033 239.646 436.004 243.061L429.627 255.3C424.988 259.854 420.06 259.854 415.422 255.3L406.434 239.362C402.666 233.954 398.028 233.954 392.52 239.362L373.966 254.161C366.139 260.139 366.139 268.677 374.256 280.061L479.779 448.554C479.779 448.838 480.069 448.838 480.069 448.838C482.388 453.107 485.287 456.807 488.186 460.507C491.085 463.923 493.983 466.2 497.173 466.769C504.71 468.476 512.827 468.192 522.683 465.346C527.032 463.923 531.381 462.5 536.019 460.223C541.237 458.23 546.165 455.384 551.673 452.254C554.572 449.977 557.761 447.699 560.66 445.422C564.139 443.146 567.037 440.299 569.646 436.884C571.386 434.892 572.546 432.9 573.705 430.623C576.314 422.653 575.155 414.969 570.227 406.999Z" fill="black"/>
<path d="M405.565 116.408C400.927 110.716 395.129 107.585 387.302 107.585C386.723 129.216 393.68 156.255 407.595 188.701H436.295C451.659 158.532 458.617 131.493 456.877 108.154C453.109 106.447 448.181 109.577 442.383 117.547C435.425 101.893 428.757 92.2162 422.96 88.2314C414.263 96.4856 408.465 105.877 405.565 116.408Z" fill="#D81E05" stroke="white" stroke-width="4.02635"/>
<path d="M289.897 77.416C283.519 82.5391 276.271 93.3549 268.734 109.863C262.356 100.755 256.848 97.3396 252.21 99.0476C250.471 125.801 258.588 157.109 276.271 191.832H303.521C321.206 157.108 329.323 125.801 327.583 99.0476C322.945 97.3396 317.437 100.755 311.059 109.863C303.521 93.3549 296.274 82.5391 289.897 77.416Z" fill="#D81E05" stroke="white" stroke-width="4.02635"/>
<path d="M289.897 261.563C287.867 260.993 285.548 259.57 283.519 256.155L277.431 243.062C273.083 235.378 265.255 235.378 254.529 243.062L242.643 252.17C232.787 261.563 226.119 270.101 221.481 278.07L119.727 446.562C117.408 454.531 120.597 456.239 129.294 452.255C165.821 426.07 203.797 426.07 242.643 452.255C258.007 463.354 273.952 469.047 289.896 469.616C306.13 469.047 321.784 463.354 337.15 452.255C376.286 426.07 413.972 426.07 450.499 452.255C458.906 456.239 462.095 454.531 460.065 446.562L358.311 278.07C353.963 270.101 347.006 261.563 337.149 252.17L325.264 243.062C314.537 235.378 306.71 235.378 302.361 243.062L296.274 256.155C294.245 259.57 292.215 260.993 289.896 261.563H289.897Z" fill="black"/>
<path d="M174.228 116.408C171.329 105.877 165.531 96.4856 156.834 88.2314C151.036 92.2162 144.658 101.893 137.411 117.547C131.613 109.577 126.975 106.447 122.916 108.154C121.177 131.493 127.844 158.531 143.499 188.701H172.199C186.403 156.255 193.071 129.216 192.492 107.585C184.954 107.585 178.576 110.716 174.228 116.408Z" fill="#D81E05" stroke="white" stroke-width="4.02635"/>
<path d="M110.74 252.739C109.001 254.161 107.262 255.584 105.522 257.292C98.275 264.407 91.6072 272.946 85.5197 282.908L9.56626 406.999C4.6382 414.969 3.18862 422.653 6.08695 430.623C7.24727 432.9 8.69602 434.892 10.1456 436.884C13.0447 440.299 15.9439 443.146 19.1323 445.423C22.0315 447.699 25.2207 449.977 28.1198 452.254C33.6272 455.384 38.8454 458.23 43.7742 460.223C48.4122 462.5 53.0502 463.923 57.1088 465.346C66.9658 468.192 75.0831 468.476 82.6202 466.769C85.8086 466.2 88.7078 463.923 91.6069 460.507C94.5061 456.807 97.1152 453.107 99.7243 448.838C100.014 448.838 100.014 448.838 100.014 448.554L205.537 280.061C213.653 268.677 213.943 260.139 205.826 254.161L187.273 239.362C181.475 233.954 176.837 233.954 173.358 239.362L164.371 255.3C159.733 259.854 155.094 259.854 150.166 255.3L143.788 243.061C142.049 239.646 139.15 237.938 135.671 237.37C133.931 237.938 132.193 238.223 130.743 238.508C129.003 239.077 127.554 239.646 126.104 240.785C124.655 241.923 122.916 243.061 121.176 244.2C119.437 245.338 117.698 246.761 115.958 248.469C114.219 249.608 112.479 251.031 110.74 252.739L110.74 252.739Z" fill="black"/>
<path d="M579.503 535.647V506.9C533.7 525.684 491.665 526.824 453.978 510.031C417.451 489.539 380.924 489.254 344.397 509.177C326.423 518 308.16 522.554 289.897 522.554C271.923 522.554 253.66 518 235.396 509.177C198.869 489.254 162.342 489.539 125.815 510.031C88.1289 526.824 46.094 525.684 0.289673 506.9V535.647C40.8753 550.446 77.9819 553.293 111.61 544.47C116.248 542.762 121.176 540.77 125.815 538.777C162.342 518.285 198.869 518 235.396 537.923C253.659 546.746 271.923 551.3 289.896 551.3C308.159 551.3 326.423 546.746 344.396 537.923C380.923 518 417.45 518.285 453.977 538.777C458.616 540.77 463.254 542.762 468.182 544.47C502.1 553.293 538.917 550.446 579.502 535.647H579.503Z" fill="white"/>
<path d="M579.503 506.9V476.446C533.7 495.8 491.954 496.653 454.268 479.577C417.741 459.085 381.214 458.8 344.687 478.723C326.424 487.831 308.16 492.384 289.897 492.1C271.923 492.384 253.66 487.83 235.106 478.723C198.579 458.8 162.052 459.085 125.526 479.577C87.839 496.654 46.0938 495.8 0.290161 476.446V506.9C46.0939 525.684 88.1289 526.823 125.816 510.031C162.343 489.538 198.87 489.254 235.397 509.176C253.66 517.999 271.924 522.554 289.897 522.554C308.16 522.554 326.424 517.999 344.397 509.176C380.924 489.254 417.451 489.538 453.978 510.031C491.665 526.823 533.7 525.684 579.504 506.9H579.503Z" fill="#0051BA"/>
<path d="M111.611 544.469C77.982 553.292 40.8757 550.446 0.290405 535.646V566.1C46.6735 584.884 88.7085 586.307 126.105 569.231C162.632 548.738 199.159 548.454 235.686 568.376C253.66 577.484 271.924 581.754 289.897 581.754C307.871 581.754 326.134 577.484 344.107 568.376C380.634 548.453 417.161 548.738 453.688 569.231C491.085 586.307 533.12 584.884 579.504 566.1V535.646C538.918 550.446 502.101 553.292 468.183 544.469C463.255 542.761 458.617 540.769 453.978 538.776C417.451 518.284 380.925 517.999 344.398 537.923C326.424 546.746 308.161 551.299 289.897 551.299C271.924 551.299 253.66 546.746 235.397 537.923C198.87 517.999 162.343 518.284 125.816 538.776C121.177 540.769 116.249 542.761 111.611 544.469H111.611Z" fill="#0051BA"/>
<path d="M289.897 581.755C271.923 581.755 253.66 577.485 235.685 568.377C199.158 548.455 162.631 548.739 126.105 569.232C88.7082 586.308 46.6728 584.885 0.289795 566.101V579.193C0.289795 580.616 0.289795 582.039 0.579874 583.462C0.579874 584.601 0.869132 587.446 1.15921 592.001C1.15921 593.139 1.44929 593.993 1.44929 595.131C47.253 613.916 88.708 615.055 126.105 597.977C162.632 577.485 199.159 577.2 235.685 597.124C253.66 606.232 271.923 610.5 289.897 610.5C307.87 610.5 326.133 606.232 344.107 597.124C380.634 577.2 417.161 577.485 453.688 597.977C491.085 615.055 532.83 613.916 578.344 595.131C578.634 593.993 578.634 593.139 578.634 592.001C579.213 587.446 579.213 584.601 579.213 583.462C579.213 582.039 579.503 580.616 579.503 579.193V566.101C533.119 584.885 491.085 586.308 453.688 569.232C417.161 548.739 380.634 548.455 344.107 568.377C326.133 577.485 307.87 581.755 289.897 581.755Z" fill="white"/>
<path d="M289.897 610.499C271.923 610.499 253.66 606.231 235.685 597.123C199.158 577.199 162.632 577.484 126.105 597.976C88.7083 615.054 47.253 613.915 1.44934 595.13C2.0295 598.261 2.31875 601.392 3.47825 604.238C4.63857 607.938 5.79807 610.499 6.66748 612.207C6.95756 612.492 7.24764 613.061 7.53689 613.63C11.0162 619.607 15.9442 625.3 21.7418 630.707C34.4979 642.092 53.3407 647.784 77.6925 648.354L228.728 650.915C229.888 650.915 230.467 650.915 231.337 650.915C232.787 650.915 234.236 650.915 235.396 650.915C235.685 650.915 235.685 650.915 236.265 650.915C250.18 652.054 262.646 657.177 273.083 667.423C283.229 677.669 288.737 689.338 289.896 703C291.056 689.338 296.564 677.669 306.71 667.423C317.147 657.177 329.612 652.054 343.527 650.915C344.107 650.915 344.397 650.915 344.397 650.915C345.846 650.915 347.296 650.915 348.455 650.915C349.325 650.915 350.195 650.915 351.064 650.915L502.1 648.354C526.741 647.784 545.295 642.092 558.05 630.707C564.139 625.3 568.777 619.607 572.255 613.63C572.835 613.061 573.125 612.492 573.125 612.207C573.705 610.499 574.864 607.938 576.314 604.238C577.473 601.392 577.763 598.261 578.343 595.13C532.83 613.915 491.085 615.054 453.687 597.976C417.16 577.484 380.634 577.199 344.107 597.123C326.133 606.231 307.87 610.499 289.897 610.499Z" fill="#0051BA"/>
</g>
<defs>
<clipPath id="clip0_806_103547">
<rect width="579.794" height="703" fill="white"/>
</clipPath>
</defs>
</svg>
