<svg id="id-svg" width="569" height="732" viewBox="0 0 569 732" fill="none" xmlns="http://www.w3.org/2000/svg">
<g clip-path="url(#clip0_806_103561)">
<path fill-rule="evenodd" clip-rule="evenodd" d="M284.729 729.054C288.843 695.146 317.621 668.887 352.66 668.887L496.361 665.241C534.275 665.241 564.711 634.64 564.711 596.725V2.93848H2.92749V596.725C2.92749 634.64 34.27 665.241 72.1852 665.241L215.886 668.887C250.925 668.887 280.128 695.149 284.314 729.057L284.729 729.054Z" fill="#F8C300" stroke="#F8C300" stroke-width="5.856" stroke-linecap="round"/>
<path fill-rule="evenodd" clip-rule="evenodd" d="M565.104 75.8271C545.809 77.8088 531.143 81.2808 516.631 98.3195C481.337 102.676 464.189 122.038 462.076 153.832C435.596 172.656 426.981 201.688 436.234 240.929C405.117 260.415 392.665 284.565 407.493 315.534L407.911 387.436C410.259 397.313 415.392 406.841 422.834 416.082C400.82 451.495 410.71 483.08 452.505 502.223C452.657 562.29 486.157 579.356 534.817 576.878C541.216 585.437 551.29 591.994 564.71 596.727L565.104 75.8271Z" fill="#007CC3" stroke="#007CC3" stroke-width="5.856" stroke-linecap="round" stroke-linejoin="round"/>
<path d="M565.104 75.8271C545.809 77.8088 531.143 81.2808 516.631 98.3195C481.337 102.676 464.189 122.038 462.076 153.832C435.596 172.656 426.981 201.688 436.234 240.929C405.117 260.415 392.665 284.565 407.493 315.534L407.911 387.436C410.259 397.313 415.392 406.841 422.834 416.082C400.82 451.495 410.71 483.08 452.505 502.223C452.657 562.29 486.157 579.356 534.817 576.878C541.216 585.437 551.29 591.994 564.71 596.727" stroke="white" stroke-width="5.856" stroke-linecap="round" stroke-linejoin="round"/>
<path fill-rule="evenodd" clip-rule="evenodd" d="M94.0629 115.773C71.3211 121.388 54.2175 129.51 41.4163 139.797V71.772C54.2175 82.0586 71.3211 90.1815 94.0629 95.795C88.4493 73.0533 80.3265 55.9497 70.0398 43.1484H138.065C127.778 55.9497 119.655 73.0533 114.041 95.795C136.784 90.1815 153.887 82.0586 166.688 71.772V139.797C153.887 129.51 136.784 121.388 114.041 115.773C119.655 138.516 127.778 155.619 138.065 168.421H70.0398C80.3265 155.619 88.4493 138.516 94.0629 115.773Z" fill="#DA251D" stroke="white" stroke-width="4.6848" stroke-linecap="round" stroke-linejoin="round"/>
<path d="M104.052 41.5121C112.09 41.5121 118.606 34.9961 118.606 26.9582C118.606 18.9203 112.09 12.4043 104.052 12.4043C96.0138 12.4043 89.4978 18.9203 89.4978 26.9582C89.4978 34.9961 96.0138 41.5121 104.052 41.5121Z" fill="#DA251D" stroke="white" stroke-width="4.6848" stroke-linecap="round" stroke-linejoin="round"/>
<path d="M39.779 105.785C39.779 97.747 33.263 91.231 25.2251 91.231C17.1872 91.231 10.6711 97.747 10.6711 105.785C10.6711 113.823 17.1872 120.339 25.2251 120.339C33.263 120.339 39.779 113.823 39.779 105.785Z" fill="#DA251D" stroke="white" stroke-width="4.49196" stroke-linecap="round" stroke-linejoin="round"/>
<path d="M168.325 105.785C168.325 113.823 174.841 120.339 182.879 120.339C190.917 120.339 197.433 113.823 197.433 105.785C197.433 97.7475 190.917 91.2314 182.879 91.2314C174.841 91.2314 168.325 97.7475 168.325 105.785Z" fill="#DA251D" stroke="white" stroke-width="4.49196" stroke-linecap="round" stroke-linejoin="round"/>
<path d="M104.052 199.166C112.09 199.166 118.606 192.65 118.606 184.613C118.606 176.575 112.09 170.059 104.052 170.059C96.0138 170.059 89.4978 176.575 89.4978 184.613C89.4978 192.65 96.0138 199.166 104.052 199.166Z" fill="#DA251D" stroke="white" stroke-width="4.6848" stroke-linecap="round" stroke-linejoin="round"/>
<path d="M565.025 179.196C519.063 185.099 497.986 211.739 513.282 268.687" stroke="white" stroke-width="5.856" stroke-linecap="round" stroke-linejoin="round"/>
<path d="M508.575 229.561C465.266 236.151 440.138 255.554 437.669 294.049" stroke="white" stroke-width="5.856" stroke-linecap="round" stroke-linejoin="round"/>
<path d="M548.55 182.523C543.252 173.599 545.765 162.602 555.154 150.24" stroke="white" stroke-width="5.856" stroke-linecap="round" stroke-linejoin="round"/>
<path d="M549.891 135.169C531.983 150.118 524.703 167.66 532.958 188.989" stroke="white" stroke-width="5.856" stroke-linecap="round" stroke-linejoin="round"/>
<path d="M494.139 203.124C487.297 213.003 486.836 222.881 492.756 232.759" stroke="white" stroke-width="5.856" stroke-linecap="round" stroke-linejoin="round"/>
<path d="M487.201 180.632C469.687 195.069 462.493 213.636 473.697 239.56" stroke="white" stroke-width="5.856" stroke-linecap="round" stroke-linejoin="round"/>
<path d="M488.157 163.644C454.607 178.455 443.862 206.645 458.168 249.53" stroke="white" stroke-width="5.856" stroke-linecap="round" stroke-linejoin="round"/>
<path d="M564.907 336.278C553.042 325.712 551.386 315.466 559.941 305.536" stroke="white" stroke-width="5.856" stroke-linecap="round" stroke-linejoin="round"/>
<path d="M564.888 360.332C534.226 341.589 524.561 319.735 545.584 293.333" stroke="white" stroke-width="5.856" stroke-linecap="round" stroke-linejoin="round"/>
<path d="M564.873 381.148C514.301 353.049 496.436 317.207 543.431 279.933" stroke="white" stroke-width="5.856" stroke-linecap="round" stroke-linejoin="round"/>
<path d="M565.104 529.021C478.279 496.799 474.882 439.531 552.045 398.854" stroke="white" stroke-width="5.856" stroke-linecap="round" stroke-linejoin="round"/>
<path d="M500.839 272.515C446.616 320.795 431.272 372.72 508.629 432.712" stroke="white" stroke-width="5.856" stroke-linecap="round" stroke-linejoin="round"/>
<path d="M522.333 418.509C489.326 397.759 474.185 371.907 476.911 340.949" stroke="white" stroke-width="5.856" stroke-linecap="round" stroke-linejoin="round"/>
<path d="M532.607 410.602C512.285 398.831 501.376 379.201 491.268 361.048" stroke="white" stroke-width="5.856" stroke-linecap="round" stroke-linejoin="round"/>
<path d="M519.503 374.209C524.251 383.933 532.425 391.16 545.312 402.563" stroke="white" stroke-width="5.856" stroke-linecap="round" stroke-linejoin="round"/>
<path d="M515.914 449.582C511.148 476.709 532.52 493.924 564.778 507.009" stroke="white" stroke-width="5.856" stroke-linecap="round" stroke-linejoin="round"/>
<path d="M531.706 457.477C530.89 471.464 542.636 481.613 564.792 488.584" stroke="white" stroke-width="5.856" stroke-linecap="round" stroke-linejoin="round"/>
<path d="M480.74 435.705C459.861 434.352 436.53 430.443 422.834 416.084" stroke="white" stroke-width="5.856" stroke-linecap="round" stroke-linejoin="round"/>
<path d="M475.236 465.375C463.996 456.181 460.37 446.224 466.313 434.3" stroke="white" stroke-width="5.856" stroke-linecap="round" stroke-linejoin="round"/>
<path d="M452.1 431.588C444.098 449.869 449.179 465.597 467.34 478.773" stroke="white" stroke-width="5.856" stroke-linecap="round" stroke-linejoin="round"/>
<path d="M460.162 487.867C434.451 471.304 425.323 455.179 439.478 427.332" stroke="white" stroke-width="5.856" stroke-linecap="round" stroke-linejoin="round"/>
<path d="M452.505 502.223C475.336 507.846 494.468 505.233 514.987 500.25" stroke="white" stroke-width="5.856" stroke-linecap="round" stroke-linejoin="round"/>
<path d="M527.16 539.79C525.465 556.257 527.478 567.558 534.817 576.878" stroke="white" stroke-width="5.856" stroke-linecap="round" stroke-linejoin="round"/>
<path d="M491.747 534.047C501.488 544.572 511.129 552.236 526.616 551.516" stroke="white" stroke-width="5.856" stroke-linecap="round" stroke-linejoin="round"/>
<path d="M473.801 530.219C486.892 554.975 505.089 566.332 528.391 564.29" stroke="white" stroke-width="5.856" stroke-linecap="round" stroke-linejoin="round"/>
<path fill-rule="evenodd" clip-rule="evenodd" d="M313.909 310.766H232.846L220.883 324.644H196.42V273.886C129.829 215.554 222.451 173.684 251.098 102.498L313.909 310.766ZM303.673 358.209L310.488 369.552L251.098 566.477C222.451 495.29 129.829 453.42 196.42 395.089V344.331H220.883L232.846 358.209H303.673ZM320.685 376.92C334.376 383.811 319.493 395.788 372.107 385.932L379.764 394.068C404.952 377.101 432.474 396.089 475.954 403.161C450.251 371.834 447.1 338.774 471.169 303.62C443.411 303.3 418.844 306.969 401.299 319.413H364.45C354.009 313.046 341.494 309.271 325.951 309.282L256.927 83.4622C257.466 80.8896 257.913 78.2808 258.254 75.6315C267.267 80.0997 275.483 80.8943 282.528 75.8218C292.231 68.8327 302.411 77.3913 326.589 73.7594C304.579 75.0846 293.291 64.7189 282.01 69.5559C272.242 73.7441 265.057 71.1242 259.038 64.3218C259.119 58.7018 258.756 52.9184 257.82 46.9377C252.438 12.5255 207.228 44.3476 241.911 55.5261C257.542 147.446 82.0187 204.264 159.627 283.521V324.644H80.1863C82.2213 318.406 85.8907 312.574 90.4753 306.97C68.3426 316.144 42.0228 325.316 12.231 334.487C42.0228 343.658 68.3426 352.831 90.4753 362.005C85.8907 356.4 82.2213 350.569 80.1863 344.331H159.627V385.453C82.0187 464.711 257.542 521.529 241.911 613.449C207.228 624.627 252.438 656.449 257.82 622.037C258.756 616.057 259.119 610.273 259.038 604.653C265.057 597.851 272.242 595.23 282.01 599.419C293.291 604.256 304.579 593.89 326.589 595.216C302.411 591.583 292.231 600.142 282.528 593.153C275.483 588.08 267.267 588.875 258.254 593.344C257.913 590.694 257.466 588.085 256.927 585.513L320.685 376.92Z" fill="#DA251D" stroke="white" stroke-width="4.0992" stroke-linejoin="round"/>
<path fill-rule="evenodd" clip-rule="evenodd" d="M316.116 325.396C314.846 329.889 326.362 330.66 330.472 330.66C339.876 330.66 339.218 334.315 344.599 341.081C358.051 357.99 361.829 351.234 365.756 356.504C361.715 359.946 352.152 349.583 352.028 362.122C351.839 381.17 374.915 385.677 376.882 363.949C378.735 343.506 374.785 339.56 362.536 327.31C357.262 322.037 319.551 313.238 316.116 325.396Z" fill="#F8C300"/>
<path fill-rule="evenodd" clip-rule="evenodd" d="M317.108 340.087C307.759 341.283 312.725 350.159 320.58 348.081C332.083 345.036 342.059 336.891 317.108 340.087Z" fill="#F8C300"/>
<path fill-rule="evenodd" clip-rule="evenodd" d="M320.406 354.86C313.95 357.701 318.712 365.445 326.799 361.445C340.372 354.733 344.073 344.445 320.406 354.86Z" fill="#F8C300"/>
<path fill-rule="evenodd" clip-rule="evenodd" d="M329.121 366.03C323.882 369.25 328.067 376.541 335.586 371.555C347.091 363.927 345.406 356.019 329.121 366.03Z" fill="#F8C300"/>
<path fill-rule="evenodd" clip-rule="evenodd" d="M338.769 374.927C333.76 379.166 340.025 384.954 345.338 378.577C351.964 370.624 344.27 370.272 338.769 374.927Z" fill="#F8C300"/>
<path fill-rule="evenodd" clip-rule="evenodd" d="M438.986 342.925C436.35 325.144 444.308 329.821 445.082 321.532C411.314 324.405 406.627 332.181 421.516 355.068C424.309 342.94 414.405 339.972 426.063 334.01C426.166 339.046 427.922 345.113 431.209 350.465C433.086 343.986 429.452 334.492 434.201 331.434C435.112 335.783 436.159 340.181 438.986 342.925Z" fill="#F8C300"/>
<path fill-rule="evenodd" clip-rule="evenodd" d="M395.17 363.834C394.778 354.181 395.558 345.003 398.989 341.397C399.844 348.398 400.63 354.665 405.495 358.649C405.097 346.675 404.715 340.533 407.582 338.056C400.777 333.309 397.244 331.473 392.198 331.185C389.382 346.271 390.714 357.987 395.17 363.834Z" fill="#F8C300"/>
<path fill-rule="evenodd" clip-rule="evenodd" d="M232.533 329.942L228.614 334.488H303.597L307.517 329.942H232.533Z" fill="#F8C300" stroke="#F8C300" stroke-width="3.5136" stroke-linecap="round" stroke-linejoin="round"/>
<path d="M312.467 324.2L307.517 329.943M237.483 324.2L232.532 329.943M248.195 324.2L243.245 329.943M258.907 324.2L253.957 329.943M269.619 324.2L264.668 329.943M280.331 324.2L275.381 329.943M291.043 324.2L286.093 329.943M301.755 324.2L296.805 329.943" stroke="#F8C300" stroke-width="3.5136" stroke-linecap="round" stroke-linejoin="round"/>
</g>
<defs>
<clipPath id="clip0_806_103561">
<rect width="568.032" height="732" fill="white"/>
</clipPath>
</defs>
</svg>
