<svg id="id-svg" width="642" height="732" viewBox="0 0 642 732" fill="none" xmlns="http://www.w3.org/2000/svg">
<g clip-path="url(#clip0_806_103607)">
<path fill-rule="evenodd" clip-rule="evenodd" d="M638.212 3.17578V550.319C638.212 617.103 593.536 665.688 532.056 665.688H393.426C348.057 665.688 325.03 700.691 320.888 728.554C316.745 700.691 293.718 665.688 248.115 665.688H109.711C48.2229 665.688 3.55518 617.095 3.55518 550.319V3.17578H638.212Z" fill="#157DC1"/>
<path fill-rule="evenodd" clip-rule="evenodd" d="M638.212 134.664H3.55518V3.17578H638.212V134.664Z" fill="#E42913"/>
<path fill-rule="evenodd" clip-rule="evenodd" d="M215.183 174.27H109.252V134.664H215.183V174.27Z" fill="white" stroke="black" stroke-width="3.62693" stroke-miterlimit="22.93" stroke-linecap="round"/>
<path fill-rule="evenodd" clip-rule="evenodd" d="M320.88 174.27H215.183V134.664H320.88V174.27Z" fill="white" stroke="black" stroke-width="3.62693" stroke-miterlimit="22.93" stroke-linecap="round"/>
<path fill-rule="evenodd" clip-rule="evenodd" d="M426.577 174.27H320.88V134.664H426.577V174.27Z" fill="white" stroke="black" stroke-width="3.62693" stroke-miterlimit="22.93" stroke-linecap="round"/>
<path fill-rule="evenodd" clip-rule="evenodd" d="M532.282 174.27H426.577V134.664H532.282V174.27Z" fill="white" stroke="black" stroke-width="3.62693" stroke-miterlimit="22.93" stroke-linecap="round"/>
<path fill-rule="evenodd" clip-rule="evenodd" d="M638.212 174.27H532.282V134.664H638.212V174.27Z" fill="white" stroke="black" stroke-width="3.62693" stroke-miterlimit="22.93" stroke-linecap="round"/>
<path fill-rule="evenodd" clip-rule="evenodd" d="M109.252 174.27H3.55518V134.664H109.252V174.27Z" fill="white" stroke="black" stroke-width="3.62693" stroke-miterlimit="22.93" stroke-linecap="round"/>
<path fill-rule="evenodd" clip-rule="evenodd" d="M267.919 134.664H162.214V94.8242H267.919V134.664Z" fill="white" stroke="black" stroke-width="3.62693" stroke-miterlimit="22.93" stroke-linecap="round"/>
<path fill-rule="evenodd" clip-rule="evenodd" d="M373.849 134.664H267.918V94.8242H373.849V134.664Z" fill="white" stroke="black" stroke-width="3.62693" stroke-miterlimit="22.93" stroke-linecap="round"/>
<path fill-rule="evenodd" clip-rule="evenodd" d="M479.546 134.664H373.849V94.8242H479.546V134.664Z" fill="white" stroke="black" stroke-width="3.62693" stroke-miterlimit="22.93" stroke-linecap="round"/>
<path fill-rule="evenodd" clip-rule="evenodd" d="M585.243 134.664H479.546V94.8242H585.243V134.664Z" fill="white" stroke="black" stroke-width="3.62693" stroke-miterlimit="22.93" stroke-linecap="round"/>
<path fill-rule="evenodd" clip-rule="evenodd" d="M638.212 134.664H585.243V94.8242H638.212V134.664Z" fill="white" stroke="black" stroke-width="3.62693" stroke-miterlimit="22.93" stroke-linecap="round"/>
<path fill-rule="evenodd" clip-rule="evenodd" d="M56.5165 134.664H3.55518V94.8242H56.5165V134.664Z" fill="white" stroke="black" stroke-width="3.62693" stroke-miterlimit="22.93" stroke-linecap="round"/>
<path fill-rule="evenodd" clip-rule="evenodd" d="M82.7678 94.8239H30.0322V55.2178H82.7678V94.8239Z" fill="white" stroke="black" stroke-width="3.62693" stroke-miterlimit="22.93" stroke-linecap="round"/>
<path fill-rule="evenodd" clip-rule="evenodd" d="M162.213 134.664H56.5166V94.8242H162.213V134.664Z" fill="white" stroke="black" stroke-width="3.62693" stroke-miterlimit="22.93" stroke-linecap="round"/>
<path fill-rule="evenodd" clip-rule="evenodd" d="M188.698 94.8239H135.737V55.2178H188.698V94.8239Z" fill="white" stroke="black" stroke-width="3.62693" stroke-miterlimit="22.93" stroke-linecap="round"/>
<path fill-rule="evenodd" clip-rule="evenodd" d="M294.395 94.8239H241.434V55.2178H294.395V94.8239Z" fill="white" stroke="black" stroke-width="3.62693" stroke-miterlimit="22.93" stroke-linecap="round"/>
<path fill-rule="evenodd" clip-rule="evenodd" d="M400.1 94.8239H347.364V55.2178H400.1V94.8239Z" fill="white" stroke="black" stroke-width="3.62693" stroke-miterlimit="22.93" stroke-linecap="round"/>
<path fill-rule="evenodd" clip-rule="evenodd" d="M506.031 94.8239H453.062V55.2178H506.031V94.8239Z" fill="white" stroke="black" stroke-width="3.62693" stroke-miterlimit="22.93" stroke-linecap="round"/>
<path fill-rule="evenodd" clip-rule="evenodd" d="M611.728 94.8239H558.758V55.2178H611.728V94.8239Z" fill="white" stroke="black" stroke-width="3.62693" stroke-miterlimit="22.93" stroke-linecap="round"/>
<path d="M638.212 3.17578V550.319C638.212 617.103 593.536 665.688 532.056 665.688H393.426C348.057 665.688 325.03 700.691 320.888 728.554C316.745 700.691 293.718 665.688 248.115 665.688H109.711C48.2229 665.688 3.55518 617.095 3.55518 550.319V3.17578H638.212Z" stroke="black" stroke-width="6.3431" stroke-linecap="round" stroke-linejoin="round"/>
<path fill-rule="evenodd" clip-rule="evenodd" d="M83.6946 231.842C89.2834 224.666 97.4939 220.004 106.52 218.882C115.546 217.76 124.648 220.269 131.824 225.858C139 231.446 143.662 239.657 144.784 248.683C145.906 257.709 143.397 266.811 137.808 273.987C126.065 288.954 104.416 291.719 89.6831 279.976C86.1177 277.218 83.133 273.782 80.9007 269.866C78.6685 265.95 77.2327 261.632 76.6761 257.159C76.1195 252.686 76.4531 248.147 77.6576 243.803C78.8622 239.46 80.9138 235.398 83.6946 231.85V231.842ZM76.0942 297.24C84.8385 304.071 95.4122 308.156 106.478 308.978C117.544 309.8 128.605 307.322 138.263 301.858C147.921 296.393 155.741 288.188 160.735 278.279C165.729 268.37 167.673 257.202 166.32 246.189C164.968 235.175 160.38 224.81 153.136 216.404C145.893 207.997 136.319 201.928 125.626 198.963C114.933 195.998 103.601 196.27 93.063 199.745C82.5248 203.221 73.2538 209.743 66.4223 218.487C61.8843 224.292 58.5346 230.935 56.5647 238.035C54.5947 245.135 54.043 252.554 54.9412 259.867C55.8394 267.181 58.1698 274.246 61.7993 280.658C65.4288 287.071 70.2863 292.705 76.0942 297.24Z" fill="white" stroke="black" stroke-width="3.62693" stroke-miterlimit="22.93" stroke-linecap="round"/>
<path fill-rule="evenodd" clip-rule="evenodd" d="M401.019 633.456C396.643 629.998 393.419 626.315 392.266 618.948C405.162 619.867 420.822 626.315 447.073 624.477C482.077 621.713 488.984 610.663 506.716 597.533C519.378 588.321 532.741 588.554 544.944 592.238C538.262 581.647 534.813 568.518 540.801 554.244C549.095 533.747 558.299 524.309 552.319 489.765C547.942 463.74 537.811 450.159 533.894 437.722C541.26 437.263 545.637 439.568 550.013 442.792C547.708 436.11 529.058 408.941 513.398 398.576C517.774 409.626 510.867 443.945 514.776 454.076C519.612 447.628 522.836 442.099 526.978 440.487C529.283 445.782 541.72 486.081 529.509 505.199C517.073 525.003 494.28 527.533 468.254 510.269C448.218 496.914 223.235 330.647 179.018 296.796C187.078 281.369 182.702 262.485 168.428 251.427C152.542 238.765 129.281 241.755 116.845 257.641C110.805 265.339 108.067 275.12 109.232 284.835C110.397 294.55 115.37 303.406 123.059 309.458C137.333 320.508 156.677 320.282 169.572 308.765C213.329 343.309 428.866 521.545 446.597 537.898C469.858 559.088 472.623 581.655 456.503 598.46C440.843 615.039 398.706 612.734 393.177 611.589C393.636 607.213 398.246 602.836 403.308 596.622C392.484 595.244 360.937 610.211 349.194 608.599C362.783 621.261 393.87 632.779 401.011 633.472L401.019 633.456ZM163.826 294.483C160.1 299.246 154.634 302.335 148.631 303.069C142.628 303.802 136.58 302.122 131.816 298.396C127.052 294.67 123.964 289.204 123.23 283.201C122.496 277.198 124.177 271.15 127.903 266.386C135.503 256.255 150.011 254.643 159.909 262.469C162.274 264.308 164.253 266.597 165.731 269.203C167.21 271.81 168.158 274.683 168.522 277.657C168.886 280.632 168.658 283.649 167.852 286.535C167.047 289.421 165.678 292.119 163.826 294.475V294.483Z" fill="white" stroke="black" stroke-width="3.62693" stroke-miterlimit="22.93" stroke-linecap="round"/>
<path fill-rule="evenodd" clip-rule="evenodd" d="M109.712 287.108C102.024 286.854 94.6458 284.019 88.7669 279.058C82.888 274.098 78.8511 267.302 77.3073 259.767C75.7634 252.231 76.8027 244.395 80.2573 237.523C83.712 230.65 89.3807 225.142 96.3494 221.885C103.318 218.629 111.18 217.814 118.669 219.573C126.157 221.332 132.834 225.562 137.624 231.581C142.414 237.599 145.037 245.056 145.071 252.748C145.104 260.44 142.546 267.919 137.809 273.979C134.007 278.798 129.004 282.532 123.301 284.803C124.391 290.219 127.42 295.051 131.82 298.392C133.649 299.935 135.759 301.109 138.034 301.85C144.586 298.336 150.317 293.47 154.847 287.576C162.958 277.207 167.169 264.318 166.742 251.161C166.315 238.003 161.278 225.414 152.512 215.593C143.746 205.772 131.807 199.344 118.782 197.432C105.758 195.519 92.4752 198.244 81.2558 205.131C70.0363 212.018 61.5935 222.628 57.4026 235.107C53.2117 247.586 53.5391 261.142 58.3277 273.404C63.1164 285.667 72.0616 295.857 83.6005 302.193C95.1393 308.53 108.538 310.611 121.455 308.072C115.283 302.616 111.143 295.229 109.712 287.116V287.108Z" fill="white" stroke="black" stroke-width="3.62693" stroke-miterlimit="22.93" stroke-linecap="round"/>
<path fill-rule="evenodd" clip-rule="evenodd" d="M233.14 350.668C204.818 382.448 150.011 420.902 150.011 420.902L138.034 403.863L206.889 327.182L275.745 250.267L293.936 260.172C293.936 260.172 261.696 318.896 233.14 350.676V350.668Z" fill="white" stroke="black" stroke-width="3.62693" stroke-miterlimit="22.93" stroke-linecap="round"/>
<path fill-rule="evenodd" clip-rule="evenodd" d="M261.237 266.386L283.579 278.363L261.237 266.386Z" fill="white"/>
<path d="M261.237 266.386L283.579 278.363" stroke="black" stroke-width="3.62693" stroke-miterlimit="22.93" stroke-linecap="round"/>
<path fill-rule="evenodd" clip-rule="evenodd" d="M255.708 272.6L279.202 285.27L255.708 272.6Z" fill="white"/>
<path d="M255.708 272.6L279.202 285.27" stroke="black" stroke-width="3.62693" stroke-miterlimit="22.93" stroke-linecap="round"/>
<path fill-rule="evenodd" clip-rule="evenodd" d="M250.187 278.589L275.052 292.178L250.187 278.589Z" fill="white"/>
<path d="M250.187 278.589L275.052 292.178" stroke="black" stroke-width="3.62693" stroke-miterlimit="22.93" stroke-linecap="round"/>
<path fill-rule="evenodd" clip-rule="evenodd" d="M152.542 387.743L166.824 408.465L152.542 387.743Z" fill="white"/>
<path d="M152.542 387.743L166.824 408.465" stroke="black" stroke-width="3.62693" stroke-miterlimit="22.93" stroke-linecap="round"/>
<path fill-rule="evenodd" clip-rule="evenodd" d="M158.071 381.529L173.272 403.629L158.071 381.529Z" fill="white"/>
<path d="M158.071 381.529L173.272 403.629" stroke="black" stroke-width="3.62693" stroke-miterlimit="22.93" stroke-linecap="round"/>
<path fill-rule="evenodd" clip-rule="evenodd" d="M163.6 375.541L179.719 398.794L163.6 375.541Z" fill="white"/>
<path d="M163.6 375.541L179.719 398.794" stroke="black" stroke-width="3.62693" stroke-miterlimit="22.93" stroke-linecap="round"/>
<path fill-rule="evenodd" clip-rule="evenodd" d="M109.252 593.157L118.005 586.016L111.791 577.956L102.812 584.863C100.128 583.241 97.0112 582.481 93.8819 582.687C90.7525 582.893 87.7618 584.055 85.3142 586.016C82.1948 588.539 80.1953 592.189 79.749 596.176C79.3027 600.163 80.4455 604.165 82.9298 607.315C85.414 610.466 89.0396 612.51 93.0208 613.005C97.002 613.501 101.018 612.407 104.198 609.962C106.666 608.018 108.476 605.362 109.383 602.354C110.289 599.347 110.249 596.133 109.268 593.149L109.252 593.157Z" fill="#EA9B00" stroke="black" stroke-width="3.62693" stroke-linecap="round" stroke-linejoin="round"/>
<path fill-rule="evenodd" clip-rule="evenodd" d="M563.135 314.286C560.909 307.567 557.211 301.429 552.311 296.321C557.611 294.684 562.54 292.025 566.819 288.495C587.774 272.141 591.232 241.981 574.878 221.026C566.975 211.046 555.446 204.598 542.805 203.088C530.165 201.578 517.441 205.129 507.409 212.966C503.147 216.402 499.489 220.527 496.585 225.169C492.678 219.265 487.58 214.244 481.618 210.427C459.284 196.379 429.575 203.286 415.293 225.628C401.245 247.962 408.152 277.67 430.494 291.952C438.702 297.035 448.253 299.524 457.898 299.093L449.145 306.001L436.483 308.306L436.023 316.132L431.187 320.049C427.27 318.203 423.587 317.978 421.056 319.815C418.751 321.661 418.066 325.344 418.985 329.487L104.884 576.119L118.239 593.391L432.574 346.759C436.257 348.605 440.174 349.065 442.479 346.993C445.01 345.147 445.703 341.464 444.551 337.321L449.62 333.404L457.446 335.016L462.742 323.039L471.261 316.358C469.207 323.598 468.882 331.22 470.311 338.61C471.74 345.999 474.884 352.95 479.49 358.903C484.095 364.855 490.034 369.644 496.828 372.883C503.621 376.122 511.081 377.721 518.605 377.552C526.129 377.382 533.509 375.448 540.15 371.906C546.791 368.365 552.508 363.313 556.84 357.159C561.173 351.005 564 343.919 565.095 336.473C566.19 329.027 565.521 321.427 563.143 314.286H563.135ZM527.906 360.8C523.807 362.16 519.479 362.697 515.172 362.38C510.865 362.063 506.663 360.899 502.807 358.954C498.915 357.01 495.446 354.317 492.597 351.029C489.748 347.741 487.577 343.923 486.207 339.794C484.838 335.665 484.297 331.306 484.616 326.968C484.935 322.629 486.107 318.396 488.066 314.512C488.759 313.134 489.444 311.981 490.137 310.829L482.537 300.697L493.361 292.178C496.126 293.897 499.349 294.73 502.6 294.565C505.851 294.401 508.975 293.248 511.552 291.259C518.459 285.73 519.846 275.599 514.317 268.692C511.656 265.383 507.809 263.243 503.594 262.727C499.38 262.211 495.13 263.359 491.749 265.927C489.241 267.998 487.4 270.763 486.458 273.876C485.516 276.989 485.514 280.311 486.454 283.425L475.629 291.944L467.803 282.039C466.425 282.498 465.039 282.958 463.427 283.417C459.198 284.377 454.821 284.484 450.55 283.732C446.279 282.981 442.201 281.386 438.554 279.041C431.155 274.393 425.864 267.038 423.813 258.544C421.967 249.791 423.353 241.046 428.189 233.672C430.463 229.986 433.443 226.787 436.958 224.258C440.473 221.73 444.453 219.921 448.67 218.937C452.887 217.952 457.257 217.812 461.528 218.523C465.799 219.234 469.888 220.783 473.558 223.081C477.26 225.393 480.468 228.414 482.998 231.97C485.528 235.526 487.33 239.548 488.299 243.803C488.734 246.011 489.041 248.241 489.218 250.485L504.185 250.025C504.328 243.209 506.576 236.604 510.62 231.115C514.664 225.626 520.306 221.523 526.774 219.367C533.242 217.211 540.219 217.108 546.747 219.073C553.276 221.038 559.036 224.974 563.24 230.342C567.444 235.709 569.884 242.245 570.227 249.054C570.57 255.864 568.799 262.612 565.156 268.375C561.512 274.137 556.176 278.632 549.878 281.243C543.58 283.854 536.629 284.453 529.977 282.958L526.06 297.465C528.131 298.159 530.203 298.844 532.274 299.771C538.119 302.711 542.963 307.316 546.194 313.006C549.426 318.695 550.901 325.214 550.433 331.74C549.964 338.267 547.575 344.508 543.564 349.678C539.554 354.848 534.102 358.715 527.898 360.792L527.906 360.8Z" fill="#EA9B00"/>
<path d="M563.135 314.286C560.909 307.567 557.211 301.429 552.311 296.321C557.611 294.684 562.54 292.025 566.819 288.495C587.774 272.141 591.232 241.981 574.878 221.026C566.975 211.046 555.446 204.598 542.805 203.088C530.165 201.578 517.441 205.129 507.409 212.966C503.147 216.402 499.489 220.527 496.585 225.169C492.678 219.265 487.58 214.244 481.618 210.427C459.284 196.379 429.575 203.286 415.293 225.628C401.245 247.962 408.152 277.67 430.494 291.952C438.702 297.035 448.253 299.524 457.898 299.093L449.145 306.001L436.483 308.306L436.023 316.132L431.187 320.049C427.27 318.203 423.587 317.978 421.056 319.815C418.751 321.661 418.066 325.344 418.985 329.487L104.884 576.119L118.239 593.391L432.574 346.759C436.257 348.605 440.174 349.065 442.479 346.993C445.01 345.147 445.703 341.464 444.551 337.321L449.62 333.404L457.446 335.016L462.742 323.039L471.261 316.358C469.207 323.598 468.882 331.22 470.311 338.61C471.74 345.999 474.884 352.95 479.49 358.903C484.095 364.855 490.034 369.644 496.828 372.883C503.621 376.122 511.081 377.721 518.605 377.552C526.129 377.382 533.509 375.448 540.15 371.906C546.791 368.365 552.508 363.313 556.84 357.159C561.173 351.005 564 343.919 565.095 336.473C566.19 329.027 565.521 321.427 563.143 314.286H563.135ZM527.906 360.8C523.807 362.16 519.479 362.697 515.172 362.38C510.865 362.063 506.663 360.899 502.807 358.954C498.915 357.01 495.446 354.317 492.597 351.029C489.748 347.741 487.577 343.923 486.207 339.794C484.838 335.665 484.297 331.306 484.616 326.968C484.935 322.629 486.107 318.396 488.066 314.512C488.759 313.134 489.444 311.981 490.137 310.829L482.537 300.697L493.361 292.178C496.126 293.897 499.349 294.73 502.6 294.565C505.851 294.401 508.975 293.248 511.552 291.259C518.459 285.73 519.846 275.599 514.317 268.692C511.656 265.383 507.809 263.243 503.594 262.727C499.38 262.211 495.13 263.359 491.749 265.927C489.241 267.998 487.4 270.763 486.458 273.876C485.516 276.989 485.514 280.311 486.454 283.425L475.629 291.944L467.803 282.039C466.425 282.498 465.039 282.958 463.427 283.417C459.198 284.377 454.821 284.484 450.55 283.732C446.279 282.981 442.201 281.386 438.554 279.041C431.155 274.393 425.864 267.038 423.813 258.544C421.967 249.791 423.353 241.046 428.189 233.672C430.463 229.986 433.443 226.787 436.958 224.258C440.473 221.73 444.453 219.921 448.67 218.937C452.887 217.952 457.257 217.812 461.528 218.523C465.799 219.234 469.888 220.783 473.558 223.081C477.26 225.393 480.468 228.414 482.998 231.97C485.528 235.526 487.33 239.548 488.299 243.803C488.847 245.99 489.155 248.231 489.218 250.485L504.185 250.025C504.328 243.209 506.576 236.604 510.62 231.115C514.664 225.626 520.306 221.523 526.774 219.367C533.242 217.211 540.219 217.108 546.747 219.073C553.276 221.038 559.036 224.974 563.24 230.342C567.444 235.709 569.884 242.245 570.227 249.054C570.57 255.864 568.799 262.612 565.156 268.375C561.512 274.137 556.176 278.632 549.878 281.243C543.58 283.854 536.629 284.453 529.977 282.958L526.06 297.465C528.131 298.159 530.203 298.844 532.274 299.771C538.119 302.711 542.963 307.316 546.194 313.006C549.426 318.695 550.901 325.214 550.433 331.74C549.964 338.267 547.575 344.508 543.564 349.678C539.554 354.848 534.102 358.715 527.898 360.792L527.906 360.8Z" stroke="black" stroke-width="3.62693" stroke-linecap="round" stroke-linejoin="round"/>
<path fill-rule="evenodd" clip-rule="evenodd" d="M113.169 549.859L122.841 562.07L146.094 543.645L136.656 531.442L113.169 549.859Z" fill="#EA9B00" stroke="black" stroke-width="3.62693" stroke-linecap="round" stroke-linejoin="round"/>
<path fill-rule="evenodd" clip-rule="evenodd" d="M155.081 512.784L146.328 511.631L145.409 500.122L127.444 477.32L114.322 487.685L131.127 509.1L118.465 519.006L101.652 497.591L88.5308 507.722L105.336 529.363L92.6735 539.035L75.8607 517.62L62.7393 527.985L80.6966 550.786L91.521 554.469L90.6022 563.214L93.8261 565.06L156 516.241L155.081 512.784Z" fill="#EA9B00" stroke="black" stroke-width="3.62693" stroke-linecap="round" stroke-linejoin="round"/>
</g>
<defs>
<clipPath id="clip0_806_103607">
<rect width="641" height="731.73" fill="white" transform="translate(0.379883)"/>
</clipPath>
</defs>
</svg>
