<svg id="id-svg" width="582" height="732" viewBox="0 0 582 732" fill="none" xmlns="http://www.w3.org/2000/svg">
<g clip-path="url(#clip0_806_103697)">
<path d="M567.094 8.22559H15.4346L291.265 326.732L567.094 8.22559Z" fill="#C42730"/>
<path d="M296.661 691.914C299.874 686.343 303.726 681.231 308.736 676.972C320.111 667.301 336.516 661.841 360.128 661.841H541.512C554.349 661.841 562.286 660.256 566.793 656.143C571.301 652.03 573.736 644.341 573.736 629.617V17.2061L296.661 337.071V691.914Z" fill="#183883"/>
<path d="M8.75586 17.1689V629.617C8.75586 644.344 11.2419 652.033 15.7365 656.144C20.2311 660.254 28.1051 661.841 40.9423 661.841H222.326C245.938 661.841 262.344 667.301 273.719 676.972C278.706 681.213 282.551 686.297 285.756 691.839L285.793 337.034L8.75586 17.1689Z" fill="#0093DD"/>
<path d="M8.75586 17.1684L285.793 337.033L285.756 691.839C287.834 695.432 289.686 699.175 291.227 703.159C292.757 699.202 294.6 695.487 296.66 691.914V337.071L573.736 17.2061V8.22559H567.095L291.265 326.732L15.4346 8.22559H8.75586V17.1684Z" fill="#D4AF38"/>
<path d="M8.79098 0.550781L0.530273 7.66003L285.8 337.037L285.75 716.28H296.665V337.088L581.985 7.66003L573.724 0.550781L291.258 326.724L8.79098 0.550781Z" fill="white"/>
<path d="M0.551758 0V629.617C0.551758 645.245 3.08476 655.735 10.1642 662.209C17.2437 668.684 27.4933 670.07 40.9542 670.07H222.34C244.701 670.07 258.804 675.079 268.399 683.237C277.995 691.395 283.418 703.065 287.274 717.331L291.229 732L295.184 717.331C299.04 703.065 304.463 691.395 314.059 683.237C323.654 675.079 337.757 670.07 360.118 670.07H541.504C554.965 670.07 565.202 668.681 572.294 662.209C579.386 655.738 581.956 645.248 581.956 629.617V0H0.551758ZM8.76242 8.21066H573.746V629.617C573.746 644.341 571.294 652.038 566.787 656.152C562.279 660.265 554.341 661.859 541.504 661.859H360.118C336.506 661.859 320.127 667.308 308.752 676.979C300.529 683.969 295.146 693.036 291.229 703.163C287.312 693.036 281.929 683.969 273.706 676.979C262.331 667.308 245.952 661.859 222.34 661.859H40.9542C28.117 661.859 20.216 660.262 15.7214 656.152C11.2268 652.041 8.76242 644.344 8.76242 629.617V8.21066Z" fill="#D4AF38"/>
<path d="M219.464 429.707L218.262 431.009L215.158 460.697L189.375 471.762H214.007L212.455 486.931L185.62 497.145L211.354 497.145L209.701 512.815L179.612 522.477L208.7 522.477L203.994 567.711L197.185 594.471H201.14L219.464 580.703L237.738 594.471H241.743L235.084 567.711L230.228 522.477L259.316 522.477L229.227 512.815L227.575 497.144L253.358 497.145L226.473 486.931L224.921 471.762H249.603L223.77 460.697L220.666 431.009L219.464 429.707ZM219.464 442.524L220.315 450.885H218.613L219.464 442.524ZM218.363 453.288H220.565L221.266 459.746H217.662L218.363 453.288ZM219.464 461.298L221.467 462.099L222.318 470.009H216.61L217.461 462.099L219.464 461.298ZM214.908 463.1L214.157 470.61H195.883L214.908 463.1ZM224.02 463.1L243.095 470.61H224.771L224.02 463.1ZM217.411 472.412H221.517L219.464 475.717L217.411 472.412ZM216.11 474.816L218.062 478.02L215.309 482.476L216.11 474.816ZM222.818 474.816L223.619 482.476L220.866 478.02L222.818 474.816ZM219.464 480.273L222.768 485.63L219.464 484.979L216.16 485.63L219.464 480.273ZM219.464 487.182L224.27 488.283L225.071 496.043H213.857L214.658 488.283L219.464 487.182ZM212.205 489.184L211.454 496.043H192.529L212.205 489.184ZM226.724 489.184L246.399 496.043H227.474L226.724 489.184ZM214.708 497.145H224.22L219.464 502.301L214.708 497.145ZM213.506 499.397L217.862 504.054L212.455 509.961L213.506 499.397ZM225.422 499.397L225.922 504.354L226.473 509.961L221.066 504.054L225.422 499.397ZM219.464 505.856L224.671 511.463L219.464 510.362L214.257 511.463L219.464 505.856ZM219.464 511.914L226.924 514.117L227.725 521.476H211.203L212.004 514.117L219.464 511.914ZM209.501 514.868L208.8 521.476H187.172L209.501 514.868ZM229.427 514.868L251.756 521.476H230.128L229.427 514.868ZM211.103 522.477H227.825L228.626 530.338L219.464 540.551L210.302 530.288L211.103 522.477ZM209.952 533.442L217.912 542.303L207.849 553.518L209.952 533.442ZM228.976 533.592L231.029 553.468L221.116 542.353L228.976 533.592ZM219.514 544.105L231.48 557.473L232.531 567.336H206.447L207.448 557.623L219.514 544.105ZM208.8 569.739H230.128L219.464 577.749L208.8 569.739ZM205.796 570.44L217.311 579.101L200.239 592.118L205.796 570.44ZM233.132 570.44L238.689 592.118L221.617 579.101L233.132 570.44Z" fill="white"/>
<path d="M46.2393 407.329V451.637L148.222 602.733H173.004V592.019H161.439L81.0344 472.914L99.9589 479.923L173.004 592.019L180.013 602.733H194.732V593.17H187.022L116.681 486.131L139.21 494.492L204.495 602.733H217.161V594.322H211.003L149.724 498.397L163.692 503.554L224.02 602.733H232.181V595.323H224.471L169.299 499.749V474.266L46.2393 407.329Z" fill="url(#paint0_linear_806_103697)"/>
<path d="M163.698 503.552V475.6L148.072 467.352V497.759L163.698 503.552ZM114.879 449.832V485.452L139.231 494.481V462.686L114.879 449.832ZM70.0205 426.155V468.82L99.9618 479.921V441.959L70.0205 426.155Z" fill="#CFCFCD"/>
<path d="M63.913 416.941V422.949L61.9604 421.898H57.5547V451.386L155.081 592.019H161.44L70.0209 456.643V432.962L76.9799 436.617V429.858L105.367 444.828V471.963L184.219 593.521L187.023 593.17L116.681 486.131L124.692 489.085L114.879 476.018V456.643L116.681 457.644V450.835L142.644 464.488V495.747L207.299 594.322H211.004L149.724 498.397L156.333 500.85L148.072 489.235V474.015H149.724V468.258L165.696 476.655V497.757L222.969 595.323H224.471L169.3 499.749V474.266L63.913 416.941Z" fill="#666666"/>
<path d="M46.2393 451.636V602.732H148.222L46.2393 451.636Z" fill="#C1C1C1"/>
<path d="M117.51 319.841L129.794 313.566H146.438L195.987 284.959C195.987 284.959 215.203 278.396 219.466 284.959C222.385 289.454 212.929 299.648 212.929 299.648L159.705 330.377L135.246 372.741L114.38 384.788L126.816 350.185L96.7127 366.746C96.7127 366.746 88.7847 371.021 83.9297 370.212C71.9857 368.221 66.157 354.328 52.2709 344.824C52.2709 344.824 46.267 351.295 41.0436 354.433C41.0436 354.433 41.3456 345.269 46.3032 341.284L37.4023 338.271C37.4023 338.271 44.1791 331.301 55.0018 332.809C66.018 334.344 80.9084 351.358 95.8338 342.7L127.22 324.493C122.809 324.9 120.403 321.965 117.51 319.841Z" fill="url(#paint1_linear_806_103697)"/>
<path d="M383.734 273.122C414.706 277.15 420.898 284.898 439.562 293.746C448.126 292.703 458.978 293.365 465.253 297.185C464.408 301.84 464.065 306.855 459.589 308.918C468.894 318.021 478.516 326.729 487.505 336.227C489.166 337.981 485.449 339.08 483.459 339.666C488.432 343.139 494.129 346.129 497.62 350.59C520.479 352.309 527.155 359.086 527.155 359.086C516.276 361.12 502.932 369.27 502.07 385.384C498.662 383.54 492.127 373.877 482.246 355.85C478.674 356.918 475.888 358.007 473.244 355.951C464.378 349.058 454.572 342.714 444.215 337.441C444.215 337.441 441.256 342.478 440.469 347.556C439.612 353.087 433.65 342.204 432.077 333.193C383.863 310.031 372.825 289.826 370.782 280.293C369.066 272.283 378.074 272.386 383.734 273.122Z" fill="url(#paint2_linear_806_103697)"/>
<path d="M371.062 275.006C370.916 275.04 370.785 275.118 370.686 275.23C370.587 275.341 370.525 275.481 370.508 275.629C370.492 275.777 370.522 275.927 370.594 276.058C370.666 276.188 370.777 276.293 370.912 276.358C374.356 278.21 377.081 281.581 378.021 286.371C378.023 286.475 378.047 286.578 378.093 286.672C378.138 286.766 378.204 286.849 378.284 286.915C378.365 286.981 378.459 287.029 378.56 287.055C378.66 287.082 378.766 287.086 378.869 287.068C378.971 287.049 379.069 287.009 379.154 286.949C379.24 286.89 379.311 286.812 379.364 286.722C379.417 286.632 379.449 286.532 379.459 286.428C379.47 286.324 379.457 286.219 379.423 286.121C378.406 280.941 375.432 277.11 371.613 275.056C371.529 275.012 371.437 274.985 371.342 274.977C371.248 274.968 371.152 274.978 371.062 275.006Z" fill="black"/>
<path d="M386.589 276.509C385.508 276.509 384.586 277.431 384.586 278.511C384.586 279.592 385.508 280.464 386.589 280.464C387.669 280.464 388.541 279.592 388.541 278.511C388.541 277.431 387.669 276.509 386.589 276.509Z" fill="black"/>
<path d="M344.542 80.2151L352.266 88.1221L224.364 213.052L216.641 205.145L344.542 80.2151Z" fill="url(#paint3_linear_806_103697)"/>
<path d="M244.447 86.3304L236.724 94.2373L359.1 213.77L366.823 205.863L244.447 86.3304Z" fill="url(#paint4_linear_806_103697)"/>
<path d="M323.926 59.1053L371.663 107.978C373.846 108.563 377.429 108.897 378.894 105.812L374.312 77.6384L340.471 42.9922L323.926 59.1053Z" fill="url(#paint5_linear_806_103697)"/>
<path d="M260.742 109.269H321.768L330.542 132.86H251.969L260.742 109.269Z" fill="url(#paint6_linear_806_103697)"/>
<path d="M240.464 76.5657C241.087 81.2359 244.449 86.3325 244.449 86.3325L236.726 94.2394C236.762 94.2755 233.386 92.1227 223.112 88.4589C211.293 84.2441 192.891 132.717 188.407 133.887C186.067 125.893 202.58 87.3354 219.602 71.4964C237.053 55.259 266.59 39.5211 285.698 44.2004C270.225 54.538 239.58 69.9417 240.464 76.5657Z" fill="url(#paint7_linear_806_103697)"/>
<path d="M302.076 135.199H363.102L371.876 158.791H293.303L302.076 135.199Z" fill="url(#paint8_linear_806_103697)"/>
<path d="M219.405 135.005H280.431L289.204 158.596H210.631L219.405 135.005Z" fill="url(#paint9_linear_806_103697)"/>
<path d="M262.57 291.979L283.147 320.616H291.258L262.771 292.129L262.57 291.979ZM291.258 320.616L319.694 292.129L291.258 312.505V320.616ZM291.258 320.616L319.895 349.253L299.368 320.616H291.258ZM291.258 320.616L262.771 349.103L291.258 328.726V320.616Z" fill="#D4AF38"/>
<path d="M262.596 349.281L291.257 320.619L283.148 320.616L262.596 349.281ZM319.92 349.274L291.258 320.613L291.254 328.722L319.92 349.274ZM319.914 291.95L291.252 320.612L299.361 320.615L319.914 291.95ZM262.593 291.953L291.255 320.615L291.258 312.506L262.593 291.953Z" fill="#FFD700"/>
<path d="M291.258 263.691L283.197 312.555L291.258 320.615V263.691ZM291.258 320.615H348.182L299.318 312.555L291.258 320.615ZM291.258 320.615V377.539L299.318 328.676L291.258 320.615ZM291.258 320.615H234.334L283.197 328.676L291.258 320.615Z" fill="#D4AF38"/>
<path d="M234.343 320.617H291.254L283.206 312.568L234.343 320.617ZM291.254 377.528V320.617L283.206 328.665L291.254 377.528ZM348.166 320.617L291.254 320.617L299.303 328.665L348.166 320.617ZM291.254 263.705V320.617L299.303 312.568L291.254 263.705Z" fill="#FFD700"/>
<path d="M383.734 391.581C414.706 395.609 420.898 403.356 439.562 412.205C448.126 411.162 458.978 411.824 465.253 415.644C464.408 420.299 464.065 425.314 459.589 427.377C468.894 436.48 478.516 445.188 487.505 454.686C489.166 456.44 485.449 457.539 483.459 458.125C488.432 461.598 494.129 464.588 497.62 469.049C520.479 470.768 527.155 477.545 527.155 477.545C516.276 479.579 502.932 487.728 502.07 503.843C498.662 501.999 492.127 492.336 482.246 474.309C478.674 475.377 475.888 476.466 473.244 474.41C464.378 467.517 454.572 461.173 444.215 455.9C444.215 455.9 441.256 460.936 440.469 466.015C439.612 471.546 433.65 460.663 432.077 451.652C383.863 428.49 372.825 408.285 370.782 398.752C369.066 390.742 378.074 390.845 383.734 391.581Z" fill="url(#paint10_linear_806_103697)"/>
<path d="M371.062 393.466C370.916 393.5 370.785 393.578 370.686 393.69C370.587 393.801 370.525 393.941 370.508 394.089C370.492 394.237 370.522 394.387 370.594 394.518C370.666 394.648 370.777 394.753 370.912 394.818C374.356 396.67 377.081 400.041 378.021 404.831C378.023 404.935 378.047 405.038 378.093 405.132C378.138 405.226 378.204 405.309 378.284 405.375C378.365 405.441 378.459 405.489 378.56 405.515C378.66 405.542 378.766 405.546 378.869 405.528C378.971 405.509 379.069 405.469 379.154 405.409C379.24 405.35 379.311 405.272 379.364 405.182C379.417 405.092 379.449 404.992 379.459 404.888C379.47 404.784 379.457 404.679 379.423 404.581C378.406 399.4 375.432 395.57 371.613 393.516C371.529 393.472 371.437 393.445 371.342 393.437C371.248 393.428 371.152 393.438 371.062 393.466Z" fill="black"/>
<path d="M386.589 394.968C385.508 394.968 384.586 395.889 384.586 396.97C384.586 398.051 385.508 398.923 386.589 398.923C387.669 398.923 388.541 398.051 388.541 396.97C388.541 395.889 387.669 394.968 386.589 394.968Z" fill="black"/>
<path d="M383.734 510.04C414.706 514.068 420.898 521.815 439.562 530.664C448.126 529.621 458.978 530.283 465.253 534.103C464.408 538.758 464.065 543.773 459.589 545.836C468.894 554.939 478.516 563.647 487.505 573.145C489.166 574.899 485.449 575.998 483.459 576.584C488.432 580.057 494.129 583.047 497.62 587.508C520.479 589.227 527.155 596.004 527.155 596.004C516.276 598.038 502.932 606.188 502.07 622.302C498.662 620.458 492.127 610.795 482.246 592.768C478.674 593.836 475.888 594.925 473.244 592.869C464.378 585.976 454.572 579.632 444.215 574.359C444.215 574.359 441.256 579.395 440.469 584.473C439.612 590.005 433.65 579.122 432.077 570.111C383.863 546.949 372.825 526.744 370.782 517.211C369.066 509.201 378.074 509.304 383.734 510.04Z" fill="url(#paint11_linear_806_103697)"/>
<path d="M371.062 511.926C370.916 511.96 370.785 512.038 370.686 512.15C370.587 512.261 370.525 512.401 370.508 512.549C370.492 512.697 370.522 512.847 370.594 512.978C370.666 513.108 370.777 513.213 370.912 513.278C374.356 515.13 377.081 518.501 378.021 523.291C378.023 523.395 378.047 523.498 378.093 523.592C378.138 523.686 378.204 523.769 378.284 523.835C378.365 523.901 378.459 523.949 378.56 523.975C378.66 524.002 378.766 524.006 378.869 523.988C378.971 523.969 379.069 523.929 379.154 523.869C379.24 523.809 379.311 523.732 379.364 523.642C379.417 523.552 379.449 523.452 379.459 523.348C379.47 523.244 379.457 523.139 379.423 523.041C378.406 517.86 375.432 514.03 371.613 511.976C371.529 511.932 371.437 511.905 371.342 511.897C371.248 511.888 371.152 511.898 371.062 511.926Z" fill="black"/>
<path d="M386.589 513.428C385.508 513.428 384.586 514.349 384.586 515.43C384.586 516.511 385.508 517.383 386.589 517.383C387.669 517.383 388.541 516.511 388.541 515.43C388.541 514.349 387.669 513.428 386.589 513.428Z" fill="black"/>
</g>
<defs>
<linearGradient id="paint0_linear_806_103697" x1="46.2391" y1="407.328" x2="173.003" y2="602.731" gradientUnits="userSpaceOnUse">
<stop stop-color="#C0C0C0"/>
<stop offset="0.5" stop-color="#F7F7F7"/>
<stop offset="1" stop-color="#C0C0C0"/>
</linearGradient>
<linearGradient id="paint1_linear_806_103697" x1="68.0701" y1="359.534" x2="216.752" y2="282.863" gradientUnits="userSpaceOnUse">
<stop stop-color="#C0C0C0"/>
<stop offset="0.5" stop-color="#F7F7F7"/>
<stop offset="1" stop-color="#C0C0C0"/>
</linearGradient>
<linearGradient id="paint2_linear_806_103697" x1="371.715" y1="275.113" x2="509.185" y2="368.578" gradientUnits="userSpaceOnUse">
<stop stop-color="#D4AF38"/>
<stop offset="0.5" stop-color="#FFD90D"/>
<stop offset="1" stop-color="#D4AF38"/>
</linearGradient>
<linearGradient id="paint3_linear_806_103697" x1="288.593" y1="150.871" x2="280.31" y2="142.391" gradientUnits="userSpaceOnUse">
<stop stop-color="#C0C0C0"/>
<stop offset="0.5" stop-color="#F7F7F7"/>
<stop offset="1" stop-color="#C0C0C0"/>
</linearGradient>
<linearGradient id="paint4_linear_806_103697" x1="297.63" y1="154.288" x2="305.913" y2="145.808" gradientUnits="userSpaceOnUse">
<stop stop-color="#C0C0C0"/>
<stop offset="0.5" stop-color="#F7F7F7"/>
<stop offset="1" stop-color="#C0C0C0"/>
</linearGradient>
<linearGradient id="paint5_linear_806_103697" x1="330.977" y1="52.2334" x2="378.892" y2="105.809" gradientUnits="userSpaceOnUse">
<stop stop-color="#D4AF38"/>
<stop offset="0.5" stop-color="#FFD90D"/>
<stop offset="1" stop-color="#D4AF38"/>
</linearGradient>
<linearGradient id="paint6_linear_806_103697" x1="256.354" y1="121.062" x2="326.153" y2="121.062" gradientUnits="userSpaceOnUse">
<stop stop-color="#C0C0C0"/>
<stop offset="0.5" stop-color="#F7F7F7"/>
<stop offset="1" stop-color="#C0C0C0"/>
</linearGradient>
<linearGradient id="paint7_linear_806_103697" x1="188.405" y1="133.884" x2="285.696" y2="44.1979" gradientUnits="userSpaceOnUse">
<stop stop-color="#D4AF38"/>
<stop offset="0.5" stop-color="#FFD90D"/>
<stop offset="1" stop-color="#D4AF38"/>
</linearGradient>
<linearGradient id="paint8_linear_806_103697" x1="292.9" y1="146.992" x2="372.274" y2="146.992" gradientUnits="userSpaceOnUse">
<stop stop-color="#D4AF38"/>
<stop offset="0.5" stop-color="#FFD90D"/>
<stop offset="1" stop-color="#D4AF38"/>
</linearGradient>
<linearGradient id="paint9_linear_806_103697" x1="210.228" y1="146.798" x2="289.603" y2="146.798" gradientUnits="userSpaceOnUse">
<stop stop-color="#D4AF38"/>
<stop offset="0.5" stop-color="#FFD90D"/>
<stop offset="1" stop-color="#D4AF38"/>
</linearGradient>
<linearGradient id="paint10_linear_806_103697" x1="371.715" y1="393.572" x2="509.185" y2="487.037" gradientUnits="userSpaceOnUse">
<stop stop-color="#D4AF38"/>
<stop offset="0.5" stop-color="#FFD90D"/>
<stop offset="1" stop-color="#D4AF38"/>
</linearGradient>
<linearGradient id="paint11_linear_806_103697" x1="371.715" y1="512.031" x2="509.185" y2="605.496" gradientUnits="userSpaceOnUse">
<stop stop-color="#D4AF38"/>
<stop offset="0.5" stop-color="#FFD90D"/>
<stop offset="1" stop-color="#D4AF38"/>
</linearGradient>
<clipPath id="clip0_806_103697">
<rect width="581.455" height="732" fill="white" transform="translate(0.530273)"/>
</clipPath>
</defs>
</svg>
