<svg id="id-svg" width="552" height="742" viewBox="0 0 552 742" fill="none" xmlns="http://www.w3.org/2000/svg">
<g clip-path="url(#clip0_806_103651)">
<path d="M0.839844 7.09334L283.199 5.25977L276.334 741.032C266.414 716.622 242.352 696.703 225.377 696.703H69.0301C1.19717 696.703 0.8399 634.267 0.8399 634.267L0.839844 7.09334Z" fill="#D5312B"/>
<path d="M551.839 7.06502L269.48 5.23145L276.345 741.004C286.265 716.593 310.327 696.674 327.303 696.674H483.649C551.482 696.674 551.839 634.238 551.839 634.238L551.839 7.06502Z" fill="#D5312B"/>
<path d="M551.837 0H0.839844V238.573H551.837V0Z" fill="#395C98"/>
<path d="M135.746 228.359L93.9316 142.843L139.834 209.809L109.023 124.294L153.981 199.12L123.171 113.604L166.243 192.832L141.406 102.915L180.076 190.317L161.527 100.399L195.482 184.972L175.989 93.1682L202.084 169.881L186.993 78.706L212.459 160.135L199.883 66.4445L221.891 150.703L214.66 54.183L234.153 140.013L231.009 44.1223L247.043 132.468L249.558 36.8912L260.562 131.21L266.221 31.232L276.596 128.381L283.199 29.0312V140.328C246.08 140.877 221.911 158.653 200.827 197.234C148.425 191.687 135.746 228.359 135.746 228.359Z" fill="#EDBB32"/>
<path d="M441.804 542.25L414.015 542.695L416.905 532.469L386.671 545.585L401.566 523.243L435.802 516.018C438.504 520.606 440.879 527.26 442.693 537.471L441.804 542.25Z" fill="#E5B100"/>
<path d="M406.631 526.022C397.266 604.464 329.061 650.857 298.4 571.138L292.19 359.784L289.518 361.356L284.474 617.876L282.666 624.832L282.623 631.208C344.093 684.203 418.471 627.974 425.495 529.244L427.853 520.284L406.631 526.022Z" fill="#EAD566"/>
<path d="M123.851 542.241L151.64 542.685L148.75 532.459L178.985 545.575L164.09 523.233L129.854 516.008C127.152 520.596 124.776 527.25 122.962 537.461L123.851 542.241Z" fill="#E5B100"/>
<path d="M159.025 526.012C168.39 604.455 236.594 650.847 267.256 571.128L273.465 359.774L276.137 361.346L281.182 617.866L282.989 624.823L283.033 631.199C221.563 684.194 147.184 627.964 140.161 529.234L137.803 520.274L159.025 526.012Z" fill="#EAD566"/>
<path d="M273.305 339.071L273.417 346.185L238.291 345.963L222.199 349.052C222.199 349.052 208.916 349.501 201.213 349.602C198.88 344.931 193.726 340.947 188.963 340.947C184.199 340.947 176.164 345.145 176.164 353.773C176.164 362.402 183.589 366.175 188.669 366.175C193.749 366.175 198.061 363.185 200.82 358.72C208.682 359.103 222.985 359.348 222.985 359.348L239.098 363.829L273.21 363.75L270.415 573.388C265.756 597.523 248.089 617.907 223.983 616.771C199.877 615.636 159.329 584.533 154.924 531.927L150.145 527.925L146.365 531.593C147.311 616.129 219.257 680.453 282.809 624.742L283.271 311.56C267.179 312.224 261.827 301.519 261.689 293.229C261.561 285.484 267.39 274.543 283.254 272.822L283.198 254.314C271.405 255.111 249.958 258.528 242.849 289.718C239.993 311.18 255.888 323.738 273.305 339.071Z" fill="#EDBB32"/>
<path d="M121.432 547.217C123.172 516.849 135.683 492.696 152.778 471.187C164.32 494.746 172.935 519.142 180.344 543.883C157.309 523.828 147.721 517.462 121.432 547.217Z" fill="#EDBB32" stroke="#757575" stroke-width="0.923295"/>
<path d="M152.498 472.33C150.396 490.589 149.281 508.683 150.72 526.352" stroke="#757575" stroke-width="0.923295"/>
<path d="M292.35 339.081L292.239 346.195L327.364 345.972L343.456 349.062C343.456 349.062 356.739 349.511 364.442 349.612C366.775 344.941 371.929 340.956 376.693 340.956C381.456 340.956 389.491 345.155 389.491 353.783C389.491 362.412 382.066 366.185 376.986 366.185C371.906 366.185 367.595 363.195 364.835 358.729C356.973 359.113 342.67 359.358 342.67 359.358L326.558 363.838L292.445 363.76L295.24 573.398C299.9 597.533 317.567 617.917 341.672 616.781C365.778 615.645 406.327 584.542 410.731 531.937L415.511 527.935L419.29 531.603C418.345 616.139 346.398 680.463 282.846 624.752L282.385 311.57C298.476 312.233 303.828 301.529 303.966 293.239C304.094 285.494 298.265 274.553 282.401 272.832L282.457 254.324C294.25 255.12 315.697 258.538 322.807 289.727C325.662 311.19 309.767 323.747 292.35 339.081Z" fill="#EDBB32"/>
<path d="M444.224 547.228C442.484 516.86 429.972 492.707 412.878 471.197C401.335 494.757 392.721 519.153 385.311 543.893C408.346 523.839 417.934 517.473 444.224 547.228Z" fill="#EDBB32" stroke="#757575" stroke-width="0.923295"/>
<path d="M413 472.341C415.102 490.6 416.217 508.694 414.778 526.363" stroke="#757575" stroke-width="0.923295"/>
<path d="M430.528 228.344L472.343 142.828L426.441 209.795L457.252 124.279L412.293 199.105L443.104 113.589L400.032 192.817L424.869 102.9L386.198 190.302L404.748 100.385L370.793 184.957L390.285 93.1536L364.191 169.866L379.282 78.6913L353.815 160.12L366.391 66.4298L344.384 150.688L351.615 54.1684L332.122 139.999L335.266 44.1077L319.232 132.453L316.717 36.8765L305.713 131.196L300.054 31.2174L289.678 128.366L283.076 29.0166V140.313C320.195 140.862 344.364 158.638 365.448 197.219C417.849 191.672 430.528 228.344 430.528 228.344Z" fill="#EDBB32"/>
<path fill-rule="evenodd" clip-rule="evenodd" d="M304.656 318.107C304.656 329.958 295.049 339.565 283.199 339.565C271.348 339.565 261.741 329.958 261.741 318.107C261.741 306.256 271.348 296.649 283.199 296.649C295.049 296.649 304.656 306.256 304.656 318.107Z" fill="#EDBB32" stroke="#757575" stroke-width="0.923295"/>
<path fill-rule="evenodd" clip-rule="evenodd" d="M281.634 310.172C281.634 313.232 279.153 315.713 276.093 315.713C273.033 315.713 270.552 313.232 270.552 310.172C270.552 307.112 273.033 304.631 276.093 304.631C279.153 304.631 281.634 307.112 281.634 310.172Z" fill="#F6F986"/>
<path d="M87.264 511.438C110.298 445.528 142.99 383.205 186.771 325.001C96.0575 369.142 78.2869 435.701 87.264 511.438Z" fill="#807373" stroke="#757575" stroke-width="0.923295"/>
<path d="M119.046 411.115C116.566 404.743 120.17 390.851 132.163 393.775L463.853 575.404L451.625 592.078L119.046 411.115Z" fill="#CFC7C5" stroke="#757575" stroke-width="0.923295"/>
<path fill-rule="evenodd" clip-rule="evenodd" d="M464.33 587.556C460.961 592.197 455.772 594.501 452.741 592.703C449.71 590.905 449.984 585.685 453.354 581.045C456.723 576.404 461.912 574.099 464.943 575.897C467.974 577.695 467.7 582.915 464.33 587.556Z" fill="#BDC6C7" stroke="#757575" stroke-width="0.99963"/>
<path d="M102.707 403L94.9258 398.443C93.8785 387.288 98.9801 381.257 108.598 378.99L115.601 383.548L106.82 406.668L102.707 403Z" fill="#CFC7C5" stroke="#757575" stroke-width="0.923295"/>
<path d="M87.0336 511.044C86.564 447.657 100.098 384.838 186.407 324.969C94.2911 370.239 79.7049 437.529 87.0336 511.044Z" fill="#CFC7C5" stroke="#757575" stroke-width="0.923295"/>
<path d="M423.06 395.415C425.064 392.28 427.225 390.815 431.534 391.452C432.75 388.325 433.915 385.151 440.649 387.339C441.279 383.634 443.256 381.276 449.097 382.782C450.767 377.429 453.89 378.099 456.989 378.669C457.992 374.914 461.054 375.092 464.325 375.668C463.357 369.012 462.292 362.281 468.883 361.551C473.986 361.077 479.63 367.538 483.778 375.001C487.926 382.464 492.425 391.592 487.001 396.565C483.062 399.241 479.527 396.049 475.997 392.786C474.571 396.366 472.277 398.132 468.549 396.899C468.467 400.572 467.209 403.353 461.102 402.456C460.264 405.088 460.111 408.131 453.21 407.125C452.34 412.882 448.848 413.232 444.651 412.127C443.635 416.987 440.904 418.959 435.908 417.115L423.06 395.415Z" fill="#CFC7C5" stroke="#757575" stroke-width="0.923295"/>
<path d="M415.026 397.445L102.515 582.704L92.8477 602.589L112.026 604.083L429.923 423.187L415.026 397.445Z" fill="#CFC7C5" stroke="#757575" stroke-width="0.923295"/>
<path d="M414.361 413.238L95.2314 601.092L415.75 417.935L414.361 413.238Z" fill="black" stroke="black" stroke-width="0.923295"/>
<path d="M402.135 358.774L456.84 452.779L439.234 465.669L430.116 424.169L413.638 417.352L414.972 397.566L385.516 369.443L402.135 358.774Z" fill="#CFC7C5" stroke="#757575" stroke-width="0.923295"/>
<path d="M273.159 363.726L267.215 571.236L298.405 571.178L292.461 363.783L278.468 368.977L273.159 363.726Z" fill="#EAD566"/>
<path d="M273.158 363.841L269.927 606.437L282.836 624.786H282.938L295.245 573.357L292.445 363.781L273.158 363.841Z" fill="#EDBB32"/>
<path d="M276.578 128.372L283.108 28.4883L289.682 128.418C283.549 149.905 279.869 137.558 276.578 128.372Z" fill="#EEBB32"/>
<path d="M431.478 391.349L444.455 412.006Z" fill="black"/>
<path d="M431.478 391.349L444.455 412.006" stroke="#747574" stroke-width="0.740737"/>
<path d="M440.658 387.464L453.018 406.886Z" fill="black"/>
<path d="M440.658 387.464L453.018 406.886" stroke="#747574" stroke-width="0.740737"/>
<path d="M449.134 382.697L460.875 402.384Z" fill="black"/>
<path d="M449.134 382.697L460.875 402.384" stroke="#747574" stroke-width="0.740737"/>
<path d="M456.99 378.9L468.379 396.645Z" fill="black"/>
<path d="M456.99 378.9L468.379 396.645" stroke="#747574" stroke-width="0.740737"/>
<path d="M464.317 375.635L475.971 392.585Z" fill="black"/>
<path d="M464.317 375.635L475.971 392.585" stroke="#747574" stroke-width="0.740737"/>
</g>
<defs>
<clipPath id="clip0_806_103651">
<rect width="551" height="741.032" fill="white" transform="translate(0.839844)"/>
</clipPath>
</defs>
</svg>
