<svg id="id-svg" width="602" height="732" viewBox="0 0 602 732" fill="none" xmlns="http://www.w3.org/2000/svg">
<g clip-path="url(#clip0_806_104076)">
<path fill-rule="evenodd" clip-rule="evenodd" d="M240.823 1.21973H1.62206V576.061C1.3353 605.245 11.416 662.266 71.106 660.17L240.956 661.538V1.21973H240.823Z" fill="white"/>
<path d="M240.823 1.21973H1.62206V576.061C1.3353 605.245 11.416 662.266 71.106 660.17L240.956 661.538V1.21973H240.823Z" stroke="black" stroke-width="2.20584" stroke-miterlimit="22.93"/>
<path fill-rule="evenodd" clip-rule="evenodd" d="M359.498 1.21973H600.508V576.061C600.795 605.245 591.199 661.317 531.62 659.2L359.564 661.538V1.21973H359.498Z" fill="white"/>
<path d="M359.498 1.21973H600.508V576.061C600.795 605.245 591.199 661.317 531.62 659.2L359.564 661.538V1.21973H359.498Z" stroke="black" stroke-width="2.20584" stroke-miterlimit="22.93"/>
<path fill-rule="evenodd" clip-rule="evenodd" d="M225.139 1.11035H375.136L376.129 661.892C335.52 661.892 300.248 698.155 300.248 731.971C300.248 700.979 267.778 661.517 225.073 661.958V1.11035H225.139Z" fill="#0039A6"/>
<path d="M225.139 543.372H0.9375V552.901H225.139V543.372Z" fill="black"/>
<path d="M225.139 543.372H0.9375V552.901H225.139V543.372Z" stroke="black" stroke-width="0.485285" stroke-miterlimit="22.93"/>
<path d="M600.398 543.372H376.196V552.901H600.398V543.372Z" fill="black"/>
<path d="M600.398 543.372H376.196V552.901H600.398V543.372Z" stroke="black" stroke-width="0.485285" stroke-miterlimit="22.93"/>
<path d="M376.195 541.342H225.14V554.952H376.195V541.342Z" fill="white"/>
<path fill-rule="evenodd" clip-rule="evenodd" d="M88.6208 527.026L81.6504 525.063L90.6943 517.475L98.1942 519.328L88.6208 527.026Z" fill="#D81200"/>
<path d="M88.6208 527.026L81.6504 525.063L90.6943 517.475L98.1942 519.328L88.6208 527.026Z" stroke="black" stroke-width="0.485285" stroke-miterlimit="22.93"/>
<path fill-rule="evenodd" clip-rule="evenodd" d="M77.1072 524.048L70.1367 522.063L79.1807 514.497L86.6805 516.35L77.1072 524.048Z" fill="#D81200"/>
<path d="M77.1072 524.048L70.1367 522.063L79.1807 514.497L86.6805 516.35L77.1072 524.048Z" stroke="black" stroke-width="0.485285" stroke-miterlimit="22.93"/>
<path fill-rule="evenodd" clip-rule="evenodd" d="M40.4446 193.636C43.0255 188.915 48.8268 185.915 53.8782 189.224C59.5251 194.276 58.8634 195.621 63.1648 202.614C64.8412 205.305 68.6353 208.591 72.4514 213.113C80.7674 222.885 90.2304 242.253 92.4363 255.289C97.5759 277.943 89.6128 298.59 81.0762 315.244C75.1866 325.148 68.7014 334.545 63.4295 344.934C59.6575 353.162 55.7752 359.846 56.062 370.699C56.3708 377.316 58.2678 383.338 66.7162 381.728C70.2014 381.154 73.0911 378.088 76.2013 374.029C76.9292 373.103 78.4071 372.088 79.0027 371.074C78.0321 380.735 79.7306 390.617 76.0689 398.139C74.0366 400.578 71.4788 402.526 68.587 403.836C65.6952 405.146 62.5445 405.785 59.3707 405.705C50.1062 406.852 41.0182 401.933 36.9594 390.926C23.1729 353.427 42.9372 287.252 42.9593 260.363C42.9593 227.01 30.4522 207.599 40.4226 193.79" fill="black"/>
<path fill-rule="evenodd" clip-rule="evenodd" d="M76.1355 123.247C75.4047 126.556 75.7526 130.011 77.1282 133.108C76.4885 124.284 76.29 116.806 82.3781 112.108C87.9809 108.865 95.0396 113.52 97.0469 120.733C97.1792 117.711 99.2527 111.534 101.723 112.351C104.811 112.351 103.731 118.968 106.135 122.034C116.657 125.233 124.907 130.747 133.201 136.637C136.73 139.35 139.575 139.946 140.061 143.674C140.965 153.247 132.406 153.732 121.245 151.813C118.863 154.019 124.84 155.806 127.355 156.225C127.573 157.029 127.484 157.886 127.105 158.628C126.726 159.371 126.083 159.945 125.304 160.239C119.672 161.119 113.953 161.312 108.275 160.813C103.863 161.166 102.606 168.997 110.745 172.747C139.156 184.04 155.105 198.378 170.81 214.79L120.252 245.495C112.576 222.466 98.4145 201.621 76.5105 180.886C68.1063 171.092 62.6137 161.232 62.1064 148.306C61.9741 139.791 66.3857 128.453 76.1355 123.137" fill="black"/>
<path fill-rule="evenodd" clip-rule="evenodd" d="M114.186 131.607C117.341 132.93 118.819 134.695 118.598 137.276C118.378 139.857 113.9 139.482 110.723 138.092C107.547 136.702 106.4 134.342 107.106 132.357C107.812 130.372 111.01 130.327 114.164 131.651" fill="white"/>
<path fill-rule="evenodd" clip-rule="evenodd" d="M113.547 132.512C113.969 132.542 114.374 132.694 114.713 132.948C115.052 133.203 115.31 133.549 115.457 133.947C115.604 134.344 115.633 134.775 115.542 135.189C115.45 135.602 115.241 135.981 114.94 136.279C114.64 136.577 114.259 136.782 113.845 136.87C113.43 136.958 112.999 136.924 112.603 136.773C112.207 136.623 111.863 136.361 111.612 136.02C111.361 135.679 111.213 135.273 111.187 134.85C111.187 134.541 111.248 134.235 111.367 133.95C111.485 133.665 111.66 133.406 111.879 133.189C112.099 132.971 112.359 132.8 112.645 132.683C112.931 132.567 113.238 132.509 113.547 132.512Z" fill="black"/>
<path fill-rule="evenodd" clip-rule="evenodd" d="M135.208 137.915C137.413 138.643 139.928 138.466 141.825 140.827C143.788 145.525 139.377 149.032 138.958 147.974C138.958 146.319 138.958 143.937 138.075 143.562C137.193 143.187 136.597 144.709 136.311 145.591C135.075 143.716 135.075 141.886 135.208 137.915Z" fill="white"/>
<path d="M135.208 137.915C137.413 138.643 139.928 138.466 141.825 140.827C143.788 145.525 139.377 149.032 138.958 147.974C138.958 146.319 138.958 143.937 138.075 143.562C137.193 143.187 136.597 144.709 136.311 145.591C135.075 143.716 135.075 141.886 135.208 137.915Z" stroke="black" stroke-width="1.10292" stroke-miterlimit="22.93"/>
<path fill-rule="evenodd" clip-rule="evenodd" d="M127.753 154.107C131.811 153.798 135.627 155.409 140.282 152.872C144.693 149.784 148.554 148.46 154.399 153.181C157.223 154.791 161.767 152.673 164.899 152.321C164.546 156.225 161.943 161.144 155.546 160.041C151.355 159.688 150.804 156.865 146.37 156.622C142.532 156.865 142.157 160.284 138.936 160.526C132.804 159.997 132.583 156.225 127.73 154.107" fill="#D20000"/>
<path fill-rule="evenodd" clip-rule="evenodd" d="M104.745 163.967C105.495 160.812 107.634 160.437 112.443 160.901C109.62 161.165 109.355 164.54 111.075 166.57C116.259 172.658 131.237 180.841 142.663 189.974C132.17 182.594 120.851 176.464 108.936 171.709C105.892 169.856 104.193 167.651 104.745 163.967Z" fill="white"/>
<path d="M104.745 163.967C105.495 160.812 107.634 160.437 112.443 160.901C109.62 161.165 109.355 164.54 111.075 166.57C116.259 172.658 131.237 180.841 142.663 189.974C132.17 182.594 120.851 176.464 108.936 171.709C105.892 169.856 104.193 167.651 104.745 163.967Z" stroke="black" stroke-width="1.10292" stroke-miterlimit="22.93"/>
<path fill-rule="evenodd" clip-rule="evenodd" d="M85.885 119.475C88.0909 118.019 91.2011 120.512 91.2231 124.262C87.3409 123.6 86.2379 125.475 85.6424 131.034C82.8189 128.365 82.6645 121.46 85.885 119.475Z" fill="white"/>
<path fill-rule="evenodd" clip-rule="evenodd" d="M220.507 166.681C216.912 161.497 200.147 170.475 208.066 187.658C208.331 222.158 183.603 220.591 167.435 211.922C175.486 224.805 184.442 231.069 189.162 246.708C189.316 247.238 208.772 237.201 215.831 219.665C219.823 204.555 232.176 167.695 220.507 166.725" fill="black"/>
<path fill-rule="evenodd" clip-rule="evenodd" d="M226.198 166.746C222.471 164.761 221.897 166.018 219.581 167.761C219.145 167.745 218.727 167.582 218.396 167.297C218.065 167.012 217.841 166.622 217.762 166.193C217.682 165.764 217.751 165.32 217.958 164.936C218.164 164.551 218.495 164.248 218.897 164.077C220.24 163.695 221.67 163.747 222.981 164.226C224.293 164.706 225.419 165.588 226.198 166.746Z" fill="white"/>
<path d="M226.198 166.746C222.471 164.761 221.897 166.018 219.581 167.761C219.145 167.745 218.727 167.582 218.396 167.297C218.065 167.012 217.841 166.622 217.762 166.193C217.682 165.764 217.751 165.32 217.958 164.936C218.164 164.551 218.495 164.248 218.897 164.077C220.24 163.695 221.67 163.747 222.981 164.226C224.293 164.706 225.419 165.588 226.198 166.746Z" stroke="black" stroke-width="0.485285" stroke-miterlimit="22.93"/>
<path fill-rule="evenodd" clip-rule="evenodd" d="M229.926 170.54C226.198 168.555 225.625 169.812 223.309 171.555C222.861 171.57 222.422 171.428 222.068 171.154C221.714 170.879 221.468 170.49 221.371 170.052C221.274 169.615 221.333 169.157 221.538 168.759C221.743 168.361 222.08 168.047 222.493 167.871C223.854 167.458 225.312 167.494 226.651 167.975C227.99 168.456 229.139 169.356 229.926 170.54Z" fill="white"/>
<path d="M229.926 170.54C226.198 168.555 225.625 169.812 223.309 171.555C222.861 171.57 222.422 171.428 222.068 171.154C221.714 170.879 221.468 170.49 221.371 170.052C221.274 169.615 221.333 169.157 221.538 168.759C221.743 168.361 222.08 168.047 222.493 167.871C223.854 167.458 225.312 167.494 226.651 167.975C227.99 168.456 229.139 169.356 229.926 170.54Z" stroke="black" stroke-width="0.485285" stroke-miterlimit="22.93"/>
<path fill-rule="evenodd" clip-rule="evenodd" d="M228.581 175.106C225.36 173.408 224.875 174.489 222.978 175.989C222.6 175.991 222.234 175.863 221.939 175.628C221.644 175.393 221.438 175.064 221.355 174.696C221.273 174.327 221.319 173.942 221.486 173.604C221.652 173.265 221.93 172.994 222.272 172.834C223.429 172.51 224.659 172.555 225.789 172.962C226.92 173.369 227.896 174.119 228.581 175.106Z" fill="white"/>
<path d="M228.581 175.106C225.36 173.408 224.875 174.489 222.978 175.989C222.6 175.991 222.234 175.863 221.939 175.628C221.644 175.393 221.438 175.064 221.355 174.696C221.273 174.327 221.319 173.942 221.486 173.604C221.652 173.265 221.93 172.994 222.272 172.834C223.429 172.51 224.659 172.555 225.789 172.962C226.92 173.369 227.896 174.119 228.581 175.106Z" stroke="black" stroke-width="0.485285" stroke-miterlimit="22.93"/>
<path fill-rule="evenodd" clip-rule="evenodd" d="M133.885 412.036C129.738 377.956 137.547 364.434 149.194 347.229C146.392 360.816 145.664 369.419 158.635 372.794C192.186 389.911 195.98 406.654 184.818 457.057C181.267 464.866 189.516 478.145 198.98 485.733C209.854 486.902 222.913 482.799 226.685 494.556C226.927 504.615 218.413 512.424 203.59 511.078C180.362 504.77 179.899 482.16 164.238 466.719C164.921 456.462 170.127 450.925 162.826 442.19C156.032 432.242 138.562 432.242 133.885 412.036Z" fill="black"/>
<path fill-rule="evenodd" clip-rule="evenodd" d="M119.502 243.907L169.597 212.761C182.082 228.797 186.604 242.804 192.736 259.282C197.148 268.568 200.523 267.311 206.302 256.105C212.434 245.076 214.089 243.907 220.419 240.444H242.72C243.002 241.756 243.062 243.105 242.897 244.437C242.897 251.186 243.095 261.951 226.463 266.958C220.199 267.466 217.441 265.679 214.133 269.164C208.221 276.135 210.096 294.465 198.449 294.575C187.861 293.649 181.001 283.833 169.994 269.451C172.575 275.451 173.722 280.48 179.699 285.09C171.604 319.678 162.273 324.619 150.538 342.751C141.583 357.839 130.686 369.728 130.377 395.095C129.428 407.889 134.083 417.551 132.406 432.44C131.656 439.896 130.09 455.447 117.274 464.094C106.245 473.932 88.4219 468.506 76.025 475.609C71.7457 479.182 68.6796 491.049 70.9516 502.079C70.939 503.546 71.4985 504.961 72.5114 506.024C73.5244 507.086 74.9112 507.712 76.378 507.77C88.5763 506.071 98.0393 508.542 100.047 516.747C100.708 524.358 79.5985 532.674 71.6575 530.887C63.0988 529.255 57.3416 515.865 55.7313 506.623C55.6578 496.329 55.5843 485.991 55.5107 475.609C56.5916 456.263 81.9808 466.476 77.1941 433.94C73.4442 419.823 74.878 412.985 79.5985 400.213C79.5985 382.103 78.0324 365.78 89.1057 349.236C105.517 315.465 128.612 284.208 119.502 243.907Z" fill="black"/>
<path fill-rule="evenodd" clip-rule="evenodd" d="M208.485 507.901C209.5 506.357 210.691 506.379 212.478 507.548C214.022 511.695 212.478 514.695 211.044 517.805C210.515 513.724 207.868 510.261 208.485 507.901Z" fill="white"/>
<path d="M208.485 507.901C209.5 506.357 210.691 506.379 212.478 507.548C214.022 511.695 212.478 514.695 211.044 517.805C210.515 513.724 207.868 510.261 208.485 507.901Z" stroke="black" stroke-width="0.485285" stroke-miterlimit="22.93"/>
<path fill-rule="evenodd" clip-rule="evenodd" d="M214.243 507.615C214.323 507.109 214.557 506.64 214.915 506.273C215.273 505.906 215.736 505.66 216.24 505.568C216.744 505.475 217.264 505.542 217.728 505.759C218.193 505.976 218.578 506.331 218.831 506.777C220.177 511.188 217.662 513.526 216.295 516.637C216.692 511.144 214.883 511.762 214.243 507.615Z" fill="white"/>
<path d="M214.243 507.615C214.323 507.109 214.557 506.64 214.915 506.273C215.273 505.906 215.736 505.66 216.24 505.568C216.744 505.475 217.264 505.542 217.728 505.759C218.193 505.976 218.578 506.331 218.831 506.777C220.177 511.188 217.662 513.526 216.295 516.637C216.692 511.144 214.883 511.762 214.243 507.615Z" stroke="black" stroke-width="0.485285" stroke-miterlimit="22.93"/>
<path fill-rule="evenodd" clip-rule="evenodd" d="M219.824 503.842C219.979 502.298 223.309 501.085 223.993 503.115C225.273 507.526 222.493 509.467 221.192 512.6C222.537 507.35 220.045 507.681 219.824 503.842Z" fill="white"/>
<path d="M219.824 503.842C219.979 502.298 223.309 501.085 223.993 503.115C225.273 507.526 222.493 509.467 221.192 512.6C222.537 507.35 220.045 507.681 219.824 503.842Z" stroke="black" stroke-width="0.485285" stroke-miterlimit="22.93"/>
<path fill-rule="evenodd" clip-rule="evenodd" d="M224.125 499.409C224.279 497.998 226.11 495.902 227.478 498.836C229.066 502.762 226.088 504.681 224.875 507.659C226.706 501.615 223.309 501.858 224.125 499.409Z" fill="white"/>
<path d="M224.125 499.409C224.279 497.998 226.11 495.902 227.478 498.836C229.066 502.762 226.088 504.681 224.875 507.659C226.706 501.615 223.309 501.858 224.125 499.409Z" stroke="black" stroke-width="0.485285" stroke-miterlimit="22.93"/>
<path fill-rule="evenodd" clip-rule="evenodd" d="M81.6956 527.203C81.9364 526.922 82.2306 526.692 82.5611 526.525C82.8916 526.358 83.2518 526.259 83.621 526.232C83.9902 526.205 84.361 526.252 84.7121 526.369C85.0631 526.487 85.3873 526.673 85.6661 526.916C87.1881 530.181 85.6661 532.563 84.2102 535.012C83.6808 531.813 81.122 529.1 81.6956 527.203Z" fill="white"/>
<path d="M81.6956 527.203C81.9364 526.922 82.2306 526.692 82.5611 526.525C82.8916 526.358 83.2518 526.259 83.621 526.232C83.9902 526.205 84.361 526.252 84.7121 526.369C85.0631 526.487 85.3873 526.673 85.6661 526.916C87.1881 530.181 85.6661 532.563 84.2102 535.012C83.6808 531.813 81.122 529.1 81.6956 527.203Z" stroke="black" stroke-width="0.485285" stroke-miterlimit="22.93"/>
<path fill-rule="evenodd" clip-rule="evenodd" d="M87.3857 526.982C87.5579 526.547 87.8412 526.166 88.2074 525.875C88.5735 525.584 89.0095 525.395 89.4719 525.325C89.9342 525.256 90.4067 525.31 90.8419 525.48C91.2771 525.651 91.6599 525.933 91.9518 526.298C93.2753 529.739 90.7607 531.636 89.3931 534.085C89.8563 529.761 88.0034 530.335 87.3857 526.982Z" fill="white"/>
<path d="M87.3857 526.982C87.5579 526.547 87.8412 526.166 88.2074 525.875C88.5735 525.584 89.0095 525.395 89.4719 525.325C89.9342 525.256 90.4067 525.31 90.8419 525.48C91.2771 525.651 91.6599 525.933 91.9518 526.298C93.2753 529.739 90.7607 531.636 89.3931 534.085C89.8563 529.761 88.0034 530.335 87.3857 526.982Z" stroke="black" stroke-width="0.485285" stroke-miterlimit="22.93"/>
<path fill-rule="evenodd" clip-rule="evenodd" d="M92.9434 523.982C93.0978 522.769 96.4065 521.776 97.0683 523.408C98.3256 526.872 95.5462 528.438 94.2669 530.908C95.6345 526.673 93.1639 527.026 92.9434 523.982Z" fill="white"/>
<path d="M92.9434 523.982C93.0978 522.769 96.4065 521.776 97.0683 523.408C98.3256 526.872 95.5462 528.438 94.2669 530.908C95.6345 526.673 93.1639 527.026 92.9434 523.982Z" stroke="black" stroke-width="0.485285" stroke-miterlimit="22.93"/>
<path fill-rule="evenodd" clip-rule="evenodd" d="M97.2231 520.474C97.2625 520.091 97.429 519.733 97.696 519.456C97.963 519.179 98.3151 519 98.696 518.946C99.0769 518.893 99.4648 518.969 99.7975 519.162C100.13 519.355 100.389 519.654 100.532 520.011C102.098 523.099 99.1201 524.621 97.9069 526.915C99.7818 522.217 96.4731 522.415 97.2231 520.474Z" fill="white"/>
<path d="M97.2231 520.474C97.2625 520.091 97.429 519.733 97.696 519.456C97.963 519.179 98.3151 519 98.696 518.946C99.0769 518.893 99.4648 518.969 99.7975 519.162C100.13 519.355 100.389 519.654 100.532 520.011C102.098 523.099 99.1201 524.621 97.9069 526.915C99.7818 522.217 96.4731 522.415 97.2231 520.474Z" stroke="black" stroke-width="0.485285" stroke-miterlimit="22.93"/>
<path fill-rule="evenodd" clip-rule="evenodd" d="M243.404 237.863C244 243.819 242.522 244.15 239.985 246.687C239.5 249.797 241.926 251.65 243.338 249.223C244.233 247.466 244.705 245.523 244.717 243.551C244.728 241.579 244.279 239.631 243.404 237.863Z" fill="white"/>
<path d="M243.404 237.863C244 243.819 242.522 244.15 239.985 246.687C239.5 249.797 241.926 251.65 243.338 249.223C244.233 247.466 244.705 245.523 244.717 243.551C244.728 241.579 244.279 239.631 243.404 237.863Z" stroke="black" stroke-width="0.485285" stroke-miterlimit="22.93"/>
<path fill-rule="evenodd" clip-rule="evenodd" d="M240.536 239.031C241.485 244.502 239.875 244.766 237.139 246.972C236.742 249.818 239.566 251.56 241.022 249.355C241.916 247.761 242.345 245.949 242.259 244.123C242.174 242.298 241.577 240.534 240.536 239.031Z" fill="white"/>
<path d="M240.536 239.031C241.485 244.502 239.875 244.766 237.139 246.972C236.742 249.818 239.566 251.56 241.022 249.355C241.916 247.761 242.345 245.949 242.259 244.123C242.174 242.298 241.577 240.534 240.536 239.031Z" stroke="black" stroke-width="0.485285" stroke-miterlimit="22.93"/>
<path fill-rule="evenodd" clip-rule="evenodd" d="M512.119 526.761L519.09 524.776L510.068 517.21L502.546 519.063L512.119 526.761Z" fill="#D81200"/>
<path d="M512.119 526.761L519.09 524.776L510.068 517.21L502.546 519.063L512.119 526.761Z" stroke="black" stroke-width="0.485285" stroke-miterlimit="22.93"/>
<path fill-rule="evenodd" clip-rule="evenodd" d="M523.634 523.762L530.605 521.798L521.583 514.232L514.083 516.063L523.634 523.762Z" fill="#D81200"/>
<path d="M523.634 523.762L530.605 521.798L521.583 514.232L514.083 516.063L523.634 523.762Z" stroke="black" stroke-width="0.485285" stroke-miterlimit="22.93"/>
<path fill-rule="evenodd" clip-rule="evenodd" d="M560.317 193.371C557.736 188.651 551.935 185.651 546.884 188.96C541.237 194.011 541.898 195.357 537.597 202.349C535.921 205.04 532.127 208.349 528.31 212.849C519.994 222.643 510.531 241.988 508.326 255.024C503.164 277.789 511.149 298.347 519.664 314.979C525.553 324.883 532.038 334.28 537.31 344.67C541.082 352.898 544.964 359.581 544.678 370.434C544.369 377.051 542.472 383.073 534.046 381.463C530.56 380.89 527.671 377.824 524.56 373.765C523.833 372.838 522.355 371.824 521.759 370.809C522.73 380.471 521.031 390.375 524.693 397.875C526.725 400.314 529.283 402.261 532.175 403.571C535.066 404.882 538.217 405.521 541.391 405.441C550.656 406.588 559.744 401.669 563.802 390.661C577.589 353.162 557.825 286.987 557.802 260.098C557.802 226.746 570.31 207.334 560.339 193.526" fill="black"/>
<path fill-rule="evenodd" clip-rule="evenodd" d="M524.604 122.982C525.335 126.291 524.987 129.746 523.611 132.843C524.251 124.019 524.449 116.541 518.361 111.821C512.758 108.578 505.7 113.233 503.692 120.446C503.56 117.424 501.487 111.247 499.016 112.064C495.906 112.064 497.009 118.681 494.604 121.747C484.082 124.946 475.833 130.46 467.539 136.35C464.009 139.063 461.164 139.659 460.679 143.386C459.774 152.96 468.333 153.445 479.494 151.526C481.877 153.732 475.899 155.519 473.384 155.938C473.166 156.742 473.255 157.599 473.634 158.341C474.014 159.083 474.656 159.658 475.436 159.952C481.068 160.832 486.786 161.025 492.465 160.526C496.876 160.879 498.134 168.709 489.994 172.459C461.539 183.753 445.635 198.091 429.951 214.503L480.509 245.208C488.185 222.179 502.347 201.334 524.251 180.709C532.655 170.915 538.148 161.055 538.655 148.129C538.787 139.614 534.376 128.276 524.626 122.96" fill="black"/>
<path fill-rule="evenodd" clip-rule="evenodd" d="M486.576 131.342C483.421 132.666 481.943 134.43 482.164 137.011C482.385 139.592 486.862 139.217 490.039 137.827C493.215 136.438 494.451 134.077 493.634 132.048C492.818 130.019 489.73 130.019 486.576 131.342Z" fill="white"/>
<path d="M489.553 134.585C489.574 133.318 488.515 132.273 487.187 132.251C485.859 132.229 484.766 133.238 484.745 134.505C484.724 135.772 485.783 136.817 487.111 136.839C488.439 136.861 489.532 135.852 489.553 134.585Z" fill="black"/>
<path d="M489.553 134.585C489.574 133.318 488.515 132.273 487.187 132.251C485.859 132.229 484.766 133.238 484.745 134.505C484.724 135.772 485.783 136.817 487.111 136.839C488.439 136.861 489.532 135.852 489.553 134.585Z" stroke="black" stroke-width="0.485285" stroke-miterlimit="22.93"/>
<path fill-rule="evenodd" clip-rule="evenodd" d="M465.532 138.004C463.326 138.732 460.812 138.555 458.915 140.916C457.128 145.592 461.54 149.143 461.87 148.063C461.87 146.408 461.87 144.026 462.753 143.651C463.635 143.276 464.231 144.798 464.518 145.68C465.598 143.783 465.731 141.952 465.532 138.004Z" fill="white"/>
<path d="M465.532 138.004C463.326 138.732 460.812 138.555 458.915 140.916C457.128 145.592 461.54 149.143 461.87 148.063C461.87 146.408 461.87 144.026 462.753 143.651C463.635 143.276 464.231 144.798 464.518 145.68C465.598 143.783 465.731 141.952 465.532 138.004Z" stroke="black" stroke-width="1.10292" stroke-miterlimit="22.93"/>
<path fill-rule="evenodd" clip-rule="evenodd" d="M473.011 153.842C468.952 153.533 465.114 155.143 460.481 152.606C456.07 149.518 452.21 148.195 446.364 152.915C443.541 154.525 438.997 152.408 435.864 152.055C436.217 155.959 438.82 160.878 445.217 159.775C449.408 159.422 449.937 156.599 454.393 156.356C458.231 156.599 458.606 160.018 461.827 160.261C467.959 159.731 468.18 155.959 473.033 153.842" fill="#D20000"/>
<path fill-rule="evenodd" clip-rule="evenodd" d="M495.994 163.681C495.244 160.526 493.105 160.151 488.296 160.615C491.119 160.879 491.384 164.254 489.664 166.284C484.48 172.372 470.958 179.96 459.51 189.092C469.518 181.92 480.362 175.994 491.803 171.445C494.847 169.592 496.568 167.386 495.994 163.681Z" fill="white"/>
<path d="M495.994 163.681C495.244 160.526 493.105 160.151 488.296 160.615C491.119 160.879 491.384 164.254 489.664 166.284C484.48 172.372 470.958 179.96 459.51 189.092C469.518 181.92 480.362 175.994 491.803 171.445C494.847 169.592 496.568 167.386 495.994 163.681Z" stroke="black" stroke-width="1.10292" stroke-miterlimit="22.93"/>
<path fill-rule="evenodd" clip-rule="evenodd" d="M514.856 119.122C512.65 117.667 509.54 120.159 509.518 123.909C513.4 123.247 514.503 125.144 515.098 130.681C517.922 128.012 518.076 121.108 514.856 119.122Z" fill="white"/>
<path fill-rule="evenodd" clip-rule="evenodd" d="M379.923 164.166C383.365 158.872 400.372 167.409 392.938 184.791C393.622 219.29 418.967 218.099 434.849 209.055C425.695 220.702 417.423 226.216 413.254 241.415C413.099 241.944 393.644 234.4 386.1 217.15C381.688 202.151 368.321 165.644 379.968 164.21" fill="black"/>
<path fill-rule="evenodd" clip-rule="evenodd" d="M374.233 164.387C377.917 162.313 378.513 163.548 380.851 165.225C381.3 165.231 381.738 165.08 382.087 164.797C382.437 164.514 382.675 164.117 382.762 163.676C382.849 163.235 382.778 162.777 382.562 162.383C382.345 161.989 381.997 161.683 381.579 161.519C380.209 161.146 378.755 161.223 377.432 161.739C376.11 162.256 374.988 163.184 374.233 164.387Z" fill="white"/>
<path d="M374.233 164.387C377.917 162.313 378.513 163.548 380.851 165.225C381.3 165.231 381.738 165.08 382.087 164.797C382.437 164.514 382.675 164.117 382.762 163.676C382.849 163.235 382.778 162.777 382.562 162.383C382.345 161.989 381.997 161.683 381.579 161.519C380.209 161.146 378.755 161.223 377.432 161.739C376.11 162.256 374.988 163.184 374.233 164.387Z" stroke="black" stroke-width="0.485285" stroke-miterlimit="22.93"/>
<path fill-rule="evenodd" clip-rule="evenodd" d="M370.527 168.312C374.211 166.238 374.807 167.474 377.145 169.15C377.582 169.123 377.997 168.948 378.32 168.653C378.644 168.358 378.857 167.961 378.924 167.528C378.991 167.095 378.908 166.653 378.688 166.274C378.469 165.895 378.127 165.602 377.718 165.444C376.37 165.107 374.95 165.202 373.66 165.717C372.369 166.232 371.273 167.139 370.527 168.312Z" fill="white"/>
<path d="M370.527 168.312C374.211 166.238 374.807 167.474 377.145 169.15C377.582 169.123 377.997 168.948 378.32 168.653C378.644 168.358 378.857 167.961 378.924 167.528C378.991 167.095 378.908 166.653 378.688 166.274C378.469 165.895 378.127 165.602 377.718 165.444C376.37 165.107 374.95 165.202 373.66 165.717C372.369 166.232 371.273 167.139 370.527 168.312Z" stroke="black" stroke-width="0.485285" stroke-miterlimit="22.93"/>
<path fill-rule="evenodd" clip-rule="evenodd" d="M372.072 172.813C375.249 171.026 375.756 172.085 377.697 173.541C378.076 173.534 378.441 173.397 378.731 173.153C379.021 172.91 379.219 172.574 379.291 172.202C379.363 171.83 379.306 171.445 379.128 171.11C378.95 170.776 378.663 170.512 378.315 170.364C377.149 170.072 375.921 170.152 374.802 170.59C373.683 171.029 372.729 171.806 372.072 172.813Z" fill="white"/>
<path d="M372.072 172.813C375.249 171.026 375.756 172.085 377.697 173.541C378.076 173.534 378.441 173.397 378.731 173.153C379.021 172.91 379.219 172.574 379.291 172.202C379.363 171.83 379.306 171.445 379.128 171.11C378.95 170.776 378.663 170.512 378.315 170.364C377.149 170.072 375.921 170.152 374.802 170.59C373.683 171.029 372.729 171.806 372.072 172.813Z" stroke="black" stroke-width="0.485285" stroke-miterlimit="22.93"/>
<path fill-rule="evenodd" clip-rule="evenodd" d="M466.878 411.77C471.025 377.69 463.216 364.168 451.569 346.963C454.371 360.551 455.099 369.154 442.128 372.529C408.578 389.646 404.784 406.388 415.945 456.792C419.497 464.6 411.247 477.879 401.784 485.468C390.909 486.637 377.85 482.534 374.078 494.291C373.836 504.35 382.35 512.158 397.173 510.813C420.401 504.504 420.864 481.894 436.526 466.453C435.842 456.196 430.636 450.659 437.937 441.924C444.731 431.976 462.202 431.976 466.878 411.77Z" fill="black"/>
<path fill-rule="evenodd" clip-rule="evenodd" d="M481.238 243.643L431.165 212.475C418.68 228.511 414.158 242.518 408.026 258.996C403.614 268.282 400.239 267.003 394.46 255.819C388.328 244.79 386.674 243.621 380.343 240.158H358.042C357.76 241.47 357.7 242.819 357.865 244.15C357.865 250.9 357.667 261.665 374.299 266.672C380.563 267.201 383.321 265.393 386.629 268.878C392.541 275.848 390.666 294.179 402.313 294.289C412.901 293.363 419.761 283.547 430.768 269.165C428.187 275.165 427.04 280.194 421.063 284.804C429.158 319.392 438.489 324.333 450.224 342.465C459.179 357.553 470.076 369.442 470.385 394.809C471.334 407.603 466.679 417.265 468.356 432.154C469.106 439.61 470.672 455.161 483.488 463.808C494.517 473.646 512.34 468.22 524.737 475.322C529.016 478.896 532.082 490.763 529.81 501.792C529.823 503.26 529.264 504.675 528.251 505.738C527.238 506.8 525.851 507.426 524.384 507.484C512.186 505.785 502.723 508.256 500.715 516.461C500.054 524.071 521.164 532.387 529.105 530.601C537.663 528.968 543.42 515.579 545.031 506.337C545.104 496.043 545.178 485.705 545.251 475.322C544.17 455.977 518.781 466.19 523.568 433.654C527.318 419.537 525.884 412.721 521.164 399.927C521.164 381.817 522.73 365.494 511.656 348.95C495.245 315.178 472.15 283.922 481.26 243.621" fill="black"/>
<path fill-rule="evenodd" clip-rule="evenodd" d="M392.255 507.636C391.24 506.092 390.049 506.114 388.263 507.283C386.718 511.43 388.262 514.43 389.696 517.54C390.226 513.438 392.807 509.996 392.255 507.636Z" fill="white"/>
<path d="M392.255 507.636C391.24 506.092 390.049 506.114 388.263 507.283C386.718 511.43 388.262 514.43 389.696 517.54C390.226 513.438 392.807 509.996 392.255 507.636Z" stroke="black" stroke-width="0.485285" stroke-miterlimit="22.93"/>
<path fill-rule="evenodd" clip-rule="evenodd" d="M386.542 507.35C386.462 506.844 386.227 506.375 385.87 506.008C385.512 505.641 385.049 505.395 384.545 505.303C384.041 505.211 383.521 505.278 383.057 505.494C382.592 505.711 382.207 506.066 381.954 506.512C380.608 510.924 383.123 513.262 384.49 516.372C384.005 510.857 385.858 511.585 386.542 507.35Z" fill="white"/>
<path d="M386.542 507.35C386.462 506.844 386.227 506.375 385.87 506.008C385.512 505.641 385.049 505.395 384.545 505.303C384.041 505.211 383.521 505.278 383.057 505.494C382.592 505.711 382.207 506.066 381.954 506.512C380.608 510.924 383.123 513.262 384.49 516.372C384.005 510.857 385.858 511.585 386.542 507.35Z" stroke="black" stroke-width="0.485285" stroke-miterlimit="22.93"/>
<path fill-rule="evenodd" clip-rule="evenodd" d="M380.917 503.579C380.762 502.035 377.431 500.822 376.748 502.851C375.468 507.263 378.248 509.204 379.549 512.336C378.203 506.976 380.718 507.351 380.917 503.579Z" fill="white"/>
<path d="M380.917 503.579C380.762 502.035 377.431 500.822 376.748 502.851C375.468 507.263 378.248 509.204 379.549 512.336C378.203 506.976 380.718 507.351 380.917 503.579Z" stroke="black" stroke-width="0.485285" stroke-miterlimit="22.93"/>
<path fill-rule="evenodd" clip-rule="evenodd" d="M376.615 499.122C376.461 497.71 374.63 495.615 373.262 498.549C371.674 502.475 374.652 504.394 375.865 507.372C374.056 501.35 377.387 501.593 376.615 499.122Z" fill="white"/>
<path d="M376.615 499.122C376.461 497.71 374.63 495.615 373.262 498.549C371.674 502.475 374.652 504.394 375.865 507.372C374.056 501.35 377.387 501.593 376.615 499.122Z" stroke="black" stroke-width="0.485285" stroke-miterlimit="22.93"/>
<path fill-rule="evenodd" clip-rule="evenodd" d="M519.068 526.961C518.828 526.68 518.533 526.449 518.203 526.283C517.872 526.116 517.512 526.016 517.143 525.99C516.774 525.963 516.403 526.01 516.052 526.127C515.701 526.245 515.377 526.431 515.098 526.674C513.576 529.939 515.098 532.321 516.554 534.77C517.083 531.615 519.62 528.836 519.068 526.961Z" fill="white"/>
<path d="M519.068 526.961C518.828 526.68 518.533 526.449 518.203 526.283C517.872 526.116 517.512 526.016 517.143 525.99C516.774 525.963 516.403 526.01 516.052 526.127C515.701 526.245 515.377 526.431 515.098 526.674C513.576 529.939 515.098 532.321 516.554 534.77C517.083 531.615 519.62 528.836 519.068 526.961Z" stroke="black" stroke-width="0.485285" stroke-miterlimit="22.93"/>
<path fill-rule="evenodd" clip-rule="evenodd" d="M513.355 526.716C513.182 526.282 512.899 525.9 512.533 525.609C512.167 525.318 511.731 525.129 511.268 525.06C510.806 524.99 510.334 525.044 509.898 525.215C509.463 525.385 509.08 525.667 508.788 526.033C507.465 529.474 509.98 531.371 511.347 533.819C510.884 529.407 512.737 530.069 513.355 526.716Z" fill="white"/>
<path d="M513.355 526.716C513.182 526.282 512.899 525.9 512.533 525.609C512.167 525.318 511.731 525.129 511.268 525.06C510.806 524.99 510.334 525.044 509.898 525.215C509.463 525.385 509.08 525.667 508.788 526.033C507.465 529.474 509.98 531.371 511.347 533.819C510.884 529.407 512.737 530.069 513.355 526.716Z" stroke="black" stroke-width="0.485285" stroke-miterlimit="22.93"/>
<path fill-rule="evenodd" clip-rule="evenodd" d="M507.862 523.718C507.707 522.505 504.399 521.513 503.737 523.145C502.48 526.608 505.259 528.174 506.538 530.645C505.127 526.387 507.619 526.74 507.862 523.718Z" fill="white"/>
<path d="M507.862 523.718C507.707 522.505 504.399 521.513 503.737 523.145C502.48 526.608 505.259 528.174 506.538 530.645C505.127 526.387 507.619 526.74 507.862 523.718Z" stroke="black" stroke-width="0.485285" stroke-miterlimit="22.93"/>
<path fill-rule="evenodd" clip-rule="evenodd" d="M503.451 520.189C503.411 519.806 503.245 519.448 502.978 519.171C502.711 518.894 502.359 518.714 501.978 518.661C501.597 518.608 501.209 518.684 500.876 518.877C500.544 519.07 500.285 519.368 500.142 519.726C498.576 522.814 501.554 524.336 502.767 526.63C500.98 521.931 504.289 522.152 503.451 520.189Z" fill="white"/>
<path d="M503.451 520.189C503.411 519.806 503.245 519.448 502.978 519.171C502.711 518.894 502.359 518.714 501.978 518.661C501.597 518.608 501.209 518.684 500.876 518.877C500.544 519.07 500.285 519.368 500.142 519.726C498.576 522.814 501.554 524.336 502.767 526.63C500.98 521.931 504.289 522.152 503.451 520.189Z" stroke="black" stroke-width="0.485285" stroke-miterlimit="22.93"/>
<path fill-rule="evenodd" clip-rule="evenodd" d="M357.358 237.599C356.762 243.554 358.24 243.885 360.777 246.422C361.262 249.532 358.836 251.385 357.424 248.959C356.529 247.201 356.057 245.259 356.045 243.287C356.034 241.314 356.483 239.366 357.358 237.599Z" fill="white"/>
<path d="M357.358 237.599C356.762 243.554 358.24 243.885 360.777 246.422C361.262 249.532 358.836 251.385 357.424 248.959C356.529 247.201 356.057 245.259 356.045 243.287C356.034 241.314 356.483 239.366 357.358 237.599Z" stroke="black" stroke-width="0.485285" stroke-miterlimit="22.93"/>
<path fill-rule="evenodd" clip-rule="evenodd" d="M360.204 238.768C359.256 244.238 360.866 244.503 363.601 246.709C363.998 249.554 361.175 251.297 359.719 249.091C358.825 247.498 358.396 245.685 358.481 243.86C358.567 242.034 359.164 240.27 360.204 238.768Z" fill="white"/>
<path d="M360.204 238.768C359.256 244.238 360.866 244.503 363.601 246.709C363.998 249.554 361.175 251.297 359.719 249.091C358.825 247.498 358.396 245.685 358.481 243.86C358.567 242.034 359.164 240.27 360.204 238.768Z" stroke="black" stroke-width="0.485285" stroke-miterlimit="22.93"/>
<path fill-rule="evenodd" clip-rule="evenodd" d="M213.383 241.744H388.306V228.951C388.323 228.886 388.323 228.817 388.306 228.752C375.799 197.164 353.961 180.356 330.491 173.011C330.072 172.878 327.976 172.349 327.292 172.106C327.138 172.106 327.292 171.797 327.292 171.709V162.886H274.352V172.261C274.132 172.261 272.654 172.724 272.433 172.79C249.426 179.915 226.243 196.326 213.383 228.642V241.722" fill="#FFD700"/>
<path d="M225.03 661.473C272.963 661.473 300.293 707.023 300.293 732.06C300.293 693.149 339.557 661.473 376.13 661.473" stroke="black" stroke-width="2.20584" stroke-miterlimit="22.93"/>
<path d="M225.382 1.11035H374.607" stroke="black" stroke-width="2.20584" stroke-miterlimit="22.93"/>
</g>
<defs>
<clipPath id="clip0_806_104076">
<rect width="601.069" height="732" fill="white" transform="translate(0.519531)"/>
</clipPath>
</defs>
</svg>
