<svg id="id-svg" width="390" height="733" viewBox="0 0 390 733" fill="none" xmlns="http://www.w3.org/2000/svg">
<g clip-path="url(#clip0_806_104712)">
<path d="M389.514 258.776H0.0253906V635.566C0.391891 660.305 9.70099 682.936 33.3402 693.647C41.0708 697.055 49.3721 698.981 57.8133 699.328H57.9232C73.8385 699.273 89.882 696.982 105.687 695.25C114.96 694.233 124.278 693.354 133.615 693.134C138.719 693.212 143.804 693.789 148.797 694.856C159.384 697.05 169.441 701.293 178.401 707.345C185.218 712.073 192.264 718.88 194.802 726.989L196.634 733L198.522 726.989C202.324 714.913 216.205 704.816 227.164 699.603C235.767 695.516 246.112 692.538 255.723 693.051H255.824C281.534 693.051 307.079 696.927 332.652 699.099C340.657 699.659 348.681 698.295 356.053 695.122C366.336 690.531 374.854 682.732 380.333 672.894C387.013 661.294 389.67 647.798 389.642 634.521L389.514 258.776ZM120.228 472.171C119.834 473.674 118.048 476.12 116.866 476.12C114.767 476.12 113.943 474.223 113.631 472.052C113.466 470.879 112.797 469.065 114.547 467.049C115.464 465.931 116.536 465.153 117.113 467.883C117.36 469.074 119.358 467.516 119.99 468.03C120.796 468.689 120.622 470.705 120.228 472.171Z" fill="#694B32"/>
<path d="M387.545 260.746H1.99609V635.556C2.64663 678.62 29.6577 695.965 57.8873 697.367C81.9023 697.284 108.345 691.75 133.57 691.173C161.195 691.475 190.808 707.665 196.663 726.403C202.527 707.757 232.854 689.863 255.843 691.081C281.544 691.081 307.153 694.957 332.808 697.128C362.751 699.089 387.783 674.836 387.664 634.521L387.545 260.746ZM120 468.029C120.815 468.689 120.641 470.705 120.247 472.171C119.853 473.637 118.067 476.12 116.885 476.12C114.786 476.12 113.962 474.223 113.65 472.052C113.485 470.879 112.817 469.065 114.567 467.049C115.483 465.931 116.555 465.152 117.132 467.883C117.306 469.12 119.349 467.516 119.982 468.029H120Z" fill="#DC231E"/>
<path d="M314.794 542.832L317.588 542.649L316.947 539.9C315.288 532.9 313.841 521.475 309.828 515.675L309.663 515.437L309.452 515.244C303.872 510.315 297.66 504.781 294.883 497.698L294.801 497.478L294.673 497.286C292.593 494.033 289.084 493.822 285.593 493.731H285.419C286.775 492.613 286.93 490.679 287.398 489.058H284.649L284.906 488.297L275.505 488.535C275.659 488.113 275.737 487.666 275.734 487.216V485.759L274.424 485.109C271.043 483.414 264.885 484.137 260.103 485.035C260.44 484.673 260.679 484.23 260.798 483.749C260.917 483.268 260.911 482.765 260.781 482.287L260.24 480.766L258.6 480.702C255.851 480.601 252.434 482.277 249.951 483.45C249.318 483.743 247.422 484.669 245.754 485.283C245.965 485.063 246.185 484.852 246.405 484.651L247.009 484.082C247.481 483.699 247.794 483.154 247.887 482.553C247.98 481.952 247.847 481.338 247.513 480.83C247.171 480.327 246.652 479.971 246.06 479.833C245.467 479.696 244.844 479.786 244.316 480.088C242.046 480.951 239.664 481.478 237.242 481.654C235.381 481.833 233.562 482.313 231.855 483.075C231.191 483.078 230.528 483.02 229.876 482.9L228.684 482.699C226.018 482.195 222.674 481.352 221.483 481.059C218.459 480.326 215.445 479.559 212.439 478.759C210.937 478.374 209.434 477.971 207.941 477.577L201.857 475.964C197.184 474.728 192.502 473.491 187.801 472.299C186.766 472.034 185.721 471.786 184.686 471.53H184.594C182.643 471.063 180.508 470.54 178.364 470.101L177.182 469.862C176.309 469.697 175.447 469.551 174.598 469.422L173.599 469.294L172.28 469.12L171.007 469.038C170.667 469.038 170.338 469.038 169.999 469.038C169.082 469.038 168.23 469.038 167.369 469.038C167.03 469.038 166.691 469.038 166.361 469.12C165.775 469.175 165.188 469.248 164.62 469.358C164.173 469.43 163.729 469.525 163.292 469.642C160.433 470.342 157.804 471.769 155.659 473.784C153.367 475.066 150.988 476.186 148.54 477.137C148.073 477.321 147.092 477.687 146.002 478.054C146.281 477.558 146.422 476.995 146.409 476.426C146.396 475.857 146.23 475.302 145.929 474.819C144.692 472.987 142.081 473.472 140.202 473.628C139.286 473.711 138.37 473.775 137.453 473.793C137.453 473.665 137.545 473.527 137.582 473.381C137.659 473.144 137.69 472.896 137.673 472.648V469.441L134.604 470.357C131.681 471.273 129.006 470.989 126.275 472.923C125.598 473.4 125.006 473.988 124.525 474.663C126.101 470.779 126.229 464.896 123.123 462.349C119.284 459.481 115.408 459.921 112.009 461.973C112.009 460.141 110.323 459.509 108.876 459.133C107.107 458.666 105.119 456.943 104.386 456.787L104.139 456.732H103.891C101.014 456.732 98.2837 459.875 96.8819 462.23C95.3792 464.786 94.6096 468.699 96.7811 471.127C96.9512 471.32 97.1383 471.498 97.34 471.658C93.8766 473.152 90.7338 475.534 87.9851 477.366L87.8385 477.476C86.5374 478.512 84.7599 482.003 83.8895 483.533C83.1883 484.878 82.4145 486.184 81.5713 487.445L81.1682 487.326L80.1695 488.462C76.2937 492.842 69.2478 494.61 64.016 497.011L62.8982 497.524L62.6783 498.733C62.5362 499.541 62.5549 500.37 62.7332 501.171C62.8638 501.647 62.9497 502.135 62.9898 502.627V504.222L64.4741 504.817C64.5173 504.831 64.5576 504.853 64.5932 504.881C65.2621 505.697 64.7948 510.067 66.2333 513.787L67.8276 515.785C70.1549 519.01 72.1523 521.181 77.604 522.299C80.142 522.831 82.7716 523.078 85.3371 523.49C87.9026 523.903 92.6671 524.718 94.1423 526.935C94.2988 527.166 94.4193 527.42 94.4996 527.687L95.0219 529.336H96.7628C97.3855 529.356 98.0039 529.226 98.5665 528.958C99.129 528.691 99.6195 528.292 99.9971 527.797C100.191 528.918 100.64 529.981 101.307 530.903L102.361 532.186L103.928 531.636C104.512 531.447 105.049 531.138 105.507 530.73C105.964 530.321 106.332 529.821 106.585 529.263C106.773 529.771 107.12 530.204 107.575 530.5C108.903 531.416 110.323 530.82 111.45 529.977C111.771 529.73 112.101 529.474 112.421 529.199C113.063 530.967 113.338 532.864 114.923 533.78C116.691 534.769 118.588 533.78 120.191 532.69C120.186 533.823 120.082 534.955 119.88 536.071C119.562 537.713 119.612 539.406 120.026 541.027L121.043 544.271L119.541 545.691C117.708 547.441 115.106 548.174 112.971 549.567L112.87 549.631L112.779 549.713C110.922 550.986 108.927 552.043 106.832 552.865C104.533 553.801 102.393 555.09 100.492 556.686C95.9656 558.803 94.0782 562.807 91.9158 567.086C91.1916 568.659 90.3138 570.156 89.2953 571.557L88.6906 572.336L88.828 573.316C88.8871 573.73 88.7818 574.151 88.5348 574.489C87.7397 575.474 87.0344 576.529 86.4275 577.641L86.3633 577.76V577.897C85.5021 580.701 83.6146 583.23 82.3135 585.823C81.6 587.169 81.0436 588.592 80.6551 590.065C80.426 590.862 80.1603 592.621 79.9496 593.025L79.3082 593.519L79.1433 594.436C78.6446 596.605 78.8368 598.877 79.693 600.932C83.2298 607.923 84.3476 608.372 92.154 607.016C93.6724 606.818 95.0699 606.083 96.0939 604.945C97.1293 603.818 97.2484 602.737 97.9264 601.537L98.1646 601.115L98.2196 600.629C98.806 595.517 105.256 593.987 106.466 587.252L106.842 586.785C107.097 587.189 107.467 587.508 107.904 587.701C108.333 587.903 108.81 587.981 109.28 587.928C109.751 587.875 110.198 587.691 110.571 587.399L116.38 582.295C112.55 588.187 122.574 585.227 125.35 583.386C125.471 583.609 125.629 583.81 125.817 583.981C127.448 585.52 129.207 584.155 130.398 583.065C131.367 582.167 132.259 581.189 133.065 580.142C134.358 578.284 135.182 576.14 135.465 573.893L136.162 574.993C136.354 575.433 136.556 575.909 136.766 576.321C137.715 578.553 138.472 580.861 139.029 583.221L139.185 583.88L139.671 584.357C140.761 585.438 142.209 586.308 143.757 585.493C143.872 585.433 143.982 585.366 144.087 585.291C144.215 586.208 144.307 586.968 144.344 587.38C144.481 588.764 144.582 590.129 144.683 591.531C144.724 592.582 144.859 593.628 145.086 594.656L145.516 596.195L147.12 596.36C147.21 596.371 147.299 596.389 147.386 596.415C147.981 597.569 146.653 601.775 148.558 604.496L149.209 605.412L150.125 605.467C150.579 606.654 150.73 607.936 150.565 609.196H149.649V611.56C149.649 616.206 145.791 617.36 141.971 618.46C138.47 619.468 133.935 620.411 131.626 623.472C131.246 623.983 130.938 624.544 130.71 625.139L129.794 627.356L132.038 628.218H132.139C131.741 628.746 131.525 629.389 131.525 630.05C131.525 630.712 131.741 631.355 132.139 631.883C133.055 632.973 134.411 633.01 135.804 632.579C135.846 632.749 135.904 632.915 135.978 633.074C136.242 633.607 136.696 634.022 137.251 634.237C137.805 634.452 138.42 634.453 138.974 634.238C148.637 630.653 158.912 629.012 169.211 629.409C173.407 629.565 174.488 624.754 174.901 621.529C175.038 620.393 175.13 619.266 175.23 618.13C175.23 617.956 175.23 617.736 175.285 617.498H175.945V616.206C176.533 616.163 177.101 615.971 177.594 615.647C180.746 613.723 180.343 609.563 180.343 606.393C180.277 605.155 180.425 603.915 180.783 602.728L184.054 599.466L184.42 588.04L186.601 589.873L186.519 584.632C186.501 583.602 186.4 582.575 186.216 581.562L188.049 582.314L188.369 579.162C188.401 578.677 188.401 578.19 188.369 577.705H188.773L190.385 575.634C191.182 574.626 192.218 577.76 193.29 578.31C194.572 578.951 196.35 578.31 197.706 578.154C198.995 577.963 200.302 577.923 201.6 578.035C203.717 578.255 204.523 576.633 205.137 575.029C206.13 576.017 207.212 576.91 208.371 577.696C208.789 577.977 209.289 578.11 209.791 578.071C211.624 578.007 212.302 576.376 212.678 574.846C213.236 576.605 213.869 578.667 215.793 579.318L216.013 579.391C215.94 580.546 216.109 581.703 216.507 582.79C217.305 584.952 218.019 587.17 218.807 589.341C219.394 590.926 219.989 592.539 220.64 594.087C220.865 594.623 221.119 595.146 221.4 595.654C221.657 596.23 222.104 596.7 222.666 596.985C223.229 597.27 223.872 597.354 224.488 597.221C224.784 597.146 225.061 597.012 225.303 596.827C225.423 598 225.496 599.255 225.56 599.805C225.699 600.976 226.008 602.121 226.476 603.204C226.733 603.791 227.072 604.386 227.292 604.982C227.35 605.123 227.39 605.27 227.411 605.421C227.476 605.815 227.454 606.219 227.347 606.603C226.595 609.141 221.18 611.707 218.981 612.788C214.4 615.06 204.908 617.947 205.064 624.15V624.269V624.388C205.925 631.076 219.586 631.223 223.05 631.031C226.682 630.481 230.266 629.65 233.77 628.548C237.81 627.32 243.848 625.304 247.358 622.986C255.338 617.718 254.889 608.473 252.855 600.254L251.472 594.756C251.618 593.95 251.93 592.997 252.104 592.209C252.406 590.789 252.709 588.975 252.104 587.628C254.743 587.261 254.541 583.734 254.541 581.791V581.452C254.972 582.304 255.356 583.102 255.549 583.505C256.19 584.861 256.795 586.254 257.381 587.573C258.591 590.212 261.046 595.416 262.879 589.14C264.033 594.353 267.323 605.137 271.125 608.069L274.314 610.516L275.725 601.234C278.063 604.124 279.728 607.498 280.599 611.111C280.486 611.993 280.255 612.856 279.912 613.677C279.097 615.509 274.204 618.075 272.445 619.174C270.865 620.128 269.388 621.243 268.037 622.5C265.023 625.442 263.529 628.786 264.794 630.875C268.404 636.83 286.784 634.98 291.457 632.176C298.127 626.312 306.273 621.346 312.879 615.418L313.383 614.804L313.566 614.098C314.94 608.601 310.561 602.105 308.197 597.313C307.056 595.156 306.079 592.918 305.274 590.615L305.613 590.752L308.462 591.925L308.856 588.874C309.507 583.926 308.609 580.078 307.024 575.46C306.337 573.518 305.64 571.648 305.191 569.688C305.585 570.02 306.054 570.249 306.558 570.354C307.062 570.46 307.584 570.439 308.077 570.292C308.457 570.169 308.806 569.966 309.101 569.697C309.397 569.429 309.632 569.101 309.791 568.735C310.498 567.174 310.788 565.457 310.634 563.75C310.487 561.854 309.892 560.03 309.782 558.134C309.683 555.989 310.253 553.866 311.413 552.059C313.887 547.835 312.109 544.408 309.644 541.064C310.044 541.391 310.473 541.679 310.927 541.925C312.108 542.578 313.446 542.892 314.794 542.832ZM119.981 468.011C120.796 468.671 120.622 470.687 120.228 472.153C119.834 473.619 118.047 476.102 116.865 476.102C114.767 476.102 113.942 474.205 113.631 472.034C113.466 470.861 112.797 469.047 114.547 467.031C115.463 465.913 116.535 465.134 117.113 467.865C117.305 469.12 119.348 467.517 119.981 468.03V468.011ZM126.229 478.915L125.955 479.3L125.643 479.703C125.552 479.473 125.435 479.255 125.295 479.052L125.203 478.915H126.229ZM122.564 478.118C122.299 478.191 121.905 478.283 121.474 478.365C122.06 477.806 122.702 477.284 123.023 477.037L123.242 476.872L122.564 478.118Z" fill="black"/>
<path d="M250.537 600.785L249.062 594.885C248.915 594.289 251.096 588.471 249.438 588.178C242.538 586.767 248.787 581.993 239.991 579.767C237.893 579.235 238.736 585.319 236.326 585.374C232.606 585.456 233.907 577.806 230.325 578.301C228.007 578.621 228.959 582.259 228.492 585.008C228.492 585.099 225.743 584.091 222.894 578.85C220.502 574.434 217.241 577.934 218.752 581.975C219.009 582.653 223.334 595.718 223.957 594.931C227.796 589.9 227.484 595.444 227.97 599.512C228.3 602.398 229.528 603.351 229.802 605.009C230.462 609.325 225.908 611.973 220.09 614.85C215.509 617.113 207.373 619.706 207.492 624.012C207.895 627.118 215.106 618.698 211.587 625.57C212.998 625.973 221.162 620.723 217.589 626.669C214.015 632.616 239.918 624.938 246.066 620.879C253.002 616.38 252.36 608.088 250.537 600.785ZM103.397 460.324C96.9828 460.324 93.9683 475.195 105.284 468.745C105.037 465.73 107.052 464.347 108.033 462.212C112.092 462.038 106.897 461.076 103.397 460.324ZM302.195 585.484C304.623 583.981 304.513 587.802 306.483 588.608C307.647 579.702 303.121 574.865 302.195 567.104C303.112 562.587 306.703 569.605 307.528 567.791C309.974 562.422 304.605 558.894 309.269 550.914C313.74 543.236 298.622 538.774 304.779 530.17C308.032 533.643 309.305 540.808 314.647 540.469C313.135 534.11 311.468 522.235 307.876 517.031C301.728 511.598 295.58 505.972 292.675 498.569C290.009 494.409 283.165 497.487 279.573 494.83C280.169 493.163 283.403 492.86 284.356 491.44C283.98 491.44 282.679 491.605 282.963 490.753L271.107 491.009C270.291 488.81 273.361 489.094 273.361 487.235C269.879 485.503 261.596 487.079 256.951 488.151C255.118 486.877 258.646 483.432 258.527 483.084C254.001 482.919 245.699 489.617 242.108 487.803C241.063 485.255 247.01 481.389 245.241 482.25C237.765 484.999 238.03 482.983 232.606 485.31C231.695 485.48 230.758 485.455 229.857 485.237V486.227H172.564C171.055 486.259 169.555 485.995 168.148 485.448C167.678 485.261 167.224 485.034 166.792 484.77C166.581 484.642 166.38 484.504 166.187 484.367C165.812 484.1 165.468 483.793 165.161 483.45C165.035 483.328 164.919 483.196 164.813 483.056L164.584 482.754C164.54 482.702 164.5 482.647 164.465 482.589L164.3 482.333C164.02 481.888 163.795 481.411 163.631 480.912C163.631 480.793 163.548 480.674 163.521 480.546C163.476 480.398 163.439 480.249 163.411 480.097C163.336 479.599 163.293 479.097 163.283 478.594V472.126C160.942 472.772 158.806 474.009 157.08 475.717C154.752 477.11 144.252 482.268 140.963 481.105C147.871 472.593 142.181 477.302 132.845 475.9C132.845 474.15 135.282 473.729 135.282 472.666C132.286 473.582 127.87 473.335 126.12 476.597C129.207 476.597 130.408 477.366 127.86 480.757L132.845 482.259C135.529 483.066 127.283 486.593 132.497 488.508C130.875 489.314 129.949 493.089 127.512 490.698C127.109 487.867 129.198 489.04 126.12 487.812C124.864 487.308 126.642 485.2 126.816 484.687C121.612 485.549 124.388 481.984 123.334 480.408C116.233 482.296 116.581 479.052 121.593 475.204C123.288 472.666 124.195 466.362 121.593 464.209C117.36 461.048 113.127 463.11 109.535 466.958C107.098 470.311 111.038 472.052 111.267 474.819C108.518 475.479 104.927 478.384 104.542 472.629C99.4017 471.768 93.3544 476.597 89.3504 479.336C87.8478 480.528 83.4864 490.432 81.9196 489.974C77.6316 494.821 70.7872 496.443 64.9873 499.137C64.7583 500.41 65.3355 501.336 65.3355 502.609C68.8173 503.993 65.6745 509.435 68.0293 512.257C71.6302 510.993 76.0831 514.53 79.0976 511.863C81.3058 511.863 83.6788 509.545 85.1723 511.863C82.4969 515.528 78.6761 516.948 73.8017 516.719C72.409 522.565 94.1332 518.552 96.772 527.009C99.0902 527.009 98.3938 523.655 101.06 524.114C102.334 525.387 102.105 528.163 103.149 529.437C105.467 528.622 104.423 525.497 106.283 524.462C111.542 525.213 105.293 532.708 113.008 525.497C116.572 529.529 113.842 534.76 120.081 529.785C124.837 530.821 121.126 536.602 122.29 540.304C126.926 536.721 123.801 544.353 127.164 544.234C126.816 546.662 127.549 548.926 127.164 551.354C129.693 553.452 128.273 559.472 131.342 554.102C133.853 554.414 133.175 566.014 133.734 568.029C133.75 567.741 133.848 567.463 134.016 567.228C134.184 566.993 134.415 566.81 134.682 566.701C134.95 566.592 135.243 566.561 135.527 566.611C135.812 566.661 136.076 566.791 136.29 566.985C136.29 573.115 139.955 577.164 141.274 582.561C143.785 585.035 142.438 580.729 143.831 580.133C146.891 578.74 146.717 591.806 147.303 593.877C151.71 594.335 148.586 600.355 150.437 603.039C153.68 603.232 153.241 611.478 151.949 611.478C151.949 622.794 135.539 619.129 132.808 625.936C134.311 626.514 135.704 624.773 136.748 626.285C130.71 632.295 135.291 630.866 139.497 627.668C142.979 629.629 137.444 632.185 138.104 631.947C148.037 628.252 158.603 626.561 169.192 626.972C173.481 627.137 172.161 615.061 173.49 615.061C173.49 610.873 174.598 614.584 176.238 613.558C179.253 611.725 176.724 605.101 178.676 601.308L181.58 598.412L181.928 587.546C182.414 585.246 178.382 579.84 184.017 584.65C183.898 577.009 178.52 572.537 180.536 564.3C181.452 563.952 181.379 567.571 183.11 569.083C183.394 570.577 184.943 578.502 185.859 578.905C185.942 578.062 185.474 575.323 186.555 575.323L187.6 565.84C189.515 565.84 186.83 557.593 187.252 555.669C192.603 553.663 194.582 569.981 192.932 569.413C193.62 578.933 195.141 574.975 201.756 575.653C203.13 575.79 202.764 570.228 205.824 572.583C207.785 574.095 207.657 574.48 209.489 575.653C210.185 576.083 210.717 571.071 211.028 570.906C216.443 567.819 213.347 584.65 220.777 572.831C222.5 570.082 224.268 576.285 227.191 576.807C228.419 577.018 230.004 576.285 231.305 575.955C236.234 574.681 236.198 585.777 237.719 573.536C240.358 574.736 241.64 580.179 242.749 577.503C244.508 573.243 239.854 565.94 243.097 562.01C246.762 561.258 251.912 596.076 251.912 581.663C251.912 566.637 259.022 586.886 260.588 588.911C260.588 582.845 265.756 586.281 264.876 590.642C265.417 595.682 268.496 603.122 272.326 606.063L273.7 597.001C278.281 598.394 282.148 607.153 282.707 610.681C282.648 612.001 282.337 613.298 281.79 614.502C279.646 619.349 268.175 621.41 266.718 628.667C267.735 627.65 270.704 626.541 271.703 626.935C271.492 628.099 271.171 629.803 269.962 630.408C273.425 630.408 274.14 626.385 274.14 632.24C278.721 630.17 284.374 630.728 289.606 630.243C295.525 625.038 304.953 618.112 310.753 612.907C313.08 604.606 301.27 594.335 302.195 585.484ZM86.1527 495.527C84.705 495.188 89.0297 485.521 91.9434 494.244C92.768 498.257 93.6751 497.286 86.1527 495.527ZM114.556 467.049C115.473 465.932 116.545 465.153 117.122 467.883C117.369 469.074 119.367 467.517 119.999 468.03C120.814 468.69 120.64 470.705 120.246 472.171C119.852 473.637 118.066 476.12 116.884 476.12C114.786 476.12 113.961 474.224 113.649 472.052C113.466 470.879 112.797 469.065 114.556 467.049ZM121.291 517.251C119.266 517.251 117.498 516.71 117.479 519.202C117.424 524.746 111.395 519.367 111.414 523.316C111.414 524.086 110.736 524.178 110.443 523.674C109.37 521.768 107.153 521.786 105.238 521.447C101.353 520.769 102.37 517.095 104.615 518.359C105.101 518.625 106.631 519.615 106.933 519.688C110.067 520.494 110.103 519.083 110.598 517.269C110.974 515.812 112.513 517.269 112.898 518.24C113.503 519.807 115.005 520.073 115.409 519.862C116.068 519.468 115.409 517.452 115.409 516.197C115.409 513.833 117.369 514.621 118.771 514.85C121.859 515.336 122.665 515.208 125.057 514.401C124.388 516.499 123.27 517.251 121.273 517.251H121.291ZM129.537 572.427C128.035 572.427 130.252 567.37 130.279 567.159C130.847 562.578 131.7 563.98 126.367 565.198C124.534 562.266 127.448 560.425 128.062 557.868C123.426 558.528 125.249 555.596 125.075 554.203C124.773 551.638 127.155 547.313 123.646 545.865C120.329 548.193 117.873 549.191 114.309 551.519C110.992 554.212 105.064 555.458 101.866 558.647C95.8466 561.222 94.8937 568.194 91.2104 572.968C91.5769 575.662 89.4879 576.633 88.6266 578.603C87.2797 583.01 84.0453 586.244 82.9458 590.652C82.4602 591.999 82.5793 593.95 81.4798 594.811C80.7377 598.614 84.0362 601.454 83.7888 603.415C85.3922 602.682 83.7888 600.996 85.3556 600.016C88.6724 598.669 87.1881 603.415 88.7091 604.148C89.3229 602.682 88.9015 599.64 90.624 599.274C91.1096 600.373 93.1804 602.508 92.4565 604.093C94.9121 603.974 94.9121 602.013 95.9016 600.3C96.6346 593.813 103.479 592.695 104.221 586.208C112.018 576.486 107.831 586.455 109.132 585.466L115.894 580.325L118.102 579.959C119.468 579.73 117.58 583.752 117.369 584C120.686 583.019 124.37 581.92 126.706 579.098C127.32 579.992 127.581 581.082 127.439 582.158C127.274 583.175 138.672 572.427 129.501 572.427H129.537Z" fill="#E1E1E1"/>
<path d="M120.229 472.171C119.835 473.673 118.049 476.12 116.867 476.12C114.768 476.12 113.944 474.223 113.632 472.051C113.467 470.879 112.798 469.064 114.548 467.049C115.465 465.931 116.537 465.152 117.114 467.883C117.361 469.074 119.359 467.516 119.991 468.029C120.797 468.689 120.623 470.705 120.229 472.171Z" fill="black"/>
<path d="M224.444 410.279H229.896V486.208H172.566C167.124 486.208 164.054 483.313 163.404 480.079C163.326 479.581 163.283 479.079 163.275 478.576V403.764C163.55 400.31 166.812 396.947 173.143 396.682L225.177 396.737L223.995 398.569C222.998 400.245 222.472 402.158 222.472 404.108C222.472 406.058 222.998 407.971 223.995 409.647L224.444 410.315V410.279Z" fill="black"/>
<path d="M185.887 472.043V477.54H191.384L185.887 472.043ZM185.887 418.9V424.398L191.384 418.9H185.887ZM214.813 444.922V442.815H205.879V436.538H210.461V434.431H205.879V430.271H203.763V434.468H199.182V436.575H203.763V442.842H194.82V444.959H203.763V454.753L198.669 451.821V453.938L203.763 456.861V466.747H205.879V458.125L210.965 461.057V458.941L205.879 456.018V445.023H214.813V444.922ZM215.729 418.9L221.227 424.398V418.9H215.729ZM214.813 444.922V442.815H205.879V436.538H210.461V434.431H205.879V430.271H203.763V434.468H199.182V436.575H203.763V442.842H194.82V444.959H203.763V454.753L198.669 451.821V453.938L203.763 456.861V466.747H205.879V458.125L210.965 461.057V458.941L205.879 456.018V445.023H214.813V444.922ZM214.007 418.9H193.079L185.887 426.056V470.33L187.82 472.254L193.079 477.495H214.007L221.199 470.33V426.056L214.007 418.9ZM215.995 446.104H207.098V455.266L212.183 458.198V463.036L207.098 460.132V467.929H202.618V457.548L197.523 454.616V449.778L202.618 452.71V446.141H193.675V441.633H202.618V437.72H198.036V433.249H202.618V429.052H207.098V433.249H211.679V437.72H207.098V441.633H216.032V446.104H215.995ZM205.916 436.538H210.497V434.431H205.916V430.271H203.8V434.468H199.218V436.575H203.8V442.842H194.82V444.959H203.763V454.753L198.669 451.821V453.938L203.763 456.861V466.747H205.879V458.125L210.965 461.057V458.941L205.879 456.018V445.023H214.813V442.915H205.879V436.639L205.916 436.538ZM215.72 477.504H221.217V472.006L215.72 477.504ZM221.217 477.504V472.006L215.72 477.504H221.217ZM193.098 418.864L185.887 426.056V470.33L187.82 472.254L193.079 477.495H214.007L221.199 470.33V426.056L214.007 418.891H193.079L193.098 418.864ZM216.004 446.067H207.098V455.23L212.183 458.162V463L207.098 460.132V467.929H202.618V457.548L197.523 454.616V449.778L202.618 452.71V446.141H193.675V441.633H202.618V437.72H198.036V433.249H202.618V429.052H207.098V433.249H211.679V437.72H207.098V441.633H216.032V446.104L216.004 446.067ZM215.702 418.864L221.199 424.361V418.864H215.702ZM205.889 436.502H210.47V434.394H205.889V430.271H203.772V434.468H199.191V436.575H203.772V442.842H194.82V444.959H203.763V454.753L198.669 451.821V453.938L203.763 456.861V466.747H205.879V458.125L210.965 461.057V458.941L205.879 456.018V445.023H214.813V442.915H205.879V436.639L205.889 436.502ZM185.896 418.864V424.361L191.394 418.864H185.896ZM185.896 477.504H191.394L185.896 472.006V477.504ZM178.392 411.424V484.99H228.712V411.46H178.383L178.392 411.424ZM184.714 478.686V417.755H222.39V478.722H184.705L184.714 478.686ZM221.208 477.504V472.006L215.711 477.504H221.208ZM193.089 418.864L185.887 426.056V470.33L187.82 472.254L193.079 477.495H214.007L221.199 470.33V426.056L214.007 418.891H193.079L193.089 418.864ZM215.995 446.067H207.098V455.23L212.183 458.162V463L207.098 460.132V467.929H202.618V457.548L197.523 454.616V449.778L202.618 452.71V446.141H193.675V441.633H202.618V437.72H198.036V433.249H202.618V429.052H207.098V433.249H211.679V437.72H207.098V441.633H216.032V446.104L215.995 446.067ZM221.199 424.361V418.864H215.702L221.199 424.361ZM205.879 436.502H210.461V434.394H205.879V430.271H203.763V434.468H199.182V436.575H203.763V442.842H194.82V444.959H203.763V454.753L198.669 451.821V453.938L203.763 456.861V466.747H205.879V458.125L210.965 461.057V458.941L205.879 456.018V445.023H214.813V442.915H205.879V436.639V436.502ZM185.887 418.864V424.361L191.384 418.864H185.887ZM185.887 477.504H191.384L185.887 472.006V477.504ZM185.887 472.006V477.504H191.384L185.887 472.006ZM185.887 418.864V424.361L191.384 418.864H185.887ZM214.813 444.885V442.778H205.879V436.502H210.461V434.394H205.879V430.271H203.763V434.468H199.182V436.575H203.763V442.842H194.82V444.959H203.763V454.753L198.669 451.821V453.938L203.763 456.861V466.747H205.879V458.125L210.965 461.057V458.941L205.879 456.018V445.023H214.813V444.885ZM215.729 418.864L221.227 424.361V418.864H215.729ZM214.813 444.885V442.778H205.879V436.502H210.461V434.394H205.879V430.271H203.763V434.468H199.182V436.575H203.763V442.842H194.82V444.959H203.763V454.753L198.669 451.821V453.938L203.763 456.861V466.747H205.879V458.125L210.965 461.057V458.941L205.879 456.018V445.023H214.813V444.885ZM214.007 418.864H193.079L185.887 426.056V470.33L187.82 472.254L193.079 477.495H214.007L221.199 470.33V426.056L214.007 418.864ZM215.995 446.067H207.098V455.23L212.183 458.162V463L207.098 460.132V467.929H202.618V457.548L197.523 454.616V449.778L202.618 452.71V446.141H193.675V441.633H202.618V437.72H198.036V433.249H202.618V429.052H207.098V433.249H211.679V437.72H207.098V441.633H216.032V446.104L215.995 446.067ZM205.916 436.502H210.497V434.394H205.916V430.271H203.8V434.468H199.218V436.575H203.8V442.842H194.82V444.959H203.763V454.753L198.669 451.821V453.938L203.763 456.861V466.747H205.879V458.125L210.965 461.057V458.941L205.879 456.018V445.023H214.813V442.915H205.879V436.639L205.916 436.502ZM215.72 477.467H221.217V471.97L215.72 477.467ZM215.72 477.467H221.217V471.97L215.72 477.467ZM214.804 444.885V442.778H205.87V436.502H210.452V434.394H205.87V430.271H203.754V434.468H199.173V436.575H203.754V442.842H194.82V444.959H203.763V454.753L198.669 451.821V453.938L203.763 456.861V466.747H205.879V458.125L210.965 461.057V458.941L205.879 456.018V445.023H214.813L214.804 444.885ZM214.804 444.885V442.778H205.87V436.502H210.452V434.394H205.87V430.271H203.754V434.468H199.173V436.575H203.754V442.842H194.82V444.959H203.763V454.753L198.669 451.821V453.938L203.763 456.861V466.747H205.879V458.125L210.965 461.057V458.941L205.879 456.018V445.023H214.813L214.804 444.885ZM213.997 418.864H193.079L185.887 426.056V470.33L187.82 472.254L193.079 477.495H214.007L221.199 470.33V426.056L213.997 418.864ZM215.986 446.067H207.098V455.23L212.183 458.162V463L207.098 460.132V467.929H202.618V457.548L197.523 454.616V449.778L202.618 452.71V446.141H193.675V441.633H202.618V437.72H198.036V433.249H202.618V429.052H207.098V433.249H211.679V437.72H207.098V441.633H216.032V446.104L215.986 446.067ZM205.907 436.502H210.488V434.394H205.907V430.271H203.79V434.468H199.209V436.575H203.79V442.842H194.82V444.959H203.763V454.753L198.669 451.821V453.938L203.763 456.861V466.747H205.879V458.125L210.965 461.057V458.941L205.879 456.018V445.023H214.813V442.915H205.879V436.639L205.907 436.502ZM215.72 418.864L221.217 424.361V418.864H215.72ZM185.914 418.864V424.361L191.412 418.864H185.914ZM185.914 472.006V477.504H191.412L185.914 472.006ZM214.84 444.922V442.815H205.907V436.538H210.488V434.431H205.907V430.271H203.79V434.468H199.209V436.575H203.79V442.842H194.82V444.959H203.763V454.753L198.669 451.821V453.938L203.763 456.861V466.747H205.879V458.125L210.965 461.057V458.941L205.879 456.018V445.023H214.813L214.84 444.922ZM214.84 444.922V442.815H205.907V436.538H210.488V434.431H205.907V430.271H203.79V434.468H199.209V436.575H203.79V442.842H194.82V444.959H203.763V454.753L198.669 451.821V453.938L203.763 456.861V466.747H205.879V458.125L210.965 461.057V458.941L205.879 456.018V445.023H214.813L214.84 444.922ZM215.757 477.504H221.254V472.006L215.757 477.504ZM214.84 444.922V442.815H205.907V436.538H210.488V434.431H205.907V430.271H203.79V434.468H199.209V436.575H203.79V442.842H194.82V444.959H203.763V454.753L198.669 451.821V453.938L203.763 456.861V466.747H205.879V458.125L210.965 461.057V458.941L205.879 456.018V445.023H214.813L214.84 444.922ZM214.84 444.922V442.815H205.907V436.538H210.488V434.431H205.907V430.271H203.79V434.468H199.209V436.575H203.79V442.842H194.82V444.959H203.763V454.753L198.669 451.821V453.938L203.763 456.861V466.747H205.879V458.125L210.965 461.057V458.941L205.879 456.018V445.023H214.813L214.84 444.922ZM214.034 418.9H193.079L185.887 426.056V470.33L187.82 472.254L193.079 477.495H214.007L221.199 470.33V426.056L214.034 418.9ZM216.022 446.104H207.098V455.266L212.183 458.198V463.036L207.098 460.132V467.929H202.618V457.548L197.523 454.616V449.778L202.618 452.71V446.141H193.675V441.633H202.618V437.72H198.036V433.249H202.618V429.052H207.098V433.249H211.679V437.72H207.098V441.633H216.032V446.104H216.022ZM205.944 436.538H210.525V434.431H205.944V430.271H203.827V434.468H199.246V436.575H203.827V442.842H194.82V444.959H203.763V454.753L198.669 451.821V453.938L203.763 456.861V466.747H205.879V458.125L210.965 461.057V458.941L205.879 456.018V445.023H214.813V442.915H205.879V436.639L205.944 436.538ZM215.757 418.9L221.254 424.398V418.9H215.757ZM185.951 418.9V424.398L191.449 418.9H185.951ZM185.951 472.043V477.54H191.449L185.951 472.043ZM185.951 418.9V424.398L191.449 418.9H185.951ZM214.877 444.922V442.815H205.944V436.538H210.525V434.431H205.944V430.271H203.827V434.468H199.246V436.575H203.827V442.842H194.82V444.959H203.763V454.753L198.669 451.821V453.938L203.763 456.861V466.747H205.879V458.125L210.965 461.057V458.941L205.879 456.018V445.023H214.813L214.877 444.922ZM214.877 444.922V442.815H205.944V436.538H210.525V434.431H205.944V430.271H203.827V434.468H199.246V436.575H203.827V442.842H194.82V444.959H203.763V454.753L198.669 451.821V453.938L203.763 456.861V466.747H205.879V458.125L210.965 461.057V458.941L205.879 456.018V445.023H214.813L214.877 444.922ZM214.071 418.9H193.079L185.887 426.056V470.33L187.82 472.254L193.079 477.495H214.007L221.199 470.33V426.056L214.071 418.9ZM216.059 446.104H207.098V455.266L212.183 458.198V463.036L207.098 460.132V467.929H202.618V457.548L197.523 454.616V449.778L202.618 452.71V446.141H193.675V441.633H202.618V437.72H198.036V433.249H202.618V429.052H207.098V433.249H211.679V437.72H207.098V441.633H216.032V446.104H216.059ZM205.98 436.538H210.562V434.431H205.98V430.271H203.864V434.468H199.282V436.575H203.864V442.842H194.82V444.959H203.763V454.753L198.669 451.821V453.938L203.763 456.861V466.747H205.879V458.125L210.965 461.057V458.941L205.879 456.018V445.023H214.813V442.915H205.879V436.639L205.98 436.538ZM215.793 418.9L221.291 424.398V418.9H215.793ZM215.793 477.54H221.291V472.043L215.793 477.54ZM185.997 472.043V477.54H191.494L185.997 472.043Z" fill="#C8A064"/>
<path d="M173.361 397.863H223.004C222.285 398.96 221.787 400.186 221.538 401.473H180.829V402.518H221.373C221.224 403.787 221.261 405.071 221.483 406.329H183.916V407.365H221.757C222.026 408.398 222.466 409.38 223.059 410.269H173.361C162.1 410.269 162.055 397.781 173.361 397.854V397.863Z" fill="white"/>
<path d="M190.303 370.266L182.36 349.613L184.916 350.236C192.293 352.063 200.005 352.063 207.382 350.236L209.939 349.613L202.041 370.266L221.474 362.615L220.842 365.208C219.007 372.559 219.007 380.249 220.842 387.601L221.474 390.185L203.25 382.992L210.03 400.099L207.437 399.466C200.06 397.639 192.348 397.639 184.971 399.466L182.378 400.099L189.158 382.992L170.879 390.194L171.511 387.61C173.344 380.258 173.344 372.569 171.511 365.217L170.879 362.624L190.303 370.266Z" fill="black"/>
<path d="M172.848 364.869L192.712 372.694L184.631 351.62C192.224 353.503 200.163 353.503 207.757 351.62L199.675 372.694L219.54 364.869C217.649 372.437 217.649 380.354 219.54 387.922L200.784 380.528L207.757 398.12C200.163 396.237 192.224 396.237 184.631 398.12L191.603 380.528L172.848 387.922C174.738 380.354 174.738 372.437 172.848 364.869Z" fill="#E1E1E1"/>
<path d="M173.197 411.461C168.9 411.461 165.995 409.93 164.493 407.851C164.487 408.678 164.542 409.505 164.658 410.324V410.599C164.81 411.323 165.11 412.007 165.537 412.61C165.964 413.214 166.509 413.724 167.141 414.109C168.749 415.064 170.594 415.547 172.464 415.501H177.201V411.461H173.197ZM172.501 416.592C170.423 416.632 168.376 416.089 166.591 415.025C165.75 414.502 165.034 413.801 164.493 412.972C164.487 413.791 164.542 414.609 164.658 415.419V415.685C164.81 416.408 165.11 417.092 165.537 417.696C165.964 418.299 166.509 418.809 167.141 419.194C168.754 420.133 170.597 420.606 172.464 420.559H177.201V416.555H172.464L172.501 416.592ZM172.501 421.686C170.42 421.725 168.37 421.183 166.582 420.119C165.748 419.591 165.036 418.891 164.493 418.067V439.562C164.536 439.99 164.603 440.415 164.694 440.836C164.851 441.557 165.152 442.24 165.578 442.843C166.005 443.446 166.549 443.957 167.177 444.345C168.788 445.294 170.631 445.776 172.501 445.738H177.238V421.677H172.464L172.501 421.686ZM167.388 439.599H166.38V423.903H167.388V439.599ZM171.053 440.689H170.045V424.994H171.053V440.716V440.689ZM174.718 441.688H173.719V425.992H174.718V441.688ZM172.565 446.819C170.488 446.862 168.44 446.323 166.655 445.261C165.816 444.732 165.101 444.029 164.557 443.199C164.551 444.021 164.606 444.842 164.722 445.655V445.93C164.876 446.653 165.175 447.337 165.602 447.94C166.029 448.543 166.574 449.053 167.205 449.439C168.801 450.364 170.62 450.833 172.464 450.795H177.201V446.782H172.464L172.565 446.819ZM172.565 451.913C170.486 451.951 168.437 451.412 166.646 450.355C165.812 449.824 165.1 449.121 164.557 448.294V467.535C164.565 468.148 164.614 468.761 164.703 469.368L164.758 469.798C164.915 470.52 165.216 471.203 165.643 471.806C166.069 472.409 166.613 472.919 167.241 473.307C168.852 474.257 170.695 474.739 172.565 474.7H177.302V451.904H172.464L172.565 451.913ZM167.452 469.954H166.444V454.268H167.452V469.954ZM171.117 471.044H170.109V455.376H171.117V471.044ZM174.782 472.043H173.783V456.357H174.782V472.043ZM172.629 475.781C170.552 475.825 168.505 475.285 166.719 474.224C165.88 473.695 165.165 472.992 164.621 472.162C164.615 472.984 164.67 473.804 164.786 474.618V474.893C164.943 475.614 165.243 476.297 165.67 476.9C166.097 477.503 166.64 478.014 167.269 478.402C168.88 479.351 170.723 479.833 172.592 479.795H177.329V475.781H172.464H172.629ZM172.629 480.876C170.551 480.925 168.502 480.385 166.719 479.318C165.88 478.789 165.165 478.086 164.621 477.257V478.594C164.628 479.03 164.668 479.465 164.74 479.895C165.51 483.56 169.321 485.035 172.73 485.026H177.366V480.876H172.464H172.629Z" fill="#C8A064"/>
<path d="M185.107 76.177C185.102 74.2513 185.668 72.3673 186.734 70.7635C187.8 69.1597 189.318 67.9083 191.095 67.1676C192.873 66.4269 194.83 66.2302 196.719 66.6026C198.609 66.9749 200.345 67.8995 201.709 69.2592C203.072 70.619 204.002 72.3528 204.38 74.2411C204.757 76.1293 204.566 78.0872 203.831 79.8669C203.095 81.6465 201.848 83.1678 200.247 84.2383C198.646 85.3087 196.764 85.8801 194.838 85.8801C192.261 85.8825 189.789 84.8619 187.965 83.0425C186.14 81.2231 185.112 78.7537 185.107 76.177Z" fill="black"/>
<path d="M312.75 168.865C311.986 168.219 311.154 167.659 310.267 167.197C309.391 166.732 308.47 166.358 307.518 166.079C306.108 165.66 304.677 165.317 303.23 165.053C304.012 163.538 304.751 162.011 305.447 160.472C306.299 158.64 307.087 156.734 307.811 154.819C310.089 148.872 311.693 142.688 312.594 136.384C312.857 134.46 313.049 132.529 313.171 130.593C313.365 127.44 313.344 124.278 313.107 121.128C312.871 118.014 312.405 114.921 311.714 111.874C311.206 109.627 310.567 107.412 309.8 105.24C307.881 99.706 305.098 94.5105 301.553 89.8475C300.321 88.2449 298.996 86.7152 297.586 85.2662L297.265 84.9272C293.087 80.663 288.217 77.1375 282.862 74.5003C281.285 73.7058 279.667 72.9962 278.015 72.3746C272.342 70.2374 266.382 68.9589 260.331 68.5813L259.323 68.3889C257.043 68.2744 254.759 68.2744 252.479 68.3889C247.221 68.6572 242.003 69.4491 236.903 70.7528C234.52 71.3484 232.156 72.0447 229.829 72.8327C226.039 74.1198 222.325 75.6218 218.706 77.3315C218.706 76.9467 218.706 76.5618 218.706 76.177C218.694 70.939 216.956 65.851 213.761 61.7003C210.566 57.5496 206.092 54.5676 201.031 53.2158V42.2208H209.974L217.606 54.0587H223.956V18.1784H217.606L209.965 29.9797H201.022V16.859L215.783 7.33V0H173.947V7.33L188.708 16.859V29.9797H179.765L172.124 18.1876H165.765V54.0587H172.124L179.765 42.2574H188.708V53.2524C183.646 54.6025 179.17 57.5838 175.973 61.7347C172.776 65.8855 171.037 70.9745 171.024 76.2137C171.024 76.5985 171.024 76.9833 171.024 77.3682C167.402 75.6584 163.685 74.1563 159.892 72.8694C157.558 72.0814 155.198 71.3881 152.809 70.7895C147.71 69.4814 142.491 68.6894 137.233 68.4255C134.956 68.311 132.675 68.311 130.398 68.4255L129.408 68.4897C123.35 68.8655 117.382 70.1505 111.706 72.3013C110.065 72.9181 108.459 73.6247 106.896 74.4178C101.537 77.0428 96.6608 80.5558 92.4742 84.8081L92.1352 85.1654C90.7381 86.6184 89.4228 88.1479 88.1953 89.7467C84.6559 94.4266 81.8733 99.6332 79.949 105.176C79.179 107.34 78.5335 109.545 78.0158 111.782C77.3177 114.84 76.8491 117.946 76.6139 121.073C76.3742 124.229 76.3498 127.397 76.5406 130.556C76.6597 132.481 76.8521 134.405 77.1087 136.311C78.0139 142.65 79.6274 148.867 81.919 154.846C82.6398 156.746 83.4216 158.618 84.2646 160.463C84.9609 162.02 85.7123 163.56 86.4911 165.044C85.0526 165.31 83.6232 165.658 82.1939 166.07C80.2925 166.649 78.5175 167.582 76.9621 168.819C75.4961 170.029 74.4424 171.568 74.6165 173.144C74.873 175.462 77.466 176.461 79.4268 176.919C82.873 177.715 86.1053 179.25 88.9008 181.417C94.0868 185.348 98.0633 191.231 101.004 196.92C104.165 203.256 106.877 209.805 109.122 216.519C112.109 224.976 114.812 233.809 118.395 242.018C120.126 246.249 123.314 249.721 127.383 251.804C133.999 255.359 143.097 256.293 150.482 256.577C180.034 257.701 209.601 257.701 239.184 256.577C246.514 256.293 255.677 255.359 262.283 251.804C266.338 249.709 269.512 246.236 271.235 242.009C274.817 233.763 277.511 224.976 280.507 216.51C282.758 209.795 285.477 203.246 288.643 196.911C291.612 191.221 295.561 185.339 300.747 181.408C303.571 179.255 306.828 177.739 310.294 176.965C316.561 175.489 316.067 171.705 312.75 168.865ZM184.136 76.177C184.136 73.5282 185.12 70.9739 186.897 69.0097C188.674 67.0455 191.118 65.8115 193.753 65.5472C196.389 65.2829 199.029 66.0071 201.16 67.5793C203.292 69.1515 204.764 71.4595 205.29 74.0556C205.816 76.6516 205.359 79.3505 204.007 81.6286C202.656 83.9066 200.506 85.6014 197.976 86.384C195.445 87.1665 192.714 86.9811 190.312 85.8637C187.911 84.7463 186.01 82.7766 184.979 80.3368C184.958 80.2772 184.934 80.219 184.905 80.1627C184.397 78.8955 184.135 77.5426 184.136 76.177Z" fill="black"/>
<path d="M311.926 121.156C310.909 107.852 305.815 95.244 296.396 85.6417C286.491 75.563 273.297 70.2854 259.242 69.5707C245.498 68.8835 231.974 72.4477 219.568 78.211L204.432 135.935C205.959 136.727 207.402 137.672 208.738 138.757L223.655 80.7123C285.74 53.7013 329.024 106.551 297.725 164.494C299.154 164.523 300.58 164.642 301.994 164.852C308.967 151.428 313.081 136.329 311.926 121.156ZM170.146 78.211C157.74 72.4477 144.179 68.8744 130.472 69.5707C116.417 70.2854 103.232 75.5355 93.3183 85.6417C83.8993 95.2899 78.8232 107.861 77.797 121.156C76.6334 136.329 80.7565 151.392 87.72 164.842C89.1336 164.626 90.56 164.503 91.9898 164.476C60.6907 106.532 103.974 53.6921 166.059 80.694L180.976 138.738C182.311 137.656 183.754 136.713 185.282 135.926L170.146 78.211Z" fill="#786441"/>
<path d="M166.884 64.6139C166.889 62.9552 166.402 61.3323 165.484 59.9509C164.566 58.5695 163.258 57.4919 161.727 56.8547C160.195 56.2174 158.509 56.0492 156.882 56.3715C155.255 56.6938 153.76 57.4919 152.588 58.6648C151.415 59.8376 150.617 61.3323 150.294 62.9594C149.972 64.5864 150.14 66.2725 150.778 67.8039C151.415 69.3353 152.492 70.6429 153.874 71.561C155.255 72.4791 156.878 72.9664 158.537 72.9609C160.754 72.9634 162.881 72.0856 164.451 70.5205C166.022 68.9554 166.906 66.8309 166.911 64.6139H166.884Z" fill="black"/>
<path d="M165.701 64.6136C165.707 63.1887 165.289 61.7943 164.501 60.6073C163.713 59.4203 162.589 58.4941 161.274 57.9463C159.959 57.3985 158.51 57.2538 157.112 57.5304C155.715 57.8071 154.431 58.4927 153.423 59.5002C152.416 60.5078 151.73 61.7919 151.453 63.1896C151.177 64.5874 151.321 66.0359 151.869 67.3513C152.417 68.6666 153.343 69.7897 154.53 70.5779C155.717 71.3662 157.112 71.7841 158.536 71.7786C160.44 71.7811 162.267 71.0278 163.615 69.6844C164.964 68.3409 165.724 66.5171 165.729 64.6136H165.701Z" fill="#96C8C8"/>
<path d="M141.661 61.0407C141.667 59.3836 141.18 57.7621 140.264 56.3815C139.347 55.0009 138.042 53.9233 136.513 53.2849C134.983 52.6466 133.299 52.4763 131.673 52.7956C130.047 53.1149 128.552 53.9094 127.378 55.0786C126.204 56.2477 125.403 57.739 125.076 59.3637C124.75 60.9883 124.913 62.6733 125.544 64.2053C126.176 65.7373 127.248 67.0474 128.624 67.97C130.001 68.8925 131.62 69.3859 133.277 69.3877C134.376 69.3901 135.464 69.1761 136.48 68.758C137.496 68.3398 138.42 67.7256 139.198 66.9505C139.977 66.1754 140.595 65.2546 141.017 64.2406C141.44 63.2266 141.659 62.1392 141.661 61.0407Z" fill="black"/>
<path d="M140.477 61.041C140.481 59.6176 140.062 58.2252 139.274 57.04C138.486 55.8548 137.363 54.9301 136.05 54.3829C134.736 53.8357 133.289 53.6906 131.892 53.9661C130.496 54.2415 129.213 54.9251 128.205 55.9303C127.197 56.9354 126.51 58.217 126.231 59.6127C125.952 61.0084 126.094 62.4555 126.638 63.7709C127.181 65.0862 128.103 66.2106 129.286 67.0018C130.47 67.7929 131.861 68.2152 133.284 68.2152C134.228 68.2164 135.162 68.0318 136.034 67.6719C136.906 67.312 137.699 66.7839 138.366 66.1177C139.034 65.4515 139.564 64.6603 139.927 63.7892C140.289 62.9182 140.476 61.9843 140.477 61.041Z" fill="#96C8C8"/>
<path d="M114.483 66.071C114.489 64.4135 114.002 62.7917 113.085 61.4109C112.169 60.0301 110.862 58.9524 109.333 58.3143C107.803 57.6763 106.118 57.5065 104.492 57.8265C102.866 58.1465 101.371 58.942 100.197 60.1121C99.023 61.2822 98.2227 62.7743 97.8973 64.3995C97.5719 66.0248 97.7362 67.71 98.3692 69.2419C99.0022 70.7737 100.076 72.0833 101.453 73.0047C102.831 73.9261 104.451 74.418 106.109 74.418C108.326 74.4204 110.453 73.5427 112.024 71.9776C113.594 70.4125 114.479 68.288 114.483 66.071Z" fill="black"/>
<path d="M113.301 66.0706C113.307 64.6469 112.889 63.2536 112.102 62.0672C111.315 60.8808 110.194 59.9546 108.88 59.406C107.566 58.8574 106.119 58.711 104.722 58.9855C103.325 59.2599 102.041 59.9427 101.032 60.9475C100.024 61.9523 99.336 63.2338 99.0562 64.6298C98.7765 66.0258 98.9173 67.4734 99.4609 68.7892C100.004 70.1051 100.926 71.2301 102.11 72.0216C103.293 72.8132 104.685 73.2357 106.109 73.2357C108.012 73.2381 109.839 72.4849 111.187 71.1415C112.536 69.798 113.296 67.9742 113.301 66.0706Z" fill="#96C8C8"/>
<path d="M92.6141 82.3895C92.625 80.7312 92.1433 79.1071 91.2302 77.7229C90.317 76.3387 89.0135 75.2568 87.4848 74.6142C85.956 73.9717 84.271 73.7974 82.6431 74.1136C81.0153 74.4297 79.5179 75.2221 78.3409 76.3901C77.1638 77.5582 76.36 79.0494 76.0314 80.6748C75.7027 82.3001 75.864 83.9865 76.4948 85.5201C77.1256 87.0537 78.1975 88.3655 79.5746 89.2893C80.9518 90.213 82.5722 90.7072 84.2304 90.709C85.329 90.7114 86.4172 90.4974 87.4331 90.0793C88.449 89.6611 89.3725 89.0469 90.151 88.2718C90.9295 87.4967 91.5477 86.5759 91.9703 85.5619C92.3929 84.5479 92.6117 83.4605 92.6141 82.362V82.3895Z" fill="black"/>
<path d="M91.43 82.3896C91.4337 80.9663 91.0149 79.5739 90.2268 78.3886C89.4387 77.2034 88.3166 76.2787 87.0027 75.7315C85.6887 75.1843 84.242 75.0392 82.8455 75.3147C81.4491 75.5901 80.1658 76.2737 79.1581 77.2789C78.1503 78.284 77.4635 79.5656 77.1845 80.9613C76.9055 82.357 77.0468 83.8042 77.5907 85.1195C78.1345 86.4348 79.0564 87.5592 80.2396 88.3504C81.4228 89.1415 82.8141 89.5638 84.2375 89.5638C85.1808 89.565 86.1151 89.3804 86.9871 89.0205C87.8591 88.6607 88.6517 88.1325 89.3196 87.4664C89.9875 86.8002 90.5176 86.0089 90.8797 85.1379C91.2418 84.2668 91.4288 83.3329 91.43 82.3896Z" fill="#96C8C8"/>
<path d="M79.9951 106.386C80.0005 104.729 79.5142 103.108 78.5978 101.727C77.6813 100.347 76.3758 99.269 74.8466 98.6307C73.3173 97.9923 71.6331 97.822 70.0071 98.1413C68.381 98.4606 66.8862 99.2551 65.7119 100.424C64.5376 101.593 63.7366 103.085 63.4102 104.709C63.0838 106.334 63.2467 108.019 63.8783 109.551C64.5099 111.083 65.5819 112.393 66.9584 113.316C68.335 114.238 69.9543 114.732 71.6114 114.733C72.71 114.736 73.7982 114.522 74.8141 114.104C75.83 113.685 76.7535 113.071 77.532 112.296C78.3105 111.521 78.9287 110.6 79.3513 109.586C79.7739 108.572 79.9927 107.485 79.9951 106.386Z" fill="black"/>
<path d="M78.8226 106.386C78.8262 104.962 78.4075 103.57 77.6194 102.385C76.8312 101.2 75.7092 100.275 74.3952 99.7276C73.0813 99.1804 71.6345 99.0353 70.2381 99.3108C68.8417 99.5862 67.5584 100.27 66.5506 101.275C65.5429 102.28 64.8561 103.562 64.5771 104.957C64.298 106.353 64.4394 107.8 64.9832 109.116C65.5271 110.431 66.449 111.555 67.6322 112.346C68.8154 113.138 70.2067 113.56 71.63 113.56C72.5734 113.561 73.5077 113.377 74.3797 113.017C75.2517 112.657 76.0443 112.129 76.7122 111.462C77.38 110.796 77.9102 110.005 78.2723 109.134C78.6344 108.263 78.8214 107.329 78.8226 106.386Z" fill="#96C8C8"/>
<path d="M239.59 64.6137C239.597 62.9536 239.111 61.3288 238.194 59.9451C237.277 58.5614 235.969 57.4811 234.438 56.8412C232.906 56.2013 231.218 56.0306 229.59 56.3507C227.961 56.6708 226.463 57.4672 225.288 58.6392C224.112 59.8111 223.31 61.3057 222.985 62.9336C222.66 64.5614 222.825 66.2493 223.46 67.7832C224.094 69.3171 225.17 70.628 226.551 71.5497C227.932 72.4714 229.555 72.9625 231.215 72.9607C233.432 72.9632 235.559 72.0854 237.13 70.5203C238.7 68.9552 239.585 66.8307 239.59 64.6137Z" fill="black"/>
<path d="M238.407 64.6136C238.412 63.1899 237.995 61.7966 237.208 60.6102C236.421 59.4237 235.299 58.4976 233.986 57.949C232.672 57.4004 231.225 57.254 229.828 57.5284C228.431 57.8028 227.147 58.4857 226.138 59.4905C225.129 60.4953 224.441 61.7768 224.162 63.1728C223.882 64.5687 224.023 66.0163 224.566 67.3322C225.11 68.6481 226.032 69.773 227.215 70.5646C228.399 71.3561 229.79 71.7787 231.214 71.7787C233.118 71.7811 234.944 71.0279 236.293 69.6844C237.641 68.341 238.402 66.5172 238.407 64.6136Z" fill="#96C8C8"/>
<path d="M264.821 61.0407C264.827 59.3832 264.34 57.7614 263.423 56.3806C262.506 54.9998 261.2 53.9221 259.671 53.2841C258.141 52.646 256.456 52.4762 254.83 52.7963C253.204 53.1163 251.709 53.9117 250.535 55.0818C249.361 56.2519 248.561 57.744 248.235 59.3693C247.91 60.9945 248.074 62.6798 248.707 64.2116C249.34 65.7435 250.413 67.053 251.791 67.9744C253.169 68.8959 254.789 69.3877 256.447 69.3877C258.664 69.3902 260.791 68.5124 262.361 66.9473C263.932 65.3822 264.816 63.2577 264.821 61.0407Z" fill="black"/>
<path d="M263.631 61.041C263.635 59.6176 263.216 58.2252 262.428 57.04C261.64 55.8548 260.518 54.9301 259.204 54.3829C257.89 53.8357 256.443 53.6906 255.047 53.9661C253.65 54.2415 252.367 54.9251 251.359 55.9303C250.352 56.9354 249.665 58.217 249.386 59.6127C249.107 61.0084 249.248 62.4555 249.792 63.7709C250.336 65.0862 251.258 66.2106 252.441 67.0018C253.624 67.7929 255.015 68.2152 256.439 68.2152C257.382 68.2164 258.316 68.0318 259.188 67.6719C260.06 67.312 260.853 66.7839 261.521 66.1177C262.189 65.4515 262.719 64.6603 263.081 63.7892C263.443 62.9182 263.63 61.9843 263.631 61.041Z" fill="#96C8C8"/>
<path d="M291.988 66.0707C291.995 64.4107 291.51 62.7858 290.592 61.4021C289.675 60.0184 288.368 58.9381 286.836 58.2982C285.304 57.6584 283.617 57.4876 281.988 57.8077C280.359 58.1278 278.862 58.9243 277.686 60.0962C276.51 61.2681 275.709 62.7627 275.383 64.3906C275.058 66.0185 275.223 67.7063 275.858 69.2402C276.493 70.7741 277.569 72.085 278.949 73.0067C280.33 73.9285 281.953 74.4196 283.613 74.4178C285.831 74.4202 287.958 73.5424 289.528 71.9773C291.098 70.4122 291.983 68.2878 291.988 66.0707Z" fill="black"/>
<path d="M290.807 66.0706C290.812 64.6469 290.395 63.2536 289.608 62.0672C288.821 60.8808 287.7 59.9546 286.386 59.406C285.072 58.8574 283.625 58.711 282.228 58.9855C280.831 59.2599 279.547 59.9427 278.538 60.9475C277.53 61.9523 276.842 63.2338 276.562 64.6298C276.282 66.0258 276.423 67.4734 276.967 68.7892C277.51 70.1051 278.432 71.2301 279.616 72.0216C280.799 72.8132 282.191 73.2357 283.614 73.2357C285.518 73.2381 287.345 72.4849 288.693 71.1415C290.042 69.798 290.802 67.9742 290.807 66.0706Z" fill="#96C8C8"/>
<path d="M313.859 82.3892C313.872 80.728 313.391 79.1005 312.477 77.7132C311.563 76.3259 310.257 75.2414 308.726 74.5973C307.195 73.9531 305.507 73.7785 303.876 74.0954C302.245 74.4124 300.745 75.2066 299.567 76.3774C298.388 77.5482 297.584 79.0428 297.257 80.6714C296.929 82.3 297.092 83.9893 297.726 85.5248C298.36 87.0603 299.436 88.3728 300.818 89.2958C302.199 90.2187 303.823 90.7106 305.484 90.7088C307.701 90.7112 309.829 89.8335 311.399 88.2683C312.969 86.7032 313.854 84.5788 313.859 82.3617V82.3892Z" fill="black"/>
<path d="M312.678 82.3896C312.682 80.9663 312.263 79.5739 311.475 78.3886C310.687 77.2034 309.565 76.2787 308.251 75.7315C306.937 75.1843 305.49 75.0392 304.094 75.3147C302.697 75.5901 301.414 76.2737 300.406 77.2789C299.398 78.284 298.712 79.5656 298.433 80.9613C298.154 82.357 298.295 83.8042 298.839 85.1195C299.383 86.4348 300.304 87.5592 301.488 88.3504C302.671 89.1415 304.062 89.5638 305.486 89.5638C306.429 89.565 307.363 89.3804 308.235 89.0205C309.107 88.6607 309.9 88.1325 310.568 87.4664C311.236 86.8002 311.766 86.0089 312.128 85.1379C312.49 84.2668 312.677 83.3329 312.678 82.3896Z" fill="#96C8C8"/>
<path d="M326.476 106.386C326.481 104.729 325.995 103.107 325.078 101.726C324.161 100.345 322.855 99.2678 321.325 98.6298C319.795 97.9917 318.11 97.8219 316.484 98.142C314.858 98.462 313.363 99.2574 312.189 100.427C311.015 101.598 310.215 103.09 309.889 104.715C309.564 106.34 309.728 108.025 310.361 109.557C310.994 111.089 312.068 112.399 313.446 113.32C314.823 114.242 316.444 114.733 318.101 114.733C320.318 114.736 322.445 113.858 324.016 112.293C325.586 110.728 326.471 108.603 326.476 106.386Z" fill="black"/>
<path d="M325.295 106.386C325.299 104.962 324.88 103.57 324.092 102.385C323.304 101.2 322.182 100.275 320.868 99.7276C319.554 99.1804 318.107 99.0353 316.711 99.3108C315.314 99.5862 314.031 100.27 313.023 101.275C312.016 102.28 311.329 103.562 311.05 104.957C310.771 106.353 310.912 107.8 311.456 109.116C312 110.431 312.922 111.555 314.105 112.346C315.288 113.138 316.679 113.56 318.103 113.56C319.046 113.561 319.98 113.377 320.852 113.017C321.724 112.657 322.517 112.129 323.185 111.462C323.853 110.796 324.383 110.005 324.745 109.134C325.107 108.263 325.294 107.329 325.295 106.386Z" fill="#96C8C8"/>
<path d="M179.968 139.581L165.051 81.5461C152.774 76.2868 139.158 73.2999 125.79 75.1324C114.883 76.4662 104.739 81.422 96.9833 89.206C88.4163 97.947 83.8351 109.437 82.9097 121.531C81.7735 136.31 86.0799 151.053 93.0709 163.972L93.5198 164.467C98.5449 164.572 103.419 166.205 107.493 169.149C111.439 172.146 114.7 175.95 117.058 180.309C117.205 170.899 118.387 160.536 122.006 152.189C124.562 146.307 128.942 140.278 135.75 139.242C142.558 138.207 148.577 142.495 152.902 147.214C158.555 153.408 162.669 161.755 165.592 169.863C167.956 155.533 173.344 145.436 179.968 139.581Z" fill="#DC231E"/>
<path d="M209.746 139.581L224.663 81.5461C236.94 76.2868 250.556 73.2999 263.924 75.1324C274.831 76.4655 284.975 81.4214 292.731 89.206C301.298 97.947 305.879 109.437 306.804 121.531C307.931 136.31 303.634 151.053 296.634 163.972L296.185 164.467C291.164 164.581 286.297 166.22 282.231 169.167C278.283 172.162 275.021 175.967 272.665 180.327C272.518 170.917 271.336 160.554 267.717 152.207C265.161 146.325 260.781 140.296 253.973 139.261C247.166 138.225 241.146 142.513 236.821 147.232C231.168 153.426 227.054 161.773 224.131 169.882C221.767 155.542 216.38 145.445 209.755 139.591L209.746 139.581Z" fill="#DC231E"/>
<path d="M194.857 66.4831C192.938 66.4885 191.065 67.0624 189.473 68.1323C187.88 69.2022 186.641 70.7201 185.911 72.4941C185.181 74.2681 184.993 76.2186 185.372 78.0993C185.75 79.9799 186.677 81.7063 188.036 83.0602C189.395 84.414 191.125 85.3347 193.007 85.7059C194.889 86.077 196.839 85.8819 198.61 85.1453C200.381 84.4087 201.895 83.1636 202.958 81.5674C204.022 79.9711 204.589 78.0953 204.587 76.177C204.58 73.6019 203.551 71.1349 201.727 69.3174C199.903 67.5 197.432 66.4806 194.857 66.4831ZM194.857 66.4831C192.938 66.4885 191.065 67.0624 189.473 68.1323C187.88 69.2022 186.641 70.7201 185.911 72.4941C185.181 74.2681 184.993 76.2186 185.372 78.0993C185.75 79.9799 186.677 81.7063 188.036 83.0602C189.395 84.414 191.125 85.3347 193.007 85.7059C194.889 86.077 196.839 85.8819 198.61 85.1453C200.381 84.4087 201.895 83.1636 202.958 81.5674C204.022 79.9711 204.589 78.0953 204.587 76.177C204.58 73.6019 203.551 71.1349 201.727 69.3174C199.903 67.5 197.432 66.4806 194.857 66.4831ZM217.506 76.177C217.498 70.2692 215.178 64.5992 211.043 60.38C206.908 56.1608 201.286 53.7274 195.379 53.6006C196.91 53.7351 198.33 54.4553 199.343 55.611C200.355 56.7666 200.883 58.2686 200.816 59.8038C200.749 61.3391 200.091 62.7891 198.981 63.8516C197.871 64.9142 196.393 65.5073 194.857 65.5073C193.32 65.5073 191.843 64.9142 190.732 63.8516C189.622 62.7891 188.965 61.3391 188.898 59.8038C188.83 58.2686 189.358 56.7666 190.371 55.611C191.384 54.4553 192.804 53.7351 194.335 53.6006C188.428 53.7274 182.806 56.1608 178.67 60.38C174.535 64.5992 172.215 70.2692 172.207 76.177C172.201 79.0726 172.758 81.9417 173.847 84.6248C173.585 83.9437 173.451 83.2198 173.453 82.4899C173.455 81.1157 173.932 79.7843 174.802 78.7208C175.672 77.6573 176.883 76.927 178.23 76.6533C179.577 76.3797 180.977 76.5794 182.193 77.2189C183.41 77.8583 184.368 78.8982 184.906 80.1627C183.821 77.5201 183.826 74.5551 184.921 71.9166C186.017 69.278 188.112 67.1807 190.75 66.0836C193.388 64.9865 196.353 64.9789 198.996 66.0626C201.64 67.1463 203.746 69.2329 204.855 71.8658C205.963 74.4988 205.984 77.4637 204.912 80.1118C203.84 82.7598 201.762 84.8754 199.134 85.9955C196.506 87.1156 193.541 87.1491 190.889 86.0886C188.236 85.0281 186.111 82.9599 184.98 80.3368C185.422 81.7608 185.314 83.2987 184.679 84.6475C184.043 85.9963 182.925 87.0581 181.546 87.6238C180.166 88.1894 178.625 88.2178 177.225 87.7034C175.826 87.189 174.67 86.1691 173.985 84.8447C175.711 88.9684 178.618 92.4898 182.34 94.9665C186.061 97.4431 190.432 98.7645 194.903 98.7645C199.373 98.7645 203.744 97.4431 207.466 94.9665C211.187 92.4898 214.094 88.9684 215.821 84.8447C215.265 86.2023 214.226 87.3058 212.904 87.9419C211.583 88.5779 210.072 88.7014 208.665 88.2883C207.257 87.8753 206.053 86.9551 205.284 85.7057C204.516 84.4562 204.238 82.9663 204.504 81.5238C204.771 80.0814 205.562 78.7889 206.726 77.8962C207.89 77.0035 209.343 76.574 210.806 76.6907C212.268 76.8075 213.635 77.4621 214.642 78.5282C215.65 79.5943 216.226 80.996 216.26 82.4625C216.259 83.1929 216.123 83.9168 215.857 84.5973C216.946 81.9234 217.506 79.0639 217.506 76.177Z" fill="#C8A064"/>
<path d="M194.857 65.4932C193.107 65.4875 191.383 65.9117 189.836 66.7283C188.288 67.5449 186.965 68.7291 185.983 70.1768C185 71.6244 184.388 73.2912 184.2 75.0308C184.013 76.7703 184.255 78.5293 184.906 80.1532C184.935 80.2095 184.959 80.2677 184.98 80.3273C185.726 82.1168 186.944 83.6701 188.504 84.8216C190.064 85.9731 191.907 86.6796 193.837 86.8657C195.767 87.0518 197.711 86.7106 199.462 85.8784C201.214 85.0462 202.706 83.7543 203.781 82.1405C204.855 80.5266 205.472 78.6513 205.564 76.7147C205.656 74.778 205.221 72.8526 204.305 71.1437C203.389 69.4349 202.027 68.0067 200.363 67.0116C198.699 66.0165 196.796 65.4917 194.857 65.4932ZM194.857 85.8798C192.939 85.8743 191.066 85.3007 189.474 84.2312C187.882 83.1617 186.642 81.6444 185.912 79.8709C185.182 78.0974 184.994 76.1473 185.371 74.2669C185.749 72.3865 186.675 70.6602 188.033 69.3059C189.391 67.9517 191.12 67.0303 193.001 66.6581C194.883 66.2859 196.832 66.4797 198.604 67.2149C200.375 67.9501 201.889 69.1938 202.954 70.7888C204.019 72.3839 204.587 74.2588 204.587 76.1767C204.583 78.7534 203.555 81.2227 201.73 83.0422C199.906 84.8616 197.434 85.8822 194.857 85.8798Z" fill="black"/>
<path d="M215.995 87.1719C213.97 91.023 210.931 94.2475 207.206 96.497C203.482 98.7465 199.213 99.9355 194.862 99.9355C190.511 99.9355 186.242 98.7465 182.518 96.497C178.793 94.2475 175.754 91.023 173.729 87.1719L178.52 105.442C178.462 105.094 178.431 104.741 178.429 104.388C178.425 102.859 178.995 101.383 180.028 100.254C181.06 99.1256 182.478 98.4256 184.002 98.2929C185.526 98.1602 187.044 98.6047 188.255 99.5382C189.467 100.472 190.284 101.826 190.544 103.333C190.805 104.841 190.489 106.391 189.661 107.677C188.833 108.963 187.552 109.89 186.072 110.277C184.592 110.663 183.021 110.479 181.67 109.762C180.319 109.045 179.286 107.846 178.777 106.404L186.373 135.385C189.036 134.158 191.934 133.523 194.866 133.523C197.799 133.523 200.696 134.158 203.36 135.385L210.965 106.395C210.463 107.835 209.438 109.034 208.094 109.755C206.75 110.475 205.184 110.664 203.707 110.285C202.229 109.906 200.949 108.985 200.118 107.706C199.287 106.427 198.967 104.883 199.221 103.379C199.475 101.875 200.285 100.521 201.49 99.5862C202.695 98.651 204.207 98.2025 205.727 98.3295C207.246 98.4565 208.663 99.1497 209.696 100.272C210.729 101.394 211.303 102.863 211.304 104.388C211.301 104.744 211.271 105.1 211.212 105.451L215.995 87.1719ZM206.998 119.616C207.005 122.019 206.299 124.37 204.969 126.371C203.64 128.372 201.746 129.934 199.529 130.859C197.311 131.783 194.869 132.029 192.511 131.564C190.154 131.1 187.987 129.947 186.286 128.25C184.584 126.554 183.424 124.391 182.953 122.035C182.482 119.679 182.72 117.236 183.638 115.016C184.555 112.795 186.111 110.897 188.109 109.561C190.106 108.226 192.455 107.513 194.857 107.513C196.449 107.51 198.026 107.821 199.498 108.428C200.969 109.035 202.307 109.926 203.434 111.05C204.561 112.174 205.456 113.509 206.068 114.979C206.679 116.449 206.995 118.024 206.998 119.616Z" fill="#C8A064"/>
<path d="M79.6669 175.82C84.8895 177.057 93.6122 180.135 102.097 196.371C109.179 209.941 113.962 228.788 119.505 241.542C122.547 248.515 128.668 254.562 150.53 255.396C179.987 256.523 209.692 256.523 239.14 255.396C261.039 254.553 267.122 248.515 270.164 241.542C275.726 228.788 280.509 209.941 287.573 196.371C296.058 180.135 304.78 177.066 310.003 175.82C318.02 173.914 312 168.627 307.181 167.216C285.402 160.802 276.028 175.398 271.447 185.202C272.528 127.634 238.609 126.681 223.628 175.123C217.837 121.294 171.878 121.294 166.078 175.123C151.098 126.718 117.178 127.661 118.259 185.202C113.614 175.398 104.268 160.811 82.5256 167.216C77.6786 168.59 71.6589 173.914 79.6669 175.82Z" fill="white"/>
<path d="M194.857 223.639C210.598 223.639 228.327 225.16 243.418 229.741C249.832 231.674 264.006 236.759 264.006 245.152C264.006 247.663 263.007 248.286 260.973 249.376C254.77 252.702 246.038 253.554 239.075 253.82C209.596 254.95 180.099 254.95 150.584 253.82C143.62 253.554 134.888 252.702 128.685 249.376C126.651 248.286 125.652 247.663 125.652 245.152C125.652 236.759 139.863 231.674 146.25 229.741C161.386 225.16 179.116 223.639 194.857 223.639Z" fill="black"/>
<path d="M208.437 182.452L209.353 181.976L196.434 159.757H201.015C201.115 160.392 201.389 160.988 201.806 161.478C202.223 161.967 202.767 162.332 203.379 162.532C203.99 162.732 204.645 162.76 205.271 162.611C205.896 162.462 206.469 162.144 206.925 161.69C211.387 157.246 201.941 152.693 201.015 158.721H195.39V154.415C196.024 154.319 196.619 154.049 197.11 153.635C197.6 153.221 197.966 152.68 198.167 152.07C198.369 151.461 198.397 150.808 198.25 150.184C198.102 149.559 197.785 148.988 197.332 148.533C192.861 144.071 188.316 153.508 194.345 154.415V158.721H188.719C188.592 157.899 188.175 157.15 187.543 156.608C186.911 156.067 186.106 155.77 185.274 155.771C184.817 155.77 184.365 155.861 183.943 156.037C183.521 156.213 183.139 156.472 182.819 156.797C178.357 161.241 187.794 165.786 188.719 159.766H193.301L180.391 181.985L181.307 182.498L194.373 160.013V166.711L184.294 184.056L185.21 184.532L194.318 168.855V186.914H195.362V168.846L204.461 184.486L205.377 184.01L195.344 166.702V160.004L208.437 182.452ZM206.183 157.521C206.525 157.861 206.758 158.294 206.853 158.767C206.947 159.239 206.899 159.729 206.714 160.174C206.53 160.62 206.217 161 205.815 161.266C205.414 161.533 204.942 161.674 204.461 161.672C199.769 161.672 202.857 154.223 206.183 157.521ZM185.274 161.672C180.601 161.672 183.68 154.223 186.997 157.521C187.339 157.861 187.573 158.296 187.667 158.769C187.761 159.243 187.712 159.733 187.526 160.179C187.341 160.624 187.026 161.004 186.623 161.27C186.221 161.536 185.748 161.676 185.265 161.672H185.274ZM194.867 153.426C190.194 153.426 193.273 145.976 196.59 149.275C196.926 149.616 197.154 150.049 197.245 150.519C197.335 150.989 197.285 151.476 197.1 151.918C196.915 152.359 196.603 152.736 196.204 153.001C195.805 153.266 195.337 153.408 194.858 153.407L194.867 153.426Z" fill="black"/>
<path d="M226.23 196.288C226.288 196.927 226.522 197.538 226.905 198.053C227.288 198.569 227.805 198.969 228.4 199.21C228.995 199.452 229.645 199.525 230.279 199.421C230.912 199.318 231.505 199.042 231.993 198.624C236.684 194.254 227.604 189.462 226.312 195.252L220.695 194.858L220.998 190.561C221.638 190.51 222.251 190.282 222.769 189.903C223.287 189.524 223.69 189.008 223.933 188.414C224.176 187.82 224.25 187.17 224.146 186.536C224.042 185.903 223.764 185.311 223.343 184.825C218.964 180.143 214.181 189.196 219.953 190.488L219.651 194.785L214.043 194.391C213.973 193.564 213.61 192.788 213.018 192.205C212.427 191.622 211.647 191.27 210.818 191.212C210.362 191.176 209.903 191.232 209.469 191.377C209.034 191.522 208.633 191.752 208.289 192.055C203.589 196.416 212.669 201.217 213.97 195.426L218.551 195.747L204.111 217.013L204.982 217.581L219.642 196.059L219.165 202.747L207.859 219.35L208.775 219.899L218.964 204.891L217.699 222.914L218.744 222.987L220.008 204.965L227.98 221.21L228.951 220.788L220.155 202.83L220.622 196.141L232.075 219.45L232.992 219.038L221.667 195.976L226.23 196.288ZM231.553 194.455C231.867 194.82 232.066 195.269 232.125 195.746C232.185 196.224 232.101 196.708 231.886 197.138C231.67 197.568 231.332 197.925 230.914 198.163C230.496 198.402 230.017 198.511 229.537 198.478C224.883 198.111 228.456 190.891 231.553 194.409V194.455ZM210.406 197.14C205.724 196.819 209.343 189.599 212.413 193.127C212.712 193.491 212.899 193.934 212.951 194.403C213.003 194.871 212.917 195.345 212.704 195.765C212.492 196.186 212.161 196.536 211.753 196.772C211.345 197.008 210.877 197.12 210.406 197.094V197.14ZM220.549 189.572C215.885 189.251 219.486 182.031 222.555 185.558C222.855 185.922 223.042 186.366 223.094 186.834C223.146 187.303 223.06 187.776 222.847 188.197C222.635 188.618 222.304 188.967 221.896 189.203C221.488 189.439 221.02 189.551 220.549 189.526V189.572Z" fill="black"/>
<path d="M185.64 217.023L171.2 195.757L175.782 195.436C177.083 201.245 186.163 196.426 181.471 192.064C181.127 191.763 180.726 191.534 180.292 191.389C179.857 191.244 179.399 191.187 178.943 191.221C178.114 191.278 177.332 191.63 176.74 192.213C176.149 192.796 175.786 193.573 175.717 194.401L170.101 194.795L169.798 190.498C175.617 189.206 170.788 180.153 166.408 184.835C165.988 185.32 165.71 185.913 165.606 186.546C165.502 187.18 165.575 187.83 165.818 188.424C166.061 189.018 166.464 189.533 166.983 189.912C167.501 190.291 168.114 190.519 168.754 190.571L169.056 194.868L163.449 195.262C162.157 189.462 153.068 194.263 157.768 198.634C158.255 199.053 158.847 199.329 159.48 199.433C160.114 199.536 160.764 199.464 161.358 199.222C161.953 198.981 162.47 198.58 162.851 198.064C163.233 197.548 163.465 196.937 163.522 196.297L168.103 195.986L156.705 219.039L157.621 219.451L169.065 196.142L169.533 202.83L160.792 220.816L161.708 221.238L169.688 204.993L170.953 223.015L171.988 222.942L170.724 204.919L180.958 219.9L181.875 219.35L170.632 202.757L170.165 196.068L184.77 217.591L185.64 217.023ZM177.302 193.081C180.372 189.554 183.991 196.746 179.318 197.095C178.838 197.131 178.359 197.023 177.94 196.786C177.521 196.549 177.182 196.193 176.966 195.763C176.75 195.333 176.667 194.849 176.727 194.371C176.787 193.894 176.987 193.445 177.302 193.081ZM160.178 198.432C159.699 198.464 159.221 198.353 158.804 198.114C158.388 197.875 158.051 197.518 157.837 197.088C157.623 196.659 157.54 196.175 157.6 195.699C157.659 195.222 157.858 194.774 158.171 194.41C161.286 190.892 164.832 198.112 160.178 198.432ZM169.166 189.526C168.687 189.561 168.209 189.452 167.791 189.214C167.374 188.976 167.037 188.62 166.822 188.19C166.607 187.761 166.524 187.277 166.585 186.801C166.645 186.324 166.845 185.876 167.16 185.513C170.238 181.986 173.83 189.206 169.166 189.526Z" fill="black"/>
<path d="M268.387 204.938L263.063 203.105L264.474 199.037C267.81 199.651 269.404 195.757 268.222 194.098C264.218 188.482 258.638 196.178 263.476 198.68L262.074 202.775L256.75 200.943C256.899 200.125 256.749 199.28 256.329 198.563C255.909 197.845 255.246 197.302 254.46 197.03C253.588 196.73 252.633 196.786 251.803 197.186C246.122 199.99 253.635 207.265 256.384 201.923L260.699 203.398L241.238 220.221L241.925 220.99L261.625 203.976L259.435 210.307L244.299 223.464L245.032 224.216L258.775 212.359L252.911 229.429L253.901 229.768L259.801 212.689L263.283 230.437L264.328 230.281L260.498 210.664L262.688 204.324L267.7 229.796L268.726 229.64L263.769 204.443L268.084 205.927C267.324 210.087 273.417 211.709 274.81 207.677C276.202 203.646 270.32 201.19 268.387 204.938ZM267.287 194.566C267.496 194.999 267.572 195.484 267.505 195.96C267.439 196.436 267.233 196.882 266.913 197.242C266.594 197.601 266.176 197.858 265.711 197.98C265.246 198.102 264.755 198.084 264.3 197.928C259.875 196.417 265.235 190.36 267.287 194.566ZM252.536 202.62C248.119 201.099 253.452 195.06 255.523 199.257C255.731 199.69 255.807 200.175 255.74 200.651C255.674 201.128 255.468 201.573 255.149 201.933C254.83 202.292 254.411 202.549 253.946 202.671C253.481 202.794 252.99 202.776 252.536 202.62ZM270.677 208.85C266.252 207.329 271.594 201.282 273.655 205.487C273.862 205.92 273.938 206.404 273.871 206.878C273.805 207.353 273.6 207.798 273.282 208.157C272.964 208.516 272.548 208.773 272.084 208.896C271.621 209.02 271.132 209.004 270.677 208.85Z" fill="black"/>
<path d="M148.459 220.239L128.989 203.408L133.304 201.933C136.108 207.302 143.603 200.008 137.885 197.205C137.475 197.003 137.029 196.884 136.573 196.856C136.117 196.828 135.66 196.89 135.228 197.04C134.44 197.308 133.774 197.851 133.354 198.569C132.933 199.288 132.785 200.134 132.938 200.952L127.614 202.785L126.212 198.717C131.05 196.197 125.47 188.5 121.466 194.135C120.284 195.794 121.888 199.688 125.223 199.074L126.634 203.142L121.31 204.975C119.34 201.227 113.541 203.701 114.897 207.723C116.253 211.746 122.382 210.133 121.613 205.973L125.928 204.489L120.971 229.686L122.007 229.842L127.009 204.37L129.199 210.71L125.369 230.327L126.469 230.437L129.951 212.689L135.851 229.768L136.841 229.429L130.94 212.359L144.684 224.216L145.408 223.464L130.244 210.325L128.054 203.994L147.753 221.009L148.459 220.239ZM134.193 199.257C136.254 195.061 141.605 201.09 137.18 202.62C136.725 202.776 136.234 202.794 135.769 202.672C135.304 202.549 134.886 202.293 134.567 201.933C134.247 201.574 134.041 201.128 133.975 200.652C133.908 200.175 133.984 199.69 134.193 199.257ZM122.428 194.566C124.49 190.36 129.841 196.398 125.415 197.929C124.96 198.085 124.47 198.103 124.005 197.98C123.54 197.858 123.121 197.601 122.802 197.242C122.483 196.882 122.277 196.437 122.21 195.96C122.144 195.484 122.22 194.999 122.428 194.566ZM119.047 208.85C118.592 209.006 118.102 209.024 117.637 208.902C117.172 208.78 116.753 208.523 116.434 208.164C116.115 207.804 115.909 207.358 115.842 206.882C115.776 206.406 115.852 205.921 116.06 205.488C118.113 201.282 123.473 207.329 119.047 208.85Z" fill="black"/>
<path d="M256.713 166.51L251.216 165.246L252.187 161.049C256.411 161.379 257.392 155.167 253.232 154.205C249.072 153.243 247.221 159.272 251.17 160.82L250.199 165.008L244.701 163.752C244.765 162.922 244.529 162.095 244.037 161.423C243.545 160.751 242.828 160.277 242.017 160.087C241.118 159.881 240.174 160.039 239.391 160.527C238.608 161.014 238.05 161.792 237.839 162.689C236.922 166.831 242.906 168.682 244.472 164.751L248.916 165.768L231.324 184.524L232.094 185.229L249.897 166.244L248.385 172.777L234.641 187.437L235.438 188.115L247.853 174.885L243.785 192.486L244.802 192.715L248.88 175.114L254.267 192.413L255.293 192.156L249.429 173.043L250.941 166.51L258.583 191.322L259.6 191.066L251.995 166.501L256.439 167.527C256.118 171.742 262.348 172.713 263.311 168.572C264.273 164.43 258.271 162.579 256.713 166.51ZM240.707 165.841C236.125 164.797 240.844 158.227 243.327 162.176C243.583 162.586 243.711 163.061 243.696 163.544C243.681 164.026 243.523 164.493 243.243 164.885C242.962 165.278 242.571 165.578 242.12 165.748C241.668 165.919 241.176 165.951 240.707 165.841ZM254.533 156.294C254.787 156.702 254.915 157.177 254.9 157.658C254.886 158.139 254.729 158.605 254.449 158.997C254.17 159.389 253.781 159.69 253.331 159.861C252.881 160.032 252.391 160.066 251.922 159.959C247.414 158.914 252.05 152.336 254.533 156.303V156.294ZM259.407 170.148C254.826 169.103 259.536 162.524 262.019 166.483C262.276 166.891 262.406 167.367 262.393 167.85C262.38 168.333 262.223 168.801 261.943 169.194C261.664 169.588 261.273 169.89 260.822 170.061C260.37 170.232 259.878 170.266 259.407 170.157V170.148Z" fill="black"/>
<path d="M158.381 184.542L140.78 165.787L145.224 164.77C147.304 170.029 155.568 164.77 150.309 160.546C149.512 160.092 148.58 159.936 147.679 160.106C146.865 160.292 146.146 160.765 145.651 161.438C145.157 162.111 144.92 162.939 144.985 163.771L139.488 165.026L138.517 160.839C142.457 159.291 140.615 153.271 136.446 154.224C132.277 155.177 133.267 161.398 137.5 161.068L138.471 165.265L132.973 166.529C130.884 161.261 122.629 166.575 127.888 170.753C129.638 172.146 133.459 170.753 133.202 167.546L137.646 166.52L130.133 191.048L131.15 191.304L138.792 166.501L140.313 173.025L134.449 192.138L135.447 192.413L140.78 175.133L144.857 192.734L145.874 192.505L141.797 174.903L154.212 188.134L155.018 187.456L141.275 172.796L139.763 166.263L157.621 185.248L158.381 184.542ZM146.387 162.177C148.88 158.219 153.562 164.788 149.008 165.842C148.538 165.951 148.046 165.919 147.595 165.749C147.143 165.579 146.752 165.278 146.472 164.886C146.191 164.493 146.033 164.026 146.018 163.544C146.003 163.062 146.132 162.586 146.387 162.177ZM130.316 170.139C129.846 170.249 129.355 170.216 128.903 170.046C128.452 169.876 128.061 169.576 127.78 169.183C127.5 168.791 127.342 168.324 127.327 167.841C127.312 167.359 127.44 166.883 127.696 166.474C130.188 162.534 134.87 169.113 130.316 170.157V170.139ZM137.793 159.941C137.324 160.048 136.833 160.014 136.383 159.843C135.934 159.672 135.544 159.371 135.265 158.979C134.986 158.587 134.829 158.121 134.814 157.64C134.799 157.159 134.927 156.685 135.182 156.276C137.665 152.336 142.356 158.915 137.793 159.959V159.941Z" fill="black"/>
<path d="M304 175.453C300.262 169.241 294.508 176.222 298.585 179.255L296.56 183.049L291.594 180.419C291.87 179.635 291.856 178.779 291.553 178.005C291.25 177.231 290.679 176.592 289.945 176.204C289.127 175.772 288.172 175.68 287.288 175.948C281.066 179.677 288.057 185.412 291.099 181.344L295.131 183.479L273.26 197.049L273.828 197.965L295.974 184.166L296.679 183.443L296.89 183.25C297.128 183.012 297.33 182.829 297.495 182.673C297.782 182.444 298.052 182.193 298.301 181.922C298.772 181.222 299.188 180.486 299.547 179.723C300.118 179.876 300.725 179.834 301.27 179.603C302.076 179.338 302.81 178.89 303.414 178.293C303.824 177.96 304.107 177.495 304.214 176.978C304.32 176.46 304.245 175.921 304 175.453ZM287.168 181.418C283.036 179.237 289.267 174.088 290.641 178.568C290.777 179.028 290.775 179.518 290.635 179.976C290.494 180.434 290.221 180.841 289.851 181.145C289.48 181.45 289.028 181.638 288.551 181.686C288.073 181.735 287.593 181.641 287.168 181.418ZM299.529 178.614C295.396 176.433 301.627 171.284 303.001 175.764C303.135 176.223 303.131 176.712 302.989 177.169C302.848 177.625 302.575 178.031 302.205 178.333C301.834 178.636 301.383 178.823 300.907 178.872C300.432 178.92 299.952 178.827 299.529 178.605V178.614ZM290.302 191.661L275.761 200.659L276.366 201.575L289.102 193.677L289.212 193.485L289.706 192.651L290.009 192.147L290.311 191.661H290.302Z" fill="black"/>
<path d="M94.583 183.479L98.6146 181.335C101.143 184.734 106.485 181.399 104.488 177.67C102.939 174.783 99.7874 176.24 99.769 176.24C99.0356 176.63 98.466 177.269 98.1635 178.042C97.8609 178.815 97.8454 179.671 98.1198 180.455L93.1537 183.085L91.1288 179.291C95.2153 176.259 89.4521 169.277 85.7229 175.489C85.4754 175.971 85.4059 176.524 85.5266 177.052C85.6473 177.58 85.9504 178.049 86.3826 178.375C86.9768 178.959 87.6981 179.398 88.49 179.658C89.0319 179.888 89.6349 179.929 90.2034 179.777C90.5643 180.551 90.9904 181.293 91.477 181.994C91.72 182.25 91.9802 182.489 92.2558 182.709C92.5765 183.002 93.0438 183.451 93.7493 184.202L115.877 197.946L116.436 197.03L94.583 183.479ZM99.0727 178.558C100.447 174.087 106.678 179.218 102.554 181.408C102.13 181.634 101.648 181.73 101.169 181.683C100.69 181.636 100.236 181.448 99.8639 181.144C99.4916 180.839 99.2178 180.431 99.077 179.971C98.9362 179.511 98.9347 179.019 99.0727 178.558ZM90.1851 178.558C89.7608 178.782 89.28 178.875 88.8029 178.827C88.3259 178.778 87.8737 178.59 87.503 178.286C87.1323 177.982 86.8595 177.575 86.7189 177.117C86.5783 176.658 86.5761 176.169 86.7125 175.709C88.0868 171.283 94.3173 176.424 90.1851 178.604V178.558ZM99.4209 191.615C99.7782 192.192 100.154 192.797 100.511 193.447L100.621 193.64L113.357 201.538L113.962 200.677L99.4209 191.615Z" fill="black"/>
<path d="M194.858 224.426C232.625 224.426 263.247 233.707 263.247 245.161C263.247 247.323 262.431 247.726 260.626 248.697C254.561 251.95 245.829 252.784 239.076 253.049C209.615 254.179 180.137 254.179 150.639 253.049C143.887 252.793 135.155 251.95 129.089 248.697C127.257 247.735 126.469 247.332 126.469 245.161C126.469 233.707 157.099 224.426 194.858 224.426Z" fill="#DC231E"/>
<path d="M77.3858 134.202C77.3894 132.545 76.9013 130.924 75.9833 129.545C75.0653 128.165 73.7587 127.089 72.2287 126.452C70.6988 125.816 69.0144 125.647 67.3887 125.968C65.763 126.289 64.2691 127.085 63.0961 128.256C61.923 129.426 61.1236 130.919 60.799 132.544C60.4744 134.169 60.6391 135.853 61.2724 137.385C61.9057 138.916 62.9791 140.225 64.3567 141.146C65.7343 142.067 67.3541 142.559 69.0112 142.559C70.1098 142.56 71.1978 142.345 72.2132 141.925C73.2286 141.506 74.1515 140.891 74.9291 140.115C75.7068 139.339 76.324 138.417 76.7455 137.403C77.167 136.389 77.3846 135.301 77.3858 134.202Z" fill="black"/>
<path d="M76.1937 134.203C76.1973 132.78 75.7786 131.387 74.9905 130.202C74.2023 129.017 73.0803 128.092 71.7663 127.545C70.4524 126.998 69.0056 126.853 67.6092 127.128C66.2128 127.404 64.9295 128.087 63.9217 129.092C62.914 130.098 62.2272 131.379 61.9481 132.775C61.6691 134.171 61.8105 135.618 62.3543 136.933C62.8982 138.248 63.8201 139.373 65.0033 140.164C66.1865 140.955 67.5778 141.377 69.0011 141.377C69.9445 141.379 70.8788 141.194 71.7508 140.834C72.6228 140.474 73.4154 139.946 74.0833 139.28C74.7511 138.614 75.2813 137.822 75.6434 136.951C76.0055 136.08 76.1925 135.146 76.1937 134.203Z" fill="#96C8C8"/>
<path d="M84.2666 160.582C84.2702 158.925 83.7822 157.304 82.8642 155.925C81.9462 154.545 80.6395 153.469 79.1096 152.832C77.5797 152.196 75.8953 152.027 74.2696 152.348C72.6439 152.669 71.1499 153.465 69.9769 154.636C68.8039 155.806 68.0045 157.298 67.6798 158.923C67.3552 160.548 67.52 162.233 68.1533 163.765C68.7866 165.296 69.86 166.605 71.2376 167.526C72.6151 168.447 74.235 168.939 75.8921 168.939C76.9906 168.94 78.0787 168.725 79.0941 168.305C80.1095 167.886 81.0323 167.271 81.81 166.495C82.5876 165.719 83.2048 164.797 83.6263 163.783C84.0478 162.768 84.2654 161.681 84.2666 160.582Z" fill="black"/>
<path d="M83.0746 160.582C83.0782 159.159 82.6594 157.766 81.8713 156.581C81.0832 155.396 79.9611 154.471 78.6472 153.924C77.3332 153.377 75.8865 153.232 74.4901 153.507C73.0936 153.783 71.8103 154.466 70.8026 155.471C69.7949 156.476 69.108 157.758 68.829 159.154C68.55 160.549 68.6914 161.997 69.2352 163.312C69.779 164.627 70.7009 165.752 71.8841 166.543C73.0673 167.334 74.4587 167.756 75.882 167.756C76.8253 167.757 77.7597 167.573 78.6317 167.213C79.5037 166.853 80.2962 166.325 80.9641 165.659C81.632 164.993 82.1621 164.201 82.5242 163.33C82.8864 162.459 83.0734 161.525 83.0746 160.582Z" fill="#96C8C8"/>
<path d="M329.089 134.202C329.093 132.545 328.604 130.924 327.686 129.545C326.768 128.165 325.462 127.089 323.932 126.452C322.402 125.816 320.718 125.647 319.092 125.968C317.466 126.289 315.972 127.085 314.799 128.256C313.626 129.426 312.827 130.919 312.502 132.544C312.177 134.169 312.342 135.853 312.976 137.385C313.609 138.916 314.682 140.225 316.06 141.146C317.437 142.067 319.057 142.559 320.714 142.559C321.813 142.56 322.901 142.345 323.916 141.925C324.932 141.506 325.855 140.891 326.632 140.115C327.41 139.339 328.027 138.417 328.449 137.403C328.87 136.389 329.088 135.301 329.089 134.202Z" fill="black"/>
<path d="M327.905 134.203C327.908 132.78 327.49 131.387 326.701 130.202C325.913 129.017 324.791 128.092 323.477 127.545C322.163 126.998 320.717 126.853 319.32 127.128C317.924 127.404 316.64 128.087 315.633 129.092C314.625 130.098 313.938 131.379 313.659 132.775C313.38 134.171 313.521 135.618 314.065 136.933C314.609 138.248 315.531 139.373 316.714 140.164C317.897 140.955 319.289 141.377 320.712 141.377C321.655 141.379 322.59 141.194 323.462 140.834C324.334 140.474 325.126 139.946 325.794 139.28C326.462 138.614 326.992 137.822 327.354 136.951C327.716 136.08 327.903 135.146 327.905 134.203Z" fill="#96C8C8"/>
<path d="M322.216 160.582C322.219 158.925 321.731 157.304 320.813 155.925C319.895 154.545 318.589 153.469 317.059 152.832C315.529 152.196 313.844 152.027 312.219 152.348C310.593 152.669 309.099 153.465 307.926 154.636C306.753 155.806 305.954 157.298 305.629 158.923C305.304 160.548 305.469 162.233 306.103 163.765C306.736 165.296 307.809 166.605 309.187 167.526C310.564 168.447 312.184 168.939 313.841 168.939C314.94 168.94 316.028 168.725 317.043 168.305C318.059 167.886 318.982 167.271 319.759 166.495C320.537 165.719 321.154 164.797 321.576 163.783C321.997 162.768 322.215 161.681 322.216 160.582Z" fill="black"/>
<path d="M321.026 160.582C321.029 159.159 320.611 157.766 319.822 156.581C319.034 155.396 317.912 154.471 316.598 153.924C315.284 153.377 313.838 153.232 312.441 153.507C311.045 153.783 309.762 154.466 308.754 155.471C307.746 156.476 307.059 157.758 306.78 159.154C306.501 160.549 306.643 161.997 307.186 163.312C307.73 164.627 308.652 165.752 309.835 166.543C311.019 167.334 312.41 167.756 313.833 167.756C314.776 167.757 315.711 167.573 316.583 167.213C317.455 166.853 318.247 166.325 318.915 165.659C319.583 164.993 320.113 164.201 320.475 163.33C320.838 162.459 321.025 161.525 321.026 160.582Z" fill="#96C8C8"/>
<path d="M204.588 76.1773C204.595 78.1034 204.031 79.9883 202.966 81.5933C201.901 83.1983 200.384 84.4512 198.607 85.1933C196.829 85.9354 194.872 86.1334 192.982 85.762C191.092 85.3907 189.354 84.4669 187.99 83.1075C186.625 81.7481 185.695 80.0144 185.317 78.1259C184.938 76.2373 185.129 74.2789 185.864 72.4988C186.6 70.7186 187.847 69.1967 189.448 68.1259C191.049 67.0551 192.931 66.4834 194.857 66.4834C196.133 66.481 197.396 66.7298 198.576 67.2157C199.755 67.7016 200.827 68.4149 201.73 69.3151C202.634 70.2153 203.351 71.2846 203.842 72.462C204.332 73.6394 204.586 74.9019 204.588 76.1773Z" fill="#DC231E"/>
<path d="M199.832 59.5564C199.836 58.5698 199.546 57.6044 199.001 56.7823C198.455 55.9602 197.678 55.3185 196.768 54.9384C195.857 54.5583 194.855 54.457 193.887 54.6473C192.918 54.8375 192.029 55.3108 191.33 56.0071C190.631 56.7035 190.154 57.5916 189.96 58.5589C189.767 59.5263 189.864 60.5295 190.241 61.4413C190.618 62.3532 191.257 63.1327 192.077 63.6812C192.897 64.2297 193.861 64.5225 194.848 64.5225C195.501 64.5237 196.148 64.3962 196.752 64.1473C197.356 63.8984 197.906 63.5329 198.368 63.0718C198.831 62.6106 199.199 62.0628 199.45 61.4597C199.701 60.8565 199.831 60.2098 199.832 59.5564Z" fill="#96C8C8"/>
<path d="M215.281 82.4629C215.282 81.4789 214.992 80.5165 214.447 79.6973C213.902 78.8781 213.126 78.239 212.218 77.8607C211.309 77.4825 210.309 77.3821 209.344 77.5723C208.378 77.7625 207.491 78.2347 206.794 78.9293C206.097 79.6238 205.621 80.5094 205.427 81.4741C205.234 82.4389 205.33 83.4394 205.705 84.3492C206.08 85.259 206.716 86.0372 207.534 86.5854C208.351 87.1336 209.312 87.4272 210.296 87.429C210.95 87.4302 211.597 87.3027 212.201 87.0538C212.805 86.8049 213.354 86.4394 213.817 85.9782C214.28 85.5171 214.647 84.9693 214.898 84.3661C215.149 83.763 215.279 83.1163 215.281 82.4629Z" fill="#96C8C8"/>
<path d="M184.394 82.4629C184.396 81.4785 184.105 80.5157 183.56 79.6963C183.014 78.877 182.238 78.2378 181.329 77.8599C180.42 77.4819 179.419 77.3821 178.454 77.573C177.488 77.7639 176.601 78.2371 175.904 78.9325C175.207 79.6279 174.732 80.5144 174.54 81.4798C174.347 82.4451 174.445 83.4459 174.821 84.3556C175.197 85.2652 175.835 86.0428 176.654 86.5899C177.472 87.137 178.434 87.429 179.419 87.429C180.737 87.429 182.001 86.9061 182.933 85.975C183.866 85.044 184.391 83.7808 184.394 82.4629Z" fill="#96C8C8"/>
<path d="M206.008 119.616C206.016 117.41 205.368 115.25 204.148 113.412C202.927 111.574 201.189 110.139 199.153 109.289C197.116 108.439 194.873 108.212 192.708 108.638C190.543 109.063 188.553 110.121 186.989 111.678C185.426 113.236 184.359 115.222 183.925 117.385C183.491 119.548 183.708 121.792 184.55 123.832C185.391 125.872 186.819 127.616 188.652 128.844C190.486 130.072 192.642 130.728 194.849 130.73C196.311 130.734 197.76 130.449 199.113 129.892C200.466 129.336 201.695 128.518 202.732 127.486C203.768 126.454 204.591 125.227 205.153 123.877C205.715 122.527 206.006 121.079 206.008 119.616Z" fill="#DC231E"/>
<path d="M210.305 104.397C210.307 103.386 210.009 102.396 209.448 101.554C208.888 100.712 208.09 100.056 207.156 99.6672C206.222 99.2788 205.193 99.1763 204.201 99.3725C203.209 99.5688 202.297 100.055 201.581 100.77C200.865 101.484 200.377 102.395 200.179 103.387C199.981 104.379 200.082 105.408 200.468 106.342C200.855 107.277 201.51 108.076 202.351 108.638C203.192 109.201 204.181 109.501 205.193 109.501C205.864 109.502 206.528 109.371 207.149 109.115C207.769 108.859 208.333 108.483 208.807 108.009C209.282 107.535 209.659 106.972 209.916 106.352C210.173 105.733 210.305 105.068 210.305 104.397Z" fill="#96C8C8"/>
<path d="M189.634 104.397C189.635 103.386 189.337 102.396 188.776 101.554C188.216 100.712 187.418 100.056 186.484 99.6672C185.55 99.2788 184.521 99.1763 183.529 99.3725C182.537 99.5688 181.625 100.055 180.909 100.77C180.193 101.484 179.705 102.395 179.507 103.387C179.309 104.379 179.41 105.408 179.797 106.342C180.183 107.277 180.839 108.076 181.679 108.638C182.52 109.201 183.509 109.501 184.521 109.501C185.192 109.502 185.856 109.371 186.477 109.115C187.097 108.859 187.661 108.483 188.136 108.009C188.61 107.535 188.987 106.972 189.244 106.352C189.501 105.733 189.634 105.068 189.634 104.397Z" fill="#96C8C8"/>
<path d="M222.765 19.3605H218.248L210.597 31.1526H199.831V16.2178L214.592 6.71625V1.21875H175.12V6.71625L189.881 16.2178V31.1526H179.106L171.464 19.3513H166.947V52.8769H171.464L179.106 41.0756H189.881V52.9411C193.162 52.2483 196.551 52.2483 199.831 52.9411V41.0756H210.597L218.239 52.8769H222.756V19.3605H222.765Z" fill="#C8A064"/>
</g>
<defs>
<clipPath id="clip0_806_104712">
<rect width="389.668" height="733" fill="white" transform="translate(0.0234375)"/>
</clipPath>
</defs>
</svg>
