<svg id="id-svg" width="650" height="708" viewBox="0 0 650 708" fill="none" xmlns="http://www.w3.org/2000/svg">
<g clip-path="url(#clip0_806_108920)">
<path d="M647.987 633.699C647.987 650.371 638.357 664.806 624.382 671.824C622.638 672.703 620.832 673.47 618.958 674.105C614.663 675.559 610.083 676.383 605.302 676.383H480.952H475.106H439.593H374.562C360.16 676.383 347.026 681.804 336.989 690.653L331.883 695.755C329.14 698.869 326.773 702.304 324.749 705.962C322.723 702.304 320.358 698.869 317.615 695.755L312.511 690.653C302.472 681.804 289.337 676.383 274.933 676.383H202.04H174.392H168.55H44.194C39.4159 676.383 34.837 675.559 30.5451 674.105C28.6704 673.47 26.8605 672.703 25.1128 671.824C11.1442 664.806 1.51123 650.371 1.51123 633.699V2.03906C217.004 2.03906 432.496 2.03906 647.987 2.03906V633.699Z" fill="white"/>
<path d="M99.3877 368.957C98.6695 371.711 95.309 372.119 94.1089 369.586C94.1089 369.586 85.0959 353.669 80.3914 343.744C77.8841 360.336 35.7717 639.183 30.5449 673.792C34.8368 675.448 39.4157 676.384 44.1938 676.384H168.55C165.431 657.741 115.431 358.783 111.439 334.936C107.532 349.961 99.3877 368.957 99.3877 368.957Z" fill="#1F1A16"/>
<path d="M66.692 244.191C66.692 258.229 90.5998 265.003 90.5998 277.778C90.5998 292.342 65.8166 286.25 64.6978 304.254C63.5793 322.26 92.29 330.898 97.1315 341.209C100.084 347.497 95.7751 354.196 91.5252 355.899C105.174 354.395 107.826 340.564 99.7398 330.721C91.6529 320.878 87.4733 322.304 87.3238 311.908C87.1744 301.511 116.736 298.939 116.736 283.895C116.736 269.235 93.2257 261.294 92.2035 246.666C91.2997 233.745 115.32 233.944 115.32 219.734C115.32 209.256 101.425 198.325 88.9826 198.093C111.277 227.516 66.692 225.859 66.692 244.191Z" fill="#DA241D"/>
<path d="M202.039 2.03906V676.383H274.932C289.336 676.383 302.472 681.804 312.511 690.653L317.614 695.755C320.357 698.869 322.723 702.304 324.748 705.962C326.772 702.304 329.14 698.869 331.883 695.755L336.988 690.653C347.025 681.804 360.159 676.383 374.561 676.383H439.592V2.03906C360.408 2.03906 281.223 2.03906 202.039 2.03906Z" fill="#005CA1"/>
<path d="M296.159 483.741L298.583 483.734C298.181 483.303 297.765 482.9 297.374 482.45C296.981 482.905 296.564 483.31 296.159 483.741Z" fill="#FFF500"/>
<path d="M343.196 483.58L345.318 483.568C344.967 483.193 344.598 482.844 344.26 482.449C343.915 482.844 343.548 483.199 343.196 483.58Z" fill="#FFF500"/>
<path d="M249.116 483.907L251.847 483.893C251.392 483.414 250.926 482.959 250.486 482.449C250.043 482.959 249.573 483.421 249.116 483.907Z" fill="#FFF500"/>
<path d="M269.679 440.664L266.705 458.548L274.718 457.272L275.162 439.833L269.679 440.664Z" fill="#FFF500"/>
<path d="M308.495 457.323L316.585 458.65L343.186 438.329L336.323 436.223L308.495 457.323Z" fill="#FFF500"/>
<path d="M297.654 434.313L296.286 434.552L291.134 434.961V459.9H297.575L297.654 434.313Z" fill="#FFF500"/>
<path d="M289.172 461.187L282.972 439.152H276.531L276.291 461.187H289.172Z" fill="#FFF500"/>
<path d="M214.597 479.691C217.755 482.631 222.388 484.492 226.265 485.352C222.031 463.647 219.292 455.936 214.636 453.996L214.597 479.691Z" fill="#FFF500"/>
<path d="M351.297 442.881L341.385 453.004L253.882 457.757L253.104 448.306L242.027 448.314L239.745 425.5L207.622 421.099L212.226 449.71L221.084 456.243L229.772 485.383L229.952 485.385C236.307 485.385 242.14 482.899 246.761 478.778C249.072 476.713 251.073 474.242 252.683 471.458C254.297 474.242 256.299 476.713 258.611 478.778C263.232 482.899 269.062 485.385 275.417 485.385C281.765 485.385 287.596 482.899 292.219 478.778C294.531 476.713 296.535 474.242 298.146 471.458C299.758 474.242 301.76 476.713 304.065 478.778C308.69 482.899 314.523 485.385 320.875 485.385C327.226 485.385 333.059 482.899 337.682 478.778C339.989 476.713 341.989 474.242 343.604 471.458C345.213 474.242 347.221 476.713 349.532 478.778C354.156 482.899 359.978 485.385 366.329 485.385C367.134 485.385 367.929 485.345 368.715 485.266C370.052 485.023 371.397 484.772 372.744 484.516C376.598 483.455 380.129 481.466 383.145 478.778C385.449 476.713 387.452 474.242 389.066 471.458C391.265 475.26 394.363 478.529 397.798 481.248C416.266 468.038 430.167 436.617 433.446 422.543L385.656 433.333C432.165 391.587 431.628 290.481 360.611 276.71C322.543 269.329 276.033 261.151 238.935 252.508C298.725 324.386 286.759 383.696 246.932 446.646L303.343 435.424C319.943 432.383 338.71 436.869 351.297 442.881Z" fill="#FFF500"/>
<path d="M251.57 461.187L263.287 439.152H268.326L264.451 461.187H251.57Z" fill="#FFF500"/>
<path d="M290.461 160.428H294.406V266.764H290.461V160.428Z" fill="#FFF500"/>
<path d="M237.792 246.563L360.727 270.394L362.975 274.79L238.555 250.323L237.792 246.563Z" fill="#FFF500"/>
<path d="M283.176 236.116H302.053L298.5 247.355H286.37L283.176 236.116Z" fill="#FFF500"/>
<path d="M293.084 172.073L291.387 171.799L246.188 450.221L247.886 450.498L293.084 172.073Z" fill="#FFF500"/>
<path d="M263.102 253.299L289.376 244.484L289.936 246.153L263.661 254.968L263.102 253.299Z" fill="#FFF500"/>
<path d="M311.461 182.719C317.265 184.384 318.678 191.611 324.811 192.495C329.86 193.223 335.313 189.067 339.476 186.672C346.516 182.633 349.807 191.024 356.407 191.06C362.81 191.084 369.687 187.247 369.208 180.005C357.475 190.936 346.368 165.358 333.166 174.194C331.005 175.639 327.88 179.617 325.045 177.406C322.209 175.193 320.061 172.05 318.283 170.144C316.504 168.239 312.348 166.012 307.612 166.546C302.876 167.082 296.248 173.741 292.868 172.882V188.497C300.921 191.072 301.388 179.85 311.461 182.719Z" fill="#FFF500"/>
<path d="M434.522 474.498C432.912 477.282 430.91 479.753 428.599 481.818C423.975 485.939 418.142 488.425 411.79 488.425C407.119 488.425 402.74 487.062 398.904 484.705C397.527 483.86 396.21 482.906 394.988 481.818C392.676 479.753 390.676 477.282 389.066 474.498C387.452 477.282 385.449 479.753 383.143 481.818C378.519 485.939 372.687 488.425 366.329 488.425C359.977 488.425 354.156 485.939 349.532 481.818C347.221 479.753 345.213 477.282 343.604 474.498C341.989 477.282 339.989 479.753 337.682 481.818C333.059 485.939 327.226 488.425 320.875 488.425C314.523 488.425 308.69 485.939 304.065 481.818C301.76 479.753 299.758 477.282 298.146 474.498C296.535 477.282 294.531 479.753 292.219 481.818C287.596 485.939 281.765 488.425 275.417 488.425C269.062 488.425 263.232 485.939 258.611 481.818C256.299 479.753 254.297 477.282 252.682 474.498C251.073 477.282 249.072 479.753 246.761 481.818C242.14 485.939 236.307 488.425 229.952 488.425C227.926 488.425 225.983 488.089 224.09 487.613C220.035 486.592 216.298 484.624 213.15 481.818C210.839 479.753 208.839 477.282 207.225 474.498L207.222 491.374C213.403 497.132 221.322 500.587 229.951 500.587C237.989 500.587 245.387 497.569 251.356 492.512C251.801 492.133 252.256 491.772 252.685 491.374C253.112 491.772 253.564 492.126 254.005 492.502C259.975 497.564 267.376 500.587 275.416 500.587C283.517 500.587 290.969 497.518 296.967 492.382C297.36 492.045 297.765 491.73 298.146 491.374C298.525 491.724 298.927 492.04 299.317 492.377C305.311 497.518 312.768 500.587 320.874 500.587C329.045 500.587 336.555 497.468 342.572 492.257C342.912 491.96 343.271 491.681 343.604 491.374C343.932 491.681 344.291 491.954 344.63 492.248C350.647 497.463 358.154 500.587 366.329 500.587C374.968 500.587 382.887 497.132 389.065 491.374C395.243 497.132 403.157 500.587 411.79 500.587C420.435 500.587 428.342 497.132 434.528 491.374L434.522 474.498Z" fill="white"/>
<path d="M552.121 369.116C552.84 371.871 556.199 372.279 557.399 369.744C557.399 369.744 566.401 353.671 571.107 343.746C573.613 360.338 615.737 639.341 620.964 673.952C616.673 675.607 612.093 676.542 607.315 676.542H482.958C486.077 657.901 536.106 358.764 540.099 334.917C544.006 349.943 552.121 369.116 552.121 369.116Z" fill="#1F1A16"/>
<path d="M526.054 244.271C526.054 258.308 549.963 265.083 549.963 277.857C549.963 292.42 525.178 286.328 524.061 304.334C522.941 322.338 551.652 330.976 556.493 341.289C559.445 347.577 555.137 354.275 550.888 355.978C564.537 354.473 567.189 340.644 559.102 330.799C551.015 320.956 546.835 322.384 546.686 311.986C546.536 301.591 576.098 299.017 576.098 283.973C576.098 269.315 552.588 261.374 551.566 246.745C550.661 233.825 574.682 234.024 574.682 219.814C574.682 209.334 560.786 198.403 548.344 198.171C570.64 227.594 526.054 225.937 526.054 244.271Z" fill="#DA241D"/>
<path d="M647.987 633.699C647.987 650.371 638.357 664.806 624.382 671.824C622.638 672.703 620.832 673.47 618.958 674.105C614.663 675.559 610.083 676.383 605.302 676.383H480.952H475.106H439.593H374.562C360.16 676.383 347.026 681.804 336.989 690.653L331.883 695.755C329.14 698.869 326.773 702.304 324.749 705.962C322.723 702.304 320.358 698.869 317.615 695.755L312.511 690.653C302.472 681.804 289.337 676.383 274.933 676.383H202.04H174.392H168.55H44.194C39.4159 676.383 34.837 675.559 30.5451 674.105C28.6704 673.47 26.8605 672.703 25.1128 671.824C11.1442 664.806 1.51123 650.371 1.51123 633.699V2.03906C217.004 2.03906 432.496 2.03906 647.987 2.03906V633.699Z" stroke="#1F1A16" stroke-width="1.71646"/>
</g>
<defs>
<clipPath id="clip0_806_108920">
<rect width="649" height="708" fill="white" transform="translate(0.249023)"/>
</clipPath>
</defs>
</svg>
