<svg id="id-svg" width="570" height="712" viewBox="0 0 570 712" fill="none" xmlns="http://www.w3.org/2000/svg">
<g clip-path="url(#clip0_806_108849)">
<path d="M569.855 0H0.25478V594.235C-0.0300199 608.475 1.96358 620.152 8.08678 628.696C14.4948 637.667 25.1748 642.651 41.8356 642.651C43.1172 642.651 44.3988 642.651 45.6804 642.509H220.12C266.4 643.078 280.783 674.976 287.048 712C293.314 674.549 305.703 644.218 352.125 642.509H530.98C546.786 640.658 556.896 634.107 562.735 624.709C567.861 616.592 569.855 606.339 569.712 594.52L569.855 0Z" fill="black"/>
<path d="M565.298 4.55646V594.662C565.441 606.481 563.305 615.595 559.033 622.43C553.479 631.259 543.938 636.528 530.837 638.094H351.983C310.972 639.518 294.881 662.444 286.906 690.782C278.932 663.584 262.129 638.664 220.121 638.094L41.8358 638.236C27.4534 638.236 17.6278 634.249 11.7894 626.275C6.8054 619.297 4.52699 609.187 4.81179 594.377V4.41406L565.298 4.55646Z" fill="#D20000"/>
<path d="M233.649 435.887L233.791 462.943L239.345 469.778H332.475L338.028 462.943L338.171 435.887H308.694V441.725H292.033L285.91 448.988L279.787 441.725H263.126V435.745L233.649 435.887ZM404.671 435.887V477.468C405.383 481.313 406.95 484.73 411.079 486.297V489.145L447.676 515.061V521.185L479.431 544.681L479.716 570.597H91.9609L92.2457 544.681L124.001 521.185V515.061L160.598 489.145V486.297C164.727 484.73 166.151 481.313 167.006 477.468V435.745H163.019V390.034H165.439C162.307 387.756 159.743 384.623 158.035 381.205L157.465 383.911C156.611 390.034 157.038 396.3 158.462 402.281C159.743 407.834 158.462 411.679 152.054 411.679C147.924 415.809 144.079 414.954 140.662 411.964C137.102 412.533 133.684 410.113 132.972 406.553C129.839 405.271 129.412 400.999 133.969 396.727C138.526 392.455 138.241 386.759 137.956 381.205C136.959 378.642 137.956 375.937 140.092 374.37C137.529 369.529 139.523 363.405 144.364 360.985C147.497 359.418 151.342 359.561 154.332 361.412H156.468C159.174 353.01 166.436 346.745 175.123 345.321V345.036H175.265C170.851 334.925 175.55 322.109 189.79 316.698H196.625L200.612 310.86V67.3557H205.596L220.406 53.9701L235.215 67.2133H240.484V77.8933H248.031V67.4981H259.851V51.2645H275.515L285.625 42.5781L295.593 51.4069H311.257V67.6405H323.076V78.0357H330.623V67.3557H335.892L350.702 54.1125L365.511 67.3557H370.495V310.86L374.625 316.983H381.318C395.7 322.394 400.257 335.21 395.843 345.321H396.127V345.605C404.814 347.029 412.076 353.153 414.782 361.697H416.918C421.475 358.706 427.74 359.988 430.731 364.545C432.724 367.535 432.867 371.522 431.158 374.655C433.294 376.221 434.291 378.927 433.294 381.49C433.009 387.044 432.867 392.455 437.281 397.012C441.695 401.569 441.411 405.556 438.278 406.837C437.566 410.397 434.148 412.676 430.588 412.249C427.171 415.239 423.183 415.951 419.196 411.964C412.788 411.964 411.507 408.261 412.788 402.565C414.355 396.585 414.639 390.319 413.785 384.196L413.215 381.49C411.507 385.05 408.943 388.041 405.811 390.319H408.089V435.745H404.671V435.887Z" fill="black"/>
<path d="M202.036 331.934L210.011 329.656C213.286 327.662 217.416 327.662 220.833 329.371H224.393C225.96 328.374 228.096 328.232 229.52 327.235C230.944 326.238 231.798 325.242 233.08 326.381V329.798C234.361 330.51 235.928 330.368 237.067 329.656C239.63 329.371 241.766 327.947 243.048 325.811C244.187 324.53 246.038 324.387 247.32 325.526L247.604 325.811L247.035 329.086C251.022 330.083 254.582 330.653 254.582 327.235C257.145 324.957 259.566 323.533 261.417 327.235C262.984 328.802 264.55 329.941 267.398 327.235C268.252 326.381 269.534 326.381 270.388 327.235C270.958 329.086 272.524 329.086 275.088 327.235C276.227 329.371 277.651 330.795 281.068 327.235C282.777 326.381 284.771 326.381 286.622 327.235C289.185 328.944 292.745 332.219 291.748 327.235C292.176 325.384 293.742 324.102 295.451 327.235C296.875 328.802 298.441 330.226 299.865 327.52C300.72 326.523 302.286 326.381 303.283 327.235C303.425 327.378 303.71 327.662 303.71 327.805C304.992 330.083 306.558 330.653 307.555 328.09C308.836 324.814 310.118 324.957 311.4 328.374C312.681 328.802 314.105 328.944 315.387 328.802C317.238 327.662 319.089 326.808 320.94 329.086L323.788 328.802L323.504 326.381H326.636L328.488 329.371C329.769 330.368 330.339 330.51 330.624 329.514C331.763 328.09 332.902 328.09 334.184 329.798C337.174 330.795 338.598 329.941 338.313 327.52L341.873 326.808L346.857 329.371C347.427 330.51 348.851 331.08 350.132 330.51C350.56 330.368 350.844 329.941 351.129 329.514L351.699 326.666C353.265 325.526 354.689 324.957 356.256 327.805L358.534 329.371C360.1 330.795 361.382 330.795 362.236 329.514L363.091 327.947H366.651L369.499 330.795L374.056 331.08L378.897 330.653L380.891 335.637L379.467 337.203L373.344 336.206C371.065 340.763 368.644 340.336 366.366 335.067H363.376L361.524 338.912L359.673 335.352L357.11 335.21L356.256 337.915L354.404 335.779L352.126 336.491L350.702 339.624L348.708 336.206L345.86 335.352L345.148 338.485L343.297 335.922H340.164L339.31 340.194L336.889 335.922L334.326 335.779C334.041 337.346 332.902 337.346 330.908 335.922C328.63 333.928 327.491 335.067 326.636 336.634C323.219 339.339 321.937 336.918 320.228 335.637C318.947 336.918 317.808 336.918 316.953 335.637L315.672 336.206C313.963 334.64 312.824 335.067 312.539 337.203C311.257 338.058 309.691 337.915 308.694 336.776C307.697 335.21 306.843 335.067 305.846 336.491C305.419 338.058 304.137 338.2 301.716 337.061L300.435 339.339L297.302 336.349L294.596 336.064L292.888 338.2L289.897 336.491C289.328 340.051 287.334 339.909 284.059 335.779C283.062 334.213 281.923 334.213 280.926 335.494L280.214 338.342L278.363 336.064L276.227 335.922L274.803 338.485L273.664 338.77L271.955 336.206C269.534 333.928 268.537 335.067 268.395 337.488L270.958 343.184C268.395 342.614 266.686 340.478 265.689 336.918H263.98C260.99 338.912 259.566 337.488 258.284 335.352C257.003 333.216 256.006 334.07 254.724 335.067C253.3 338.342 250.31 338.058 245.896 334.355C244.756 332.077 243.617 332.931 242.478 334.07L241.624 336.349C237.209 337.346 234.361 336.776 233.222 334.07C232.51 333.501 231.371 333.643 230.801 334.355L229.377 336.491C228.665 338.058 227.384 338.2 225.39 337.203L222.257 333.786C221.972 333.074 221.118 332.931 220.406 333.216C220.264 333.358 220.121 333.501 219.979 333.643C217.7 334.782 216.276 333.928 215.564 331.365C215.137 330.226 213.713 329.656 212.574 330.083C212.147 330.226 211.72 330.653 211.577 330.938L203.176 333.928C201.182 334.213 200.897 333.358 202.036 331.934Z" fill="#A15A41"/>
<path d="M244.613 269.421C246.464 266.716 249.454 265.434 251.163 266.716C252.872 267.997 252.872 271.273 251.163 273.836C249.454 276.399 246.322 277.823 244.613 276.541C242.904 275.26 242.762 272.127 244.613 269.421ZM327.062 269.421C325.211 266.716 322.221 265.434 320.512 266.716C318.803 267.997 318.803 271.13 320.512 273.836C322.221 276.541 325.354 277.823 327.062 276.541C328.771 275.26 328.771 272.127 327.062 269.421Z" fill="#009AFF"/>
<path d="M285.91 227.413C287.903 227.413 289.754 226.131 290.466 224.28H281.353C282.065 226.131 283.916 227.413 285.91 227.413ZM285.91 203.632C287.903 203.632 289.754 204.913 290.466 206.765H281.353C282.065 204.913 283.916 203.632 285.91 203.632ZM291.321 275.544C290.609 273.408 288.9 266.715 285.91 266.573C282.919 266.715 281.21 273.408 280.498 275.544C279.644 278.534 279.359 282.237 282.065 284.515C284.343 286.509 287.761 286.509 290.039 284.515C292.46 282.237 292.318 278.534 291.321 275.544Z" fill="#D20000"/>
<path d="M296.731 379.638C296.304 382.771 295.592 385.761 294.737 388.894V389.037H391.854C398.689 389.037 404.955 385.477 408.373 379.638H296.731ZM179.678 389.037H276.795L276.937 388.894C278.931 386.046 280.64 382.913 281.779 379.638H163.16C166.577 385.477 172.843 389.037 179.678 389.037ZM409.369 361.696C406.379 355.145 399.971 350.873 392.851 350.446C389.861 353.864 385.873 356.285 381.459 357.566H295.449C295.877 358.848 296.161 360.272 296.446 361.696H409.369ZM280.213 361.696C279.501 360.272 278.646 358.848 277.649 357.566H189.789C185.374 356.285 181.529 353.864 178.539 350.446C171.419 350.873 165.011 355.145 162.021 361.696H280.213Z" fill="#008E1F"/>
<path d="M349.278 66.643H345.006L349.278 62.6558V66.643ZM352.553 66.643H356.825L352.553 62.6558V66.643ZM356.113 125.312L350.844 109.933L345.575 125.312H356.113ZM345.433 84.3006L350.702 99.6798L355.971 84.3006H345.433ZM357.964 112.638V97.1166L353.55 104.949L357.964 112.638ZM343.582 97.1166V112.638L347.996 104.806L343.582 97.1166ZM359.815 79.8862H341.731C340.591 79.8862 339.737 80.883 339.737 81.8798V127.875C339.737 129.014 340.591 129.869 341.731 129.869H359.815C360.955 129.869 361.809 128.872 361.809 127.875V81.8798C361.951 80.7406 360.955 79.8862 359.815 79.8862ZM335.18 142.257V263.155L335.465 263.44C337.886 261.589 341.446 262.016 343.439 264.437C343.582 264.579 343.724 264.864 343.867 265.149V159.345C343.867 158.064 344.863 156.925 346.145 156.782H353.407C354.689 156.925 355.686 157.921 355.686 159.345V285.227C358.819 284.657 361.667 286.793 362.236 289.926C362.521 292.062 361.667 294.198 359.958 295.48C362.094 298.47 364.23 301.461 366.223 304.451V142.257H335.18ZM348.566 279.958L350.844 282.949V161.624H348.566V279.958ZM335.18 71.7694H366.366V137.985H335.18V71.7694ZM153.905 370.097C153.905 372.803 151.769 374.939 149.206 374.939C146.5 374.939 144.507 372.803 144.507 370.097C144.507 367.392 146.643 365.256 149.206 365.256C151.769 365.398 153.905 367.534 153.905 370.097ZM427.455 370.097C427.455 372.803 425.319 374.939 422.614 374.939C419.908 374.939 417.772 372.803 417.772 370.097C417.772 367.392 419.908 365.256 422.614 365.256C425.319 365.398 427.455 367.534 427.455 370.097ZM290.182 190.104C290.182 192.382 288.331 194.233 286.052 194.233C283.774 194.233 281.923 192.382 281.923 190.104C281.923 187.825 283.774 185.974 286.052 185.974C288.331 185.974 290.182 187.825 290.182 190.104ZM226.102 125.312L220.833 109.933L215.564 125.312H226.102ZM215.707 84.3006L220.975 99.6798L226.244 84.3006H215.707ZM227.953 112.638V96.9742L223.539 104.806L227.953 112.638ZM213.713 96.9742V112.496L218.127 104.664L213.713 96.9742ZM383.311 410.254L390.574 403.561H376.191L383.311 410.254ZM383.311 415.381L376.049 422.073H390.431L383.311 415.381ZM388.011 412.817L394.703 420.08V405.697L388.011 412.817ZM378.612 412.817L371.919 420.08V405.697L378.612 412.817ZM188.366 410.254L181.103 403.561H195.486L188.366 410.254ZM188.366 415.381L195.628 422.073H181.246L188.366 415.381ZM183.667 412.817L176.974 420.08V405.697L183.667 412.817ZM193.065 412.817L199.758 420.08V405.697L193.065 412.817ZM288.473 389.891H282.35C289.612 380.493 290.324 367.534 284.059 357.424H289.897C290.324 358.278 298.014 375.224 288.473 389.891ZM292.46 244.358H279.359C262.841 263.582 250.025 288.075 239.203 316.84H267.825L272.667 312.568C273.948 311.571 274.375 310.717 273.948 310.005L269.534 303.739C268.395 302.885 268.11 301.176 268.964 300.037C270.815 297.758 274.518 296.904 278.363 296.904C275.087 294.91 275.657 290.638 280.926 291.92L283.347 291.065C280.214 290.211 277.508 288.217 275.799 285.369C273.236 280.813 274.233 276.398 276.227 270.987C277.366 267.997 278.932 265.291 280.926 262.87C276.511 260.022 275.23 254.184 278.078 249.912C280.926 245.497 286.764 244.216 291.036 247.064C295.451 249.912 296.732 255.75 293.884 260.022C293.03 261.304 291.891 262.443 290.467 263.297C292.318 265.576 293.884 268.281 295.023 271.129C297.017 276.398 298.014 280.955 295.451 285.512C293.742 288.36 291.036 290.353 287.903 291.208L290.324 292.062C295.593 290.781 296.163 295.053 292.887 297.046C296.732 297.189 300.435 297.901 302.286 300.179C303.14 301.318 302.855 303.027 301.716 303.881L297.444 310.147C297.017 310.859 297.444 311.713 298.726 312.71L303.71 316.982H332.332C321.795 288.217 308.979 263.725 292.46 244.358ZM418.199 377.929C417.772 382.059 417.63 386.046 420.335 389.464C420.905 384.765 421.047 380.493 418.199 377.929ZM417.772 396.157C417.345 400.286 417.203 404.273 419.908 407.833C420.478 402.992 420.62 398.72 417.772 396.157ZM428.452 396.157C428.025 400.286 428.025 404.273 430.588 407.833C431.158 402.992 431.3 398.72 428.452 396.157ZM423.183 387.755C422.756 391.885 422.614 395.729 425.319 399.432C425.889 394.59 426.031 390.318 423.183 387.755ZM426.316 378.214C425.889 382.344 425.889 386.331 428.452 389.891C429.022 385.049 429.164 380.777 426.316 378.214ZM297.302 366.68C297.444 369.243 297.444 371.806 297.302 374.369H412.788V366.68H297.302ZM282.35 366.68H158.747V374.369H282.919C283.204 371.949 283.062 369.243 282.35 366.68ZM153.763 396.157C150.915 398.72 151.199 402.992 151.627 407.833C154.332 404.273 154.047 400.286 153.763 396.157ZM148.351 387.755C145.503 390.318 145.788 394.59 146.215 399.432C148.921 395.872 148.779 391.885 148.351 387.755ZM153.335 378.072C150.487 380.635 150.772 384.907 151.199 389.606C153.905 386.189 153.763 382.201 153.335 378.072ZM145.361 378.214C142.513 380.777 142.798 385.049 143.225 389.749C145.931 386.331 145.788 382.344 145.361 378.214ZM143.083 396.157C140.235 398.72 140.519 402.992 140.947 407.833C143.652 404.273 143.51 400.286 143.083 396.157ZM284.771 434.605L280.641 438.592L285.91 444.003L290.182 440.158L284.771 434.605ZM283.631 411.963V396.299H266.401L271.243 401.995H279.644V409.969L266.971 420.365V437.737H278.363L282.492 433.038L278.79 429.478L277.223 431.757H273.379V421.219L283.631 411.963ZM251.734 407.691L249.74 409.685L252.873 412.96L254.867 410.966L251.734 407.691ZM249.313 420.507L238.491 410.539L235.785 412.675L246.18 422.073H260.99V416.235L249.313 420.507ZM259.708 396.157H243.759V405.128L255.009 399.574L267.54 411.963L271.812 408.83L259.708 396.157ZM236.924 402.849L237.067 396.157H220.691L220.548 396.014V404.701L222.684 404.843V398.862H233.649C235.073 399.289 235.215 400.429 234.219 402.137L220.548 415.808V422.216H234.503L227.668 416.377L227.811 411.821M216.134 428.624V394.448H212.289V431.614H262.983V428.766H216.134M287.903 396.157V411.821L292.033 409.827V401.853H300.435L305.276 396.157H287.903ZM300.435 425.633L300.577 431.472H297.017L284.486 419.795L281.211 422.358L296.732 437.88L306.558 437.168V418.798L300.435 425.633ZM319.659 407.833L316.526 411.109L318.519 413.102L321.652 409.827L319.659 407.833ZM333.044 410.681L322.222 420.507L310.403 416.377V422.216H325.212L335.75 412.817L333.044 410.681ZM314.39 396.157L291.891 419.51L294.596 421.646L316.811 399.574L328.06 405.128V396.157H314.39ZM351.271 404.701V396.014L350.987 396.157H334.611L334.753 402.849L343.867 411.821L344.009 416.377L337.174 422.216H351.271V415.808L337.601 402.137C336.747 400.286 336.889 399.289 338.171 398.862H349.135V404.843M355.686 394.448V428.624H308.836V431.472H359.531V394.448H355.686ZM223.254 463.939V437.31H218.839V471.344H226.814C224.393 469.635 223.111 466.929 223.254 463.939ZM220.833 475.473L226.671 481.597H231.513V475.473H220.833ZM214.71 473.907V434.747H212.431L212.716 474.619C213.571 479.176 216.703 483.163 220.833 485.157V496.406H223.111V484.445C218.839 482.451 215.707 478.606 214.71 473.907ZM207.447 474.192V434.035H171.99V474.761C172.132 478.321 170.993 482.024 168.999 484.872H211.577C209.156 481.881 207.732 478.179 207.447 474.192ZM165.155 489.713H214.71V499.966H165.155V489.713ZM348.708 437.31V463.939C348.851 466.787 347.569 469.635 345.291 471.344H353.265V437.31H348.708ZM340.307 475.473V481.597H345.148L350.987 475.473H340.307ZM357.252 434.747V473.907C356.255 478.464 353.123 482.451 348.851 484.445V496.406H351.271V485.157C355.543 483.163 358.534 479.176 359.388 474.619L359.531 434.747H357.252ZM400.115 474.761V434.035H364.657V474.192C364.23 478.037 362.806 481.881 360.527 485.014H403.105C400.969 482.024 399.972 478.464 400.115 474.761ZM357.252 489.713H406.95V499.966H357.252V489.713ZM411.364 494.27V503.953H351.271L344.721 497.403L344.009 485.869C335.18 486.296 330.339 482.736 331.478 473.053H240.484C241.623 482.593 236.782 486.296 227.953 485.726L227.241 497.261L220.691 503.811H160.455V493.985L133.684 513.637H437.993M96.6602 547.813H475.444V566.609H96.6602V547.813ZM448.103 526.737V536.705H123.859V526.737L101.359 543.541H470.603L448.103 526.737ZM128.273 517.481H443.547V532.718H128.273V517.481ZM290.182 138.697C290.182 140.976 288.331 142.827 286.052 142.827C283.774 142.827 281.923 140.976 281.923 138.697C281.923 136.419 283.774 134.568 286.052 134.568C288.331 134.568 290.182 136.561 290.182 138.697ZM312.681 163.617C312.681 165.896 310.83 167.747 308.551 167.747C306.273 167.747 304.422 165.896 304.422 163.617C304.422 161.339 306.273 159.488 308.551 159.488C310.83 159.488 312.681 161.339 312.681 163.617ZM266.686 163.617C266.686 165.896 264.835 167.747 262.556 167.747C260.278 167.747 258.427 165.896 258.427 163.617C258.427 161.339 260.278 159.488 262.556 159.488C264.835 159.488 266.686 161.339 266.686 163.617ZM287.049 162.621V146.672H285.055V162.621H270.246V164.614H285.055V180.563H287.049V164.614H301.147V162.621H287.049ZM285.767 122.606C265.831 122.606 248.601 131.72 240.769 144.536V258.171C242.905 255.893 244.899 253.614 247.035 251.336C246.038 248.345 247.747 245.07 250.737 244.216C251.876 243.789 253.158 243.789 254.297 244.216C255.436 243.077 256.718 241.937 257.857 240.941C257.43 238.805 257.999 236.669 259.566 235.245C258.711 233.821 259.281 231.257 260.563 230.973V226.985C255.294 222.713 254.582 215.024 258.854 209.755C259.708 208.758 260.563 207.904 261.702 207.192C259.993 199.929 269.391 193.521 276.796 196.797L280.356 196.085C277.081 192.952 277.081 187.683 280.214 184.408C280.499 183.981 280.926 183.696 281.353 183.411V168.032H269.391C266.828 171.877 261.702 172.873 257.857 170.31C254.012 167.747 253.015 162.621 255.579 158.776C258.142 154.931 263.268 153.934 267.113 156.497C267.967 157.067 268.822 157.921 269.391 158.776H281.353V145.533C277.508 142.969 276.654 137.843 279.217 133.998C281.78 130.153 286.907 129.299 290.751 131.862C294.596 134.425 295.451 139.552 292.887 143.397C292.318 144.251 291.606 144.963 290.609 145.675V158.918H301.716C304.279 155.073 309.406 154.077 313.251 156.64C317.095 159.203 318.092 164.329 315.529 168.174C312.966 172.019 307.839 173.016 303.995 170.453C303.14 169.883 302.428 169.171 301.716 168.174H290.751V183.411H290.894C294.596 185.974 295.593 191.101 293.172 194.803C292.745 195.373 292.318 195.8 291.891 196.369L295.023 197.081C302.428 193.949 311.969 200.214 310.118 207.477C315.814 211.179 317.38 218.726 313.678 224.422C312.966 225.561 312.111 226.416 311.115 227.27V231.257C312.396 231.542 312.966 234.105 312.111 235.529C313.535 236.953 314.247 239.089 313.82 241.083C315.102 242.222 316.241 243.361 317.523 244.501C320.513 243.504 323.646 245.213 324.643 248.061C325.07 249.2 325.07 250.481 324.643 251.621C326.636 253.757 328.772 255.893 330.766 258.171V144.678C323.076 131.862 305.846 122.891 285.91 122.891L285.767 122.606ZM263.411 228.694H308.409V231.542H263.411V228.694ZM279.359 202.065C282.919 198.505 288.758 198.505 292.318 202.065C292.318 196.654 279.359 196.797 279.359 202.065ZM266.401 205.625L274.518 201.211C272.097 198.648 265.689 200.926 266.401 205.625ZM263.268 222.001V212.745C259.851 213.6 258.854 220.577 263.268 222.001ZM274.518 223.853V211.606C269.961 212.745 268.537 221.859 274.518 223.853ZM297.159 211.464V223.71C303.283 221.859 301.859 212.745 297.159 211.464ZM308.409 212.888V222.144C312.966 220.577 311.969 213.742 308.409 212.888ZM297.159 201.211L305.276 205.625C306.131 200.926 299.723 198.505 297.159 201.211ZM222.257 62.371V66.3582H226.529L222.257 62.371ZM214.567 66.5006H218.839V62.5134L214.567 66.5006ZM220.691 161.481V282.949L222.969 279.958V161.339L220.691 161.481ZM340.734 266.145C340.307 265.718 339.595 265.433 338.883 265.433C338.313 265.433 337.886 265.576 337.316 265.861L340.734 269.848C341.731 268.851 341.731 267.142 340.734 266.145ZM232.795 265.291C232.083 265.291 231.371 265.576 230.943 266.003C229.947 267 229.947 268.709 230.943 269.705L234.361 265.718C233.934 265.433 233.364 265.149 232.795 265.291ZM227.811 270.56V273.835L229.092 272.269C228.665 271.699 228.238 271.272 227.811 270.56ZM205.311 142.257V304.593C207.447 301.603 209.583 298.47 211.719 295.48C209.156 293.629 208.587 290.069 210.438 287.505C211.435 286.081 213.143 285.227 214.852 285.085C215.137 285.085 215.564 285.085 215.849 285.085V159.203C215.849 157.921 216.846 156.782 218.127 156.64H225.39C226.671 156.782 227.668 157.779 227.668 159.203V265.291C227.811 265.006 227.953 264.721 228.238 264.437C230.231 262.016 233.649 261.589 236.212 263.44L236.355 263.297V142.257H236.497H205.454H205.311ZM342.727 272.126L343.867 273.55V270.702C343.582 271.272 343.297 271.699 342.727 272.126ZM214.71 288.645C213.571 288.645 212.574 289.641 212.574 290.781C212.574 291.493 213.001 292.205 213.571 292.632L215.991 289.214C215.849 288.929 215.422 288.645 214.71 288.645ZM358.676 289.641C358.249 288.929 357.537 288.645 356.825 288.645C356.255 288.645 355.828 288.787 355.401 289.214L357.822 292.632C358.819 292.062 359.246 290.781 358.676 289.784C358.819 289.641 358.819 289.641 358.676 289.641ZM288.615 50.5518V56.8174L293.172 53.2574L288.615 50.5518ZM278.647 53.2574L283.204 56.8174V50.5518L278.647 53.2574ZM312.396 105.376L318.235 108.224V99.1102L312.396 105.376ZM253.3 99.1102V108.224L259.139 105.376L253.3 99.1102ZM241.766 126.593V128.872C251.307 120.613 262.983 115.344 275.372 113.777L270.246 108.793V103.525L248.886 81.4526H240.484V121.894C246.75 117.907 253.443 114.632 260.42 112.211L260.563 109.79L252.446 113.35C250.31 114.489 249.028 113.777 248.886 111.357V92.8446C249.455 91.2782 250.31 90.851 252.303 91.563L267.113 105.945V113.065C258.142 116.483 249.598 121.04 241.766 126.593ZM302.713 80.3134L299.438 83.4462L305.561 89.8542L308.551 86.579L302.713 80.3134ZM310.403 72.0542L306.558 76.0414L314.675 83.1614L318.519 79.1742V71.9118H310.403M261.275 72.0542H253.158V79.3166L257.003 83.3038L265.119 76.1838L261.275 72.0542ZM274.803 73.4782L260.278 86.4366L264.977 91.2782L279.644 78.4622L274.803 73.4782ZM276.227 55.8206H264.265V67.9246L267.683 71.9118L271.812 68.779L269.676 66.0734C269.676 64.3646 270.103 62.9406 272.667 63.6526L285.055 76.4686L291.179 71.0574M338.74 284.657C337.601 284.657 336.604 285.654 336.604 286.936C336.604 288.217 337.601 289.214 338.883 289.214C340.164 289.214 341.161 288.217 341.161 286.936C341.161 285.797 340.022 284.8 338.74 284.657ZM233.079 284.657C231.798 284.8 230.801 285.797 230.801 286.936C230.801 288.217 231.798 289.214 233.079 289.214C234.361 289.214 235.358 288.217 235.358 286.936C235.358 285.654 234.361 284.657 233.079 284.657ZM288.046 295.48C288.046 296.619 287.049 297.616 285.91 297.616C284.771 297.616 283.774 296.619 283.774 295.48C283.774 294.341 284.771 293.344 285.91 293.344C287.049 293.344 288.046 294.341 288.046 295.48ZM298.299 302.885C298.299 304.024 297.302 305.021 296.163 305.021C295.023 305.021 294.027 304.024 294.027 302.885C294.027 301.745 295.023 300.749 296.163 300.749C297.302 300.749 298.299 301.745 298.299 302.885ZM275.515 300.749C274.233 300.749 273.236 301.745 273.236 303.027C273.236 304.309 274.233 305.163 275.515 305.163C276.654 305.163 277.651 304.166 277.651 302.885C277.651 301.745 276.796 300.891 275.515 300.749ZM260.847 251.763C259.566 251.763 258.569 252.76 258.569 254.041C258.569 255.323 259.566 256.32 260.847 256.32C262.129 256.32 263.126 255.323 263.126 254.041C263.126 252.76 262.129 251.763 260.847 251.763ZM310.83 251.478C309.548 251.336 308.551 252.475 308.551 253.614C308.551 254.753 309.548 255.893 310.83 255.893C312.111 255.893 313.108 254.896 313.108 253.614C313.108 252.475 312.111 251.621 310.83 251.478ZM286.195 252.617C284.913 252.617 283.916 253.757 284.059 254.896C284.201 256.035 285.198 257.174 286.337 257.032C287.619 257.032 288.615 256.035 288.473 254.753C288.615 253.757 287.476 252.617 286.195 252.617ZM244.614 283.945C245.753 284.373 246.607 285.085 247.319 286.081L249.171 282.521C247.747 283.376 246.18 283.803 244.614 283.945ZM224.251 316.84H233.079L235.358 311.571C232.367 314.561 228.523 316.413 224.251 316.84ZM216.703 299.894V299.325C212.574 305.163 208.587 311.001 204.884 316.84H214.995C212.431 311.856 211.577 306.872 217.985 302.457C219.124 300.037 216.988 300.749 216.703 299.894ZM242.335 295.765C239.915 295.765 237.636 294.341 236.639 291.92C233.934 293.913 230.089 293.344 228.095 290.638C226.956 289.072 226.671 287.221 227.099 285.369C224.251 288.929 221.545 292.632 218.982 296.334C220.691 296.334 222.399 297.189 223.254 298.613C223.966 299.752 225.105 299.182 225.817 298.47L228.095 295.907C229.947 293.913 232.225 294.198 234.076 296.619C234.361 298.185 233.649 300.037 236.355 300.464C237.636 299.609 239.345 299.325 240.911 299.609L242.763 295.765H242.335ZM240.199 282.949C237.209 280.955 236.497 276.825 237.636 272.269C234.931 275.401 232.367 278.534 229.947 281.667C232.937 279.958 236.639 281.097 238.348 283.945C238.491 284.23 238.633 284.373 238.633 284.657C239.487 284.088 240.342 283.661 241.339 283.518C241.054 283.518 240.627 283.233 240.199 282.949ZM254.867 255.465C254.724 255.038 254.724 254.469 254.724 254.041C254.724 253.899 254.724 253.757 254.724 253.472C252.873 255.465 251.022 257.317 249.028 259.31C252.446 257.744 256.433 259.453 257.999 262.87C258.427 263.725 258.569 264.721 258.569 265.718C259.851 263.725 260.99 261.873 262.271 259.88C258.996 260.877 255.721 258.741 254.867 255.465ZM263.126 244.501C262.271 245.355 261.275 247.064 260.278 248.061H260.847C263.98 248.061 266.543 250.339 266.971 253.329C268.822 250.624 270.815 247.206 272.809 244.501H263.126ZM296.163 316.84C289.755 312.995 281.78 312.995 275.372 316.84H296.163ZM335.75 310.005L338.74 316.84H347.569C343.012 315.985 338.883 313.565 335.75 310.005ZM366.793 316.84C362.948 311.001 359.103 305.163 354.974 299.325V299.894C354.831 300.749 352.695 299.894 353.835 302.6C360.1 307.014 359.246 311.856 356.825 316.982H366.793M344.579 285.369C345.433 288.645 343.582 292.062 340.307 292.917C338.455 293.486 336.604 293.059 335.038 292.062C334.041 294.341 331.763 295.765 329.199 295.765L331.051 299.609C332.617 299.325 334.183 299.609 335.607 300.464C338.313 299.894 337.601 298.185 337.886 296.619C339.737 294.198 342.015 293.913 343.867 295.907L346.145 298.47C346.857 299.182 347.996 299.752 348.708 298.613C349.563 297.189 351.271 296.334 352.98 296.334C350.132 292.774 347.427 289.072 344.579 285.512M322.507 282.521L324.358 286.081C325.07 285.085 325.924 284.373 327.063 283.945C325.497 283.945 323.931 283.376 322.507 282.521ZM334.041 272.269C335.323 276.825 334.468 280.955 331.478 282.949C331.051 283.233 330.766 283.376 330.339 283.518C331.335 283.661 332.19 284.088 333.044 284.657C334.326 281.525 338.028 279.958 341.161 281.382C341.446 281.525 341.588 281.525 341.873 281.667C339.31 278.534 336.747 275.401 334.041 272.269ZM316.953 253.614C316.953 254.326 316.811 254.896 316.668 255.465C315.671 258.741 312.254 260.592 308.979 259.595C310.403 261.589 311.684 263.725 312.966 265.861C312.966 264.864 313.108 263.867 313.535 263.013C315.102 259.595 319.089 258.029 322.507 259.453C320.798 257.601 318.947 255.608 316.953 253.614ZM308.551 244.501H298.868C300.862 247.064 302.855 250.481 304.849 253.329C305.134 250.197 307.839 247.776 310.972 247.776C310.26 246.921 309.406 245.355 308.551 244.501ZM319.231 113.35L311.115 109.79L311.257 112.211C318.235 114.632 324.927 117.907 331.051 121.894V81.595H322.791L301.431 103.667V109.078L296.447 113.92C308.836 115.486 320.513 120.755 330.054 129.014V126.736C322.222 121.04 313.678 116.483 304.564 113.065V105.945L319.231 91.563C321.225 90.851 322.222 91.2782 322.649 92.8446V111.357C322.649 113.777 321.367 114.489 319.231 113.35ZM305.276 55.8206H294.739L287.619 61.0894L293.03 66.643L295.735 64.3646L300.007 68.9214L288.046 79.459V106.373C287.761 107.797 286.337 108.651 284.913 108.366C283.916 108.081 283.204 107.369 282.919 106.373V82.4494L274.66 89.427V105.661L285.91 115.486L294.739 106.515L294.454 80.4558L305.419 70.7726V55.8206M205.169 71.627H236.355V137.843H205.169V71.627ZM167.006 394.59V431.472H208.159V394.59H167.006ZM363.518 394.448V431.472H404.671V394.448H363.518ZM305.988 281.24C303.14 281.809 300.292 278.961 299.438 275.259C298.583 271.557 300.435 267.712 303.283 267.285C306.131 266.715 308.979 269.563 309.833 273.265C310.687 276.968 308.836 280.67 305.988 281.24ZM272.382 275.259C271.67 278.961 268.679 281.809 265.831 281.24C262.983 280.67 261.275 276.968 261.987 273.265C262.699 269.563 265.689 266.715 268.537 267.285H268.395C271.385 267.854 273.094 271.557 272.382 275.259ZM229.804 79.7438H211.719C210.58 79.7438 209.726 80.7406 209.726 81.7374V127.733C209.726 128.872 210.58 129.726 211.719 129.726H229.804C230.943 129.726 231.798 128.729 231.798 127.733V81.8798C231.94 80.7406 230.943 79.7438 229.804 79.7438ZM399.545 426.203H368.644V399.574H399.545V426.203ZM172.132 399.574H203.033V426.203H172.132V399.574ZM436.142 520.329H135.535C133.257 523.035 133.257 527.165 135.535 529.87H436.142C438.563 527.165 438.563 523.035 436.142 520.329ZM466.758 563.049H105.062C102.783 559.489 102.783 554.933 105.062 551.23H466.758C468.467 555.075 468.894 559.632 466.758 563.049Z" fill="#FFD700"/>
</g>
<defs>
<clipPath id="clip0_806_108849">
<rect width="569.6" height="712" fill="white" transform="translate(0.254883)"/>
</clipPath>
</defs>
</svg>
