<svg id="id-svg" width="600" height="708" viewBox="0 0 600 708" fill="none" xmlns="http://www.w3.org/2000/svg">
<path d="M300.798 706.953C300.798 656.6 461.432 678.447 461.432 678.447C590.492 702.09 596.403 590.761 596.403 590.761V3.5166H300.798H5.19336V590.761C5.19336 590.761 11.104 702.09 140.165 678.447C140.239 678.447 300.798 656.6 300.798 706.953Z" fill="#ED1C24" stroke="black" stroke-width="3.74089" stroke-miterlimit="10"/>
<path d="M458.589 173.952L431.131 148.364L109.938 503.075V529.635H129.616L458.589 173.952Z" fill="#AEB0B3" stroke="black" stroke-width="2.24453" stroke-miterlimit="10"/>
<path d="M494.202 101.079L434.647 151.656L454.325 169.986L494.202 101.079Z" fill="#AEB0B3" stroke="black" stroke-width="2.24453" stroke-miterlimit="10"/>
<path d="M434.647 154.724L113.38 511.679" stroke="#84888B" stroke-width="2.24453" stroke-miterlimit="10"/>
<path d="M438.314 158.24L113.081 519.984" stroke="#84888B" stroke-width="2.24453" stroke-miterlimit="10"/>
<path d="M444.299 163.402L117.196 526.867" stroke="#84888B" stroke-width="2.24453" stroke-miterlimit="10"/>
<path d="M440.707 155.098L483.503 114.098" stroke="#84888B" stroke-width="2.24453" stroke-miterlimit="10"/>
<path d="M448.639 162.28L481.933 115.669" stroke="#84888B" stroke-width="2.24453" stroke-miterlimit="10"/>
<path d="M137.397 177.917L164.856 152.255L486.048 506.966V533.601H466.371L137.397 177.917Z" fill="#AEB0B3" stroke="black" stroke-width="2.24453" stroke-miterlimit="10"/>
<path d="M101.709 104.97L161.264 155.621L141.662 173.877L101.709 104.97Z" fill="#AEB0B3" stroke="black" stroke-width="2.24453" stroke-miterlimit="10"/>
<path d="M161.264 158.688L482.606 515.644" stroke="#84888B" stroke-width="2.24453" stroke-miterlimit="10"/>
<path d="M157.598 162.205L482.905 523.874" stroke="#84888B" stroke-width="2.24453" stroke-miterlimit="10"/>
<path d="M151.688 167.368L478.791 530.833" stroke="#84888B" stroke-width="2.24453" stroke-miterlimit="10"/>
<path d="M155.204 159.063L112.483 118.062" stroke="#84888B" stroke-width="2.24453" stroke-miterlimit="10"/>
<path d="M147.348 166.246L114.054 119.56" stroke="#84888B" stroke-width="2.24453" stroke-miterlimit="10"/>
<path d="M55.9951 309.97H544.181L518.593 340.495H55.9951V309.97Z" fill="#AEB0B3" stroke="black" stroke-width="2.24453" stroke-miterlimit="10"/>
<path d="M55.9951 315.356H536.175" stroke="#84888B" stroke-width="2.24453" stroke-miterlimit="10"/>
<path d="M51.2812 320.519H531.761" stroke="#84888B" stroke-width="2.24453" stroke-miterlimit="10"/>
<path d="M70.959 327.926H526" stroke="#84888B" stroke-width="2.24453" stroke-miterlimit="10"/>
<path d="M69.8369 332.715H521.362" stroke="#84888B" stroke-width="2.24453" stroke-miterlimit="10"/>
<path d="M55.9952 340.495C64.4247 340.495 71.258 333.662 71.258 325.233C71.258 316.803 64.4247 309.97 55.9952 309.97C47.5658 309.97 40.7324 316.803 40.7324 325.233C40.7324 333.662 47.5658 340.495 55.9952 340.495Z" fill="#AEB0B3" stroke="black" stroke-width="2.24453" stroke-miterlimit="10"/>
<path d="M73.4277 340.495C79.8621 331.592 80.5354 318.574 73.4277 309.97" stroke="black" stroke-width="2.24453" stroke-miterlimit="10"/>
<path d="M79.4131 340.495C85.8474 331.592 86.5208 318.574 79.4131 309.97" stroke="black" stroke-width="2.24453" stroke-miterlimit="10"/>
<path d="M93.0303 340.495C99.4646 331.592 100.138 318.574 93.0303 309.97" stroke="black" stroke-width="2.24453" stroke-miterlimit="10"/>
<path d="M99.1641 340.495C105.598 331.592 106.272 318.574 99.1641 309.97" stroke="black" stroke-width="2.24453" stroke-miterlimit="10"/>
<path d="M115.924 340.495C122.358 331.592 123.032 318.574 115.924 309.97" stroke="black" stroke-width="2.24453" stroke-miterlimit="10"/>
<path d="M122.06 340.495C128.494 331.592 129.167 318.574 122.06 309.97" stroke="black" stroke-width="2.24453" stroke-miterlimit="10"/>
<path d="M134.853 340.495C141.287 331.592 141.96 318.574 134.853 309.97" stroke="black" stroke-width="2.24453" stroke-miterlimit="10"/>
<path d="M141.811 340.495C148.245 331.592 148.918 318.574 141.811 309.97" stroke="black" stroke-width="2.24453" stroke-miterlimit="10"/>
<path d="M55.9948 329.946C58.598 329.946 60.7083 327.835 60.7083 325.232C60.7083 322.629 58.598 320.519 55.9948 320.519C53.3916 320.519 51.2812 322.629 51.2812 325.232C51.2812 327.835 53.3916 329.946 55.9948 329.946Z" fill="black" stroke="black" stroke-width="2.24453" stroke-miterlimit="10"/>
<path d="M300.798 626.747C340.826 626.747 311.722 519.982 311.722 519.982C306.859 506.815 306.26 450.327 306.26 450.327C306.26 444.267 298.554 441.424 298.554 441.424C298.554 441.424 291.596 443.893 293.092 457.21C293.092 457.21 293.092 513.099 287.556 533.599C287.481 533.599 252.017 626.747 300.798 626.747Z" fill="#D2AB67" stroke="black" stroke-width="2.24453" stroke-miterlimit="10"/>
<path d="M249.548 450.327C249.548 450.327 326.386 450.327 360.877 478.384C360.877 478.384 365.291 484.818 360.877 492.674C360.877 492.674 272.218 482.349 249.548 496.639C249.548 496.639 222.015 477.935 249.548 450.327Z" fill="#D2AB67" stroke="black" stroke-width="2.24453" stroke-miterlimit="10"/>
<path d="M249.548 450.327C272.218 466.114 265.783 489.457 249.548 496.639" stroke="black" stroke-width="2.24453" stroke-miterlimit="10"/>
<path d="M350.702 487.137C350.702 470.976 310.375 457.958 260.547 457.958" stroke="#3F3F3F" stroke-width="2.24453" stroke-miterlimit="10"/>
<path d="M350.702 487.137C350.702 474.493 312.021 464.243 264.287 464.243" stroke="#3F3F3F" stroke-width="2.24453" stroke-miterlimit="10"/>
<path d="M350.702 487.137C350.702 477.261 312.994 469.256 266.308 469.256" stroke="#3F3F3F" stroke-width="2.24453" stroke-miterlimit="10"/>
<path d="M350.702 487.138C350.702 480.778 312.994 475.69 266.308 475.69" stroke="#3F3F3F" stroke-width="2.24453" stroke-miterlimit="10"/>
<path d="M350.702 487.137C350.702 485.416 315.238 475.69 264.287 484.069" stroke="#3F3F3F" stroke-width="2.24453" stroke-miterlimit="10"/>
<path d="M296.758 501.203C303.417 556.269 279.026 570.035 284.264 611.335" stroke="#3F3F3F" stroke-width="2.24453" stroke-miterlimit="10"/>
<path d="M296.758 501.203C296.758 564.349 273.864 574.749 279.924 607.594" stroke="#3F3F3F" stroke-width="2.24453" stroke-miterlimit="10"/>
<path d="M304.166 501.203C311.722 575.497 310.675 599.888 294.215 613.654" stroke="#3F3F3F" stroke-width="2.24453" stroke-miterlimit="10"/>
<path d="M305.138 511.678C315.238 574.001 316.884 599.589 298.03 616.871" stroke="#3F3F3F" stroke-width="2.24453" stroke-miterlimit="10"/>
<path d="M299.227 227.22C339.255 227.22 310.151 120.455 310.151 120.455C305.213 107.362 304.614 50.875 304.614 50.875C304.614 44.8148 296.908 41.9717 296.908 41.9717C296.908 41.9717 289.95 44.4407 291.446 57.7582C291.446 57.7582 291.446 113.647 285.91 134.147C285.91 134.147 250.446 227.22 299.227 227.22Z" fill="#D2AB67" stroke="black" stroke-width="2.24453" stroke-miterlimit="10"/>
<path d="M247.977 50.875C247.977 50.875 324.815 50.875 359.306 78.9316C359.306 78.9316 363.72 85.366 359.306 93.2218C359.306 93.2218 270.647 82.897 247.977 97.1872C247.977 97.1872 220.369 78.4827 247.977 50.875Z" fill="#D2AB67" stroke="black" stroke-width="2.24453" stroke-miterlimit="10"/>
<path d="M247.978 50.875C270.647 66.6615 264.213 90.0047 247.978 97.1872" stroke="black" stroke-width="2.24453" stroke-miterlimit="10"/>
<path d="M349.13 87.6848C349.13 71.5241 308.803 58.5059 258.975 58.5059" stroke="#3F3F3F" stroke-width="2.24453" stroke-miterlimit="10"/>
<path d="M349.13 87.6852C349.13 75.041 310.45 64.791 262.716 64.791" stroke="#3F3F3F" stroke-width="2.24453" stroke-miterlimit="10"/>
<path d="M349.131 87.6851C349.131 77.8092 311.423 69.8037 264.736 69.8037" stroke="#3F3F3F" stroke-width="2.24453" stroke-miterlimit="10"/>
<path d="M349.131 87.6854C349.131 81.3259 311.423 76.2383 264.736 76.2383" stroke="#3F3F3F" stroke-width="2.24453" stroke-miterlimit="10"/>
<path d="M349.13 87.6847C349.13 85.9639 313.667 76.2376 262.716 84.6172" stroke="#3F3F3F" stroke-width="2.24453" stroke-miterlimit="10"/>
<path d="M295.113 101.751C301.772 156.817 277.381 170.583 282.618 211.883" stroke="#3F3F3F" stroke-width="2.24453" stroke-miterlimit="10"/>
<path d="M295.112 101.751C295.112 164.897 272.218 175.297 278.278 208.142" stroke="#3F3F3F" stroke-width="2.24453" stroke-miterlimit="10"/>
<path d="M302.519 101.751C310.076 176.045 309.028 200.436 292.568 214.202" stroke="#3F3F3F" stroke-width="2.24453" stroke-miterlimit="10"/>
<path d="M303.491 112.226C313.592 174.549 315.238 200.136 296.384 217.419" stroke="#3F3F3F" stroke-width="2.24453" stroke-miterlimit="10"/>
</svg>
