<svg id="id-svg" width="596" height="708" viewBox="0 0 596 708" fill="none" xmlns="http://www.w3.org/2000/svg">
<g clip-path="url(#clip0_806_109058)">
<path d="M2.68164 2.0127V560.17C2.68164 600.99 35.7727 634.081 76.5925 634.081H224.414C265.234 634.081 298.325 667.172 298.325 707.992C298.325 667.172 331.416 634.081 372.236 634.081H520.057C560.877 634.081 593.968 600.99 593.968 560.17V2.0127H2.68164Z" fill="#FFD700"/>
<path d="M2.68164 2.0127V560.17C2.68164 600.99 35.7727 634.081 76.5925 634.081H224.414C265.234 634.081 298.325 667.172 298.325 707.992C298.325 667.172 331.416 634.081 372.236 634.081H520.057C560.877 634.081 593.968 600.99 593.968 560.17V2.0127H2.68164Z" stroke="black" stroke-width="4.03609"/>
<path d="M542.553 401.668H43.5889" stroke="black" stroke-width="3.36341" stroke-linecap="round" stroke-linejoin="round"/>
<path d="M142.81 498.567C136.982 498.567 134.073 501.044 132.993 504.159L106.811 544.046C108.439 542.577 110.939 541.618 114.557 541.618H147.245H179.933C184.81 541.618 188.756 539.726 191.222 537.067C193.687 534.409 194.675 530.991 193.618 527.944L183.433 498.567H175.498H142.81ZM72.7878 556.638L44.5352 599.69H79.9455H115.356C117.655 599.69 120.197 597.418 121.872 594.645C123.548 591.871 124.358 588.594 123.207 586.604L114.547 571.626L105.886 556.638H72.7878ZM194.974 366.122C192.404 366.102 189.873 368.262 188.09 371.115L160.268 413.504C162.286 410.596 165.095 408.604 167.825 409.321L233.075 426.453L298.325 443.586V393.114L261.328 383.402L196.078 366.269C195.711 366.173 195.341 366.125 194.974 366.122Z" fill="#FF0000" stroke="black" stroke-width="2.35438" stroke-linecap="round" stroke-linejoin="round"/>
<path d="M114.557 541.618C106.082 540.36 101.216 550.552 106.108 557.024C111.805 566.885 117.505 576.745 123.207 586.604C125.101 590.778 119.878 597.596 124.318 590.918C133.089 577.441 142.07 564.089 150.71 550.533C152.975 547.44 152.349 540.064 147.245 541.618C136.349 541.618 125.453 541.618 114.557 541.618ZM166.721 409.174C159.512 410.452 155.432 420.102 158.465 426.562C170.182 460.356 181.9 494.15 193.618 527.944C194.438 532.173 192.515 535.411 195.567 530.479C204.204 517.447 212.933 504.474 221.513 491.405C223.774 485.543 219.6 479.962 218.219 474.363C211.631 455.362 205.044 436.361 198.453 417.362C187.867 414.678 177.351 411.632 166.721 409.174Z" fill="#8B0000" stroke="black" stroke-width="2.35438"/>
<path d="M453.841 498.567C459.669 498.567 462.578 501.044 463.658 504.159L489.84 544.046C488.211 542.577 485.712 541.618 482.093 541.618H449.405H416.717C411.84 541.618 407.894 539.726 405.429 537.067C402.963 534.409 401.976 530.991 403.032 527.944L413.217 498.567H421.153H453.841ZM523.863 556.638L552.115 599.69H516.705H481.294C478.995 599.69 476.454 597.418 474.778 594.645C473.102 591.871 472.292 588.594 473.443 586.604L482.104 571.626L490.765 556.638H523.863ZM401.676 366.122C404.246 366.102 406.778 368.262 408.561 371.115L436.382 413.504C434.364 410.596 431.555 408.604 428.825 409.321L363.575 426.453L298.325 443.586V393.114L335.323 383.402L400.573 366.269C400.939 366.173 401.309 366.125 401.676 366.122Z" fill="#FF0000" stroke="black" stroke-width="2.35438" stroke-linecap="round" stroke-linejoin="round"/>
<path d="M482.093 541.618C490.568 540.36 495.434 550.552 490.542 557.024C484.844 566.885 479.145 576.745 473.443 586.604C471.549 590.778 476.772 597.596 472.332 590.918C463.56 577.441 454.58 564.089 445.94 550.533C443.675 547.44 444.301 540.064 449.405 541.618C460.301 541.618 471.197 541.618 482.093 541.618ZM429.929 409.174C437.138 410.452 441.218 420.102 438.185 426.562C426.468 460.356 414.75 494.15 403.032 527.944C402.212 532.173 404.135 535.411 401.083 530.479C392.446 517.447 383.717 504.474 375.137 491.405C372.876 485.543 377.05 479.962 378.431 474.363C385.019 455.362 391.606 436.361 398.197 417.362C408.783 414.678 419.299 411.632 429.929 409.174Z" fill="#8B0000" stroke="black" stroke-width="2.35438"/>
<path d="M536.98 46.3672C536.963 46.3996 536.918 46.4952 536.906 46.5148C536.871 46.5726 536.851 46.4895 536.98 46.3672Z" fill="#FF0000"/>
<path d="M43.9145 396.477C44.8256 396.477 45.5938 396.728 46.0166 396.981C46.228 397.107 46.3204 397.217 46.353 397.254L46.8259 400.05V401.616C46.8259 401.295 46.805 401.741 46.3109 402.142C45.8168 402.542 45.016 402.909 43.9145 402.909C41.9057 402.909 40.6982 401.583 40.6982 399.693C40.6982 398.947 41.0809 398.133 41.7808 397.475C42.4808 396.817 43.4479 396.477 43.9145 396.477Z" fill="black"/>
<path d="M546.502 396.477C546.969 396.477 547.936 396.817 548.636 397.475C549.336 398.133 549.719 398.947 549.719 399.693C549.719 401.583 548.511 402.909 546.502 402.909C545.401 402.909 544.6 402.542 544.106 402.142C543.612 401.741 543.591 401.295 543.591 401.616V400.05L544.064 397.254C544.096 397.217 544.189 397.107 544.4 396.981C544.823 396.728 545.591 396.477 546.502 396.477Z" fill="black"/>
<path d="M195.268 314.694C146.469 341.824 97.8637 369.309 49.1593 396.603C48.8918 395.028 46.7157 393.597 43.9145 393.597C41.1133 393.597 37.8184 396.327 37.8184 399.694C37.8184 403.06 40.4119 405.79 43.9145 405.79C47.4172 405.79 49.7059 403.415 49.7059 401.617C49.7059 401.617 178.232 337.476 201.028 327.706C213.742 322.257 238.368 334.602 234.325 361.477H356.091C352.048 334.602 376.674 322.257 389.389 327.706C412.184 337.476 540.711 401.617 540.711 401.617C540.711 403.415 542.999 405.79 546.502 405.79C550.005 405.79 552.598 403.06 552.598 399.694C552.598 396.327 549.303 393.597 546.502 393.597C543.701 393.597 541.525 395.028 541.257 396.603C492.553 369.309 444.457 340.886 395.149 314.694C369.786 301.222 336.836 328.453 336.836 351.965H253.581C253.581 328.903 219.967 300.962 195.268 314.694Z" fill="black" stroke="black" stroke-width="2.69072"/>
<path d="M195.268 314.694C146.469 341.824 97.8637 369.309 49.1593 396.603C48.8918 395.028 46.7157 393.597 43.9145 393.597C41.1133 393.597 37.8184 396.327 37.8184 399.694C37.8184 403.06 40.4119 405.79 43.9145 405.79C47.4172 405.79 49.7059 403.415 49.7059 401.617C49.7059 401.617 176.33 332.006 199.125 322.236C211.84 316.787 245.265 331.629 241.222 358.504H349.67C345.627 331.629 378.577 316.787 391.291 322.236C414.087 332.006 540.711 401.617 540.711 401.617C540.711 403.415 542.999 405.79 546.502 405.79C550.005 405.79 552.598 403.06 552.598 399.694C552.598 396.327 549.303 393.597 546.502 393.597C543.701 393.597 541.525 395.028 541.257 396.603C492.553 369.309 444.457 340.886 395.149 314.694C369.786 301.222 336.836 328.453 336.836 351.965H253.581C253.581 328.903 219.967 300.962 195.268 314.694Z" fill="#FF0000"/>
<path d="M95.3385 367.294L85.2482 377.384H37.8242L47.9144 367.294H95.3385ZM95.3385 362.554L85.2482 352.464H37.8242L47.9144 362.554H95.3385Z" fill="white" stroke="black" stroke-width="1.17719"/>
<path d="M505.689 362.383H46.0498V367.13H505.689V362.383Z" fill="#FF0000" stroke="black" stroke-width="1.68471"/>
<path d="M283.61 325.152C285.078 316.36 297.126 324.275 304.043 328.768L283.61 325.152Z" fill="#FF0000"/>
<path d="M288.571 332.887L292.86 328.894L308.542 334.065L288.571 332.887Z" fill="#FF0000"/>
<path d="M33.6985 19.8179C33.0837 19.8274 32.4947 19.9717 31.9012 20.2488C19.3657 26.1009 52.0816 56.7417 52.0816 56.7417C48.4444 56.1076 42.8343 51.6488 41.119 55.6592C36.8132 65.7266 60.9357 84.9049 71.0848 91.553C71.0848 91.553 56.5901 84.6036 53.9315 89.7032C49.6536 97.9086 81.5114 118.292 81.5114 118.292C75.2376 118.453 74.0559 121.146 74.1645 122.896C74.8777 134.393 95.6941 142.02 108.923 151.758C93.7267 157.775 124.34 176.039 133.476 177.656C118.397 184.998 154.866 202.24 169.128 204.9C156.359 215.44 209.545 236.527 249.85 232.984C251.129 235.226 252.362 237.469 252.709 239.711L70.9167 241.897C70.6881 248.53 70.5251 255.126 76.8026 258.042L125.572 254.174L78.9888 259.387C77.8593 265.319 80.4533 269.621 84.3703 273.345L131.962 264.768L86.052 275.027C87.1723 279.998 87.449 285.531 93.1152 287.471L126.917 278.558L93.956 288.985C94.7857 292.71 94.3341 296.619 99.3375 299.748L138.185 286.631L100.851 301.43C101.037 305.311 102.331 308.898 107.241 311.52L142.894 296.889L107.914 313.538C108.621 316.708 110.413 319.742 116.154 322.283L146.257 306.979L116.323 323.964C117.896 328.482 118.936 333.299 125.404 335.064L207.639 281.754L222.459 287.808L228.324 279.904C225.32 285.476 222.267 291 219.411 296.721L230.342 297.562L226.642 299.243L220.925 308.661C220.925 308.661 222.469 310.796 223.773 310.553C230.944 309.213 238.129 309.596 237.92 309.785C230.037 314.055 228.32 307.614 226.033 320.485C230.963 320.84 235.418 320.009 240.064 319.655C239.749 322.839 238.94 325.941 236.733 328.81C241.251 329.001 245.773 328.849 250.291 327.622L244.458 336.892L251.006 335.106C252.974 336.089 255.486 336.397 258.08 336.598C259.673 339.5 261.126 342.347 265.984 343.073L266.94 346.52C262.374 347.261 260.946 347.929 260.572 350.689C262.675 349.576 266.593 356.167 266.667 360.615C266.729 364.348 261.939 368.371 261.409 367.841C261.938 368.91 263.907 370.943 265.069 371.22C266.139 374.728 270.164 378.094 273.898 378.115C276.578 378.13 280.527 375.498 280.289 373.238C282.811 373.224 285.334 373.011 287.856 370.968C294.121 373.827 299.359 368.725 299.754 364.073C299.952 354.904 303.003 344.971 290.127 346.331C288.301 344.272 286.303 342.416 282.054 343.22L272.217 319.508L282.979 319.676L278.775 327.748L288.361 328.253L284.829 333.886L295.592 337.586L300.049 343.64L302.655 344.061L304.169 348.433C303.389 348.894 301.189 348.228 300.637 350.651C304.468 350.206 306.083 355.938 305.693 360.415C305.472 362.949 303.173 366.653 300.721 367.836C300.467 369.973 304.533 372.444 306.061 373.953C308.911 379.904 313.11 377.632 316.571 376.223C321.974 375.538 322.459 374.637 324.097 373.07C330.679 375.372 335.598 374.023 338.854 363.4C341.554 354.592 338.032 344.41 327.376 346.499L317.622 344.986L304.516 310.132C362.776 311.465 374.191 299.075 395.128 290.162C426.74 285.579 439.403 275.085 458.391 271.611C472.878 268.96 478.897 281.125 492.583 276.299C489.001 273.059 482.463 269.295 479.108 266.061C482.612 266.197 491.637 267.922 491.637 267.922C490.04 264.097 485.563 261.351 481.557 258.431C487.066 256.513 496.561 255.984 504.355 253.984C507.995 253.051 515.464 258.651 515.464 258.651C512.35 251.409 519.232 240.732 495.137 240.689C494.274 239.071 490.925 238.345 485.625 238.313C481.256 236.237 476.598 232.356 472.781 232.133C454.965 231.091 428.044 238.741 422.235 229.631L423.076 234.267L414.867 229.873L419.86 239.385L357.668 239.028C354.76 239.261 343.448 229.762 366.35 218.459C385.871 208.824 398.707 218.248 405.712 221.906C426.428 232.723 449.213 218.049 466.832 200.622C469.799 199.273 478.182 201.582 479.203 197.521C480.059 194.114 476.519 194.847 474.799 190.153C492.947 162.79 513.6 140.216 532.67 116.127C534.196 114.199 532.195 110.476 528.077 111.25C528.077 111.25 569.028 36.5878 553.397 23.5492C546.307 17.6345 539.691 48.2608 537.947 48.6486C537.947 41.8705 540.047 27.8929 536.748 22.845C532.401 16.1928 528.136 34.5073 516.778 56.3738C517.111 47.0023 517.385 35.2511 512.49 34.7325C508.514 34.3113 500.49 54.2823 494.538 64.341C494.538 64.341 496.507 51.2774 491.447 47.6921C487.032 44.5635 469.013 83.0446 467.431 83.7225C468.858 76.9444 469.084 68.283 466.716 65.6443C461.481 59.8103 445.653 96.2648 443.046 98.7108C443.046 98.7108 445.172 87.6237 441.27 84.1956C435.878 79.4585 427.102 101.801 415.939 114.288C416.589 111.037 418.083 102.568 414.037 101.328C407.117 99.2075 400.562 122.652 350.657 165.064C348.83 161.537 330.394 183.159 320.334 191.814L320.45 180.757C338.903 162.453 338.113 146.386 329.72 134.615C312.592 110.593 290.522 113.92 280.972 111.313C278.933 108.357 272.418 102.411 271.933 106.436C271.689 108.461 271.591 110.417 270.745 112.742C229.753 106.453 196.926 100.006 153.488 73.2645C148.841 70.4037 148.254 78.9515 153.488 85.3937C57.0998 48.9068 42.92 19.675 33.6985 19.8179ZM266.793 302.113H272.09L268.222 307.494L266.793 302.113ZM269.231 309.933H276.967L272.511 318.005L269.231 309.933Z" fill="black"/>
<path d="M514.97 346.583L521.886 360.058H505.689V369.454H521.886L514.97 382.929L546.45 364.756L514.97 346.583Z" fill="white" stroke="black" stroke-width="1.17719" stroke-linecap="round" stroke-linejoin="round"/>
<path d="M197.159 395.957V597.235C197.159 611.13 208.424 622.395 222.319 622.395H272.638C286.534 622.395 297.798 633.659 297.798 647.554C297.798 633.659 309.063 622.395 322.958 622.395H373.277C387.173 622.395 398.437 611.13 398.437 597.235V395.957H197.159Z" fill="#FFD700" stroke="black" stroke-width="0.251597"/>
<path d="M209.744 509.178L197.159 530.964V597.23C197.159 611.126 208.433 622.4 222.329 622.4V530.964L209.744 509.178Z" fill="#FF0000"/>
<path d="M234.913 509.178L222.328 530.964V622.4H247.497V530.964L234.913 509.178Z" fill="#008000"/>
<path d="M260.082 509.178L247.497 530.964V622.4H272.646C272.653 622.4 272.659 622.4 272.666 622.4V530.964L260.082 509.178Z" fill="#FF0000"/>
<path d="M285.252 509.178L272.667 530.964V622.4C286.553 622.411 297.796 633.66 297.796 647.549C297.796 647.114 297.815 646.689 297.836 646.26V530.964L285.252 509.178Z" fill="#008000"/>
<path d="M310.422 509.178L297.837 530.964V646.26C298.511 632.966 309.505 622.4 322.966 622.4H323.006V530.964L310.422 509.178Z" fill="#FF0000"/>
<path d="M335.591 509.178L323.006 530.964V622.4H348.175V530.964L335.591 509.178Z" fill="#008000"/>
<path d="M360.759 509.178L348.175 530.964V622.4H373.284C373.304 622.4 373.324 622.4 373.344 622.4V530.964L360.759 509.178Z" fill="#FF0000"/>
<path d="M385.929 509.178L373.345 530.964V622.4C387.212 622.367 398.434 611.105 398.434 597.23V530.823L385.929 509.178Z" fill="#008000"/>
<path d="M335.84 431.711C330.599 431.888 325.712 433.149 320.51 433.829L320.273 436.612C320.995 438.841 321.875 441.082 322.568 443.311C327.455 443.398 332.62 443.974 337.14 442.793C341.621 440.352 345.578 437.393 349.042 434.026C344.211 432.087 339.917 431.572 335.84 431.711Z" fill="#FF0000" stroke="black" stroke-width="0.773204" stroke-linecap="round" stroke-linejoin="round"/>
<path d="M333.092 436.873C328.569 437.956 326.804 436.952 322.625 438.663C326.003 442.246 334.218 441.922 337.039 439.838C339.213 438.232 340.913 436.836 342.739 435.061C340.193 434.039 337.051 435.924 333.092 436.873Z" stroke="black" stroke-width="0.773204" stroke-linecap="round"/>
<path d="M285.945 420.553C282.012 420.676 278.112 421.557 274.282 424.272L275.323 436.612C273.981 440.758 272.069 444.903 271.893 449.049C273.505 455.16 275.914 460.456 280.007 464.073C279.411 469.185 280.99 473.691 283.177 478.013C281.375 478.881 281.216 480.444 280.599 481.806C281.657 485.153 283.328 488.161 286.419 490.45C284.381 496.462 291.609 496.78 297.798 496.78C303.988 496.78 311.215 496.462 309.178 490.45C312.268 488.161 313.94 485.153 314.998 481.806C314.38 480.444 314.221 478.881 312.419 478.013C314.606 473.691 316.185 469.185 315.589 464.073C319.682 460.456 322.091 455.16 323.704 449.049C323.527 444.903 321.615 440.758 320.273 436.612L321.314 424.272C313.654 418.842 305.701 420.752 297.798 421.391C293.847 421.072 289.879 420.431 285.945 420.553Z" fill="#FF0000" stroke="black" stroke-width="0.773204"/>
<path d="M308.694 453.235C308.694 453.235 309.406 449.981 310.908 450.499C312.421 451.022 315.38 450.704 318.254 449.752C317.174 452.923 309.807 455.266 308.694 453.235Z" fill="#C0C0C0" stroke="black" stroke-width="0.773204"/>
<path d="M314.642 450.601C313.555 450.752 312.572 450.777 311.779 450.674C311.598 450.963 311.495 451.313 311.495 451.684C311.495 452.68 312.239 453.492 313.175 453.531C313.183 453.532 313.191 453.531 313.198 453.531C313.264 453.511 313.322 453.479 313.388 453.458C313.418 453.447 313.452 453.443 313.482 453.433C313.747 453.342 314.025 453.248 314.287 453.137C314.297 453.133 314.3 453.117 314.31 453.113C314.716 452.774 314.996 452.272 314.996 451.684C314.996 451.276 314.856 450.906 314.642 450.601Z" fill="black" stroke="black" stroke-width="0.773204"/>
<path d="M313.623 451.208C313.37 451.228 313.129 451.244 312.9 451.243C312.837 451.422 312.799 451.639 312.799 451.891C312.799 452.495 313.011 452.978 313.27 452.978C313.529 452.978 313.741 452.495 313.741 451.891C313.741 451.619 313.697 451.392 313.623 451.208Z" fill="#C0C0C0"/>
<path d="M287.862 444.666C285.975 447.285 285.997 452.807 289.281 462.3C286.369 464.677 286.879 469.306 286.608 473.432C284.308 473.666 283.894 476.005 283.177 478.013C281.375 478.882 281.216 480.445 280.599 481.806C281.657 485.153 283.328 488.162 286.418 490.451C284.381 496.463 291.608 496.78 297.798 496.78C303.988 496.78 311.215 496.463 309.178 490.451C312.268 488.162 313.939 485.153 314.997 481.806C314.38 480.445 314.221 478.882 312.419 478.013C312.1 475.626 310.388 474.695 308.988 473.432C308.717 469.306 309.227 464.677 306.315 462.3C309.599 452.807 309.621 447.285 307.734 444.666C304.643 447.297 301.902 450.183 297.798 450.183C293.694 450.183 290.953 447.297 287.862 444.666Z" stroke="black" stroke-width="0.773202" stroke-linecap="square" stroke-linejoin="round"/>
<path d="M290.103 473.934C290.103 473.934 293.154 472.641 297.798 472.641C302.442 472.641 305.493 473.934 305.493 473.934" stroke="black" stroke-width="0.773202" stroke-linecap="round" stroke-linejoin="round"/>
<path d="M308.886 479.01C312.028 484.59 308.628 487.012 303.485 486.374C304.209 484.106 307.678 483.022 308.886 479.01Z" fill="black"/>
<path d="M286.71 479.01C283.568 484.59 286.968 487.012 292.111 486.374C291.387 484.105 287.919 483.022 286.71 479.01Z" fill="black"/>
<path d="M287.87 444.665C285.983 447.284 285.995 452.81 289.279 462.304C286.367 464.681 286.872 469.312 286.601 473.439C284.301 473.672 283.895 476.001 283.178 478.009C281.375 478.878 281.218 480.453 280.601 481.815C281.659 485.162 283.33 488.164 286.42 490.453C286.42 490.453 289.33 491.505 290.668 491.057C292.007 490.61 296.055 489.59 298.823 489.648C300.976 489.692 304.268 490.588 305.387 491.057C306.507 491.526 309.173 490.453 309.173 490.453C312.263 488.164 313.934 485.162 314.992 481.815C314.374 480.453 314.217 478.878 312.415 478.009C312.096 475.622 310.391 474.701 308.992 473.439C308.721 469.312 309.226 464.681 306.314 462.304C309.598 452.81 309.63 447.284 307.743 444.665C304.652 447.296 301.901 450.182 297.796 450.182C293.692 450.182 290.961 447.296 287.87 444.665Z" stroke="black" stroke-width="0.773202" stroke-linecap="square" stroke-linejoin="round"/>
<path d="M286.901 453.235C286.901 453.235 286.19 449.981 284.688 450.499C283.175 451.022 280.216 450.704 277.342 449.752C278.421 452.923 285.789 455.266 286.901 453.235Z" fill="#C0C0C0" stroke="black" stroke-width="0.773204"/>
<path d="M280.954 450.601C282.04 450.752 283.024 450.777 283.817 450.674C283.997 450.963 284.101 451.313 284.101 451.684C284.101 452.68 283.357 453.492 282.421 453.531C282.413 453.532 282.405 453.531 282.397 453.531C282.332 453.511 282.273 453.479 282.208 453.458C282.177 453.447 282.144 453.443 282.113 453.433C281.849 453.342 281.57 453.248 281.309 453.137C281.299 453.133 281.295 453.117 281.285 453.113C280.88 452.774 280.599 452.272 280.599 451.684C280.599 451.276 280.74 450.906 280.954 450.601Z" fill="black" stroke="black" stroke-width="0.773204"/>
<path d="M281.972 451.208C282.226 451.228 282.467 451.244 282.696 451.243C282.758 451.422 282.797 451.639 282.797 451.891C282.797 452.495 282.584 452.978 282.326 452.978C282.067 452.978 281.854 452.495 281.854 451.891C281.854 451.619 281.899 451.392 281.972 451.208Z" fill="#C0C0C0"/>
<path d="M321.314 424.273C331.637 422.375 341.961 422.743 352.285 402.184C350.109 416.161 350.919 430.328 320.508 433.826L321.314 424.273Z" fill="#FF0000" stroke="black" stroke-width="0.773202" stroke-linejoin="round"/>
<path d="M274.282 424.273C263.958 422.375 253.634 422.743 243.311 402.184C245.486 416.161 244.677 430.328 275.087 433.826L274.282 424.273Z" fill="#FF0000" stroke="black" stroke-width="0.773202" stroke-linejoin="round"/>
<path d="M285.946 420.554C282.012 420.677 278.112 421.558 274.282 424.273L275.323 436.612L283.911 444.297C284.099 445.595 284.721 446.872 285.331 448.163C285.865 446.349 286.824 445.431 287.862 444.666C288.046 446.813 287.349 448.469 289.281 451.587C289.535 449.437 290.325 448.318 291.34 447.622C291.587 449.28 291.357 451.195 293.161 451.981C293.841 450.423 294.43 449.816 294.983 449.715C296.186 450.134 296.96 451.467 297.798 452.646C298.637 451.467 299.411 450.134 300.614 449.715C301.166 449.816 301.755 450.423 302.435 451.981C304.239 451.195 304.01 449.28 304.257 447.622C305.272 448.318 306.062 449.437 306.315 451.587C308.248 448.469 307.551 446.813 307.735 444.666C308.772 445.431 309.732 446.349 310.266 448.163C310.875 446.872 311.498 445.595 311.686 444.297L320.273 436.612L321.314 424.273C313.655 418.843 305.701 420.753 297.798 421.392C293.847 421.072 289.879 420.432 285.946 420.554Z" fill="#FF0000" stroke="black" stroke-width="0.773202" stroke-linecap="round" stroke-linejoin="round"/>
<path d="M259.757 431.708C264.999 431.885 269.886 433.146 275.088 433.826L275.324 436.609C274.603 438.838 273.722 441.079 273.029 443.308C268.143 443.395 262.978 443.971 258.457 442.79C253.977 440.349 250.02 437.39 246.556 434.023C251.387 432.084 255.681 431.57 259.757 431.708Z" fill="#FF0000" stroke="black" stroke-width="0.773204" stroke-linecap="round" stroke-linejoin="round"/>
<path d="M262.506 436.871C267.028 437.954 268.794 436.951 272.973 438.661C269.594 442.244 261.379 441.92 258.558 439.836C256.385 438.23 254.684 436.834 252.859 435.059C255.405 434.037 258.546 435.922 262.506 436.871Z" stroke="black" stroke-width="0.773204" stroke-linecap="round"/>
<path d="M290.66 491.059C296.037 501.316 300.92 500.688 305.396 491.059C300.278 488.915 295.419 489.467 290.66 491.059Z" fill="#C0C0C0" stroke="black" stroke-width="0.773202" stroke-linecap="round"/>
<path d="M297.912 489.671V492.742Z" fill="#FF0000"/>
<path d="M297.912 489.671V492.742" stroke="black" stroke-width="0.644335" stroke-linecap="round"/>
<path d="M285.586 424.296C285.019 425.761 284.7 427.342 284.7 429.008C284.7 436.242 290.554 442.116 297.788 442.116C305.023 442.116 310.896 436.242 310.896 429.008C310.896 427.343 310.577 425.761 310.01 424.296" stroke="black" stroke-width="0.773202" stroke-linecap="round"/>
<path d="M197.159 395.957V597.235C197.159 611.13 208.424 622.395 222.319 622.395H272.638C286.534 622.395 297.798 633.659 297.798 647.554C297.798 633.659 309.063 622.395 322.958 622.395H373.277C387.173 622.395 398.437 611.13 398.437 597.235V395.957H197.159Z" stroke="black" stroke-width="2.57734"/>
<path d="M381.208 151.497C360.004 172.433 349.892 195.212 348.855 201.447C356.902 190.367 362.872 176.836 371.611 167.75C369.883 173.661 361.988 184.323 359.261 189.581C362.616 188.066 369.132 176.719 371.537 173.531C369.638 178.7 367.293 183.773 365.557 188.96C374.712 176.048 383.964 160.36 391.986 151.282C393.088 149.319 396.771 145.335 393.176 144.423C389.58 143.511 384.344 148.401 381.208 151.497Z" fill="#FF0000"/>
<path d="M468.94 118.907C464.152 119.422 460.511 123.144 456.824 125.921C444.199 136.652 432.851 148.939 422.922 162.151C419.908 166.642 416.42 170.972 414.295 175.959C414.849 176.773 415.743 175.033 416.211 174.741C422.068 168.139 427.69 161.328 433.382 154.58C430.939 158.778 428.316 162.913 426.161 167.256C426.699 168.04 427.593 166.174 428.074 165.89C434.23 158.499 439.986 150.829 446.079 143.428C441.23 150.333 436.581 157.558 433.214 165.259C433.828 165.882 434.293 164.006 434.771 163.741C439.566 156.752 444.05 149.55 449.022 142.682C444.545 149.899 440.638 157.506 436.987 165.154C437.153 166.156 438.073 164.246 438.342 163.961C443.437 156.49 447.893 148.495 453.825 141.673C448.915 149.268 444.207 157.121 440.866 165.532C441.598 165.967 442.087 164.222 442.632 163.84C451.734 150.476 462.796 138.629 472.009 125.35C472.819 123.736 474.071 120.948 472.293 119.548C471.301 118.946 470.08 118.833 468.94 118.907Z" fill="#FF0000"/>
<path d="M497.319 115.996C491.636 116.545 487.228 120.797 482.817 124.06C468.133 136.315 454.99 150.42 443.272 165.527C439.174 171.175 434.815 176.915 432.479 183.537C432.627 184.758 433.718 183.003 433.906 182.634C437.503 177.722 441.159 172.848 444.85 168.002C443.924 170.381 442.011 172.4 441.35 174.834C442.212 175.52 442.604 173.51 443.148 173.149C448.231 165.914 454.175 158.745 460.048 152.541C455.501 158.612 450.484 164.399 446.247 170.662C446.662 171.658 447.65 169.555 448.108 169.348C456.759 159.456 465.343 149.502 474.279 139.865C467.792 148.09 461.266 156.456 455.739 165.396C455.753 166.384 456.904 164.845 457.179 164.576C464.37 156.435 471.283 147.993 477.979 139.477C472.292 148.796 466.312 158.073 460.763 167.445C460.87 168.484 462.088 166.832 462.392 166.489C468.073 159.386 472.992 151.65 478.37 144.296C478.872 143.603 481.425 139.9 479.862 142.348C475.689 149.283 471.076 156.024 467.51 163.283C468.26 163.808 468.945 162.02 469.522 161.615C479.32 149.365 490.113 137.724 498.832 124.624C500 122.394 502.299 119.389 500.503 116.921C499.72 116.039 498.423 115.951 497.319 115.996Z" fill="#FF0000"/>
<path d="M528.997 112.937C517.851 114.727 509.233 123.021 500.924 130.145C488.777 141.318 476.834 152.915 467.016 166.226C464.341 170.136 461.376 174.084 459.722 178.513C460.709 179.287 461.515 177.273 462.262 176.857C466.959 171.746 471.545 166.533 476.276 161.454C475.03 164.065 473.127 166.509 472.177 169.19C473.075 169.509 473.512 167.728 474.121 167.267C477.013 162.92 480.092 158.718 483.802 155.032C481.745 158.395 479.065 161.393 477.253 164.891C489.867 152.093 503.315 137.343 514.818 126.38C505.319 136.709 486.378 156.401 478.315 167.414C477.423 168.631 476.04 170.143 476.276 171.734C480.923 168.639 485.066 163.673 488.868 160.256C488.097 161.855 486.904 163.289 486.335 164.965C501.863 150.999 517.979 132.034 529.397 117.761C530.338 115.261 532.201 112.422 528.997 112.937Z" fill="#FF0000"/>
<path d="M441.685 125.613C435.175 126.674 430.54 131.953 425.867 136.165C414.74 147.07 405.327 159.695 397.565 173.183C395.959 176.389 393.737 179.468 392.821 182.917C393.762 183.267 394.292 181.28 394.986 180.794C403.647 169.325 411.603 157.245 421.2 146.55C415.189 154.378 409.97 162.868 405.592 171.67C405.896 172.717 406.803 170.845 407.133 170.546C410.428 165.818 413.474 160.923 416.712 156.157C414.413 161.408 411.325 166.359 409.418 171.744C409.947 172.593 410.634 170.788 410.963 170.504C415.707 163.063 420.41 155.417 426.087 148.652C421.339 156.132 416.648 163.808 413.391 172.059C414.093 172.67 414.625 170.89 415.044 170.484C423.178 157.796 432.454 145.827 441.181 133.527C442.328 131.469 444.498 129.125 443.64 126.611C443.273 125.927 442.447 125.542 441.685 125.613Z" fill="#FF0000"/>
<path d="M417.711 132.003C412.125 132.626 408.041 137.014 403.921 140.433C391.998 151.797 382.019 165.144 373.703 179.333C372.073 182.595 369.956 185.746 368.889 189.213C369.506 189.944 370.126 188.058 370.602 187.783C379.553 175.713 387.94 163.167 397.961 151.963C391.817 159.959 385.686 168.116 381.07 177.083C384.486 172.996 389.834 165.375 392.737 161.549C390.192 166.104 387.418 170.639 385.601 175.528C391.62 169.196 397.245 159.633 403.059 153.802C398.049 161.406 393.907 169.614 391.161 178.292C398.535 165.337 409.765 149.109 417.963 138.615C418.952 136.901 420.913 134.423 419.487 132.466C419.027 132.033 418.322 131.956 417.711 132.003Z" fill="#FF0000"/>
<path d="M358.869 164.994C348.075 175.856 338.712 188.366 332.239 202.266C332.053 203.333 333.163 202.783 333.353 202.077C341.267 191.794 349.268 181.594 357.8 171.806C351.533 180.471 344.841 188.915 339.428 198.146C339.085 198.472 338.688 200.077 339.554 199.439C342.656 196.295 345.443 192.829 348.267 189.422C347.796 191.869 346.528 194.34 346.438 196.811C347.619 196.394 348.016 194.487 348.798 193.5C354.959 181.991 362.79 171.513 371.37 161.716C372.726 159.711 376.682 154.792 372.683 154.059C369.873 153.802 363.156 161.019 358.869 164.994Z" fill="#FF0000"/>
<path d="M348.835 167.056C341.056 171.092 331.088 182.935 327.046 189.338C330.088 186.74 333.985 183.597 335.928 181.697C332.105 186.824 327.376 191.545 324.397 197.305C324.397 197.305 334.14 187.84 334.656 187.289C331.934 191.306 328.932 195.226 326.51 199.397C335.101 193.433 346.098 178.733 349.875 170.797C350.414 169.599 350.817 167.05 348.835 167.056Z" fill="#FF0000"/>
<path d="M413.15 102.132C409.864 103.25 408.849 107.077 406.631 109.432C399.076 119.697 390.778 129.396 381.536 138.178C377.372 142.448 372.734 146.351 368.574 150.607C368.579 151.834 370.122 150.562 370.592 150.281C372.398 149.116 374.122 147.833 375.827 146.529C375.192 146.918 375.288 148.109 376.173 147.622C381.517 144.509 385.477 139.512 389.532 134.925C391.178 132.96 392.695 130.952 394.357 129.008C392.036 132.743 389.408 136.451 386.726 139.886C386.98 140.903 388.258 139.259 388.534 138.961C394.888 131.767 400.926 124.244 406.917 116.784C402.96 122.944 398.141 128.536 393.62 134.259C392.028 136.621 389.969 138.761 388.723 141.305C389.483 141.799 390.184 139.979 390.825 139.665C393.744 136.416 396.651 132.892 399.518 129.764C398.863 131.564 397.217 133.041 396.806 134.851C397.928 135.096 398.792 133.387 399.686 132.853C401.366 131.211 402.986 129.484 404.72 127.925C404.034 128.272 403.85 129.752 404.888 129.176C410.713 125.774 413.523 118.952 415.126 112.685C415.61 109.532 416.516 105.837 414.842 102.92C414.438 102.404 413.842 101.974 413.15 102.132Z" fill="#FF0000"/>
<path d="M438.984 84.5898C435.99 85.634 434.886 89.169 433.182 91.5793C425.558 105.343 415.997 117.846 407.337 130.963C406.523 131.664 407.513 132.476 408.083 131.551C411.663 128.092 414.719 124.102 417.858 120.242C415.752 123.844 413.295 127.281 411.383 130.973C411.958 131.596 412.786 129.886 413.359 129.575C419.716 122.669 424.44 114.448 429.952 106.873C431.698 104.391 433.726 101.346 435.327 99.2205C431.288 108.876 422.944 116.173 419.109 125.928C419.737 126.55 420.387 124.63 420.92 124.283C423.216 121.264 425.316 118.092 427.622 115.081C426.603 117.377 425.273 119.564 424.48 121.945C425.489 122.094 426.072 119.86 426.867 119.177C429.101 115.928 431.245 112.618 433.456 109.353C431.898 112.703 429.92 115.921 428.642 119.359C429.556 119.705 430.233 117.792 430.954 117.309C436.063 111.196 440.468 103.965 441.581 95.9638C441.568 92.5784 442.176 88.9955 441.181 85.7249C440.784 84.8792 439.907 84.4325 438.984 84.5898Z" fill="#FF0000"/>
<path d="M464.599 67.0057C461.255 68.078 460.024 71.9676 458.314 74.7131C452.238 86.6869 444.598 97.7052 437.166 108.859C439.892 103.818 442.171 98.3168 441.833 92.4625C441.618 89.916 442.534 86.5265 440.424 84.6215C438.478 83.3287 436.773 86.0288 435.737 87.3333C430.677 95.0988 426.038 103.16 420.743 110.79C416.217 117.821 411.076 124.52 406.896 131.73C407.186 133.168 408.539 131.365 408.998 130.942C411.321 128.634 413.371 126.07 415.493 123.574C414.189 126.087 412.168 128.431 411.436 131.142C412.567 131.431 413.334 129.563 414.169 128.976C421.366 120.61 427.137 110.884 433.656 102.153C429.154 110.052 422.903 117.013 419.161 125.361C418.69 126.121 419.582 126.515 419.939 125.718C422.213 123.11 424.077 120.146 426.193 117.404C425.736 118.972 424.29 120.583 424.459 122.208C425.934 121.648 426.572 119.526 427.653 118.366C428.83 116.64 430.314 114.267 431.364 112.937C430.534 115.169 428.905 117.277 428.463 119.611C429.507 119.943 430.225 118.144 430.975 117.583C431.692 116.829 433.771 113.871 433.435 114.598C430.404 119.714 427.002 124.694 424.396 130.017C424.946 130.743 425.636 128.892 426.067 128.577C429.519 123.816 432.766 118.909 436.231 114.156C433.818 118.502 431.287 122.873 429.199 127.337C429.996 127.728 430.439 125.789 431.047 125.366C433.38 121.845 435.589 118.244 437.954 114.745C436.338 118.619 434.239 122.318 432.857 126.275C433.609 126.741 434.029 124.866 434.57 124.499C443.466 110.59 452.042 96.4059 460.962 82.5299C456.01 94.3092 447.512 104.197 442.464 115.901C442.193 117.058 443.437 116.087 443.546 115.494C447.155 110.557 450.539 105.451 454.078 100.461C452.735 103.521 450.625 106.449 449.758 109.605C450.959 109.154 451.504 107.233 452.449 106.294C453.93 104.117 455.481 101.702 456.926 99.6727C456.821 100.368 455.51 101.925 456.443 102.279C459.52 99.2789 461.725 95.3539 463.706 91.548C466.967 84.6727 467.853 76.7714 466.943 69.276C466.639 68.2166 465.893 66.8619 464.599 67.0057ZM426.603 116.721C426.17 116.836 426.108 117.98 426.603 116.721Z" fill="#FF0000"/>
<path d="M484.84 55.9152C475.319 73.0672 464.864 89.7021 456.35 107.397C454.762 110.897 452.582 114.281 451.492 117.929C453.747 115.49 455.337 112.166 457.307 109.379C458.93 107.083 460.306 104.246 462.108 102.268C460.992 105.817 458.477 108.98 457.683 112.59C458.414 112.599 458.825 110.771 459.398 110.229C461.175 107.304 462.889 104.047 464.809 101.375C463.807 104.845 461.829 108.197 461.12 111.644C462.309 110.414 462.901 108.222 463.88 106.667C470.616 93.5962 477.026 80.3281 484.012 67.4046C479.182 81.0421 471.929 92.674 466.627 105.344C470.131 101.78 474.359 93.5809 477.559 89.6766C476.583 92.9331 474.704 96.1216 473.995 99.3253C480.127 91.4801 485.593 83.0451 490.014 74.1313C493.641 66.8186 494.31 54.3451 492.047 50.2059C488.606 46.1507 486.273 53.3345 484.84 55.9152Z" fill="#FF0000"/>
<path d="M507.408 43.5772C496.297 65.3491 484.026 86.5151 473.427 108.544C472.63 109.981 473.52 109.566 474.006 108.544C477.916 102.779 481.517 96.4815 485.304 90.8435C483.995 94.4528 481.645 98.0095 480.522 101.47C483.455 97.7367 485.658 92.7646 488.332 89.2775C488.026 90.3118 486.973 91.4611 487.102 92.4623C492.502 83.111 496.918 73.0286 502.143 63.6946C496.737 76.3169 490.482 88.5766 485.199 101.249C485.4 101.668 486.519 99.5491 486.892 99.195C489.799 95.0228 492.479 90.4909 495.395 86.4501C493.549 90.6125 490.946 94.7034 489.393 98.8317C491.662 96.2736 493.356 93.2604 495.531 90.6228C493.988 94.9069 491.665 99.0674 490.476 103.383C496.812 93.6407 502.611 83.5208 508.223 73.3379C513.059 64.3964 516.495 54.2071 515.017 43.9572C514.656 41.4485 515.084 36.6138 512.536 36.2742C509.987 35.9347 508.749 40.9495 507.408 43.5772Z" fill="#FF0000"/>
<path d="M530.111 31.53C520.066 57.4594 503.395 81.2432 489.95 112.432C493.668 108.433 496.851 102.124 499.618 97.4666C503.179 91.0698 506.521 84.3963 510.257 78.1886C508.166 84.1174 503.247 94.3926 501.428 100.356C505.41 92.7973 509.234 84.2199 512.916 77.4949C511.598 82.0979 507.436 90.8362 506.417 95.4677C508.504 92.0223 511.627 83.5878 513.61 80.1962C513.288 82.3259 510.948 88.3424 510.805 90.3325C515.985 79.2019 521.463 63.768 526.37 52.6058C521.894 65.4423 515.589 79.7779 511.327 92.6866C515.007 86.8301 517.968 79.6108 521.051 74.1211C519.412 79.0476 514.956 87.8359 513.645 92.7671C518.085 84.9888 521.616 75.8309 525.655 68.3928C524.516 72.7568 521.143 80.3731 520.353 84.724C522.556 80.7757 525.332 72.8565 527.339 68.7043C526.89 70.9151 524.236 78.5646 524.052 80.3892C527.243 74.9351 530.304 66.9993 532.35 61.0248C535.796 50.9661 538.858 40.2762 537.742 29.6085C537.509 27.3765 536.516 22.9895 534.235 23.2579C531.954 23.5263 531.228 28.6475 530.111 31.53Z" fill="#FF0000"/>
<path d="M547.147 32.0587C535.559 58.6972 523.66 85.2028 510.686 111.192C510.423 111.687 509.272 114.071 510.646 112.78C515.09 108.295 516.734 101.962 519.715 96.5426C521.84 92.3536 526.048 82.2533 528.264 78.3239C527.078 82.6631 522.312 92.1405 521.219 96.4252C523.383 93.5294 524.735 89.8847 526.499 86.6647C527.908 83.8946 529.233 81.058 530.731 78.3469C529.038 82.8973 527.39 87.5523 525.728 92.0633C525.014 92.8276 526.268 93.1313 526.264 92.042C527.88 88.7757 529.361 84.7529 531.047 81.9098C530.618 84.5563 529.054 87.2707 529.134 89.8453C531.379 86.3304 532.641 82.1211 534.398 78.2979C538.462 68.8199 541.935 59.069 545.888 49.5686C543.836 58.0853 540.443 66.1657 537.673 74.4921C537.083 76.2634 533.651 85.8729 533.651 85.8729C533.651 85.8729 538.353 75.2863 539.834 73.207C539.704 76.0752 538.347 79.0221 538.551 81.7943C538.551 81.7943 541.464 73.4626 543.544 69.8647C543.498 72.1375 541.471 77.1418 541.636 79.358C543.504 75.8681 544.442 70.9788 546.214 67.4366C546.125 69.8442 544.998 72.302 545.236 74.647C547.885 68.5295 549.696 61.9291 551.563 55.486C553.487 47.4291 555.902 39.1879 555.284 30.8702C555.118 28.6275 554.285 24.3654 551.56 24.6514C548.835 24.9375 548.281 29.4526 547.147 32.0587Z" fill="#FF0000"/>
<path d="M410.206 181.193C404.669 181.275 399.353 187.655 396.583 191.991C392.367 192.686 385.326 192.385 381.681 193.532C381.307 189.163 391.4 187.975 393.873 186.595C384.613 183.912 376.928 191.199 373.84 198.588C369.048 200.27 364.287 202.457 359.419 203.685C360.38 198.287 366.71 196.697 370.844 194.688C365.241 194.452 358.809 196.508 355.709 201.457C353.63 204.776 354.053 208.919 353.754 212.682C351.294 213.616 348.343 216.101 346.176 215.541C344.948 215.225 347.629 211.094 348.514 208.796C345.509 211.456 339.806 215.845 340.567 220.424C341.564 224.969 344.212 229.198 348.341 231.507C349.639 233.057 350.057 230.451 350.708 229.74C354.79 220.85 363.245 214.51 372.683 212.293C379.687 210.385 386.992 210.277 394.199 210.097C404.007 216.981 416.081 221.186 428.156 219.813C440.829 218.384 451.784 210.774 460.899 202.298C457.891 193.18 445.693 189.87 437.219 192.344C432.737 193.101 428.589 195.123 424.364 196.601C420.055 194.16 416.604 189.313 411.142 189.517C408.799 189.517 406.495 190.002 404.205 190.442C407.759 186.397 412.881 183.723 418.289 183.484C418.816 182.843 416.668 182.567 416.284 182.205C414.354 181.455 412.276 181.102 410.206 181.193ZM411.163 206.87C423.166 215.766 444.159 207.641 452.658 201.63C449.218 205.462 443.092 210.847 437.342 213.772C420.852 220.527 409.757 215.245 399.572 206.17C382.299 204.153 364.677 212.592 356.938 218.63C361.666 212.584 368.794 205.601 376.287 203.227C388.955 199.214 401.943 193.881 411.163 206.87Z" fill="#FF0000"/>
<path d="M431.287 189.282C442.178 187.996 455.668 185.45 464.074 188.75C468.384 190.442 471.235 194.367 473.712 198.125C474.55 197.388 475.861 197.097 476.592 195.907C472.881 191.219 465.123 185.196 457.108 184.699C447.581 184.109 439.868 185.83 431.287 189.282Z" fill="#FF0000"/>
<path d="M290.697 116.066C297.585 119.89 304.865 122.51 309.886 126.681C313.407 129.698 316.971 132.841 321.06 140.336C325.149 147.831 323.304 157.747 319.348 165.788C317.36 169.829 313.912 172.422 312.341 176.609C309.896 183.127 311.565 188.737 311.82 192.533C312.433 201.651 322.524 218.775 324.453 224.949C318.783 215.179 312.163 204.826 309.298 195.253C307.756 190.099 306.749 183.584 306.654 178.225C313.598 172.537 321.385 160.024 311.521 147.328C306.134 139.691 295.391 116.291 284.899 117.867C285.673 124.122 298.713 138.939 298.166 151.141C294.342 154.845 291.339 161 290.505 166.142C290.134 173.561 293.552 177.084 297.906 181.59C297.118 190.833 300.363 198.589 304.751 202.422C305.269 211.319 307.693 216.008 315.446 219.226C315.289 234.393 338.798 246.773 358.18 242.36C343.453 236.641 334.876 236.08 326.879 222.952C318.74 209.593 313.29 189.956 319.162 176.075C322.2 168.892 326.852 161.99 328.443 154.948C331.213 142.689 327.155 130.885 317.103 124.89C309.788 120.527 298.605 116.143 290.697 116.066Z" fill="#FF0000"/>
<path d="M273.744 108.054C269.939 125.114 276.71 144.308 289.509 150.259C280.057 141.007 273.586 121.645 275.96 109.15L273.744 108.054Z" fill="#FF0000"/>
<path d="M284.628 153.435C280.142 160.591 273.551 173.261 290.93 179.774C281.463 172.673 281.661 163.369 284.628 153.435Z" fill="#FF0000"/>
<path d="M288.968 183.579C289.122 190.501 291.213 196.557 298.778 200.168C284.234 198.01 287.044 190.662 288.968 183.579Z" fill="#FF0000"/>
<path d="M299.432 203.379C296.881 210.805 299.026 215.763 308.826 216.697C299.631 212.611 301.776 205.572 299.432 203.379Z" fill="#FF0000"/>
<path d="M76.3983 123.604C78.2471 128.101 82.6254 130.814 86.2744 133.737C111.925 154.283 144.424 164.507 176.744 168.155C179.746 168.494 187.782 169.939 190.691 169.672C173.692 165.974 155.068 162.615 140.398 157.837C147.154 158.779 160.027 161.466 166.737 162.44C152.804 158.53 130.989 152.448 119.229 147.862C126.408 149.292 133.737 151.859 140.955 153.117C139.26 151.666 136.58 151.394 134.493 150.494C123.508 146.677 112.21 143.111 102.381 136.742C100.949 135.651 104.717 137.446 104.178 137.183C120.836 144.61 138.143 150.706 155.869 154.999C156.445 154.38 154.433 154.103 154.093 153.759C143.452 149.427 132.439 145.824 121.899 141.367C130.398 143.535 138.803 146.353 147.24 148.566C146.884 147.406 144.841 147.306 143.841 146.734C132.892 142.732 121.797 138.906 111.262 133.946C124.627 138.672 141.5 144.942 155.438 147.726C133.238 138.838 104.901 128.635 85.6477 121.123C82.2229 119.787 74.5585 119.128 76.3983 123.604Z" fill="#FF0000"/>
<path d="M58.1206 89.3497C55.4369 89.3836 55.9911 92.9565 57.017 94.4788C60.6754 99.9551 70.6826 106.974 75.9782 110.728C98.248 126.514 126.201 136.441 153.715 143.606C141.41 138.372 126.876 133.746 116.455 129.322C123.949 131.183 137.61 136.151 145.113 138.01C118.662 128.308 88.3117 113.179 67.5592 100.617C87.5704 109.361 139.582 133.945 152.723 136.145C142.795 131.101 118.84 120.976 108.917 115.968C117.701 119.037 139.909 127.97 148.894 130.449C122.663 119.672 91.179 104.386 67.1098 92.6545C64.1632 91.5322 61.3785 89.2939 58.1206 89.3497Z" fill="#FF0000"/>
<path d="M44.5092 55.9046C42.2529 56.5093 42.1521 59.9289 43.2164 61.6328C48.0568 70.8852 56.3259 77.7219 64.2902 84.2097C84.9577 99.9916 108.365 111.912 132.557 121.281C138.608 123.509 155.324 129.195 161.534 130.738C142.344 123.502 120.482 115.379 104.638 107.455C114.718 110.954 136.19 120.309 147.764 122.929C132.581 116.61 106.449 106.123 93.2681 99.3555C99.9999 101.797 122.208 111.619 128.879 114.027C103.294 102.1 76.0821 87.1096 57.0063 71.3658C80.2822 87.2868 106.725 102.389 131.987 113.069C126.299 108.578 104.686 98.354 97.5984 94.3735C105.374 97.2813 116.116 103.023 123.975 105.48C117.241 100.733 104.982 94.3842 98.1475 89.9675C101.131 90.8693 118.733 100.223 121.767 100.69C120.037 98.7839 103.874 91.3432 101.603 90.0695C87.8221 82.3401 74.5392 73.7672 61.6318 64.6779C56.4454 61.5746 51.3857 58.0098 45.6443 56.0201C45.2773 55.9213 44.8882 55.8849 44.5092 55.9046Z" fill="#FF0000"/>
<path d="M34.492 21.6612C31.12 21.9431 31.3544 26.2802 32.2427 28.6719C34.1269 33.7446 37.8068 37.9575 41.2252 42.078C52.1582 55.2567 65.5979 66.246 79.8797 75.5879C98.5658 87.8107 126.188 98.0431 147.011 105.82C113.932 90.8933 94.5043 80.6773 82.2524 71.2084C87.6237 73.5549 101.185 81.3293 105.313 82.3917C88.2639 72.7137 72.4334 64.0565 47.6154 40.3438C77.9161 66.4822 102.934 82.3079 136.267 93.2491C119.599 85.1279 96.5006 77.0458 83.5031 64.7444C96.4202 72.4759 117.366 83.4454 131.485 88.4679C116.509 80.0963 90.758 69.1621 87.5182 62.7158C98.3596 69.2254 109.686 75.2325 121.657 79.2701C116.212 74.7324 107.355 71.1701 101.718 67.7398C105.521 68.4607 109.473 70.0251 113.143 70.4621C104.122 65.4631 94.705 61.182 85.636 56.2481C71.0095 48.2906 56.0649 40.3231 44.2309 28.4743C41.4403 25.6802 38.7619 21.3041 34.492 21.6612Z" fill="#FF0000"/>
<path d="M132.178 182.558C134.02 186.726 138.516 188.79 142.248 190.939C161.079 201.78 182.765 206.137 204.061 209.192C205.855 209.424 203.957 208.602 203.262 208.488C192.357 205.288 181.12 202.822 170.332 199.48C173.97 199.819 191.563 203.05 191.563 203.05C183.513 200.647 166.069 196.906 158.907 194.172C163.598 194.773 204.145 204.126 204.145 204.126C204.145 204.126 158.751 192.451 153.368 188.812C169.701 194.31 193.341 199.467 210.325 202.181C210.325 202.181 179.561 194.543 171.961 192.059C170.977 191.65 169.596 191.072 169.291 190.041C181.282 192.858 195.909 196.354 208.212 197.189C208.212 197.189 186.624 191.864 177.574 189.474C184.434 190.183 205.465 193.757 212.27 194.288C186.979 189.674 159.537 184.222 137.332 179.641C134.781 179.115 131.191 180.322 132.178 182.558Z" fill="#FF0000"/>
<path d="M107.016 156.87C114.269 170.488 137.783 177.425 150.34 180.719C166.278 184.855 185.813 188.195 202.147 190.052C190.883 186.457 174.588 182.999 162.375 179.647C169.108 180.288 185.405 183.318 192.141 183.672C170.3 178.944 143.989 172.726 125.556 166.372C144.382 171.244 167.807 177.542 188.116 180.341C175.172 176.546 157.948 173.351 146.472 169.462C160.629 171.791 175.999 175.361 190.649 175.81C177.995 172.969 163.376 171.652 152.18 168.295C160.334 168.718 181.281 171.414 189.451 172.479C164.693 168.082 138.367 162.98 118.298 155.152C115.044 153.883 104.651 152.431 107.016 156.87Z" fill="#FF0000"/>
<path d="M170.763 210.106C172.615 213.189 176.345 214.651 179.403 216.412C189.69 222.338 205.203 227.624 217.549 228.856C206.978 225.544 196.719 222.376 190.598 218.24C196.108 218.841 216.782 223.675 222.86 224.359C223.03 223.595 210.638 221.676 210.108 221.33C199.185 218.451 188.155 215.396 178.005 210.379C192.932 215.224 207.547 220.764 224.105 221.256C214.305 218.191 199.717 215.831 190.219 211.661C202.802 214.824 216.448 216.954 227.689 217.873C211.908 212.809 189.669 207.977 173.328 205.397C170.108 204.889 169.317 207.698 170.763 210.106Z" fill="#FF0000"/>
<path d="M153.162 76.8586C151.725 77.0887 153.738 79.5532 154.224 80.4216C159.772 90.3431 168.208 98.5035 177.095 105.49C192.168 117.338 208.013 124.714 224.561 129.611C239.12 133.92 257.523 134.947 270.966 134.205C272.332 133.576 267.682 133.276 268.265 133.269C258.415 131.629 238.278 130.07 235.038 126.711C237.625 127.275 258.032 129.825 266.982 128.823C241.113 124.985 196.286 118.135 174.73 96.0721C200.201 111.859 228.646 123.909 255.431 123.526C238.659 117.67 224.33 118.661 212.106 110.745C219.264 114.426 232.882 117.864 250.428 117.703C240.323 115.26 223.948 113.438 214.681 108.485C224.917 112.5 237.311 113.37 247.075 112.605C226.112 107.375 203.868 101.823 185.671 94.367C176.482 90.6018 167.639 85.0986 159.973 79.2969C158.07 77.8567 155.575 76.4724 153.162 76.8586ZM163.694 106.856C157.822 106.987 160.651 111.68 162.937 114.539C174.902 129.503 191.416 140.456 209.037 147.732C229.925 156.384 256.137 159.996 278.728 158.894C266.221 155.717 247.034 157.499 238.178 152.083C247.423 153.951 259.97 155.087 269.305 153.975C248.201 153.416 200.925 139.95 178.178 121.508C204.576 135.038 229.987 148.704 257.662 148.187C245.282 143.796 227.282 141.702 217.823 134.934C229.307 139.639 241.651 143.151 252.509 142.855C244.378 139.434 226.882 137.288 219.278 131.956C228.098 135.151 242.281 137.934 250.722 137.841C237.544 133.299 224.781 130.906 214.713 127.404C202.664 123.213 190.588 119.189 179.418 113.047C174.423 110.773 169.344 106.73 163.694 106.856Z" fill="#FF0000"/>
<path d="M177.694 140.225C173.317 140.688 176.005 146.142 178.092 148.038C194.338 162.793 214.113 173.71 235.452 178.923C250.219 182.53 265.394 184.241 280.556 184.864C264.172 181.245 242.924 178.116 228.325 173.662C237.361 174.811 249.474 177.098 258.493 178.4C246.382 174.975 230.095 172.439 219.043 168.32C230.525 170.835 242.217 172.665 253.784 174.887C243.918 170.415 210.212 164.923 202.031 156.947C215.264 164.036 251.152 172.643 251.352 171.2C241.807 167.606 227.389 164.192 217.861 160.8C225.226 162.227 254.612 169.036 249.731 167.173C238.201 163.656 218.483 158.512 206.58 152.783C220.01 156.892 232.405 161.368 247.206 163.148C226.662 154.459 202.75 148.054 184.11 140.961C182.071 140.184 179.86 139.996 177.694 140.225Z" fill="#FF0000"/>
<path d="M202.317 174.139C201.204 174.043 199.813 174.621 200.176 175.997C200.37 177.651 200.83 179.603 202.183 180.679C203.738 182.035 205.404 183.413 207.304 184.232C208.607 185.226 210.17 186.015 211.659 186.67C212.089 187.189 212.892 186.965 213.212 187.539C213.965 187.605 214.506 188.116 215.241 188.268C215.855 188.908 216.849 188.751 217.5 189.368C218.378 189.479 219.057 189.871 219.775 190.26C220.91 190.425 221.749 191.126 222.881 191.367C225.257 192.238 227.61 193.172 230.076 193.738C230.912 193.748 231.385 194.561 232.335 194.444C233.709 195.06 235.246 195.371 236.72 195.834C239.504 196.506 242.189 197.462 245.037 197.9C247.548 198.669 250.161 199.154 252.744 199.639C254.248 200.18 255.947 200.127 257.463 200.702C261.53 201.301 265.598 201.896 269.658 202.517C273.513 202.79 277.413 203.393 281.268 203.125C281.555 202.403 280.051 202.607 279.648 202.493C277.82 201.758 275.749 201.876 273.87 201.22C270.124 200.645 266.479 199.671 262.755 199.022C260.044 198.444 257.374 197.68 254.634 197.179C249.678 196.01 244.732 194.788 239.797 193.552C238.885 193.526 238.26 192.823 237.3 192.853C234.611 192.068 231.923 191.238 229.258 190.43C227.16 189.641 224.871 188.963 222.829 187.881C222.526 187.798 220.946 186.901 222.138 187.16C223.788 187.932 225.674 188.24 227.407 188.862C231.439 189.811 235.424 191.007 239.477 191.805C241.505 191.999 243.323 192.773 245.364 192.913C247.948 193.627 250.691 193.594 253.279 194.31C256.394 194.563 259.548 195.346 262.666 195.001C261.95 194.203 260.286 194.77 259.314 194.184C255.257 193.29 251.043 192.938 247.066 191.761C245.16 191.553 243.281 191.108 241.439 190.579C239.602 190.156 237.747 189.721 235.932 189.212C232.995 188.385 230.113 187.386 227.222 186.387C226.686 186.201 226.266 185.704 225.579 185.681C224.032 185.09 222.33 184.191 220.904 183.645C222.703 183.59 224.358 184.634 226.077 184.893C226.895 185.462 228.127 185.33 229.013 185.86C232.607 186.637 236.172 187.515 239.797 188.178C243.011 188.764 246.177 189.554 249.445 189.839C255.67 190.769 261.903 191.848 268.21 191.991C269.299 191.956 267.874 191.527 267.534 191.523C264.426 190.945 261.392 190.056 258.243 189.65C256.079 189.054 253.845 188.821 251.711 188.141C246.219 187.146 240.757 185.965 235.367 184.537C234.072 184.098 231.787 183.595 234.415 183.954C236.165 184.384 237.954 184.688 239.678 185.183C243.025 185.621 246.32 186.374 249.706 186.591C253.103 186.783 256.428 187.572 259.819 187.703C260.18 187.733 261.644 187.746 260.718 187.212C257.928 186.073 255.137 184.915 252.342 183.808C251.141 183.501 249.947 183.08 248.651 183.022C244.985 182.05 241.161 181.778 237.5 180.798C235.369 180.223 233.169 179.944 231.005 179.49C228.01 178.773 225.002 178.042 221.949 177.519C217.343 176.428 212.691 175.588 208.024 174.801C206.197 174.264 204.217 174.154 202.317 174.139ZM229.875 182.85C230.63 183.099 228.855 183.045 229.815 182.85H229.875ZM231.064 183.087C231.819 183.336 230.044 183.283 231.005 183.087H231.064ZM232.357 183.571C233.313 183.769 231.238 183.769 232.194 183.571L232.276 183.563L232.357 183.571Z" fill="#FF0000"/>
<path d="M221.888 196.381C220.595 196.428 218.903 197.283 219.271 198.83C219.746 200.747 220.461 202.805 222.246 203.885C225.67 206.722 229.812 208.462 233.828 210.276C235.243 210.581 236.495 211.511 237.922 211.753C238.493 212.139 239.301 212.085 239.924 212.452C249.163 215.504 258.709 217.536 268.3 219.116C276.941 220.446 285.68 221.294 294.427 221.265C294.776 221.377 295.449 221.023 294.821 220.823C290.506 219.97 286.109 219.5 281.767 218.763C273.091 217.444 264.42 216.027 255.832 214.234C252.552 213.555 249.288 212.699 246.073 211.816C245.554 211.701 245.129 211.402 244.57 211.353C243.146 210.669 241.456 210.311 240.229 209.335C241.674 209.61 243.139 210.158 244.615 210.45C249.609 211.633 254.634 212.719 259.684 213.671C265.289 214.732 270.907 215.742 276.538 216.651C276.903 216.849 277.613 216.484 277.006 216.225C272.713 215.342 268.429 214.422 264.146 213.458C261.977 212.995 259.833 212.384 257.677 211.926C255.858 211.274 253.97 210.966 252.159 210.286C251.584 210.154 251.037 210.053 250.519 209.803C249.967 209.73 249.534 209.385 248.953 209.356C246.725 208.416 244.168 207.642 242.089 206.65C242.783 206.475 243.306 207.006 243.971 207.044C244.713 207.488 245.739 207.36 246.509 207.859C247.464 207.844 248.192 208.41 249.126 208.536C259.866 211.298 270.917 212.543 281.935 213.586C282.198 213.575 282.709 213.715 282.371 213.413C282.645 213.025 281.494 213.047 281.266 212.903C279.917 212.507 278.479 212.326 277.148 211.984C272.65 211.016 268.104 210.138 263.593 209.176C259.852 208.366 256.095 207.562 252.442 206.445C251.487 206.445 250.68 205.767 249.731 205.688C249.651 205.291 248.881 205.483 248.811 205.341C249.875 205.227 250.881 205.854 251.961 205.883C260.783 207.737 269.847 207.635 278.787 208.426C279.041 208.246 278.365 207.779 278.12 207.769C275.322 207.104 272.709 205.75 269.824 205.48C260.11 203.764 250.46 201.704 240.781 199.813C239.826 199.723 239.005 199.253 238.027 199.303C236.049 198.649 233.89 198.557 231.85 198.076C228.529 197.519 225.224 196.787 221.888 196.381ZM248.054 204.947C248.73 205.087 247.263 205.087 247.939 204.947L247.996 204.939L248.054 204.947ZM241.59 206.287C242.124 206.463 240.869 206.425 241.548 206.287H241.59Z" fill="#FF0000"/>
<path d="M238.704 216.551C235.717 217.031 238.121 222.164 239.139 222.996C242.109 225.426 247.913 229.145 251.467 230.57C257.807 233.112 275.537 239.698 290.08 238.423C284.79 236.097 264.582 232.386 258.176 229.374C260.861 228.671 275.724 235.494 289.381 234.867C279.349 233.705 262.745 228.587 257.084 225.78C267.452 229.372 282.491 233.06 292.277 232.649C280.225 229.305 268.153 227.427 256.792 222.686C261.583 223.947 282.072 228.642 295.867 228.144C296.381 228.033 295.445 227.471 295.194 227.613C291.946 226.197 288.421 225.735 285.254 225.018C272.349 222.712 259.549 219.862 246.653 217.501C244.023 217.02 241.358 216.124 238.704 216.551Z" fill="#FF0000"/>
<path d="M74.2681 243.988L168.448 243.75L123.737 246.128L167.735 246.842L124.45 249.22L165.594 248.744L77.1221 254.452C73.5807 251.252 73.8575 247.627 74.2681 243.988Z" fill="#FF0000"/>
<path d="M82.2263 261.163L167.657 252.586L128.978 258.472L169.843 254.436L127.128 261.163L171.693 255.277L85.7579 269.907C83.8482 267.176 80.7814 264.733 82.2263 261.163Z" fill="#FF0000"/>
<path d="M90.0833 275.976L172.491 257.782L129.087 269.436L167.853 261.231L120.05 273.717L149.303 267.89L122.904 275.5L145.141 270.506L93.5318 283.587C90.0808 281.433 89.7696 278.757 90.0833 275.976Z" fill="#FF0000"/>
<path d="M96.6239 288.581L161.551 270.387L130.158 281.208L165.951 272.052L125.282 283.943L157.27 276.095L125.282 286.678L163.216 275.857L100.786 297.024C97.6298 295.473 95.3772 293.276 96.6239 288.581Z" fill="#FF0000"/>
<path d="M104.353 301.304L167.496 278.948L136.46 291.196L172.848 279.662L133.487 294.764L165.118 283.824L132.417 297.737L172.134 282.991L109.109 308.915C106.517 307.805 103.302 307.576 104.353 301.304Z" fill="#FF0000"/>
<path d="M111.607 312.244C112.083 312.006 175.94 284.062 175.94 284.062L140.266 302.137L179.032 284.656L139.433 305.466L181.172 285.251L116.84 318.547C114.694 317.583 111.969 318.263 111.607 312.244Z" fill="#FF0000"/>
<path d="M119.812 323.423L177.842 292.268L151.086 311.413L180.339 293.219L147.4 316.169L181.171 294.646C162.832 307.443 144.65 320.632 125.4 331.153C121.81 330.146 119.913 327.601 119.812 323.423Z" fill="#FF0000"/>
<path d="M241.099 300.209C238.113 300.459 234.993 300.672 232.158 301.577C230.644 301.952 229.038 302.464 227.625 303.16C226.901 303.775 225.62 304.105 225.514 305.323C225.408 306.017 225.319 307.241 226.406 306.891C236.115 307.003 245.838 307.071 255.54 306.779C256.425 306.327 254.616 306.211 254.291 306.17C250.055 305.851 245.871 305.118 241.62 304.951C239.438 304.896 240.062 304.597 241.792 304.384C244.112 304.197 246.275 303.355 248.596 303.266C249.42 303.075 250.653 303.07 251.252 302.61C247.655 302.304 243.987 303.066 240.423 302.759C242.008 302.25 243.79 302.28 245.41 301.785C246.583 301.503 248.262 301.796 249.126 300.96C246.532 300.296 243.772 300.194 241.099 300.209Z" fill="#FF0000"/>
<path d="M230.085 315.772C229.191 316.647 230.166 317.825 231.378 317.801C240.833 317.615 250.304 317.793 259.754 317.474C254.27 316.226 249.237 316.247 245.016 315.624C247.522 314.413 250.346 314.752 256.23 313.346C248.534 313.537 246.982 313.881 243.901 313.743C247.173 312.706 250.722 312.877 253.987 311.908C247.238 310.26 234.851 311.113 230.085 315.772Z" fill="#FF0000"/>
<path d="M241.974 323.33C240.981 325.771 248.134 324.987 265.819 326.148C263.194 324.617 259.457 324.494 253.565 323.445C256.707 322.773 261.364 322.467 264.355 321.488C259.493 321.2 243.583 319.377 241.974 323.33Z" fill="#FF0000"/>
<path d="M250.696 330.311C249.321 331.341 250.064 333.106 252.168 333.181C256.625 333.341 263.809 333.566 269.227 334.006C264.735 331.942 258.81 332.379 256.356 331.566C259.71 330.114 263.609 330.513 266.549 329.458C264.672 327.914 253.155 328.468 250.696 330.311Z" fill="#FF0000"/>
<path d="M443.794 267.711C447.817 266.354 452.297 265.68 456.756 264.976L451.341 263.391L454.615 260.873C450.102 257.63 446.954 259.305 443.497 259.863C446.138 255.045 452.313 252.732 460.323 251.717C447.746 247.611 435.575 244.654 421.735 236.972C428.439 245.172 441.1 247.415 451.94 251.479C442.545 254.869 439.147 259.494 437.313 264.441L446.707 261.706C449.133 262.252 445.8 265.266 443.794 267.711Z" fill="#FF0000"/>
<path d="M469.427 234.445C467.149 234.445 464.486 234.612 461.366 235.013L470.951 238.46C470.951 238.46 464.999 237.244 461.24 237.367C458.137 237.469 456.567 238.692 454.176 238.628C449.928 238.516 448.722 239.498 448.164 240.142C446.984 241.506 455.059 244.346 459.432 247.71C455.77 246.492 451.36 244.359 448.206 244.767C453.698 247.693 457.404 251.19 467.252 250.232C467.252 250.232 468.471 250.863 468.177 251.704C463.071 253.602 454.492 255.93 454.387 256.875C460.088 255.719 465.284 254.227 471.582 253.469C472.782 252.801 473.991 251.92 475.114 250.484C475.114 250.484 475.656 251.197 475.744 252.082C476.87 251.722 477.382 250.749 477.846 249.728C478.485 249.958 478.689 250.623 478.771 251.409C481.644 245.636 483.566 246.791 484.237 240.647C482.821 239.494 481.729 234.454 469.427 234.445ZM466.579 239.164C469.298 239.116 470.855 239.504 473.558 239.764C477.893 240.18 481.749 241.641 481.378 243.632C481.08 245.233 478.101 243.597 476.291 243.547C473.983 243.485 472.928 245.39 471.75 245.986C467.933 247.919 460.47 247.338 456.783 243.884C454.78 242.008 448.798 241.722 449.93 240.268C452.48 239.342 456.639 240.369 459.936 239.848C462.896 239.38 464.948 239.194 466.579 239.164Z" fill="#FF0000"/>
<path d="M462.334 241.066C461.909 242.907 462.05 243.995 462.334 244.892C459.77 244.191 457.988 243.267 456.994 242.117C457.562 241.254 458.56 241.961 462.334 241.066Z" fill="white"/>
<path d="M466.443 241.109C465.015 241.109 463.857 242.269 463.857 243.705C463.857 245.142 465.015 246.312 466.443 246.312C467.871 246.312 469.039 245.142 469.039 243.705C469.039 242.269 467.871 241.109 466.443 241.109ZM466.821 242.181C467.322 242.181 467.725 242.897 467.725 243.779C467.725 244.661 467.322 245.377 466.821 245.377C466.321 245.377 465.918 244.661 465.918 243.779C465.918 242.897 466.321 242.181 466.821 242.181Z" fill="white"/>
<path d="M488.652 265.157C487.308 262.736 478.569 256.477 477.09 261.163C475.705 265.551 482.922 263.914 488.652 265.157Z" fill="#FF0000"/>
<path d="M499.793 246.28C505.97 245.932 510.391 248.542 513.583 251.157C512.193 241.561 502.944 242.892 495.421 241.823C492.182 244.887 492.731 248.667 476.586 254.688L469.691 258.808C465.857 259.61 462.183 260.693 459.601 263.685C463.445 264.962 467.459 266.742 471.457 268.478C476.524 274.263 480.869 274.264 485.331 275.205C482.547 273.56 479.225 272.454 477.763 269.487C481.759 270.446 485.402 273.167 489.199 275.121C487.937 272.01 473.201 267.07 474.231 260.07C475.115 254.063 493.991 256.706 504.838 250.484L499.793 246.28Z" fill="white"/>
<path d="M489.787 239.374C485.951 239.553 485.815 246.85 478.131 252.67C482.921 251.404 490.468 248.315 494.065 241.224C493.198 239.98 492.104 239.521 490.176 239.385C490.044 239.375 489.911 239.368 489.787 239.374ZM490.113 241.14C490.78 241.092 491.466 241.254 491.753 241.939C489.394 245.086 486.843 247.22 484.732 247.877C488.228 244.757 487.658 241.68 489.472 241.245C489.677 241.196 489.89 241.156 490.113 241.14Z" fill="white"/>
<path d="M395.276 264.201L399.429 264.512L403.512 264.818L399.113 263.442L401.107 260.802L398.216 262.487L395.276 264.201Z" fill="#FF0000"/>
<path d="M381.602 280.418L383.896 280.647L386.151 280.871L383.721 279.862L384.822 277.925L383.226 279.161L381.602 280.418Z" fill="#FF0000"/>
<path d="M385.115 284.608L386.999 284.679L388.851 284.748L386.818 284.064L387.621 282.475L386.379 283.532L385.115 284.608Z" fill="#FF0000"/>
<path d="M374.288 278.502L377.092 278.827L379.848 279.147L376.878 277.71L378.224 274.952L376.273 276.712L374.288 278.502Z" fill="#FF0000"/>
<path d="M376.131 283.392L378.425 283.62L380.68 283.845L378.25 282.835L379.352 280.898L377.755 282.135L376.131 283.392Z" fill="#FF0000"/>
<path d="M379.646 287.581L381.529 287.652L383.382 287.721L381.348 287.037L382.151 285.447L380.909 286.505L379.646 287.581Z" fill="#FF0000"/>
<path d="M367.467 282.645L370.68 282.726L373.84 282.806L370.331 281.73L371.596 279.128L369.549 280.871L367.467 282.645Z" fill="#FF0000"/>
<path d="M370.025 286.935L372.651 286.968L375.233 286.999L372.378 286.27L373.443 284.431L371.749 285.672L370.025 286.935Z" fill="#FF0000"/>
<path d="M374.414 290.464L376.559 290.385L378.668 290.307L376.295 289.842L377.055 288.34L375.746 289.393L374.414 290.464Z" fill="#FF0000"/>
<path d="M398.189 269.529L401.315 269.811L404.387 270.088L401.076 268.841L402.577 266.449L400.402 267.976L398.189 269.529Z" fill="#FF0000"/>
<path d="M401.448 274.895L403.637 275.129L405.79 275.359L403.47 274.326L404.522 272.344L402.998 273.609L401.448 274.895Z" fill="#FF0000"/>
<path d="M403.6 278.956L405.397 279.028L407.165 279.099L405.224 278.399L405.991 276.772L404.805 277.855L403.6 278.956Z" fill="#FF0000"/>
<path d="M390.103 281.512L391.9 281.585L393.668 281.656L391.727 280.956L392.494 279.329L391.308 280.411L390.103 281.512Z" fill="#FF0000"/>
<path d="M387.131 276.911L389.425 277.14L391.68 277.364L389.25 276.355L390.352 274.418L388.755 275.654L387.131 276.911Z" fill="#FF0000"/>
<path d="M392.423 273.522L394.717 273.75L396.972 273.974L394.542 272.965L395.644 271.028L394.047 272.264L392.423 273.522Z" fill="#FF0000"/>
<path d="M395.811 278.659L397.608 278.731L399.376 278.802L397.435 278.102L398.202 276.476L397.016 277.558L395.811 278.659Z" fill="#FF0000"/>
<path d="M404.076 265.665L407.201 265.947L410.274 266.224L406.963 264.978L408.464 262.586L406.289 264.113L404.076 265.665Z" fill="#FF0000"/>
<path d="M411.092 266.557L414.217 266.839L417.289 267.116L413.979 265.87L415.479 263.478L413.304 265.004L411.092 266.557Z" fill="#FF0000"/>
<path d="M418.644 267.421L421.559 267.717L424.425 268.007L421.337 266.7L422.737 264.19L420.707 265.792L418.644 267.421Z" fill="#FF0000"/>
<path d="M425.48 268.194L428.396 268.49L431.262 268.781L428.174 267.473L429.573 264.964L427.544 266.565L425.48 268.194Z" fill="#FF0000"/>
<path d="M405.789 270.971L407.978 271.205L410.13 271.435L407.811 270.402L408.863 268.42L407.339 269.685L405.789 270.971Z" fill="#FF0000"/>
<path d="M407.881 275.805L409.679 275.878L411.446 275.949L409.505 275.249L410.272 273.622L409.087 274.704L407.881 275.805Z" fill="#FF0000"/>
<path d="M413.767 276.756L415.564 276.829L417.332 276.9L415.391 276.2L416.158 274.573L414.972 275.655L413.767 276.756Z" fill="#FF0000"/>
<path d="M421.496 276.794L423.594 276.878L425.656 276.96L423.392 276.153L424.286 274.276L422.903 275.524L421.496 276.794Z" fill="#FF0000"/>
<path d="M413.409 272.178L415.207 272.251L416.974 272.322L415.034 271.622L415.8 269.995L414.615 271.077L413.409 272.178Z" fill="#FF0000"/>
<path d="M419.059 272.536L420.856 272.608L422.624 272.679L420.683 271.979L421.45 270.353L420.264 271.435L419.059 272.536Z" fill="#FF0000"/>
<path d="M390.639 267.695L392.933 267.923L395.188 268.147L392.758 267.138L393.86 265.201L392.263 266.437L390.639 267.695Z" fill="#FF0000"/>
<path d="M385.525 271.976L387.819 272.204L390.075 272.429L387.645 271.419L388.746 269.482L387.149 270.719L385.525 271.976Z" fill="#FF0000"/>
<path d="M380.234 275.424L382.528 275.652L384.784 275.877L382.354 274.868L383.455 272.931L381.858 274.167L380.234 275.424Z" fill="#FF0000"/>
<path d="M371.97 274.057L374.264 274.285L376.519 274.51L374.089 273.5L375.191 271.563L373.594 272.8L371.97 274.057Z" fill="#FF0000"/>
<path d="M365.785 277.684L368.079 277.912L370.335 278.137L367.904 277.127L369.006 275.19L367.409 276.427L365.785 277.684Z" fill="#FF0000"/>
<path d="M377.38 270.193L379.674 270.421L381.929 270.645L379.499 269.636L380.601 267.699L379.004 268.935L377.38 270.193Z" fill="#FF0000"/>
<path d="M384.158 266.447L386.452 266.675L388.708 266.899L386.277 265.89L387.379 263.953L385.782 265.189L384.158 266.447Z" fill="#FF0000"/>
<path d="M378.153 265.198L380.447 265.426L382.703 265.65L380.272 264.641L381.374 262.704L379.777 263.94L378.153 265.198Z" fill="#FF0000"/>
<path d="M383.861 261.095L386.155 261.323L388.411 261.548L385.981 260.539L387.082 258.602L385.485 259.838L383.861 261.095Z" fill="#FF0000"/>
<path d="M389.33 262.404L391.624 262.632L393.88 262.856L391.449 261.847L392.551 259.91L390.954 261.146L389.33 262.404Z" fill="#FF0000"/>
<path d="M377.796 259.668L380.09 259.897L382.345 260.121L379.915 259.112L381.017 257.175L379.42 258.411L377.796 259.668Z" fill="#FF0000"/>
<path d="M372.623 257.944L374.917 258.172L377.173 258.396L374.742 257.387L375.844 255.45L374.247 256.686L372.623 257.944Z" fill="#FF0000"/>
<path d="M378.688 253.663L380.982 253.892L383.237 254.116L380.807 253.107L381.908 251.17L380.312 252.406L378.688 253.663Z" fill="#FF0000"/>
<path d="M371.196 251.344L373.49 251.572L375.746 251.797L373.315 250.788L374.417 248.851L372.82 250.087L371.196 251.344Z" fill="#FF0000"/>
<path d="M377.915 247.479L380.209 247.707L382.465 247.932L380.034 246.922L381.136 244.985L379.539 246.221L377.915 247.479Z" fill="#FF0000"/>
<path d="M373.368 245.385L375.672 245.317L377.938 245.249L375.398 244.561L376.241 242.498L374.817 243.93L373.368 245.385Z" fill="#FF0000"/>
<path d="M384.13 243.781L386.434 243.712L388.7 243.644L386.16 242.956L387.003 240.894L385.578 242.325L384.13 243.781Z" fill="#FF0000"/>
<path d="M390.849 244.969L393.153 244.9L395.419 244.833L392.879 244.145L393.722 242.082L392.297 243.513L390.849 244.969Z" fill="#FF0000"/>
<path d="M396.573 246.385H398.879H401.145L398.627 245.62L399.533 243.584L398.066 244.971L396.573 246.382V246.385Z" fill="#FF0000"/>
<path d="M402.757 248.11H405.062H407.329L404.811 247.345L405.717 245.309L404.249 246.696L402.757 248.107V248.11Z" fill="#FF0000"/>
<path d="M408.584 249.715H410.889H413.156L410.638 248.95L411.544 246.914L410.076 248.301L408.584 249.712V249.715Z" fill="#FF0000"/>
<path d="M414.173 250.666H416.478H418.745L416.227 249.901L417.133 247.865L415.665 249.253L414.173 250.664V250.666Z" fill="#FF0000"/>
<path d="M384.277 249.204L386.571 249.432L388.827 249.656L386.397 248.647L387.498 246.71L385.901 247.946L384.277 249.204Z" fill="#FF0000"/>
<path d="M390.52 250.988L392.814 251.216L395.069 251.44L392.639 250.431L393.74 248.494L392.144 249.73L390.52 250.988Z" fill="#FF0000"/>
<path d="M390.52 250.988L392.814 251.216L395.069 251.44L392.639 250.431L393.74 248.494L392.144 249.73L390.52 250.988Z" fill="#FF0000"/>
<path d="M395.99 252.83L398.284 253.059L400.54 253.283L398.109 252.274L399.211 250.337L397.614 251.573L395.99 252.83Z" fill="#FF0000"/>
<path d="M401.281 253.722L403.575 253.95L405.831 254.175L403.4 253.165L404.502 251.229L402.905 252.465L401.281 253.722Z" fill="#FF0000"/>
<path d="M407.703 255.506L409.997 255.734L412.253 255.959L409.822 254.95L410.924 253.013L409.327 254.249L407.703 255.506Z" fill="#FF0000"/>
<path d="M384.218 254.436L386.512 254.664L388.767 254.889L386.337 253.879L387.439 251.942L385.842 253.179L384.218 254.436Z" fill="#FF0000"/>
<path d="M390.4 256.338L392.694 256.567L394.95 256.791L392.52 255.782L393.621 253.845L392.024 255.081L390.4 256.338Z" fill="#FF0000"/>
<path d="M395.99 257.647L398.284 257.875L400.54 258.099L398.109 257.09L399.211 255.153L397.614 256.389L395.99 257.647Z" fill="#FF0000"/>
<path d="M401.835 259.316L405.25 259.572L408.608 259.824L404.99 258.692L406.63 256.521L404.253 257.906L401.835 259.316Z" fill="#FF0000"/>
<path d="M410.129 260.745L412.318 260.979L414.47 261.208L412.151 260.175L413.202 258.193L411.679 259.458L410.129 260.745Z" fill="#FF0000"/>
<path d="M416.788 261.637L418.977 261.871L421.129 262.101L418.81 261.068L419.862 259.086L418.338 260.351L416.788 261.637Z" fill="#FF0000"/>
<path d="M413.697 256.881L415.886 257.114L418.039 257.344L415.72 256.311L416.771 254.329L415.247 255.594L413.697 256.881Z" fill="#FF0000"/>
<path d="M421.612 258.086L423.803 258.303L425.957 258.516L423.63 257.501L424.666 255.511L423.152 256.787L421.612 258.086Z" fill="#FF0000"/>
<path d="M423.339 262.684L425.676 262.777L427.974 262.868L425.451 261.972L426.448 259.888L424.907 261.274L423.339 262.684Z" fill="#FF0000"/>
<path d="M430.652 263.873L432.99 263.966L435.288 264.058L432.765 263.161L433.761 261.077L432.22 262.463L430.652 263.873Z" fill="#FF0000"/>
<path d="M428.512 258.808L430.339 258.876L432.136 258.944L430.163 258.28L430.943 256.736L429.738 257.763L428.512 258.808Z" fill="#FF0000"/>
<path d="M433.03 255.003L434.858 255.072L436.655 255.139L434.682 254.475L435.461 252.932L434.256 253.959L433.03 255.003Z" fill="#FF0000"/>
<path d="M438.501 255.24L440.329 255.309L442.126 255.377L440.153 254.712L440.932 253.169L439.727 254.196L438.501 255.24Z" fill="#FF0000"/>
<path d="M420.602 252.021L422.792 252.238L424.946 252.451L422.619 251.436L423.656 249.446L422.142 250.723L420.602 252.021Z" fill="#FF0000"/>
<path d="M426.845 253.151L429.035 253.368L431.189 253.581L428.863 252.566L429.899 250.576L428.385 251.853L426.845 253.151Z" fill="#FF0000"/>
<path d="M431.542 249.286L433.733 249.503L435.887 249.716L433.56 248.701L434.596 246.711L433.082 247.987L431.542 249.286Z" fill="#FF0000"/>
<path d="M424.11 247.859L426.301 248.076L428.455 248.289L426.128 247.274L427.164 245.284L425.65 246.561L424.11 247.859Z" fill="#FF0000"/>
<path d="M417.926 246.669L420.117 246.887L422.27 247.1L419.944 246.085L420.98 244.095L419.466 245.371L417.926 246.669Z" fill="#FF0000"/>
<path d="M411.921 245.6L414.112 245.817L416.266 246.03L413.939 245.015L414.975 243.025L413.461 244.302L411.921 245.6Z" fill="#FF0000"/>
<path d="M406.867 243.519L409.058 243.736L411.212 243.949L408.885 242.934L409.921 240.944L408.407 242.221L406.867 243.519Z" fill="#FF0000"/>
<path d="M309.778 218.48C307.31 227.615 310.404 231.86 318.399 231.799C310.611 228.015 310.721 223.177 309.778 218.48Z" fill="#FF0000"/>
<path d="M320.859 233.499C319.057 240.119 321.909 243.637 330.865 243.085C325.029 240.799 321.762 237.579 320.859 233.499Z" fill="#FF0000"/>
<path d="M287.408 257.542L294.524 260.239L301.521 262.891L294.706 257.707L300.053 252.797L293.784 255.149L287.408 257.542Z" fill="#FF0000"/>
<path d="M273.614 263.25L280.91 265.947L288.084 268.599L281.096 263.415L286.578 258.505L280.151 260.857L273.614 263.25Z" fill="#FF0000"/>
<path d="M271.354 275.626L279.19 277.719L286.894 279.777L279.39 275.753L285.278 271.942L278.375 273.768L271.354 275.626Z" fill="#FF0000"/>
<path d="M286.101 281.571L293.936 283.664L301.64 285.723L294.136 281.699L300.024 277.888L293.121 279.714L286.101 281.571Z" fill="#FF0000"/>
<path d="M298.823 294.414L306.659 296.507L314.363 298.565L306.859 294.541L312.746 290.73L305.844 292.556L298.823 294.414Z" fill="#FF0000"/>
<path d="M315.829 298.192L322.585 299.996L329.228 301.769L322.758 298.302L327.834 295.019L321.882 296.592L315.829 298.192Z" fill="#FF0000"/>
<path d="M336.163 300.41L342.26 302.055L348.254 303.672L342.415 300.51L346.996 297.516L341.626 298.95L336.163 300.41Z" fill="#FF0000"/>
<path d="M302.53 286.93L309.618 288.047L316.586 289.144L309.586 286.154L314.347 281.871L308.489 284.379L302.53 286.93Z" fill="#FF0000"/>
<path d="M317.633 290.379L324.72 291.496L331.689 292.594L324.689 289.604L329.45 285.32L323.591 287.828L317.633 290.379Z" fill="#FF0000"/>
<path d="M333.687 292.756L340.774 293.873L347.742 294.971L340.743 291.98L345.503 287.697L339.645 290.205L333.687 292.756Z" fill="#FF0000"/>
<path d="M351.984 294.887L359.694 295.087L367.275 295.285L359.415 293.598L363.941 289.762L358.013 292.303L351.984 294.887Z" fill="#FF0000"/>
<path d="M303.138 275.626L310.438 277.868L317.616 280.072L310.179 275.71L314.479 271.489L308.856 273.54L303.138 275.626Z" fill="#FF0000"/>
<path d="M317.646 279.55L324.946 281.792L332.124 283.996L324.687 279.634L328.987 275.413L323.364 277.464L317.646 279.55Z" fill="#FF0000"/>
<path d="M287.679 270.565L294.979 272.901L302.157 275.196L294.72 270.653L299.02 266.257L293.397 268.393L287.679 270.565Z" fill="#FF0000"/>
<path d="M302.035 264.632L308.521 266.688L314.898 268.71L309.397 264.08L316.168 258.532L309.161 261.556L302.035 264.632Z" fill="#FF0000"/>
<path d="M316.661 257.782L323.693 259.814L330.606 261.813L324.643 257.237L331.983 251.754L324.387 254.742L316.661 257.782Z" fill="#FF0000"/>
<path d="M333.002 250.913L339.896 252.68L346.674 254.416L340.706 250.035L347.577 244.191L340.351 247.524L333.002 250.913Z" fill="#FF0000"/>
<path d="M317.305 269.942L323.693 271.647L329.973 273.323L324.443 269.095L330.809 263.455L324.114 266.671L317.305 269.942Z" fill="#FF0000"/>
<path d="M331.337 262.948L338.175 265.002L349.417 268.33C347.072 265.711 339.065 264.042 335.708 262.581C339.07 260.098 343.243 257.777 345.793 255.132L338.626 259.007L331.337 262.948Z" fill="#FF0000"/>
<path d="M344.773 255.308L352.68 257.917L360.454 260.481L353.609 254.011L361.489 245.381L353.202 250.302L344.773 255.308Z" fill="#FF0000"/>
<path d="M329.672 274.106L339.266 276.53L348.699 278.913L336.468 273.496L349.955 264.883L339.899 269.455L329.672 274.106Z" fill="#FF0000"/>
<path d="M345.012 277.792L354.606 280.216L364.039 282.598L355.732 276.587L365.294 268.568L355.239 273.141L345.012 277.792Z" fill="#FF0000"/>
<path d="M344.18 266.852L353.774 269.276L363.207 271.659L354.9 265.648L364.462 257.629L354.407 262.201L344.18 266.852Z" fill="#FF0000"/>
<path d="M357.022 259.398L366.054 261.863L374.934 264.287L367.115 258.173L376.116 250.019L366.65 254.668L357.022 259.398Z" fill="#FF0000"/>
<path d="M358.66 247.194L362.707 244.116L366.686 241.089L364.161 246.336L370.804 250.154L364.783 248.687L358.66 247.194Z" fill="#FF0000"/>
<path d="M333.866 283.906L340.797 285.008L347.612 286.091L340.274 283.055L343.614 278.6L338.781 281.23L333.866 283.906Z" fill="#FF0000"/>
<path d="M347.248 285.737L355.047 288.184L362.716 290.589L354.835 286.096L359.601 282.201L353.477 283.954L347.248 285.737Z" fill="#FF0000"/>
<path d="M357.498 270.181L367.092 272.605L376.525 274.988L368.219 268.977L377.781 260.958L367.725 265.53L357.498 270.181Z" fill="#FF0000"/>
<path d="M308.426 336.387C305.888 336.432 300.24 338.645 303.156 341.666C305.175 344.061 307.55 346.27 310.893 345.494C312.322 346.288 317.945 346.484 315.609 344.163C314.228 343.917 309.087 343.945 312.673 342.259C315.895 342.358 315.552 337.003 312.199 338.762C310.693 338.495 306.596 341.72 307.052 338.78C307.762 337.475 312.809 335.923 308.817 336.348L308.426 336.387ZM311.737 372.754C307.813 372.275 311.805 377.253 313.362 374.459C313.852 372.749 313.621 372.194 311.737 372.754ZM334.587 350.755C333.735 353.536 331.439 351.385 330.643 350.732C330.388 355.739 330.488 360.774 330.172 365.785C331.471 365.043 331.179 362.066 333.465 363.906C336.889 364.756 338.532 360.812 337.071 358.129C336.54 355.317 336.01 352.505 335.48 349.693C334.855 349.459 334.918 350.487 334.587 350.755ZM326.115 346.677C326.398 350.318 321.1 351.138 318.743 349.536C316.055 347.262 318.739 352.095 319.256 353.157C321.153 357.465 320.936 362.621 318.426 366.633C316.243 368.292 319.937 370.806 320.624 369.203C318.35 365.941 324.395 365.544 326.521 365.92C330.395 365.726 328.86 360.621 329.209 358.011C329.332 354.059 328.156 350.162 326.441 346.635L326.278 346.656L326.115 346.677ZM307.469 347.57C303.178 347.752 305.653 351.817 307.753 353.286C309.908 354.966 309.219 357.705 309.325 360.074C309.476 363.401 307.773 366.425 305.454 368.686C304.042 369.898 304.064 370.857 306.044 370.963C309.035 372.844 309.828 369.937 309.135 367.548C309.14 364.178 313.064 365.314 314.769 366.661C317.473 367.445 318.335 363.384 318.775 361.384C319.375 357.598 317.89 353.958 316.799 350.416C314.834 347.663 310.632 347.504 307.469 347.57ZM311.663 349.094C313.247 349.225 316.627 353.024 313.205 351.674C311.298 351.372 310.517 355.06 308.897 352.243C307.855 350.44 310.118 349.085 311.663 349.094ZM271.092 371.997C268.573 373.258 272.035 375.051 273.631 374.277C275.134 374.673 278.034 373.834 275.337 372.717C273.994 372.228 272.519 371.976 271.092 371.997ZM291.451 366.248C288.834 365.455 288.325 369.524 291.145 368.781C292.195 368.179 297.693 368.087 294.722 366.515C293.666 366.179 292.544 366.236 291.451 366.248ZM279.753 366.931C277.022 367.448 278.434 371.199 280.912 369.811C282.383 370.002 287.614 369.235 284.052 368.02C282.578 367.799 281.27 366.907 279.753 366.931ZM281.109 344.343C277.842 343.527 278.825 348.425 281.661 346.767C283.106 345.882 286.711 346.466 286.912 345.077C285.148 344.109 283.032 344.517 281.109 344.343ZM270.115 347.08C268.501 346.612 265.981 348.6 268.886 348.586C270.675 348.35 270.103 350.79 272.358 350.172C271.063 352.295 268.1 352.941 266.084 351.133C266.518 353.551 269.14 355.972 269.092 358.886C269.623 362.212 268.84 365.586 267.49 368.618C268.507 369.73 271.563 370.655 272.848 370.14C271.307 368.289 267.985 366.876 270.85 364.699C273.02 363.028 276.748 366.509 278.644 363.178C279.577 360.455 279.042 357.328 278.343 354.564C277.293 351.457 275.52 347.622 271.849 347.185C271.276 347.098 270.695 347.069 270.115 347.08ZM291.536 346.376C291.045 348.109 296.396 349.228 296.193 350.667C294.396 350.321 291.331 350.286 292.453 353.007C292.747 355.995 291.77 359.976 292.978 362.349C294.958 362.336 299.388 364.771 299.305 361.472C299.559 357.517 299.511 353.438 298.529 349.592C297.215 347.125 294.051 346.624 291.536 346.376ZM287.773 347.427C286.772 350.608 283.319 348.071 281.357 349.057C280.349 350.772 277.146 348.287 278.726 351.104C280.373 355.576 280.457 360.398 280.62 365.095C282.274 366.459 282.659 362.003 285.023 363.333C286.771 364.093 290.912 364.649 290.026 361.639C288.573 361.06 292.373 360.153 290.92 358.571C290.241 355.261 291.815 351.016 289.176 348.519C288.786 348.076 288.364 347.596 287.773 347.427ZM272 334.996C269.272 334.857 266.301 337.763 266.19 340.058C268.448 341.265 266.58 346.254 270.681 345.152C271.974 344.367 275.821 344.946 275.56 343.327C272.707 342.774 275.414 339.961 277.358 340.914C278.557 340.901 281.578 340.306 279.03 339.507C276.63 338.219 274.011 338.142 271.494 339.017C270.55 336.372 277.284 336.709 275.331 335.156C274.229 334.995 273.111 334.983 272 334.996Z" fill="white"/>
</g>
<defs>
<clipPath id="clip0_806_109058">
<rect width="595.33" height="708" fill="white" transform="translate(0.664062)"/>
</clipPath>
</defs>
</svg>
