<svg id="id-svg" width="628" height="708" viewBox="0 0 628 708" fill="none" xmlns="http://www.w3.org/2000/svg">
<g clip-path="url(#clip0_806_109029)">
<path fill-rule="evenodd" clip-rule="evenodd" d="M627.852 0L627.67 645.829C627.661 678.314 602.946 682.573 579.428 682.659L340.72 683.945C324.441 683.237 316.306 697.516 309.869 707.818C295.684 691.49 293.193 683.237 271.613 682.659L54.6101 684.669C28.6564 684.532 0.533673 662.928 0.533673 644.247C0.533673 595.003 0.0449219 0 0.0449219 0H627.852Z" fill="#009CA6"/>
<path fill-rule="evenodd" clip-rule="evenodd" d="M627.671 89.0273V135.261H0.515625V89.0273H627.671Z" fill="white"/>
<path fill-rule="evenodd" clip-rule="evenodd" d="M627.671 547.333V599.596H0.515625V547.333H627.671Z" fill="white"/>
<path fill-rule="evenodd" clip-rule="evenodd" d="M0.515625 563.415H627.671V584.957H0.515625V563.415Z" fill="#009CDD"/>
<path fill-rule="evenodd" clip-rule="evenodd" d="M627.67 0.275381L0.533153 0.182617C-0.156675 215.37 0.533153 430.644 0.533153 645.83C0.533153 664.602 28.6559 684.533 54.6096 684.668L271.612 682.659C293.192 683.237 295.684 691.49 309.868 707.818C316.306 697.516 324.44 683.238 340.72 683.946L579.427 682.659C602.946 682.573 627.67 678.313 627.67 645.83V0.275381Z" stroke="#2C2C2B" stroke-width="0.36431"/>
<path fill-rule="evenodd" clip-rule="evenodd" d="M0.533203 103.099H627.67V121.189L0.533203 121.097V103.099Z" fill="#009CDD"/>
<path fill-rule="evenodd" clip-rule="evenodd" d="M366.448 400.308L309.778 390.39L272.235 375.614L250.187 384.405L225.49 380.196L229.938 353.357L250.734 330.07L372.489 384.104L366.448 400.308Z" fill="#FFC72C"/>
<path fill-rule="evenodd" clip-rule="evenodd" d="M364.104 391.939C366.261 398.34 367.752 404.971 368.545 411.687C369.996 423.968 369.112 436.416 370.075 448.746C370.774 457.682 372.445 466.539 375.049 475.105C384.832 475.568 394.607 476.184 404.371 476.954C409.011 477.319 413.648 477.72 418.282 478.154C419.018 474.727 418.23 470.994 416.173 468.173C414.112 465.346 410.985 463.55 407.92 461.903C404.856 460.256 401.68 458.613 399.393 455.97C397.809 454.139 396.728 451.9 396.024 449.572C395.32 447.243 394.979 444.817 394.75 442.393C393.91 433.497 394.561 424.458 396.665 415.78C400.626 407.316 405.596 399.337 411.434 392.073C416.795 385.402 422.863 379.355 428.68 373.088C437.29 363.811 445.427 353.944 451.441 342.762C456.652 333.073 460.21 322.463 461.789 311.545C463.081 302.61 463.052 293.532 462.683 284.509C462.461 279.085 462.117 273.665 461.651 268.256C466.01 260.287 468.79 251.436 469.777 242.381C470.58 235.019 470.208 227.574 469.48 220.204C468.975 215.095 468.3 210.003 467.455 204.94C468.531 203 469.439 200.964 470.164 198.863C470.977 196.511 471.561 194.078 471.906 191.611C468.045 192.433 464.232 193.481 460.49 194.747C457.137 195.881 453.842 197.19 450.622 198.667C444.839 195.795 438.48 194.117 432.048 193.767C425.35 193.402 418.579 194.478 412.313 196.903C410.211 195.114 407.83 193.662 405.285 192.618C402.08 191.303 398.617 190.64 395.16 190.677C395.021 192.173 395.209 193.698 395.708 195.113C396.158 196.39 396.86 197.575 397.76 198.578C397.731 203.904 397.555 209.23 397.23 214.546C396.808 221.464 396.132 228.394 394.512 235.128C393.684 238.573 392.606 241.984 392.338 245.519C392.059 249.188 392.679 252.923 394.125 256.299C391.797 265.584 386.591 274.105 379.427 280.358C368.643 289.77 354.029 293.695 339.798 293.994C325.567 294.293 311.494 291.274 297.577 288.25C279.277 284.275 260.772 280.244 242.063 280.744C229.951 281.067 217.976 283.287 206.059 285.506C193.297 287.883 180.479 290.281 168.212 294.568C158.659 297.907 149.509 302.368 139.888 305.501C134.065 307.397 128.099 308.796 122.194 310.41C118.183 311.507 114.188 312.705 110.091 313.4C105.994 314.096 101.759 314.278 97.7087 313.342C94.6805 312.642 91.7939 311.328 88.7156 310.908C87.1766 310.698 85.5889 310.72 84.0966 311.156C82.6043 311.591 81.2102 312.463 80.2951 313.734C79.3771 315.009 78.9837 316.635 79.0916 318.209C79.1993 319.783 79.7893 321.304 80.6652 322.609C82.4167 325.219 85.2075 326.913 88.0344 328.239C93.2476 330.686 98.9329 332.169 104.678 332.268C111.895 332.391 118.98 330.349 125.764 327.847C132.281 325.444 138.64 322.599 145.237 320.427C151.868 318.245 158.698 316.755 165.428 314.91C169.355 313.833 173.262 312.631 177.279 311.97C181.671 311.247 186.169 311.18 190.581 311.773C188.307 316.264 186.349 320.919 184.728 325.691C182.782 331.416 181.323 337.297 179.745 343.137C178.048 349.42 176.093 355.888 171.819 360.754C167.85 365.271 162.08 368.023 156.141 368.62C153.314 368.905 150.465 368.726 147.628 368.587C143.761 368.396 139.89 368.276 136.018 368.228C135.116 371.989 134.39 375.793 133.842 379.623C132.79 386.977 132.397 394.42 131.181 401.748C129.252 413.371 125.259 424.675 124.709 436.448C124.29 445.415 125.921 454.473 129.44 462.712C137.651 463.252 145.846 464.037 154.012 465.064C157.76 465.536 161.501 466.059 165.234 466.632C165.918 463.149 165.63 459.475 164.412 456.145C163.217 452.878 161.17 449.993 158.849 447.422C155.42 443.623 151.343 440.425 146.853 438.013C147.568 434.103 148.119 430.163 148.506 426.206C149.041 420.73 149.314 415.025 151.884 410.177C153.794 406.575 156.877 403.7 160.354 401.623C163.831 399.546 167.702 398.225 171.619 397.24C179.546 395.247 187.733 394.58 195.77 393.106C203.807 391.631 211.895 389.249 218.442 384.302C224.565 379.676 228.943 373.121 233.147 366.66C237.46 360.032 241.717 353.367 245.917 346.666" fill="#FFC72C"/>
<path fill-rule="evenodd" clip-rule="evenodd" d="M419.812 382.058C419.966 384.231 420.159 386.401 420.39 388.566C420.612 390.645 420.87 392.72 421.164 394.79C432.068 396.539 442.69 400.085 452.485 405.246C462.562 410.556 471.7 417.524 480.416 424.902C487.01 430.483 493.394 436.319 499.549 442.393C505.246 443.322 511.09 443.322 516.787 442.393C521.502 441.625 526.115 440.223 530.469 438.235C515.15 430.252 500.855 420.254 488.056 408.573C470.792 392.815 456.268 373.986 445.348 353.205" fill="#FFC72C"/>
<path d="M419.812 382.058C419.966 384.231 420.159 386.401 420.39 388.566C420.612 390.645 420.87 392.72 421.164 394.79C432.068 396.539 442.69 400.085 452.485 405.246C462.562 410.556 471.7 417.524 480.416 424.902C487.01 430.483 493.394 436.319 499.549 442.393C505.246 443.322 511.09 443.322 516.787 442.393C521.502 441.625 526.115 440.223 530.469 438.235C515.15 430.252 500.855 420.254 488.056 408.573C470.792 392.815 456.268 373.986 445.348 353.205" stroke="#800000" stroke-width="2.43708" stroke-miterlimit="2" stroke-linejoin="round"/>
<path fill-rule="evenodd" clip-rule="evenodd" d="M225.5 380.189C227.22 384.395 228.978 388.583 230.776 392.755C232.845 397.56 234.986 402.377 237.984 406.65C238.966 408.049 240.021 409.42 240.676 411.004C241.331 412.588 241.495 414.329 241.53 416.045L241.797 429.149C241.809 429.651 241.809 430.156 241.716 430.649C241.625 431.142 241.444 431.617 241.195 432.051C240.698 432.919 239.916 433.601 239.475 434.499C239.144 435.172 239.041 435.948 239.122 436.696C239.203 437.443 239.462 438.164 239.818 438.823C240.53 440.143 241.613 441.209 242.617 442.316C246.902 447.037 249.951 452.74 253.341 458.155C256.296 462.875 259.537 467.411 263.04 471.73L296.802 472.71C296.887 466.015 293.712 459.357 288.483 455.264C285.266 452.746 281.388 451.19 278.228 448.599C275.276 446.178 273.057 442.926 271.473 439.429C269.889 435.931 268.914 432.181 268.167 428.408C264.661 410.713 266.106 392.04 272.29 375.114" fill="#FFC72C"/>
<path d="M225.5 380.189C227.22 384.395 228.978 388.583 230.776 392.755C232.845 397.56 234.986 402.377 237.984 406.65C238.966 408.049 240.021 409.42 240.676 411.004C241.331 412.588 241.495 414.329 241.53 416.045L241.797 429.149C241.809 429.651 241.809 430.156 241.716 430.649C241.625 431.142 241.444 431.617 241.195 432.051C240.698 432.919 239.916 433.601 239.475 434.499C239.144 435.172 239.041 435.948 239.122 436.696C239.203 437.443 239.462 438.164 239.818 438.823C240.53 440.143 241.613 441.209 242.617 442.316C246.902 447.037 249.951 452.74 253.341 458.155C256.296 462.875 259.537 467.411 263.04 471.73L296.802 472.71C296.887 466.015 293.712 459.357 288.483 455.264C285.266 452.746 281.388 451.19 278.228 448.599C275.276 446.178 273.057 442.926 271.473 439.429C269.889 435.931 268.914 432.181 268.167 428.408C264.661 410.713 266.106 392.04 272.29 375.114" stroke="#800000" stroke-width="2.43708" stroke-miterlimit="2" stroke-linejoin="round"/>
<path fill-rule="evenodd" clip-rule="evenodd" d="M428.952 212.585C429.232 211.764 429.504 210.922 430.012 210.222C430.267 209.872 430.58 209.562 430.95 209.342C431.32 209.122 431.749 208.996 432.177 209.017C432.535 209.034 432.885 209.153 433.194 209.338C433.502 209.524 433.769 209.775 433.993 210.058C434.44 210.626 434.711 211.313 434.95 211.997C436.542 216.558 436.954 221.477 436.692 226.307C436.387 231.934 435.182 237.504 433.209 242.773C432.783 243.91 432.301 245.065 431.454 245.927C431.031 246.358 430.518 246.707 429.946 246.892C429.375 247.077 428.742 247.092 428.178 246.885C427.69 246.706 427.266 246.367 426.947 245.951C426.627 245.536 426.409 245.047 426.272 244.539C425.996 243.525 426.036 242.454 426.05 241.401C426.146 234.122 424.891 226.705 426.631 219.642C427.224 217.236 428.153 214.93 428.952 212.585Z" stroke="#800000" stroke-width="2.43708" stroke-miterlimit="2" stroke-linejoin="round"/>
<path fill-rule="evenodd" clip-rule="evenodd" d="M439.9 223.212C442.631 223.538 445.453 223.04 447.914 221.798C449.982 220.754 451.792 219.192 453.138 217.289C452.345 216.45 451.324 215.835 450.217 215.531C449.111 215.226 447.923 215.232 446.82 215.549C445.09 216.045 443.615 217.296 442.69 218.857C442.134 219.797 441.764 220.843 441.17 221.759C440.818 222.301 440.389 222.792 439.9 223.212Z" stroke="#800000" stroke-width="2.43708" stroke-miterlimit="2" stroke-linejoin="round"/>
<path fill-rule="evenodd" clip-rule="evenodd" d="M413.357 211.815C413.045 213.385 413.012 215.011 413.26 216.592C413.414 217.571 413.678 218.542 414.146 219.413C414.615 220.283 415.298 221.052 416.161 221.518C417.143 222.048 418.284 222.159 419.389 222.289C420.65 222.438 421.906 222.624 423.156 222.848C422.599 222.186 422.152 221.428 421.839 220.617C421.53 219.815 421.355 218.967 421.108 218.143C420.862 217.319 420.534 216.499 419.973 215.852C419.494 215.301 418.868 214.901 418.218 214.578C417.567 214.254 416.886 213.998 416.23 213.687C415.196 213.196 414.227 212.564 413.357 211.815Z" stroke="#800000" stroke-width="2.43708" stroke-miterlimit="2" stroke-linejoin="round"/>
<path fill-rule="evenodd" clip-rule="evenodd" d="M417.863 216.802C415.244 216.543 414.651 219.718 417.863 220.406C422.224 221.339 420.862 217.099 417.863 216.802ZM458.261 194.744C455.404 195.621 453.433 198.666 450.926 198.522C448.499 198.383 445.561 195.089 441.426 193.901C435.88 192.308 431.159 192.976 430.628 193.52C424.622 193.885 418.382 194.938 413.2 196.612C410.827 195.352 401.99 189.762 399.319 189.762H394.477L397.652 198.391C398.222 204.668 396.159 213.007 395.688 216.477C394.379 226.103 395.244 226.469 394.669 229.815C394.372 231.544 393.794 233.828 393.077 236.599C391.503 242.686 392.219 252.261 394.082 256.144C391.988 262.527 388.172 272.655 382.543 276.307C381.296 277.117 378.362 279.786 376.865 281.576C375.368 283.367 372.706 283.887 371.778 284.28C369.814 285.111 366.607 286.995 362.509 289.121C355.972 292.514 352.664 294.431 335.724 294.245C321.475 294.089 313.125 291.306 303.832 288.576C296.908 286.542 286.016 285.498 276.026 283.13C274.196 282.696 272.519 282.913 271.07 282.823C270.74 282.8 270.51 282.811 270.162 282.785C270 282.776 269.864 282.755 269.708 282.747C266.209 282.478 262.018 282.063 259.342 281.559L253.024 280.14C249.542 279.362 240.865 279.386 233.73 280.179C232.617 280.207 230.739 280.488 228.774 280.792C227.999 280.898 227.241 281.005 226.693 281.099C226.471 281.137 226.236 281.177 226.05 281.214C223.719 281.613 221.452 282.022 220.754 282.133L208.194 284.053C190.148 287.983 173.486 292.463 153.317 299.078C142.211 307.436 126.277 308.501 113.031 312.537C110.473 315.18 109.112 319.145 109.112 324.18C109.112 327.75 108.391 330.696 107.485 330.696C104.432 330.696 103.713 322.347 106.313 317.012C108.843 311.819 108.02 314.1 103.486 314.1C97.2124 314.1 95.6819 314.702 95.6819 322.608C95.6819 328.025 95.1758 329.122 93.0337 328.281C91.5733 327.707 90.0528 327.246 89.6667 327.246C88.6001 327.246 88.852 319.289 90.0072 316.207C90.5676 314.712 92.4587 313.486 94.2065 313.486C99.1312 313.486 97.3903 313.058 91.3593 310.728C87.8448 309.37 87.2044 310.284 86.8412 311.4C80.1143 309.135 77.5554 318.382 79.1324 322.336C80.1841 324.699 81.7773 325.594 82.597 325.594C83.4167 325.594 87.2066 328.805 91.0286 330.696C94.8506 332.586 100.022 334.107 102.492 334.107C109.081 334.107 134.024 327.594 142.253 323.72C146.167 321.877 150.558 320.385 152.013 320.385C153.469 320.385 155.986 319.628 157.612 318.737C159.239 317.846 162.557 316.848 164.99 316.514C167.423 316.181 169.938 315.379 170.589 314.713C171.87 313.401 188.029 313.011 188.029 314.291C182.764 326.904 180.825 345.746 170.778 358.407C164.98 365.257 160.687 366.763 147.284 366.763H134.838L132.946 373.24C131.911 376.785 130.682 383.91 130.222 389.108C129.763 394.307 128.245 403.994 126.855 410.611C124.002 424.198 123.447 446.252 125.758 453.73C126.605 456.471 127.712 460.643 128.217 463.006C129.13 467.274 129.264 467.315 148.571 467.49L168.016 467.682L167.524 459.288C167.053 451.205 166.693 450.63 157.348 443.918C153.002 440.797 149.381 440.401 148.162 438.816C146.731 436.955 148.148 433.969 148.722 430.656C149.323 427.192 150.483 423.62 151.295 422.722C152.106 421.824 152.449 418.555 152.77 416.283C153.14 413.663 153.625 412.039 154.056 411.454C155.677 409.251 156.206 408.273 157.158 406.663C159.302 403.04 160.705 401.346 169.227 398.92C174.906 397.304 180.914 396.007 182.544 396.007C184.173 396.008 193.97 393.198 204.335 389.798C214.798 386.367 221.04 382.064 226.078 379.036C226.049 381.721 228.152 389.893 231.422 397.694C233.602 402.893 236.069 408.514 236.908 410.189C237.746 411.864 238.911 416.748 239.48 420.998C240.265 426.856 239.869 429.48 237.778 431.845C235.204 434.757 235.272 435.332 239.216 440.813C251.406 457.758 254.778 462.659 257.715 467.758L260.931 473.316H279.885C290.85 473.316 296.461 474.842 297.96 473.013C298.192 472.73 298.374 467.958 296.72 463.121C294.239 455.865 293.002 454.429 285.786 450.089C282.332 448.688 280.607 444.155 277.35 444.11C273.934 444.11 271.131 433.713 269.254 414.328C267.788 399.189 271.208 378.798 275.231 378.798C276.745 378.798 278.705 379.472 279.582 380.293C312.511 391.605 334.628 398.018 357.137 400.454L365.952 401.412L366.141 408.579C366.242 412.528 366.528 418.313 366.784 421.458C367.04 424.602 367.881 434.66 368.638 443.803C369.394 452.946 370.035 461.217 370.076 462.162C370.116 463.108 371.116 464.9 372.27 466.149C373.424 467.398 374.351 470.241 374.351 472.473C374.351 476.913 376.451 477.887 386.873 478.337C390.531 478.495 393.868 478.981 394.288 479.41C394.707 479.84 400.675 480.215 407.567 480.215H420.127L419.143 474.044C417.959 466.571 415.847 463.777 408.815 460.361C400.504 456.324 395.846 446.284 396.293 433.339C396.51 427.056 398.828 420.3 399.773 416.245C400.991 411.019 404.154 406.336 406.28 402.447C409.661 396.264 415.137 389.108 416.836 389.108C417.342 389.108 418.016 390.812 418.311 392.864C418.887 396.874 419.55 397.136 440.253 402.063C447.409 403.766 453.268 405.799 453.268 406.586C453.268 407.373 454.058 408.004 455.046 408.004C458.133 408.004 472.187 418.509 480.696 427.169C499.427 446.233 499.217 446.138 513.004 445.528C520.93 445.177 525.69 444.182 526.207 442.807C526.651 441.625 528.16 440.66 529.574 440.66C535.656 440.66 529.434 433.639 523.268 433.524C513.939 426.998 500.937 418.947 491.893 410.355C483.681 402.424 477.594 397.877 471.249 389.99C456.442 371.433 446.012 358.784 445.836 352.459L449.22 345.567L445.777 350.588C443.887 353.347 438.181 359.96 433.103 365.268C428.025 370.576 419.787 379.415 414.793 384.931C407.155 393.366 405.891 394.24 406.848 390.335C408.12 385.148 406.139 384.244 402.724 388.457C401.489 389.98 397.064 392.866 392.888 394.896C388.638 396.962 385.054 400 384.716 401.795C384.149 404.813 384.342 404.846 388.008 402.217C392.432 399.044 398.79 398.564 400.417 401.258C401.95 403.799 394.233 414.889 390.921 414.903C389.418 414.91 387.319 415.945 386.268 417.241C384.737 419.13 385.39 419.822 389.445 420.653L394.477 421.688V434.413C394.477 455.27 395.307 457.422 404.654 460.821C409.876 462.72 413.408 465.225 414.603 467.912C417.206 473.76 415.37 474.606 410.442 469.866C408.099 467.613 406.243 466.795 406.243 467.988C406.243 469.34 405.003 469.714 402.876 469.023C399.082 467.791 398.491 469.789 401.627 473.201C403.366 475.093 401.444 475.286 390.429 474.389C383.118 473.794 376.892 473.058 376.583 472.741C375.415 471.546 371.61 430.178 372.61 429.545C373.186 429.181 374.788 429.596 376.129 430.465C379.078 432.375 386.116 432.583 386.116 430.771C386.116 430.057 383.886 428.481 381.16 427.245C378.434 426.01 375.713 423.48 375.145 421.649C374.577 419.818 373.434 418.315 372.572 418.315C371.711 418.315 370.984 417.573 370.984 416.628C370.984 415.683 373.654 414.903 376.885 414.903C380.117 414.903 382.749 414.124 382.749 413.179C382.749 412.233 381.483 411.454 379.95 411.454C375.855 411.454 367.845 401.473 366.633 394.858C365.35 387.858 360.976 387.123 360.731 393.861C360.573 398.208 360.445 398.09 359.067 392.558C358.243 389.25 358.037 379.006 358.612 369.791C359.194 360.492 359.015 353.038 358.196 353.041C356.212 353.05 350.448 375.724 349.571 386.962C348.934 395.122 348.462 396.007 344.842 396.007C336.25 396.007 332.268 379.176 334.022 350.511C335.23 330.762 334.549 323.797 331.487 323.797C330.034 323.797 329.354 326.24 329.406 331.117C329.45 335.134 328.132 346.197 326.493 355.686C323.76 371.515 323.729 373.685 326.115 382.018C334.776 397.574 308.51 385.361 306.367 383.244C304.111 380.771 303.915 369.959 305.875 357.411C308.845 338.4 309.125 333.78 307.275 334.95C306.307 335.563 305.535 337.628 305.535 339.55C305.535 341.471 304.014 345.004 302.168 347.407C299.557 350.804 298.801 354.372 298.801 363.467C298.801 369.9 299.58 375.646 300.503 376.23C301.426 376.814 302.168 378.291 302.168 379.526C302.168 383.44 271.672 373.184 260.25 365.421C259.816 365.126 262.289 362.157 265.736 358.829C269.182 355.5 271.516 352.014 270.956 351.086C270.396 350.159 265.905 353.321 260.969 358.101C256.033 362.88 250.909 366.763 249.581 366.763C248.254 366.763 246.297 367.862 245.231 369.178C244.164 370.493 241.865 371.931 240.124 372.397C237.341 373.142 237.098 372.485 237.891 366.993C238.388 363.557 240.574 357.527 242.772 353.578C244.705 350.104 245.9 347.718 246.355 346.368C247.103 344.147 245.85 344.724 242.583 347.867C241.574 348.837 240.632 349.918 239.919 350.952C238.068 353.636 236.407 356.492 234.893 359.011C233.904 360.658 232.73 362.964 231.611 365.498C226.527 377.018 223.851 380.236 216.819 383.244C209.586 386.338 209.231 386.304 210.653 382.669C211.3 381.015 212.461 375.782 213.225 371.056C215.555 356.649 217.771 349.492 223.137 339.013C225.964 333.492 227.707 328.971 226.996 328.971C224.66 328.971 218.017 338.429 214.875 345.173C212.256 351.631 210.409 355.606 207.968 361.439C204.579 369.467 197.311 381.707 192.72 386.234C185.162 393.688 183.107 393.342 186.024 385.084C187.125 381.969 188.029 378.175 188.029 376.652C188.029 375.128 189.511 373.381 191.358 372.78C196.1 371.24 201.991 362.479 206.34 350.435C211.266 336.79 220.042 318.636 223.705 314.483C225.32 312.65 226.618 310.627 226.618 309.998C226.618 309.369 228.323 306.873 230.401 304.479C232.478 302.085 237.409 296.22 241.334 291.447C246.728 284.888 249.772 282.633 253.894 282.172L254.613 282.095C256.213 282.005 257.632 282.435 259.229 282.708C259.954 282.832 260.73 282.93 261.498 283.015C259.707 283.558 258.839 284.664 257.337 286.618C253.875 290.241 250.171 293.016 248.256 296.622C244.647 303.476 239.661 316.076 235.168 330.197C231.496 341.736 227.21 353.13 225.672 355.533C221.481 362.08 225.278 360.799 231.801 353.463C238.445 345.989 243.622 335.609 247.69 321.65C248.321 319.485 249.013 317.481 249.668 315.854C251.731 311.264 253.594 308.603 255.853 305.514C257.806 302.856 260.786 299.249 264.109 295.587C273.923 284.771 275.016 284.007 278.523 285.928C282.315 288.006 282.329 288.039 279.015 291.754C273.885 297.503 270.93 304.622 267.854 318.661C266.301 325.75 263.885 333.355 262.482 335.563C259.873 339.672 260.345 342.181 263.352 340.278C264.276 339.694 267.516 334.142 270.578 327.936C273.64 321.73 279.445 313.438 283.479 309.5C287.512 305.562 293.234 299.808 296.19 296.737C299.147 293.665 302.091 291.179 302.735 291.179C304.24 291.179 302.347 299.301 299.482 305.131C296.411 311.378 292.106 333.378 292.104 342.807C292.104 347.108 291.275 351.457 290.288 352.466C289.302 353.476 288.743 357.306 289.04 360.975L289.57 367.644L293.353 359.557C295.427 355.119 297.136 350.649 297.136 349.592C297.136 348.534 299.027 343.412 301.335 338.246C303.643 333.08 305.521 327.16 305.535 325.061C305.548 322.963 306.513 319.562 307.653 317.511C308.794 315.459 311.982 309.436 314.728 304.134C317.937 297.937 320.61 294.675 322.256 295.012C324.767 295.525 324.998 302.971 322.559 304.901C319.772 307.106 313.933 321.232 313.933 325.751C313.933 331.113 318.192 339.281 321.008 339.281C321.933 339.281 322.288 337.732 321.802 335.832C321.317 333.931 321.829 329.848 322.899 326.786C325.006 320.759 325.416 320.109 331.374 313.218C333.56 310.689 336.359 306.235 337.616 303.329C338.915 300.324 341.198 298.04 342.875 298.04C346.304 298.04 346.845 303.184 343.745 306.357C341.626 308.526 341.236 326.014 342.496 362.048C342.819 371.264 343.267 378.798 343.518 378.798C344.182 378.798 348.767 368.216 349.836 364.195C350.338 362.304 351.174 352.246 351.727 341.849C352.814 321.421 356.479 307.538 364.06 295.088C369.352 286.399 373.515 285.569 374.956 292.942C376.042 298.501 383.615 310.958 391.11 319.504C393.597 322.339 397.726 328.393 400.265 332.957C405.565 342.485 407.47 342.496 404.616 332.957C402.115 324.601 399.935 319.825 393.834 309.423C391.132 304.817 388.757 298.537 388.575 295.472C388.393 292.406 387.78 289.128 387.213 288.189C386.647 287.251 386.833 283.102 387.63 278.952C388.528 274.268 389.167 273.027 389.294 275.694C389.493 279.891 397.412 295.598 403.33 303.521C420.851 326.976 423.767 331.709 425.461 339.703C426.458 344.404 429.73 346.371 429.736 342.271C429.739 340.288 441.501 323.709 447.806 315.947C450.604 312.501 453.245 308.361 455.769 304.773C458.03 301.558 461.174 298.04 462.196 298.04C463.425 298.04 458.636 312.172 456.975 313.448C456.31 313.959 452.315 319.319 448.312 325.521C442.358 334.746 439.707 339.207 435.638 347.254C431.897 354.651 432.512 358.236 436.659 353.041C445.403 342.089 449.772 337.556 451.641 337.556C453.183 337.556 455.564 338.17 453.948 340.163C451.089 343.69 450.338 344.874 452.383 340.829C453.28 339.053 454.357 338.19 453.807 337.627C453.258 337.065 453.899 336.166 454.894 334.938C459.756 328.941 462.471 315.905 463.067 291.356C463.508 273.154 459.783 272.701 461.715 268.066C463.192 264.522 467.182 252.66 467.384 252.002C468.711 247.674 469.595 239.237 469.609 221.756C469.613 216.207 468.174 210.612 467.567 205.548C468.779 201.012 470.307 196.655 471.904 191.61C467.171 191.976 463.23 193.168 458.261 194.744ZM404.02 194.583C402.717 195.514 400.869 196.951 399.994 197.505C398.315 196.379 397.809 193.741 398.506 192.445C400.496 192.631 402.796 193.45 404.02 194.583ZM463.747 194.974C468.445 194.881 467.14 199.177 462.385 199.459C456.281 199.82 455.717 201.046 459.245 206.473C462.102 210.867 462.434 210.974 463.142 207.814C463.565 205.924 464.871 212.493 466.055 222.418C467.973 238.496 467.888 241.678 465.336 251.547C463.094 260.215 461.071 263.937 455.991 268.718C452.422 272.079 445.31 278.896 440.178 283.858C431.15 292.588 428.072 294.515 428.072 291.409C428.072 290.592 425.113 287.809 421.489 285.238C417.865 282.667 414.394 279.262 413.809 277.687C412.956 275.393 413.174 275.275 414.868 276.997C416.031 278.179 418.166 279.161 419.597 279.182C421.028 279.203 424.061 280.654 426.331 282.44C430.18 285.468 430.616 285.497 433.028 282.823C434.45 281.246 437.565 278.938 439.951 277.687C448.177 273.374 453.872 267.802 452.435 265.422C451.324 263.581 450.718 263.612 449.22 265.652C446.871 268.849 429.532 278.446 428.158 277.446C426.878 276.514 426.445 276.318 425.216 275.645C421.881 273.818 414.018 267.881 409.042 262.969C405.774 259.743 405.722 259.743 406.621 262.969C407.124 264.773 408.066 267.786 408.702 269.677C409.853 273.098 409.859 273.116 407.756 269.715C406.594 267.836 405.009 265.497 404.238 264.541C403.466 263.584 401.356 260.963 399.547 258.715C394.93 252.98 394.02 245.813 396.217 231.885C397.261 225.268 398.522 215.42 399.017 209.999C399.512 204.578 400.552 200.541 401.325 201.03C402.098 201.519 402.265 203.239 401.665 204.863C400.668 207.559 400.834 207.55 403.594 204.748C405.258 203.06 406.277 200.351 405.864 198.731C405.2 196.121 407.01 195.714 421.678 195.243C440.912 194.625 446.087 195.631 443.015 199.42C441.476 201.319 441.43 202.436 442.902 203.943C443.97 205.037 444.869 207.159 444.869 208.658C444.869 210.267 446.263 211.379 448.312 211.379C451.331 211.379 451.471 211.099 449.182 209.386C446.099 207.078 445.682 203.522 448.501 203.522C449.578 203.522 449.926 202.979 449.295 202.333C447.939 200.945 459.503 195.059 463.747 194.974ZM422.51 196.623C418.039 196.623 416.484 197.455 415.776 200.225C414.977 203.356 415.413 203.675 419.143 202.717C421.499 202.112 424.538 200.523 425.877 199.152C428.005 196.974 427.578 196.623 422.51 196.623ZM416.155 205.285C415.258 205.388 414.641 205.878 414.641 206.818C414.641 207.694 415.976 208.762 417.592 209.194C422.913 210.618 423.451 210.421 421.338 207.814C419.896 206.036 417.649 205.112 416.155 205.285ZM432.46 206.933C431.243 206.933 428.842 210.129 427.126 214.024C424.331 220.369 423.857 220.755 422.51 217.665C421.684 215.768 419.147 213.359 416.873 212.299C412.91 210.45 410.353 210.59 410.858 215.863C411.297 220.447 414.709 221.603 419.257 222.801C424.537 224.192 426.488 227.978 423.04 230.16C421.915 230.872 421.915 232.3 423.04 234.453C423.966 236.224 424.705 240.026 424.705 242.923C424.705 245.821 425.484 248.213 426.407 248.213C429.62 248.213 428.049 252.795 424.099 254.959C413.876 260.559 409.279 250.904 417.138 240.355C421.467 234.545 421.529 232.297 417.252 236.676C414.551 239.441 409.61 249.086 409.61 251.586C409.61 252.603 412.026 256.157 414.982 259.481C417.937 262.806 421.478 266.948 422.851 268.68C424.836 271.185 426.384 271.54 430.379 270.367C435.078 268.987 438.075 266.23 438.135 263.237C438.149 262.529 439.012 261.934 440.064 261.934C445.843 261.934 448.612 248.222 444.074 242.08C442.719 240.245 441.569 237.41 441.54 235.756C441.51 234.102 440.761 232.728 439.837 232.728C438.914 232.728 438.135 230.798 438.135 228.435C438.135 225.239 439.036 224.142 441.615 224.142C447.939 224.142 455.805 218.412 453.873 215.212C451.997 212.105 444.842 213.985 442.069 218.316L439.194 222.801L436.924 214.867C435.683 210.511 433.677 206.933 432.46 206.933ZM405.637 210.382C402.751 210.382 399.547 224.025 399.547 236.216C399.547 247.663 400.063 250.264 403.292 254C405.369 256.405 407.238 257.443 407.415 256.3C408.621 248.546 408.688 241.677 407.567 242.387C406.836 242.849 406.243 244.359 406.243 245.721C406.243 247.083 405.501 248.213 404.578 248.213C402.272 248.213 402.457 244.553 405.146 237.672C406.426 234.396 406.929 230.021 406.28 227.592C405.65 225.229 405.472 220.366 405.902 216.822C406.332 213.277 406.208 210.382 405.637 210.382ZM433.028 211.992C433.324 211.935 433.624 212.057 433.898 212.337C435.28 213.752 435.339 235.563 433.973 237.826C432.074 240.972 428.491 239.759 427.845 235.756C426.556 227.77 430.163 212.544 433.028 211.992ZM458.451 216.362C458.385 216.364 458.324 216.398 458.261 216.438C456.784 217.373 454.726 232.521 454.667 243.038C454.644 247.292 454.284 249.407 453.835 247.753C453.386 246.099 452.307 244.763 451.452 244.763C449.223 244.763 449.519 254.519 451.868 258.37C453.789 261.52 453.941 261.499 456.672 257.91C458.223 255.873 459.921 251.892 460.456 249.056C460.991 246.22 461.969 241.708 462.612 239.014C463.824 233.937 460.493 216.298 458.451 216.362ZM446.306 217.742C447.068 217.708 447.862 217.931 448.463 218.546C449.537 219.646 449.238 220.607 447.555 221.268C446.138 221.825 444.543 221.57 444.037 220.731C443.104 219.186 444.632 217.816 446.306 217.742ZM438.021 237.289L441.313 244.725C443.89 250.618 444.165 252.837 442.637 255.342C440.424 258.97 436.382 259.461 433.444 256.453C430.642 253.585 430.907 250.877 434.73 243.575L438.021 237.289ZM419.484 243.843C419.383 243.831 419.288 243.848 419.181 243.882C418.541 244.081 417.877 245.078 417.517 246.488C417.036 248.368 417.232 249.899 417.971 249.899C419.943 249.899 421.439 245.004 419.786 243.958C419.689 243.897 419.584 243.855 419.484 243.843ZM438.059 244.763C437.081 244.763 436.732 245.543 437.303 246.488C437.873 247.433 438.674 248.213 439.081 248.213C439.488 248.213 439.837 247.433 439.837 246.488C439.837 245.543 439.037 244.763 438.059 244.763ZM428.488 262.011C434.911 261.955 436.906 264.193 432.12 266.074C428.722 267.408 429.239 267.504 425.461 264.579C422.408 262.214 422.589 262.062 428.488 262.011ZM396.633 267.415C397.129 267.462 398.335 268.857 400.454 271.401C406.831 279.058 410.229 282.698 417.744 290.067C421.478 293.73 426.097 300.113 427.996 304.249C431.618 312.138 434.768 314.087 434.768 308.427C434.768 306.59 436.467 302.175 438.513 298.576C442.406 291.73 456.543 275.71 458.715 275.694C460.977 275.678 460.01 282.087 457.429 284.28C456.044 285.456 454.932 287.379 454.932 288.534C454.932 289.689 453.162 292.989 450.733 295.625C447.999 298.592 446.571 301.985 444.453 305.207C442.93 307.523 439.46 312.773 431.893 327.668C429.014 333.334 428.072 333.613 428.072 328.779C428.072 324.747 420.721 308.956 416.987 304.939C412.288 299.885 400.075 279.916 398.147 274.161C396.59 269.516 395.996 267.355 396.633 267.415ZM227.753 282.555C228.542 282.535 229.269 282.549 229.947 282.632C229.986 282.639 230.022 282.624 230.06 282.632C231.978 283.012 233.321 283.531 233.314 283.973C233.303 284.625 229.521 288.499 224.915 292.597C220.815 296.126 217.114 299.412 213.187 305.782C210.33 310.418 208.483 314.918 206.68 319.12C201.404 331.289 200.03 336.185 198.13 349.438C196.416 361.398 192.272 371.937 189.315 371.937C187.411 371.937 187.732 367.122 189.883 363.007C191.296 360.304 191.186 359.126 189.505 358.062C187.722 356.935 187.651 353.779 189.164 341.504C191.074 326.012 196.788 310.528 203.2 303.482C204.994 301.511 206.491 299.143 206.491 298.231C206.491 297.319 209.679 293.317 213.603 289.339L219.165 283.743C221.659 283.241 224.889 282.629 227.753 282.555ZM205.167 286.311C206.387 286.363 205.043 288.039 200.362 293.249C196.542 297.5 192.569 302.644 191.51 304.671C190.45 306.697 188.448 308.35 187.083 308.35C184.931 308.35 184.975 307.5 187.31 301.911C188.792 298.366 190.364 294.604 190.791 293.555C191.662 291.414 196.833 288.549 203.124 286.733C204.067 286.461 204.76 286.294 205.167 286.311ZM180.009 291.179C180.967 291.179 181.13 292.438 180.387 294.169C179.677 295.823 178.753 300.091 178.344 303.636C177.882 307.639 176.697 310.075 175.242 310.075C172.317 310.075 172.33 309.949 175.62 299.65C177.112 294.982 179.093 291.179 180.009 291.179ZM369.432 294.59C367.201 294.59 366.593 303.841 367.957 317.511C369.112 329.086 369.291 329.414 380.555 341.658C391.469 353.52 395.909 355.361 392.699 346.717C391.88 344.511 391.589 342.731 392.056 342.731C393.282 342.731 381.167 323.273 378.663 321.229C374.696 317.988 370.984 308.523 370.984 301.566C370.984 297.738 370.297 294.59 369.432 294.59ZM166.692 294.744C166.784 294.745 166.855 294.817 166.919 294.897C167.173 295.215 166.91 299.304 166.352 304.019C165.573 310.591 164.629 312.74 162.19 313.218C159.42 313.761 159.145 313.134 160.109 308.197C161.081 303.225 165.32 294.724 166.692 294.744ZM151.862 302.103C152.914 302.036 152.708 303.67 151.9 308.618C151.23 312.721 149.839 316.663 148.798 317.357C145.358 319.652 143.951 318.709 144.977 314.789C145.533 312.663 146.023 309.588 146.036 307.967C146.049 306.346 147.65 304.163 149.592 303.099C150.657 302.516 151.384 302.133 151.862 302.103ZM136.616 307.277C137.358 307.227 137.345 310.054 136.578 315.786C135.897 320.872 134.664 323.797 133.211 323.797C130.221 323.797 130.331 320.573 133.552 312.681C135.009 309.111 136.039 307.316 136.616 307.277ZM265.055 307.584C264.725 307.418 263.612 309.461 261.158 314.099C256.319 323.248 250.111 344.278 250.111 351.546C250.111 354.086 249.184 356.551 248.03 357.027C246.554 357.637 246.525 357.967 247.917 358.062C251.741 358.324 254.952 352.935 256.807 343.152C257.838 337.718 259.842 329.775 261.271 325.521C262.701 321.268 264.246 315.108 264.714 311.8C265.083 309.194 265.311 307.712 265.055 307.584ZM290.175 311.11C289.041 311.31 286.969 314.134 284.576 319.695C282.178 325.269 279.157 331.792 277.88 334.184C275.387 338.851 274.437 348.243 274.967 363.275C275.268 371.817 275.552 372.442 277.955 369.982C281.362 366.495 283.752 357.122 285.332 341.006C286.028 333.917 287.784 324.625 289.267 320.385C291.497 314.01 291.459 310.883 290.175 311.11ZM121.105 311.8C123.769 311.8 124.056 312.346 122.618 315.096C121.662 316.924 120.878 320.413 120.878 322.838C120.878 325.612 119.927 327.246 118.343 327.246C116.844 327.246 115.833 325.677 115.846 323.375C115.89 316.048 117.821 311.8 121.105 311.8ZM407.68 317.166C406.576 317.092 406.862 318.571 408.588 322.8C409.98 326.209 411.625 333.672 412.258 339.396C413.317 348.976 416.615 356.242 423.456 364.195C428.875 370.494 429.599 364.716 424.705 354.344C422.858 350.432 421.326 345.229 421.3 342.807C421.244 337.577 411.388 318.298 408.248 317.281C408.034 317.211 407.838 317.176 407.68 317.166ZM362.017 321.344C360.942 321.587 361.089 326.243 361.904 341.849C363.091 364.598 363.674 366.827 373.253 384.816C374.763 387.651 376.009 390.976 376.015 392.213C376.021 393.45 376.857 393.964 377.869 393.324C378.9 392.672 379.342 389.789 378.852 386.77C377.18 376.46 374.368 364.159 372.913 360.745C372.107 358.855 370.639 355.404 369.659 353.041C368.68 350.678 367.517 343.425 367.087 336.943C366.566 329.092 365.387 324.22 363.531 322.34C362.882 321.683 362.376 321.262 362.017 321.344ZM395.007 338.86C394.907 338.906 394.885 339.049 394.969 339.32C395.416 340.762 396.718 346.551 397.844 352.198C399.762 361.812 405.103 371.745 411.009 376.652C415.054 380.011 415.356 377.771 411.728 371.477C409.897 368.3 407.884 362.218 407.264 357.986C406.475 352.601 404.346 348.252 400.152 343.497C397.473 340.461 395.438 338.658 395.007 338.86ZM314.387 340.393C312.995 340.233 311.8 349.398 311.55 365.076C311.467 370.275 312.44 377.029 313.706 380.101C320.95 401.464 316.812 350.153 316.317 346.64C315.662 342.472 315.02 340.465 314.387 340.393ZM175.772 358.177C176.253 358.177 176.341 363.179 175.961 369.292C175.418 378.021 174.406 381.36 171.27 384.777C169.073 387.171 168.101 389.108 169.075 389.108C172.384 389.108 181.193 378.31 183.641 371.247C184.981 367.38 186.14 365.593 186.213 367.299C186.623 376.884 172.635 396.007 165.217 396.007C163.249 396.007 159.513 398.007 156.894 400.492L152.127 405.015L148.23 400.415C144.367 395.818 144.361 395.815 144.371 399.764C144.377 401.943 145.527 405.949 146.906 408.656C149.742 414.222 150.084 418.942 147.965 423.182C147.17 424.774 146.07 429.676 145.506 434.106C144.587 441.325 144.785 442.133 147.587 441.58C149.415 441.22 153.303 443.393 156.969 446.831C160.418 450.065 162.397 452.695 161.358 452.695C160.319 452.695 159.428 454.849 159.353 457.448L159.201 462.162L157.158 457.371C154.77 451.85 152.368 453.019 153.829 458.981C155.263 464.828 152.913 463.955 150.841 457.87C148.719 451.64 145.325 450.954 146.452 456.988C147.182 460.895 146.728 461.281 141.496 461.281C138.332 461.281 134.351 460.53 132.644 459.594C129.336 457.782 125.91 444.982 125.91 434.489C125.91 428.485 125.905 428.498 132.152 429.698L138.394 430.886L135.481 426.747C129.468 418.235 129.707 413.382 135.859 419.081C141.369 424.186 143.026 421.366 138.507 414.558C136.19 411.067 134.308 406.605 134.308 404.631C134.308 401.575 134.778 401.302 137.637 402.868C140.258 404.304 141.004 404.189 141.004 402.293C141.004 400.958 139.892 398.871 138.507 397.694C135.852 395.437 135.119 383.648 137.032 373.854C137.843 369.704 138.962 368.488 141.95 368.488C145.496 368.488 145.808 369.26 145.809 377.533C145.81 386.303 149.468 397.077 151.673 394.819C152.274 394.203 152.77 390.713 152.77 387.077C152.77 383.441 153.465 379.136 154.321 377.495C155.177 375.854 156.495 372.946 157.234 371.056C158.207 368.568 158.725 370.233 159.126 377.073C159.858 389.589 161.921 391.229 164.384 381.213C166.27 373.546 173.862 358.177 175.772 358.177ZM445.928 359.327C447.422 359.217 446.572 362.443 443.166 368.947C439.238 376.451 439.161 377.073 441.88 377.073C443.005 377.073 445.662 374.968 447.82 372.397C451.086 368.505 452.031 368.148 453.381 370.251C455.228 373.127 453.742 384.523 451.414 385.39C449.254 386.195 449.492 389.108 451.716 389.108C452.728 389.108 455.676 387.581 458.261 385.697C462.249 382.79 463.12 382.638 463.936 384.816C465.459 388.879 463.48 392.086 457.732 394.858C451.59 397.819 441.564 399.673 438.664 398.384C437.167 397.718 437.267 395.788 439.081 390.526C440.405 386.685 441.502 382.473 441.502 381.174C441.502 377.487 438.911 378.376 436.546 382.899C434.47 386.869 426.754 391.814 425.159 390.182C422.601 387.563 427.932 377.019 436.659 367.414C441.49 362.098 444.61 359.424 445.928 359.327ZM253.894 368.756C255.719 368.751 257.589 369.514 260.174 370.979L264.374 373.355L260.174 375.042C257.877 375.974 252.601 377.678 248.446 378.836C241.248 380.843 241.081 381.05 245.08 382.592C247.388 383.483 253.053 383.734 257.64 383.167L265.963 382.133L261.158 387.269C258.508 390.101 253.062 393.821 249.052 395.509C245.042 397.197 241.754 399.263 241.75 400.109C241.747 400.962 246.587 401.186 252.646 400.607C260.623 399.844 263.579 400.119 263.617 401.642C263.787 408.489 267.184 430.288 268.762 434.643C272.183 444.081 276.039 450.971 277.917 450.971C278.939 450.971 282.738 453.712 286.354 457.026C289.97 460.341 292.195 462.932 291.272 462.814C287.595 462.344 287.017 463.165 288.737 466.455C289.832 468.549 289.916 469.905 288.926 469.905C288.033 469.905 286.837 468.412 286.278 466.609C285.719 464.805 284.148 462.884 282.798 462.354C279.89 461.212 279.74 462.096 282.079 466.57C283.059 468.444 283.137 469.905 282.268 469.905C281.42 469.905 280.33 468.346 279.847 466.455C279.364 464.565 277.865 463.006 276.48 463.006C274.788 463.006 274.225 464.146 274.815 466.455C275.521 469.217 274.866 469.905 271.486 469.905C266.562 469.905 262.809 466.761 255.029 456.145C251.912 451.891 248.926 448.032 248.371 447.559C247.816 447.087 245.949 444.183 244.209 441.12C241.735 436.764 241.486 435.119 243.074 433.493C244.196 432.344 245.08 426.925 245.08 421.419C245.08 413.705 245.665 411.454 247.614 411.454C252.27 411.454 250.167 408.52 242.583 404.401C232.796 399.086 231.569 396.007 239.253 396.007C246.366 396.007 246.974 392.849 240.124 391.446C237.389 390.886 233.872 388.452 232.33 386.042C229.689 381.915 229.712 381.531 232.595 379.373C234.279 378.113 236.697 377.073 237.967 377.073C239.237 377.073 242.772 375.143 245.798 372.78C249.31 370.038 251.549 368.763 253.894 368.756ZM468.552 390.833C469.39 390.833 471.739 392.958 473.81 395.547C475.881 398.137 480.133 402.591 483.23 405.436C486.327 408.282 491.631 413.32 495.034 416.628C498.437 419.936 506.637 425.355 513.231 428.663C519.825 431.972 524.999 435.422 524.732 436.367C524.201 438.244 521.108 438.281 516.749 436.444C514.844 435.641 513.733 436.259 513.193 438.399C512.758 440.122 512.316 440.577 512.209 439.395C512.089 438.065 509.444 437.249 505.248 437.249C501.523 437.249 496.405 435.905 493.899 434.259C489.722 431.517 477.462 419.167 476.383 416.628C476.131 416.036 472.332 413.06 467.946 409.997C463.561 406.935 459.964 404.123 459.964 403.75C459.964 401.788 467.249 390.833 468.552 390.833Z" fill="black"/>
<path d="M364.104 391.939C366.261 398.34 367.752 404.971 368.545 411.687C369.996 423.968 369.112 436.416 370.075 448.746C370.774 457.682 372.445 466.539 375.049 475.105C384.832 475.568 394.607 476.184 404.371 476.954C409.011 477.319 413.648 477.72 418.282 478.154C419.018 474.727 418.23 470.994 416.173 468.173C414.112 465.346 410.985 463.55 407.92 461.903C404.856 460.256 401.68 458.613 399.393 455.97C397.809 454.139 396.728 451.9 396.024 449.572C395.32 447.243 394.979 444.817 394.75 442.393C393.91 433.497 394.561 424.458 396.665 415.78C400.626 407.316 405.596 399.337 411.434 392.073C416.795 385.402 422.863 379.355 428.68 373.088C437.29 363.811 445.427 353.944 451.441 342.762C456.652 333.073 460.21 322.463 461.789 311.545C463.081 302.61 463.052 293.532 462.683 284.509C462.461 279.085 462.117 273.665 461.651 268.256C466.01 260.287 468.79 251.436 469.777 242.381C470.58 235.019 470.208 227.574 469.48 220.204C468.975 215.095 468.3 210.003 467.455 204.94C468.531 203 469.439 200.964 470.164 198.863C470.977 196.511 471.561 194.078 471.906 191.611C468.045 192.433 464.232 193.481 460.49 194.747C457.137 195.881 453.842 197.19 450.622 198.667C444.839 195.795 438.48 194.117 432.048 193.767C425.35 193.402 418.579 194.478 412.313 196.903C410.211 195.114 407.83 193.662 405.285 192.618C402.08 191.303 398.617 190.64 395.16 190.677C395.021 192.173 395.209 193.698 395.708 195.113C396.158 196.39 396.86 197.575 397.76 198.578C397.731 203.904 397.555 209.23 397.23 214.546C396.808 221.464 396.132 228.394 394.512 235.128C393.684 238.573 392.606 241.984 392.338 245.519C392.059 249.188 392.679 252.923 394.125 256.299C391.797 265.584 386.591 274.105 379.427 280.358C368.643 289.77 354.029 293.695 339.798 293.994C325.567 294.293 311.494 291.274 297.577 288.25C279.277 284.275 260.772 280.244 242.063 280.744C229.951 281.067 217.976 283.287 206.059 285.506C193.297 287.883 180.479 290.281 168.212 294.568C158.659 297.907 149.509 302.368 139.888 305.501C134.065 307.397 128.099 308.796 122.194 310.41C118.183 311.507 114.188 312.705 110.091 313.4C105.994 314.096 101.759 314.278 97.7087 313.342C94.6805 312.642 91.7939 311.328 88.7156 310.908C87.1766 310.698 85.5889 310.72 84.0966 311.156C82.6043 311.591 81.2102 312.463 80.2951 313.734C79.3771 315.009 78.9837 316.635 79.0916 318.209C79.1993 319.783 79.7893 321.304 80.6652 322.609C82.4167 325.219 85.2075 326.913 88.0344 328.239C93.2476 330.686 98.9329 332.169 104.678 332.268C111.895 332.391 118.98 330.349 125.764 327.847C132.281 325.444 138.64 322.599 145.237 320.427C151.868 318.245 158.698 316.755 165.428 314.91C169.355 313.833 173.262 312.631 177.279 311.97C181.671 311.247 186.169 311.18 190.581 311.773C188.307 316.264 186.349 320.919 184.728 325.691C182.782 331.416 181.323 337.297 179.745 343.137C178.048 349.42 176.093 355.888 171.819 360.754C167.85 365.271 162.08 368.023 156.141 368.62C153.314 368.905 150.465 368.726 147.628 368.587C143.761 368.396 139.89 368.276 136.018 368.228C135.116 371.989 134.39 375.793 133.842 379.623C132.79 386.977 132.397 394.42 131.181 401.748C129.252 413.371 125.259 424.675 124.709 436.448C124.29 445.415 125.921 454.473 129.44 462.712C137.651 463.252 145.846 464.037 154.012 465.064C157.76 465.536 161.501 466.059 165.234 466.632C165.918 463.149 165.63 459.475 164.412 456.145C163.217 452.878 161.17 449.993 158.849 447.422C155.42 443.623 151.343 440.425 146.853 438.013C147.568 434.103 148.119 430.163 148.506 426.206C149.041 420.73 149.314 415.025 151.884 410.177C153.794 406.574 156.876 403.699 160.353 401.622C163.831 399.544 167.701 398.224 171.619 397.24C179.547 395.249 187.736 394.589 195.774 393.117C203.812 391.645 211.903 389.26 218.442 384.302C224.557 379.667 228.915 373.1 233.147 366.66C235.578 362.961 238.009 359.257 240.214 355.415C241.514 353.15 242.734 350.838 243.871 348.486" stroke="black" stroke-width="2.43708" stroke-miterlimit="2"/>
<path d="M419.812 382.058C419.966 384.231 420.159 386.401 420.39 388.566C420.612 390.645 420.87 392.72 421.164 394.79C432.068 396.539 442.69 400.085 452.485 405.246C462.562 410.556 471.7 417.524 480.416 424.902C487.01 430.483 493.394 436.319 499.549 442.393C505.246 443.322 511.09 443.322 516.787 442.393C521.502 441.625 526.115 440.223 530.469 438.235C515.15 430.252 500.855 420.254 488.056 408.573C470.792 392.815 456.268 373.986 445.348 353.205" stroke="black" stroke-width="2.43708" stroke-miterlimit="2" stroke-linejoin="round"/>
<path d="M270.102 351.37C266.678 355.587 262.848 359.466 258.686 362.936C248.339 371.56 235.91 377.602 222.795 380.382" stroke="black" stroke-width="2.43708" stroke-miterlimit="2" stroke-linejoin="round"/>
<path d="M255.611 365.499C271.926 375.762 289.515 383.944 307.832 389.791C326.86 395.864 346.671 399.415 366.601 400.325" stroke="black" stroke-width="2.43708" stroke-miterlimit="2" stroke-linejoin="round"/>
<path d="M225.5 380.189C227.22 384.395 228.978 388.583 230.776 392.755C232.845 397.56 234.986 402.377 237.984 406.65C238.966 408.049 240.021 409.42 240.676 411.004C241.331 412.588 241.495 414.329 241.53 416.045L241.797 429.149C241.809 429.651 241.809 430.156 241.716 430.649C241.625 431.142 241.444 431.617 241.195 432.051C240.698 432.919 239.916 433.601 239.475 434.499C239.144 435.172 239.041 435.948 239.122 436.696C239.203 437.443 239.462 438.164 239.818 438.823C240.53 440.143 241.613 441.209 242.617 442.316C246.902 447.037 249.951 452.74 253.341 458.155C256.296 462.875 259.537 467.411 263.04 471.73L296.802 472.71C296.887 466.015 293.712 459.357 288.483 455.264C285.266 452.746 281.388 451.19 278.228 448.599C275.276 446.178 273.057 442.926 271.473 439.429C269.889 435.931 268.914 432.181 268.167 428.408C264.661 410.713 266.106 392.04 272.29 375.114" stroke="black" stroke-width="2.43708" stroke-miterlimit="2" stroke-linejoin="round"/>
<path fill-rule="evenodd" clip-rule="evenodd" d="M428.952 212.585C429.232 211.764 429.504 210.922 430.012 210.222C430.267 209.872 430.58 209.562 430.95 209.342C431.32 209.122 431.749 208.996 432.177 209.017C432.535 209.034 432.885 209.153 433.194 209.338C433.502 209.524 433.769 209.775 433.993 210.058C434.44 210.626 434.711 211.313 434.95 211.997C436.542 216.558 436.954 221.477 436.692 226.307C436.387 231.934 435.182 237.504 433.209 242.773C432.783 243.91 432.301 245.065 431.454 245.927C431.031 246.358 430.518 246.707 429.946 246.892C429.375 247.077 428.742 247.092 428.178 246.885C427.69 246.706 427.266 246.367 426.947 245.951C426.627 245.536 426.409 245.047 426.272 244.539C425.996 243.525 426.036 242.454 426.05 241.401C426.146 234.122 424.891 226.705 426.631 219.642C427.224 217.236 428.153 214.93 428.952 212.585Z" stroke="black" stroke-width="2.43708" stroke-miterlimit="2" stroke-linejoin="round"/>
<path fill-rule="evenodd" clip-rule="evenodd" d="M439.9 223.212C442.631 223.538 445.453 223.04 447.914 221.798C449.982 220.754 451.792 219.192 453.138 217.289C452.345 216.45 451.324 215.835 450.217 215.531C449.111 215.226 447.923 215.232 446.82 215.549C445.09 216.045 443.615 217.296 442.69 218.857C442.134 219.797 441.764 220.843 441.17 221.759C440.818 222.301 440.389 222.792 439.9 223.212Z" stroke="black" stroke-width="2.43708" stroke-miterlimit="2" stroke-linejoin="round"/>
<path fill-rule="evenodd" clip-rule="evenodd" d="M413.357 211.815C413.045 213.385 413.012 215.011 413.26 216.592C413.414 217.571 413.678 218.542 414.146 219.413C414.615 220.283 415.298 221.052 416.161 221.518C417.143 222.048 418.284 222.159 419.389 222.289C420.65 222.438 421.906 222.624 423.156 222.848C422.599 222.186 422.152 221.428 421.839 220.617C421.53 219.815 421.355 218.967 421.108 218.143C420.862 217.319 420.534 216.499 419.973 215.852C419.494 215.301 418.868 214.901 418.218 214.578C417.567 214.254 416.886 213.998 416.23 213.687C415.196 213.196 414.227 212.564 413.357 211.815Z" stroke="black" stroke-width="2.43708" stroke-miterlimit="2" stroke-linejoin="round"/>
</g>
<defs>
<clipPath id="clip0_806_109029">
<rect width="627.808" height="708" fill="white" transform="translate(0.0449219)"/>
</clipPath>
</defs>
</svg>
