<svg id="id-svg" width="528" height="712" viewBox="0 0 528 712" fill="none" xmlns="http://www.w3.org/2000/svg">
<g clip-path="url(#clip0_806_111164)">
<path fill-rule="evenodd" clip-rule="evenodd" d="M234.635 639.623C234.635 639.623 242.219 639.159 246.884 641.313C250.88 643.158 254.417 646.132 254.724 647.72C255.033 649.308 254.724 700.61 254.724 700.61L234.635 692.101V639.623Z" fill="#F4F3F3"/>
<path fill-rule="evenodd" clip-rule="evenodd" d="M234.674 640.237C234.749 640.233 242.162 639.809 246.629 641.871C250.549 643.679 253.876 646.564 254.121 647.836C254.337 649.15 254.234 680.116 254.112 700.606L254.968 700.043L234.877 691.537L235.251 692.101V639.623L234.674 640.237ZM234.398 692.668L254.486 701.175L255.336 701.534L255.342 700.611C255.373 695.355 255.639 649.205 255.332 647.603C254.97 645.744 251.297 642.672 247.143 640.755C242.393 638.562 234.915 638.992 234.599 639.011L234.021 639.045V639.623V692.101V692.509L234.398 692.668Z" fill="#241E1E"/>
<path fill-rule="evenodd" clip-rule="evenodd" d="M235.358 641.621C235.358 641.621 242.187 642.082 245.84 643.312C249.493 644.544 252.668 647.003 253.781 648.539C254.892 650.077 254.415 657.304 254.415 657.304L235.201 660.992L235.358 641.621Z" fill="#008938"/>
<path fill-rule="evenodd" clip-rule="evenodd" d="M235.354 647.924C235.354 647.924 241.519 647.659 244.769 648.538C250.625 650.128 252.521 655.661 252.521 655.661L243.424 658.738L235.513 657.304L235.354 647.924Z" fill="#DB0D15"/>
<path fill-rule="evenodd" clip-rule="evenodd" d="M128.702 657.149C128.702 657.149 127.779 651 130.547 644.543C133.315 638.085 143.308 633.78 157.914 633.01C172.519 632.243 212.494 653.614 232.943 657.766C253.392 661.915 254.775 650.026 254.775 650.026L254.828 702.762C254.828 702.762 253.444 714.653 232.996 710.5C212.547 706.348 172.574 684.977 157.966 685.745C143.36 686.516 136.482 693.437 130.6 697.278C127.104 699.562 128.332 696.899 128.332 696.899L128.702 657.149Z" fill="#F4F3F3"/>
<path fill-rule="evenodd" clip-rule="evenodd" d="M129.311 657.058C129.301 656.999 128.45 650.993 131.111 644.783C133.788 638.539 143.82 634.369 157.946 633.624C165.994 633.201 182.382 639.817 198.231 646.217C210.789 651.287 223.775 656.53 232.82 658.368C241.004 660.027 247.206 659.383 251.255 656.446C254.918 653.79 255.369 650.247 255.387 650.098L254.161 650.026L254.212 702.764L254.217 702.69C254.212 702.719 253.79 705.879 250.557 708.208C246.796 710.913 240.93 711.483 233.119 709.896C224.183 708.082 211.251 702.862 198.745 697.812C182.037 691.067 166.255 684.694 157.935 685.133C145.6 685.781 138.789 690.689 133.317 694.629C132.248 695.398 131.239 696.126 130.264 696.763C128.952 697.622 128.575 697.589 128.559 697.588C128.629 697.596 128.729 697.687 128.741 697.754C128.722 697.66 128.798 697.364 128.893 697.151L128.948 697.035C128.948 697.032 128.949 696.903 128.949 696.903L129.319 657.155L129.32 657.105L129.311 657.058ZM127.774 696.64C127.63 696.952 127.211 698.015 127.859 698.573C128.428 699.065 129.347 698.832 130.937 697.794C131.935 697.141 132.955 696.406 134.035 695.627C139.376 691.78 146.023 686.991 157.999 686.361C166.047 685.938 182.435 692.554 198.285 698.952C210.842 704.023 223.827 709.267 232.874 711.104C241.056 712.764 247.258 712.118 251.308 709.183C254.972 706.526 255.422 702.983 255.441 702.833L255.443 702.799V702.763L255.39 650.027L254.166 649.955C254.162 649.986 253.739 653.143 250.506 655.471C246.745 658.18 240.876 658.746 233.066 657.16C224.131 655.348 211.199 650.126 198.693 645.076C181.985 638.331 166.203 631.959 157.883 632.398C143.06 633.178 132.89 637.514 129.983 644.3C127.14 650.933 128.093 657.245 128.107 657.298L128.088 657.142L127.718 696.892L127.774 696.64Z" fill="#241E1E"/>
<path fill-rule="evenodd" clip-rule="evenodd" d="M254.212 692.975L253.394 695.845C253.38 695.934 251.453 699.705 249.066 701.367C245.914 703.558 240.588 703.972 233.66 702.567C224.945 700.799 212.121 695.621 199.717 690.611C182.748 683.76 164.987 675.697 156.123 676.164C140.327 676.995 131.116 683.469 127.825 691.149C124.812 698.18 125.319 700.535 125.965 701.695L127.627 697.69C127.894 698.166 129.882 698.71 129.882 698.714C129.879 698.655 130.433 697.636 132.342 693.18C134.606 687.898 145.207 684.583 158.18 683.897C165.683 683.503 181.815 690.015 197.415 696.315C210.077 701.429 223.168 706.712 232.436 708.595C241.321 710.401 247.038 709.17 251.856 705.788C254.218 704.13 254.258 702.787 254.316 702.302L254.212 692.975Z" fill="#1C9AD7"/>
<path fill-rule="evenodd" clip-rule="evenodd" d="M127.805 660.92C127.805 660.92 127.037 659.463 129.803 652.672C132.571 645.883 142.564 641.354 157.171 640.547C171.777 639.737 211.751 662.211 232.2 666.576C252.648 670.941 254.031 658.44 254.031 658.44V694.169C254.031 694.169 252.648 706.672 232.2 702.307C211.751 697.94 169.855 676.277 157.171 676.277C142.542 676.277 132.571 681.612 129.803 688.401C127.036 695.192 127.805 696.647 127.805 696.647V660.92Z" fill="#DB0D15"/>
<path fill-rule="evenodd" clip-rule="evenodd" d="M253.978 650.957L253.157 653.827C253.143 653.918 251.219 657.688 248.83 659.348C245.678 661.541 240.351 661.958 233.423 660.549C224.709 658.781 211.884 653.603 199.481 648.595C182.513 641.744 166.485 635.27 157.621 635.741C141.826 636.572 133.262 639.25 129.972 646.928C126.959 653.96 134.456 654.411 134.456 654.411C134.722 654.889 131.331 656.008 133.242 651.552C135.506 646.27 144.971 642.563 157.945 641.881C165.447 641.487 181.579 647.999 197.179 654.299C209.841 659.411 222.932 664.696 232.2 666.577C241.087 668.382 246.804 667.152 251.621 663.77C253.981 662.111 254.024 660.769 254.08 660.286L253.978 650.957Z" fill="#008938"/>
<path fill-rule="evenodd" clip-rule="evenodd" d="M254.162 678.622L253.084 680.265C253.069 680.383 251.754 681.842 248.733 683.999C245.166 686.548 239.312 687.092 231.803 685.567C222.924 683.766 210.018 678.554 197.537 673.513C180.764 666.74 164.921 660.346 156.465 660.792C141.4 661.585 131.035 666.056 128.032 673.068C125.418 679.166 125.693 681.276 126.089 681.99L128.239 680.794C128.298 680.9 128.316 680.967 128.316 680.972C128.301 680.909 127.987 679.416 130.294 674.036C132.876 668.009 142.708 663.979 156.595 663.248C164.506 662.83 180.83 669.423 196.618 675.796C209.201 680.878 222.212 686.132 231.315 687.979C239.673 689.675 246.038 688.995 250.232 685.952C254.111 683.139 254.142 681.243 254.162 681.083V678.622H254.162Z" fill="#FFE900"/>
<path fill-rule="evenodd" clip-rule="evenodd" d="M254.009 673.549L252.932 675.192C252.916 675.31 251.602 676.771 248.579 678.928C245.012 681.476 239.158 682.017 231.651 680.492C222.772 678.692 209.866 673.479 197.386 668.439C180.613 661.669 164.769 655.275 156.313 655.717C141.247 656.51 130.883 660.983 127.88 667.995C125.266 674.092 125.54 676.201 125.937 676.915L128.087 675.723C128.146 675.827 128.163 675.896 128.163 675.898C128.149 675.834 127.835 674.343 130.141 668.963C132.723 662.938 142.556 658.905 156.442 658.175C164.354 657.759 180.677 664.349 196.465 670.724C209.048 675.805 222.06 681.058 231.162 682.904C239.521 684.601 245.885 683.923 250.078 680.881C253.958 678.068 253.989 676.17 254.009 676.011V673.549Z" fill="#FFE900"/>
<path fill-rule="evenodd" clip-rule="evenodd" d="M80.4146 362.953C80.4146 362.953 100.915 356.804 102.964 310.474C105.015 264.146 74.264 247.335 71.3948 232.985C68.5256 218.636 76.3148 210.435 76.3148 210.435L30.6013 205.515C30.6013 205.515 10.7166 211.256 17.2768 237.137C22.5061 257.772 44.592 272.139 50.3321 290.18C56.0722 308.219 54.0215 328.206 42.9526 342.147C31.8829 356.085 31.6262 361.724 31.6262 361.724L80.4146 362.953Z" fill="#F4F3F3"/>
<path fill-rule="evenodd" clip-rule="evenodd" d="M80.5918 363.543C80.8091 363.477 85.9766 361.86 91.4174 354.453C96.3783 347.696 102.514 334.588 103.58 310.502C104.988 278.681 91.1958 260.9 81.126 247.916C76.5221 241.977 72.8828 237.287 71.9992 232.865C69.2303 219.023 76.6867 210.938 76.762 210.858L77.6139 209.957L76.3816 209.824L30.6681 204.904L30.5478 204.891L30.4315 204.925C30.2267 204.984 10.0519 211.134 16.6799 237.289C19.4964 248.397 27.1008 257.667 34.457 266.63C40.9553 274.552 47.0951 282.034 49.7461 290.366C55.6642 308.966 52.8761 328.661 42.4702 341.764C31.4047 355.698 31.0226 361.458 31.0109 361.696L30.9825 362.323L31.6095 362.339L80.3987 363.569L80.4973 363.572L80.5918 363.543ZM32.2399 361.752V361.757C32.2432 361.702 32.7013 356.043 43.4341 342.531C54.0909 329.11 56.9584 308.98 50.9182 289.996C48.1961 281.436 41.9828 273.866 35.4067 265.851C28.1375 256.991 20.62 247.829 17.8729 236.987C11.5426 212.011 29.9851 206.336 30.7726 206.108L30.5352 206.128L76.2487 211.048L75.8691 210.014C75.5414 210.357 67.8927 218.612 70.792 233.108C71.7325 237.813 75.4486 242.605 80.1545 248.671C90.1073 261.504 103.739 279.081 102.35 310.45C100.347 355.705 80.4371 362.306 80.2356 362.368L80.4296 362.34L31.6413 361.111L32.2399 361.752Z" fill="#241E1E"/>
<path fill-rule="evenodd" clip-rule="evenodd" d="M34.3771 203.814C33.7735 204.235 19.5863 214.257 19.1232 226.308C18.7871 235.036 20.2827 246.48 42.4272 271.903C63.234 295.794 53.8664 325.107 50.5006 333.523C47.409 341.252 33.8187 359.278 33.6824 359.459L38.5898 363.166C39.1692 362.399 56.1069 343.087 58.6342 334.306C63.9789 315.738 70.1612 294.384 47.0646 267.865C24.6685 242.151 26.7385 232.212 26.9625 226.375C27.2493 218.918 38.0514 207.498 41.4666 205.109L37.1611 204.901L34.3771 203.814Z" fill="#1C9AD7"/>
<path fill-rule="evenodd" clip-rule="evenodd" d="M63.9276 209.535C63.4594 210.227 52.6723 226.777 70.5547 251.201C87.5593 274.429 94.8929 286.808 93.745 307.848C92.5629 329.506 82.3284 350.525 78.16 355.828C75.3284 359.432 75.0642 360.398 75.0467 360.398C75.0467 360.398 75.0709 360.4 75.1194 360.413L73.0344 362.442L75.5968 362.648L79.5946 362.34C79.5946 362.34 96.4044 356.19 99.8839 308.182C101.641 283.96 93.2259 269.906 76.7755 247.439C61.5809 226.685 72.5687 211.556 72.9307 211.002L63.9276 209.535Z" fill="#008938"/>
<path fill-rule="evenodd" clip-rule="evenodd" d="M49.9558 207.942L39.2615 206.849C39.2615 206.849 26.6543 216.073 26.3467 225.913C26.039 235.753 27.8841 247.438 49.7167 271.423C71.5485 295.407 59.2482 329.539 58.0192 332.614C56.7894 335.69 39.8768 362.748 39.8768 362.748L73.4972 363.362C73.4972 363.362 93.0743 349.011 93.9973 312.422C94.9194 275.83 83.5153 271.192 65.5024 242.108C55.6633 226.22 66.3225 209.615 66.3225 209.615L49.9558 207.942Z" fill="#DB0D15"/>
<path fill-rule="evenodd" clip-rule="evenodd" d="M47.8073 207.685C47.3751 208.084 37.2484 217.57 40.8968 230.452C44.0318 241.519 54.2939 258.035 60.4245 267.904L62.5571 271.349C69.007 281.859 71.9247 289.306 72.6295 297.057C73.4187 305.735 73.6544 317.167 68.431 328.62C61.2764 344.302 56.5746 355.394 56.527 355.504L58.7917 356.462C58.8386 356.352 63.5295 345.291 70.6682 329.641C76.1333 317.66 75.8967 305.815 75.079 296.832C74.1611 286.74 69.5254 278.004 64.6531 270.062L62.5129 266.607C56.4517 256.848 46.305 240.516 43.2627 229.781C40.0332 218.38 49.3773 209.583 49.4726 209.495L47.8073 207.685Z" fill="#FFE900"/>
<path fill-rule="evenodd" clip-rule="evenodd" d="M51.9078 207.07C51.4739 207.469 41.348 216.956 44.9964 229.838C48.1307 240.904 58.3928 257.42 64.5233 267.289L66.6551 270.735C73.1059 281.244 76.0236 288.692 76.7275 296.442C77.5175 305.122 77.7541 316.552 72.5298 328.006C65.376 343.688 60.6726 354.78 60.6266 354.89L62.8914 355.849C62.9374 355.738 67.6291 344.675 74.7679 329.027C80.2329 317.047 79.9955 305.201 79.1787 296.218C78.2599 286.126 73.625 277.389 68.7519 269.447L66.6125 265.993C60.5505 256.235 50.403 239.902 47.3615 229.169C44.132 217.766 53.477 208.97 53.5715 208.883L51.9078 207.07Z" fill="#FFE900"/>
<path fill-rule="evenodd" clip-rule="evenodd" d="M23.8145 209.044C23.8145 209.044 34.0649 202.894 48.8239 209.453C63.5847 216.013 73.0141 222.573 77.5253 221.752C82.0347 220.933 96.3841 207.814 96.3841 207.814L59.0752 189.364L23.8145 209.044Z" fill="#F4F3F3"/>
<path fill-rule="evenodd" clip-rule="evenodd" d="M24.132 209.572C24.2323 209.512 34.308 203.676 48.5755 210.015C53.8525 212.36 58.3845 214.674 62.3832 216.717C69.7025 220.454 74.538 222.922 77.6363 222.358C82.267 221.517 96.2085 208.809 96.8004 208.269L97.4633 207.662L96.6574 207.262L59.3484 188.814L59.0583 188.669L58.7766 188.827L23.5167 208.508L24.132 209.572ZM58.8034 189.916L96.1123 208.366L95.9702 207.36C92.0158 210.976 80.9721 220.501 77.4156 221.147C74.7278 221.636 69.7845 219.113 62.9425 215.62C58.9296 213.571 54.3825 211.249 49.0755 208.891C34.1943 202.278 23.9297 208.259 23.5 208.517L24.1161 209.582L59.376 189.901L58.8034 189.916Z" fill="#241E1E"/>
<path fill-rule="evenodd" clip-rule="evenodd" d="M85.314 216.013C85.314 216.013 81.2134 220.933 76.7039 219.704C72.1944 218.473 57.845 210.275 50.4638 206.992C45.3682 204.729 34.0645 204.328 34.0645 204.328L43.4939 198.997C43.4939 198.997 56.6144 202.073 61.944 205.354C67.2744 208.633 73.0137 211.912 77.9328 213.142C82.8536 214.373 85.314 216.013 85.314 216.013Z" fill="#1C9AD7"/>
<path fill-rule="evenodd" clip-rule="evenodd" d="M58.8693 189.979L43.4941 198.998C43.4941 198.998 54.8431 202.499 58.254 203.918C63.1757 205.969 69.3246 210.068 75.6792 213.143C78.7223 214.615 85.3134 216.013 85.3134 216.013L94.3341 209.044L58.8693 189.979Z" fill="#DB0D15"/>
<path fill-rule="evenodd" clip-rule="evenodd" d="M80.6212 219.661L119.059 192.6L78.4685 152.934C78.4685 152.934 60.9414 157.239 54.7916 158.776C48.6419 160.312 44.9509 172.306 47.4113 178.763C49.8717 185.221 65.8613 193.215 71.3958 197.52C76.931 201.825 80.3136 206.746 80.6204 210.743C80.9289 214.74 80.6212 219.661 80.6212 219.661Z" fill="#F4F3F3"/>
<path fill-rule="evenodd" clip-rule="evenodd" d="M80.9731 220.163L119.41 193.104L120.015 192.678L119.487 192.161L78.8973 152.494L78.6523 152.255L78.3213 152.338L54.6411 158.181C52.3002 158.765 50.1191 160.799 48.4988 163.905C45.9774 168.735 45.2936 174.936 46.836 178.983C48.6502 183.748 57.2419 189.132 64.1432 193.459C66.979 195.235 69.4252 196.769 71.0178 198.006C76.35 202.153 79.7107 206.933 80.0075 210.79C80.3077 214.697 80.01 219.573 80.0067 219.621L79.9264 220.9L80.9731 220.163ZM81.2331 210.696C80.9096 206.498 77.3732 201.392 71.7728 197.036C70.1325 195.759 67.6604 194.21 64.797 192.416C58.0504 188.187 49.6534 182.924 47.9855 178.544C46.5819 174.861 47.2565 168.943 49.5882 164.472C51.0445 161.683 52.944 159.872 54.9387 159.373L78.6139 153.531L78.037 153.373L118.627 193.041L118.703 192.098L80.2659 219.157L81.234 219.698C81.2373 219.649 81.54 214.69 81.2331 210.696Z" fill="#241E1E"/>
<path fill-rule="evenodd" clip-rule="evenodd" d="M58.7868 158.775C58.7868 158.775 52.6371 160.928 50.792 166.155C48.9469 171.383 48.3324 179.684 58.7868 185.528C69.2412 191.369 80.9263 197.827 83.3867 202.747C85.8471 207.667 86.4615 215.047 86.4615 215.047L91.0747 211.664C91.0747 211.664 93.5342 203.977 83.6943 196.29C73.8544 188.602 61.2472 183.682 57.557 178.148C53.8669 172.612 54.7898 168.923 56.0204 165.54C57.2502 162.159 58.7868 158.775 58.7868 158.775Z" fill="#1C9AD7"/>
<path fill-rule="evenodd" clip-rule="evenodd" d="M77.5464 154.164L115.985 193.831L91.0773 211.665C91.0773 211.665 92.9224 200.903 74.4723 190.141C56.0222 179.378 52.2669 176.502 56.9452 162.466C58.7886 156.931 77.5464 154.164 77.5464 154.164Z" fill="#DB0D15"/>
<path fill-rule="evenodd" clip-rule="evenodd" d="M68.0436 159.118C67.9349 159.599 65.457 170.935 72.1886 176.053C75.4758 178.551 78.9453 180.319 82.3011 182.029C86.8758 184.359 91.1954 186.562 94.4492 190.329C98.7238 195.278 100.39 204.51 100.403 204.593L102.439 203.18C102.386 202.817 101.047 194.205 96.3119 188.723C92.7429 184.591 88.2134 182.283 83.4196 179.839C80.1608 178.177 76.79 176.46 73.6784 174.095C68.21 169.939 70.4212 159.764 70.4438 159.662L68.0436 159.118Z" fill="#FFE900"/>
<path fill-rule="evenodd" clip-rule="evenodd" d="M71.6295 157.07C71.5209 157.55 69.0429 168.887 75.7745 174.004C79.0626 176.502 82.532 178.271 85.8878 179.981C90.4617 182.311 94.7814 184.513 98.0352 188.28C102.311 193.229 103.977 202.462 103.989 202.544L106.026 201.131C105.971 200.768 104.632 192.156 99.897 186.671C96.328 182.54 91.8001 180.234 87.0047 177.788C83.7451 176.127 80.3743 174.409 77.2626 172.043C71.7942 167.888 74.0063 157.714 74.0289 157.613L71.6295 157.07Z" fill="#FFE900"/>
<path fill-rule="evenodd" clip-rule="evenodd" d="M171.025 233.19C171.025 233.19 133.51 210.436 125.515 204.286C117.52 198.137 100.538 182.644 90.3066 174.304C77.8533 164.158 72.0104 161.852 65.8606 160.621C59.7109 159.391 51.1016 160.621 51.1016 160.621C51.1016 160.621 59.7109 157.546 73.8554 153.242C88 148.936 97.2255 146.477 105.221 143.402C113.216 140.326 120.596 145.246 126.131 150.166C131.666 155.086 144.58 168.002 149.501 172.922C154.421 177.842 166.72 187.066 173.485 189.527C180.25 191.986 193.165 196.907 193.165 196.907L171.025 233.19Z" fill="#F4F3F3"/>
<path fill-rule="evenodd" clip-rule="evenodd" d="M171.341 232.665C170.966 232.438 133.764 209.858 125.888 203.799C121.561 200.471 114.713 194.502 107.463 188.182C101.52 183.001 95.3771 177.646 90.6929 173.829C78.5689 163.949 72.6533 161.354 65.9785 160.018C59.797 158.782 51.3674 159.962 51.0113 160.012L51.3056 161.2C51.3925 161.17 60.067 158.08 74.0335 153.83L84.916 150.57C93.1641 148.123 99.6801 146.191 105.44 143.976C113.448 140.896 120.85 146.296 125.72 150.627C131.241 155.533 144.19 168.481 149.064 173.355C154.09 178.383 166.471 187.63 173.273 190.103C179.955 192.534 192.815 197.432 192.943 197.481L192.637 196.586L170.497 232.87L171.341 232.665ZM193.381 196.331C193.251 196.281 180.383 191.381 173.692 188.947C167.039 186.528 154.881 177.435 149.932 172.486C145.052 167.605 132.084 154.639 126.536 149.707C121.424 145.162 113.63 139.506 104.997 142.827C99.2821 145.025 92.7879 146.952 84.5649 149.392L73.6749 152.652C59.6775 156.913 50.9787 160.011 50.8926 160.042L51.186 161.23C51.2713 161.217 59.7652 160.028 65.7386 161.224C72.2186 162.52 77.9913 165.065 89.9162 174.78C94.5837 178.585 100.72 183.934 106.655 189.108C113.919 195.44 120.78 201.421 125.138 204.772C133.068 210.872 170.328 233.488 170.703 233.716L171.227 234.033L171.547 233.509L193.687 197.225L194.072 196.593L193.381 196.331Z" fill="#241E1E"/>
<path fill-rule="evenodd" clip-rule="evenodd" d="M172.05 230.322C172.05 230.322 136.995 209.002 125.31 199.776C113.625 190.552 98.8658 175.792 92.5104 171.076C86.1559 166.362 74.0604 159.598 70.5758 158.572C67.0913 157.545 59.7109 158.162 59.7109 158.162L72.0104 154.267C72.0104 154.267 87.3848 156.934 100.095 168.412C112.806 179.892 124.08 191.782 133.715 197.932C143.35 204.081 156.264 212.692 163.645 215.767C171.025 218.841 176.969 222.736 176.969 222.736L172.05 230.322Z" fill="#1C9AD7"/>
<path fill-rule="evenodd" clip-rule="evenodd" d="M98.4551 146.068C98.4551 146.068 104.81 142.992 107.269 143.196C109.73 143.4 122.439 149.346 136.584 163.695C150.729 178.046 160.568 185.016 166.513 188.09C172.459 191.165 191.318 198.75 191.318 198.75L187.834 204.491C187.834 204.491 162.003 194.445 144.579 178.662C127.155 162.876 121.415 155.293 114.445 150.781C107.475 146.272 98.4551 146.068 98.4551 146.068Z" fill="#008938"/>
<path fill-rule="evenodd" clip-rule="evenodd" d="M70.8828 154.574C70.8828 154.574 79.3258 152.306 86.6526 149.828C92.0658 147.997 97.1472 146.327 98.4547 146.068C101.53 145.453 103.58 145.249 107.474 146.887C111.37 148.527 117.724 149.551 134.124 168.207C150.524 186.861 187.629 203.67 187.629 203.67L176.353 223.557C176.353 223.557 147.039 209.205 124.489 191.578C101.938 173.947 99.4788 165.541 86.9745 160.214C74.4693 154.882 70.8828 154.574 70.8828 154.574Z" fill="#DB0D15"/>
<path fill-rule="evenodd" clip-rule="evenodd" d="M180.927 211.315C180.702 211.243 158.123 203.998 136.837 187.128C123.339 176.431 118.155 171.591 113.581 167.32C110.806 164.729 108.183 162.279 104.06 158.856C93.933 150.447 87.4982 149.782 87.1554 149.732L84.695 150.655L83.543 151.039C83.6199 151.051 92.9432 152.824 102.489 160.749C106.557 164.128 109.154 166.551 111.902 169.119C116.51 173.421 121.733 178.298 135.309 189.055C156.966 206.217 179.958 213.588 180.187 213.659L180.927 211.315Z" fill="#FFE900"/>
<path fill-rule="evenodd" clip-rule="evenodd" d="M185.743 209.47C185.518 209.398 162.939 202.153 141.653 185.283C128.154 174.586 122.97 169.745 118.397 165.474C115.621 162.884 112.999 160.434 108.874 157.01C98.7491 148.602 92.3143 147.937 91.9698 147.887L89.5103 148.81L88.3574 149.193C88.4352 149.205 97.7576 150.978 107.303 158.904C111.371 162.281 113.968 164.705 116.717 167.273C121.326 171.575 126.548 176.453 140.124 187.21C161.78 204.372 184.772 211.743 185.003 211.815L185.743 209.47Z" fill="#FFE900"/>
<path fill-rule="evenodd" clip-rule="evenodd" d="M79.1865 362.953L49.6667 363.979L46.5918 325.235C46.5918 325.235 70.3715 325.031 73.2415 325.031C76.1116 325.031 79.3913 328.515 79.1865 334.049C78.9816 339.585 71.3965 344.711 70.7811 351.679C70.2595 357.601 72.0118 360.083 73.0367 361.52C74.0617 362.953 79.1865 362.953 79.1865 362.953Z" fill="#F4F3F3"/>
<path fill-rule="evenodd" clip-rule="evenodd" d="M79.1614 362.339L49.6424 363.365L50.277 363.932L47.2021 325.187L46.5943 325.851L73.2382 325.646C74.2615 325.646 75.3751 326.193 76.293 327.146C77.8413 328.752 78.6715 331.261 78.5687 334.026C78.4759 336.507 76.7185 339.006 74.8567 341.651C72.7149 344.697 70.4986 347.845 70.165 351.625C69.6216 357.797 71.5152 360.45 72.5326 361.877C73.6838 363.487 78.2752 363.568 79.184 363.568L79.1614 362.339ZM73.535 361.164C72.5443 359.775 70.8865 357.451 71.3915 351.734C71.6958 348.284 73.8151 345.272 75.8625 342.359C77.8321 339.561 79.6931 336.918 79.7984 334.072C79.9121 330.975 78.9582 328.139 77.18 326.293C76.0129 325.083 74.6143 324.416 73.239 324.416L46.5843 324.62L45.9238 324.625L45.9765 325.285L49.0514 364.03L49.0982 364.617L49.6868 364.595L79.2065 363.568L79.1848 362.339C77.1867 362.339 74.1135 361.973 73.535 361.164Z" fill="#241E1E"/>
<path fill-rule="evenodd" clip-rule="evenodd" d="M76.3143 363.158L46.7936 364.185L43.7188 325.439C43.7188 325.439 67.4976 325.236 70.3685 325.236C73.2386 325.235 76.5191 328.719 76.3143 334.254C76.1086 339.788 68.5234 344.915 67.9081 351.884C67.3864 357.806 69.1387 360.287 70.1637 361.724C71.1886 363.158 76.3143 363.158 76.3143 363.158Z" fill="#008938"/>
<path fill-rule="evenodd" clip-rule="evenodd" d="M68.3212 363.365L38.8014 364.39L35.7266 325.644C35.7266 325.644 59.5054 325.439 62.3755 325.439C65.2455 325.439 68.5244 328.925 68.3204 334.461C68.1156 339.995 60.5304 345.12 59.9159 352.09C59.3934 358.011 61.1448 360.495 62.1706 361.928C63.1956 363.365 68.3212 363.365 68.3212 363.365Z" fill="#DB0D15"/>
<path fill-rule="evenodd" clip-rule="evenodd" d="M129.306 651.492C129.306 651.492 131.952 655.72 139.146 652.311C146.064 649.03 154.674 649.798 154.316 652.722C153.666 658.026 150.626 665.842 150.626 665.842L125.207 662.971L129.306 651.492Z" fill="#F4F3F3"/>
<path fill-rule="evenodd" clip-rule="evenodd" d="M128.787 651.818C128.817 651.867 131.813 656.469 139.412 652.868C145.06 650.188 151.352 650.418 153.203 651.754C153.769 652.162 153.723 652.528 153.708 652.647C153.074 657.815 150.086 665.542 150.055 665.617L150.697 665.23L125.278 662.357L125.788 663.176L129.887 651.698L128.787 651.818ZM125.14 663.58L150.56 666.453L151.031 666.504L151.202 666.065C151.327 665.741 154.277 658.116 154.93 652.797C154.997 652.246 154.877 651.445 153.923 650.757C151.501 649.012 144.555 649.068 138.885 651.755C132.318 654.869 129.927 651.316 129.828 651.162L129.151 650.115C129.149 650.11 128.73 651.286 128.73 651.286L124.631 662.764L124.369 663.494L125.14 663.58Z" fill="#241E1E"/>
<path fill-rule="evenodd" clip-rule="evenodd" d="M127.772 655.643C127.772 655.643 130.418 659.87 137.611 656.462C144.531 653.178 153.141 653.949 152.781 656.872C152.13 662.177 149.091 669.989 149.091 669.989L123.672 667.119L127.772 655.643Z" fill="#008938"/>
<path fill-rule="evenodd" clip-rule="evenodd" d="M72.0084 325.646L14.6083 325.449L12.3544 325.442C12.3544 325.442 0.874186 337.332 1.48866 359.676C2.10313 382.022 4.15388 391.04 10.9189 410.72C17.6832 430.399 20.3492 442.497 20.5541 455.206C20.7589 467.916 17.888 496.411 16.0429 513.425C14.1978 530.44 10.9189 563.442 11.5326 575.95C12.1479 588.454 13.1729 611.207 25.2675 629.042C37.363 646.878 48.0222 651.185 54.172 655.695C60.3226 660.204 69.9569 669.837 76.9267 676.81C83.8975 683.779 95.1711 696.079 105.627 699.152C116.082 702.229 126.742 702.639 131.251 701.407C135.762 700.179 141.295 695.467 143.347 689.518C145.397 683.573 150.316 668.813 151.956 663.076C153.595 657.333 154.211 653.235 154.211 653.235C154.211 653.235 152.982 656.102 144.371 657.948C135.762 659.793 124.896 651.39 118.747 644.419C112.597 637.45 86.9715 619.818 78.7726 612.645C70.573 605.469 63.1926 597.679 63.1926 579.435C63.1926 561.189 64.6281 525.931 66.8828 511.99C69.1384 498.05 72.0084 475.09 72.2124 460.535C72.4181 445.982 70.9826 420.151 64.2176 401.702C57.4534 383.255 53.9688 366.237 53.9688 356.807C53.9688 347.375 55.6818 337.216 58.8888 333.642C64.2184 327.695 72.0084 325.646 72.0084 325.646Z" fill="#F4F3F3"/>
<path fill-rule="evenodd" clip-rule="evenodd" d="M72.012 325.031L14.6127 324.835L12.358 324.827H12.0955L11.9132 325.015C11.7962 325.136 0.260793 337.349 0.875266 359.692C1.49141 382.073 3.55638 391.189 10.339 410.919C17.1367 430.695 19.74 442.701 19.9407 455.215C20.1329 467.147 17.5965 493.42 15.4345 513.358C13.8645 527.841 10.2805 562.938 10.9217 575.979L10.9376 576.29C11.5437 588.615 12.6698 611.559 24.762 629.388C34.5626 643.84 43.3358 649.414 49.7422 653.487C51.2888 654.47 52.6256 655.32 53.8119 656.189C59.9349 660.679 69.5056 670.25 76.4948 677.241L78.7813 679.55C86.0178 686.89 95.9272 696.939 105.456 699.742C116.158 702.89 126.818 703.256 131.416 702C135.846 700.792 141.738 696.078 143.93 689.718C146.077 683.497 150.929 668.917 152.551 663.243C154.183 657.53 154.815 653.366 154.823 653.324L153.65 652.993C153.642 653.006 152.296 655.622 144.246 657.344C136.536 658.999 126.116 651.84 119.211 644.01C115.467 639.768 104.531 631.578 94.8838 624.352C88.4766 619.554 82.4246 615.021 79.1792 612.182C70.7705 604.821 63.8107 597.278 63.8107 579.434C63.8107 561.255 65.2453 525.981 67.4925 512.087C69.9262 497.047 72.634 474.5 72.8305 460.543C73.0738 443.249 71.0916 418.654 64.7972 401.491C58.5948 384.571 54.5852 367.031 54.5852 356.807C54.5852 346.534 56.544 337.178 59.3472 334.052C64.4862 328.321 72.0906 326.262 72.1667 326.242L72.012 325.031ZM58.4326 333.23C54.9255 337.14 53.3554 347.889 53.3554 356.806C53.3554 367.164 57.3934 384.869 63.6426 401.913C69.8793 418.921 71.8431 443.342 71.6007 460.525C71.4051 474.419 68.7047 496.892 66.2778 511.889C64.0214 525.842 62.5809 561.213 62.5809 579.432C62.5809 597.769 70.0499 605.824 78.3708 613.104C81.6513 615.975 87.72 620.522 94.1456 625.333C103.747 632.524 114.627 640.674 118.288 644.824C124.908 652.325 135.745 660.422 144.503 658.546C153.174 656.689 154.64 653.796 154.779 653.475L153.606 653.141C153.601 653.183 152.976 657.271 151.368 662.904C149.752 668.557 144.909 683.103 142.768 689.315C140.713 695.275 135.218 699.687 131.093 700.812C126.596 702.04 115.906 701.532 105.804 698.562C96.5801 695.848 86.3957 685.52 79.6566 678.686L77.3642 676.372C70.3475 669.353 60.7375 659.743 54.5384 655.195C53.3195 654.303 51.9008 653.402 50.401 652.447C44.084 648.435 35.4354 642.936 25.7786 628.698C13.8812 611.152 12.7643 588.435 12.164 576.231L12.1498 575.918C11.5128 562.964 15.0884 527.943 16.6559 513.489C18.8212 493.515 21.3636 467.191 21.1696 455.194C20.9656 442.536 18.3455 430.429 11.5011 410.519C4.7661 390.924 2.71534 381.874 2.10421 359.656C1.50228 337.786 12.6832 325.986 12.796 325.869L12.353 326.055L14.6069 326.062L72.0053 326.26L71.8507 325.05C71.528 325.136 63.8224 327.217 58.4326 333.23Z" fill="#241E1E"/>
<path fill-rule="evenodd" clip-rule="evenodd" d="M14.6107 325.448C14.6107 325.448 4.36201 336.51 4.15718 359.059C3.95152 381.61 8.461 396.371 11.5367 405.391C14.6116 414.409 21.5815 431.835 22.8121 440.445C24.0419 449.055 24.2467 475.294 21.5815 493.129C18.9171 510.963 15.6365 537.817 15.2269 551.145C14.8164 564.467 11.9472 591.733 18.3018 605.879C24.6563 620.024 27.3207 628.427 34.2914 635.807C41.2613 643.186 43.1064 644.625 52.3302 650.774C61.5557 656.923 69.14 665.121 77.3413 673.936C85.541 682.753 95.1761 691.567 106.041 695.871C116.906 700.177 125.106 699.561 130.435 698.744C135.766 697.923 138.43 696.282 140.276 694.026C142.122 691.77 143.556 687.467 143.556 687.467C143.556 687.467 128.386 694.64 120.186 690.953C111.986 687.261 106.042 691.155 82.6718 668.399C59.3018 645.647 34.2923 620.843 34.2923 620.843L24.0419 571.641L27.3216 525.107L33.0617 490.463L29.9876 427.733L19.942 400.471L14.6116 362.135L23.6322 325.85L18.7123 325.646L14.6107 325.448Z" fill="#1C9AD7"/>
<path fill-rule="evenodd" clip-rule="evenodd" d="M63.8117 326.261C63.8117 326.261 52.7403 332.823 52.3307 349.835C51.9219 366.851 54.9967 384.688 60.7368 399.035C66.4761 413.387 68.3212 423.02 68.9365 433.681C69.5518 444.342 68.5268 477.961 66.2713 492.721C64.0157 507.479 61.3513 532.283 60.7368 544.38C60.1224 556.473 59.0974 580.664 61.7618 591.527C64.427 602.393 67.0914 608.337 81.0312 618.999C94.9718 629.658 105.63 635.603 113.216 643.804C120.801 652.004 128.796 657.946 133.101 660.406C137.406 662.865 144.99 662.868 148.271 661.229C151.552 659.586 152.782 657.741 152.782 657.741L149.297 669.223L128.798 669.838L69.3478 624.943L55.2032 604.033L48.4382 564.879L55.6129 495.997L56.8427 450.692L47.0019 387.556L40.6465 355.369L49.0527 329.335L52.3315 325.85L63.8117 326.261Z" fill="#008938"/>
<path fill-rule="evenodd" clip-rule="evenodd" d="M143.195 688.593C143.195 688.593 124.284 699.151 106.86 688.493C89.4359 677.834 71.3963 658.972 60.5306 649.953C49.6657 640.933 42.0814 637.243 33.6752 624.123C25.2707 611.003 18.7105 587.428 20.3508 570.004C21.991 552.58 24.0418 536.793 25.6804 518.958C27.3198 501.122 30.1907 477.96 30.1907 465.866C30.1907 453.769 29.1649 434.703 23.8353 419.33C18.5048 403.954 12.9704 394.115 11.7398 374.232C10.5108 354.348 12.1503 346.349 13.3809 340.406C14.6107 334.461 22.1958 326.058 22.1958 326.058L55.8155 326.058C55.8155 326.058 44.9489 335.692 44.9489 349.018C44.9489 362.342 44.9489 369.721 53.1494 396.373C61.3499 423.021 63.6046 441.88 62.5797 458.077C61.5547 474.271 57.6589 500.307 55.4041 520.6C53.1494 540.894 52.3284 551.147 52.3284 563.238C52.3284 575.335 53.7647 587.49 58.0694 599.451C62.374 611.416 73.8534 623.304 85.1288 630.069C96.4033 636.832 103.784 643.599 108.499 648.723C113.214 653.85 126.303 664.876 132.688 667.788C140.888 671.528 150.626 665.844 150.626 665.844L143.195 688.593Z" fill="#DB0D15"/>
<path fill-rule="evenodd" clip-rule="evenodd" d="M144.447 683.304L144.858 682.481L145.654 679.983L143.126 680.878C143.068 680.914 137.11 683.189 132.792 683.677C124.591 684.6 111.874 681.079 99.151 667.361C85.8633 653.038 74.7501 642.991 70.0467 639.719C63.1445 634.919 48.6873 623.17 43.3727 613.094C37.4562 601.873 35.3352 579.816 36.1328 568.863C36.8175 559.443 39.0714 536.056 40.282 523.494L40.8446 517.64L42.0669 506.137C43.5633 492.408 45.8239 471.663 45.9752 464.251C46.1525 455.534 44.7848 428.838 36.4379 410.218C28.5108 392.533 27.1598 362.51 28.1296 355.331C29.1721 347.613 32.3766 335.569 33.3163 333.129C34.2267 330.76 37.906 326.641 37.9277 326.619L34.7517 326.518C34.6439 326.616 32.2804 329.355 31.1643 332.257C30.0399 335.18 26.7059 347.5 25.6918 355.002C24.5698 363.31 26.1591 393.3 34.1932 411.225C42.357 429.431 43.6904 455.64 43.5148 464.199C43.366 471.506 41.1138 492.186 39.6215 505.871L38.3959 517.407L37.8333 523.258C36.6219 535.831 34.3646 559.237 33.6782 568.685C32.8615 579.927 35.0685 602.617 41.1974 614.243C48.1138 627.359 68.4382 641.595 68.6422 641.741C73.2411 644.938 84.1846 654.846 97.3477 669.033C110.403 683.112 124.591 686.749 133.099 685.827C138.045 685.293 144.13 683.146 144.392 682.986L142.659 681.381L142.249 682.202L144.447 683.304Z" fill="#FFE900"/>
<path fill-rule="evenodd" clip-rule="evenodd" d="M146.065 678.857L146.988 676.398L142.12 678.243C142.061 678.279 138.569 679.386 134.227 679.577C129.685 679.773 117.226 680.274 104.503 666.557C91.2155 652.234 80.5061 642.669 75.8027 639.398C68.8997 634.594 53.9542 623.031 48.6405 612.952C42.7223 601.728 39.6408 580.024 40.4383 569.07C41.1222 559.651 43.3769 536.265 44.5875 523.699L45.151 517.849L46.3724 506.343C47.868 492.616 50.1286 471.869 50.2799 464.456C50.4572 455.739 49.0894 429.046 40.7426 410.423C32.8155 392.738 31.4637 362.717 32.4343 355.537C33.4768 347.819 36.6813 335.777 37.6209 333.335C38.5314 330.965 42.2098 326.845 42.2332 326.825L39.0564 326.722C38.9477 326.823 36.5843 329.562 35.4682 332.462C34.3446 335.387 31.0097 347.707 29.9965 355.206C28.8745 363.516 30.4638 393.504 38.4979 411.428C46.6608 429.639 47.9951 455.845 47.8195 464.404C47.6707 471.707 45.4168 492.391 43.9262 506.076L42.7006 517.614L42.1388 523.464C40.9266 536.035 38.6701 559.442 37.9838 568.89C37.1662 580.129 40.0512 602.557 46.1809 614.182C53.0965 627.298 74.5729 641.508 74.7769 641.65C79.375 644.848 89.597 654.108 102.759 668.301C115.815 682.374 128.745 682.282 134.432 682.035C139.401 681.819 146.065 678.857 146.065 678.857Z" fill="#FFE900"/>
<path fill-rule="evenodd" clip-rule="evenodd" d="M294.121 639.623C294.121 639.623 286.535 639.159 281.872 641.313C277.875 643.158 274.337 646.132 274.029 647.72C273.722 649.308 274.029 700.61 274.029 700.61L294.121 692.101V639.623Z" fill="#1C9AD7"/>
<path fill-rule="evenodd" clip-rule="evenodd" d="M294.157 639.01C293.84 638.991 286.364 638.561 281.614 640.754C277.46 642.671 273.786 645.744 273.425 647.602C273.116 649.204 273.382 695.354 273.415 700.61L273.422 701.533L274.271 701.174L294.36 692.667L294.735 692.509V692.101V639.623V639.045L294.157 639.01ZM293.878 691.538L273.791 700.044L274.645 700.607C274.523 680.116 274.418 649.151 274.633 647.834C274.881 646.564 278.207 643.679 282.13 641.872C286.601 639.808 294.007 640.234 294.082 640.237L293.504 639.624V692.102L293.878 691.538Z" fill="#241E1E"/>
<path fill-rule="evenodd" clip-rule="evenodd" d="M293.404 647.924C293.404 647.924 287.237 647.659 283.987 648.538C278.13 650.128 276.236 655.661 276.236 655.661L285.333 658.738L293.244 657.304L293.404 647.924Z" fill="#F4F3F3"/>
<path fill-rule="evenodd" clip-rule="evenodd" d="M400.052 657.149C400.052 657.149 400.975 651 398.207 644.543C395.441 638.085 385.448 633.78 370.841 633.01C356.236 632.243 316.261 653.614 295.812 657.766C275.363 661.915 273.981 650.026 273.981 650.026L273.93 702.762C273.93 702.762 275.314 714.653 295.761 710.5C316.21 706.348 356.185 684.977 370.79 685.745C385.398 686.516 392.275 693.437 398.156 697.278C401.652 699.562 400.424 696.899 400.424 696.899L400.052 657.149Z" fill="#1C9AD7"/>
<path fill-rule="evenodd" clip-rule="evenodd" d="M400.661 657.241C400.699 656.982 401.576 650.842 398.772 644.3C395.864 637.514 385.694 633.177 370.872 632.398C362.551 631.959 346.771 638.331 330.062 645.076C317.556 650.126 304.624 655.348 295.688 657.16C287.876 658.746 282.011 658.18 278.251 655.471C275.018 653.143 274.593 649.986 274.588 649.953L273.365 650.027L273.312 702.763V702.799L273.318 702.833C273.335 702.983 273.785 706.526 277.448 709.183C281.498 712.118 287.698 712.764 295.883 711.104C304.929 709.267 317.914 704.023 330.472 698.952C346.322 692.555 362.71 685.939 370.758 686.361C382.731 686.991 389.379 691.778 394.72 695.626C395.799 696.406 396.822 697.141 397.821 697.794C399.409 698.831 400.329 699.065 400.896 698.573C401.543 698.015 401.124 696.952 400.981 696.64L401.038 696.893L400.667 657.143L400.661 657.241ZM399.863 697.157V697.152C399.957 697.365 400.033 697.661 400.015 697.755C400.029 697.688 400.128 697.597 400.197 697.589C400.183 697.59 399.804 697.623 398.494 696.764C397.517 696.127 396.508 695.399 395.439 694.628C389.967 690.686 383.157 685.782 370.822 685.134C362.503 684.695 346.722 691.068 330.013 697.813C317.507 702.863 304.575 708.083 295.64 709.897C287.828 711.484 281.962 710.915 278.202 708.209C274.969 705.88 274.544 702.721 274.539 702.689L274.546 702.763L274.595 650.027L273.37 650.099C273.388 650.247 273.838 653.79 277.501 656.447C281.551 659.383 287.752 660.028 295.936 658.369C304.982 656.531 317.967 651.287 330.525 646.218C346.373 639.819 362.762 633.203 370.809 633.625C384.938 634.37 394.968 638.54 397.643 644.784C400.305 650.994 399.456 656.999 399.446 657.058L399.439 657.108V657.157L399.81 696.906V697.038L399.863 697.157Z" fill="#241E1E"/>
<path fill-rule="evenodd" clip-rule="evenodd" d="M400.95 660.92C400.95 660.92 401.719 659.463 398.951 652.672C396.183 645.883 386.188 641.354 371.585 640.547C356.977 639.737 317.003 662.211 296.555 666.576C276.107 670.941 274.723 658.44 274.723 658.44L274.724 694.17C274.724 694.17 276.107 706.672 296.555 702.308C317.003 697.941 358.9 676.278 371.585 676.278C386.215 676.278 396.184 681.613 398.951 688.402C401.719 695.193 400.95 696.648 400.95 696.648V660.92Z" fill="#F4F3F3"/>
<path fill-rule="evenodd" clip-rule="evenodd" d="M448.341 362.953C448.341 362.953 427.842 356.804 425.789 310.474C423.742 264.146 454.491 247.335 457.362 232.985C460.23 218.636 452.441 210.435 452.441 210.435L498.154 205.515C498.154 205.515 518.04 211.256 511.479 237.137C506.248 257.772 484.163 272.139 478.424 290.18C472.685 308.219 474.734 328.206 485.803 342.147C496.875 356.085 497.128 361.724 497.128 361.724L448.341 362.953Z" fill="#1C9AD7"/>
<path fill-rule="evenodd" clip-rule="evenodd" d="M448.516 362.364L448.518 362.366C448.317 362.305 428.408 355.703 426.405 310.448C425.017 279.077 438.648 261.502 448.602 248.67C453.308 242.603 457.022 237.812 457.964 233.107C460.863 218.611 453.212 210.356 452.886 210.013L452.508 211.047L498.223 206.127L497.986 206.107C498.773 206.335 517.215 212.012 510.886 236.987C508.136 247.83 500.619 256.992 493.349 265.851C486.773 273.866 480.56 281.436 477.836 289.996C471.798 308.978 474.664 329.109 485.323 342.531C496.054 356.043 496.511 361.702 496.516 361.757L497.114 361.111L448.328 362.34L448.516 362.364ZM497.742 361.696C497.734 361.458 497.352 355.698 486.284 341.764C475.88 328.66 473.091 308.966 479.01 290.367C481.66 282.034 487.8 274.552 494.3 266.63C501.656 257.667 509.261 248.397 512.076 237.289C518.707 211.134 498.53 204.983 498.327 204.925L498.209 204.891L498.088 204.904L452.375 209.824L451.138 209.957L451.995 210.86C452.07 210.938 459.524 219.023 456.756 232.865C455.873 237.287 452.235 241.977 447.627 247.916C437.559 260.9 423.766 278.681 425.174 310.502C426.242 334.588 432.378 347.697 437.337 354.453C442.778 361.86 447.945 363.477 448.163 363.543L448.256 363.571L448.353 363.568L497.144 362.338L497.77 362.322L497.742 361.696Z" fill="#241E1E"/>
<path fill-rule="evenodd" clip-rule="evenodd" d="M478.799 207.942L489.494 206.849C489.494 206.849 502.099 216.073 502.408 225.913C502.715 235.753 500.87 247.438 479.039 271.423C457.206 295.407 469.506 329.539 470.734 332.614C471.967 335.69 488.876 362.748 488.876 362.748L455.259 363.362C455.259 363.362 435.679 349.011 434.757 312.422C433.834 275.83 445.238 271.192 463.254 242.108C473.094 226.22 462.433 209.615 462.433 209.615L478.799 207.942Z" fill="#F4F3F3"/>
<path fill-rule="evenodd" clip-rule="evenodd" d="M504.944 209.044C504.944 209.044 494.692 202.894 479.933 209.453C465.176 216.013 455.741 222.573 451.233 221.752C446.724 220.933 432.373 207.814 432.373 207.814L469.684 189.364L504.944 209.044Z" fill="#1C9AD7"/>
<path fill-rule="evenodd" clip-rule="evenodd" d="M505.258 208.518C504.829 208.26 494.565 202.279 479.683 208.892C474.377 211.25 469.829 213.573 465.817 215.621C458.973 219.114 454.03 221.637 451.343 221.149C447.786 220.502 436.743 210.977 432.787 207.361L432.645 208.367L469.954 189.917L469.381 189.903L504.64 209.584L505.258 208.518ZM469.411 188.815L432.1 207.263L431.295 207.663L431.96 208.27C432.549 208.81 446.492 221.519 451.121 222.36C454.219 222.923 459.055 220.454 466.375 216.717C470.375 214.674 474.907 212.361 480.183 210.015C494.452 203.676 504.527 209.513 504.626 209.573L504.573 209.537L505.244 208.509L469.982 188.828L469.698 188.67L469.411 188.815Z" fill="#241E1E"/>
<path fill-rule="evenodd" clip-rule="evenodd" d="M469.889 189.979L485.262 198.998C485.262 198.998 473.912 202.499 470.501 203.918C465.581 205.969 459.431 210.068 453.077 213.143C450.033 214.615 443.442 216.013 443.442 216.013L434.424 209.044L469.889 189.979Z" fill="#F4F3F3"/>
<path fill-rule="evenodd" clip-rule="evenodd" d="M448.138 219.661L409.699 192.6L450.29 152.934C450.29 152.934 467.818 157.239 473.966 158.776C480.117 160.312 483.806 172.306 481.347 178.763C478.886 185.221 462.896 193.215 457.362 197.52C451.827 201.825 448.445 206.746 448.137 210.743C447.83 214.74 448.137 219.661 448.138 219.661Z" fill="#1C9AD7"/>
<path fill-rule="evenodd" clip-rule="evenodd" d="M448.49 219.157L410.054 192.098L410.128 193.041L450.721 153.373L450.143 153.531L473.818 159.373C475.813 159.872 477.712 161.683 479.166 164.472C481.5 168.943 482.174 174.861 480.772 178.544C479.105 182.924 470.705 188.187 463.96 192.416C461.098 194.21 458.624 195.76 456.984 197.036C451.384 201.391 447.845 206.498 447.522 210.697C447.217 214.69 447.521 219.649 447.522 219.699L448.49 219.157ZM448.748 210.79C449.046 206.933 452.405 202.153 457.738 198.006C459.33 196.769 461.778 195.235 464.613 193.459C471.513 189.132 480.105 183.747 481.919 178.983C483.463 174.936 482.778 168.735 480.257 163.905C478.637 160.799 476.456 158.766 474.114 158.181L450.435 152.338L450.102 152.255C450.104 152.255 449.859 152.494 449.859 152.494L409.269 192.161L408.74 192.678L409.346 193.104L447.784 220.163L448.831 220.901L448.75 219.622C448.748 219.573 448.448 214.697 448.748 210.79Z" fill="#241E1E"/>
<path fill-rule="evenodd" clip-rule="evenodd" d="M451.211 154.164L412.773 193.831L437.681 211.665C437.681 211.665 435.834 200.903 454.283 190.141C472.734 179.378 476.489 176.502 471.812 162.466C469.968 156.931 451.211 154.164 451.211 154.164Z" fill="#F4F3F3"/>
<path fill-rule="evenodd" clip-rule="evenodd" d="M357.732 233.19C357.732 233.19 395.247 210.436 403.242 204.286C411.236 198.137 428.218 182.644 438.449 174.304C450.904 164.158 456.745 161.852 462.894 160.621C469.045 159.391 477.655 160.621 477.655 160.621C477.656 160.621 469.045 157.546 454.899 153.242C440.755 148.936 431.53 146.477 423.535 143.402C415.54 140.326 408.16 145.246 402.625 150.166C397.089 155.086 384.175 168.002 379.255 172.922C374.335 177.842 362.035 187.066 355.271 189.527C348.507 191.986 335.592 196.907 335.592 196.907L357.732 233.19Z" fill="#1C9AD7"/>
<path fill-rule="evenodd" clip-rule="evenodd" d="M358.051 233.716C358.426 233.488 395.685 210.874 403.616 204.773C407.972 201.422 414.833 195.44 422.097 189.108C428.033 183.935 434.169 178.586 438.837 174.78C450.762 165.063 456.535 162.52 463.016 161.224C468.99 160.029 477.484 161.219 477.568 161.23L477.861 160.041C477.774 160.011 469.076 156.912 455.077 152.653L444.19 149.392C435.967 146.953 429.473 145.027 423.757 142.828C415.122 139.507 407.329 145.164 402.218 149.707C396.669 154.639 383.703 167.605 378.821 172.486C373.872 177.436 361.715 186.529 355.061 188.948C348.37 191.381 335.502 196.282 335.372 196.331L334.682 196.595L335.067 197.227L357.206 233.511L357.527 234.034L358.051 233.716ZM335.811 197.481C335.94 197.432 348.799 192.534 355.482 190.103C362.284 187.63 374.664 178.383 379.69 173.355C384.564 168.481 397.511 155.534 403.034 150.626C407.906 146.296 415.308 140.896 423.314 143.976C429.076 146.19 435.59 148.123 443.839 150.57L454.722 153.829C468.688 158.078 477.361 161.169 477.45 161.199L477.743 160.011C477.388 159.96 468.958 158.781 462.776 160.017C456.102 161.352 450.185 163.948 438.061 173.827C433.379 177.645 427.234 183.001 421.291 188.181C414.041 194.5 407.194 200.47 402.866 203.798C394.989 209.857 357.788 232.437 357.413 232.664L358.259 232.869L336.12 196.585L335.811 197.481Z" fill="#241E1E"/>
<path fill-rule="evenodd" clip-rule="evenodd" d="M457.874 154.574C457.874 154.574 449.43 152.306 442.104 149.828C436.691 147.997 431.608 146.327 430.302 146.068C427.229 145.453 425.176 145.249 421.282 146.887C417.388 148.527 411.031 149.551 394.631 168.207C378.234 186.861 341.129 203.67 341.129 203.67L352.402 223.556C352.402 223.556 381.716 209.204 404.266 191.577C426.817 173.946 429.274 165.54 441.78 160.213C454.285 154.882 457.874 154.575 457.874 154.574Z" fill="#F4F3F3"/>
<path fill-rule="evenodd" clip-rule="evenodd" d="M449.572 362.953L479.093 363.979L482.166 325.235C482.166 325.235 458.386 325.031 455.517 325.031C452.646 325.031 449.368 328.515 449.572 334.049C449.777 339.585 457.362 344.711 457.978 351.679C458.5 357.601 456.746 360.083 455.723 361.52C454.696 362.953 449.571 362.953 449.572 362.953Z" fill="#1C9AD7"/>
<path fill-rule="evenodd" clip-rule="evenodd" d="M449.549 363.567L479.07 364.594L479.658 364.616L479.704 364.029L482.778 325.284L482.832 324.624L482.171 324.619L455.518 324.414C454.141 324.414 452.74 325.082 451.576 326.293C449.796 328.139 448.842 330.974 448.957 334.072C449.063 336.918 450.923 339.562 452.892 342.361C454.941 345.272 457.057 348.283 457.364 351.733C457.868 357.45 456.21 359.774 455.221 361.164C454.641 361.976 451.568 362.338 449.571 362.338L449.549 363.567ZM456.223 361.876C457.239 360.45 459.132 357.795 458.589 351.625C458.256 347.845 456.04 344.696 453.898 341.652C452.036 339.005 450.278 336.506 450.187 334.025C450.084 331.259 450.914 328.752 452.462 327.144C453.382 326.192 454.495 325.645 455.517 325.645L482.161 325.85L481.554 325.186L478.48 363.931L479.112 363.364L449.592 362.338L449.573 363.568C450.48 363.569 455.07 363.487 456.223 361.876Z" fill="#241E1E"/>
<path fill-rule="evenodd" clip-rule="evenodd" d="M460.438 363.365L489.957 364.39L493.032 325.644C493.032 325.644 469.253 325.439 466.382 325.439C463.513 325.439 460.231 328.925 460.437 334.461C460.643 339.995 468.227 345.12 468.841 352.09C469.367 358.011 467.61 360.495 466.587 361.928C465.562 363.365 460.436 363.365 460.438 363.365Z" fill="#F4F3F3"/>
<path fill-rule="evenodd" clip-rule="evenodd" d="M399.45 651.492C399.45 651.492 396.802 655.72 389.611 652.311C382.693 649.03 374.081 649.798 374.439 652.722C375.09 658.026 378.129 665.842 378.129 665.842L403.547 662.971L399.45 651.492Z" fill="#1C9AD7"/>
<path fill-rule="evenodd" clip-rule="evenodd" d="M398.927 651.165L398.93 651.161C398.83 651.315 396.439 654.868 389.871 651.754C384.203 649.066 377.255 649.011 374.834 650.757C373.88 651.444 373.76 652.246 373.828 652.796C374.48 658.115 377.431 665.741 377.555 666.064L377.726 666.503L378.197 666.452L403.615 663.58L404.387 663.493L404.126 662.763L400.028 651.284L399.601 650.089L398.927 651.165ZM403.48 662.357L378.06 665.23L378.702 665.617C378.672 665.542 375.684 657.814 375.049 652.647C375.034 652.527 374.991 652.162 375.554 651.754C377.406 650.418 383.698 650.188 389.347 652.868C396.946 656.47 399.941 651.867 399.972 651.818L398.871 651.698L402.97 663.176L403.48 662.357Z" fill="#241E1E"/>
<path fill-rule="evenodd" clip-rule="evenodd" d="M456.746 325.646L514.147 325.449L516.402 325.442C516.402 325.442 527.881 337.332 527.265 359.676C526.65 382.022 524.602 391.04 517.836 410.72C511.071 430.399 508.405 442.497 508.201 455.206C507.997 467.916 510.866 496.411 512.711 513.425C514.558 530.44 517.837 563.442 517.221 575.95C516.608 588.454 515.582 611.207 503.487 629.042C491.391 646.878 480.732 651.185 474.583 655.695C468.434 660.204 458.798 669.837 451.827 676.81C444.858 683.779 433.582 696.079 423.128 699.152C412.673 702.229 402.012 702.639 397.503 701.407C392.996 700.179 387.459 695.467 385.408 689.518C383.357 683.573 378.439 668.813 376.798 663.076C375.159 657.333 374.545 653.235 374.545 653.235C374.545 653.235 375.775 656.102 384.385 657.948C392.997 659.793 403.86 651.39 410.009 644.419C416.158 637.45 441.782 619.818 449.982 612.645C458.183 605.469 465.563 597.679 465.563 579.435C465.563 561.189 464.128 525.931 461.873 511.99C459.618 498.05 456.746 475.09 456.542 460.535C456.339 445.982 457.773 420.151 464.537 401.702C471.302 383.255 474.788 366.237 474.788 356.807C474.788 347.375 473.074 337.216 469.867 333.642C464.536 327.695 456.746 325.646 456.746 325.646Z" fill="#1C9AD7"/>
<path fill-rule="evenodd" clip-rule="evenodd" d="M456.748 326.26L514.149 326.063L516.4 326.056L515.956 325.868C516.069 325.986 527.248 337.858 526.648 359.657C526.039 381.876 523.986 390.928 517.253 410.52C510.408 430.432 507.788 442.542 507.584 455.195C507.392 467.195 509.932 493.521 512.096 513.489C513.666 527.945 517.241 562.967 516.607 575.918L516.59 576.225C515.991 588.431 514.875 611.15 502.975 628.699C493.319 642.937 484.67 648.436 478.354 652.448C476.855 653.402 475.436 654.303 474.216 655.196C468.018 659.743 458.407 669.353 451.392 676.372L449.097 678.689C442.359 685.523 432.176 695.848 422.954 698.562C412.848 701.532 402.159 702.04 397.662 700.812C393.537 699.687 388.043 695.275 385.987 689.315C383.844 683.098 379.001 668.547 377.387 662.903C375.779 657.272 375.155 653.183 375.148 653.14L373.976 653.475C374.117 653.797 375.583 656.69 384.253 658.546C393.011 660.422 403.848 652.325 410.467 644.824C414.128 640.673 425.01 632.523 434.612 625.331C441.037 620.519 447.104 615.975 450.387 613.104C458.707 605.823 466.175 597.768 466.175 579.432C466.175 561.218 464.734 525.847 462.478 511.889C460.053 496.892 457.349 474.419 457.155 460.525C456.915 443.338 458.878 418.916 465.114 401.913C471.363 384.866 475.401 367.163 475.401 356.806C475.401 347.889 473.832 337.14 470.325 333.23C464.933 327.216 457.229 325.136 456.902 325.05L456.748 326.26ZM469.408 334.051C472.212 337.177 474.168 346.535 474.168 356.806C474.168 367.028 470.159 384.568 463.956 401.49C457.665 418.651 455.683 443.246 455.924 460.542C456.122 474.499 458.83 497.046 461.264 512.086C463.511 525.985 464.944 561.255 464.944 579.433C464.946 597.277 457.985 604.82 449.574 612.181C446.331 615.02 440.278 619.552 433.874 624.348C424.224 631.575 413.287 639.767 409.543 644.009C402.637 651.839 392.218 658.999 384.508 657.343C376.458 655.62 375.112 653.005 375.1 652.977L373.934 653.323C373.939 653.365 374.571 657.529 376.205 663.242C377.824 668.908 382.676 683.488 384.824 689.717C387.016 696.077 392.908 700.791 397.338 701.999C401.936 703.255 412.597 702.888 423.297 699.741C432.828 696.937 442.738 686.89 449.973 679.551L452.26 677.24C459.248 670.25 468.821 660.678 474.944 656.188C476.131 655.319 477.465 654.468 479.013 653.486C485.42 649.413 494.191 643.839 503.994 629.387C516.085 611.556 517.214 588.611 517.817 576.286L517.834 575.978C518.476 562.939 514.891 527.841 513.319 513.357C511.158 493.421 508.622 467.153 508.813 455.214C509.013 442.703 511.617 430.699 518.415 410.918C525.198 391.19 527.262 382.072 527.879 359.691C528.494 337.348 516.957 325.135 516.841 325.014L516.659 324.826H516.397L514.142 324.834L456.743 325.03L456.589 326.239C456.666 326.26 464.269 328.32 469.408 334.051Z" fill="#241E1E"/>
<path fill-rule="evenodd" clip-rule="evenodd" d="M385.559 688.593C385.559 688.593 404.471 699.151 421.895 688.493C439.321 677.834 457.359 658.972 468.226 649.953C479.092 640.933 486.675 637.243 495.081 624.123C503.486 611.003 510.044 587.428 508.406 570.004C506.767 552.581 504.714 536.793 503.076 518.958C501.435 501.122 498.566 477.96 498.566 465.866C498.566 453.769 499.59 434.703 504.921 419.33C510.251 403.954 515.786 394.115 517.016 374.232C518.246 354.348 516.606 346.349 515.376 340.406C514.147 334.461 506.559 326.058 506.559 326.058L472.942 326.058C472.942 326.058 483.805 335.692 483.805 349.018C483.807 362.342 483.807 369.721 475.604 396.373C467.406 423.021 465.149 441.88 466.175 458.077C467.202 474.271 471.097 500.307 473.351 520.6C475.604 540.894 476.425 551.147 476.425 563.238C476.426 575.335 474.991 587.49 470.685 599.451C466.383 611.416 454.899 623.304 443.626 630.069C432.351 636.832 424.971 643.599 420.257 648.723C415.542 653.85 402.452 664.876 396.067 667.788C387.867 671.528 378.129 665.844 378.129 665.844L385.559 688.593Z" fill="#F4F3F3"/>
<path fill-rule="evenodd" clip-rule="evenodd" d="M93.1816 215.339C93.1816 215.339 93.1816 560.308 93.1816 573.311C93.1816 586.31 101.136 607.041 122.385 607.041H232.164C247.618 607.041 262.439 627.506 264.264 639.771H264.492C266.313 627.505 281.139 607.041 296.591 607.041H406.372C427.619 607.041 435.571 586.31 435.571 573.311C435.571 560.308 435.571 215.339 435.571 215.339H93.1816Z" fill="#008938"/>
<path fill-rule="evenodd" clip-rule="evenodd" d="M92.707 215.34V573.312C92.707 586.536 100.764 607.52 122.385 607.52H232.164C246.969 607.52 261.895 627.077 263.795 639.842L263.855 640.247H264.264H264.492H264.901L264.959 639.842C266.859 627.076 281.784 607.52 296.591 607.52H406.372C427.989 607.52 436.047 586.536 436.047 573.312V215.34V214.865H435.57H93.181H92.707V215.34ZM435.096 215.34V573.312C435.096 586.171 427.3 606.566 406.373 606.566H296.592C281.331 606.566 265.966 626.617 264.022 639.704L264.492 639.296H264.264L264.734 639.704C262.788 626.618 247.421 606.566 232.164 606.566H122.384C101.456 606.566 93.6567 586.171 93.6567 573.312V215.34L93.181 215.815H435.571L435.096 215.34Z" fill="#241E1E"/>
<path fill-rule="evenodd" clip-rule="evenodd" d="M105.858 426.29L117.748 414.419L130.01 426.663L141.975 414.719L154.13 426.855L166.415 414.589L178.895 427.049L191.131 414.834L203.501 427.183L216.009 414.696H313.331L325.839 427.183L338.213 414.834L350.446 427.049L362.926 414.589L375.21 426.855L387.363 414.719L399.329 426.663L411.592 414.419L423.481 426.29L435.574 414.215C435.574 318.569 435.574 215.34 435.574 215.34H93.1836C93.1836 215.34 93.1836 318.151 93.1836 413.637L105.858 426.29Z" fill="#F4F3F3"/>
<path fill-rule="evenodd" clip-rule="evenodd" d="M106.195 426.627L118.084 414.756H117.412L129.675 427.001L130.01 427.333L130.345 427.001L142.31 415.056H141.639L153.793 427.192L154.129 427.528L154.465 427.192L166.749 414.926H166.077L178.557 427.386L178.892 427.72L179.228 427.386L191.465 415.169H190.793L203.163 427.52L203.499 427.856L203.836 427.52L216.342 415.031L216.007 415.172H313.33L312.994 415.031L325.501 427.52L325.837 427.856L326.172 427.52L338.546 415.169H337.873L350.106 427.386L350.444 427.72L350.778 427.386L363.258 414.926H362.585L374.871 427.192L375.207 427.528L375.544 427.192L387.696 415.056H387.025L398.989 427.001L399.325 427.333L399.663 427.001L411.924 414.756H411.251L423.141 426.627L423.476 426.961L423.812 426.627L435.907 414.554L436.045 414.413V414.216V215.34V214.865H435.569H93.181H92.707V215.34V413.638V413.833L92.8466 413.972L105.523 426.627L105.858 426.961L106.195 426.627ZM93.6567 413.638V215.34L93.181 215.815H435.571L435.096 215.34V414.215L435.237 413.879L423.144 425.954H423.815L411.926 414.082L411.59 413.749L411.254 414.082L398.991 426.328H399.663L387.698 414.382L387.362 414.049L387.028 414.382L374.873 426.517H375.548L363.261 414.253L362.926 413.92L362.589 414.253L350.109 426.711H350.782L338.548 414.496L338.214 414.162L337.876 414.496L325.504 426.847H326.175L313.669 414.36L313.53 414.221H313.333H216.008H215.811L215.672 414.36L203.164 426.847H203.836L191.466 414.496L191.13 414.162L190.794 414.496L178.558 426.711H179.229L166.749 414.253L166.413 413.92L166.077 414.253L153.792 426.517H154.465L142.31 414.382L141.974 414.049L141.638 414.382L129.673 426.328H130.345L118.083 414.082L117.747 413.749L117.411 414.082L105.522 425.954H106.194L93.5171 413.301L93.6567 413.638Z" fill="#241E1E"/>
<path fill-rule="evenodd" clip-rule="evenodd" d="M254.754 262.567L167.285 339.816L189.29 360.171L214.595 339.266L240.45 361.587L263.554 339.816L238.799 317.578L265.289 293.84L291.06 317.261L266.857 339.499L289.726 361.587L315.269 338.715L340.888 360.488L361.477 340.366L276.291 262.25L291.06 247.947L281.708 238.829L265.206 253.998L248.151 238.595L239.116 248.263L254.754 262.567Z" fill="#008938"/>
<path fill-rule="evenodd" clip-rule="evenodd" d="M247.803 238.271L238.768 247.94L238.439 248.291L238.794 248.615L254.431 262.919L254.437 262.211L166.969 339.46L166.574 339.809L166.96 340.166L188.964 360.52L189.27 360.803L189.59 360.539L214.896 339.634L214.282 339.628L240.139 361.95L240.462 362.229L240.774 361.935L263.878 340.164L264.255 339.81L263.869 339.463L239.115 317.226V317.934L265.606 294.195L264.968 294.193L290.741 317.615L290.74 316.914L266.533 339.152L266.161 339.494L266.527 339.843L289.396 361.932L289.715 362.237L290.043 361.943L315.584 339.071L314.959 339.081L340.581 360.852L340.912 361.134L341.22 360.83L361.809 340.709L362.166 340.357L361.796 340.019L276.613 261.903L276.622 262.594L291.393 248.292L291.745 247.952L291.393 247.61L282.039 238.491L281.717 238.177L281.386 238.482L264.883 253.651L265.524 253.649L248.469 238.245L248.123 237.932L247.803 238.271ZM265.524 254.349L282.029 239.179L281.376 239.17L290.728 248.289L290.73 247.608L275.96 261.909L275.598 262.261L275.97 262.601L361.154 340.718L361.142 340.026L340.555 360.148L341.194 360.127L315.574 338.355L315.258 338.087L314.948 338.363L289.409 361.235L290.055 361.248L267.186 339.16L267.176 339.851L291.383 317.612L291.765 317.261L291.379 316.911L265.608 293.489L265.29 293.202L264.969 293.487L238.481 317.226L238.086 317.58L238.481 317.934L263.236 340.171L263.228 339.471L240.123 361.243L240.759 361.229L214.904 338.908L214.6 338.645L214.291 338.901L188.985 359.806L189.611 359.824L167.607 339.469L167.599 340.173L255.068 262.924L255.463 262.575L255.073 262.218L239.434 247.915L239.461 248.59L248.496 238.921L247.831 238.949L264.884 254.353L265.205 254.644L265.524 254.349Z" fill="#241E1E"/>
<path fill-rule="evenodd" clip-rule="evenodd" d="M214.159 496.389L240.015 473.199L262.253 495.839L238.364 518.072L263.986 540.946L289.759 518.391L266.419 495.286L289.292 473.199L314.83 496.935L340.451 474.298L361.041 496.154L263.904 580.786L167.717 495.839L188.853 474.615L214.159 496.389Z" fill="#F4F3F3"/>
<path fill-rule="evenodd" clip-rule="evenodd" d="M168.103 496.222L189.24 475L188.496 475.028L213.802 496.802L214.166 497.117L214.523 496.795L240.38 473.606L239.624 473.58L261.862 496.219L261.88 495.437L237.992 517.675L237.553 518.081L238 518.481L263.621 541.356L263.982 541.676L264.347 541.357L290.12 518.802L290.564 518.417L290.144 518.001L266.806 494.899L266.798 495.68L289.67 473.589L288.92 473.597L314.459 497.337L314.822 497.671L315.192 497.344L340.813 474.707L340.052 474.672L360.642 496.528L360.68 495.742L263.544 580.374L264.265 580.376L168.078 495.425L168.103 496.222ZM264.263 581.2L361.4 496.565L361.828 496.191L361.439 495.778L340.849 473.924L340.486 473.539L340.087 473.888L314.468 496.526L315.202 496.536L289.661 472.799L289.283 472.444L288.912 472.804L266.04 494.893L265.638 495.284L266.035 495.677L289.375 518.782L289.4 517.981L263.624 540.535L264.348 540.539L238.729 517.668L238.736 518.475L262.624 496.238L263.034 495.856L262.641 495.453L240.403 472.816L240.038 472.445L239.648 472.793L213.793 495.982L214.514 495.974L189.208 474.202L188.823 473.871L188.465 474.23L167.328 495.452L166.918 495.864L167.354 496.247L263.542 581.195L263.902 581.514L264.263 581.2Z" fill="#241E1E"/>
<path fill-rule="evenodd" clip-rule="evenodd" d="M319.42 416.565C319.42 446.961 294.775 471.605 264.379 471.605C233.981 471.605 209.34 446.961 209.34 416.565C209.34 386.168 233.981 361.525 264.378 361.525C294.777 361.525 319.42 386.168 319.42 416.565Z" fill="#104793"/>
<path fill-rule="evenodd" clip-rule="evenodd" d="M318.943 416.565C318.943 446.651 294.467 471.128 264.378 471.128C234.292 471.128 209.814 446.652 209.814 416.565C209.814 386.477 234.291 361.998 264.378 361.998C294.466 361.999 318.943 386.478 318.943 416.565ZM264.378 361.051C233.767 361.051 208.863 385.952 208.863 416.565C208.863 447.174 233.767 472.078 264.377 472.078C294.99 472.078 319.892 447.174 319.892 416.565C319.892 385.952 294.99 361.051 264.378 361.051Z" fill="#241E1E"/>
<path fill-rule="evenodd" clip-rule="evenodd" d="M247.915 401.799C247.915 401.799 241.057 408.06 244.038 415.217C247.021 422.375 247.915 425.952 245.529 432.511C243.143 439.074 243.442 450.405 247.021 453.985C250.599 457.564 252.983 456.37 252.983 456.37C252.983 456.37 255.073 464.42 262.524 464.124C269.98 463.825 272.367 457.564 272.367 457.564C272.367 457.564 275.646 458.755 279.523 456.666C283.401 454.581 284.592 449.212 284.592 445.633C284.592 442.054 283.4 437.881 281.611 433.111C279.821 428.338 283.401 426.251 283.997 423.268C284.593 420.287 286.383 417.305 284.89 412.237C283.401 407.167 278.331 402.693 278.331 402.693C278.331 402.693 282.207 409.256 278.927 414.921C275.646 420.587 272.665 426.848 272.665 426.848C272.665 426.848 272.069 423.269 273.859 418.2C275.647 413.132 274.455 407.468 271.176 404.185C267.895 400.903 265.21 399.413 267.001 391.66C268.789 383.909 268.491 380.328 267.001 376.155C265.509 371.981 263.719 368.999 263.719 368.999C263.719 368.999 267.597 378.541 262.23 384.801C256.863 391.065 254.177 401.799 257.457 405.377C260.739 408.956 262.23 414.621 260.142 419.692C258.055 424.761 258.352 428.04 258.352 428.04C258.353 428.04 256.186 425.346 256.863 420.286C257.457 415.814 252.389 415.217 249.704 412.831C247.022 410.445 246.425 408.36 246.724 406.571C247.022 404.781 247.915 401.799 247.915 401.799Z" fill="#F4F3F3"/>
<path fill-rule="evenodd" clip-rule="evenodd" d="M247.547 401.396C247.476 401.46 240.44 408.002 243.534 415.429C246.428 422.373 247.372 425.848 245.015 432.325C242.564 439.069 242.83 450.564 246.634 454.37C250.447 458.183 253.118 456.913 253.229 456.857L252.456 456.506C252.478 456.592 254.746 464.981 262.547 464.671C270.274 464.362 272.856 457.825 272.879 457.759L272.183 458.077C272.325 458.128 275.738 459.328 279.784 457.15C283.74 455.019 285.141 449.616 285.141 445.634C285.141 442.403 284.211 438.48 282.124 432.919C281.03 429.995 282.071 428.241 283.178 426.383C283.739 425.442 284.317 424.469 284.534 423.377C284.67 422.7 284.869 422.021 285.081 421.298C285.798 418.869 286.604 416.119 285.417 412.083C283.901 406.921 278.905 402.472 278.693 402.284L277.86 402.973C277.898 403.033 281.531 409.332 278.457 414.648C275.2 420.267 272.203 426.549 272.173 426.614L273.205 426.759C273.2 426.727 272.661 423.242 274.373 418.384C276.21 413.178 275.081 407.32 271.562 403.798C271.222 403.458 270.886 403.137 270.565 402.826C267.815 400.183 265.999 398.436 267.536 391.785C269.402 383.689 268.992 380.108 267.518 375.971C266.024 371.796 264.263 368.841 264.19 368.718L263.213 369.204C263.251 369.295 266.898 378.517 261.816 384.447C256.642 390.482 253.363 401.724 257.054 405.748C260.455 409.457 261.494 414.977 259.638 419.486C257.525 424.62 257.796 427.95 257.809 428.091L258.78 427.699C258.762 427.676 256.77 425.1 257.405 420.358C257.866 416.887 255.217 415.465 252.881 414.209C251.881 413.671 250.845 413.114 250.068 412.424C247.862 410.461 246.944 408.577 247.264 406.663C247.551 404.927 248.431 401.988 248.44 401.959L249.009 400.063L247.547 401.396ZM246.184 406.481C245.797 408.797 246.829 411.009 249.341 413.239C250.213 414.017 251.307 414.603 252.364 415.173C254.68 416.417 256.682 417.493 256.321 420.215C255.62 425.448 257.832 428.268 257.926 428.383L259.06 429.794L258.896 427.991C258.895 427.962 258.645 424.764 260.647 419.9C262.662 415.008 261.541 409.024 257.859 405.008C254.847 401.723 257.351 391.334 262.646 385.156C268.163 378.718 264.39 369.193 264.227 368.792L263.251 369.28C263.269 369.31 265.03 372.27 266.486 376.337C267.893 380.274 268.274 383.706 266.468 391.538C264.794 398.794 267.006 400.92 269.807 403.612C270.126 403.917 270.455 404.236 270.79 404.572C273.968 407.75 275.016 413.277 273.344 418.019C271.528 423.16 272.102 426.785 272.128 426.937L272.414 428.654L273.162 427.084C273.191 427.021 276.172 420.775 279.403 415.194C282.804 409.319 278.967 402.694 278.803 402.417L277.971 403.104C278.02 403.148 282.943 407.537 284.368 412.39C285.466 416.117 284.735 418.593 284.034 420.99C283.815 421.733 283.607 422.436 283.463 423.16C283.28 424.07 282.773 424.922 282.239 425.824C281.104 427.729 279.82 429.888 281.103 433.302C283.141 438.736 284.05 442.537 284.05 445.633C284.05 449.313 282.797 454.286 279.267 456.186C275.648 458.134 272.585 457.058 272.556 457.048L272.05 456.863L271.859 457.368C271.766 457.61 269.494 463.297 262.506 463.577C255.573 463.852 253.536 456.307 253.515 456.232L253.346 455.577L252.741 455.879C252.664 455.915 250.62 456.808 247.409 453.597C243.932 450.119 243.75 439.014 246.045 432.7C248.524 425.888 247.491 422.078 244.544 415.008C241.75 408.297 248.22 402.264 248.286 402.205L247.394 401.643C247.355 401.765 246.483 404.68 246.184 406.481Z" fill="#241E1E"/>
<path fill-rule="evenodd" clip-rule="evenodd" d="M253.58 451.502C253.58 451.502 253.566 451.521 253.182 454.781C252.983 456.472 254.972 460.746 257.455 462.137C259.942 463.528 264.912 464.323 267.494 462.535C270.081 460.746 272.169 457.168 272.169 457.168C272.169 457.168 274.555 457.663 276.243 457.365C277.933 457.069 280.221 456.372 281.806 454.085C283.4 451.799 283.996 446.53 283.996 446.53C283.996 446.53 281.61 454.882 278.032 455.277C274.453 455.676 274.948 455.873 274.453 454.781C273.957 453.686 275.049 451.502 275.049 451.502C275.051 451.502 272.961 453.886 272.562 454.88C272.167 455.872 269.782 457.465 269.782 457.465C269.782 457.465 270.577 455.775 271.174 452.792C271.767 449.812 270.974 447.823 269.583 445.437C268.19 443.053 264.711 440.07 264.711 437.584C264.711 435.099 265.905 428.537 265.905 428.537C265.905 428.537 261.63 431.42 260.635 435.397C259.643 439.373 261.332 443.249 260.933 446.131C260.54 449.016 258.25 450.707 258.052 453.191C257.854 455.675 258.746 457.167 259.74 458.557C260.737 459.948 261.829 461.738 261.829 461.738C261.829 461.738 258.127 461.286 256.56 459.251C252.884 454.482 253.58 451.502 253.58 451.502Z" fill="#BEBBBD"/>
<path fill-rule="evenodd" clip-rule="evenodd" d="M256.745 82.8389C256.745 82.8389 255.311 66.4396 250.595 61.5188C245.881 56.5989 233.786 52.499 233.376 49.2202C232.966 45.9405 232.966 39.8501 236.45 37.8721C239.935 35.8949 245.469 36.0997 245.469 36.0997C245.469 36.0997 235.834 33.6401 236.86 26.4646C237.886 19.2899 241.37 17.2391 243.625 15.8054C245.881 14.3716 248.545 15.1909 250.391 15.6005C252.236 16.011 253.466 17.8561 253.466 17.8561C253.466 17.8561 251.828 13.7554 254.492 8.42583C257.157 3.09538 259.616 0.841476 263.509 0.636651C267.405 0.430155 272.122 1.66078 274.169 6.7864C276.22 11.9104 275.603 17.8561 275.603 17.8561C275.603 17.8561 277.711 15.5821 280.934 14.9861C286.471 13.9594 293.027 23.1849 292.209 27.0816C291.39 30.9757 284.213 35.4861 284.213 35.4861C284.215 35.4861 289.135 34.9301 292.209 37.8721C295.284 40.8148 296.31 44.0954 295.488 46.9654C294.669 49.8355 292.823 52.9095 288.93 53.9345C285.034 54.9603 280.524 58.6504 278.679 61.7245C276.834 64.7994 272.53 82.2236 272.53 82.2236L256.745 82.8389Z" fill="#FFE900"/>
<path fill-rule="evenodd" clip-rule="evenodd" d="M257.358 82.7861C257.297 82.1064 255.848 66.1134 251.041 61.0948C248.788 58.7439 244.897 56.5736 241.465 54.6616C237.878 52.661 234.167 50.5935 233.987 49.1431C233.808 47.7135 233.103 40.4794 236.755 38.4077C240.05 36.5367 245.393 36.7131 245.448 36.7148L245.622 35.5034C245.531 35.4809 236.534 33.0924 237.47 26.5513C238.431 19.8273 241.53 17.8618 243.794 16.4272L243.955 16.3235C245.785 15.1598 247.967 15.6697 249.719 16.0769L250.258 16.2006C251.843 16.5526 252.944 18.1803 252.956 18.1962L254.038 17.626C254.024 17.5901 252.546 13.6942 255.042 8.69986C257.663 3.45636 259.967 1.43821 263.543 1.24927C266.38 1.09879 271.455 1.64888 273.601 7.01361C275.571 11.9403 275 17.733 274.995 17.7907L274.804 19.6233L276.056 18.2714C276.074 18.2505 278.076 16.1396 281.046 15.5886C282.989 15.2283 285.384 16.3335 287.62 18.6226C290.224 21.2903 292.012 25.0273 291.608 26.9518C290.854 30.545 283.957 34.9191 283.889 34.9634L284.284 36.0937C284.33 36.0886 288.961 35.6121 291.784 38.3158C294.591 40.9994 295.695 44.0107 294.898 46.7947C294.206 49.2283 292.58 52.3366 288.777 53.339C284.537 54.4534 279.959 58.3961 278.152 61.4083C276.284 64.5266 272.112 81.3615 271.935 82.0763L272.507 81.6081L256.723 82.2226L257.358 82.7861ZM273.126 82.3714C273.17 82.1975 277.431 65.0031 279.206 62.0428C280.896 59.2238 285.269 55.5344 289.086 54.5295C293.449 53.38 295.298 49.8737 296.079 47.1349C296.994 43.9372 295.738 40.4008 292.633 37.4288C289.39 34.323 284.358 34.8505 284.145 34.8739L284.541 36.0059C284.844 35.8153 291.947 31.31 292.811 27.2076C293.308 24.8509 291.453 20.792 288.498 17.7665C285.936 15.1414 283.209 13.9383 280.823 14.3823C277.438 15.0085 275.245 17.3393 275.154 17.4388L276.217 17.9203C276.241 17.6703 276.823 11.7655 274.74 6.55798C272.967 2.11956 268.86 -0.261417 263.476 0.0228291C259.433 0.236014 256.758 2.515 253.941 8.15143C251.157 13.7193 252.895 18.0925 252.915 18.1326L253.977 17.5165C253.922 17.4321 252.585 15.4607 250.522 15.0009L249.997 14.8814C248.125 14.445 245.559 13.8481 243.295 15.2877L243.134 15.3897C240.807 16.8644 237.292 19.0932 236.25 26.3808C235.158 34.0128 245.214 36.6722 245.316 36.6973L245.491 35.4875C245.259 35.4775 239.74 35.3003 236.145 37.3385C231.92 39.7362 232.489 47.0982 232.764 49.2986C233.023 51.3644 236.482 53.2947 240.863 55.7367C244.221 57.6102 248.025 59.7296 250.15 61.9467C254.663 66.6568 256.116 82.7334 256.13 82.8939L256.181 83.4783L256.767 83.4541L272.551 82.8404L273.015 82.822L273.126 82.3714Z" fill="#241E1E"/>
<path fill-rule="evenodd" clip-rule="evenodd" d="M287.327 41.6083C287.593 41.0616 287.872 40.3459 288.066 39.433C288.338 38.1648 287.556 36.8539 285.972 35.9293C285.693 35.7662 285.388 35.6241 285.071 35.4979C286.111 34.8491 287.051 33.9989 287.602 32.6797C288.331 30.9332 288.003 29.6842 287.6 28.9418C286.976 27.7965 285.707 26.9972 284.024 26.6896C283.404 26.5776 282.842 26.5893 282.323 26.6536L283.102 24.6689C283.752 23.0404 283.507 20.7781 282.506 19.1679C281.718 17.8989 280.538 17.1439 279.185 17.0403C276.959 16.8672 275.514 17.5971 274.367 18.7742C275.669 14.2881 275.07 10.4324 273.989 8.25038C273.618 7.49462 272.985 6.52902 272.098 6.23391C270.878 5.8276 266.574 5.48985 265.481 7.67102C265.367 7.90511 265.223 8.18267 265.072 8.47109C264.635 7.60749 263.988 6.77816 263.034 6.30163C259.274 4.42059 257.018 6.39944 255.522 7.70781C253.562 9.42081 252.838 13.5733 253.272 16.5955C253.362 17.215 253.505 17.8378 253.688 18.4866C252.164 17.3789 250.227 16.7619 248.927 16.848C247.849 16.9207 247.327 17.4265 247.081 17.8387C246.384 18.9999 245.436 21.5272 245.681 23.7343C245.778 24.5929 245.957 25.8235 246.124 26.9128C245.633 26.7163 245.117 26.5508 244.619 26.4798C243.632 26.3393 242.545 26.7105 241.636 27.4989C240.7 28.3098 240.139 29.3816 240.139 30.3622C240.139 30.4316 240.138 30.5152 240.133 30.6122C240.077 32.28 240.454 34.1034 242.851 36.2511C242.648 36.3439 242.445 36.4367 242.26 36.5454C240.678 37.4692 239.895 38.7801 240.167 40.0483C240.361 40.9596 240.637 41.6769 240.904 42.2236C240.095 42.9426 239.392 44.2 239.526 46.2282C239.77 49.8523 240.403 51.2142 246.086 56.2896C251.542 61.1595 255.161 69.8942 255.197 69.9828L257.563 69.4578C257.563 69.4252 257.521 68.5958 257.455 67.2724L258.346 67.361L260.601 58.5461L260.622 58.4549L260.632 58.363C260.663 58.0419 261.026 54.3367 261.296 49.8047L267.86 58.3747L269.016 59.887C269.801 64.7702 270.623 68.8123 270.693 69.1509L271.735 69.0816L273.038 69.37C273.074 69.283 276.692 60.5483 282.147 55.6768C287.83 50.6031 288.464 49.242 288.705 45.6162C288.841 43.5855 288.139 42.3281 287.327 41.6083ZM274.602 22.599C276.231 19.9538 277.09 19.3443 278.994 19.4915C279.562 19.535 280.044 19.8635 280.419 20.4671C281.002 21.4076 281.177 22.8523 280.817 23.7527L278.966 28.4845L280.983 29.7946C281.014 29.7661 282.021 28.829 283.584 29.1115C284.507 29.2779 285.18 29.6458 285.44 30.1181C285.656 30.5102 285.617 31.0536 285.333 31.7325C284.807 32.9999 283.527 33.606 282.045 34.3099C281.311 34.6577 280.548 35.0188 279.843 35.487C279.761 35.5422 279.664 35.6258 279.578 35.696C279.265 35.8741 278.958 36.0839 278.669 36.3381C276.115 38.592 273.45 41.5674 272.328 46.6261C272.477 43.9759 272.724 41.3801 273.143 40.2013C274.168 37.3321 276.834 31.592 276.834 31.592C276.834 31.592 274.168 33.8459 272.118 39.382C271.167 41.9503 270.528 45.398 270.113 48.36C270.095 48.0783 270.08 47.7965 270.07 47.5282V44.9549C270.482 37.97 273.104 25.0343 274.602 22.599ZM247.724 54.4521C242.214 49.5321 242.161 48.7279 241.983 46.0635C241.86 44.2343 242.708 43.9049 242.88 43.8581L243.011 43.8213C243.059 43.8112 243.178 43.746 243.178 43.746L244.534 43.0229L243.532 41.8575C243.536 41.8616 242.911 41.0825 242.58 39.5593C242.607 39.3678 243.093 38.7617 244.162 38.3512C244.372 38.2701 244.785 38.1372 245.29 38.0736C245.729 38.3562 246.19 38.6438 246.704 38.9389C248.935 40.2172 250.249 41.2731 251.086 42.2195C251.784 43.2076 252.393 44.3429 252.878 45.6655C252.94 45.8369 253.005 46.01 253.077 46.1864C253.457 47.3534 253.738 48.6627 253.883 50.1583C254.024 51.6238 254.164 53.4714 254.304 55.4294C253.643 54.279 252.914 53.0141 252.236 51.8847C250.39 48.8081 246.699 45.9397 246.699 45.9397C246.699 45.9397 248.957 48.6041 250.39 50.8589C251.824 53.1128 254.695 62.5447 254.695 62.5447L254.735 62.4595C254.759 62.8716 254.783 63.2846 254.805 63.6784C253.118 60.7122 250.701 57.1089 247.724 54.4521ZM255.59 45.8001C255.511 45.6404 255.443 45.4766 255.378 45.3127C255.249 44.929 255.111 44.5611 254.967 44.2042C254.599 43.1566 254.163 42.033 253.075 40.7623C251.994 39.2399 250.767 38.0126 249.564 36.95C248.517 36.0271 247.257 35.6408 246.009 35.6007C242.515 33.1771 242.561 31.5987 242.593 30.6941C242.596 30.5854 242.599 30.4726 242.599 30.3605C242.599 30.1825 242.805 29.7369 243.247 29.3531C243.6 29.0472 244.002 28.8741 244.271 28.9126C245.214 29.0472 246.592 29.8548 247.044 30.1541L249.403 31.7199C249.405 31.7216 248.937 28.9285 248.937 28.9285C248.932 28.8917 248.327 25.2491 248.128 23.4592C247.972 22.0706 248.57 20.2598 249.079 19.3092C249.784 19.2131 252.013 19.9078 253.119 21.2881C254.541 23.0663 257.804 28.8223 258.81 35.2646C259.129 37.307 259.177 40.3978 259.098 43.6474C258.464 41.3592 257.722 38.9465 257.155 37.8713C255.925 35.5439 251.415 31.9991 251.415 31.9991C251.415 31.9991 255.31 37.8713 256.743 41.8399C258.18 45.806 258.195 58.0261 258.195 58.0261L257.951 58.985C257.549 51.8713 256.945 48.5097 255.59 45.8001ZM267.607 47.6385V53.9956L262.687 47.57C262.68 46.8067 262.649 45.0937 262.531 42.9359L267.607 43.2185V44.9031C267.562 45.7073 267.568 46.6345 267.607 47.6385ZM267.72 38.8746L263.92 20.5215L261.99 36.7017C261.613 33.6586 261.036 30.5788 260.146 28.2764C259.355 26.2331 258.659 24.5502 258.044 23.0655C256.791 20.0424 255.964 18.0477 255.708 16.2469C255.339 13.6736 256.01 10.5503 257.145 9.55875C258.698 8.19605 259.764 7.41604 261.935 8.50286C262.944 9.00531 263.434 10.9549 263.512 11.8177L263.885 15.8423L265.818 12.2942C265.871 12.2039 267.045 10.047 267.665 8.80467C268.061 8.38666 270.228 8.24119 271.259 8.55386C271.876 9.04962 273.8 13.0015 271.778 18.8912C269.797 24.6489 268.153 33.5374 267.72 38.8746ZM286.251 45.449C286.075 48.1151 286.02 48.9193 280.509 53.8384C277.615 56.4226 275.254 59.8971 273.579 62.8148C273.61 62.3884 273.646 61.9269 273.68 61.4771C274.729 58.7275 276.053 55.3098 276.833 53.5249C278.27 50.2452 282.366 44.3003 282.366 44.3003C282.366 44.3003 279.908 46.9655 277.652 49.4259C276.566 50.6106 275.242 53.1278 274.161 55.421C274.231 54.6034 274.298 53.7975 274.367 53.0191C274.92 46.7574 279.063 39.4472 280.923 37.766C282.194 37.1248 283.614 37.5628 284.071 37.7376C285.14 38.1489 285.625 38.7542 285.655 38.9448C285.325 40.4688 284.7 41.2472 284.692 41.2547L283.397 42.839C283.386 42.8507 285.394 43.2519 285.394 43.2519C285.525 43.2921 286.374 43.6223 286.251 45.449Z" fill="#E87C04"/>
<path fill-rule="evenodd" clip-rule="evenodd" d="M421.219 92.959L347.241 155.399L363.531 67.8483L318.736 122.822L322.13 63.0972L284.801 121.464L265.12 36.6289L246.116 121.464L210.145 64.4541L212.86 122.822L168.745 68.5263L184.355 157.435L109.02 92.2809L172.817 214.446H358.099L421.219 92.959Z" fill="#F4A800"/>
<path fill-rule="evenodd" clip-rule="evenodd" d="M238.652 156.756L223.043 139.451L221.346 97.71L243.403 136.056L238.652 156.756Z" fill="#E87C04"/>
<path fill-rule="evenodd" clip-rule="evenodd" d="M293.97 156.079L288.199 136.396L310.936 97.0332L308.223 140.129L293.97 156.079Z" fill="#E87C04"/>
<path fill-rule="evenodd" clip-rule="evenodd" d="M359.03 213.768C345.867 206.467 309.098 201.212 265.8 201.212C222.504 201.211 185.736 206.466 172.574 213.768H359.03Z" fill="#E87C04"/>
<path fill-rule="evenodd" clip-rule="evenodd" d="M173.838 214.107C173.838 214.107 189.448 201.891 262.408 201.891C335.368 201.89 358.1 214.446 358.1 214.446L360.479 207.319C360.479 207.319 355.05 195.104 265.463 195.104C175.875 195.104 170.105 206.982 170.105 206.982L172.818 214.446L173.838 214.107Z" fill="#FFE900"/>
<path fill-rule="evenodd" clip-rule="evenodd" d="M357.854 214.891C357.849 214.893 356.484 214.13 353.237 212.963V212.962C349.989 211.794 344.89 210.23 337.509 208.665C322.746 205.535 298.86 202.399 262.408 202.399C198.617 202.396 178.762 211.753 174.91 214.02C174.359 214.344 174.152 214.506 174.152 214.508L173.524 213.704C173.686 213.59 189.395 201.385 262.408 201.38C329.176 201.38 353.971 211.885 357.803 213.725H357.805L359.917 207.39C359.868 207.327 359.799 207.248 359.705 207.147C359.417 206.851 358.89 206.399 357.966 205.846C356.123 204.737 352.688 203.222 346.445 201.703C333.956 198.665 310.23 195.61 265.461 195.61C183.684 195.575 171.833 205.604 170.672 207.051L173.296 214.271L172.338 214.618L169.553 206.948L169.646 206.758C169.974 206.339 175.839 194.642 265.46 194.593C355.08 194.641 360.62 206.674 360.942 207.111L361.023 207.292L358.391 215.184L357.854 214.891Z" fill="#E87C04"/>
<path fill-rule="evenodd" clip-rule="evenodd" d="M195.897 175.422L186.395 104.838L233.225 172.366L242.726 172.706L265.124 90.5849L288.199 170.333L298.378 171.689L345.889 103.48L336.047 175.422L344.872 177.797L405.952 120.449L418.17 97.0339L345.889 158.116L361.498 72.2602L294.306 154.044L265.292 39.5117L237.636 154.381L170.785 72.6005L185.377 159.133L113.096 97.0339L124.634 120.108L186.734 176.778L195.897 175.422Z" fill="#FFE900"/>
<path fill-rule="evenodd" clip-rule="evenodd" d="M335.481 175.794L345.097 105.503L298.616 172.231L287.799 170.792L265.135 92.4635L243.111 173.225L232.951 172.864L187.179 106.862L196.466 175.85L186.566 177.314L124.289 120.483L124.219 120.42L112.639 97.2573L113.425 96.6445L184.639 157.829L169.965 70.7973L237.38 153.262L264.796 39.3915L265.785 39.3848L294.552 152.939L362.345 70.4244L346.642 156.809L417.84 96.642L418.619 97.2681L406.362 120.762L345.011 178.359L335.481 175.794ZM346.39 103.547L336.609 175.045L344.728 177.227L405.54 120.132L416.519 99.0898L345.131 159.419L360.645 74.0946L294.06 155.142L265.305 41.6303L237.89 155.493L171.605 74.4056L186.115 160.438L114.681 99.0631L125.047 119.794L186.898 176.236L195.325 174.989L185.89 104.903L186.812 104.544L233.496 171.864L242.339 172.179L265.106 88.7073L288.593 169.869L298.135 171.139L345.468 103.187L346.39 103.547Z" fill="#E87C04"/>
<path fill-rule="evenodd" clip-rule="evenodd" d="M162.979 194.424C162.979 194.424 183.68 179.154 267.498 179.154C351.317 179.154 366.585 193.746 367.265 193.746C367.945 193.746 370.998 186.958 370.998 186.958C371 186.958 351.995 170.331 267.498 170.331C183.001 170.331 158.568 186.619 158.568 186.619L162.979 194.424Z" fill="#FFE900"/>
<path fill-rule="evenodd" clip-rule="evenodd" d="M157.891 186.457L158.284 186.195C158.401 186.12 182.937 169.823 267.496 169.823V169.822C352.056 169.826 371.18 186.451 371.332 186.575L371.616 186.821L371.461 187.168C371.443 187.191 369.153 192.332 368.017 193.773C367.815 193.971 367.754 194.19 367.265 194.254C366.874 194.201 366.898 194.119 366.68 194.013H366.682C366.507 193.903 366.271 193.748 365.952 193.551C365.318 193.161 364.357 192.6 362.954 191.923C360.153 190.573 355.595 188.761 348.432 186.944C334.11 183.308 309.377 179.663 267.496 179.663C194.207 179.661 169.275 191.351 164.283 194.21C163.569 194.619 163.28 194.833 163.28 194.836V194.835L162.816 195.176L157.891 186.457ZM163.153 193.697C166.665 191.507 190.52 178.646 267.496 178.643C329.42 178.645 354.007 186.599 362.98 190.809H362.982C365.366 191.925 366.732 192.834 367.214 193.145C367.218 193.142 367.219 193.138 367.223 193.135C367.347 192.98 367.515 192.728 367.698 192.421C368.068 191.806 368.508 190.965 368.931 190.122C369.539 188.909 370.1 187.695 370.368 187.109H370.37C370.221 186.997 370.013 186.849 369.734 186.666C369.068 186.222 368.013 185.584 366.478 184.812C363.413 183.27 358.428 181.205 350.801 179.135C335.544 174.993 309.714 170.838 267.496 170.838C204.173 170.838 174.653 179.996 163.902 184.542C161.377 185.61 159.902 186.413 159.251 186.795V186.794L163.153 193.697Z" fill="#E87C04"/>
<path fill-rule="evenodd" clip-rule="evenodd" d="M352.947 212.892C349.579 211.678 344.412 210.048 337.244 208.394C322.9 205.091 300.543 201.702 268.509 201.379C266.873 201.358 265.261 201.353 263.67 201.354H263.671C215.924 201.354 188.637 208.614 178.008 212.229C174.466 213.434 172.794 214.226 172.789 214.227L172.355 213.306C172.424 213.273 199.871 200.337 263.671 200.337H263.672C265.265 200.337 266.88 200.343 268.521 200.363C332.72 201.01 358.254 213.953 358.329 213.993L357.869 214.899C357.862 214.899 356.318 214.106 352.947 212.892Z" fill="#12100B"/>
<path fill-rule="evenodd" clip-rule="evenodd" d="M172.816 214.952H172.508L109.334 93.4477L110.118 92.8257L183.623 156.134L169.038 68.2543L212.28 121.304L209.549 62.5719L245.386 118.98L264.622 36.5116L265.613 36.5049L286.029 118.997L322.748 61.1733L319.332 121.305L363.354 68.2351L347.989 154.098L420.889 92.5699L421.669 93.1944L358.408 214.953H172.816V214.952ZM357.789 213.935L419.578 95.0069L346.486 156.699L361.67 71.8609L318.135 124.342L321.507 65.0206L285.613 121.551L265.133 38.8064L245.826 121.571L210.742 66.3407L213.439 124.34L170.665 71.8576L185.086 158.738L111.457 95.3229L173.125 213.935H357.789V213.935Z" fill="#12100B"/>
</g>
<defs>
<clipPath id="clip0_806_111164">
<rect width="527.052" height="712" fill="white" transform="translate(0.851562)"/>
</clipPath>
</defs>
</svg>
