<svg id="id-svg" width="616" height="719" viewBox="0 0 616 719" fill="none" xmlns="http://www.w3.org/2000/svg">
<g clip-path="url(#clip0_806_119733)">
<path d="M746.974 0.765625H-605.26V719.368H746.974V0.765625Z" fill="#3221CF"/>
<path d="M174.73 259.237L265.427 331.495L260.855 440.108L311.968 475.802L371.415 443.384L364.776 361.096L464.008 282.345L479.925 377.734C479.925 377.734 502.29 350.345 506.995 371.501C543.577 535.965 447.288 550.631 396.673 564.706L239.791 564.854C125.597 536.286 93.9863 486.546 126.519 360.738C129.093 350.783 151.189 360.538 148.551 373.022C148.551 373.022 166.522 284.444 174.73 259.237Z" fill="#FFD373"/>
<path d="M200.435 297.505C193.271 324.54 178.549 344.095 167.552 341.181C156.554 338.267 160.312 316.563 167.476 289.528C174.639 262.492 175.043 238.915 193.492 243.277C209.362 247.029 205.917 260.292 203.681 280.34" fill="#FFD373"/>
<path d="M226.15 307.044C218.986 334.08 204.264 353.634 193.267 350.72C182.269 347.806 186.028 326.102 193.191 299.067C200.354 272.032 200.758 248.454 219.207 252.816C235.077 256.568 231.632 269.831 229.396 289.88" fill="#FFD373"/>
<path d="M247.608 330.219C240.445 357.254 225.722 376.809 214.725 373.895C203.727 370.981 207.486 349.277 214.649 322.242C221.812 295.206 222.216 271.629 240.665 275.991C256.535 279.743 253.09 293.006 250.854 313.054" fill="#FFD373"/>
<path d="M262.199 370.561C255.036 397.596 240.314 417.151 229.316 414.237C218.319 411.323 222.077 389.619 229.24 362.584C236.404 335.548 236.807 311.97 255.257 316.333C271.127 320.085 267.681 333.348 265.446 353.396" fill="#FFD373"/>
<path d="M430.161 295.028C437.324 322.063 452.047 341.618 463.044 338.704C474.042 335.79 479.994 374.779 464.334 285.837C459.484 258.292 455.553 236.438 437.104 240.8C421.234 244.552 424.679 257.815 426.915 277.863" fill="#FFD373"/>
<path d="M380.379 326.786C387.542 353.822 402.264 373.376 413.262 370.462C424.259 367.548 420.501 345.845 413.338 318.809C406.174 291.774 405.771 268.196 387.321 272.558C371.451 276.31 374.897 289.574 377.132 309.622" fill="#FFD373"/>
<path d="M365.787 377.428C366.084 407.896 388.531 421.443 399.529 418.529C410.526 415.615 406.768 393.911 399.604 366.876C392.441 339.84 392.037 316.262 373.588 320.625C357.718 324.377 361.163 337.64 363.399 357.688" fill="#FFD373"/>
<path d="M403.553 305.328C410.717 332.364 425.439 351.918 436.436 349.004C447.434 346.09 443.676 324.387 436.512 297.351C429.349 270.316 428.945 246.738 410.496 251.1C394.626 254.852 398.071 268.116 400.307 288.164" fill="#FFD373"/>
<path d="M137.012 438.161C137.012 453.747 118.949 457.644 123.053 466.383C144.279 511.584 104.617 451.13 109.093 438.161C109.027 401.271 140.508 379.957 136.16 428.451" fill="#FFD373"/>
<path d="M493.708 439.287C493.708 454.873 511.771 458.77 507.667 467.509C486.441 512.71 526.103 452.256 521.627 439.287C521.693 402.397 490.212 381.083 494.56 429.577" fill="#FFD373"/>
<path d="M400.255 192.644C400.255 240.522 361.442 279.335 313.564 279.335C265.686 279.335 226.873 240.522 226.873 192.644C226.873 144.766 265.686 105.953 313.564 105.953C360.594 105.953 399.047 143.452 400.227 190.468" fill="#9DFFFF"/>
<path d="M346.168 457.23C353.523 530.697 314.842 572.785 314.842 572.785C314.842 572.785 276.213 539.398 283.442 456.371C283.798 452.276 300.836 466.783 300.836 466.783C306.288 470.042 308.526 439.009 312.539 438.508C316.947 437.958 322.531 465.124 326.178 466.841" fill="#FF0000"/>
<path d="M289.745 444.347C307.387 448.818 317.169 449.395 335.237 443.703C338.479 442.682 336.739 433.618 336.739 433.618H286.956C286.956 433.618 286.163 443.439 289.745 444.347Z" fill="#FF0000"/>
<path d="M299.541 62.7658L312.124 23.8096L324.432 62.7658V326.751H299.541V62.7658Z" fill="#F2F2F2"/>
<path d="M287.24 319.76C303.559 309.784 317.508 309.905 336.401 319.76C337.01 356.535 336.401 434.216 336.401 434.216H287.24C287.24 434.216 287.254 354.466 287.24 319.76Z" fill="#F2F2F2"/>
<path d="M307.591 319.015L307.894 434.216" stroke="black" stroke-width="2.30137"/>
<path d="M299.379 254.566H324.87" stroke="black" stroke-width="2.30137"/>
<path d="M299.379 109.51H324.87" stroke="black" stroke-width="2.30137"/>
<path opacity="0.6" d="M479.783 377.472C479.783 377.472 482.506 401.66 479.221 413.233C474.22 430.85 452.613 461.299 452.613 461.299C452.613 461.299 402.072 442.244 352.986 474.677" stroke="black" stroke-width="0.767123"/>
<path opacity="0.6" d="M276.717 474.027C243.867 449.334 216.878 447.12 177.09 458.724C177.09 458.724 151.828 427.724 147.049 408.941C143.964 396.82 148.723 371.456 148.723 371.456" stroke="black" stroke-width="0.767123"/>
<path opacity="0.6" d="M424.806 255.976L449.275 386.803L448.944 409.976" stroke="black" stroke-width="0.767123"/>
<path opacity="0.6" d="M398.383 273.664L420.95 406.033L419.014 425.847" stroke="black" stroke-width="0.767123"/>
<path opacity="0.6" d="M378.797 319.88L395.963 413.233V433.833" stroke="black" stroke-width="0.767123"/>
<path opacity="0.6" d="M250.625 315.666L237.173 413.234V429.542" stroke="black" stroke-width="0.767123"/>
<path opacity="0.6" d="M231.224 275.403L208.801 400.87L210.505 425.836" stroke="black" stroke-width="0.767123"/>
<path opacity="0.6" d="M205.408 257.025L181.382 382.615L179.666 406.367" stroke="black" stroke-width="0.767123"/>
<path opacity="0.888889" d="M198.622 105.617L190.051 73.3982L157.832 64.8267L190.051 56.2552L198.622 24.0364L207.194 56.2552L239.412 64.8267L207.194 73.3982L198.622 105.617Z" fill="#FFD373"/>
<path opacity="0.888889" d="M471.998 197.887L463.427 165.668L431.208 157.096L463.427 148.525L471.998 116.306L480.57 148.525L512.789 157.096L480.57 165.668L471.998 197.887Z" fill="#FFD373"/>
<path opacity="0.888889" d="M82.3189 322.345L73.7474 290.126L41.5286 281.554L73.7474 272.983L82.3189 240.764L90.8905 272.983L123.109 281.554L90.8904 290.126L82.3189 322.345Z" fill="#FFD373"/>
<path d="M95.7487 667.057V609.718H133.797V619.713H107.872V630.912H117.195C121.731 630.912 125.641 631.649 128.926 633.124C132.23 634.579 134.777 636.642 136.569 639.311C138.361 641.98 139.257 645.125 139.257 648.746C139.257 652.349 138.361 655.531 136.569 658.293C134.777 661.037 132.23 663.184 128.926 664.733C125.641 666.282 121.731 667.057 117.195 667.057H95.7487ZM107.872 657.313H117.195C119.36 657.313 121.189 656.922 122.682 656.138C124.176 655.335 125.305 654.28 126.07 652.974C126.854 651.649 127.246 650.202 127.246 648.634C127.246 646.357 126.378 644.435 124.642 642.867C122.925 641.28 120.443 640.487 117.195 640.487H107.872V657.313ZM156.987 667.057H143.996L163.79 609.718H179.413L199.179 667.057H186.188L171.825 622.82H171.377L156.987 667.057ZM156.175 644.519H186.86V653.982H156.175V644.519ZM206.08 609.718H218.175V645.778H218.651L243.429 609.718H254.04V667.057H241.917V630.968H241.497L216.579 667.057H206.08V609.718ZM235.646 594.711H243.961C243.942 598.108 242.683 600.842 240.181 602.914C237.699 604.986 234.339 606.022 230.102 606.022C225.847 606.022 222.478 604.986 219.995 602.914C217.513 600.842 216.271 598.108 216.271 594.711H224.531C224.512 595.999 224.923 597.156 225.763 598.182C226.621 599.209 228.068 599.722 230.102 599.722C232.081 599.722 233.499 599.218 234.358 598.21C235.217 597.203 235.646 596.036 235.646 594.711ZM298.745 667.057L280.323 642.615H276.179V667.057H264.056V609.718H276.179V632.62H278.615L297.654 609.718H312.744L290.374 636.315L313.78 667.057H298.745ZM369.334 638.387C369.334 644.64 368.149 649.959 365.779 654.346C363.427 658.732 360.217 662.082 356.148 664.397C352.097 666.693 347.543 667.841 342.485 667.841C337.389 667.841 332.816 666.683 328.766 664.369C324.716 662.054 321.515 658.704 319.163 654.318C316.811 649.931 315.635 644.621 315.635 638.387C315.635 632.134 316.811 626.815 319.163 622.428C321.515 618.042 324.716 614.701 328.766 612.405C332.816 610.091 337.389 608.934 342.485 608.934C347.543 608.934 352.097 610.091 356.148 612.405C360.217 614.701 363.427 618.042 365.779 622.428C368.149 626.815 369.334 632.134 369.334 638.387ZM357.043 638.387C357.043 634.337 356.437 630.921 355.224 628.14C354.029 625.359 352.34 623.25 350.156 621.812C347.972 620.375 345.415 619.657 342.485 619.657C339.554 619.657 336.997 620.375 334.813 621.812C332.63 623.25 330.931 625.359 329.718 628.14C328.523 630.921 327.926 634.337 327.926 638.387C327.926 642.437 328.523 645.853 329.718 648.634C330.931 651.415 332.63 653.524 334.813 654.962C336.997 656.399 339.554 657.117 342.485 657.117C345.415 657.117 347.972 656.399 350.156 654.962C352.34 653.524 354.029 651.415 355.224 648.634C356.437 645.853 357.043 642.437 357.043 638.387ZM378.315 667.057V609.718H390.438V633.376H415.048V609.718H427.143V667.057H415.048V643.371H390.438V667.057H378.315ZM443.325 667.841V657.985H446.433C447.982 657.985 449.233 657.799 450.185 657.425C451.136 657.033 451.892 656.464 452.452 655.718C453.031 654.952 453.516 654 453.908 652.862L454.608 650.986L433.778 609.718H446.321L459.816 637.939L471.099 609.718H483.474L463.707 655.802C462.755 657.929 461.626 659.908 460.32 661.737C459.032 663.566 457.38 665.041 455.364 666.161C453.348 667.281 450.772 667.841 447.637 667.841H443.325ZM490.032 667.057V609.718H512.654C517.003 609.718 520.708 610.548 523.769 612.209C526.83 613.852 529.163 616.138 530.769 619.069C532.393 621.98 533.204 625.34 533.204 629.148C533.204 632.956 532.383 636.315 530.741 639.227C529.098 642.139 526.718 644.407 523.601 646.03C520.503 647.654 516.751 648.466 512.346 648.466H497.927V638.751H510.386C512.72 638.751 514.642 638.35 516.154 637.547C517.684 636.726 518.823 635.597 519.57 634.159C520.335 632.704 520.718 631.033 520.718 629.148C520.718 627.244 520.335 625.583 519.57 624.164C518.823 622.727 517.684 621.617 516.154 620.833C514.623 620.03 512.682 619.629 510.33 619.629H502.155V667.057H490.032Z" fill="#FFD373"/>
<path d="M95.7487 667.057H95.3652V667.44H95.7487V667.057ZM95.7487 609.718V609.334H95.3652V609.718H95.7487ZM133.797 609.718H134.181V609.334H133.797V609.718ZM133.797 619.713V620.096H134.181V619.713H133.797ZM107.872 619.713V619.329H107.488V619.713H107.872ZM107.872 630.912H107.488V631.295H107.872V630.912ZM128.926 633.124L128.769 633.473L128.771 633.475L128.926 633.124ZM136.569 639.311L136.888 639.097L136.888 639.097L136.569 639.311ZM136.569 658.293L136.89 658.503L136.891 658.502L136.569 658.293ZM128.926 664.733L128.763 664.386L128.762 664.386L128.926 664.733ZM107.872 657.313H107.488V657.697H107.872V657.313ZM122.682 656.138L122.861 656.477L122.864 656.475L122.682 656.138ZM126.07 652.974L125.74 652.779L125.739 652.78L126.07 652.974ZM124.642 642.867L124.382 643.148L124.385 643.151L124.642 642.867ZM107.872 640.487V640.103H107.488V640.487H107.872ZM96.1323 667.057V609.718H95.3652V667.057H96.1323ZM95.7487 610.101H133.797V609.334H95.7487V610.101ZM133.414 609.718V619.713H134.181V609.718H133.414ZM133.797 619.329H107.872V620.096H133.797V619.329ZM107.488 619.713V630.912H108.255V619.713H107.488ZM107.872 631.295H117.195V630.528H107.872V631.295ZM117.195 631.295C121.69 631.295 125.544 632.026 128.769 633.473L129.083 632.774C125.737 631.272 121.771 630.528 117.195 630.528V631.295ZM128.771 633.475C132.017 634.905 134.504 636.923 136.251 639.525L136.888 639.097C135.051 636.361 132.442 634.254 129.081 632.773L128.771 633.475ZM136.251 639.525C137.995 642.123 138.873 645.191 138.873 648.746H139.641C139.641 645.059 138.727 641.837 136.888 639.097L136.251 639.525ZM138.873 648.746C138.873 652.282 137.995 655.39 136.247 658.085L136.891 658.502C138.727 655.672 139.641 652.415 139.641 648.746H138.873ZM136.248 658.084C134.5 660.761 132.01 662.863 128.763 664.386L129.089 665.08C132.449 663.504 135.055 661.313 136.89 658.503L136.248 658.084ZM128.762 664.386C125.539 665.906 121.688 666.673 117.195 666.673V667.44C121.773 667.44 125.742 666.658 129.089 665.08L128.762 664.386ZM117.195 666.673H95.7487V667.44H117.195V666.673ZM107.872 657.697H117.195V656.93H107.872V657.697ZM117.195 657.697C119.405 657.697 121.299 657.297 122.861 656.477L122.504 655.798C121.079 656.546 119.315 656.93 117.195 656.93V657.697ZM122.864 656.475C124.412 655.644 125.596 654.542 126.401 653.168L125.739 652.78C125.014 654.019 123.94 655.026 122.501 655.8L122.864 656.475ZM126.4 653.169C127.22 651.784 127.63 650.269 127.63 648.634H126.862C126.862 650.135 126.488 651.514 125.74 652.779L126.4 653.169ZM127.63 648.634C127.63 646.245 126.713 644.22 124.899 642.582L124.385 643.151C126.043 644.649 126.862 646.469 126.862 648.634H127.63ZM124.903 642.585C123.091 640.911 120.501 640.103 117.195 640.103V640.87C120.384 640.87 122.759 641.649 124.382 643.148L124.903 642.585ZM117.195 640.103H107.872V640.87H117.195V640.103ZM107.488 640.487V657.313H108.255V640.487H107.488ZM156.987 667.057V667.44H157.265L157.351 667.175L156.987 667.057ZM143.996 667.057L143.633 666.931L143.457 667.44H143.996V667.057ZM163.79 609.718V609.334H163.517L163.427 609.592L163.79 609.718ZM179.413 609.718L179.775 609.593L179.686 609.334H179.413V609.718ZM199.179 667.057V667.44H199.717L199.542 666.932L199.179 667.057ZM186.188 667.057L185.823 667.175L185.909 667.44H186.188V667.057ZM171.825 622.82L172.19 622.702L172.104 622.437H171.825V622.82ZM171.377 622.82V622.437H171.099L171.013 622.702L171.377 622.82ZM156.175 644.519V644.135H155.791V644.519H156.175ZM186.86 644.519H187.244V644.135H186.86V644.519ZM186.86 653.982V654.365H187.244V653.982H186.86ZM156.175 653.982H155.791V654.365H156.175V653.982ZM156.987 666.673H143.996V667.44H156.987V666.673ZM144.358 667.182L164.152 609.843L163.427 609.592L143.633 666.931L144.358 667.182ZM163.79 610.101H179.413V609.334H163.79V610.101ZM179.05 609.843L198.816 667.182L199.542 666.932L179.775 609.593L179.05 609.843ZM199.179 666.673H186.188V667.44H199.179V666.673ZM186.553 666.938L172.19 622.702L171.46 622.939L185.823 667.175L186.553 666.938ZM171.825 622.437H171.377V623.204H171.825V622.437ZM171.013 622.702L156.622 666.938L157.351 667.175L171.742 622.939L171.013 622.702ZM156.175 644.902H186.86V644.135H156.175V644.902ZM186.476 644.519V653.982H187.244V644.519H186.476ZM186.86 653.598H156.175V654.365H186.86V653.598ZM156.558 653.982V644.519H155.791V653.982H156.558ZM206.08 609.718V609.334H205.697V609.718H206.08ZM218.175 609.718H218.559V609.334H218.175V609.718ZM218.175 645.778H217.792V646.162H218.175V645.778ZM218.651 645.778V646.162H218.853L218.967 645.996L218.651 645.778ZM243.429 609.718V609.334H243.227L243.113 609.5L243.429 609.718ZM254.04 609.718H254.424V609.334H254.04V609.718ZM254.04 667.057V667.44H254.424V667.057H254.04ZM241.917 667.057H241.534V667.44H241.917V667.057ZM241.917 630.968H242.301V630.584H241.917V630.968ZM241.497 630.968V630.584H241.296L241.182 630.75L241.497 630.968ZM216.579 667.057V667.44H216.781L216.895 667.275L216.579 667.057ZM206.08 667.057H205.697V667.44H206.08V667.057ZM235.646 594.711V594.327H235.262V594.711H235.646ZM243.961 594.711L244.345 594.713L244.347 594.327H243.961V594.711ZM240.181 602.914L239.937 602.619L239.936 602.62L240.181 602.914ZM219.995 602.914L220.241 602.62L220.241 602.62L219.995 602.914ZM216.271 594.711V594.327H215.888V594.711H216.271ZM224.531 594.711L224.914 594.716L224.92 594.327H224.531V594.711ZM225.763 598.182L225.466 598.425L225.468 598.429L225.763 598.182ZM234.358 598.21L234.65 598.459L234.65 598.459L234.358 598.21ZM206.08 610.101H218.175V609.334H206.08V610.101ZM217.792 609.718V645.778H218.559V609.718H217.792ZM218.175 646.162H218.651V645.395H218.175V646.162ZM218.967 645.996L243.745 609.935L243.113 609.5L218.335 645.561L218.967 645.996ZM243.429 610.101H254.04V609.334H243.429V610.101ZM253.657 609.718V667.057H254.424V609.718H253.657ZM254.04 666.673H241.917V667.44H254.04V666.673ZM242.301 667.057V630.968H241.534V667.057H242.301ZM241.917 630.584H241.497V631.351H241.917V630.584ZM241.182 630.75L216.264 666.839L216.895 667.275L241.813 631.186L241.182 630.75ZM216.579 666.673H206.08V667.44H216.579V666.673ZM206.464 667.057V609.718H205.697V667.057H206.464ZM235.646 595.094H243.961V594.327H235.646V595.094ZM243.578 594.709C243.559 597.998 242.346 600.623 239.937 602.619L240.426 603.209C243.019 601.062 244.325 598.217 244.345 594.713L243.578 594.709ZM239.936 602.62C237.541 604.618 234.278 605.638 230.102 605.638V606.405C234.401 606.405 237.857 605.354 240.427 603.209L239.936 602.62ZM230.102 605.638C225.908 605.638 222.635 604.618 220.241 602.62L219.749 603.209C222.32 605.354 225.786 606.405 230.102 606.405V605.638ZM220.241 602.62C217.851 600.625 216.655 598.001 216.655 594.711H215.888C215.888 598.215 217.175 601.06 219.749 603.209L220.241 602.62ZM216.271 595.094H224.531V594.327H216.271V595.094ZM224.147 594.705C224.127 596.086 224.57 597.331 225.466 598.425L226.06 597.94C225.275 596.981 224.897 595.911 224.914 594.716L224.147 594.705ZM225.468 598.429C226.431 599.58 228.014 600.106 230.102 600.106V599.339C228.122 599.339 226.811 598.839 226.057 597.936L225.468 598.429ZM230.102 600.106C232.137 600.106 233.688 599.588 234.65 598.459L234.066 597.962C233.31 598.849 232.025 599.339 230.102 599.339V600.106ZM234.65 598.459C235.568 597.382 236.029 596.127 236.029 594.711H235.262C235.262 595.945 234.865 597.023 234.066 597.962L234.65 598.459ZM298.745 667.057L298.439 667.288L298.554 667.44H298.745V667.057ZM280.323 642.615L280.629 642.384L280.514 642.231H280.323V642.615ZM276.179 642.615V642.231H275.796V642.615H276.179ZM276.179 667.057V667.44H276.563V667.057H276.179ZM264.056 667.057H263.673V667.44H264.056V667.057ZM264.056 609.718V609.334H263.673V609.718H264.056ZM276.179 609.718H276.563V609.334H276.179V609.718ZM276.179 632.62H275.796V633.003H276.179V632.62ZM278.615 632.62V633.003H278.795L278.91 632.865L278.615 632.62ZM297.654 609.718V609.334H297.474L297.359 609.472L297.654 609.718ZM312.744 609.718L313.038 609.964L313.568 609.334H312.744V609.718ZM290.374 636.315L290.081 636.068L289.883 636.303L290.069 636.548L290.374 636.315ZM313.78 667.057V667.44H314.554L314.085 666.824L313.78 667.057ZM299.052 666.826L280.629 642.384L280.017 642.846L298.439 667.288L299.052 666.826ZM280.323 642.231H276.179V642.998H280.323V642.231ZM275.796 642.615V667.057H276.563V642.615H275.796ZM276.179 666.673H264.056V667.44H276.179V666.673ZM264.44 667.057V609.718H263.673V667.057H264.44ZM264.056 610.101H276.179V609.334H264.056V610.101ZM275.796 609.718V632.62H276.563V609.718H275.796ZM276.179 633.003H278.615V632.236H276.179V633.003ZM278.91 632.865L297.948 609.963L297.359 609.472L278.32 632.374L278.91 632.865ZM297.654 610.101H312.744V609.334H297.654V610.101ZM312.451 609.471L290.081 636.068L290.668 636.562L313.038 609.964L312.451 609.471ZM290.069 636.548L313.475 667.289L314.085 666.824L290.679 636.083L290.069 636.548ZM313.78 666.673H298.745V667.44H313.78V666.673ZM365.779 654.346L365.441 654.163L365.441 654.164L365.779 654.346ZM356.148 664.397L356.337 664.731L356.337 664.73L356.148 664.397ZM328.766 664.369L328.956 664.036L328.766 664.369ZM319.163 654.318L318.825 654.499L318.825 654.499L319.163 654.318ZM319.163 622.428L319.501 622.61L319.501 622.61L319.163 622.428ZM328.766 612.405L328.955 612.739L328.956 612.738L328.766 612.405ZM356.148 612.405L355.957 612.738L355.959 612.739L356.148 612.405ZM365.779 622.428L365.441 622.61L365.441 622.611L365.779 622.428ZM355.224 628.14L354.871 628.291L354.872 628.293L355.224 628.14ZM350.156 621.812L349.945 622.133L349.945 622.133L350.156 621.812ZM334.813 621.812L335.024 622.133L335.024 622.133L334.813 621.812ZM329.718 628.14L329.366 627.987L329.365 627.989L329.718 628.14ZM329.718 648.634L329.365 648.786L329.366 648.788L329.718 648.634ZM334.813 654.962L335.024 654.641L335.024 654.641L334.813 654.962ZM350.156 654.962L349.945 654.641L349.945 654.641L350.156 654.962ZM355.224 648.634L354.872 648.481L354.871 648.483L355.224 648.634ZM368.951 638.387C368.951 644.592 367.775 649.846 365.441 654.163L366.116 654.528C368.524 650.073 369.718 644.688 369.718 638.387H368.951ZM365.441 654.164C363.121 658.491 359.96 661.787 355.958 664.063L356.337 664.73C360.473 662.378 363.733 658.973 366.117 654.527L365.441 654.164ZM355.958 664.063C351.971 666.324 347.483 667.457 342.485 667.457V668.224C347.603 668.224 352.224 667.062 356.337 664.731L355.958 664.063ZM342.485 667.457C337.45 667.457 332.943 666.314 328.956 664.036L328.576 664.702C332.689 667.052 337.329 668.224 342.485 668.224V667.457ZM328.956 664.036C324.973 661.76 321.821 658.464 319.501 654.136L318.825 654.499C321.208 658.944 324.459 662.349 328.576 664.702L328.956 664.036ZM319.501 654.136C317.185 649.818 316.019 644.574 316.019 638.387H315.251C315.251 644.669 316.436 650.045 318.825 654.499L319.501 654.136ZM316.019 638.387C316.019 632.182 317.186 626.928 319.501 622.61L318.825 622.247C316.436 626.702 315.251 632.087 315.251 638.387H316.019ZM319.501 622.61C321.821 618.283 324.972 614.997 328.955 612.739L328.577 612.072C324.459 614.406 321.208 617.802 318.825 622.247L319.501 622.61ZM328.956 612.738C332.943 610.46 337.45 609.317 342.485 609.317V608.55C337.329 608.55 332.689 609.722 328.576 612.072L328.956 612.738ZM342.485 609.317C347.482 609.317 351.97 610.46 355.957 612.738L356.338 612.072C352.225 609.722 347.604 608.55 342.485 608.55V609.317ZM355.959 612.739C359.961 614.997 363.121 618.283 365.441 622.61L366.117 622.247C363.733 617.801 360.473 614.405 356.336 612.071L355.959 612.739ZM365.441 622.611C367.775 626.929 368.951 632.182 368.951 638.387H369.718C369.718 632.086 368.524 626.701 366.116 622.246L365.441 622.611ZM357.427 638.387C357.427 634.301 356.815 630.829 355.575 627.987L354.872 628.293C356.058 631.013 356.66 634.373 356.66 638.387H357.427ZM355.576 627.989C354.357 625.15 352.623 622.977 350.367 621.492L349.945 622.133C352.057 623.523 353.701 625.568 354.871 628.291L355.576 627.989ZM350.367 621.492C348.113 620.009 345.481 619.273 342.485 619.273V620.04C345.35 620.04 347.831 620.742 349.945 622.133L350.367 621.492ZM342.485 619.273C339.489 619.273 336.856 620.009 334.603 621.492L335.024 622.133C337.138 620.742 339.62 620.04 342.485 620.04V619.273ZM334.603 621.492C332.347 622.976 330.604 625.149 329.366 627.987L330.069 628.293C331.258 625.569 332.912 623.523 335.024 622.133L334.603 621.492ZM329.365 627.989C328.145 630.831 327.542 634.301 327.542 638.387H328.31C328.31 634.372 328.902 631.011 330.07 628.291L329.365 627.989ZM327.542 638.387C327.542 642.473 328.145 645.943 329.365 648.786L330.07 648.483C328.902 645.763 328.31 642.402 328.31 638.387H327.542ZM329.366 648.788C330.604 651.626 332.347 653.798 334.603 655.282L335.024 654.641C332.912 653.251 331.258 651.205 330.069 648.481L329.366 648.788ZM334.603 655.282C336.856 656.765 339.489 657.501 342.485 657.501V656.734C339.62 656.734 337.138 656.032 335.024 654.641L334.603 655.282ZM342.485 657.501C345.481 657.501 348.113 656.765 350.367 655.282L349.945 654.641C347.831 656.032 345.35 656.734 342.485 656.734V657.501ZM350.367 655.282C352.623 653.797 354.357 651.625 355.576 648.786L354.871 648.483C353.701 651.206 352.057 653.252 349.945 654.641L350.367 655.282ZM355.575 648.788C356.815 645.945 357.427 642.473 357.427 638.387H356.66C356.66 642.401 356.058 645.761 354.872 648.481L355.575 648.788ZM378.315 667.057H377.931V667.44H378.315V667.057ZM378.315 609.718V609.334H377.931V609.718H378.315ZM390.438 609.718H390.821V609.334H390.438V609.718ZM390.438 633.376H390.054V633.759H390.438V633.376ZM415.048 633.376V633.759H415.431V633.376H415.048ZM415.048 609.718V609.334H414.664V609.718H415.048ZM427.143 609.718H427.526V609.334H427.143V609.718ZM427.143 667.057V667.44H427.526V667.057H427.143ZM415.048 667.057H414.664V667.44H415.048V667.057ZM415.048 643.371H415.431V642.987H415.048V643.371ZM390.438 643.371V642.987H390.054V643.371H390.438ZM390.438 667.057V667.44H390.821V667.057H390.438ZM378.698 667.057V609.718H377.931V667.057H378.698ZM378.315 610.101H390.438V609.334H378.315V610.101ZM390.054 609.718V633.376H390.821V609.718H390.054ZM390.438 633.759H415.048V632.992H390.438V633.759ZM415.431 633.376V609.718H414.664V633.376H415.431ZM415.048 610.101H427.143V609.334H415.048V610.101ZM426.759 609.718V667.057H427.526V609.718H426.759ZM427.143 666.673H415.048V667.44H427.143V666.673ZM415.431 667.057V643.371H414.664V667.057H415.431ZM415.048 642.987H390.438V643.754H415.048V642.987ZM390.054 643.371V667.057H390.821V643.371H390.054ZM390.438 666.673H378.315V667.44H390.438V666.673ZM443.325 667.841H442.942V668.224H443.325V667.841ZM443.325 657.985V657.602H442.942V657.985H443.325ZM450.185 657.425L450.325 657.783L450.331 657.78L450.185 657.425ZM452.452 655.718L452.146 655.486L452.146 655.487L452.452 655.718ZM453.908 652.862L453.549 652.728L453.546 652.737L453.908 652.862ZM454.608 650.986L454.968 651.12L455.026 650.963L454.951 650.813L454.608 650.986ZM433.778 609.718V609.334H433.155L433.436 609.89L433.778 609.718ZM446.321 609.718L446.667 609.552L446.563 609.334H446.321V609.718ZM459.816 637.939L459.47 638.105L459.847 638.894L460.172 638.082L459.816 637.939ZM471.099 609.718V609.334H470.839L470.743 609.575L471.099 609.718ZM483.474 609.718L483.826 609.869L484.056 609.334H483.474V609.718ZM463.707 655.802L464.058 655.958L464.06 655.953L463.707 655.802ZM460.32 661.737L460.008 661.514L460.006 661.516L460.32 661.737ZM455.364 666.161L455.55 666.496L455.55 666.496L455.364 666.161ZM443.709 667.841V657.985H442.942V667.841H443.709ZM443.325 658.369H446.433V657.602H443.325V658.369ZM446.433 658.369C448.008 658.369 449.311 658.18 450.325 657.783L450.045 657.068C449.154 657.418 447.956 657.602 446.433 657.602V658.369ZM450.331 657.78C451.34 657.365 452.154 656.755 452.759 655.948L452.146 655.487C451.631 656.173 450.933 656.702 450.039 657.071L450.331 657.78ZM452.758 655.949C453.367 655.144 453.869 654.154 454.271 652.987L453.546 652.737C453.164 653.847 452.695 654.76 452.146 655.486L452.758 655.949ZM454.268 652.996L454.968 651.12L454.249 650.852L453.549 652.728L454.268 652.996ZM454.951 650.813L434.12 609.545L433.436 609.89L454.266 651.159L454.951 650.813ZM433.778 610.101H446.321V609.334H433.778V610.101ZM445.975 609.883L459.47 638.105L460.162 637.774L446.667 609.552L445.975 609.883ZM460.172 638.082L471.455 609.86L470.743 609.575L459.46 637.797L460.172 638.082ZM471.099 610.101H483.474V609.334H471.099V610.101ZM483.121 609.566L463.355 655.65L464.06 655.953L483.826 609.869L483.121 609.566ZM463.357 655.645C462.415 657.75 461.299 659.707 460.008 661.514L460.632 661.96C461.954 660.109 463.096 658.109 464.058 655.958L463.357 655.645ZM460.006 661.516C458.752 663.297 457.145 664.733 455.178 665.825L455.55 666.496C457.615 665.349 459.311 663.836 460.633 661.958L460.006 661.516ZM455.178 665.825C453.236 666.904 450.73 667.457 447.637 667.457V668.224C450.815 668.224 453.461 667.657 455.55 666.496L455.178 665.825ZM447.637 667.457H443.325V668.224H447.637V667.457ZM490.032 667.057H489.649V667.44H490.032V667.057ZM490.032 609.718V609.334H489.649V609.718H490.032ZM523.769 612.209L523.586 612.546L523.588 612.547L523.769 612.209ZM530.769 619.069L530.432 619.253L530.434 619.256L530.769 619.069ZM523.601 646.03L523.424 645.69L523.423 645.691L523.601 646.03ZM497.927 648.466H497.544V648.85H497.927V648.466ZM497.927 638.751V638.367H497.544V638.751H497.927ZM516.154 637.547L516.334 637.886L516.335 637.885L516.154 637.547ZM519.57 634.159L519.23 633.981L519.229 633.983L519.57 634.159ZM519.57 624.164L519.229 624.341L519.232 624.346L519.57 624.164ZM516.154 620.833L515.976 621.172L515.979 621.174L516.154 620.833ZM502.155 619.629V619.245H501.772V619.629H502.155ZM502.155 667.057V667.44H502.539V667.057H502.155ZM490.416 667.057V609.718H489.649V667.057H490.416ZM490.032 610.101H512.654V609.334H490.032V610.101ZM512.654 610.101C516.955 610.101 520.594 610.922 523.586 612.546L523.952 611.872C520.823 610.174 517.051 609.334 512.654 609.334V610.101ZM523.588 612.547C526.586 614.156 528.864 616.39 530.432 619.253L531.105 618.884C529.463 615.886 527.074 613.548 523.951 611.871L523.588 612.547ZM530.434 619.256C532.021 622.102 532.821 625.396 532.821 629.148H533.588C533.588 625.284 532.764 621.858 531.104 618.882L530.434 619.256ZM532.821 629.148C532.821 632.899 532.012 636.192 530.407 639.039L531.075 639.415C532.754 636.439 533.588 633.012 533.588 629.148H532.821ZM530.407 639.039C528.803 641.882 526.479 644.099 523.424 645.69L523.779 646.371C526.958 644.714 529.394 642.395 531.075 639.415L530.407 639.039ZM523.423 645.691C520.392 647.279 516.705 648.083 512.346 648.083V648.85C516.798 648.85 520.614 648.029 523.779 646.37L523.423 645.691ZM512.346 648.083H497.927V648.85H512.346V648.083ZM498.311 648.466V638.751H497.544V648.466H498.311ZM497.927 639.135H510.386V638.367H497.927V639.135ZM510.386 639.135C512.761 639.135 514.75 638.727 516.334 637.886L515.974 637.208C514.534 637.973 512.679 638.367 510.386 638.367V639.135ZM516.335 637.885C517.929 637.03 519.125 635.847 519.91 634.336L519.229 633.983C518.521 635.346 517.44 636.422 515.973 637.209L516.335 637.885ZM519.909 634.338C520.707 632.819 521.101 631.086 521.101 629.148H520.334C520.334 630.98 519.962 632.588 519.23 633.981L519.909 634.338ZM521.101 629.148C521.101 627.192 520.708 625.466 519.907 623.982L519.232 624.346C519.962 625.7 520.334 627.296 520.334 629.148H521.101ZM519.91 623.987C519.124 622.475 517.926 621.309 516.329 620.491L515.979 621.174C517.443 621.924 518.522 622.979 519.229 624.341L519.91 623.987ZM516.332 620.493C514.73 619.653 512.723 619.245 510.33 619.245V620.012C512.642 620.012 514.516 620.407 515.976 621.172L516.332 620.493ZM510.33 619.245H502.155V620.012H510.33V619.245ZM501.772 619.629V667.057H502.539V619.629H501.772ZM502.155 666.673H490.032V667.44H502.155V666.673Z" fill="#FFD373"/>
</g>
<defs>
<clipPath id="clip0_806_119733">
<rect width="616" height="718.794" fill="white"/>
</clipPath>
</defs>
</svg>
