<svg id="id-svg" width="612" height="697" viewBox="0 0 612 697" fill="none" xmlns="http://www.w3.org/2000/svg">
<g clip-path="url(#clip0_806_111356)">
<path fill-rule="evenodd" clip-rule="evenodd" d="M522.283 417.46L525.542 406.929L542.195 399.219L542.35 425.95C536.563 425.878 533.068 425.808 526.32 423.238C524.031 422.367 523.08 419.693 522.283 417.46Z" fill="#D20000" stroke="black" stroke-width="1.54469"/>
<path d="M575.488 427.435L575.451 427.192L575.368 404.291C584.768 407.447 600.089 409.739 604.417 416.193C608.761 424.118 594.033 437.355 584.404 436.426L575.488 427.435Z" fill="#005BB9" stroke="black" stroke-width="1.54469"/>
<path d="M576.805 418.451C584.63 420.168 593.61 422.373 592.898 426.938L596.535 433.221H577.026L576.805 418.451Z" fill="white"/>
<path fill-rule="evenodd" clip-rule="evenodd" d="M89.4556 417.46L86.1966 406.929L69.5434 399.219L69.3887 425.95C75.1758 425.878 78.67 425.808 85.4185 423.238C87.7071 422.367 88.6583 419.693 89.4556 417.46Z" fill="#D20000" stroke="black" stroke-width="1.54469"/>
<path d="M36.2498 427.435L36.2874 427.192L36.3702 404.291C26.9705 407.447 11.649 409.739 7.32144 416.193C2.97723 424.118 17.7052 437.355 27.3347 436.426L36.2498 427.435Z" fill="#005BB9" stroke="black" stroke-width="1.54469"/>
<path d="M34.9328 418.451C27.108 420.168 18.1285 422.373 18.8404 426.938L15.2031 433.221H34.7124L34.9328 418.451Z" fill="white"/>
<path fill-rule="evenodd" clip-rule="evenodd" d="M29.009 84.6055H77.8867V608.068H29.009V84.6055Z" fill="white" stroke="black" stroke-width="3.08938"/>
<path fill-rule="evenodd" clip-rule="evenodd" d="M20.5217 77.4902H86.373V94.8953H20.5217V77.4902Z" fill="white" stroke="black" stroke-width="3.08938"/>
<path fill-rule="evenodd" clip-rule="evenodd" d="M29.0065 597.537H77.8827C86.7681 597.537 93.9746 604.744 93.9746 613.629V619.463L12.9145 619.261V613.629C12.9145 604.744 20.121 597.537 29.0065 597.537Z" fill="white" stroke="black" stroke-width="3.08938"/>
<path fill-rule="evenodd" clip-rule="evenodd" d="M66.3845 115.243C66.5018 123.837 73.552 131.073 82.156 131.951C92.8642 133.042 102.259 124.557 103.239 114.03C104.352 102.07 94.851 91.612 83.0736 90.6006H23.8191C12.0417 91.612 2.53879 102.07 3.65182 114.03C4.63197 124.557 14.027 133.042 24.7368 131.951C33.3393 131.073 40.391 123.837 40.5098 115.243H66.3845Z" fill="white" stroke="black" stroke-width="3.08938" stroke-linecap="round"/>
<path d="M53.4451 143.669V580.598M41.5051 143.669V580.598M65.3867 143.669V580.598" stroke="black" stroke-width="3.08938" stroke-linecap="round"/>
<path d="M23.7191 114.385C23.1376 114.447 22.3528 114.103 22.0308 113.622C20.8131 111.801 22.4575 109.582 24.2271 108.977C27.388 107.893 30.5082 110.397 31.2211 113.419C32.2638 117.854 28.8043 121.984 24.532 122.761C18.8387 123.797 13.669 119.35 12.8421 113.827C11.7994 106.876 17.2504 100.658 24.0224 99.7872C32.2246 98.732 39.5 105.19 40.4082 113.214C41.4822 122.671 34.0099 131.003 24.7368 131.951C14.027 133.042 4.63197 124.557 3.65182 114.03C2.53879 102.07 12.0417 91.6115 23.8191 90.6C37.03 89.462 48.5542 99.981 49.5985 113.011V115.127M83.1737 114.385C83.7536 114.447 84.5399 114.103 84.862 113.622C86.0781 111.801 84.4336 109.582 82.6656 108.977C79.5047 107.893 76.383 110.397 75.6717 113.419C74.6275 117.854 78.0885 121.984 82.3592 122.761C88.0541 123.797 93.2221 119.35 94.0507 113.827C95.0933 106.876 89.6423 100.658 82.8704 99.7872C74.6665 98.732 67.3928 105.19 66.483 113.214C65.4106 122.671 72.8829 131.003 82.156 131.951C92.8642 133.042 102.259 124.557 103.239 114.03C104.352 102.07 94.851 91.6115 83.0736 90.6C69.8611 89.462 58.3385 99.981 57.2943 113.011V115.127" stroke="black" stroke-width="3.08938" stroke-linecap="round"/>
<path fill-rule="evenodd" clip-rule="evenodd" d="M397.421 145.572L475.154 106.815C472.687 101.88 470.016 97.0664 467.144 92.3892L380.356 145.572H397.421ZM305.873 2.08105C308.638 2.08105 311.386 2.1514 314.122 2.27021L307.864 145.572H303.88L297.622 2.27021C300.359 2.1514 303.107 2.08105 305.873 2.08105ZM326.345 3.18783C331.857 3.78342 337.298 4.61037 342.659 5.67025L314.921 145.572H310.842L326.345 3.18783ZM354.605 8.43561C359.951 9.85815 365.205 11.4996 370.353 13.3692L322.421 145.572H318.043L354.605 8.43561ZM381.733 17.9307C386.789 20.1474 391.732 22.572 396.545 25.2076L330.803 145.572H325.854L381.733 17.9307ZM407.099 31.4418C411.751 34.3978 416.262 37.5509 420.627 40.8884L340.716 145.572H334.791L407.099 31.4418ZM430.123 48.6389C434.269 52.2563 438.257 56.0518 442.073 60.013L353.256 145.572H345.649L430.123 48.6389ZM450.288 69.1142C453.839 73.3115 457.216 77.6573 460.395 82.1547L370.544 145.572H359.858L450.288 69.1142ZM136.59 106.816C139.057 101.881 141.728 97.0664 144.601 92.3892L231.388 145.572H214.323L136.59 106.816ZM151.348 82.1547C154.528 77.6573 157.906 73.3115 161.456 69.1158L251.886 145.572H241.2L151.348 82.1547ZM169.671 60.0146C173.487 56.0534 177.475 52.2563 181.622 48.6389L266.095 145.572H258.488L169.671 60.0146ZM191.117 40.89C195.482 37.5524 199.993 34.3978 204.645 31.4433L276.953 145.572H271.028L191.117 40.89ZM215.2 25.2076C220.012 22.572 224.955 20.1489 230.01 17.9323L285.89 145.572H280.942L215.2 25.2076ZM241.391 13.3692C246.539 11.5011 251.794 9.85815 257.139 8.43561L293.701 145.572H289.323L241.391 13.3692ZM269.085 5.67025C274.445 4.61193 279.887 3.78342 285.399 3.18783L300.902 145.572H296.823L269.085 5.67025Z" fill="#FFF500" stroke="#CC9933" stroke-width="2.31703"/>
<path fill-rule="evenodd" clip-rule="evenodd" d="M305.873 86.0293C363.931 86.0293 411.058 133.155 411.058 191.215C411.058 249.275 363.931 296.402 305.873 296.402C247.812 296.402 200.686 249.275 200.686 191.215C200.686 133.155 247.812 86.0293 305.873 86.0293Z" fill="#FFF500" stroke="#CC9933" stroke-width="2.31703"/>
<path fill-rule="evenodd" clip-rule="evenodd" d="M305.874 624.379C190.616 601.44 103.416 494.978 103.416 367.125V127.683H508.327V367.125C508.327 494.978 421.13 601.44 305.874 624.379Z" fill="#D20000" stroke="black" stroke-width="3.12668"/>
<path fill-rule="evenodd" clip-rule="evenodd" d="M582.731 84.6055H533.854V608.068H582.731V84.6055Z" fill="white" stroke="black" stroke-width="3.08938"/>
<path fill-rule="evenodd" clip-rule="evenodd" d="M591.218 77.4902H525.367V94.8953H591.218V77.4902Z" fill="white" stroke="black" stroke-width="3.08938"/>
<path fill-rule="evenodd" clip-rule="evenodd" d="M582.734 597.537H533.858C524.972 597.537 517.766 604.744 517.766 613.629V619.463L598.826 619.261V613.629C598.826 604.744 591.619 597.537 582.734 597.537Z" fill="white" stroke="black" stroke-width="3.08938"/>
<path fill-rule="evenodd" clip-rule="evenodd" d="M545.356 115.243C545.238 123.837 538.188 131.073 529.584 131.951C518.876 133.042 509.481 124.557 508.501 114.03C507.388 102.07 516.889 91.612 528.667 90.6006H587.921C599.699 91.612 609.201 102.07 608.088 114.03C607.108 124.557 597.713 133.042 587.003 131.951C578.401 131.073 571.349 123.837 571.23 115.243H545.356Z" fill="white" stroke="black" stroke-width="3.08938" stroke-linecap="round"/>
<path d="M558.295 143.669V580.598M570.235 143.669V580.598M546.354 143.669V580.598" stroke="black" stroke-width="3.08938" stroke-linecap="round"/>
<path d="M588.021 114.385C588.603 114.447 589.387 114.103 589.709 113.622C590.927 111.801 589.283 109.582 587.513 108.977C584.352 107.893 581.232 110.397 580.519 113.419C579.476 117.854 582.936 121.984 587.208 122.761C592.902 123.797 598.071 119.35 598.898 113.827C599.941 106.876 594.49 100.658 587.718 99.7872C579.516 98.732 572.24 105.19 571.332 113.214C570.258 122.671 577.73 131.003 587.003 131.951C597.713 133.042 607.108 124.557 608.088 114.03C609.201 102.07 599.699 91.6115 587.921 90.6C574.71 89.462 563.186 99.981 562.142 113.011V115.127M528.567 114.385C527.987 114.447 527.2 114.103 526.878 113.622C525.662 111.801 527.307 109.582 529.075 108.977C532.236 107.893 535.357 110.397 536.069 113.419C537.113 117.854 533.652 121.984 529.381 122.761C523.686 123.797 518.518 119.35 517.69 113.827C516.647 106.876 522.098 100.658 528.87 99.7872C537.074 98.732 544.347 105.19 545.257 113.214C546.33 122.671 538.857 131.003 529.584 131.951C518.876 133.042 509.481 124.557 508.501 114.03C507.388 102.07 516.889 91.6115 528.667 90.6C541.879 89.462 553.402 99.981 554.446 113.011V115.127" stroke="black" stroke-width="3.08938" stroke-linecap="round"/>
<path fill-rule="evenodd" clip-rule="evenodd" d="M187.375 286.174C198.99 281.536 221.106 281.596 235.326 289.209L232.126 298.085C217.777 290.161 202.914 287.192 187.375 286.174Z" fill="white" stroke="black" stroke-width="2.31703"/>
<path fill-rule="evenodd" clip-rule="evenodd" d="M236.119 287.802L222.21 265.109C209.851 258.876 186.727 258.751 182.314 277.919C195.552 275.112 210.681 277.185 222.943 289.999C215.255 294.28 205.374 294.276 197.687 293.658C205.496 303.724 215.744 306.528 228.433 303.907L235.754 296.586L236.119 287.802Z" fill="white" stroke="black" stroke-width="3.08938"/>
<path fill-rule="evenodd" clip-rule="evenodd" d="M321.926 475.403C317.757 478.286 315.012 483.18 315.012 488.733C315.012 490.057 315.169 491.342 315.463 492.572C310.924 489.763 307.885 484.651 307.885 478.81C307.885 477.242 308.105 475.727 308.513 474.295H320.348L321.926 475.403Z" fill="white" stroke="black" stroke-width="3.08938"/>
<path fill-rule="evenodd" clip-rule="evenodd" d="M351.709 475.403C347.538 478.286 344.795 483.18 344.795 488.733C344.795 490.057 344.953 491.342 345.247 492.572C340.707 489.763 337.668 484.651 337.668 478.81C337.668 477.242 337.888 475.727 338.296 474.295H350.13L351.709 475.403Z" fill="white" stroke="black" stroke-width="3.08938"/>
<path fill-rule="evenodd" clip-rule="evenodd" d="M336.818 475.403C332.648 478.286 329.904 483.18 329.904 488.733C329.904 490.057 330.062 491.342 330.356 492.572C325.816 489.763 322.777 484.651 322.777 478.81C322.777 477.242 322.998 475.727 323.406 474.295H335.241L336.818 475.403Z" fill="white" stroke="black" stroke-width="3.08938"/>
<path fill-rule="evenodd" clip-rule="evenodd" d="M383.469 475.403C379.298 478.286 376.555 483.18 376.555 488.733C376.555 490.057 376.711 491.342 377.006 492.572C372.467 489.763 369.428 484.651 369.428 478.81C369.428 477.242 369.648 475.727 370.056 474.295H381.89L383.469 475.403Z" fill="white" stroke="black" stroke-width="3.08938"/>
<path fill-rule="evenodd" clip-rule="evenodd" d="M413.25 475.403C409.081 478.286 406.336 483.18 406.336 488.733C406.336 490.057 406.494 491.342 406.788 492.572C402.248 489.763 399.211 484.651 399.211 478.81C399.211 477.242 399.431 475.727 399.838 474.295H411.673L413.25 475.403Z" fill="white" stroke="black" stroke-width="3.08938"/>
<path fill-rule="evenodd" clip-rule="evenodd" d="M398.361 475.403C394.191 478.286 391.446 483.18 391.446 488.733C391.446 490.057 391.603 491.342 391.897 492.572C387.358 489.763 384.32 484.651 384.32 478.81C384.32 477.242 384.541 475.727 384.947 474.295H396.782L398.361 475.403Z" fill="white" stroke="black" stroke-width="3.08938"/>
<path fill-rule="evenodd" clip-rule="evenodd" d="M191.766 475.403C187.597 478.286 184.852 483.18 184.852 488.733C184.852 490.057 185.01 491.342 185.304 492.572C180.764 489.763 177.727 484.651 177.727 478.81C177.727 477.242 177.947 475.727 178.353 474.295H190.189L191.766 475.403Z" fill="white" stroke="black" stroke-width="3.08938"/>
<path fill-rule="evenodd" clip-rule="evenodd" d="M221.549 475.403C217.38 478.286 214.635 483.18 214.635 488.733C214.635 490.057 214.792 491.342 215.086 492.572C210.547 489.763 207.508 484.651 207.508 478.81C207.508 477.242 207.728 475.727 208.136 474.295H219.971L221.549 475.403Z" fill="white" stroke="black" stroke-width="3.08938"/>
<path fill-rule="evenodd" clip-rule="evenodd" d="M206.659 475.403C202.489 478.286 199.744 483.18 199.744 488.733C199.744 490.057 199.902 491.342 200.196 492.572C195.656 489.763 192.619 484.651 192.619 478.81C192.619 477.242 192.84 475.727 193.246 474.295H205.081L206.659 475.403Z" fill="white" stroke="black" stroke-width="3.08938"/>
<path fill-rule="evenodd" clip-rule="evenodd" d="M144.039 348.295C139.87 345.412 137.125 340.518 137.125 334.965C137.125 333.641 137.283 332.356 137.577 331.126C133.037 333.935 129.998 339.047 129.998 344.889C129.998 346.457 131.136 348.43 131.544 349.862L142.462 349.403L144.039 348.295Z" fill="white" stroke="black" stroke-width="3.08938"/>
<path fill-rule="evenodd" clip-rule="evenodd" d="M173.822 348.295C169.652 345.412 166.908 340.518 166.908 334.965C166.908 333.641 167.066 332.356 167.36 331.126C162.82 333.935 159.781 339.047 159.781 344.889C159.781 346.457 160.002 347.971 160.41 349.403H172.243L173.822 348.295Z" fill="white" stroke="black" stroke-width="3.08938"/>
<path fill-rule="evenodd" clip-rule="evenodd" d="M158.932 348.295C154.761 345.412 152.017 340.518 152.017 334.965C152.017 333.641 152.175 332.356 152.469 331.126C147.93 333.935 144.891 339.047 144.891 344.889C144.891 346.457 145.111 347.971 145.519 349.403H157.354L158.932 348.295Z" fill="white" stroke="black" stroke-width="3.08938"/>
<path fill-rule="evenodd" clip-rule="evenodd" d="M338.704 441.774C314.861 418.552 310.866 397.48 323.311 378.189L382.676 380.944C380.696 405.806 358.287 419.181 380.671 444.327C371.976 452.75 360.383 461.349 356.928 476.769H307.885C309.869 466.597 319.492 459.235 330.101 460.383C337.455 455.962 340.807 450.241 338.704 441.774Z" fill="white" stroke="black" stroke-width="3.08938"/>
<path fill-rule="evenodd" clip-rule="evenodd" d="M324.186 288.617C342.569 290.764 361.186 287.032 380.107 275.6C404.483 260.048 416.237 296.18 386.965 310.882C364.75 322.038 340.675 318.714 314.836 309.56L324.186 288.617Z" fill="white" stroke="black" stroke-width="3.08938"/>
<path fill-rule="evenodd" clip-rule="evenodd" d="M297.275 263.966C292.69 245.019 282.217 227.986 264.021 213.461C239.765 195.049 271.18 170.257 296.381 193.819C315.503 211.699 320.999 236.698 321.376 265.566L297.275 263.966Z" fill="white" stroke="black" stroke-width="3.08938"/>
<path fill-rule="evenodd" clip-rule="evenodd" d="M227.911 395.933L208.06 410.749C196.551 385.558 180.614 367.745 158.202 360.718C146.609 365.55 132.804 358.473 130.357 345.773H180.808C198.452 363.344 216.098 375.389 233.74 383.269L227.911 395.933Z" fill="white" stroke="black" stroke-width="3.08938"/>
<path fill-rule="evenodd" clip-rule="evenodd" d="M270.112 336.133C268.722 318.209 268.811 300.088 266.107 282.429C264.667 273.02 261.925 264.26 254.498 257.843C259.541 256.561 262.116 252.811 264.337 248.706C258.245 250.235 252.147 251.443 246.064 250.113C226.552 245.844 216.149 250.38 215.029 262.728C225.023 277.002 237.502 292.423 221.817 307.038C213.544 334.931 208.498 366.78 218.606 388.104C227.482 406.83 259.611 421.653 279.486 415.272C299.699 408.778 320.035 399.863 339.035 388.686L339.782 392.989L355.677 384.759L355.203 381.992C357.625 401.062 373.829 419.904 402.744 426.504C406.599 430.237 408.497 434.32 408.936 438.523C410.249 451.073 397.875 454.337 391.333 460.384C380.723 459.236 371.1 466.598 369.116 476.769H418.159C420.967 464.242 429.457 455.978 438.805 448.358L439.898 406.819C410.209 397.782 418.224 377.449 410.953 356.586C421.647 356.088 432.379 354.726 442.515 351.687C446.304 354.706 449.271 357.874 450.922 362.044C449.459 365.394 448.636 369.166 448.636 373.157C448.636 382.203 452.86 390.132 459.198 394.553C465.533 390.132 469.76 382.203 469.76 373.157C469.76 368.595 468.685 364.318 466.806 360.632C465.308 353.94 462.324 349.062 458.35 344.926C465.758 341.023 472.219 335.902 476.573 329.333C485.96 315.173 483.672 295.789 471.644 283.763C465.032 277.15 455.871 273.058 445.732 273.053C436.343 273.049 426.956 276.621 419.812 283.763C409.768 293.807 406.785 308.29 410.865 320.97C413.673 329.694 418.799 334.843 425.063 339.472C416.448 340.827 407.365 341.087 398.846 340.497C390.238 334.878 378.008 333.829 363.434 335.598C348.231 337.444 335.774 344.079 320.989 347.26C308.347 349.98 271.592 355.201 270.112 336.133ZM444.684 334.168C452 331.307 458.857 327.402 462.949 321.725C468.941 313.414 467.98 302.029 460.678 294.727C452.451 286.5 439.033 286.474 430.778 294.727C424.838 300.668 423.166 309.247 425.765 316.672C428.716 325.106 436.713 328.717 443.639 333.452C443.989 333.691 444.337 333.93 444.684 334.168Z" fill="white" stroke="black" stroke-width="3.08938"/>
<path fill-rule="evenodd" clip-rule="evenodd" d="M208.943 343.475L221.013 307.566H236.406C234.041 327.834 225.792 340.91 208.943 343.475Z" fill="white" stroke="black" stroke-width="3.08938"/>
<path fill-rule="evenodd" clip-rule="evenodd" d="M235.318 263.776C238.371 263.776 240.847 265.191 240.847 266.934C240.847 268.679 238.371 270.093 235.318 270.093C232.263 270.093 229.787 268.679 229.787 266.934C229.787 265.191 232.263 263.776 235.318 263.776Z" fill="white" stroke="black" stroke-width="2.31703"/>
<path fill-rule="evenodd" clip-rule="evenodd" d="M233.042 263.681C234.839 263.681 236.296 265.139 236.296 266.935C236.296 268.733 234.839 270.19 233.042 270.19C231.244 270.19 229.787 268.733 229.787 266.935C229.787 265.139 231.244 263.681 233.042 263.681Z" fill="black"/>
<path d="M444.682 334.167C449.442 337.425 454.287 340.731 458.307 344.9M425.061 339.471C430.768 343.689 436.957 347.261 442.513 351.686" stroke="black" stroke-width="3.08938"/>
<path fill-rule="evenodd" clip-rule="evenodd" d="M252.351 326.281L262.006 326.283C262.006 331.575 260.073 336.213 257.178 338.8C254.282 336.213 252.351 331.575 252.351 326.281ZM238.959 326.281L248.615 326.283C248.615 331.575 246.683 336.213 243.786 338.8C240.889 336.213 238.959 331.575 238.959 326.281ZM242.162 308.087H251.816C251.816 313.378 249.884 318.017 246.987 320.604C244.092 318.017 242.162 313.378 242.162 308.087ZM218.871 344.478H228.526C228.526 349.771 226.594 354.409 223.698 356.996C220.802 354.409 218.871 349.771 218.871 344.478ZM232.263 344.478H241.918C241.918 349.771 239.986 354.409 237.089 356.996C234.194 354.409 232.263 349.771 232.263 344.478ZM245.656 344.478H255.31C255.31 349.771 253.378 354.409 250.481 356.996C247.586 354.409 245.656 349.771 245.656 344.478ZM255.554 308.087H265.209C265.209 313.378 263.276 318.017 260.38 320.604C257.485 318.017 255.554 313.378 255.554 308.087Z" fill="black" stroke="white" stroke-width="0.772344"/>
<path fill-rule="evenodd" clip-rule="evenodd" d="M181.101 322.299C174.583 327.931 162.219 331.736 148.039 331.736C133.859 331.736 121.495 327.933 114.977 322.299C124.705 323.876 135.996 324.78 148.041 324.78C160.084 324.78 171.375 323.876 181.101 322.299Z" fill="white" stroke="black" stroke-width="2.31703"/>
<path fill-rule="evenodd" clip-rule="evenodd" d="M148.119 324.096C158.809 324.096 178.559 317.562 181.463 305.755C181.211 302.269 177.009 299.307 173.714 301.448C175.104 296.305 167.03 293.188 164.397 297.439C164.185 291.941 156.392 290.734 153.914 295.261C151.991 290.24 144.249 290.24 142.324 295.261C139.847 290.734 132.054 291.941 131.841 297.439C129.209 293.188 121.135 296.305 122.524 301.448C119.231 299.307 115.027 302.269 114.775 305.755C117.681 317.562 137.431 324.096 148.119 324.096Z" fill="white" stroke="black" stroke-width="2.31703" stroke-linejoin="round"/>
<path fill-rule="evenodd" clip-rule="evenodd" d="M148.042 304.689C152.505 304.689 156.127 308.311 156.127 312.775C156.127 317.238 152.505 320.861 148.042 320.861C143.579 320.861 139.955 317.238 139.955 312.775C139.955 308.311 143.579 304.689 148.042 304.689Z" fill="#005BB9"/>
<path fill-rule="evenodd" clip-rule="evenodd" d="M312.123 257.588C315.215 238.59 312.214 219.077 301.226 198.885C286.214 172.834 324.299 162.316 338.199 193.418C348.746 217.015 344.165 241.869 333.439 268.283C326.334 264.719 319.228 261.153 312.123 257.588Z" fill="white" stroke="black" stroke-width="3.08938"/>
<path fill-rule="evenodd" clip-rule="evenodd" d="M326.324 261.835C337.281 246.309 343.049 227.693 342.025 205.021C339.96 175.41 378.31 182.539 377.204 216.15C376.365 241.654 361.556 261.734 340.622 280.543C335.855 274.307 331.089 268.071 326.324 261.835Z" fill="white" stroke="black" stroke-width="3.08938"/>
<path fill-rule="evenodd" clip-rule="evenodd" d="M333.683 272.486C350.605 264.396 364.551 251.143 374.597 231.121C387.096 204.623 416.689 229.252 399.533 257.668C386.514 279.23 364.077 289.383 336.978 295.491L317.084 289.061L333.683 272.486Z" fill="white" stroke="black" stroke-width="3.08938"/>
<path fill-rule="evenodd" clip-rule="evenodd" d="M287.96 281.425C268.626 348.331 241.902 409.08 205.569 461.824C193.976 456.993 180.171 464.069 177.727 476.768H228.175C237.503 452.87 252.102 433.285 277.503 422.538L279.678 395.894C282.346 396.491 285.193 396.815 288.15 396.815C298.052 396.815 306.733 393.199 311.574 387.78C309.867 385.869 307.682 384.183 305.137 382.801C305.59 382.813 306.046 382.821 306.503 382.821C318.507 382.821 329.027 378.439 334.896 371.87C329.331 365.639 319.579 361.38 308.349 360.956C308.609 360.417 308.865 359.874 309.115 359.327C309.551 359.34 309.992 359.346 310.433 359.346C322.64 359.346 333.339 354.891 339.306 348.209C334.366 342.677 326.178 338.67 316.576 337.457C316.742 336.804 316.906 336.149 317.064 335.491C317.38 335.496 317.696 335.5 318.013 335.5C330.423 335.5 341.302 330.97 347.369 324.178C341.873 318.025 332.429 313.731 321.476 312.976L321.763 311.242C322.426 311.267 323.093 311.283 323.767 311.283C336.381 311.283 347.438 306.677 353.605 299.774C348.079 293.588 338.626 289.249 327.646 288.414C328.215 287.867 328.759 287.292 329.275 286.691L329.521 286.693C342.34 286.693 353.575 282.014 359.84 274.998C354.371 268.877 345.116 264.536 334.33 263.53C331.333 253.115 321.733 245.492 310.356 245.492C296.583 245.492 285.412 256.663 285.412 270.437C285.412 274.381 286.329 278.109 287.96 281.425Z" fill="white" stroke="black" stroke-width="3.08938"/>
<path d="M3.63086 326.906C15.3786 338.834 27.3666 351.497 37.3244 364.172C26.3848 368.841 15.8025 374.586 5.56172 381.357C31.6303 388.621 57.0259 398.576 80.4791 411.961C85.1047 414.596 90.338 417.802 85.6514 423.187C91.748 420.044 90.1616 409.315 89.3128 403.32C87.934 393.58 90.5529 387.34 92.7883 377.398C95.4943 365.369 91.2922 358.399 80.4308 353.359C55.8521 341.954 29.9386 333.247 3.63086 326.906ZM8.12033 415.291C3.04137 419.256 6.30495 426.227 7.78221 435.179C9.16019 443.525 7.4015 451.418 5.60999 459.412C3.90649 466.272 2.33652 473.755 10.5337 476.451C29.3941 482.626 44.8319 492.94 59.0948 506.525C72.2588 519.062 82.7888 534.191 93.4641 549.1C141.645 616.377 209.913 668.651 292.777 681.074L290.75 629.376L290.074 627.927L288.964 626.962C225.171 612.751 173.142 571.246 135.122 518.013C122.501 500.344 110.332 482.966 94.1882 467.956C74.5086 449.658 51.8342 436.607 27.3804 427.504C24.637 426.483 21.837 425.539 19.0295 424.608C14.6211 423.148 3.763 420.998 8.12033 415.291Z" fill="white"/>
<path fill-rule="evenodd" clip-rule="evenodd" d="M3.64844 326.904C29.9561 333.245 55.8605 341.933 80.4393 353.339C91.3007 358.378 95.5042 365.376 92.7983 377.405C92.6857 377.905 92.5778 378.405 92.4747 378.907C90.3627 372.618 86.2827 368.863 80.2689 365.963C67.9459 360.023 55.2524 354.8 42.3182 350.25C34.6521 347.553 26.9532 345.341 19.1901 343.121C14.094 337.612 8.84932 332.185 3.64844 326.904ZM8.11946 415.291C3.78528 418.674 5.53561 424.24 7.0575 431.365C9.43646 433.219 12.5164 434.577 14.9258 435.371C21.3256 437.483 27.5987 439.86 33.7516 442.516C52.9107 450.787 70.704 461.792 86.3676 476.354C100.931 489.896 112.331 505.901 123.971 522.212L125.757 524.674V524.722H125.805C132.09 533.518 138.754 542.026 145.79 550.161C152.868 558.343 160.295 566.118 168.043 573.428C194.774 598.652 225.695 618.648 260.483 630.774L262.269 634.009L291.666 657.517L290.894 630.292C290.645 627.622 289.779 627.394 287.37 626.623C224.293 612.085 172.83 570.809 135.122 518.012C122.5 500.343 110.333 482.965 94.1875 467.955C72.2944 447.6 46.6777 433.777 19.0288 424.607C12.1805 422.599 4.56868 420.42 8.11946 415.291Z" fill="#005BB9"/>
<path fill-rule="evenodd" clip-rule="evenodd" d="M18.8341 373.246C14.3476 375.747 9.91931 378.473 5.55944 381.356C31.628 388.62 57.0236 398.575 80.4768 411.96C85.0268 414.552 89.6878 417.93 85.9798 423.014C91.1032 419.984 90.3564 411.26 89.5519 405.25C87.8467 403.244 85.6317 401.646 82.9869 400.182C62.6727 388.928 41.0243 380.079 18.8341 373.246ZM5.36636 460.328C5.02971 461.717 4.7103 463.103 4.49747 464.479C4.49268 464.51 4.50226 464.545 4.49747 464.576C3.72149 469.701 4.38354 474.429 10.5314 476.451C11.6124 476.804 12.6584 477.18 13.7173 477.561V478.044C30.2682 484.691 45.66 493.845 59.0926 506.524C72.3128 519.001 82.7865 534.191 93.4619 549.099C141.642 616.376 209.911 668.649 292.775 681.074L292.292 669.392C287.295 668.601 282.373 667.629 277.521 666.544C266.044 663.979 254.757 660.548 243.635 656.31C186.82 634.667 139.025 592.935 102.827 542.389L100.413 539.059C90.2128 524.775 79.9966 510.427 66.9608 498.124C52.9667 484.917 37.0661 475.276 20.0409 468.196C17.324 467.066 14.6064 466.014 11.8347 465.01C8.78386 463.907 6.93405 462.642 5.36636 460.328Z" fill="#D20000"/>
<path d="M3.63086 326.905C15.3786 338.833 27.3666 351.496 37.3244 364.171C26.3848 368.84 15.8025 374.585 5.56172 381.356C31.6303 388.62 57.0259 398.575 80.4791 411.96C85.1047 414.595 90.338 417.801 85.6514 423.186C91.748 420.043 90.1616 409.314 89.3128 403.319C87.934 393.579 90.5529 387.339 92.7883 377.397C95.4943 365.368 91.2922 358.398 80.4308 353.358C55.8521 341.953 29.9386 333.246 3.63086 326.905ZM8.12033 415.29C3.04137 419.255 6.30495 426.226 7.78221 435.178C9.16019 443.524 7.4015 451.417 5.60999 459.411C3.90649 466.271 2.33652 473.754 10.5337 476.45C29.3941 482.625 44.8319 492.939 59.0948 506.524C72.2588 519.061 82.7888 534.19 93.4641 549.099C141.645 616.376 209.913 668.65 292.777 681.073L290.75 629.375C290.469 628.311 289.751 627.112 288.964 626.961C225.171 612.75 173.142 571.245 135.122 518.012C122.501 500.343 110.332 482.965 94.1882 467.955C74.5086 449.657 51.8342 436.606 27.3804 427.503C24.637 426.482 21.837 425.539 19.0295 424.607C14.6211 423.147 3.763 420.997 8.12033 415.29Z" stroke="black" stroke-width="1.54469"/>
<path d="M608.109 326.906C596.362 338.834 584.374 351.497 574.416 364.172C585.355 368.841 595.938 374.586 606.179 381.357C580.11 388.621 554.714 398.576 531.261 411.961C526.636 414.596 521.402 417.802 526.089 423.187C519.992 420.044 521.579 409.315 522.427 403.32C523.806 393.58 521.187 387.34 518.952 377.398C516.246 365.369 520.448 358.399 531.309 353.359C555.888 341.954 581.802 333.247 608.109 326.906ZM603.62 415.291C608.699 419.256 605.435 426.227 603.958 435.179C602.58 443.525 604.339 451.418 606.13 459.412C607.834 466.272 609.404 473.755 601.207 476.451C582.346 482.626 566.908 492.94 552.645 506.525C539.481 519.062 528.951 534.191 518.276 549.1C470.096 616.377 401.827 668.651 318.963 681.074L320.99 629.376L321.666 627.927L322.776 626.962C386.569 612.751 438.598 571.246 476.618 518.013C489.239 500.344 501.408 482.966 517.552 467.956C537.232 449.658 559.906 436.607 584.36 427.504C587.103 426.483 589.903 425.539 592.711 424.608C597.119 423.148 607.977 420.998 603.62 415.291Z" fill="white"/>
<path fill-rule="evenodd" clip-rule="evenodd" d="M608.092 326.904C581.784 333.245 555.88 341.933 531.301 353.339C520.44 358.378 516.236 365.376 518.942 377.405C519.055 377.905 519.162 378.405 519.266 378.907C521.378 372.618 525.458 368.863 531.471 365.963C543.794 360.023 556.488 354.8 569.422 350.25C577.088 347.553 584.787 345.341 592.55 343.121C597.646 337.612 602.891 332.185 608.092 326.904ZM603.621 415.291C607.955 418.674 606.205 424.24 604.683 431.365C602.304 433.219 599.224 434.577 596.814 435.371C590.415 437.483 584.141 439.86 577.989 442.516C558.83 450.787 541.036 461.792 525.373 476.354C510.81 489.896 499.409 505.901 487.769 522.212L485.983 524.674V524.722H485.935C479.651 533.518 472.987 542.026 465.951 550.161C458.872 558.343 451.445 566.118 443.697 573.428C416.966 598.652 386.046 618.648 351.257 630.774L349.471 634.009L320.074 657.517L320.846 630.292C321.095 627.622 321.961 627.394 324.37 626.623C387.447 612.085 438.91 570.809 476.619 518.012C489.24 500.343 501.408 482.965 517.553 467.955C539.446 447.6 565.063 433.777 592.711 424.607C599.56 422.599 607.172 420.42 603.621 415.291Z" fill="#005BB9"/>
<path fill-rule="evenodd" clip-rule="evenodd" d="M592.906 373.246C597.393 375.747 601.821 378.473 606.181 381.356C580.112 388.62 554.717 398.575 531.263 411.96C526.713 414.552 522.052 417.93 525.76 423.014C520.637 419.984 521.384 411.26 522.188 405.25C523.893 403.244 526.109 401.646 528.753 400.182C549.068 388.928 570.716 380.079 592.906 373.246ZM606.374 460.328C606.711 461.717 607.03 463.103 607.243 464.479C607.248 464.51 607.238 464.545 607.243 464.576C608.019 469.701 607.357 474.429 601.209 476.451C600.128 476.804 599.082 477.18 598.023 477.561V478.044C581.472 484.691 566.08 493.845 552.648 506.524C539.427 519.001 528.954 534.191 518.278 549.099C470.098 616.376 401.829 668.649 318.965 681.074L319.448 669.392C324.446 668.601 329.367 667.629 334.219 666.544C345.696 663.979 356.983 660.548 368.106 656.31C424.92 634.667 472.715 592.935 508.914 542.389L511.327 539.059C521.527 524.775 531.744 510.427 544.779 498.124C558.774 484.917 574.674 475.276 591.699 468.196C594.416 467.066 597.134 466.014 599.905 465.01C602.956 463.907 604.806 462.642 606.374 460.328Z" fill="#D20000"/>
<path d="M608.109 326.905C596.362 338.833 584.374 351.496 574.416 364.171C585.355 368.84 595.938 374.585 606.179 381.356C580.11 388.62 554.714 398.575 531.261 411.96C526.636 414.595 521.402 417.801 526.089 423.186C519.992 420.043 521.579 409.314 522.427 403.319C523.806 393.579 521.187 387.339 518.952 377.397C516.246 365.368 520.448 358.398 531.309 353.358C555.888 341.953 581.802 333.246 608.109 326.905ZM603.62 415.29C608.699 419.255 605.435 426.226 603.958 435.178C602.58 443.524 604.339 451.417 606.13 459.411C607.834 466.271 609.404 473.754 601.207 476.45C582.346 482.625 566.908 492.939 552.645 506.524C539.481 519.061 528.951 534.19 518.276 549.099C470.096 616.376 401.827 668.65 318.963 681.073L320.99 629.375C321.06 628.417 321.62 627.428 322.776 626.961C386.569 612.75 438.598 571.245 476.618 518.012C489.239 500.343 501.408 482.965 517.552 467.955C537.232 449.657 559.906 436.606 584.36 427.503C587.103 426.482 589.903 425.539 592.711 424.607C597.119 423.147 607.977 420.997 603.62 415.29Z" stroke="black" stroke-width="1.54469"/>
<path d="M264.646 633.578C262.792 633.877 261.045 632.614 260.747 630.758C260.448 628.904 261.711 627.158 263.565 626.859C270.931 625.674 280.295 634.4 287.796 633.195C289.65 632.897 290.913 631.15 290.614 629.295C290.315 627.439 288.569 626.178 286.715 626.476" stroke="black" stroke-width="1.54469"/>
<path d="M347.096 633.578C348.95 633.877 350.696 632.614 350.995 630.758C351.293 628.904 350.03 627.158 348.176 626.859C340.81 625.674 331.447 634.4 323.946 633.195C322.092 632.897 320.829 631.15 321.128 629.295C321.426 627.439 323.172 626.178 325.026 626.476" stroke="black" stroke-width="1.54469"/>
<path fill-rule="evenodd" clip-rule="evenodd" d="M351.086 688.97C360.425 686.143 364.777 683.061 358.38 672.899C350.489 660.359 348.115 646.757 350.491 632.242C319.745 644.62 291.996 644.62 261.25 632.242C263.626 646.757 261.252 660.359 253.361 672.899C246.964 683.061 251.316 686.143 260.655 688.97C288.516 697.412 323.225 697.412 351.086 688.97Z" fill="white"/>
<path fill-rule="evenodd" clip-rule="evenodd" d="M351.086 688.97C360.425 686.143 364.777 683.061 358.38 672.899C357.249 671.101 356.229 669.28 355.323 667.438L355.085 667.517C357.266 673.258 353.294 676.027 347.691 677.732C323.231 685.141 288.512 685.141 264.05 677.732C258.447 676.027 253.961 673.771 256.656 667.517L256.418 667.438C255.512 669.28 254.492 671.101 253.361 672.899C246.964 683.061 251.316 686.143 260.655 688.97C288.516 697.41 323.225 697.41 351.086 688.97Z" fill="#D20000"/>
<path fill-rule="evenodd" clip-rule="evenodd" d="M262.243 642.797C262.338 638.881 261.916 636.305 261.252 632.242C291.998 644.62 319.747 644.62 350.492 632.242C349.828 636.305 349.662 638.623 349.759 642.541C347.738 647.732 342.224 648.309 337.478 649.538C314.796 655.411 294.433 655.169 271.56 648.811C267.728 647.746 263.823 647.063 262.243 642.797Z" fill="#005BB9"/>
<path d="M351.086 688.97C360.425 686.143 364.777 683.061 358.38 672.899C350.489 660.359 348.115 646.757 350.491 632.242C319.745 644.62 291.996 644.62 261.25 632.242C263.626 646.757 261.252 660.359 253.361 672.899C246.964 683.061 251.316 686.143 260.655 688.97C288.516 697.412 323.225 697.412 351.086 688.97Z" stroke="black" stroke-width="1.54469"/>
<path fill-rule="evenodd" clip-rule="evenodd" d="M407.629 607.932L419.352 599.723L423.127 604.519L422.458 604.988C421.09 603.6 419.896 602.798 418.88 602.573C417.865 602.352 416.893 602.565 415.967 603.212L413.066 605.244C412.833 605.407 412.698 605.593 412.667 605.802C412.636 606.013 412.711 606.251 412.892 606.511L416.585 611.783L417.856 610.892C418.534 610.417 418.919 609.787 418.998 609.002C419.083 608.221 418.789 607.314 418.117 606.282L418.806 605.799L423.605 612.653L422.916 613.136C422.089 612.026 421.287 611.375 420.515 611.189C419.739 610.999 418.984 611.161 418.243 611.68L417.082 612.493L421.201 618.377C421.349 618.588 421.537 618.702 421.759 618.715C421.984 618.73 422.261 618.616 422.595 618.383L424.882 616.781C427.373 615.038 427.695 612.446 425.853 609.009L426.572 608.504L430.183 614.189L417.988 622.728L417.463 621.976L418.47 621.271C418.865 620.994 419.095 620.731 419.161 620.483C419.225 620.234 419.164 619.981 418.983 619.722L410.773 607.996C410.59 607.735 410.383 607.591 410.154 607.563C409.925 607.535 409.664 607.627 409.364 607.836L408.156 608.684L407.629 607.932ZM446.996 599.454L450.401 603.659L449.688 604.238C449.05 603.569 448.42 603.061 447.787 602.703C447.154 602.352 446.378 602.315 445.455 602.592C444.531 602.868 443.718 603.289 443.016 603.858L437.446 608.368C436.4 609.215 435.733 610.153 435.434 611.183C435.139 612.216 435.517 613.417 436.578 614.788L435.866 615.365L432.583 611.019C433.364 610.342 433.885 609.681 434.146 609.029C434.404 608.38 434.41 607.388 434.162 606.054C433.918 604.719 433.371 603.348 432.534 601.944C431.692 600.541 430.598 599.002 429.244 597.331C428.415 596.307 427.685 595.724 427.058 595.58C426.43 595.44 425.817 595.61 425.225 596.09L425.023 596.253L424.501 595.609L436.206 586.131L436.783 586.844L435.737 587.691C435.378 587.982 435.198 588.25 435.201 588.499C435.204 588.749 435.434 589.159 435.897 589.728L444.073 599.826C444.724 600.63 445.422 600.73 446.17 600.123L446.996 599.454ZM442.994 602.587L432.835 590.04L430.424 591.993C429.65 592.62 429.198 593.162 429.069 593.631C428.937 594.097 429 594.572 429.255 595.052C429.51 595.534 430.144 596.462 431.165 597.835C433.285 600.692 434.571 603.042 435.007 604.888C435.451 606.733 435.373 608.18 434.785 609.235L442.994 602.587ZM451.556 590.373L450.18 576.307L449.972 576.084C449.639 575.727 449.366 575.549 449.156 575.551C448.947 575.554 448.662 575.723 448.295 576.063L447.332 576.962L446.707 576.292L452.27 571.103L452.896 571.774L451.914 572.69C451.647 572.94 451.487 573.186 451.434 573.428C451.381 573.67 451.643 574.098 452.216 574.711L461.078 584.214C461.432 584.596 461.681 584.825 461.823 584.897C461.962 584.974 462.15 584.974 462.383 584.9C462.619 584.829 462.853 584.677 463.097 584.45L463.963 583.644L464.589 584.313L459.025 589.501L458.4 588.83L459.363 587.933C459.744 587.577 459.914 587.27 459.868 587.012C459.821 586.754 459.577 586.384 459.127 585.901L451.323 577.533L452.761 591.666C453.102 592.032 453.346 592.279 453.494 592.415C453.641 592.549 453.841 592.598 454.087 592.562C454.337 592.523 454.589 592.385 454.845 592.146L455.881 591.178L456.507 591.851L450.87 597.106L450.244 596.436L451.326 595.427C451.617 595.157 451.74 594.893 451.697 594.632C451.65 594.374 451.403 594.005 450.954 593.523L442.058 583.983C441.614 583.508 441.276 583.248 441.048 583.204C440.818 583.162 440.512 583.322 440.125 583.683L439.177 584.567L438.551 583.897L444.188 578.64L444.814 579.31L443.777 580.278C443.408 580.622 443.23 580.906 443.246 581.138C443.261 581.367 443.497 581.73 443.951 582.218L451.556 590.373ZM454.567 568.723L459.822 563.085L460.494 563.711L459.527 564.749C459.189 565.11 459.031 565.408 459.056 565.638C459.083 565.866 459.342 566.212 459.836 566.672L463.909 570.47L469.547 564.425L465.473 560.627C464.962 560.15 464.596 559.904 464.381 559.898C464.165 559.89 463.877 560.084 463.516 560.47L462.617 561.435L461.947 560.808L467.177 555.199L467.848 555.824L466.891 556.851C466.652 557.108 466.514 557.316 466.485 557.483C466.449 557.649 466.488 557.839 466.585 558.053C466.65 558.185 466.902 558.447 467.332 558.848L476.835 567.71C477.295 568.138 477.604 568.358 477.774 568.369C478.118 568.405 478.483 568.214 478.867 567.803L479.718 566.892L480.388 567.517L475.158 573.128L474.485 572.501L475.384 571.538C475.741 571.156 475.878 570.802 475.799 570.472C475.759 570.287 475.495 569.972 475.014 569.521L470.423 565.241L464.784 571.286L469.446 575.634C469.911 576.068 470.224 576.29 470.387 576.31C470.721 576.343 471.057 576.178 471.395 575.815L472.363 574.778L473.033 575.404L467.776 581.042L467.105 580.416L468.115 579.334C468.292 579.145 468.397 578.959 468.423 578.771C468.451 578.588 468.422 578.4 468.326 578.214C468.261 578.096 468.021 577.844 467.61 577.461L458.071 568.565C457.577 568.105 457.215 567.869 456.985 567.86C456.754 567.85 456.466 568.032 456.122 568.401L455.237 569.349L454.567 568.723ZM478.964 543.345L478.167 541.578L478.661 540.991L484.432 545.415L483.904 546.045C481.994 545.143 480.407 544.692 479.141 544.691C477.563 544.685 476.325 545.219 475.425 546.292C474.449 547.455 474.176 548.83 474.598 550.43C475.022 552.026 476.466 553.864 478.934 555.935C481.013 557.68 482.949 558.591 484.742 558.671C486.263 558.732 487.559 558.122 488.636 556.839C489.58 555.715 490.011 554.472 489.929 553.106C489.844 551.741 489.177 550.331 487.917 548.882L488.473 548.219C489.958 549.796 490.751 551.419 490.851 553.096C490.953 554.777 490.405 556.326 489.209 557.75C488.242 558.902 487.066 559.721 485.678 560.195C484.288 560.672 482.808 560.742 481.235 560.406C479.661 560.07 478.228 559.359 476.932 558.271C475.552 557.114 474.509 555.73 473.799 554.119C473.086 552.509 472.817 550.981 472.991 549.543C473.161 548.102 473.699 546.845 474.598 545.773C475.1 545.175 475.689 544.68 476.366 544.295C477.043 543.905 477.91 543.589 478.964 543.345ZM481.554 537.885L490.373 526.182L496.039 530.009L495.533 530.681C491.992 528.708 489.517 528.654 488.106 530.528C487.821 530.905 487.693 531.214 487.717 531.452C487.742 531.689 487.901 531.919 488.201 532.146L499.73 540.833C499.963 541.009 500.19 541.069 500.402 541.016C500.618 540.964 500.84 540.781 501.074 540.469L502.169 539.018L502.902 539.57L497.854 546.267L497.121 545.715L498.37 544.058C498.536 543.837 498.611 543.628 498.586 543.426C498.564 543.228 498.462 543.056 498.283 542.921L486.586 534.108C486.341 533.922 486.097 533.858 485.853 533.911C485.617 533.961 485.37 534.156 485.122 534.486C484.41 535.432 484.263 536.554 484.682 537.855C485.02 538.93 485.899 540.176 487.309 541.594L486.771 542.307L481.554 537.885ZM492.691 523.051L498.226 515.433C499.311 513.939 500.476 513.032 501.709 512.718C502.943 512.404 504.057 512.605 505.053 513.329C505.881 513.931 506.386 514.721 506.565 515.694C506.743 516.668 506.596 517.836 506.121 519.191C507.41 518.025 508.619 517.326 509.74 517.089C510.863 516.854 511.9 517.083 512.847 517.77C513.573 518.297 514.071 518.958 514.346 519.756C514.621 520.554 514.621 521.553 514.349 522.746C514.071 523.942 513.515 525.119 512.675 526.276L507.304 533.669L506.561 533.129L507.44 531.922C507.701 531.561 507.837 531.253 507.84 531.002C507.842 530.745 507.767 530.562 507.615 530.453L495.91 521.947C495.633 521.747 495.366 521.677 495.103 521.739C494.842 521.8 494.596 521.99 494.367 522.305L493.433 523.59L492.691 523.051ZM502.581 523.565L504.592 520.8C505.209 519.95 505.452 519.091 505.319 518.227C505.183 517.355 504.546 516.506 503.407 515.679C502.703 515.166 502.064 514.888 501.495 514.841C500.924 514.797 500.382 514.933 499.868 515.26C499.355 515.59 498.691 516.312 497.871 517.437C497.291 518.238 496.991 518.771 496.966 519.048C496.941 519.323 497.076 519.565 497.365 519.774L502.581 523.565ZM503.315 524.097L508.947 528.189C509.21 528.38 509.464 528.447 509.708 528.388C509.954 528.329 510.218 528.099 510.512 527.694L511.797 525.926C512.649 524.752 513.019 523.703 512.907 522.766C512.797 521.83 512.195 520.966 511.103 520.171C510.101 519.443 509.103 519.157 508.106 519.318C507.107 519.479 506.238 520.075 505.497 521.092L503.315 524.097ZM505.054 505.707L513.865 494.43L518.878 497.914L518.375 498.557C516.66 497.63 515.284 497.211 514.246 497.294C513.211 497.38 512.344 497.866 511.648 498.757L509.467 501.549C509.292 501.772 509.219 501.99 509.25 502.199C509.281 502.408 509.422 502.613 509.672 502.809L514.743 506.771L515.699 505.549C516.21 504.896 516.393 504.181 516.241 503.407C516.093 502.635 515.545 501.854 514.601 501.064L515.12 500.4L521.712 505.551L521.195 506.215C520.079 505.396 519.122 505.008 518.329 505.055C517.532 505.099 516.857 505.476 516.3 506.188L515.428 507.306L521.087 511.727C521.292 511.886 521.503 511.941 521.719 511.888C521.939 511.836 522.17 511.647 522.422 511.327L524.142 509.126C526.013 506.731 525.563 504.158 522.796 501.408L523.338 500.715L528.453 505.097L519.288 516.828L518.564 516.263L519.322 515.294C519.619 514.913 519.761 514.595 519.75 514.339C519.74 514.081 519.608 513.858 519.36 513.662L508.079 504.849C507.829 504.655 507.588 504.577 507.362 504.616C507.134 504.656 506.912 504.821 506.685 505.11L505.777 506.273L505.054 505.707Z" fill="black" stroke="black" stroke-width="0.154469"/>
<path fill-rule="evenodd" clip-rule="evenodd" d="M297.811 658.033H307.227C309.074 658.033 310.492 658.443 311.47 659.254C312.45 660.069 312.941 661.089 312.941 662.32C312.941 663.345 312.6 664.216 311.916 664.933C311.233 665.649 310.204 666.217 308.827 666.629C310.527 666.987 311.803 667.555 312.653 668.321C313.504 669.093 313.929 670.064 313.929 671.236C313.929 672.132 313.688 672.925 313.204 673.616C312.721 674.308 311.912 674.896 310.787 675.376C309.657 675.854 308.376 676.096 306.948 676.096H297.811V675.179H299.302C299.747 675.179 300.077 675.108 300.282 674.962C300.49 674.813 300.595 674.646 300.595 674.458V659.989C300.595 659.647 300.495 659.389 300.29 659.213C300.085 659.038 299.79 658.951 299.399 658.951H297.811V658.033ZM303.208 666.337H306.626C307.676 666.337 308.516 666.029 309.136 665.412C309.761 664.791 310.074 663.778 310.074 662.37C310.074 661.497 309.924 660.819 309.627 660.33C309.327 659.843 308.899 659.484 308.331 659.259C307.764 659.038 306.788 658.926 305.397 658.926C304.409 658.926 303.799 658.996 303.563 659.138C303.326 659.281 303.208 659.531 303.208 659.889V666.337ZM303.208 667.242V674.203C303.208 674.528 303.304 674.776 303.496 674.938C303.687 675.101 304.029 675.179 304.529 675.179H306.715C308.164 675.179 309.232 674.862 309.924 674.221C310.615 673.583 310.962 672.587 310.962 671.236C310.962 669.998 310.607 669.023 309.89 668.31C309.174 667.596 308.181 667.242 306.923 667.242H303.208Z" fill="black" stroke="black" stroke-width="0.154469"/>
<path fill-rule="evenodd" clip-rule="evenodd" d="M74.1659 470.193L87.6911 482.806L87.0642 483.476L86.0825 482.56C85.748 482.247 85.4603 482.105 85.2165 482.133C84.9726 482.163 84.5959 482.451 84.0847 482.999L75.2227 492.502C74.8569 492.895 74.6443 493.165 74.5802 493.306C74.5208 493.45 74.5364 493.634 74.6302 493.864C74.7256 494.091 74.8913 494.313 75.1226 494.528L75.9965 495.344L75.3712 496.015L69.7889 490.809L70.4157 490.139L71.3787 491.038C71.7601 491.392 72.0775 491.541 72.3354 491.478C72.5949 491.421 72.9451 491.149 73.3953 490.665L83.2655 480.081L77.1924 474.417L67.2564 485.074C66.8719 485.485 66.6546 485.749 66.6077 485.866C66.5624 485.982 66.5686 486.148 66.6233 486.363C66.678 486.575 66.8297 486.795 67.0735 487.023L68.11 487.989L67.4847 488.66L61.8477 483.404L62.4729 482.734L63.5547 483.742C63.7876 483.958 63.9908 484.064 64.1675 484.058C64.3473 484.055 64.4942 484.031 64.6083 483.989C64.7209 483.953 64.996 483.701 65.429 483.237L74.3238 473.698C74.7678 473.223 75.0054 472.87 75.0367 472.641C75.0633 472.41 74.8819 472.115 74.4895 471.749L73.5407 470.864L74.1659 470.193ZM90.5971 486.248L96.4389 492.968C97.7599 494.488 98.4243 495.943 98.429 497.342C98.4352 498.74 97.8802 499.918 96.7657 500.886C95.6558 501.852 94.4865 502.223 93.264 501.991C91.5788 501.679 90.0875 500.776 88.7963 499.291L86.6797 496.856L82.0259 500.902C81.7555 501.136 81.6179 501.372 81.6148 501.602C81.6148 501.901 81.7445 502.196 81.9931 502.484L83.3422 504.034L82.6496 504.636L76.9657 498.097L77.6582 497.495L78.8447 498.862C79.0808 499.132 79.3059 499.284 79.5216 499.316C79.7389 499.349 79.9421 499.285 80.1234 499.126L90.9911 489.679C91.2677 489.438 91.4006 489.185 91.3834 488.918C91.3662 488.65 91.1646 488.297 90.7816 487.856L89.9062 486.85L90.5971 486.248ZM87.3534 496.271L88.9635 498.124C89.9828 499.298 90.9645 499.931 91.904 500.026C92.8419 500.122 93.8784 499.679 95.0008 498.704C95.7886 498.019 96.2904 497.378 96.5077 496.776C96.7235 496.179 96.7391 495.563 96.5499 494.938C96.3576 494.309 95.8152 493.476 94.9179 492.444C94.3255 491.763 93.8846 491.388 93.6001 491.322C93.3125 491.252 93.0092 491.353 92.6887 491.633L87.3534 496.271ZM108.001 507.167C108.915 508.382 109.454 509.76 109.614 511.31C109.776 512.854 109.508 514.361 108.817 515.827C108.119 517.292 107.056 518.568 105.618 519.651C104.18 520.736 102.656 521.408 101.041 521.675C99.4278 521.946 97.899 521.793 96.4577 521.225C95.0148 520.653 93.8487 519.778 92.9545 518.593C92.0853 517.438 91.5835 516.113 91.4507 514.621C91.3209 513.126 91.6148 511.633 92.3323 510.126C93.0467 508.622 94.1238 507.33 95.562 506.245C96.9814 505.177 98.4852 504.513 100.073 504.245C101.662 503.983 103.172 504.125 104.594 504.669C106.025 505.216 107.158 506.048 108.001 507.167ZM107.366 507.889C106.409 506.621 105.109 505.988 103.466 505.996C101.818 506.006 99.8046 506.901 97.4238 508.694C94.8413 510.642 93.3625 512.393 92.9811 513.944C92.5981 515.494 92.8591 516.864 93.7533 518.053C94.3817 518.885 95.1571 519.449 96.0794 519.74C97.0064 520.034 98.0975 520 99.3544 519.637C100.61 519.276 102.032 518.496 103.617 517.301C105.348 515.998 106.567 514.808 107.272 513.722C107.982 512.64 108.324 511.594 108.302 510.594C108.282 509.59 107.968 508.688 107.366 507.889ZM112.043 542.127L107.788 545.333L107.239 544.603C109.561 542.803 109.737 540.592 107.769 537.978L99.9187 527.561L100.652 527.009L101.462 528.085C101.74 528.454 102.002 528.643 102.251 528.647C102.501 528.654 102.917 528.438 103.503 527.997L113.882 520.176C114.31 519.853 114.566 519.625 114.652 519.496C114.735 519.365 114.754 519.18 114.701 518.938C114.646 518.697 114.522 518.452 114.324 518.188L113.611 517.242L114.344 516.69L118.937 522.787L118.205 523.339L117.413 522.287C117.103 521.877 116.817 521.675 116.55 521.688C116.283 521.702 115.892 521.904 115.373 522.294L103.783 531.027L108.759 537.63L120.414 528.846C120.897 528.482 121.162 528.246 121.207 528.133C121.255 528.024 121.271 527.866 121.262 527.664C121.247 527.466 121.135 527.227 120.924 526.947L120.08 525.826L120.811 525.274L125.449 531.429L124.718 531.982L123.83 530.803C123.631 530.539 123.449 530.401 123.273 530.376C123.101 530.355 122.951 530.351 122.828 530.367C122.709 530.383 122.4 530.58 121.901 530.956L111.473 538.815C110.954 539.206 110.713 539.585 110.757 539.954C110.799 540.323 110.947 540.672 111.19 540.996L112.043 542.127ZM126.53 533.436L132.456 540.755C133.619 542.19 134.193 543.548 134.177 544.821C134.163 546.095 133.678 547.119 132.723 547.892C131.926 548.538 131.033 548.821 130.045 548.741C129.059 548.66 127.969 548.218 126.783 547.408C127.575 548.955 127.938 550.303 127.877 551.447C127.813 552.593 127.325 553.536 126.414 554.272C125.718 554.836 124.951 555.146 124.108 555.207C123.267 555.266 122.301 555.007 121.219 554.435C120.136 553.858 119.143 553.015 118.243 551.905L112.493 544.804L113.206 544.227L114.146 545.387C114.426 545.732 114.688 545.943 114.93 546.01C115.177 546.079 115.373 546.054 115.518 545.937L126.763 536.831C127.028 536.615 127.167 536.375 127.174 536.106C127.182 535.837 127.063 535.552 126.817 535.247L125.817 534.014L126.53 533.436ZM123.474 542.857L125.626 545.513C126.287 546.331 127.053 546.787 127.924 546.881C128.8 546.976 129.784 546.582 130.879 545.696C131.555 545.147 131.99 544.603 132.182 544.066C132.373 543.526 132.381 542.967 132.2 542.384C132.013 541.805 131.488 540.975 130.611 539.893C129.989 539.126 129.551 538.698 129.292 538.602C129.032 538.507 128.765 538.574 128.485 538.799L123.474 542.857ZM122.772 543.426L117.361 547.808C117.108 548.013 116.978 548.243 116.972 548.493C116.966 548.744 117.121 549.06 117.435 549.448L118.809 551.146C119.722 552.273 120.639 552.904 121.574 553.037C122.506 553.173 123.497 552.815 124.547 551.966C125.509 551.186 126.045 550.297 126.147 549.292C126.25 548.285 125.901 547.292 125.109 546.314L122.772 543.426ZM138.016 547.777L147.405 558.577L143.031 562.834L142.495 562.216C143.732 560.711 144.405 559.44 144.523 558.405C144.635 557.373 144.322 556.429 143.581 555.576L141.257 552.903C141.071 552.689 140.872 552.574 140.661 552.565C140.449 552.556 140.22 552.656 139.981 552.864L135.123 557.086L136.14 558.257C136.684 558.882 137.352 559.198 138.14 559.196C138.926 559.198 139.798 558.81 140.754 558.035L141.307 558.671L134.993 564.16L134.44 563.523C135.457 562.584 136.02 561.719 136.125 560.933C136.233 560.142 135.992 559.407 135.399 558.724L134.469 557.655L129.048 562.366C128.853 562.537 128.76 562.734 128.771 562.956C128.778 563.181 128.92 563.445 129.187 563.753L131.021 565.862C133.014 568.155 135.625 568.205 138.851 566.013L139.428 566.678L134.15 570.861L124.385 559.626L125.077 559.024L125.884 559.953C126.201 560.319 126.486 560.519 126.741 560.556C126.994 560.595 127.239 560.509 127.479 560.301L138.282 550.91C138.521 550.702 138.643 550.48 138.648 550.25C138.653 550.02 138.534 549.768 138.293 549.492L137.325 548.379L138.016 547.777ZM149.381 560.641L159.559 571.182L154.893 576.179L154.308 575.574C156.811 572.385 157.252 569.95 155.621 568.261C155.295 567.922 155.009 567.747 154.77 567.735C154.532 567.721 154.279 567.843 154.008 568.104L143.624 578.132C143.414 578.335 143.319 578.548 143.339 578.766C143.356 578.988 143.502 579.235 143.774 579.517L145.037 580.824L144.377 581.461L138.551 575.429L139.211 574.791L140.652 576.284C140.844 576.482 141.04 576.589 141.243 576.595C141.443 576.604 141.627 576.531 141.788 576.375L152.323 566.203C152.545 565.989 152.647 565.757 152.633 565.509C152.62 565.268 152.465 564.993 152.178 564.696C151.357 563.845 150.271 563.525 148.92 563.734C147.805 563.9 146.437 564.572 144.816 565.745L144.197 565.102L149.381 560.641ZM166.522 577.12L167.119 577.678L160.593 594.188C160.327 594.851 160.489 595.459 161.079 596.007L161.49 596.39L160.865 597.062L155.596 592.149L156.222 591.479L156.639 591.868C157.188 592.379 157.63 592.684 157.966 592.775C158.201 592.834 158.396 592.778 158.556 592.606C158.653 592.503 158.734 592.379 158.796 592.226L160.314 588.398L155.098 583.534L152.981 584.569C152.422 584.846 152.02 585.11 151.787 585.36C151.518 585.649 151.421 586.028 151.496 586.49C151.574 586.951 151.871 587.422 152.39 587.905L152.834 588.321L152.209 588.992L147.422 584.527L148.049 583.856C148.56 584.335 149.068 584.604 149.578 584.657C150.08 584.708 150.75 584.541 151.582 584.149L166.522 577.12ZM163.888 579.425L156.03 583.103L160.704 587.461L163.888 579.425ZM173.149 584.358L179.139 589.209L178.56 589.922L177.46 589.031C177.074 588.718 176.766 588.58 176.539 588.623C176.313 588.665 175.986 588.948 175.562 589.473L172.057 593.8L178.481 599.003L181.986 594.674C182.426 594.13 182.644 593.748 182.636 593.533C182.63 593.317 182.415 593.043 182.004 592.71L180.98 591.882L181.559 591.169L187.519 595.995L186.941 596.708L185.85 595.824C185.578 595.604 185.361 595.482 185.193 595.463C185.024 595.44 184.837 595.493 184.629 595.602C184.504 595.678 184.26 595.946 183.89 596.404L175.712 606.501C175.317 606.991 175.12 607.314 175.12 607.486C175.109 607.83 175.323 608.182 175.761 608.535L176.728 609.32L176.151 610.033L170.191 605.205L170.768 604.493L171.792 605.323C172.197 605.651 172.561 605.763 172.886 605.66C173.067 605.609 173.363 605.323 173.777 604.812L177.729 599.933L171.304 594.73L167.293 599.684C166.891 600.18 166.691 600.505 166.681 600.669C166.674 601.005 166.861 601.329 167.247 601.641L168.348 602.534L167.771 603.247L161.781 598.396L162.358 597.683L163.508 598.615C163.708 598.776 163.904 598.87 164.091 598.882C164.276 598.898 164.462 598.856 164.64 598.748C164.754 598.673 164.987 598.418 165.342 597.98L173.55 587.843C173.974 587.319 174.185 586.941 174.177 586.711C174.171 586.479 173.971 586.204 173.578 585.887L172.57 585.071L173.149 584.358ZM185.145 611.108L198.618 606.837L198.792 606.589C199.073 606.189 199.189 605.884 199.145 605.679C199.1 605.474 198.873 605.23 198.464 604.943L197.385 604.188L197.91 603.436L204.143 607.8L203.616 608.551L202.517 607.782C202.217 607.571 201.943 607.466 201.695 607.466C201.446 607.464 201.082 607.81 200.602 608.496L193.149 619.14C192.85 619.567 192.676 619.858 192.636 620.011C192.59 620.164 192.628 620.348 192.75 620.56C192.869 620.775 193.066 620.974 193.339 621.166L194.308 621.845L193.782 622.595L187.551 618.232L188.076 617.48L189.156 618.237C189.583 618.535 189.917 618.638 190.161 618.538C190.404 618.438 190.716 618.122 191.094 617.583L197.657 608.21L184.13 612.556C183.844 612.965 183.652 613.253 183.552 613.428C183.45 613.6 183.444 613.805 183.53 614.038C183.621 614.274 183.808 614.493 184.094 614.693L185.256 615.506L184.731 616.257L178.417 611.837L178.942 611.085L180.155 611.934C180.479 612.16 180.763 612.228 181.008 612.131C181.252 612.031 181.56 611.713 181.939 611.172L189.42 600.489C189.794 599.956 189.977 599.57 189.972 599.339C189.966 599.106 189.747 598.838 189.312 598.535L188.251 597.791L188.776 597.041L195.09 601.461L194.565 602.213L193.403 601.401C192.991 601.11 192.673 600.996 192.451 601.06C192.229 601.122 191.923 601.427 191.542 601.973L185.145 611.108ZM205.52 609.282L217.787 616.651L214.942 622.052L214.241 621.632C214.953 619.817 215.201 618.401 214.992 617.38C214.781 616.364 214.191 615.562 213.224 614.98L210.186 613.156C209.944 613.009 209.719 612.962 209.514 613.018C209.309 613.076 209.123 613.24 208.961 613.512L205.645 619.029L206.974 619.828C207.685 620.255 208.417 620.35 209.167 620.105C209.914 619.864 210.624 619.225 211.293 618.193L212.015 618.626L207.705 625.798L206.985 625.363C207.662 624.157 207.929 623.159 207.787 622.378C207.646 621.593 207.19 620.969 206.413 620.503L205.198 619.773L201.499 625.929C201.367 626.151 201.338 626.368 201.418 626.576C201.495 626.787 201.71 626.994 202.061 627.205L204.454 628.643C207.06 630.208 209.558 629.45 211.95 626.368L212.703 626.82L208.978 632.431L196.217 624.765L196.689 623.978L197.744 624.611C198.159 624.86 198.49 624.963 198.745 624.921C198.998 624.879 199.205 624.721 199.369 624.45L206.741 612.179C206.905 611.907 206.952 611.658 206.885 611.438C206.817 611.219 206.627 611.018 206.313 610.828L205.048 610.069L205.52 609.282Z" fill="black" stroke="black" stroke-width="0.154469"/>
</g>
<defs>
<clipPath id="clip0_806_111356">
<rect width="611.253" height="697" fill="white" transform="translate(0.244141)"/>
</clipPath>
</defs>
</svg>
