<svg id="id-svg" width="604" height="731" viewBox="0 0 604 731" fill="none" xmlns="http://www.w3.org/2000/svg">
<path fill-rule="evenodd" clip-rule="evenodd" d="M602.039 609.945C602.039 650.03 569.535 682.533 529.451 682.533H354.331C326.938 683.153 304.346 703.195 299.765 729.428C295.205 703.195 272.602 683.153 245.219 682.533H74.5604C34.476 682.533 1.9624 650.03 1.9624 609.945V1.21777H602.039V609.945Z" fill="#FFD500" stroke="#D4A900" stroke-width="2.43457"/>
<path fill-rule="evenodd" clip-rule="evenodd" d="M596.027 609.945L596.035 7.24805H7.99036V609.945V609.953H7.97412C7.97412 628.305 15.435 644.947 27.4963 657.008C39.5476 669.059 56.1895 676.53 74.5515 676.53V676.498H74.5596H245.219L245.329 676.53C267.101 677.021 286.133 688.592 296.995 705.813C297.985 707.394 298.915 709.014 299.765 710.684C306.296 697.953 317.037 687.741 330.158 681.901C333.829 680.271 337.679 678.98 341.68 678.07C345.64 677.16 349.77 676.64 354.021 676.53H354.053H354.213L354.333 676.498H529.452H529.461V676.53C547.813 676.522 564.454 669.059 576.506 657.008C588.567 644.947 596.028 628.305 596.028 609.943L596.027 609.945Z" fill="#007CCC"/>
<path fill-rule="evenodd" clip-rule="evenodd" d="M596.028 609.945L596.036 7.24805H7.99072L578.774 654.63C589.495 642.808 596.026 627.127 596.026 609.945H596.028Z" fill="white"/>
<path fill-rule="evenodd" clip-rule="evenodd" d="M132.657 230.332C127.146 230.422 117.115 232.722 115.555 234.653C114.725 235.673 113.715 235.763 111.874 235.022C108.654 233.822 107.464 234.562 107.464 237.602C107.464 241.733 109.484 242.473 118.315 241.373C122.726 240.813 127.876 239.993 129.626 239.623L132.937 238.972V244.223C132.937 249.463 130.726 256.824 129.166 256.364C127.236 255.804 121.715 257.644 121.805 258.844C121.805 259.575 122.726 261.325 123.746 262.705C124.846 264.085 125.766 266.205 125.766 267.395C125.766 268.595 126.776 270.806 127.966 272.366C128.986 273.836 128.706 275.766 129.996 276.506C128.066 328.012 128.336 379.518 128.426 430.933C127.046 430.743 127.046 431.394 126.866 432.404C126.866 433.504 126.406 434.424 125.856 434.424C125.305 434.424 124.106 437.004 123.186 440.134C121.625 445.465 117.665 451.716 117.665 448.865C117.665 447.395 110.124 447.215 107.374 448.685C104.704 450.156 104.884 453.746 107.824 459.357C109.204 461.927 110.034 464.047 109.574 464.047C109.204 464.047 108.843 465.237 108.654 466.617C108.564 468.088 107.273 471.768 105.893 474.808C104.243 478.389 103.323 482.259 103.323 485.479C103.323 489.61 103.043 490.44 101.763 489.89C100.933 489.61 99.2726 487.59 98.1725 485.479C96.7023 482.439 95.7822 481.699 94.212 482.169C93.0219 482.439 92.1018 483.079 92.1018 483.629C92.1018 484.189 91.2717 485.75 90.1716 487.13C89.0614 488.51 87.8713 491.45 87.5013 493.57C87.1308 495.771 86.2111 497.801 85.391 498.161C84.561 498.441 83.9109 499.641 83.9109 500.741C83.9109 503.682 80.8806 512.242 79.2204 514.173C78.2103 515.363 77.7502 518.213 77.8402 523.924C78.0306 534.125 76.1 539.645 73.3397 536.895C71.9496 535.515 69.5693 535.785 68.7392 537.445C68.1895 538.365 67.269 542.595 66.619 546.826C65.8885 551.056 64.6888 557.487 63.8587 561.077C63.0386 564.758 62.1185 571.929 61.8384 576.989C61.6584 582.05 61.1984 587.11 60.9183 588.21C60.7383 589.311 60.8279 590.791 61.1984 591.331C62.2085 592.901 65.5189 592.721 65.5189 591.061C65.5189 588.851 68.2792 589.591 69.1092 591.981C69.4693 593.271 69.9293 596.212 70.0194 598.512C70.2098 603.753 72.2296 606.423 75.3599 605.593C76.6501 605.323 77.9302 605.502 78.3003 606.053C78.6707 606.613 79.7704 607.063 80.8805 607.063C82.1707 607.063 83.5409 608.903 85.391 612.864C87.6813 617.924 88.3214 618.564 90.5316 618.104C92.1018 617.824 93.942 618.284 95.1321 619.394C96.8823 620.864 97.9824 620.955 102.583 620.034C109.484 618.754 125.946 618.374 127.606 619.574C128.246 620.124 129.256 620.314 129.716 620.034C130.266 619.665 133.306 619.114 136.617 618.844C139.927 618.474 143.698 618.014 144.988 617.824C146.178 617.644 150.498 618.014 154.549 618.564C159.239 619.295 162 619.295 162.46 618.655C163.1 617.645 167.7 617.735 188.122 618.935C202.564 619.665 204.674 619.665 208.635 619.025C219.396 617.275 219.856 617.275 220.866 619.945C221.437 621.485 221.796 622.105 223.436 622.245H225.447C226.216 622.206 227.127 622.145 228.227 622.055C232.727 621.695 235.028 620.955 235.948 619.765C236.588 618.755 237.238 618.375 237.238 618.755C237.238 619.204 237.788 619.115 238.528 618.475C239.259 617.925 243.579 617.375 247.999 617.275C252.51 617.184 257.38 616.634 258.85 615.994C261.981 614.704 264.461 608.634 263.271 605.133C262.9 603.843 262.531 600.073 262.441 596.762C262.25 590.052 262.721 590.602 253.33 585.541C250.669 584.071 248.829 582.511 249.289 582.051C249.649 581.591 249.379 581.591 248.729 581.961C246.899 582.971 240.368 580.491 239.818 578.461C239.168 576.44 239.818 570.28 241.188 565.769C241.748 564.019 242.478 560.439 242.849 557.858C243.129 555.188 243.859 552.708 244.409 552.438C244.869 552.158 245.609 549.767 245.979 547.277C246.348 544.707 247.169 542.777 247.729 542.957C248.829 543.326 255.63 537.166 255.63 535.696C255.63 534.316 250.849 531.465 248.639 531.465C247.629 531.465 246.439 531.185 246.069 530.816C245.699 530.356 243.859 529.906 242.018 529.806C238.708 529.536 225.837 528.616 222.796 528.516C221.966 528.425 220.596 527.235 219.856 525.755C218.756 523.825 217.926 523.365 216.086 523.735C214.795 524.105 213.695 523.925 213.695 523.465C213.695 522.916 211.665 521.995 209.095 521.345C204.954 520.335 203.944 519.415 204.404 516.845C204.495 516.375 204.124 516.285 203.664 516.565C202.474 517.305 200.444 512.704 200.354 509.204C200.354 507.644 199.524 505.253 198.424 503.873C197.323 502.493 196.403 500.653 196.403 499.733C196.403 498.903 195.843 497.713 195.293 497.162C194.744 496.602 193.823 493.662 193.273 490.622C191.893 483.541 190.973 482.441 186.562 483.171C183.802 483.631 183.062 483.361 183.062 482.071C183.062 481.241 182.142 480.231 180.952 479.871C179.752 479.5 178.281 477.75 177.451 475.91C175.521 471.31 173.771 465.979 173.131 463.129C172.761 461.739 171.011 459.078 169.08 457.058C167.25 455.028 165.4 452.457 165.13 451.257C163.57 445.837 160.259 440.316 158.049 439.306C156.019 438.386 155.659 437.646 156.109 435.806C156.489 434.336 156.299 433.325 155.658 433.325C154.918 433.325 154.088 432.405 153.448 431.305C153.448 379.239 152.708 327.554 150.688 276.508L150.778 276.228C151.429 275.398 151.608 274.938 152.068 274.668C152.809 274.208 153.449 272.738 153.449 271.447C153.449 270.157 154.369 268.047 155.469 266.757C158.049 263.817 158.049 263.077 155.469 261.426C153.359 260.136 152.709 255.716 154.369 253.966C155.929 252.225 155.929 249.095 154.089 244.955C153.169 242.844 152.618 240.634 152.899 240.264C153.449 239.344 157.219 239.994 159.059 241.184C159.61 241.555 163.29 241.835 167.25 241.835C173.591 241.735 174.421 241.555 174.601 239.714C174.781 238.244 173.861 237.144 171.201 235.854C169.27 234.844 167.15 234.294 166.69 234.564C166.23 234.844 165.4 234.384 164.67 233.644C163.93 232.634 162.46 232.354 160.619 232.724C159.149 233.004 155.199 232.724 151.788 231.993C148.478 231.343 144.798 230.883 143.698 230.973C140.477 231.253 138.917 231.163 134.687 230.513C134.126 230.423 133.487 230.332 132.657 230.332ZM144.068 240.723L146.178 243.113C147.378 244.494 148.388 246.244 148.478 246.984C148.478 247.804 148.669 249.184 148.669 250.194C148.759 251.114 148.018 252.134 147.009 252.314C145.359 252.594 144.798 252.045 145.168 250.104C145.259 249.644 144.799 248.544 144.248 247.804C143.518 247.073 143.418 246.334 144.068 245.964C144.618 245.604 144.799 244.314 144.618 243.023L144.068 240.723Z" fill="#808080"/>
<path fill-rule="evenodd" clip-rule="evenodd" d="M231.078 610.195C231.627 610.195 232.088 610.655 232.088 611.205C232.088 611.765 231.628 612.215 231.078 612.215C230.527 612.215 230.068 611.764 230.068 611.205C230.068 610.655 230.528 610.195 231.078 610.195ZM128.886 609.915C129.257 609.825 129.446 610.284 129.446 611.205C129.446 613.505 129.256 613.695 128.336 612.125C127.967 611.485 128.067 610.655 128.616 610.105C128.707 610.014 128.797 609.915 128.886 609.915ZM189.683 607.064C190.513 607.064 191.253 607.524 191.253 608.174C191.253 608.724 190.704 609.185 190.143 609.185C189.594 609.185 189.323 609.554 189.594 610.015C189.874 610.475 189.414 610.835 188.583 610.835C187.663 610.835 187.293 610.284 187.663 609.365C187.943 608.634 188.123 607.714 188.123 607.524C188.123 607.255 188.853 607.064 189.683 607.064ZM201.644 605.134C202.385 605.134 203.485 605.414 204.775 605.964C206.425 606.615 206.425 606.704 204.405 607.984C203.205 608.725 202.565 608.815 202.935 608.175C203.295 607.615 202.935 607.065 202.015 607.065C201.185 607.065 200.445 606.615 200.445 606.055C200.445 605.505 200.814 605.224 201.644 605.134ZM231.718 603.024C231.908 603.024 232.087 603.664 232.087 604.584C232.087 605.414 231.627 606.054 231.167 606.054C230.618 606.054 230.337 605.414 230.707 604.584C230.977 603.664 231.448 603.024 231.718 603.024ZM158.97 603.024C159.79 603.024 160.71 603.484 161.08 604.034C161.45 604.584 160.81 605.044 159.61 605.044C158.41 605.044 157.49 604.584 157.49 604.034C157.49 603.484 158.139 603.024 158.97 603.024ZM89.5221 603.024C89.7125 603.024 90.2621 603.484 90.5322 604.034C90.9018 604.584 90.7226 605.044 90.1721 605.044C89.5216 605.044 89.062 604.584 89.062 604.034C89.062 603.484 89.2524 603.024 89.5221 603.024ZM151.059 602.744C151.328 602.744 151.519 602.744 151.699 602.744C152.709 602.744 153.449 603.024 153.449 603.664C153.449 604.404 152.619 605.044 151.609 605.044C150.229 605.044 150.139 605.324 151.239 605.964C152.249 606.615 152.069 606.974 150.499 607.344C148.109 607.984 145.999 606.144 147.099 604.404C147.749 603.484 149.589 602.834 151.059 602.744ZM140.478 602.474C140.938 602.474 141.588 602.654 142.138 603.025C142.958 603.485 143.418 604.125 143.148 604.495C142.868 604.775 141.948 604.585 141.118 604.035C140.387 603.575 139.928 602.835 140.208 602.565C140.298 602.565 140.388 602.565 140.478 602.474ZM100.653 602.284C100.833 602.374 101.293 602.834 102.123 603.754C103.694 605.594 104.884 605.964 107.184 605.504C108.844 605.135 110.494 605.324 110.864 605.784C111.144 606.335 110.124 607.434 108.654 608.354C105.524 610.105 101.293 609.185 101.293 606.704C101.293 605.874 101.024 604.404 100.653 603.394C100.473 602.564 100.384 602.194 100.653 602.284ZM122.816 602.194C123.836 602.284 124.846 603.204 124.846 604.584C124.846 606.515 123.366 606.515 121.806 604.675C120.976 603.665 120.976 603.025 121.716 602.565C121.996 602.285 122.456 602.194 122.816 602.194ZM222.617 602.004C221.787 602.004 220.597 602.654 219.856 603.484C218.846 604.774 218.846 605.044 220.126 605.044C220.956 605.044 222.246 604.404 222.886 603.484C223.897 602.284 223.897 602.004 222.617 602.004ZM137.447 601.094C137.627 601.094 137.807 601.363 138.178 601.734C138.918 602.374 139.188 603.204 138.918 603.574C138.638 603.844 137.998 603.294 137.628 602.284C137.258 601.364 137.258 601.004 137.447 601.094ZM161.54 601.003C162.09 601.003 162.65 601.453 162.65 602.003C162.65 602.563 162.46 603.024 162.19 603.024C161.91 603.024 161.45 602.563 161.08 602.003C160.71 601.453 160.9 601.003 161.54 601.003ZM95.2227 601.003C95.5923 601.003 96.2428 601.643 96.6028 602.473C96.8829 603.394 96.6028 604.034 95.7827 604.034C95.0427 604.034 94.4926 603.394 94.4926 602.473C94.4926 601.643 94.8618 601.003 95.2227 601.003ZM259.041 596.033C259.13 596.033 259.221 596.033 259.31 596.123C259.59 596.493 259.68 597.323 259.4 598.053C259.04 598.883 258.85 598.693 258.76 597.504C258.76 596.674 258.851 596.123 259.041 596.033ZM252.14 594.282C254.99 594.373 257.561 594.653 257.291 595.293C257.111 595.843 257.56 598.423 258.301 600.813C259.401 604.584 259.311 605.594 258.211 606.704C256.551 608.354 256.641 608.354 254.341 606.974C253.341 606.424 252.51 605.043 252.51 603.943C252.51 602.833 252.141 602.103 251.68 602.283C250.48 602.653 244.96 595.942 245.79 595.112C246.44 594.462 249.38 594.282 252.14 594.282ZM189.223 591.802C188.123 591.802 188.403 592.442 190.233 594.282C192.813 596.853 195.294 597.593 195.294 595.943C195.294 594.653 191.153 591.802 189.223 591.802ZM164.12 591.802C162.74 591.802 161.63 592.162 161.63 592.533C161.63 592.993 162.74 593.453 164.12 593.643C165.59 593.733 166.691 593.363 166.691 592.813C166.691 592.262 165.59 591.802 164.12 591.802ZM228.957 589.682C227.487 589.682 226.107 594.102 226.657 597.043C227.208 599.803 229.608 600.533 230.528 598.053C231.358 596.123 230.068 589.682 228.957 589.682ZM139.738 586.652C138.828 586.652 138.087 587.382 138.087 588.302C138.087 590.052 140.298 589.772 140.938 587.842C141.118 587.202 140.568 586.652 139.738 586.652ZM142.508 585.822C142.317 585.822 142.228 586.282 142.228 587.292C142.228 588.402 142.508 589.682 142.868 590.052C144.068 591.332 144.248 590.052 143.328 587.572C142.868 586.462 142.598 585.912 142.508 585.822ZM229.058 585.631C228.497 585.631 228.037 586.101 228.037 586.741C228.037 587.292 228.497 587.472 229.058 587.201C229.607 586.832 230.068 586.371 230.068 586.101C230.068 585.821 229.608 585.631 229.058 585.631ZM119.605 585.631C118.225 585.631 118.495 588.492 119.965 589.042C120.615 589.222 121.626 589.222 122.086 589.042C123.006 588.491 120.886 585.631 119.605 585.631ZM160.99 584.631C159.15 584.631 156.85 590.052 158.51 590.602C159.059 590.782 159.61 591.712 159.61 592.622C159.61 595.202 161.17 592.162 161.91 587.931C162.461 585.361 162.19 584.631 160.99 584.631ZM105.984 583.981C105.164 583.981 104.704 584.25 104.974 584.721C105.524 585.731 99.7332 588.851 98.9031 587.931C98.5431 587.661 98.263 588.121 98.263 589.041C98.263 590.421 98.7231 590.511 100.833 589.681C102.313 589.132 103.964 588.951 104.424 589.221C104.973 589.592 105.064 589.132 104.793 588.211C104.333 587.201 104.603 586.741 105.433 586.921C106.174 587.021 106.904 586.461 107.184 585.541C107.374 584.631 106.814 583.981 105.984 583.981ZM132.757 583.801C132.297 583.891 131.927 584.441 131.927 585.181C131.927 586.101 132.387 586.651 132.937 586.461C134.507 586.001 134.687 584.351 133.217 583.891C133.126 583.8 133.026 583.8 132.937 583.8C132.937 583.8 132.846 583.801 132.757 583.801ZM155.929 582.05C154.919 582.23 154.369 583.151 155.109 583.981C156.019 584.901 157.31 584.811 157.96 583.701C158.229 583.151 157.86 582.51 157.04 582.23C156.67 582.05 156.209 582.05 155.929 582.05ZM182.972 578.46C182.422 578.46 182.242 578.92 182.512 579.47C182.882 580.021 183.342 580.49 183.622 580.49C183.892 580.49 184.073 580.021 184.073 579.47C184.073 578.92 183.622 578.46 182.972 578.46ZM211.766 577.64C212.126 577.54 212.496 577.64 212.866 577.82C213.696 578.09 213.506 578.37 212.315 578.37C211.205 578.46 210.565 578.19 210.935 577.91C211.115 577.729 211.396 577.64 211.766 577.64ZM122.176 577.27C121.716 577.27 121.166 577.73 120.886 578.46C120.706 579.02 121.346 579.47 122.266 579.47C123.186 579.47 123.746 578.921 123.556 578.19C123.276 577.54 122.726 577.17 122.176 577.27ZM195.664 576.81C195.394 576.81 195.114 576.901 194.744 576.901C193.644 577.081 192.263 577.361 191.713 577.361C191.153 577.45 191.433 577.91 192.264 578.461C194.104 579.751 195.394 579.751 197.224 578.641C198.705 577.641 197.784 576.72 195.664 576.81ZM97.983 574.97C96.3328 574.97 94.8626 575.34 93.9425 576.16C92.5624 577.36 91.8223 577.45 90.7222 576.62C89.9821 575.98 89.062 575.7 88.692 576.071C88.0519 576.72 80.7811 578.461 77.2907 578.831C74.5304 579.111 72.5102 580.491 73.2402 581.681C73.8907 582.691 92.4724 582.051 94.2126 580.951C94.7726 580.671 95.9628 581.131 96.8829 582.051C98.443 583.611 98.7231 583.611 100.933 580.951C102.313 579.471 103.324 577.82 103.324 577.36C103.324 575.79 100.563 574.97 97.983 574.97ZM155.839 573.4C155.659 573.4 155.47 574.05 155.47 574.87C155.47 575.79 155.93 576.44 156.49 576.44C157.04 576.44 157.22 575.79 156.85 574.87C156.58 574.05 156.109 573.4 155.839 573.4ZM167.801 572.76C166.971 572.85 165.961 572.85 164.85 573.04C160.16 573.59 159.52 573.96 159.52 576.07C159.52 578.74 161.08 580.021 162.83 578.83C163.47 578.461 165.31 577.91 166.871 577.82C169.911 577.45 171.841 579.661 171.841 583.521C171.841 586.191 173.861 586.281 174.601 583.701C174.881 582.601 176.442 581.131 178.002 580.491C179.662 579.841 181.042 578.92 181.042 578.55C181.042 578.19 178.562 576.62 175.612 575.15C172.121 573.4 170.371 572.76 167.801 572.76ZM135.417 572.67C135.327 572.76 135.148 572.76 135.057 572.85C134.507 573.22 134.037 573.68 134.037 573.96C134.037 574.23 134.507 574.42 135.057 574.42C135.608 574.42 136.067 573.87 136.067 573.31C136.067 572.85 135.788 572.67 135.417 572.67ZM151.699 572.39C148.569 572.39 145.258 574.42 145.258 576.251C145.258 576.991 146.088 577.081 148.109 576.351C149.769 575.791 151.699 575.43 152.439 575.61C153.17 575.791 153.999 575.15 154.179 574.14C154.459 572.76 153.909 572.39 151.699 572.39ZM129.997 572.3C129.806 572.3 129.536 572.39 129.346 572.67C128.986 572.94 129.076 573.77 129.536 574.51C130.177 575.61 130.357 575.52 130.727 574.51C131.096 573.4 130.637 572.39 129.997 572.3ZM213.046 569.079C213.415 569.17 213.786 570.189 213.966 571.93C214.606 576.9 214.246 577.36 212.956 573.59C212.316 571.93 212.216 569.999 212.686 569.359C212.776 569.079 212.955 569.079 213.046 569.079ZM236.588 564.669C236.588 564.669 236.688 564.669 236.779 564.669C237.148 564.758 237.329 565.129 237.609 565.679C237.879 566.509 237.699 567.239 237.059 567.239C236.499 567.239 236.229 567.979 236.589 568.809C236.869 569.629 237.059 570.279 236.969 570.189C233.748 569.079 233.188 567.239 235.579 565.309C235.948 564.939 236.318 564.758 236.588 564.669ZM167.701 563.199C167.15 563.199 166.691 563.649 166.691 564.209C166.691 564.758 167.151 565.219 167.701 565.219C168.25 565.219 168.711 564.759 168.711 564.209C168.711 563.649 168.251 563.199 167.701 563.199ZM149.309 563.199C148.479 563.199 147.288 565.679 147.288 567.329C147.288 568.439 147.648 568.439 149.679 567.699C151.149 567.149 150.879 563.199 149.309 563.199ZM236.228 558.038C236.778 558.038 236.868 558.778 236.588 559.608C236.228 560.438 235.578 561.078 235.128 561.078C234.659 561.078 234.479 560.438 234.759 559.608C235.128 558.778 235.768 558.038 236.228 558.038ZM77.6607 543.236C77.2911 543.327 77.1103 543.697 77.1103 544.247C77.1103 545.077 77.4807 545.807 77.9304 545.807C78.4 545.807 78.8505 545.347 78.8505 544.797C78.8505 544.337 78.4 543.607 77.9304 543.326C77.84 543.236 77.7503 543.236 77.6607 543.236ZM221.237 541.026C221.146 541.026 221.046 541.117 220.867 541.217C220.317 541.486 219.857 542.037 219.857 542.317C219.857 542.497 220.317 542.686 220.867 542.686C221.417 542.686 221.877 542.226 221.877 541.666C221.877 541.216 221.597 540.936 221.237 541.026ZM118.585 539.556C116.565 539.556 115.095 548.937 116.475 552.988C117.395 555.658 117.305 556.018 115.555 556.018C113.165 556.018 112.885 557.588 115.095 558.408C115.925 558.778 116.655 559.788 116.655 560.708C116.655 561.819 117.206 562.089 118.225 561.719C119.135 561.359 120.335 561.079 120.796 561.079C121.345 561.079 121.716 559.878 121.716 558.498C121.716 557.028 122.456 554.548 123.366 552.798C124.196 551.057 124.746 549.027 124.386 548.207C124.106 547.377 124.196 546.917 124.746 547.277C125.216 547.557 126.126 547.097 126.866 546.277C127.696 545.257 127.786 544.797 126.957 544.797C126.317 544.797 125.856 543.877 125.856 542.866C125.856 541.576 124.936 540.756 123.006 540.386C121.436 540.196 119.506 539.736 118.776 539.556C118.685 539.556 118.585 539.556 118.585 539.556ZM207.895 537.996C207.255 538.086 207.526 539.646 208.815 541.216C210.655 543.237 211.666 543.057 211.666 540.476C211.666 539.286 211.396 538.546 211.026 538.916C210.656 539.286 209.735 539.096 209.005 538.546C208.545 538.086 208.175 537.996 207.895 537.996ZM152.989 536.896C154.369 536.796 156.489 538.546 156.489 540.016C156.389 540.656 155.749 540.296 154.829 539.096C153.359 537.166 153.359 537.166 153.819 539.926C154.369 543.057 154.279 543.237 152.619 541.486C151.059 540.016 150.969 537.896 152.439 537.076C152.619 536.985 152.808 536.896 152.989 536.896ZM113.625 536.705C113.345 536.705 112.974 536.795 112.795 536.985C112.515 537.345 113.075 537.536 114.175 537.536C115.365 537.445 115.555 537.256 114.815 536.896C114.455 536.796 113.985 536.705 113.625 536.705ZM96.7028 534.955C96.4228 534.955 96.1428 535.045 95.8728 535.135C94.4026 535.695 94.4026 535.965 95.7823 538.086C97.1525 540.196 97.1525 540.476 95.2223 540.936C93.5721 541.396 93.1121 541.025 93.1121 539.466C93.1121 537.996 92.652 537.626 91.4519 537.996C90.6218 538.365 89.2516 538.636 88.4215 538.636C87.5914 538.636 86.9514 539.556 86.9514 540.656C86.9514 541.856 85.8413 544.616 84.3711 546.917C81.8908 550.777 81.6108 550.957 79.9606 549.487C77.8404 547.557 76.7403 547.377 76.7403 548.937C76.7403 549.487 76.1002 550.687 75.2701 551.607C74.35 552.438 73.9799 553.538 74.35 554.088C74.63 554.637 74.25 555.928 73.4299 556.848C72.5998 557.768 72.0497 559.978 72.1397 561.629C72.5094 566.409 72.7902 566.869 73.6999 564.479C74.2504 563.199 75.8201 561.719 77.2003 561.169C80.9707 559.698 87.1314 560.798 88.7916 563.199C89.5221 564.299 91.0018 565.219 92.0019 565.219C93.0221 565.219 94.4922 565.949 95.2223 566.779C95.9624 567.699 96.7925 567.979 97.1525 567.33C97.5229 566.69 98.3526 566.69 99.2727 567.239C100.103 567.79 101.113 568.259 101.573 568.259C102.953 568.259 102.313 563.469 100.743 562.179C99.9128 561.448 99.5528 560.348 100.012 559.698C100.382 559.058 100.833 557.858 100.933 557.028C102.123 546.547 102.213 543.787 101.293 543.237C100.742 542.867 100.282 541.306 100.282 539.736C100.282 536.796 98.6331 534.775 96.7028 534.955ZM193.274 533.485C193.824 533.485 194.284 533.945 194.284 534.495C194.284 535.045 193.824 535.695 193.274 536.065C192.724 536.425 192.263 535.965 192.263 535.135C192.263 534.225 192.723 533.485 193.274 533.485ZM243.029 532.935C243.219 532.935 243.399 533.025 243.769 533.115C244.689 533.485 245.149 534.226 244.779 534.776C244.41 535.416 244.87 535.516 246.159 535.136C247.35 534.776 248.55 534.956 248.92 535.516C249.29 536.156 248.92 536.616 248.09 536.616C247.26 536.616 246.349 537.256 246.069 538.086C245.329 539.926 243.489 540.106 241.289 538.636C239.999 537.716 239.999 537.446 241.649 536.155C242.669 535.325 243.309 534.225 242.939 533.575C242.669 533.215 242.669 532.935 243.029 532.935ZM240.089 532.835C241.009 532.835 241.009 533.115 240.179 533.575C238.439 534.776 237.519 534.776 236.869 533.766C236.589 533.396 237.609 532.936 238.989 532.836C239.449 532.836 239.819 532.835 240.089 532.835ZM226.567 532.475H228.867C230.428 532.475 230.978 532.935 230.528 533.765C229.877 534.776 230.068 534.776 231.168 533.765C233.288 531.735 234.848 532.285 236.138 535.516C237.788 539.286 237.238 544.157 235.488 542.226C234.848 541.486 234.388 539.556 234.478 537.996C234.658 535.696 234.298 535.136 232.918 535.326C231.907 535.516 230.067 534.956 228.777 534.036L226.567 532.475ZM122.816 530.455C121.536 530.455 120.615 532.105 121.436 532.835C122.546 534.035 123.746 533.575 123.746 532.015C123.746 531.185 123.366 530.455 122.816 530.455ZM215.806 527.415C216.366 527.415 216.816 528.335 216.816 529.435C216.816 530.545 216.636 531.465 216.366 531.465C216.176 531.465 215.806 530.545 215.436 529.435C215.166 528.335 215.346 527.415 215.806 527.415ZM206.515 526.405C205.965 526.405 205.505 527.325 205.505 528.425C205.505 529.535 205.965 530.455 206.515 530.455C207.165 530.455 207.625 529.535 207.625 528.425C207.625 527.325 207.165 526.405 206.515 526.405ZM138.918 523.364C138.827 523.364 138.548 523.644 138.087 524.284C137.537 525.205 137.077 526.225 137.077 526.685C137.077 527.134 137.537 527.234 138.087 526.865C138.637 526.495 139.098 525.485 139.098 524.474C139.098 523.734 139.098 523.364 138.918 523.364ZM84.8315 523.274C85.2916 523.274 85.6616 524.014 85.6616 524.844C85.6616 526.584 85.5712 526.684 84.5615 525.664C83.6414 524.754 83.7318 523.274 84.8315 523.274ZM201.915 522.444C202.195 522.444 202.745 522.544 203.665 522.814C211.396 525.295 213.236 526.225 213.046 527.785C212.956 528.705 213.326 529.435 213.876 529.435C214.336 529.435 214.706 530.355 214.706 531.465C214.706 533.856 219.206 537.076 220.957 535.966C221.877 535.516 222.067 535.876 221.597 537.446C221.327 538.636 221.697 540.106 222.427 540.656C224.087 542.036 225.097 545.807 223.807 545.807C223.347 545.807 222.887 545.347 222.887 544.797C222.887 544.157 222.427 543.697 221.787 543.697C221.236 543.697 221.047 544.157 221.327 544.617C221.596 545.167 221.236 546.087 220.497 546.727C219.576 547.467 218.846 547.557 218.656 546.917C218.476 546.367 216.916 545.627 215.256 545.167C212.216 544.527 212.216 544.527 214.246 546.457C215.806 547.927 216.366 549.588 216.266 553.718C216.266 556.668 215.896 559.059 215.346 559.059C214.886 559.059 214.706 559.879 214.986 560.989C215.256 561.999 214.986 563.559 214.335 564.479C213.235 565.949 212.955 565.859 211.855 564.119C211.115 562.919 209.925 562.369 208.815 562.739C207.165 563.29 207.165 563.29 208.815 562.179C209.825 561.539 211.025 561.169 211.395 561.449C211.855 561.718 212.315 560.798 212.405 559.518C212.585 558.138 212.775 555.838 212.956 554.458C213.045 553.078 213.505 551.888 213.966 551.888C215.626 551.888 214.606 550.137 210.655 545.997C208.355 543.607 205.785 541.666 204.955 541.666C204.224 541.666 203.485 541.397 203.395 540.936C203.025 537.626 203.205 533.485 203.845 530.635C204.496 528.244 204.225 526.584 203.025 524.754C201.915 523.094 201.554 522.444 201.915 522.444ZM119.135 520.614C118.586 520.704 117.755 522.634 117.305 525.854C116.755 529.625 116.845 529.805 118.225 527.964C119.045 526.864 119.695 524.564 119.695 522.914C119.695 521.344 119.505 520.614 119.135 520.614ZM139.008 517.203C138.457 517.203 138.267 517.663 138.637 518.213C138.917 518.764 139.467 519.233 139.647 519.233C139.927 519.233 140.117 518.764 140.117 518.213C140.117 517.664 139.648 517.203 139.008 517.203ZM169.181 514.083C169.541 514.083 169.731 514.353 169.731 515.003C169.731 515.463 169.181 516.463 168.35 517.113C167.15 518.123 166.97 517.943 167.43 516.193C167.7 514.903 168.621 514.083 169.181 514.083ZM161.26 512.143C161.91 512.143 162.83 512.512 163.1 513.063C163.471 513.623 163.291 514.903 162.651 515.923C161.63 517.483 161.45 517.483 161.91 515.463C162.19 514.173 161.91 512.973 161.261 512.703C160.441 512.333 160.44 512.243 161.26 512.143ZM104.514 511.043C103.234 511.043 103.324 511.323 104.794 512.973C105.984 514.353 106.174 515.183 105.434 515.643C104.604 516.103 104.604 516.743 105.524 517.853C106.544 519.043 106.904 518.953 108.195 517.113C109.485 515.273 109.485 514.813 107.925 512.973C106.905 511.963 105.434 511.043 104.514 511.043ZM109.024 510.032C108.474 510.032 108.844 510.763 109.854 511.503C110.954 512.333 111.875 513.983 111.965 515.093C112.054 516.283 113.075 517.853 114.175 518.673C116.475 520.334 116.755 520.144 118.225 515.823C119.045 513.433 120.065 512.513 121.806 512.513C125.946 512.333 126.866 512.143 126.866 511.133C126.866 509.852 115.465 510.032 113.805 511.323C112.885 512.053 112.055 512.053 111.234 511.233C110.584 510.583 109.574 510.032 109.024 510.032ZM133.767 509.572C132.757 509.572 131.737 509.942 131.187 510.673C129.717 512.703 130.447 513.983 132.207 512.243C133.127 511.323 133.677 511.783 134.687 514.083C135.607 516.373 136.337 516.933 138.087 516.463C139.288 516.194 140.018 515.363 139.838 514.723C139.558 514.083 139.838 512.793 140.298 511.783C140.847 510.673 140.847 510.032 140.207 510.032C139.647 510.032 138.737 510.863 138.177 511.783C137.257 513.343 137.167 513.433 137.077 511.963C137.077 510.402 135.417 509.482 133.767 509.572ZM151.429 509.022C150.878 509.022 150.229 509.482 149.859 510.032C149.499 510.583 149.949 511.042 150.779 511.042C151.699 511.042 152.439 510.582 152.439 510.032C152.439 509.482 151.979 509.022 151.429 509.022ZM147.288 508.562L145.718 510.862C144.798 512.052 144.338 513.532 144.708 514.173C145.818 515.823 147.288 514.173 147.288 511.232V508.562ZM192.813 504.882C193.914 504.882 194.284 505.432 193.914 506.442C193.554 507.362 193.914 508.012 194.934 508.012C196.404 508.012 196.404 508.192 195.203 509.662C193.913 511.232 194.013 511.322 195.663 510.672C196.764 510.312 197.224 510.403 196.864 511.042C196.494 511.592 195.293 512.052 194.103 512.052C192.903 512.052 191.343 512.882 190.513 513.802C189.683 514.812 189.323 515.002 189.782 514.262C190.422 512.882 190.792 511.042 191.063 506.721C191.153 505.711 191.983 504.882 192.813 504.882ZM175.802 497.711C176.351 497.711 177.082 498.261 177.452 498.811C178.562 500.561 177.632 500.741 176.162 499.18C175.432 498.44 175.252 497.711 175.802 497.711ZM143.148 494.12C142.318 494.03 141.118 494.21 139.288 494.58C139.008 494.67 139.378 495.311 140.118 496.141C141.308 497.611 143.518 497.801 143.978 496.421C144.529 494.86 144.438 494.12 143.148 494.12ZM135.607 490.99C134.957 490.99 134.227 491.27 133.397 492C132.657 492.74 132.757 493.57 133.857 494.76C136.337 497.711 139.378 495.22 137.347 492C136.898 491.27 136.247 490.9 135.607 490.99ZM141.768 490.62C140.848 490.62 140.118 491.08 140.118 491.64C140.118 492.19 140.568 492.651 141.118 492.651C141.588 492.651 142.318 492.191 142.688 491.64C143.058 491.08 142.598 490.62 141.768 490.62ZM94.5826 489.34C95.1323 489.34 96.0528 489.891 97.803 491.27C102.313 494.671 106.264 495.131 108.474 492.281C110.214 490.26 112.615 490.62 112.425 492.921C112.425 493.841 112.245 493.841 111.874 492.921C110.954 490.62 109.664 491.55 108.474 495.221C107.274 498.721 106.994 498.901 100.103 500.281C98.2626 500.561 96.7925 498.261 97.8026 496.601C98.0826 496.141 97.6121 495.681 96.7925 495.681C94.8622 495.681 94.6722 496.881 96.4228 498.631C97.3429 499.541 97.3429 500.091 96.4228 501.022C95.6827 501.662 95.1327 501.942 95.1327 501.572C95.1327 501.202 94.2126 501.572 93.1124 502.582C92.0023 503.502 91.0922 505.152 91.0922 506.172C91.0922 507.273 90.6226 509.023 89.9821 510.123C88.692 512.603 86.9518 512.603 86.9518 510.032C86.9518 508.932 87.5918 508.012 88.2319 508.012C89.152 507.922 89.062 507.643 88.0519 506.992C87.1318 506.442 86.9518 505.892 87.5022 505.892C88.1423 505.892 88.6924 504.702 88.7924 503.222C88.9724 501.752 89.7125 499.091 90.5326 497.431C91.4527 495.771 92.1027 493.751 92.1027 493.011C92.1027 492.28 92.5628 491.64 93.1128 491.64C93.6633 491.64 94.123 490.9 94.123 489.98C94.123 489.611 94.3026 489.34 94.5826 489.34ZM135.147 479.309C134.597 479.309 133.857 479.769 133.487 480.419C133.127 480.97 133.307 481.429 133.857 481.429C134.406 481.429 135.147 480.969 135.507 480.419C135.876 479.769 135.698 479.309 135.147 479.309ZM112.335 470.118C112.884 470.118 113.255 472.228 113.165 474.709C113.165 477.569 112.705 479.309 111.965 479.309C110.314 479.309 109.304 483.54 110.584 485.11C111.324 485.93 111.324 486.58 110.584 487.04C109.944 487.31 109.484 486.95 109.484 486.02C109.484 485.11 109.024 484.65 108.374 485.01C106.444 486.21 108.565 479.959 110.584 478.489C112.975 476.739 113.165 475.079 110.864 475.999C109.394 476.549 109.394 476.279 110.584 474.159C111.324 472.778 111.875 471.308 111.785 470.938C111.594 470.478 111.875 470.118 112.335 470.118ZM157.59 467.998C158.05 467.908 158.41 468.918 158.69 471.128C158.97 472.968 158.51 473.799 157.22 474.069C155.659 474.338 155.469 473.978 156.109 471.498C156.669 469.198 157.13 467.998 157.59 467.998ZM157.49 465.057C158.05 465.057 158.51 465.238 158.51 465.518C158.51 465.698 158.05 466.248 157.49 466.618C156.939 466.898 156.489 466.707 156.489 466.158C156.489 465.518 156.939 465.057 157.49 465.057ZM117.945 462.207C117.395 462.298 117.025 463.677 116.195 467.358C115.835 469.008 116.015 470.118 116.565 470.118C117.205 470.118 117.665 469.288 117.665 468.278C117.665 467.258 118.225 465.888 118.865 465.238C119.785 464.317 119.785 463.767 118.865 462.847C118.495 462.477 118.225 462.207 117.945 462.207ZM157.13 460.367C157.22 460.367 157.22 460.367 157.31 460.367C157.4 460.367 157.4 460.367 157.49 460.457C158.05 460.827 158.51 461.737 158.51 462.567C158.51 463.397 158.05 464.047 157.49 464.047C156.939 464.047 156.489 463.027 156.489 461.927C156.489 461.007 156.759 460.457 157.13 460.367ZM111.415 450.886C111.784 450.886 112.155 451.076 112.425 451.536C113.625 453.556 122.816 453.836 125.946 451.996C129.807 449.785 132.387 450.986 131.377 454.566C130.267 458.706 130.087 465.057 131.007 468.187C131.467 469.928 131.277 471.408 130.637 472.138C129.807 472.968 129.906 473.238 130.827 473.238C131.558 473.238 131.837 473.698 131.467 474.248C130.177 476.278 131.927 479.129 134.127 478.579C136.898 477.839 138.268 473.978 137.078 470.668C136.528 469.288 136.528 468.087 136.988 468.087C138.828 468.087 137.538 462.937 135.608 462.387C133.768 461.736 133.768 461.647 136.158 460.367C137.448 459.627 139.378 458.986 140.388 458.986C141.398 458.896 142.138 458.436 142.138 457.786C142.138 457.146 142.778 456.966 143.608 457.237C144.439 457.517 145.359 457.146 145.629 456.317C146.459 454.206 150.319 454.936 150.879 457.327C152.249 463.307 152.99 471.128 152.249 471.408C151.239 471.768 152.529 477.109 153.72 477.569C154.18 477.659 154.92 477.199 155.38 476.459C156.02 475.449 156.76 475.359 158.23 476.189C159.98 477.109 160.26 478.209 160.16 483.63L160.071 490.071L157.04 489.801C154.18 489.611 154.09 489.701 155.75 490.991C158.511 493.111 157.86 493.571 152.53 493.111C148.759 492.831 147.379 493.111 146.919 494.212C146.55 495.222 147.01 495.682 148.299 495.682C149.31 495.682 150.5 496.242 150.97 496.792C151.33 497.432 152.53 497.712 153.63 497.432C154.83 497.062 156.39 497.522 157.22 498.352C158.881 500.002 161.631 500.282 161.631 498.812C161.631 498.162 163.471 497.712 165.681 497.712C170.092 497.712 172.672 499.542 175.342 504.793C177.633 509.293 176.533 511.323 171.932 510.583C166.231 509.663 159.151 509.203 157.86 509.663C157.13 509.943 156.85 512.604 157.22 517.304C157.59 523.465 157.31 524.755 155.75 525.855C154.09 527.135 154.18 527.235 157.04 527.965C158.691 528.336 160.441 529.255 160.901 529.805C161.451 530.636 162.001 530.456 162.921 529.436C163.661 528.516 165.401 528.056 167.432 528.246C170.462 528.515 170.832 528.246 170.832 525.945C170.832 524.475 170.372 523.275 169.732 523.275C169.182 523.275 168.712 523.735 168.712 524.285C168.712 524.936 167.892 525.295 166.781 525.295C164.941 525.295 164.941 525.115 166.321 522.265C168.162 518.675 168.072 518.675 170.282 520.885C171.572 522.085 172.212 522.265 173.312 521.255C174.142 520.614 175.892 520.244 177.273 520.424C178.563 520.615 180.493 520.144 181.413 519.324C182.793 518.124 183.063 518.214 183.063 519.504C183.063 520.424 182.053 521.435 180.953 521.805C179.473 522.265 178.923 523.095 179.293 524.285C179.753 526.315 178.373 529.435 176.903 529.435C176.352 529.435 174.142 530.546 171.932 531.926C169.082 533.676 167.802 535.326 167.342 537.806C166.972 539.737 166.321 540.657 165.871 540.107C165.502 539.467 163.931 538.636 162.461 538.266C160.991 537.897 159.061 536.426 158.141 535.046C156.11 531.926 153.08 531.736 150.14 534.496C148.019 536.427 148.019 536.897 149.31 540.387C150.05 542.497 150.6 545.538 150.6 547.188C150.5 548.938 151.24 550.778 152.44 551.788C153.91 552.988 154.46 554.919 154.64 559.239C154.831 563.84 155.291 565.22 156.67 565.59C157.68 565.77 158.781 565.59 159.151 565.039C159.431 564.579 160.621 564.389 161.721 564.759C162.741 565.039 163.661 564.939 163.661 564.39C163.661 563.84 162.461 563.1 161.081 562.74C158.881 562.179 158.601 561.629 158.691 557.489C158.781 555.009 159.151 552.618 159.701 552.338C160.161 552.069 160.531 552.338 160.531 552.988C160.531 553.539 160.991 553.818 161.451 553.539C161.911 553.269 162.091 553.999 161.911 555.289C161.541 557.129 161.911 557.589 163.571 557.589C164.761 557.589 165.681 557.309 165.681 556.849C165.681 555.559 163.201 550.408 162.281 549.768C160.711 548.668 160.261 541.027 161.63 540.107C162.551 539.557 162.741 540.017 162.371 542.037C161.911 544.528 162.091 544.708 164.021 544.158C165.221 543.788 167.981 541.767 170.091 539.557C172.212 537.347 174.972 535.327 176.162 535.046C178.562 534.406 182.423 528.886 181.503 527.416C181.223 526.956 181.683 526.316 182.513 526.035C183.343 525.666 184.723 523.825 185.543 521.805C187.023 518.215 188.493 517.305 189.594 519.135C189.963 519.595 189.594 520.245 188.764 520.525C187.853 520.885 187.573 522.265 187.853 524.755C188.213 528.156 188.033 528.516 185.183 529.076C181.503 529.806 181.223 531.646 184.353 534.776L186.653 537.077L186.923 533.306C187.203 530.356 187.573 529.716 188.493 530.636C189.963 532.016 189.413 539.837 187.753 540.937C186.923 541.487 187.022 541.668 187.853 541.668C189.043 541.668 188.953 542.688 187.383 546.828C186.193 549.948 186.283 557.949 187.574 559.61C188.584 561.08 188.494 561.82 186.464 563.93L184.173 566.41L186.374 569.361C188.494 572.301 188.584 572.301 190.424 570.281C191.434 569.171 192.534 568.261 192.814 568.261C194.014 568.261 197.135 571.751 196.675 572.581C196.405 573.041 197.595 574.051 199.345 574.691C201.095 575.342 202.475 576.622 202.475 577.642C202.475 579.472 205.136 580.852 206.706 579.932C207.256 579.572 207.346 580.392 206.975 582.052C206.335 584.632 206.425 584.722 208.446 583.432C209.646 582.692 210.656 581.502 210.656 580.762C210.656 580.122 211.576 579.472 212.686 579.472C213.786 579.472 214.706 579.112 214.706 578.552C214.706 578.092 216.087 578.192 217.827 578.832C219.487 579.472 220.867 580.672 220.867 581.502C220.957 582.882 221.047 582.882 221.877 581.592C222.707 580.302 222.887 580.302 223.447 581.772C223.897 582.883 224.817 583.253 226.298 582.973C227.578 582.603 229.238 582.323 230.068 582.323C230.888 582.232 232.178 581.503 232.828 580.673C233.928 579.203 234.199 579.203 235.129 580.493C235.679 581.413 236.229 581.593 236.229 581.043C236.229 580.393 236.498 580.393 236.969 581.043C237.969 582.423 245.7 587.024 244.96 585.734C244.6 585.183 245.149 584.904 246.07 585.083C247.08 585.183 248 585.823 248.18 586.463C248.37 587.023 249.2 587.293 249.93 587.023C250.76 586.743 251.59 586.923 251.96 587.473C252.23 588.033 251.86 588.763 251.03 589.043C250.21 589.413 249.29 589.223 249.01 588.763C248.28 587.573 243.029 588.403 241.839 589.963C241.29 590.694 239.449 591.244 237.789 591.064C236.139 590.973 234.199 591.333 233.468 591.894C231.808 593.274 231.718 597.874 233.288 597.874C234.109 597.874 234.109 598.234 233.288 599.254C232.638 599.985 232.358 600.905 232.638 601.185C233.008 601.554 231.808 602.375 230.158 603.115C228.407 603.945 227.027 605.045 227.027 605.685C227.027 607.435 223.897 608.355 222.427 607.065C221.696 606.515 220.407 606.335 219.396 606.705C218.386 607.065 217.186 606.616 216.266 605.415C214.986 603.575 214.796 603.575 212.496 605.785C209.555 608.535 209.005 608.635 208.265 606.515C207.895 605.685 208.085 605.225 208.545 605.505C209.096 605.875 210.015 605.135 210.656 604.035C211.766 601.915 211.576 601.915 205.325 602.195C200.544 602.375 198.884 602.935 198.884 604.035C198.884 605.045 197.684 605.505 195.024 605.595C193.004 605.685 191.253 605.415 191.253 604.865C191.253 604.405 191.713 603.945 192.263 603.945C192.813 603.845 193.734 603.664 194.284 603.484C194.833 603.394 195.754 603.204 196.314 603.115C196.864 603.115 197.324 602.655 197.324 602.195C197.324 601.735 193.914 601.275 189.683 601.095C183.433 600.904 182.052 601.184 182.052 602.475C182.052 603.295 180.762 604.305 179.292 604.675C177.082 605.225 176.162 604.865 174.422 602.655C173.221 601.185 171.381 599.985 170.281 599.985C169.271 599.985 167.611 599.254 166.691 598.424C165.681 597.504 163.1 596.674 160.99 596.394C158.78 596.214 156.76 595.944 156.49 595.754C156.209 595.664 155.559 595.664 155.109 595.754C154.639 595.844 150.879 596.124 146.638 596.394C140.018 596.764 138.828 597.134 136.707 599.524C134.867 601.735 133.767 602.195 131.737 601.645C128.886 600.905 127.046 596.854 129.627 596.854C130.447 596.854 130.917 596.304 130.637 595.574C130.357 594.924 129.537 594.564 128.796 594.744C127.966 594.924 126.586 595.114 125.576 595.014C124.566 595.014 123.836 595.664 123.746 596.674C123.746 598.054 123.555 598.144 122.916 597.043C122.265 596.033 121.806 596.033 121.256 596.763C120.796 597.593 119.965 597.593 118.585 596.854C116.385 595.664 110.494 596.494 110.494 597.964C110.494 598.424 111.325 599.254 112.245 599.894C113.805 600.724 113.625 600.904 111.235 600.904C109.304 601.004 108.564 600.534 109.024 599.804C109.484 599.154 108.934 597.964 107.924 597.224C106.264 596.034 106.174 595.484 107.184 593.823C108.934 590.973 108.744 590.513 106.444 591.803C105.254 592.354 104.334 593.453 104.334 594.193C104.334 595.754 101.293 596.854 96.9729 596.854C95.0427 596.854 94.4026 596.494 94.7727 595.484C95.1327 594.564 94.5823 594.103 92.9325 594.193C91.6423 594.283 90.2622 594.013 89.9822 593.543C89.6117 593.093 87.3219 592.443 84.8316 592.263C74.8105 591.333 73.6103 591.063 72.4202 589.873C71.7697 589.133 71.5901 588.672 72.1402 588.762C74.2504 589.133 75.8206 588.673 75.3605 587.842C75.0805 587.382 73.8004 587.112 72.4202 587.202C71.1301 587.293 69.5699 587.022 68.9198 586.462C68.1893 585.912 67.0796 585.822 66.4395 586.193C65.5194 586.833 65.3394 584.722 65.8891 577.362C66.5292 567.15 67.9993 560.71 70.4896 557.769C71.3097 556.849 71.4997 556.019 71.0401 556.019C69.6599 556.019 70.0199 549.218 71.5897 547.468C72.3298 546.548 72.4198 545.718 71.8594 545.348C69.9291 544.248 71.8594 540.938 74.7197 540.298C79.2202 539.467 82.6205 535.047 81.9805 531.186C81.8901 530.726 82.9006 530.636 84.1907 531.006C85.3909 531.377 87.3211 531.837 88.2312 532.107C89.2513 532.387 90.0714 533.307 90.0714 534.127C90.0714 535.047 90.8115 535.607 91.8216 535.417C94.4018 534.867 98.4423 525.666 98.7223 519.595C98.992 514.265 99.8224 512.604 104.243 508.654C105.623 507.454 108.013 505.254 109.574 503.773C114.454 499.183 119.135 496.973 124.195 496.883C129.166 496.792 130.916 496.243 130.916 494.672C130.916 494.212 128.986 494.032 126.585 494.392C117.204 495.683 117.304 495.773 117.024 490.262C116.844 487.592 117.114 483.361 117.574 480.881C118.134 477.661 118.034 475.73 117.024 474.07C116.284 472.69 115.364 470.85 115.004 469.93C114.634 468.92 113.984 468.37 113.624 468.55C113.164 468.83 113.164 467.259 113.534 464.969C113.984 462.759 113.894 460.639 113.434 460.369C112.883 460.089 112.794 459.359 113.074 458.898C113.434 458.338 113.164 457.878 112.513 457.878C111.593 457.878 111.593 457.518 112.613 456.318C113.624 455.038 113.534 454.568 111.964 453.378C110.864 452.548 110.404 451.538 110.864 451.168C110.954 450.988 111.144 450.888 111.414 450.888L111.415 450.886ZM143.978 436.544C144.798 436.454 145.258 436.914 145.258 437.924C145.258 438.845 144.618 439.215 143.788 438.935C143.058 438.565 142.038 438.845 141.678 439.575C141.118 440.495 141.587 440.685 143.518 440.315C145.078 440.035 146.278 440.135 146.278 440.495C146.278 441.505 150.689 441.505 151.979 440.495C152.709 439.764 153.629 440.035 154.549 441.235C155.559 442.435 155.559 442.705 154.74 442.155C154 441.785 152.809 441.785 152.159 442.245C151.43 442.705 149.499 443.165 147.839 443.255C146.089 443.445 143.328 443.805 141.678 443.995C140.018 444.275 138.268 444.455 137.908 444.545C137.538 444.545 136.988 445.645 136.798 446.936C136.528 448.136 136.247 448.586 136.158 447.856C136.068 447.125 135.608 446.756 135.148 447.125C134.597 447.395 133.947 447.025 133.577 446.105C133.308 445.275 132.567 444.635 131.927 444.635C131.277 444.635 131.007 445.005 131.277 445.365C131.557 445.835 130.447 446.385 128.796 446.475C127.146 446.566 125.856 446.195 125.856 445.645C125.856 444.455 130.267 443.165 132.107 443.805C132.847 444.085 134.037 443.625 134.957 442.885C135.877 442.065 137.907 440.315 139.558 438.935C141.398 437.374 142.958 436.544 143.978 436.544ZM144.618 276.507C146.728 328.012 147.198 379.518 147.378 430.934C140.298 431.203 136.337 430.934 131.467 430.934C130.727 379.518 129.807 328.012 133.127 276.507C138.828 276.227 141.948 276.416 144.618 276.507ZM151.329 263.715C151.609 263.715 151.889 263.715 152.339 263.906C152.899 264.086 152.99 264.826 152.529 265.656C151.889 266.666 151.429 266.666 150.879 265.836C150.229 264.736 150.499 263.905 151.329 263.715ZM142.138 258.105C142.318 258.105 142.508 258.205 142.688 258.295C143.518 258.565 143.979 259.215 143.608 259.765C142.868 260.955 142.508 260.865 141.858 259.216C141.589 258.475 141.678 258.105 142.138 258.105ZM135.787 256.544C138.367 256.544 138.368 256.635 136.527 258.565C134.867 260.405 134.867 260.685 136.437 260.685C137.537 260.685 137.997 261.325 137.717 262.895C137.347 265.555 135.237 266.566 134.407 264.365C134.127 263.535 133.026 262.985 132.016 263.165C131.006 263.356 130.266 262.896 130.266 262.065C130.266 261.325 130.726 260.685 131.276 260.685C131.836 260.685 132.016 260.315 131.646 259.945C130.446 258.755 133.127 256.544 135.787 256.544ZM152.069 235.112C152.709 235.112 153.539 235.572 153.909 236.122C154.739 237.412 154.369 237.412 152.439 236.122C151.519 235.573 151.329 235.112 152.069 235.112ZM139.378 234.652C139.468 234.652 139.558 234.652 139.558 234.652C139.928 234.652 140.478 234.932 141.118 235.292C142.508 236.222 142.958 237.322 142.598 238.702C141.678 241.733 140.848 242.283 139.098 241.183C138.267 240.723 137.997 240.263 138.638 240.263C139.188 240.173 139.098 239.903 138.457 239.433C137.717 238.972 137.627 237.872 138.177 236.312C138.638 235.202 138.918 234.742 139.378 234.652ZM127.786 234.652C128.526 234.562 128.796 234.932 128.616 235.482C128.156 236.952 124.846 237.692 124.846 236.312C124.846 235.762 125.766 235.112 126.866 234.742C127.237 234.652 127.517 234.652 127.786 234.652ZM147.749 234.102C148.569 234.102 149.399 234.471 149.769 235.022C150.049 235.482 149.679 236.122 148.939 236.492C147.378 237.042 146.278 236.402 146.278 234.932C146.278 234.382 147.009 234.102 147.749 234.102Z" fill="white"/>
<path fill-rule="evenodd" clip-rule="evenodd" d="M436.85 438.785C431.62 451.437 425.099 463.958 416.558 476.739C404.367 495.011 403.017 515.634 398.896 535.636C394.256 558.148 379.934 567.939 365.522 576.21C427.849 556.868 463.523 504.652 436.85 438.785Z" fill="#FFD500"/>
<path fill-rule="evenodd" clip-rule="evenodd" d="M436.85 438.785C432.64 490.221 412.038 570.26 365.522 576.21C427.849 556.868 463.523 504.652 436.85 438.785Z" fill="url(#paint0_linear_806_119775)"/>
<path d="M436.85 438.785C431.62 451.437 425.099 463.958 416.558 476.739C404.367 495.011 403.017 515.634 398.896 535.636C394.256 558.148 379.934 567.939 365.522 576.21C427.849 556.868 463.523 504.652 436.85 438.785Z" stroke="#D4A900" stroke-width="2.43457"/>
<path fill-rule="evenodd" clip-rule="evenodd" d="M471.533 376.618C467.383 385.129 462.982 393.52 459.092 402.141C450.941 420.213 446.731 437.845 451.561 461.878C455.912 483.49 453.921 500.322 448.631 521.894C479.004 493.151 493.456 458.007 478.074 411.962C474.094 400.041 472.393 388.399 471.533 376.618Z" fill="#FFD500"/>
<path fill-rule="evenodd" clip-rule="evenodd" d="M471.533 376.618C458.862 433.094 481.935 471.309 448.631 521.894C479.004 493.151 493.456 458.007 478.074 411.962C474.094 400.041 472.393 388.399 471.533 376.618Z" fill="url(#paint1_linear_806_119775)"/>
<path d="M471.533 376.618C467.383 385.129 462.982 393.52 459.092 402.141C450.941 420.213 446.731 437.845 451.561 461.878C455.912 483.49 453.921 500.322 448.631 521.894C479.004 493.151 493.456 458.007 478.074 411.962C474.094 400.041 472.393 388.399 471.533 376.618Z" stroke="#D4A900" stroke-width="2.43457"/>
<path fill-rule="evenodd" clip-rule="evenodd" d="M286.994 610.895C291.734 599.184 300.375 592.883 311.146 589.953C320.717 587.332 330.659 586.042 340.55 584.892C376.674 580.712 407.107 568.73 434.07 544.508C462.953 518.565 485.236 483.161 498.137 449.977L494.937 448.747C480.225 486.561 450.452 527.286 413.718 552.209C377.604 576.711 333.589 579.061 291.574 583.402C286.564 592.783 283.283 602.164 281.763 611.545C283.503 611.325 285.254 611.105 286.994 610.895Z" fill="#FFD500"/>
<path fill-rule="evenodd" clip-rule="evenodd" d="M535.001 310.532C524.22 323.744 509.988 335.595 501.117 350.147C489.756 368.809 491.306 389.411 495.087 412.614C497.707 428.685 494.887 444.897 491.816 461.039C501.337 445.847 511.419 430.836 521.92 418.504C540.242 396.972 542.392 371.779 535.001 343.906C531.901 332.185 533.261 320.783 535.001 310.532Z" fill="#FFD500"/>
<path fill-rule="evenodd" clip-rule="evenodd" d="M535.001 310.532C507.248 354.367 519.179 410.783 492.126 461.659C501.648 446.467 511.429 430.836 521.92 418.504C540.242 396.972 542.392 371.779 535.001 343.906C531.901 332.185 533.261 320.783 535.001 310.532Z" fill="url(#paint2_linear_806_119775)"/>
<path d="M535.001 310.531C524.22 323.742 509.988 335.593 501.117 350.145C489.756 368.807 491.306 389.409 495.087 412.612C496.607 421.953 496.297 431.344 495.167 440.735C494.347 447.566 493.367 452.936 490.526 459.167C474.724 493.861 447.091 530.785 413.718 553.418C377.614 577.92 333.589 579.06 291.574 583.401C287.294 590.602 284.013 599.983 281.763 611.544C283.503 611.324 285.254 611.104 286.994 610.894C291.734 599.182 300.375 592.882 311.146 589.951C320.717 587.331 330.669 586.041 340.55 584.891C376.674 580.71 406.497 566.919 433.46 542.696C459.303 519.493 480.465 490.52 493.747 460.537C496.477 454.376 499.217 449.386 503.018 443.765C509.138 434.714 515.449 426.103 521.92 418.502C540.242 396.97 542.392 371.777 535.001 343.904C531.901 332.183 533.261 320.782 535.001 310.531Z" stroke="#D4A900" stroke-width="2.43457"/>
<path fill-rule="evenodd" clip-rule="evenodd" d="M577.536 390.36C567.304 403.242 555.423 413.373 538.931 421.124C528.1 426.204 518.379 432.825 509.938 441.556C493.616 458.448 490.506 481.01 470.224 500.303C486.365 490.481 502.827 485.611 518.649 481.32C555.873 471.239 577.385 442.006 577.536 390.36Z" fill="#FFD500"/>
<path fill-rule="evenodd" clip-rule="evenodd" d="M577.536 390.36C573.775 401.972 564.384 415.563 552.343 429.325C527.67 457.508 492.536 473.73 470.224 500.303C486.365 490.481 502.827 485.611 518.649 481.32C555.873 471.239 577.385 442.006 577.536 390.36Z" fill="url(#paint3_linear_806_119775)"/>
<path d="M577.536 390.36C567.304 403.242 555.423 413.373 538.931 421.124C528.1 426.204 518.379 432.825 509.938 441.556C493.616 458.448 490.506 481.01 470.224 500.303C486.365 490.481 502.827 485.611 518.649 481.32C555.873 471.239 577.385 442.006 577.536 390.36Z" stroke="#D4A900" stroke-width="2.43457"/>
<path fill-rule="evenodd" clip-rule="evenodd" d="M508.828 594.533C488.416 572.191 468.533 563.83 448.941 562.149C422.838 559.909 384.254 567.63 360.941 578.171C376.993 581.212 426.979 613.285 482.005 599.114C490.286 595.623 499.887 595.403 508.828 594.533Z" fill="#FFD500"/>
<path fill-rule="evenodd" clip-rule="evenodd" d="M508.828 594.533C469.523 579.201 410.877 578.551 360.941 578.171C376.993 581.211 426.979 613.285 482.005 599.113C490.286 595.623 499.887 595.403 508.828 594.533Z" fill="url(#paint4_linear_806_119775)"/>
<path d="M508.828 594.533C488.416 572.191 468.533 563.83 448.941 562.149C422.838 559.909 384.254 567.63 360.941 578.171C376.993 581.212 426.979 613.285 482.005 599.114C490.286 595.623 499.887 595.403 508.828 594.533Z" stroke="#D4A900" stroke-width="2.43457"/>
<path fill-rule="evenodd" clip-rule="evenodd" d="M541.551 493.102C504.707 520.045 464.563 489.931 413.287 557.229C432.619 552.688 448.011 554.378 467.083 555.829C496.646 558.089 522.479 543.707 541.551 493.102Z" fill="#FFD500"/>
<path fill-rule="evenodd" clip-rule="evenodd" d="M541.551 493.102C498.407 548.478 457.852 520.195 413.287 557.229C432.619 552.688 448.011 554.378 467.083 555.829C496.646 558.089 522.479 543.707 541.551 493.102Z" fill="url(#paint5_linear_806_119775)"/>
<path d="M541.551 493.102C504.707 520.045 464.563 489.931 413.287 557.229C432.619 552.688 448.011 554.378 467.083 555.829C496.646 558.089 522.479 543.707 541.551 493.102Z" stroke="#D4A900" stroke-width="2.43457"/>
<path d="M436.85 438.785C432.64 490.221 412.038 570.26 365.522 576.21" stroke="#D4A900" stroke-width="1.62305"/>
<path d="M471.533 376.618C458.862 433.094 481.935 471.309 448.631 521.894" stroke="#D4A900" stroke-width="1.62305"/>
<path d="M535.001 310.532C507.248 354.367 519.179 410.783 492.126 461.659" stroke="#D4A900" stroke-width="1.62305"/>
<path d="M577.536 390.36C573.775 401.972 564.384 415.563 552.343 429.325C527.67 457.508 492.536 473.73 470.224 500.303" stroke="#D4A900" stroke-width="1.62305"/>
<path d="M508.828 594.533C469.523 579.201 410.877 578.551 360.941 578.171" stroke="#D4A900" stroke-width="1.62305"/>
<path d="M541.551 493.102C498.407 548.478 457.852 520.195 413.287 557.229" stroke="#D4A900" stroke-width="1.62305"/>
<path d="M596.027 609.945H596.011M596.027 609.945L596.035 7.24805H7.99036V609.945V609.953H7.97412C7.97412 628.305 15.435 644.947 27.4963 657.008C39.5476 669.059 56.1895 676.53 74.5515 676.53V676.498H74.5596H245.219L245.329 676.53C267.101 677.021 286.133 688.592 296.995 705.813C297.985 707.394 298.915 709.014 299.765 710.684C306.296 697.953 317.037 687.741 330.158 681.901C333.829 680.271 337.679 678.98 341.68 678.07C345.64 677.16 349.77 676.64 354.021 676.53H354.053H354.213L354.333 676.498H529.452H529.461V676.53C547.813 676.522 564.454 669.059 576.506 657.008C588.567 644.947 596.028 628.305 596.028 609.943L596.027 609.945Z" stroke="#D4A900" stroke-width="2.43457"/>
<path d="M383.804 31.3604H494.686C500.226 31.3604 504.757 36.0709 504.757 41.8315V48.8023C504.757 54.5629 500.226 59.2734 494.686 59.2734H383.804C378.263 59.2734 373.732 54.5629 373.732 48.8023V41.8315C373.732 36.0709 378.263 31.3604 383.804 31.3604ZM383.804 112.459C378.263 112.459 373.732 107.759 373.732 101.998V95.0174C373.732 89.2568 378.263 84.5562 383.804 84.5562H494.686C500.226 84.5562 504.757 89.2568 504.757 95.0174V101.998C504.757 107.759 500.226 112.459 494.686 112.459H455.051L448.031 123.201C447.031 124.741 445.25 125.391 443.41 125.181H435.079C433.249 125.391 431.469 124.741 430.459 123.201L423.438 112.459H383.804ZM434.479 114C434.479 116.64 436.609 118.77 439.25 118.77C441.88 118.77 444.01 116.64 444.01 114C444.01 111.369 441.88 109.239 439.25 109.239C436.609 109.239 434.479 111.369 434.479 114Z" fill="#FFD500" stroke="#D4A900" stroke-width="2.43457"/>
<path d="M383.974 41.8916H494.516V101.928H383.974V41.8916Z" fill="url(#paint6_linear_806_119775)" stroke="#A90000" stroke-width="2.43457"/>
<path d="M439.25 132.923C447.611 132.923 454.392 139.714 454.392 148.075C454.392 156.435 447.611 163.216 439.25 163.216C430.889 163.216 424.099 156.435 424.099 148.075C424.099 139.714 430.889 132.923 439.25 132.923ZM430.539 148.075C430.539 152.885 434.44 156.785 439.25 156.785C444.061 156.785 447.961 152.885 447.961 148.075C447.961 143.264 444.061 139.364 439.25 139.364C434.44 139.364 430.539 143.264 430.539 148.075Z" fill="#FFD500" stroke="#D4A900" stroke-width="2.43457"/>
<path d="M439.245 113.97C441.16 113.97 442.721 115.6 442.721 117.58V140.377C442.721 142.357 441.16 143.987 439.245 143.987C437.33 143.987 435.78 142.367 435.78 140.377V117.58C435.78 115.59 437.33 113.97 439.245 113.97Z" fill="#FFD500" stroke="#D4A900" stroke-width="2.43457"/>
<path d="M495.146 332.833L439.25 308.13L383.354 332.823L389.575 272.036L348.81 226.511L408.547 213.64L439.25 160.794L469.953 213.64L529.69 226.511L488.926 272.036L495.146 332.833Z" fill="#FFD500"/>
<path d="M495.146 332.833L439.25 308.13L383.354 332.823L389.575 272.036L348.81 226.511L408.547 213.64L439.25 160.794L469.953 213.64L529.69 226.511L488.926 272.036L495.146 332.833Z" fill="url(#paint7_radial_806_119775)"/>
<path fill-rule="evenodd" clip-rule="evenodd" d="M383.354 332.824L389.575 272.037L439.24 255.896L383.354 332.824Z" fill="#FFD500"/>
<path fill-rule="evenodd" clip-rule="evenodd" d="M348.81 226.512L408.547 213.641L439.24 255.895L348.81 226.512Z" fill="#FFD500"/>
<path fill-rule="evenodd" clip-rule="evenodd" d="M408.547 213.64L439.25 160.794V255.894L408.547 213.64Z" fill="#FFD500"/>
<path fill-rule="evenodd" clip-rule="evenodd" d="M529.69 226.512L469.954 213.641L439.25 255.895L529.69 226.512Z" fill="#FFD500"/>
<path d="M529.69 226.513L389.574 272.038" stroke="#D4A900" stroke-width="0.811828"/>
<path d="M488.926 272.038L348.81 226.513" stroke="#D4A900" stroke-width="0.811828"/>
<path d="M495.146 332.824L408.547 213.631" stroke="#D4A900" stroke-width="0.811828"/>
<path d="M439.25 160.794V308.13" stroke="#D4A900" stroke-width="0.811828"/>
<path d="M469.954 213.641L383.354 332.824" stroke="#D4A900" stroke-width="0.811828"/>
<path d="M495.146 332.833L439.25 308.13L383.354 332.823L389.575 272.036L348.81 226.511L408.547 213.64L439.25 160.794L469.953 213.64L529.69 226.511L488.926 272.036L495.146 332.833Z" stroke="#D4A900" stroke-width="3.24609"/>
<path fill-rule="evenodd" clip-rule="evenodd" d="M495.165 332.834L439.275 308.134L439.271 255.911L495.165 332.834Z" fill="#FFD500"/>
<defs>
<linearGradient id="paint0_linear_806_119775" x1="421.22" y1="501.071" x2="449.759" y2="510.247" gradientUnits="userSpaceOnUse">
<stop stop-color="#AA8800"/>
<stop offset="1" stop-color="#AA8800" stop-opacity="0"/>
</linearGradient>
<linearGradient id="paint1_linear_806_119775" x1="465.055" y1="449.256" x2="489.997" y2="449.256" gradientUnits="userSpaceOnUse">
<stop stop-color="#AA8800"/>
<stop offset="1" stop-color="#AA8800" stop-opacity="0"/>
</linearGradient>
<linearGradient id="paint2_linear_806_119775" x1="513.549" y1="381.811" x2="549.416" y2="387.524" gradientUnits="userSpaceOnUse">
<stop stop-color="#AA8800"/>
<stop offset="1" stop-color="#D4AA00" stop-opacity="0"/>
</linearGradient>
<linearGradient id="paint3_linear_806_119775" x1="533.062" y1="446.046" x2="551.722" y2="482.431" gradientUnits="userSpaceOnUse">
<stop stop-color="#AA8800"/>
<stop offset="1" stop-color="#D4AA00" stop-opacity="0"/>
</linearGradient>
<linearGradient id="paint4_linear_806_119775" x1="437.347" y1="582.586" x2="433.242" y2="613.525" gradientUnits="userSpaceOnUse">
<stop stop-color="#AA8800"/>
<stop offset="1" stop-color="#AA8800" stop-opacity="0"/>
</linearGradient>
<linearGradient id="paint5_linear_806_119775" x1="482.552" y1="528.736" x2="490.852" y2="563.853" gradientUnits="userSpaceOnUse">
<stop stop-color="#AA8800"/>
<stop offset="1" stop-color="#AA8800" stop-opacity="0"/>
</linearGradient>
<linearGradient id="paint6_linear_806_119775" x1="418.776" y1="100.891" x2="418.776" y2="39.8746" gradientUnits="userSpaceOnUse">
<stop stop-color="#AA0000"/>
<stop offset="0.246503" stop-color="#D40000"/>
<stop offset="0.721476" stop-color="#D40000"/>
<stop offset="1" stop-color="#FF0000"/>
</linearGradient>
<radialGradient id="paint7_radial_806_119775" cx="0" cy="0" r="1" gradientUnits="userSpaceOnUse" gradientTransform="translate(439.25 256.626) scale(112.877 107.36)">
<stop stop-color="#AA8800"/>
<stop offset="1" stop-color="#AA8800" stop-opacity="0"/>
</radialGradient>
</defs>
</svg>
