<svg width="97" height="119" viewBox="0 0 97 119" fill="none" xmlns="http://www.w3.org/2000/svg">
<g clip-path="url(#clip0_1347_20471)">
<path d="M0.0688312 57.6555C0.0688312 39.0822 0.0566291 20.5103 0.0322266 1.94C0.0322266 0.512448 0.142041 0 1.83039 0C32.9436 0.0732075 64.0568 0.0732075 95.17 0C96.8584 0 96.9728 0.507873 96.9682 1.94C96.9133 20.3608 96.9011 38.7802 96.9316 57.198C96.1812 57.6876 95.7099 57.262 95.2752 56.6992C95.1449 56.453 95.0553 56.1872 95.0099 55.9123C94.9656 55.629 94.9396 55.3432 94.9321 55.0567C94.9001 38.5346 94.9321 22.0172 94.9321 5.49971C94.9321 2.13674 94.868 2.07269 91.4684 2.07269H5.63718C2.1644 2.07269 2.08662 2.15505 2.08204 5.68274C2.08204 22.127 2.08204 38.5667 2.08204 55.0063C2.08124 55.2877 2.06443 55.5688 2.03171 55.8482C2.00285 56.1215 1.94141 56.3903 1.84869 56.6489C1.42775 57.2941 1.16237 58.2046 0.0688312 57.6555Z" fill="#272D25"/>
<path d="M95.5817 56.695L96.9543 57.1983V102.45C96.8857 102.482 96.7713 102.5 96.753 102.546C94.0489 111.601 88.4027 113.234 80.8669 113.431C74.8273 113.577 68.8014 113.129 62.7847 112.671C60.7989 112.525 58.8681 112.882 56.9143 113.06C56.8597 113.108 56.7944 113.142 56.724 113.159C56.6537 113.177 56.5801 113.177 56.5095 113.161C56.4389 113.144 56.3733 113.111 56.318 113.064C56.2626 113.017 56.2193 112.958 56.1914 112.891C56.7862 111.303 58.1909 111.518 59.4492 111.45C65.5345 111.102 71.5879 112.063 77.6733 111.907C80.327 111.834 82.9991 112.154 85.6208 111.477C86.0595 111.361 86.4845 111.199 86.8883 110.992C92.8684 108.604 94.9731 103.923 94.9228 97.7964C94.8267 84.5916 94.9685 71.3822 94.8541 58.1774C94.8382 57.7966 94.8705 57.4154 94.9502 57.0427C94.9613 56.9741 94.9879 56.909 95.0279 56.8522C95.0679 56.7954 95.1203 56.7485 95.1812 56.715C95.242 56.6814 95.3097 56.6622 95.3791 56.6588C95.4485 56.6553 95.5178 56.6677 95.5817 56.695Z" fill="#381E21"/>
<path d="M0.0683594 57.6553C0.795859 57.7239 0.983454 57.001 1.441 56.699C1.50214 56.6725 1.56834 56.6596 1.63497 56.6613C1.70161 56.663 1.76706 56.6792 1.82677 56.7088C1.88648 56.7385 1.93899 56.7808 1.98063 56.8328C2.02227 56.8849 2.05203 56.9454 2.06784 57.0102C2.17307 67.7259 2.06784 78.4508 2.1136 89.1712C2.1136 91.8341 2.1868 94.497 2.1136 97.1553C1.91228 103.103 3.77907 107.917 9.40233 110.717C9.58348 110.888 9.71608 111.105 9.78666 111.344C8.90817 112.685 7.88327 111.161 6.95445 111.486C3.57317 109.559 1.66978 106.53 0.548785 102.911C0.443549 102.568 0.525907 102.152 0.0683594 101.996V57.6553Z" fill="#3F2424"/>
<path d="M56.2695 112.973L56.9146 113.051C53.9543 114.588 50.8705 115.961 48.9671 118.925H48.5095C46.173 116.411 43.3408 114.407 40.1913 113.041C39.4821 112.186 38.5029 112.584 37.6382 112.543C30.5004 112.337 23.3719 112.968 16.2341 113C14.4907 112.962 12.7522 112.8 11.0318 112.515C10.4782 112.442 9.75069 112.515 9.65918 111.678L9.74611 111.536C9.94247 111.353 10.1779 111.216 10.4347 111.137C10.6915 111.058 10.9629 111.038 11.2286 111.079C19.437 112.135 27.6316 110.987 35.8309 110.909C39.6582 110.796 43.3967 112.074 46.3545 114.506C47.8506 115.713 49.0677 115.778 50.5776 114.506C51.8359 113.444 53.2085 112.41 54.9655 112.218C55.226 112.236 55.4788 112.314 55.7048 112.444C55.9308 112.575 56.1239 112.756 56.2695 112.973Z" fill="#3A1E21"/>
<path d="M9.64021 111.656C11.1795 112.239 12.812 112.538 14.4582 112.539C22.2365 112.85 30.0148 111.93 37.7931 112.081C38.6853 112.081 39.8017 111.71 40.1952 113.037C33.9909 112.58 27.7957 113.065 21.6005 113.252C16.6132 113.399 11.6214 113.811 6.95898 111.491C7.89238 110.686 8.72054 111.866 9.64021 111.656Z" fill="#272121"/>
<path d="M1.49148 55.7794C1.49148 38.3331 1.49148 20.8868 1.42285 3.44515C1.42285 1.7934 1.96733 1.43652 3.51384 1.43652C33.5137 1.47618 63.5166 1.47618 93.5225 1.43652C95.0828 1.43652 95.6089 1.82086 95.5998 3.45887C95.5357 20.9051 95.5449 38.3468 95.5357 55.7931C94.7488 56.5847 93.7284 56.4932 92.7493 56.4932C63.2558 56.4932 33.7638 56.4932 4.27337 56.4932C3.29422 56.4657 2.27389 56.5618 1.49148 55.7794Z" fill="#00995F"/>
<path d="M1.49174 55.7793C16.9385 55.8006 32.3838 55.822 47.8275 55.8434C63.7319 55.8434 79.6347 55.8235 95.536 55.7839C95.536 55.9532 95.568 56.1225 95.5817 56.2872C94.6666 56.9369 93.5914 56.9506 92.5162 56.9506H4.5024C3.43174 56.9506 2.37023 56.9506 1.44141 56.2826L1.49174 55.7793Z" fill="#004E35"/>
<path d="M1.44141 56.2646H95.5817V56.6947L95.0281 56.7954C94.145 57.587 93.0424 57.4726 91.99 57.4726C63.012 57.4909 34.034 57.4909 5.05603 57.4726C4.00367 57.4726 2.90556 57.587 2.01334 56.8091L1.44141 56.6993V56.2646Z" fill="#2D1115"/>
<path d="M2.01367 56.8093C20.6206 56.8276 39.2397 56.8475 57.871 56.8688C70.2568 56.8688 82.6426 56.8185 95.0284 56.791C95.8978 57.5917 95.5683 58.6487 95.5729 59.5958C95.6004 72.4071 95.5729 85.1681 95.6232 97.952C95.6507 104.23 93.4956 109.061 87.3233 111.477C85.6 111.928 83.8356 112.204 82.057 112.301C75.2304 112.607 68.4358 111.665 61.6138 111.843C59.509 111.893 57.3723 111.646 55.3682 112.561C53.1903 113.17 51.4699 114.561 49.7862 115.966C48.7658 116.817 48.0155 116.803 47.0409 115.902C45.4017 114.307 43.4318 113.092 41.2708 112.343C39.1099 111.594 36.8107 111.33 34.5361 111.569C29.9195 111.948 25.2662 111.939 20.6313 112.076C16.9829 112.196 13.331 112.007 9.71419 111.514C3.43664 108.924 1.3182 103.955 1.37311 97.5036C1.48292 84.8707 1.41428 72.2378 1.44174 59.6049C1.45546 58.6578 1.13518 57.61 2.01367 56.8093Z" fill="#E5004C"/>
<path d="M55.3682 112.538C56.3885 111.747 57.5735 111.623 58.8181 111.586C63.6955 111.527 68.5592 111.682 73.4276 112.003C78.0651 112.313 82.7224 112.136 87.3233 111.477C85.7905 112.392 84.0747 112.433 82.3772 112.515C74.7133 112.886 67.0814 111.811 59.4175 112.058C58.2782 112.094 57.1297 111.971 56.2695 112.973C56.0933 112.996 55.9142 112.967 55.7542 112.89C55.5941 112.812 55.46 112.69 55.3682 112.538Z" fill="#4A1E24"/>
<path d="M48.4721 55.3719C33.7757 55.3719 19.0839 55.3307 4.38747 55.4177C2.34681 55.4177 1.84351 54.8503 1.85266 52.8508C1.93197 36.7025 1.93197 20.5556 1.85266 4.41032C1.85266 2.42457 2.33308 1.83432 4.3829 1.83889C33.6995 1.90295 63.0145 1.90295 92.328 1.83889C94.5471 1.83889 95.1785 2.5298 95.1694 4.7123C95.0931 20.7844 95.0931 36.8565 95.1694 52.9286C95.1694 55.0425 94.4739 55.4223 92.5568 55.4131C77.865 55.3216 63.1686 55.3719 48.4721 55.3719Z" fill="#00954F"/>
<path d="M44.8533 84.9798C43.2015 85.6387 42.3459 87.1394 41.2981 88.4206C37.3404 93.2797 33.9133 93.8425 28.6881 90.3743C25.4853 88.2375 22.6256 85.5517 19.0797 83.8725C17.707 83.2137 16.2978 82.6738 14.7238 82.8339C13.2505 83.8405 12.857 83.6758 12.3857 81.8776C14.2525 80.7978 16.284 80.839 18.3339 80.9626C18.7914 81.4201 19.4777 81.3881 20.0542 81.594C22.4715 82.2611 24.7442 83.3703 26.7573 84.8654C28.3783 85.9895 30.1621 86.8583 32.0465 87.4414C35.437 88.5121 37.3998 87.899 39.5778 85.0576C40.4929 83.8634 41.1792 82.4725 42.4695 81.5848C43.0196 81.0945 43.6858 80.7528 44.4049 80.5919L45.7501 80.5004C46.1097 80.1597 46.5531 79.9201 47.0353 79.806C47.5174 79.6919 48.0211 79.7073 48.4954 79.8507C48.8111 79.8782 49.1314 79.8965 49.4471 79.8965C51.0256 79.8004 52.0414 81.1181 53.4369 81.4841C54.7546 82.3992 55.7521 83.6621 56.9417 84.719C60.3138 87.7205 62.661 87.9905 66.6371 85.8949C69.3824 84.4491 71.6701 82.2345 74.603 81.0907C75.2024 80.9397 75.8613 80.9808 76.3691 80.5279C77.5043 80.4734 78.6418 80.4994 79.7733 80.6057C80.1908 80.6749 80.573 80.8819 80.8591 81.1937C81.1452 81.5055 81.3187 81.9042 81.3518 82.326C81.4159 82.6691 81.3599 83.0238 81.1933 83.3304C81.0266 83.6371 80.7595 83.877 80.4367 84.0098C79.5216 84.4353 78.8033 84.1196 78.3457 83.2457C77.8882 82.3718 77.2431 82.4496 76.4332 82.7424C74.5791 83.4194 72.8528 84.4048 71.327 85.657C70.0321 86.7093 68.7922 87.8395 67.4561 88.8324C62.3499 92.6346 59.2752 92.3784 54.988 87.7663C53.9651 86.7591 52.8584 85.8407 51.6799 85.021C50.8563 85.021 50.3347 86.2381 49.3601 85.5746L49.3373 85.6021C48.6052 85.1445 48.1476 86.2335 47.443 85.9361C46.4959 85.9132 46.1298 84.2249 44.8533 84.9798Z" fill="#302928"/>
<path d="M19.67 81.8871C19.3813 81.893 19.0982 81.8078 18.8608 81.6435C18.6234 81.4792 18.4438 81.2442 18.3477 80.972C27.0411 80.1759 35.7344 80.574 44.4278 80.5831L42.9545 81.8231C35.9495 82.4362 28.9399 82.1113 21.9303 82.0107C21.1799 82.0015 20.4249 81.8963 19.67 81.8871Z" fill="#801830"/>
<path d="M53.1534 81.8187C51.9043 81.3154 50.8977 80.1533 49.3604 80.4461C49.7584 78.0851 51.218 76.3922 52.8926 74.8366C53.1134 74.7981 53.3405 74.8243 53.5467 74.912C53.7529 74.9997 53.9293 75.1451 54.0548 75.3307C54.11 75.4248 54.1297 75.5356 54.1104 75.643C54.0911 75.7504 54.034 75.8473 53.9495 75.9164C53.0345 77.289 51.0807 78.9408 51.5886 80.0343C52.22 81.3841 54.581 80.4918 56.1641 80.5284C62.9037 80.6017 69.6434 80.5605 76.3831 80.5559C76.0811 81.1187 75.6922 81.5396 74.9693 81.3978C70.348 81.9651 65.7039 81.6494 61.0736 81.6723C58.4381 81.6586 55.8118 82.5417 53.1534 81.8187Z" fill="#701823"/>
<path d="M43.9792 63.3477C44.8943 63.0823 45.5211 63.7091 46.2166 64.1163C47.3559 64.432 47.8729 65.0726 47.8454 66.3629C47.8088 68.0833 47.8454 69.8082 47.8454 71.5286C47.8454 72.5855 47.5572 73.3588 46.2578 72.9836C45.6401 72.5261 44.5877 72.915 44.1896 71.9816C43.9975 71.0939 45.4387 70.6593 44.8348 69.6527C44.5152 69.0245 44.24 68.3747 44.0112 67.7081C43.9471 66.2531 43.7321 64.8027 43.9792 63.3477Z" fill="#C8C6C5"/>
<path d="M47.5992 85.5663C48.1802 85.85 48.8162 84.4865 49.3699 85.6258C48.7339 86.2572 48.9764 87.0579 48.9992 87.7854C49.1091 91.5739 49.2524 95.3624 49.4293 99.1509C49.4568 99.7045 49.0725 100.707 50.3444 100.423C50.4086 100.507 50.4544 100.604 50.4788 100.708C50.5033 100.811 50.5058 100.918 50.4863 101.022C50.3753 101.211 50.2178 101.369 50.0287 101.48C49.4587 101.785 48.8169 101.93 48.1711 101.901C48.0142 101.877 47.8671 101.81 47.7459 101.707C47.6248 101.604 47.5344 101.47 47.4848 101.32C47.4848 100.944 47.8508 100.862 48.0476 100.624C47.9255 96.3538 47.802 92.0986 47.6769 87.8586C47.6769 87.3279 47.6998 86.7742 47.1599 86.4357C46.9266 85.9369 47.3475 85.7859 47.5992 85.5663Z" fill="#74182A"/>
<path d="M49.3926 85.5974C50.2345 85.7027 50.7332 84.362 51.7123 85.0438C51.4241 85.2131 51.2273 85.5013 51.4012 85.785C53.4922 88.9878 55.5969 92.1678 57.7428 95.3249C57.8984 95.5537 58.4063 95.5445 58.7494 95.6452C58.8046 95.8458 58.795 96.0588 58.722 96.2537C58.4703 96.8577 57.9075 97.1413 57.4225 97.5074C57.2671 97.6301 57.0885 97.7201 56.8975 97.7719C56.7064 97.8238 56.5068 97.8366 56.3107 97.8094C56.7682 95.9151 55.5695 94.6614 54.6315 93.2934C52.8745 90.7357 51.1358 88.1643 49.3926 85.5974Z" fill="#5F212C"/>
<path d="M35.7852 70.8783L35.2773 70.0135C36.0872 69.1625 37.1075 69.5285 38.2468 69.501C37.8464 69.0815 37.4906 68.6215 37.1853 68.1284C36.8685 67.7001 36.5942 67.2419 36.3663 66.7603C36.3325 66.602 36.3334 66.4382 36.3689 66.2802C36.4045 66.1223 36.4738 65.9739 36.5722 65.8452L37.4873 65.3877C38.0821 65.6668 38.32 66.2616 38.6906 66.7329C38.8428 66.9227 39.0329 67.0785 39.2488 67.1904C39.3906 67.2345 39.5361 67.2651 39.6835 67.2819C39.8299 67.2819 39.9764 67.2819 40.1411 67.2819C40.3653 67.2362 40.5986 67.163 40.7999 67.1081H41.0379C41.1919 67.1464 41.3287 67.2349 41.4268 67.3597C41.5621 67.558 41.667 67.7755 41.7379 68.0049C41.8072 68.1501 41.8564 68.304 41.8843 68.4624C41.8843 68.7049 42.0262 68.92 42.0628 69.1625C42.085 69.3141 42.0988 69.4668 42.104 69.62C42.1092 69.851 42.126 70.0816 42.1543 70.3109C42.2046 70.5305 42.2687 70.7456 42.3236 70.9606C42.3236 70.9606 42.3464 71.1802 42.351 71.1802C42.3556 71.1802 42.351 71.3907 42.351 71.3907C42.3387 71.5281 42.3543 71.6667 42.3968 71.7979C42.5338 71.9779 42.7108 72.1236 42.9138 72.2235C43.1547 72.3512 43.3714 72.52 43.5544 72.7222C43.9479 73.3902 43.6642 73.9072 43.1975 74.3877C42.4563 74.9321 41.7745 74.6942 41.1019 74.2412C40.7222 73.7517 40.6444 73.0882 40.2463 72.6124C39.441 71.4273 38.1965 71.5097 36.9886 71.4639C36.5394 71.3889 36.1215 71.1855 35.7852 70.8783Z" fill="#463938"/>
<path d="M41.1931 74.118C41.8428 74.1729 42.5017 74.5161 43.1422 74.0814C45.3201 74.8821 45.7868 77.0143 46.8346 78.6203C46.5327 76.8404 46.0888 74.9233 47.1595 73.1068C47.486 73.0366 47.8265 73.074 48.13 73.2134C48.4335 73.3528 48.6837 73.5867 48.8433 73.8801C49.3008 76.0763 49.5891 78.2725 48.6282 80.4276C47.6628 79.8648 46.7248 80.6335 45.7685 80.5008C45.311 78.4235 43.6913 77.0646 42.6023 75.3808C42.1814 74.7357 41.3349 75.1338 40.6852 75.0285C39.9119 74.9096 39.0151 75.4586 38.3975 74.6076C39.0701 73.0153 40.1178 73.4912 41.1931 74.118Z" fill="#651D2B"/>
<path d="M47.5985 85.566L47.1409 86.417L40.3372 97.0458C39.6143 97.2106 39.2391 98.4185 38.2325 97.7367C38.1286 97.5334 38.0841 97.3049 38.1044 97.0774C38.1246 96.8499 38.2087 96.6328 38.3469 96.451C38.432 96.3699 38.545 96.3247 38.6626 96.3247C38.7802 96.3247 38.8932 96.3699 38.9783 96.451C41.2203 93.0789 43.4485 89.6976 45.7134 86.3392C46.5416 85.113 45.8415 84.9666 44.8395 84.9666C46.0611 83.8136 46.6697 85.4333 47.5985 85.566Z" fill="#601D29"/>
<path d="M48.4682 73.647L47.0955 73.2353C46.5739 73.4503 46.1575 73.5006 46.2674 72.7137C46.8439 72.6725 47.6034 73.0614 47.5119 71.8672C47.2851 69.7568 47.2224 67.632 47.3243 65.5119C47.4112 64.4046 45.7274 65.2007 46.2353 64.1392L50.3532 64.002C50.4032 64.0748 50.4344 64.1589 50.4439 64.2467C50.4535 64.3345 50.4412 64.4233 50.4081 64.5053C50.1967 64.7877 49.9286 65.023 49.6212 65.1961C49.4852 65.3145 49.3568 65.4414 49.2368 65.5759C49.0708 65.9268 48.9968 66.3141 49.0218 66.7015C49.0218 66.9028 49.0218 67.1041 49.0218 67.3054C49.0218 67.5068 49.0218 67.7127 49.0218 67.9186C49.0218 68.1245 49.0218 68.3395 49.0447 68.55C49.0447 68.884 49.0721 69.218 49.0767 69.552C49.0447 70.737 49.2322 71.9358 48.9028 73.1071C48.8133 73.3254 48.6623 73.513 48.4682 73.647Z" fill="#412A2B"/>
<path d="M56.3105 97.8096L57.1845 97.3521C57.8845 97.1965 58.2688 97.6404 58.6806 98.1574C58.4651 97.8667 58.3355 97.5213 58.3064 97.1606C58.2773 96.7999 58.3499 96.4383 58.5159 96.1167L58.7493 95.6592C59.6644 95.6912 59.3898 96.4873 59.6232 96.9632C60.4285 97.9561 60.4971 99.2509 60.973 100.372C61.1697 100.829 60.973 101.232 60.3598 101.163L56.3105 97.8096Z" fill="#F6E8ED"/>
<path d="M37.4549 67.6759C38.0314 68.3988 38.8275 68.9799 39.0334 70.0826C37.7863 70.2598 36.5194 70.2444 35.2769 70.0368L33.9043 67.7491C35.0665 66.7333 36.2607 67.1223 37.4549 67.6759Z" fill="#A39F9E"/>
<path d="M52.1098 70.4439C52.6863 70.1099 52.7458 69.2543 53.4824 69.0713C54.3951 69.4443 55.1491 70.1239 55.6146 70.993C55.6604 72.5258 54.6995 73.203 53.4001 73.5736C53.1793 73.5819 52.9585 73.5557 52.7458 73.4958C52.2454 73.2842 51.8367 72.9014 51.5928 72.416C51.483 71.9137 51.5425 71.3893 51.762 70.9244C51.8489 70.7451 51.9666 70.5824 52.1098 70.4439Z" fill="#ADA7A7"/>
<path d="M47.3472 101.164L47.8276 101.576C48.6146 101.878 48.6283 102.532 48.6329 103.237C48.6274 102.803 48.7442 102.376 48.97 102.006C49.1958 101.635 49.5213 101.336 49.9094 101.141C50.0467 101.1 50.1885 101.068 50.3258 101.041C50.7513 102.162 50.0558 102.985 49.5846 103.864C49.3146 104.747 49.0492 105.63 48.6008 107.103C48.1113 105.479 47.7955 104.44 47.4844 103.397C46.8759 102.871 46.8118 102.093 46.6791 101.398C46.5785 100.954 46.9399 100.78 47.3472 101.164Z" fill="#F4E8EC"/>
<path d="M58.6396 65.4473C59.8476 65.8636 60.662 67.2775 62.2314 66.8199C62.3224 66.7913 62.4187 66.7837 62.513 66.7977C62.6074 66.8117 62.6973 66.8469 62.7761 66.9006C62.8549 66.9543 62.9206 67.0252 62.9681 67.1079C63.0156 67.1906 63.0437 67.283 63.0504 67.3781C63.0504 68.0827 62.8079 68.7279 61.8791 68.6501H61.5451C60.63 68.7096 59.7423 68.8697 58.9279 68.3024C58.5641 67.8455 58.3217 67.3041 58.2233 66.7284C58.1563 66.4977 58.1602 66.2522 58.2345 66.0238C58.3087 65.7954 58.4499 65.5945 58.6396 65.4473Z" fill="#5A2129"/>
<path d="M38.4703 96.5015L38.5297 97.8238C39.1474 98.4369 39.7468 97.1558 40.3599 97.8009C40.9136 98.199 40.2135 98.3683 40.2044 98.6611C39.3259 99.503 38.5572 100.459 37.4591 101.045L36.6858 101.933C36.3838 102.12 35.9858 102.042 36.0498 101.727C36.3384 99.9191 36.9474 98.1775 37.848 96.5838C37.9807 96.3917 38.2506 96.4603 38.4703 96.5015Z" fill="#F5E8EC"/>
<path d="M41.1934 74.1183C40.2554 74.2784 39.1893 73.7156 38.3794 74.6079C37.2356 73.5647 36.2427 72.4162 35.7852 70.8926H36.9107C37.867 72.1966 39.2579 72.3384 40.7129 72.3247C41.3993 72.7777 41.143 73.4914 41.1934 74.1183Z" fill="#704347"/>
<path d="M12.3991 81.8594C12.9116 82.8294 13.5659 83.4608 14.7372 82.8156C14.7157 82.9706 14.6821 83.1236 14.6365 83.2732C14.3071 84.1105 14.1195 85.0759 12.907 85.1034C12.638 85.1118 12.3738 85.0311 12.1554 84.8739C11.9369 84.7167 11.7765 84.4918 11.6991 84.234C11.2918 83.264 11.4703 82.4542 12.3991 81.8594Z" fill="#5D1824"/>
<path d="M52.11 70.4444C52.1204 70.5975 52.1112 70.7513 52.0825 70.902C51.9432 71.0737 51.7464 71.1891 51.5286 71.227C51.3107 71.2648 51.0866 71.2225 50.8975 71.1079C50.4628 69.3784 50.7373 67.5848 50.4033 65.8507C50.3667 65.6539 50.3393 65.4572 50.321 65.2559C50.2988 65.0606 50.3065 64.8631 50.3439 64.6702C50.3439 64.5695 50.3439 64.4735 50.3667 64.3728C50.3294 64.2498 50.3216 64.1197 50.3439 63.993C51.0347 63.0139 51.5289 62.7485 51.7165 64.2904C51.9224 66.3265 51.2498 68.4358 52.11 70.4444Z" fill="#87222D"/>
<path d="M58.6304 72.7729C58.4977 73.2853 58.7219 73.9259 58.0905 74.2507C57.1754 75.2757 56.123 75.3443 54.9563 74.7541C54.2471 73.3585 54.8968 72.5853 56.1733 72.0957C57.0427 72.1369 57.9532 72.0225 58.6304 72.7729Z" fill="#DBD6D5"/>
<path d="M38.5619 67.1537L37.4912 65.3601C38.2599 65.0124 38.5436 61.6174 39.9116 64.9758C39.9672 65.1534 39.9934 65.3388 39.9894 65.5248C39.9531 65.8066 39.8887 66.084 39.7973 66.353C39.7419 66.539 39.6603 66.7162 39.5548 66.8792C39.4907 66.9524 39.4221 67.021 39.358 67.0896C39.1109 67.2452 38.8455 67.3642 38.5619 67.1537Z" fill="#DFCFD1"/>
<path d="M58.6391 65.4477L58.4835 66.7151C58.4835 67.5981 58.2822 68.3165 57.1475 68.1563C56.7717 67.8728 56.4986 67.4744 56.3697 67.0216C56.0357 65.8778 56.5984 64.9718 57.1566 64.0659C58.4515 63.6724 58.0351 65.1045 58.6391 65.4477Z" fill="#DFD9D9"/>
<path d="M55.428 70.9473C54.7371 70.3708 53.5978 70.2335 53.4834 69.0713C53.5978 68.6138 53.671 68.1333 54.3253 68.202L54.5312 68.051C54.7417 68.5085 54.8332 67.9229 54.9887 67.9915C55.1736 67.9601 55.3632 67.9726 55.5424 68.0281C55.822 68.1344 56.0807 68.2893 56.3065 68.4857C56.443 68.6423 56.5444 68.8264 56.6039 69.0256C56.6451 69.9132 56.5581 70.7505 55.428 70.9473Z" fill="#C7C4C2"/>
<path d="M38.471 96.501C37.3043 98.1208 36.3434 99.8091 36.6957 101.932C36.5036 102.138 36.3114 102.513 36.1101 102.518C35.5519 102.518 35.6525 101.992 35.7257 101.699C36.3068 99.7816 36.7552 97.7959 37.6063 96.0023C38.3246 94.4695 38.4893 96.3546 38.9789 96.4599L38.471 96.501Z" fill="#851C2E"/>
<path d="M55.3226 68.2296C55.2153 68.2104 55.1068 68.1982 54.9978 68.193C54.9181 68.2507 54.8233 68.2841 54.725 68.2889C54.6268 68.2938 54.5292 68.27 54.4442 68.2205H54.3252C55.0573 66.6968 55.7573 65.1503 57.1574 64.1025C57.0156 65.1686 56.8692 66.2347 56.7273 67.3054C56.6816 67.3786 56.6358 67.4472 56.5946 67.5204C56.4761 67.6382 56.3475 67.7454 56.2103 67.8407C55.9505 68.0407 55.6458 68.1742 55.3226 68.2296Z" fill="#9B8A8B"/>
<path d="M54.9421 74.6307C55.9945 74.5255 57.1063 74.9098 58.09 74.251C57.5181 76.8315 55.4591 75.6694 53.9492 75.9027L53.9767 75.4452C54.0755 75.2521 54.2117 75.0807 54.3775 74.9409C54.5432 74.801 54.7352 74.6956 54.9421 74.6307Z" fill="#972C42"/>
<path d="M44.2494 67.7261L45.2514 69.4968C45.2514 69.602 45.2514 69.7027 45.2285 69.8079C45.1455 69.9972 45.0239 70.167 44.8716 70.3066C44.0572 70.8557 43.2885 70.572 42.529 70.1694C42.24 69.8679 42.0611 69.4778 42.0211 69.0621C41.9968 69.0174 41.9839 68.9674 41.9834 68.9164C41.983 68.8655 41.995 68.8153 42.0185 68.7701C42.042 68.725 42.0762 68.6862 42.1181 68.6574C42.1601 68.6285 42.2084 68.6104 42.259 68.6046C42.8035 68.5085 43.4486 68.8288 43.8742 68.2156C43.6866 67.8359 43.8742 67.7169 44.2494 67.7261Z" fill="#69474C"/>
<path d="M60.4287 70.092C59.9392 70.9476 60.2869 72.2608 59.0149 72.6863C58.8868 72.581 58.7679 72.4712 58.6489 72.3523C58.4747 72.1585 58.3112 71.9554 58.1593 71.7437C58.0756 71.6306 58.0151 71.502 57.9813 71.3653C57.9476 71.2287 57.9412 71.0867 57.9626 70.9476C58.1779 70.2924 58.4944 69.6748 58.9005 69.1174C59.0127 69.0134 59.1478 68.9372 59.2948 68.8951C59.4419 68.853 59.5968 68.8461 59.747 68.8749C59.9334 68.9448 60.0934 69.0712 60.2046 69.2364C60.3412 69.5016 60.4178 69.7938 60.4287 70.092Z" fill="#ABA8A7"/>
<path d="M44.2499 67.7264L43.8747 68.2343C43.4172 66.5962 43.0786 64.9536 43.9799 63.3477C44.4604 64.7844 44.2545 66.2622 44.2499 67.7264Z" fill="#97373F"/>
<path d="M36.5807 65.8184L36.6173 66.7335C35.7022 67.7035 34.4851 67.0812 33.4145 67.3008C32.6275 66.4726 32.957 66.0471 33.9407 65.9282C34.8237 65.8458 35.7068 65.8458 36.5807 65.8184Z" fill="#88253A"/>
<path d="M33.4287 67.2822C34.3438 66.1932 35.5883 67.0992 36.6315 66.7148C36.8328 66.8017 37.0123 66.9321 37.157 67.0967C37.3018 67.2612 37.4083 67.4559 37.4689 67.6665L33.9183 67.7489L33.4287 67.2822Z" fill="#DDCED1"/>
<path d="M60.3597 101.149C61.2062 99.5572 59.7008 98.3768 59.623 96.9492C61.1192 98.0428 61.2702 99.7311 61.2199 101.314C61.1924 102.087 60.6159 101.424 60.3597 101.149Z" fill="#9A2D40"/>
<path d="M49.5664 103.863C49.8135 102.924 50.0621 101.983 50.3122 101.04C50.3122 100.834 50.3122 100.633 50.3442 100.427C50.6371 100.066 51.2319 99.6537 51.1587 100.427C51.0443 101.681 50.8613 103.076 49.5664 103.863Z" fill="#992D3F"/>
<path d="M47.3476 101.163C46.3731 101.969 47.6862 102.637 47.4849 103.396C46.1626 102.879 46.1626 101.616 46.3822 100.651C46.6018 99.6855 47.4849 100.848 48.0614 100.591L47.3476 101.163Z" fill="#9C3A46"/>
<path d="M40.3649 97.8093C39.2942 97.7178 38.9465 98.7565 38.2007 99.2049C37.7431 98.6009 38.4294 98.2898 38.5301 97.8322C39.0609 97.3747 39.523 96.7936 40.3603 97.0452C40.3557 97.3015 40.3603 97.5531 40.3649 97.8093Z" fill="#281E1E"/>
<path d="M37.4688 101.077C38.1922 100.086 39.1307 99.2706 40.214 98.6934C39.6833 99.915 38.8551 100.803 37.4688 101.077Z" fill="#912A3A"/>
<path d="M59.0052 72.1785C59.0052 72.3478 59.0052 72.5171 59.0052 72.6864C58.8804 72.7283 58.7516 72.7575 58.6209 72.7733C57.8385 72.6864 56.9874 73.025 56.3057 72.3661C56.3834 72.2746 56.4612 72.1785 56.5344 72.0824C57.3855 71.5425 58.1908 71.936 59.0052 72.1785Z" fill="#FFFFFE"/>
<path d="M59.9751 69.1128L58.8862 69.154C58.8862 69.0396 58.8862 68.9252 58.8633 68.8108L59.0417 68.5134L59.3757 68.4219C60.1627 68.4997 60.9817 68.1794 61.7367 68.6324H61.8785L61.3066 69.1357C61.1093 69.2694 60.8755 69.339 60.6372 69.3349C60.3989 69.3308 60.1677 69.2532 59.9751 69.1128Z" fill="#918E8D"/>
<path d="M41.1382 66.3578C41.55 66.2983 41.9847 66.1885 42.0121 66.8153C41.94 67.0589 41.7907 67.2725 41.5866 67.4239C41.5059 67.4419 41.4215 67.4318 41.3474 67.3952C41.2733 67.3585 41.214 67.2976 41.1794 67.2225L41.216 67.2591C41.0643 67.1497 40.961 66.9857 40.9277 66.8016C40.9458 66.6341 41.0199 66.4777 41.1382 66.3578Z" fill="#552C30"/>
<path d="M59.9748 69.1123L61.3062 69.1489L60.9036 69.6064C60.7579 69.7024 60.5851 69.7485 60.411 69.7378C60.2369 69.7271 60.0709 69.6601 59.9382 69.547C59.9296 69.4011 59.942 69.2547 59.9748 69.1123Z" fill="#F5F5F4"/>
<path d="M59.9385 69.5469L60.9039 69.6064C60.7438 69.7665 60.5882 69.9312 60.4464 70.0914L59.9385 69.5469Z" fill="#757C79"/>
<path d="M40.2731 65.4199C40.8724 65.5023 40.6894 65.9919 40.7626 66.335L40.511 66.4311C40.3403 66.3785 40.1942 66.2665 40.0992 66.1154C40.0477 65.9438 40.0477 65.7608 40.0992 65.5892L40.2731 65.4199Z" fill="#E8E8E7"/>
<path d="M41.6551 67.2592L42.012 66.8291C42.012 67.1448 42.0486 67.4605 42.0715 67.7762C41.9969 67.8337 41.9042 67.8626 41.8102 67.8575C41.7161 67.8525 41.627 67.8139 41.559 67.7488C41.5325 67.7105 41.514 67.6674 41.5044 67.6219C41.4949 67.5763 41.4946 67.5293 41.5036 67.4837C41.5125 67.438 41.5306 67.3946 41.5566 67.3561C41.5826 67.3175 41.6161 67.2846 41.6551 67.2592Z" fill="#AD828A"/>
<path d="M42.2592 68.6231L42.0945 69.1219L41.8612 69.2728L41.6553 69.0944V68.1335C41.7971 67.9688 41.9298 67.9734 42.0579 68.1335L42.2592 68.6231Z" fill="#E2E1DF"/>
<path d="M39.8702 65.3563C39.8556 65.2286 39.868 65.0992 39.9068 64.9766L40.2728 65.4341L40.0349 65.6125L39.8702 65.3563Z" fill="#FFFEFE"/>
<path d="M41.1381 66.3575C41.1688 66.4202 41.1848 66.4891 41.1848 66.5589C41.1848 66.6286 41.1688 66.6975 41.1381 66.7602C41.1178 66.8034 41.0876 66.8412 41.0499 66.8704C41.0122 66.8997 40.9681 66.9196 40.9212 66.9285C40.8744 66.9374 40.826 66.9351 40.7802 66.9218C40.7344 66.9084 40.6924 66.8844 40.6577 66.8517C40.6068 66.7681 40.5885 66.6688 40.6062 66.5725C40.6239 66.4763 40.6764 66.39 40.7538 66.3301V66.3529C40.8819 66.3473 41.0102 66.3488 41.1381 66.3575Z" fill="#FFFCFC"/>
<path d="M42.0582 68.1659H41.6555V68.2162C41.5183 68.0973 41.4817 67.992 41.5412 67.8959C41.6006 67.7999 41.6555 67.7633 41.7059 67.7633C41.8225 67.754 41.9399 67.7632 42.0536 67.7907C42.089 67.9131 42.0906 68.0427 42.0582 68.1659Z" fill="#544849"/>
<path d="M39.8708 38.5984L39.8479 38.7448C39.2521 39.6769 38.3412 40.3638 37.2811 40.6803C35.5379 40.9548 34.4535 42.0804 33.6207 43.5308C33.3567 43.6937 33.0797 43.8345 32.7926 43.9517L31.333 45.3427C29.8597 45.8322 28.9629 47.4062 27.2791 47.5023C26.0117 47.1042 24.8999 47.4657 23.8704 48.2298C22.9514 48.5878 22.0559 49.0035 21.1892 49.4743C19.4917 50.5358 18.1877 50.2567 17.149 48.5592C16.9277 48.1163 16.7964 47.6339 16.7626 47.1399C16.7289 46.646 16.7933 46.1502 16.9523 45.6812C17.0896 45.2557 17.3412 44.6106 17.8308 44.9034C19.359 45.8185 19.9858 44.5145 20.8735 43.8099C22.3651 45.0636 23.5639 43.8648 24.845 43.3523C27.087 43.1602 29.027 42.1581 30.8846 40.996C33.2501 39.5272 35.4372 37.7565 37.972 36.5715C38.6172 36.2695 39.1845 35.0707 40.0859 35.9904C40.9872 36.9101 40.6121 37.7886 39.8708 38.5984Z" fill="#8A8878"/>
<path d="M57.4957 41.7465C57.3076 41.764 57.1185 41.7229 56.9547 41.6286C56.7908 41.5344 56.6602 41.3918 56.5807 41.2203C56.4937 40.7033 55.9767 40.8451 55.6656 40.6346C55.2207 40.4072 54.8428 40.0678 54.5692 39.6497C54.2956 39.2317 54.1357 38.7495 54.1053 38.2508C54.0367 37.4684 54.1053 36.6769 55.2858 37.139C56.0408 37.5187 56.5532 38.324 57.4866 38.3881C57.6806 38.303 57.8957 38.2785 58.1039 38.3176C58.3121 38.3568 58.5036 38.4579 58.6533 38.6077C59.0651 38.928 59.422 39.3077 59.8201 39.6463C60.7581 40.6255 62.3458 40.7399 63.0229 42.0622C63.6315 44.1394 65.663 44.1074 67.1775 44.8395C69.3279 45.3565 71.4784 45.8232 73.7112 45.4846C74.9649 45.416 76.2049 45.3931 77.001 46.6377C76.5663 50.298 74.9283 51.2497 71.7712 49.5522C70.3025 48.7607 68.9116 47.8136 67.15 47.8364C66.2349 47.507 65.242 47.324 64.4596 46.6743C63.0412 45.8278 61.7143 44.8441 60.2822 44.0159C60.2959 42.1491 58.5984 42.3138 57.4957 41.7465Z" fill="#8C8B7C"/>
<path d="M42.1127 33.9002C42.6984 33.1407 42.1127 32.4086 42.0578 31.6628C42.1538 31.4708 42.2902 31.3019 42.4576 31.1676C42.6251 31.0334 42.8196 30.9369 43.0278 30.885C42.95 31.1824 43.1514 30.5555 43.2429 30.8484C43.3435 30.798 43.8102 30.8484 43.4167 30.6287C38.5896 27.7965 34.0279 24.5388 29.2694 21.5968C30.0243 22.6903 31.2094 23.2897 32.2023 24.1087C32.6232 25.1153 34.3939 25.2983 33.8952 26.854C31.4748 25.2983 28.9308 23.8982 26.6705 22.1321C25.2064 20.9882 23.0101 21.4869 21.9486 19.7483C21.9486 19.5332 22.635 19.5012 22.1408 19.1672C21.4957 18.7096 20.9146 18.156 20.123 17.9547C19.0844 17.5475 18.5308 16.6781 18 15.7493C19.0432 15.2918 19.5374 16.2068 20.2145 16.582C21.5872 17.3461 22.7082 18.8698 24.6573 17.6435C25.2842 17.2546 26.03 18.1011 26.6659 18.49C32.3487 22.1504 38.0406 25.7604 43.673 29.4711C45.0914 30.3862 46.3862 31.251 48.0746 30.2078C47.2967 32.07 44.1076 34.0375 42.1127 33.9002Z" fill="#1E3627"/>
<path d="M42.1127 33.8999C44.3061 33.061 46.3235 31.8196 48.0608 30.2395H48.0242C49.2641 29.48 50.4995 28.725 51.7074 27.9243L51.68 27.9472C52.9245 27.206 54.1462 26.4281 55.3678 25.6595H55.3404C57.7745 24.1084 60.2407 22.6122 62.6611 21.084L62.6337 21.1069C63.3886 20.7957 64.2259 19.5649 64.7887 21.3082C64.6606 22.4795 63.6311 22.8227 62.8441 23.3534C59.138 25.8425 55.4319 28.3315 51.7486 30.8526C50.9982 31.3651 50.193 31.818 49.6576 32.5867C48.6785 33.3417 47.6627 34.0463 46.6744 34.7875C45.3933 34.8195 44.5331 35.7621 43.4716 36.2791C42.6206 36.5674 41.6414 37.0295 41.0557 36.0229C40.4701 35.0163 41.3714 34.4215 42.0852 33.8816L42.1127 33.8999Z" fill="#929182"/>
<path d="M42.1265 33.8721C42.035 34.5858 40.7538 34.7551 41.2755 35.7343C41.7971 36.7134 42.8403 35.7754 43.5129 36.2696C42.5291 37.4089 42.0624 39.3581 39.8525 38.5985C39.8655 38.2365 39.9334 37.8786 40.0538 37.537C40.1715 37.2972 40.1993 37.0231 40.1321 36.7645C40.065 36.5059 39.9073 36.28 39.6878 36.1278C39.2714 35.7297 38.9191 36.3337 38.5805 36.5396C34.9933 38.7266 31.7447 41.4628 27.8693 43.1877C26.8627 43.6453 25.8881 44.2401 24.7671 43.5217L24.6299 43.2655C24.8541 42.5471 25.5129 42.2726 26.0437 41.8608C26.4072 41.699 26.7857 41.5733 27.1738 41.4856C28.185 41.4079 29.1871 41.3118 29.9191 40.4836C30.4362 39.413 30.2211 37.9717 31.5388 37.3174C31.8426 37.2121 32.173 37.2121 32.4768 37.3174C33.4926 38.1501 34.4534 38.2325 35.3228 37.1069C35.536 36.8716 35.8266 36.7207 36.1418 36.6814C37.7295 36.8004 38.672 35.5055 39.9486 34.9473C40.7035 34.5996 41.1702 33.7348 42.1265 33.8721Z" fill="#243327"/>
<path d="M46.7069 34.778C46.9769 33.1903 48.3953 32.9478 49.5254 32.3484C50.802 31.0902 52.4217 30.3215 53.8538 29.2874C53.934 29.21 54.0292 29.1497 54.1335 29.1104C54.2378 29.071 54.3491 29.0533 54.4605 29.0585C54.5719 29.0636 54.681 29.0915 54.7813 29.1403C54.8815 29.1891 54.9707 29.2578 55.0435 29.3423C53.6708 30.9895 51.5478 31.6301 49.9693 33.2315C51.5981 34.7734 53.8035 35.5192 55.3226 37.139C53.1721 37.99 55.2173 38.928 55.3226 39.7881C55.3729 40.1679 56.0318 40.4699 56.4161 40.8039L56.2239 40.9503C56.0746 41.0099 55.9436 41.1077 55.8442 41.234C55.5193 41.6915 54.7094 42.4328 54.6408 41.8059C54.3571 39.3031 52.0145 39.1979 50.6876 37.958C50.317 37.6102 49.7359 37.4501 49.832 36.7775C50.1111 36.3199 50.5595 36.4938 50.9576 36.4801C51.1772 36.4801 51.5707 36.4801 51.5752 36.3932C51.6256 35.3865 50.3627 34.8192 49.3607 35.3865C48.3587 35.629 47.5534 34.9793 46.6475 34.7872L46.7069 34.778Z" fill="#1F3427"/>
<path d="M67.2915 47.6439C67.7125 47.374 68.019 46.9073 68.6642 47.3465C69.5501 47.8984 70.4667 48.3994 71.4094 48.8473C74.9829 50.6775 74.9829 50.6775 76.8039 46.6694C76.6809 46.5104 76.6206 46.3117 76.6346 46.1112C76.6941 44.0659 75.111 45.3013 74.3194 44.9627C73.4044 44.9627 72.5259 44.9353 71.7343 44.4228C71.5921 44.3337 71.4709 44.2146 71.3793 44.074C71.2876 43.9334 71.2277 43.7745 71.2036 43.6084C71.2543 43.422 71.3439 43.2485 71.4663 43.0992C71.5887 42.9498 71.7413 42.828 71.914 42.7416C72.0868 42.6552 72.2758 42.6063 72.4687 42.598C72.6617 42.5896 72.8542 42.6221 73.0337 42.6933C74.3057 43.0822 75.5777 42.7711 76.836 42.9358C77.9661 43.5489 79.9656 43.6175 78.6341 45.7909V45.7589C77.9752 46.7609 77.9478 48.0466 77.0876 48.9617H76.9595L76.9092 49.0852C75.7653 51.9952 75.3993 52.1142 71.8121 50.7644H71.8441C70.8215 50.1326 69.761 49.5642 68.6687 49.0623C68.1151 48.7787 67.081 48.7649 67.2915 47.6439Z" fill="#F0F1F0"/>
<path d="M31.974 24.286C29.5627 23.1193 29.279 22.863 28.3594 20.3877L45.3298 31.3276C44.25 32.4761 43.8062 30.9021 43.0421 31.0943C41.2714 30.8106 40.1366 29.1772 38.3659 28.8981L37.3319 28.2255C35.4403 27.0623 33.6483 25.7447 31.974 24.286Z" fill="#9B9A8D"/>
<path d="M55.0434 29.3427C52.8838 29.7545 51.5981 31.7768 49.5254 32.3488C50.5869 30.244 52.8472 29.6355 54.5584 28.3818C57.807 26.0117 61.1745 23.8064 64.4963 21.5415C64.8303 21.2624 65.1964 21.2624 65.384 21.6467C65.6082 22.1043 65.1872 22.4429 65.0042 22.8226C61.4948 24.694 58.3011 27.0641 55.0434 29.3427Z" fill="#E5E8E5"/>
<path d="M17.4099 48.4586C19.7937 51.0575 21.7154 48.0011 23.8796 47.9324C24.2134 47.5681 24.6591 47.3253 25.1463 47.2424C25.6335 47.1596 26.1344 47.2414 26.57 47.4749C26.904 48.1017 26.2725 48.3122 26.0392 48.6965L24.3371 49.3737C22.3376 49.9685 20.5258 51.2039 18.3524 51.2039H18.3799C17.6935 50.4215 16.6778 49.8313 16.8333 48.5501C16.9037 48.4701 16.9999 48.4172 17.1051 48.4005C17.2104 48.3838 17.3181 48.4043 17.4099 48.4586Z" fill="#EFF0EF"/>
<path d="M17.4091 48.4587L17.1895 48.5181L16.9653 48.4953C16.5535 48.5547 16.2836 48.2848 15.9907 48.0697C15.959 47.9295 15.9361 47.7874 15.9221 47.6442C14.9521 44.812 15.007 44.7205 17.7523 43.7688C18.6247 43.5427 19.4318 43.1148 20.1087 42.5197C20.914 42.3458 21.2159 42.8171 21.3486 43.4943C21.3447 43.6188 21.3106 43.7405 21.2492 43.8489C21.1879 43.9573 21.1011 44.0491 20.9963 44.1165C20.8408 45.4251 19.8936 45.75 18.7955 46.0474C17.8164 46.3173 17.9628 45.4983 17.6562 45.0957C17.2626 46.1719 17.177 47.3365 17.4091 48.4587Z" fill="#3C3B35"/>
<path d="M21.1026 43.467C21.0223 43.2368 20.8719 43.0375 20.6724 42.8971C20.473 42.7568 20.2346 42.6825 19.9908 42.6846C19.0116 43.5631 17.973 44.2311 16.5775 43.65C16.5325 43.6149 16.4951 43.571 16.4674 43.5211C16.4397 43.4711 16.4224 43.4161 16.4164 43.3594C16.4104 43.3026 16.4159 43.2452 16.4326 43.1906C16.4493 43.1359 16.4768 43.0853 16.5134 43.0415C19.9588 42.1996 23.3126 40.8544 26.9638 41.2113C27.2338 41.3669 27.2566 41.5499 27.0279 41.7604L26.2272 42.1173C25.3121 42.4696 24.2185 42.314 23.4819 43.1467C22.6995 43.2611 22.0315 44.3089 21.1026 43.467Z" fill="#2E4233"/>
<path d="M8.21778 8.7666L16.4811 14.0421C16.8059 14.2526 17.1399 14.6049 16.7968 14.9572C16.5955 15.1364 16.3343 15.2335 16.0648 15.2293C15.7954 15.2251 15.5373 15.1198 15.3418 14.9343C13.9142 13.8271 12.505 12.6878 11.0866 11.5714C10.0525 10.7524 9.00934 9.94707 7.9707 9.13263L8.21778 8.7666Z" fill="#004D2E"/>
<path d="M16.527 43.5127L19.9906 42.6846C20.0226 43.1421 20.5717 43.7323 19.6566 43.9199C19.4324 43.9657 19.1991 43.984 18.984 44.016C16.8701 44.3089 15.0949 44.8808 15.923 47.649L14.6968 46.2123C13.768 43.5722 13.8092 43.5082 16.527 43.5127Z" fill="#EAEBEA"/>
<path d="M66.2578 18.7184C67.15 17.7759 68.2161 17.1628 69.4927 17.7072C70.7692 18.2517 71.3229 16.664 72.4439 16.9523C72.7779 18.1831 71.5562 18.27 71.0712 18.8648C70.1882 19.5557 69.4103 20.4846 68.088 20.0819C67.5115 19.9035 67.3514 19.1668 66.6879 19.0845C66.5021 19.0235 66.3476 18.8921 66.2578 18.7184Z" fill="#1C3626"/>
<path d="M62.7897 42.1224C61.8426 41.1158 60.2183 41.1113 59.4404 39.8576C60.8909 38.6588 62.1857 39.3314 63.5126 40.1413C64.1577 40.0864 64.4872 40.6629 65.0042 40.8642C65.1721 40.949 65.3263 41.0585 65.4618 41.189C66.2716 41.9028 67.4201 41.427 68.2757 41.9852C68.2757 42.0858 68.2391 42.1865 68.2162 42.2872C66.9854 43.4402 65.4709 42.5434 64.144 42.8042C63.6254 42.7469 63.1446 42.5049 62.7897 42.1224Z" fill="#193725"/>
<path d="M64.9808 41.198C63.6905 41.7607 64.2213 40.1914 63.5761 39.9992C62.2035 38.4801 60.3184 39.2214 58.6621 38.9423L57.5273 38.3932C58.9 37.048 60.4785 37.0206 62.1714 37.5833C64.2762 37.867 64.9808 39.2671 64.9808 41.198Z" fill="#869583"/>
<path d="M65.0177 22.8361C64.8439 22.4105 65.6766 21.5824 64.5099 21.5549C64.3955 19.3312 63.1601 21.7562 62.6797 21.0974C63.5948 19.862 65.004 19.3953 66.2714 18.709L66.4545 18.924C66.4087 19.6927 67.0767 19.7247 67.5388 19.9718C68.001 20.2189 68.0742 20.5986 67.7035 21.0059L65.0177 22.8361Z" fill="#1C3626"/>
<path d="M37.048 42.1495C37.3179 43.1103 36.4989 43.8424 36.4989 44.7484C34.4537 46.4687 34.7099 44.0712 34.0236 43.3757C33.9687 41.7423 34.9982 41.3671 36.3571 41.3854C36.527 41.4448 36.6793 41.5458 36.8 41.6793C36.9207 41.8128 37.006 41.9745 37.048 42.1495Z" fill="#F1F4F3"/>
<path d="M76.777 43.1377C75.72 43.5632 74.6494 43.2658 73.6153 43.1011C72.7643 42.9638 72.0368 42.941 71.3871 43.5587C70.0144 43.7646 68.7516 43.7874 68.1064 42.2363C68.1479 42.1489 68.1985 42.0661 68.2574 41.9893C71.1222 42.0576 73.9798 42.3052 76.8136 42.7305C76.9463 42.8357 76.9829 42.9318 76.928 43.0187C76.873 43.1057 76.8273 43.1377 76.777 43.1377Z" fill="#223E2C"/>
<path d="M32.6282 37.5461L31.5941 37.6331C31.4784 37.5969 31.3766 37.5262 31.3021 37.4305C31.2277 37.3349 31.1843 37.2188 31.1777 37.0977C32.7242 35.661 34.3577 35.1806 36.1604 36.6402L35.5015 37.1481C34.678 38.3102 33.6942 38.2096 32.6282 37.5461Z" fill="#246B47"/>
<path d="M31.9734 24.2871C33.8951 25.4218 36.0913 26.2042 37.3359 28.2266C35.8717 28.5789 35.1397 27.0781 33.8951 26.8539C34.0781 25.4081 31.7401 25.8016 31.9734 24.2871Z" fill="#DFE1DE"/>
<path d="M67.2917 47.6443C68.2892 48.8797 69.854 49.1359 71.158 49.8405C71.5881 50.0785 71.9404 50.2203 71.8626 50.7556C69.1462 49.9131 66.6367 48.5103 64.4961 46.6377C65.4386 46.9671 66.5184 46.8573 67.2917 47.6443Z" fill="#1A4B33"/>
<path d="M38.3701 28.8986C40.4886 28.4411 41.637 30.0425 43.0463 31.0949C42.8953 31.5936 42.4835 31.6393 42.0579 31.6622C40.5114 31.1635 39.4545 30.0105 38.3701 28.8986Z" fill="#42413C"/>
<path d="M37.0476 42.1496L36.5352 41.7378C36.5352 41.66 36.5718 41.5776 36.5855 41.4999C36.6843 41.2795 36.7699 41.0533 36.8417 40.8227C36.8785 40.6642 36.9671 40.5226 37.0934 40.42L39.8386 38.75C39.5687 40.4292 39.5687 42.328 37.0476 42.1496Z" fill="#315F47"/>
<path d="M57.4953 41.7461C59.2797 40.3734 59.8562 42.5376 60.968 43.0409C61.6178 43.3338 60.3961 43.4482 60.5105 43.9057C60.149 44.2123 59.7601 44.0659 59.3712 43.9743C58.662 43.5168 57.541 44.2351 57.0469 43.1874C57.5548 42.8305 57.5364 42.2906 57.4953 41.7461Z" fill="#304035"/>
<path d="M62.6938 21.0742C60.5196 22.9887 58.0467 24.5343 55.373 25.6497C57.5045 23.6786 59.988 22.1264 62.6938 21.0742Z" fill="#19472D"/>
<path d="M31.1768 37.0977L31.5932 37.633C30.3807 38.333 31.2912 39.9939 30.184 40.7351C29.2689 41.1332 28.3538 41.879 27.4707 40.7351C29.7173 40.5521 29.7767 38.1454 31.1768 37.0977Z" fill="#224E33"/>
<path d="M18.3525 51.2042C20.3657 50.646 22.1593 49.374 24.3373 49.374C22.4979 50.4996 20.8096 52.0278 18.3525 51.2042Z" fill="#2B4D3A"/>
<path d="M71.8301 50.7466C72.1961 50.7466 72.6491 50.6413 72.919 50.8152C75.1427 52.2153 75.9617 50.4858 76.9271 49.0674C76.6663 52.0231 74.4747 53.2905 71.8301 50.7466Z" fill="#004D2F"/>
<path d="M57.0288 43.1876C57.7883 43.7549 58.8086 42.4509 59.4995 43.5307C59.7741 43.9883 59.8885 44.4458 59.3943 44.821L59.4538 44.7936C58.0811 45.7864 57.0059 45.9786 56.7451 43.8373L57.0288 43.1876Z" fill="#F6F9F8"/>
<path d="M46.6611 34.7871C47.8279 33.8308 48.4913 35.2447 49.443 35.3636C50.3947 35.4826 51.3373 35.5604 50.6967 36.933L49.8457 36.7774C48.7201 36.233 47.3749 36.0088 46.6611 34.7871Z" fill="#ECEDEB"/>
<path d="M26.0391 48.7065C25.7554 48.13 26.4966 48.0522 26.5561 47.6313C26.4463 47.1966 26.5561 46.977 27.0502 47.1279C28.8347 47.3842 29.6537 45.2978 31.3466 45.3435C29.8523 46.8487 28.0382 47.9981 26.0391 48.7065Z" fill="#1B3926"/>
<path d="M80.4551 11.4343L85.0306 8.23145C84.2024 9.75965 82.8709 10.6702 81.4663 11.4938C81.3986 11.5615 81.3174 11.6141 81.228 11.6482C81.1385 11.6822 81.0429 11.6969 80.9473 11.6913C80.8518 11.6857 80.7585 11.6599 80.6736 11.6156C80.5888 11.5713 80.5143 11.5095 80.4551 11.4343Z" fill="#005B34"/>
<path d="M67.6897 21.0063C67.712 20.8128 67.6687 20.6174 67.5666 20.4514C67.4646 20.2855 67.3097 20.1586 67.127 20.0912C67.1328 19.9963 67.1627 19.9045 67.2139 19.8244C67.2652 19.7443 67.336 19.6787 67.4198 19.6337C68.7695 20.0134 69.8722 19.2356 71.0573 18.8467C70.5769 20.5808 69.1356 20.8004 67.6897 21.0063Z" fill="#144931"/>
<path d="M59.3945 44.8215C59.4311 44.3914 59.4632 43.9613 59.4998 43.5312L60.4927 43.9064C61.9431 44.6751 63.4392 45.3843 64.5145 46.6929C63.2883 46.6929 62.5333 45.7366 61.5999 45.1647C60.8816 44.7254 60.2318 44.3411 59.3945 44.8215Z" fill="#1A5535"/>
<path d="M80.4555 11.4346L81.4621 11.5032C81.0512 12.2368 80.423 12.8251 79.664 13.187C79.2567 13.3517 78.6208 13.887 78.2913 13.2648C77.9893 12.7111 78.5201 12.2856 79.0188 12.0385C79.5175 11.7915 79.9705 11.6313 80.4555 11.4346Z" fill="#1E704C"/>
<path d="M16.5265 43.513C14.6505 43.8836 14.6093 43.9431 14.6963 46.2125C13.1132 43.8287 13.3831 43.3574 16.5265 43.0371V43.513Z" fill="#0E4029"/>
<path d="M20.123 17.9681C21.7428 17.6387 22.4108 18.9839 23.5318 19.661C22.8958 20.5304 22.4474 19.1577 21.9487 19.7617C21.211 19.3113 20.5864 18.6977 20.123 17.9681Z" fill="#E3E6E4"/>
<path d="M64.9812 41.1974C64.5969 39.564 63.9014 38.1685 62.1719 37.5782C65.0498 37.1573 64.9538 39.4359 65.4433 41.1883L64.9812 41.1974Z" fill="#1B5837"/>
<path d="M76.7764 43.1374C76.7764 43.0001 76.7992 42.8629 76.813 42.7256C80.0158 43.2884 80.0524 43.3753 78.6432 45.7683C79.4484 43.8832 77.6732 43.8145 76.7764 43.1374Z" fill="#1A4E34"/>
<path d="M34.463 43.3983C34.8839 44.2356 34.8015 45.8416 36.499 44.7481C36.0735 46.2031 35.2728 46.0658 34.495 45.1095C34.0374 44.5238 33.6989 43.8696 32.8066 43.9428L33.3282 43.4532C33.4909 43.3332 33.6854 43.2639 33.8873 43.2541C34.0892 43.2444 34.2895 43.2945 34.463 43.3983Z" fill="#1C5137"/>
<path d="M15.9912 48.0742C16.371 48.0742 16.7553 48.1017 16.9658 48.4997C16.7599 49.7626 18.2561 50.1469 18.3796 51.245C17.039 50.5953 16.069 49.6756 15.9912 48.0742Z" fill="#274D3A"/>
<path d="M56.7455 43.8369C57.1619 45.539 58.3973 44.9076 59.4542 44.7932C59.3798 45.0218 59.2575 45.232 59.0956 45.4097C58.9336 45.5874 58.7357 45.7286 58.5149 45.8238C58.2941 45.919 58.0556 45.9661 57.8152 45.962C57.5748 45.9579 57.3381 45.9026 57.1207 45.7998C56.1736 45.4566 56.6494 44.5461 56.7455 43.8369Z" fill="#005937"/>
<path d="M27.4717 40.7448C28.3868 41.2023 29.2791 40.5618 30.185 40.7448C29.43 42.0122 28.3045 42.1174 27.0279 41.756C27.005 41.5729 26.9867 41.3899 26.9639 41.2069L27.4717 40.7448Z" fill="#5D6258"/>
<path d="M55.3822 25.6455C54.4124 26.7633 53.1266 27.5609 51.6943 27.9332C52.6359 26.7828 53.9332 25.978 55.3822 25.6455Z" fill="#1E3627"/>
<path d="M51.7213 27.9238C50.7521 29.0457 49.4693 29.852 48.0381 30.239C48.9712 29.0758 50.2685 28.2603 51.7213 27.9238Z" fill="#1E3627"/>
<path d="M77.0879 48.9489C77.6873 47.9194 77.2435 46.3867 78.6344 45.7461C78.6069 47.0318 78.3278 48.2168 77.0879 48.9489Z" fill="#1A4E34"/>
<path d="M56.4292 40.8043C56.6626 40.8409 56.9737 40.6853 57.0698 41.0422C56.9214 41.1118 56.7686 41.1714 56.6122 41.2207L56.4979 41.1795H56.3789C56.2325 41.1017 56.1684 41.0102 56.2005 40.9095C56.2325 40.8089 56.2645 40.7402 56.3103 40.7402L56.4292 40.8043Z" fill="#C4C2C1"/>
<path d="M56.2967 40.7441C56.3099 40.898 56.3328 41.0508 56.3653 41.2017L55.8574 41.252L56.2967 40.7441Z" fill="#060E0A"/>
<path d="M19.6699 81.8874C20.2281 81.3383 20.9419 81.4527 21.6145 81.4527C28.1635 81.4252 34.711 81.41 41.257 81.4069C41.8472 81.4069 42.497 81.2468 42.9499 81.8279C42.2133 82.6972 41.4034 83.5162 40.7491 84.4405C37.5966 88.9107 34.9932 89.7023 30.0654 87.3551C27.9515 86.3484 26.0207 84.9529 23.948 83.8365C22.5708 83.0953 21.102 82.5325 19.6699 81.8874Z" fill="#E5014C"/>
<path d="M53.1533 81.8188C54.7044 80.6612 56.5392 81.2743 58.1863 81.2057C63.4161 80.9769 68.6642 81.0821 73.9031 81.0867C74.2724 81.1338 74.6339 81.2291 74.9783 81.3704C72.1507 83.1365 69.3368 84.9255 66.4908 86.6596C63.288 88.6042 60.2453 88.2244 57.4451 85.8864C55.9352 84.6281 54.5809 83.1823 53.1533 81.8188Z" fill="#E3044C"/>
<path d="M51.7448 72.1549L52.7056 73.2668C52.8217 73.4105 52.9258 73.5635 53.0168 73.7243C53.1357 74.1544 53.424 74.5799 53.0625 75.0283L49.361 80.432H48.6289C48.574 78.1717 48.5206 75.9114 48.4688 73.6511C48.5473 73.5274 48.593 73.3857 48.6014 73.2393C48.8378 72.8648 49.1592 72.5513 49.5394 72.3242C50.2532 72.004 50.9624 71.6333 51.7448 72.1549Z" fill="#E2054D"/>
<path d="M53.0616 75.0288C52.9839 74.5713 52.9015 74.1549 52.8237 73.7157C52.8119 73.5294 52.8725 73.3458 52.993 73.2032C53.5738 73.1038 54.1131 72.8376 54.5453 72.4371C54.9775 72.0366 55.2839 71.519 55.4272 70.9475C55.7781 70.6839 56.0388 70.3179 56.1731 69.9C56.3075 69.4821 56.3091 69.0328 56.1775 68.614L56.0632 68.399C56.0906 68.3258 56.1135 68.248 56.1409 68.1702L56.3285 68.0284L56.5665 68.0009C56.7174 68.0341 56.8575 68.1049 56.9737 68.2068H57.2025C57.9894 68.0101 57.8796 67.0538 58.4836 66.7061C59.0784 67.0584 59.0235 67.6623 59.0784 68.2251C59.1882 68.3441 59.2111 68.4402 59.147 68.5179C59.1291 68.5462 59.1049 68.5699 59.0763 68.5873C59.0478 68.6048 59.0156 68.6155 58.9823 68.6186L59.0052 68.582C58.8222 68.8657 58.5248 68.8336 58.2457 68.8611C58.5293 68.8611 58.8222 68.8291 59.0052 69.1173L58.8862 69.1448C59.3438 70.1468 58.5431 70.6684 58.0489 71.3044C57.9558 71.4567 57.8255 71.5828 57.6702 71.6708C57.5149 71.7589 57.3398 71.806 57.1613 71.8077C56.8097 71.8402 56.4831 72.0035 56.2462 72.2653L56.2965 72.3659C55.5187 72.9287 54.7546 73.4961 54.9239 74.6308C54.869 75.221 54.4663 75.3857 53.9584 75.4681L53.0616 75.0288Z" fill="#312424"/>
<path d="M46.2489 72.7089C46.2489 73.3175 46.7065 73.1665 47.0771 73.2306C47.4203 75.166 47.2006 77.106 47.2281 79.3434C45.3293 77.7923 44.6612 75.5915 43.1422 74.077C43.1422 73.5966 43.5997 73.0933 43.0553 72.6495C43.0122 72.5658 42.9879 72.4737 42.984 72.3797C42.98 72.2857 42.9965 72.192 43.0324 72.105C43.0967 71.9761 43.1867 71.8617 43.2969 71.7689C43.407 71.676 43.535 71.6067 43.6729 71.5651C43.8122 71.5308 43.9588 71.5427 44.0908 71.5988C44.2228 71.6548 44.333 71.7522 44.405 71.8762C44.7756 72.7089 46.0339 71.5513 46.2489 72.7089Z" fill="#E2084D"/>
<path d="M44.4051 71.8805L43.7142 71.7982C43.4338 71.8487 43.1455 71.833 42.8723 71.7524L42.6161 71.6243L42.401 71.4321C42.3421 71.2495 42.259 71.0756 42.1539 70.9151L41.6689 70.4576C41.9206 70.1967 42.0579 69.7117 42.584 70C43.3344 69.7484 44.0848 70.7046 44.8397 70C44.9587 69.8444 45.2378 69.7895 45.1417 69.5059H45.2515C46.5601 70.8785 44.7848 71.121 44.4051 71.8805Z" fill="#AEADAC"/>
<path d="M49.8914 101.141C49.3145 101.913 48.9444 102.82 48.8162 103.776C48.107 103.154 48.1939 102.257 47.8096 101.575L49.8914 101.141Z" fill="#352D2D"/>
<path d="M58.516 96.1035L59.3716 98.9861L57.1846 97.3389C57.2029 96.465 58.3284 96.7807 58.516 96.1035Z" fill="#362E2F"/>
<path d="M40.7124 72.3246C37.8024 73.2397 37.0749 72.9468 36.9102 70.8925C38.4704 70.5813 39.8842 70.6774 40.7124 72.3246Z" fill="#C1BFBE"/>
<path d="M42.5838 69.9864L41.6688 70.4439L41.6367 69.4465C41.8157 69.3455 41.9791 69.2192 42.1217 69.0713L42.0943 69.117C42.9636 69.0118 42.5518 69.6249 42.5838 69.9864Z" fill="#DEDDDE"/>
<path d="M38.5625 67.1541L39.3815 66.8018C39.4974 66.9106 39.5664 67.0602 39.5741 67.219C39.5818 67.3777 39.5275 67.5333 39.4227 67.6528C39.02 67.6757 38.654 67.6757 38.5625 67.1541Z" fill="#8D8C8B"/>
<path d="M40.6943 66.7972C40.8453 66.7972 40.9963 66.7697 41.1519 66.7606L41.2205 67.273C41.0741 67.273 40.9277 67.273 40.7629 67.273C40.6227 67.3928 40.4481 67.4649 40.2642 67.4789C40.0778 67.4823 39.8951 67.4262 39.7426 67.3188L39.6328 67.058C39.6328 66.9665 39.6786 66.8796 39.706 66.788C39.8355 66.6509 40.012 66.5676 40.2002 66.5547C40.2947 66.5594 40.3873 66.5833 40.4723 66.625C40.5572 66.6667 40.6328 66.7253 40.6943 66.7972Z" fill="#A1A1A1"/>
<path d="M42.5748 72.3837C42.2774 72.2006 41.7054 72.3837 41.71 71.7797C41.8612 71.6375 42.0018 71.4846 42.1309 71.3221L42.076 71.3679C42.1343 71.3064 42.2133 71.2686 42.2978 71.2618C42.3823 71.2551 42.4663 71.2798 42.5336 71.3313V71.3542C42.6507 71.4448 42.7353 71.5708 42.7749 71.7135C42.8145 71.8561 42.8069 72.0077 42.7532 72.1457L42.5748 72.3837Z" fill="#959290"/>
<path d="M39.8247 66.7611L39.8567 67.3056C39.9894 67.4337 40.0214 67.5389 39.9436 67.6121C39.9195 67.6396 39.89 67.6619 39.857 67.6776C39.8239 67.6934 39.788 67.7022 39.7515 67.7037C39.6407 67.7089 39.5297 67.6981 39.422 67.6716L39.3809 66.8206V66.8435C39.4024 66.8064 39.4317 66.7744 39.4667 66.7497C39.5017 66.725 39.5417 66.7081 39.5838 66.7003C39.626 66.6925 39.6694 66.6939 39.7109 66.7044C39.7525 66.7149 39.7913 66.7342 39.8247 66.7611Z" fill="#ECEBEB"/>
<path d="M41.7242 67.7491C41.7242 67.9001 41.6921 68.0511 41.6738 68.2066C41.0836 68.1014 41.2163 67.6164 41.1797 67.2412H41.6372L41.7242 67.7491Z" fill="#FDFEFE"/>
<path d="M43.0644 72.357C43.101 72.4528 43.101 72.5587 43.0644 72.6544L42.584 72.3845V72.1923L42.8677 72.1328L43.0644 72.357Z" fill="#605F5D"/>
<path d="M42.1217 69.0762C42.0439 69.3095 42.0348 69.639 41.6367 69.4559C41.6571 69.3363 41.6571 69.2141 41.6367 69.0945L42.1217 69.0762Z" fill="#2D302F"/>
<path d="M40.2916 67.2598H40.772L40.3419 67.6853C40.1955 67.6075 40.136 67.516 40.1726 67.4153C40.2092 67.3147 40.2458 67.2598 40.2916 67.2598Z" fill="#FEFEFE"/>
<path d="M40.2919 67.2594C40.274 67.4047 40.2912 67.5522 40.3422 67.6895H39.752C39.8168 67.5665 39.8528 67.4304 39.8572 67.2914C39.9951 67.2354 40.1472 67.2242 40.2919 67.2594Z" fill="#434242"/>
<path d="M42.5572 71.336L42.0996 71.3726C42.1271 71.217 42.1499 71.0615 42.1774 70.915C42.2872 71.0615 42.4245 71.2033 42.5572 71.336Z" fill="#FAF9F9"/>
<path d="M50.7741 65.493C51.1401 67.2591 51.6892 69.0298 50.7283 70.7868C50.6643 71.1254 50.4035 71.162 50.1289 71.1711C49.9498 71.1366 49.7799 71.0649 49.6302 70.9607C49.4171 70.7919 49.2385 70.5838 49.104 70.3475C48.9439 69.9403 48.8158 69.5148 48.6465 69.1167L48.7929 68.3252C48.9371 68.2273 49.0761 68.122 49.2093 68.0095C49.2981 67.8852 49.3733 67.7518 49.4335 67.6114C49.4563 67.465 49.4838 67.3186 49.4929 67.1539C49.5021 66.9891 49.4929 66.8427 49.5158 66.6963C49.5257 66.5325 49.5518 66.37 49.5936 66.2113C49.6461 66.0505 49.7184 65.8968 49.8087 65.7538C49.9555 65.5337 50.164 65.3618 50.408 65.2596C50.4873 65.2443 50.5694 65.26 50.6375 65.3034C50.7056 65.3468 50.7545 65.4146 50.7741 65.493Z" fill="#C2BCBB"/>
<path d="M48.6237 69.1172C48.8995 69.248 49.1321 69.4549 49.2942 69.7134C49.4564 69.972 49.5412 70.2716 49.5388 70.5768C49.6669 70.6912 49.7859 70.8055 49.9003 70.9291C50.5774 71.7435 50.1153 72.3017 49.4702 72.8096L48.6374 73.2671C48.6222 71.8732 48.6176 70.4898 48.6237 69.1172Z" fill="#D4CBCB"/>
<path d="M49.8727 68.2889C49.5204 68.783 49.1452 68.5222 48.77 68.3255C48.7059 68.1059 48.6465 67.8679 48.5824 67.6575L48.7105 67.479L48.5732 67.3097L48.5961 66.7561C48.6965 66.6594 48.8247 66.5967 48.9627 66.577C49.1007 66.5573 49.2414 66.5815 49.3648 66.6463C49.5657 66.8385 49.7397 67.057 49.8818 67.296C49.8818 67.418 49.8818 67.5416 49.8818 67.6666C49.8353 67.7037 49.7975 67.7506 49.7713 67.8041C49.7451 67.8575 49.731 67.9161 49.7302 67.9756C49.7293 68.0351 49.7416 68.094 49.7663 68.1482C49.7909 68.2024 49.8272 68.2504 49.8727 68.2889Z" fill="#969494"/>
<path d="M49.4568 66.7885L48.5966 66.7565C48.8071 66.1434 47.8737 65.2283 49.0862 64.876C49.2097 65.0773 49.4339 65.2008 49.5437 65.4159L49.6123 65.6447C49.6123 65.7224 49.5895 65.8002 49.5803 65.878C49.6261 66.029 49.1914 65.9466 49.4293 66.1937L49.5757 66.3722C49.5757 66.4499 49.5757 66.5277 49.6078 66.6055L49.4568 66.7885Z" fill="#D7D1D1"/>
<path d="M50.3442 65.4108L49.8089 66.0147L49.6853 65.85C49.6671 65.7171 49.6396 65.5856 49.603 65.4565C49.5444 65.3325 49.4484 65.2301 49.3284 65.1637C49.2655 65.137 49.2104 65.095 49.168 65.0414C49.1256 64.9878 49.0974 64.9245 49.0859 64.8571L50.3671 64.3584C50.3861 64.3673 50.4027 64.3808 50.4153 64.3977C50.4279 64.4146 50.4361 64.4343 50.4393 64.4551C50.4424 64.4759 50.4404 64.4972 50.4334 64.517C50.4264 64.5369 50.4146 64.5547 50.3991 64.5689C50.4969 64.7014 50.5498 64.8617 50.5501 65.0264C50.5482 65.1021 50.5285 65.1763 50.4928 65.243C50.457 65.3098 50.4061 65.3672 50.3442 65.4108Z" fill="#A89E9E"/>
<path d="M49.4427 65.425C49.1682 65.3427 49.0172 65.1825 49.0858 64.876L49.5434 65.0361L49.6349 65.2695L49.4427 65.425Z" fill="#837575"/>
<path d="M48.5739 67.3096L48.9125 67.4743L48.583 67.6573C48.5502 67.6056 48.532 67.5459 48.5304 67.4847C48.5288 67.4235 48.5438 67.3629 48.5739 67.3096Z" fill="#FBF3F4"/>
<path d="M49.4336 72.7912C49.699 72.1918 50.3029 71.6702 49.8637 70.9107L50.7285 70.7871L52.1011 70.8878C52.1757 71.1089 52.1834 71.3471 52.1232 71.5726C52.0629 71.7981 51.9375 72.0007 51.7625 72.1552L49.4336 72.7912Z" fill="#672531"/>
<path d="M52.9933 73.2031L52.8377 73.7156C52.8011 73.5692 52.7599 73.4182 52.7188 73.258C52.8134 73.2634 52.9079 73.2445 52.9933 73.2031Z" fill="#FDEEF0"/>
<path d="M58.9824 68.6278C59.0415 68.5047 59.0743 68.3707 59.0785 68.2343C59.957 68.4219 60.9773 67.6395 61.7369 68.6324L58.9824 68.6278Z" fill="#F1F0F0"/>
<path d="M50.3398 64.9305C50.3689 64.8071 50.3888 64.6817 50.3993 64.5553C50.7105 64.4867 50.8065 64.656 50.8065 64.9305C50.7838 64.9725 50.7501 65.0076 50.709 65.0321C50.6679 65.0566 50.621 65.0695 50.5732 65.0695C50.5254 65.0695 50.4785 65.0566 50.4374 65.0321C50.3963 65.0076 50.3626 64.9725 50.3398 64.9305Z" fill="#F6FBFC"/>
<path d="M50.3395 64.9307H50.7971C50.7971 65.1091 50.7742 65.2921 50.7651 65.4751C50.6232 65.4431 50.4768 65.4202 50.335 65.3974C50.3441 65.2555 50.3395 65.1 50.3395 64.9307Z" fill="#505E5A"/>
<path d="M39.3539 66.3029C39.3488 66.1141 39.3941 65.9273 39.4849 65.7617C39.5757 65.5961 39.709 65.4576 39.8709 65.3604L39.8343 65.4519C39.9489 65.5655 40.0178 65.7173 40.028 65.8784C40.0381 66.0395 39.9887 66.1987 39.8892 66.3258C39.855 66.3638 39.8127 66.3938 39.7655 66.4135C39.7183 66.4333 39.6673 66.4425 39.6162 66.4403C39.565 66.4381 39.515 66.4246 39.4697 66.4009C39.4244 66.3771 39.3848 66.3437 39.3539 66.3029Z" fill="#D6D6D6"/>
<path d="M39.3532 66.3037L39.8108 66.3769L40.0075 66.6057L39.7833 66.807L39.8062 66.7521L39.3486 66.8299L39.3532 66.3037Z" fill="#494949"/>
<path d="M56.7271 67.264C57.2212 67.415 57.1617 67.8405 57.1846 68.2157L57.2121 68.17C57.1392 68.2298 57.0478 68.2626 56.9535 68.2626C56.8593 68.2626 56.7679 68.2298 56.695 68.17V68.2066C56.6317 68.1439 56.5818 68.0689 56.5485 67.9862C56.5151 67.9035 56.499 67.8149 56.5012 67.7258C56.5033 67.6367 56.5236 67.5489 56.5609 67.468C56.5982 67.387 56.6516 67.3145 56.7179 67.2549L56.7271 67.264Z" fill="#7E807E"/>
<path d="M55.3223 68.2297C55.3975 67.9978 55.5301 67.7886 55.7076 67.6214C55.8852 67.4543 56.102 67.3346 56.338 67.2734C56.4412 67.411 56.4924 67.5808 56.4823 67.7525C56.4723 67.9242 56.4017 68.0868 56.2831 68.2114L56.3197 68.1611C56.1673 68.2966 56.0321 68.4502 55.9171 68.6186L55.3223 68.2297Z" fill="#888785"/>
<path d="M55.917 68.6363L56.3196 68.1787L56.1778 68.6363C56.0912 68.6249 56.0036 68.6249 55.917 68.6363Z" fill="#DADAD8"/>
<path d="M54.4434 68.2198L54.997 68.1924C54.8231 68.3708 54.6676 68.6957 54.4434 68.2198Z" fill="#808582"/>
<path d="M56.2832 68.2109L56.3381 67.2729C56.4766 67.2593 56.616 67.2593 56.7545 67.2729C56.7545 67.5887 56.7545 67.9089 56.7316 68.2247L56.2832 68.2109Z" fill="#CBCBC9"/>
<path d="M45.1418 69.5059C45.1637 69.558 45.173 69.6146 45.1687 69.671C45.1644 69.7274 45.1468 69.782 45.1173 69.8303C45.0879 69.8785 45.0473 69.9191 44.9991 69.9486C44.9508 69.9781 44.8962 69.9957 44.8398 70L45.1418 69.5059Z" fill="#817C7D"/>
<path d="M56.2646 72.2515C56.2646 71.8626 56.3104 71.5011 56.7725 71.3867C57.2896 71.8443 58.0262 71.3456 58.5387 71.7985L58.9962 72.1646L56.2646 72.2515Z" fill="#777473"/>
<path d="M58.5386 71.7936C57.9484 71.6747 57.2163 72.146 56.7725 71.3819L58.049 71.2949L58.5386 71.7936Z" fill="#F9F8F8"/>
<path d="M59.0053 69.1262L58.2549 68.8654L59.0053 68.5908V69.1262Z" fill="#D1CDCC"/>
<path d="M39.8253 66.3716V65.4565L40.2829 65.4199V66.3899L40.0266 66.5318L39.7979 66.3487L39.8253 66.3716Z" fill="#7C7B7B"/>
<path d="M40.6944 66.7974L40.4839 66.7608L40.2735 66.7974C40.1606 66.6846 40.1286 66.5794 40.1774 66.4818C40.2231 66.3857 40.2689 66.3353 40.3101 66.3353L40.278 66.3765L40.7585 66.3262L40.6944 66.7974Z" fill="#333532"/>
<path d="M21.1026 43.4664C21.9674 43.8599 22.4753 42.4507 23.3904 43.0089C24.0584 42.5514 24.4519 42.8945 24.763 43.4664L24.7904 43.4939C24.1224 44.9123 22.6583 44.8345 21.4595 45.1411C20.9287 45.2738 21.1941 44.4456 21.002 44.0979C21.0248 43.9057 21.066 43.6861 21.1026 43.4664Z" fill="#383730"/>
<path d="M34.4628 43.3986L33.3281 43.4535C33.7857 41.4265 35.0714 40.4794 37.0937 40.4199C37.1126 40.5283 37.1386 40.6353 37.1715 40.7402C37.3362 41.2252 36.9748 41.3853 36.6591 41.5775L36.5355 41.7377C35.5289 41.8978 34.1883 41.637 34.4628 43.3986Z" fill="#353832"/>
<path d="M27.0507 47.1274L26.5565 47.6307C25.6526 47.5371 24.7392 47.6417 23.8799 47.9372C24.6486 46.5463 25.7787 46.5554 27.0507 47.1274Z" fill="#53524C"/>
<path d="M71.8626 44.0437C72.6862 44.5745 73.647 44.3365 74.5393 44.5013C74.656 44.5868 74.7404 44.7093 74.7786 44.8489C74.8168 44.9885 74.8066 45.1369 74.7497 45.2699C74.5842 45.5117 74.3499 45.6981 74.0771 45.8053C71.5561 46.7204 69.1814 45.8647 66.7838 45.2379C66.6347 45.0771 66.5357 44.8763 66.4992 44.6601C66.4626 44.4439 66.49 44.2217 66.5779 44.0208C68.3441 42.5841 70.101 44.1947 71.8626 44.0437Z" fill="#393730"/>
<path d="M58.6621 38.9419C60.4923 38.3288 62.3774 37.615 63.5762 39.9989C63.4892 40.5708 62.8258 41.4539 62.7389 41.0878C62.1898 38.8321 60.5289 40.2047 59.4399 39.857L58.6621 38.9419Z" fill="#00925A"/>
<path d="M66.8198 43.8833C66.8198 44.3409 66.7924 44.7984 66.7832 45.256C65.7034 44.7984 64.6145 44.3409 63.5438 43.8833C62.766 43.5447 62.3588 43.014 62.7889 42.1401C63.2464 42.1401 63.7543 42.0623 64.0517 42.5656C64.8249 43.3022 66.6185 41.9342 66.8198 43.8833Z" fill="#292823"/>
<path d="M74.0771 45.814L74.5347 45.3244C75.7335 44.6975 76.7035 44.6106 76.9139 46.3264C76.9058 46.4468 76.8714 46.5639 76.8133 46.6696C75.9256 46.331 75.0746 45.8323 74.0771 45.814Z" fill="#201F19"/>
<path d="M32.6279 37.5468C33.5888 37.4141 34.6183 37.8304 35.5013 37.167C34.3895 39.2077 34.0509 39.2534 32.6279 37.5468Z" fill="#00955F"/>
<path d="M24.7535 43.4902L23.3809 43.0327C23.9025 41.3992 25.0738 41.779 26.2314 42.1176C26.0712 42.9229 24.9274 42.7078 24.7535 43.4902Z" fill="#79776D"/>
<path d="M50.6966 36.9335C50.6234 36.1328 50.0468 35.7393 49.4429 35.3641C49.5664 34.6915 48.2212 34.6046 48.7245 33.9915C49.388 33.1633 49.8364 34.2706 50.3946 34.449C50.8086 34.6268 51.1881 34.8761 51.5156 35.1856C52.0601 35.6157 53.2542 35.7805 52.8882 36.6315C52.5222 37.4825 51.4927 37.1485 50.6966 36.9335Z" fill="#959487"/>
<path d="M66.8199 43.8838C66.3303 42.5432 64.372 44.259 64.0518 42.5569C65.3466 41.7699 66.797 42.8543 68.1056 42.2412C68.9933 43.1929 70.43 42.7811 71.3862 43.5635L71.8438 44.0531C71.7614 44.4283 71.5784 44.9453 71.1712 44.712C69.8123 43.9113 68.2886 44.0851 66.8199 43.8838Z" fill="#7B796F"/>
<path d="M76.9232 46.3268C76.4977 45.1281 75.459 45.3706 74.5439 45.3248C74.5439 45.0548 74.5439 44.7803 74.5439 44.5104C75.0701 44.4829 75.5963 44.4234 76.1225 44.4326C77.7422 44.4738 77.9298 45.1509 76.9232 46.3268Z" fill="#5A5955"/>
<path d="M67.4202 19.6335L67.1273 20.091C66.6332 20.091 65.8416 20.2511 65.7135 20.0269C65.3841 19.4733 66.2214 19.3452 66.441 18.9334C66.8986 18.8007 67.5529 18.4164 67.7908 18.5903C68.1248 18.8282 67.594 19.2811 67.4202 19.6335Z" fill="#94978B"/>
<path d="M36.6592 41.5961L37.1716 40.7588C37.7115 41.4588 37.3547 41.619 36.6592 41.5961Z" fill="#2A4F3A"/>
<path d="M56.7129 68.1699H57.2299L57.0561 68.5177L56.7129 68.1699Z" fill="#FEFEFD"/>
<path d="M43.0279 71.373L43.7142 71.7986L43.0645 72.3568L42.9913 72.2424C42.9358 72.1833 42.8926 72.1138 42.8644 72.0378C42.8361 71.9618 42.8233 71.881 42.8267 71.8C42.8301 71.719 42.8497 71.6396 42.8842 71.5662C42.9188 71.4929 42.9676 71.4272 43.0279 71.373Z" fill="#676867"/>
<path d="M43.0279 71.3735C43.0279 71.6617 43.005 71.9546 42.9913 72.2428H42.7854L42.5932 72.1742C42.5932 71.8996 42.5704 71.6251 42.5566 71.3506L43.0279 71.3735Z" fill="#E2E3E0"/>
<path d="M40.3149 66.3398C40.3149 66.4954 40.292 66.6464 40.2783 66.7974H39.7979V66.3398H40.3149Z" fill="white"/>
<path d="M49.873 68.2883C49.5482 68.0778 49.4933 67.8673 49.873 67.666V68.2883Z" fill="#E3E5E2"/>
<path d="M49.8081 66.0153C49.831 66.1342 49.8539 66.2532 49.8814 66.3676C49.7075 66.5552 49.5519 66.5369 49.4238 66.3218L49.4558 66.363C49.4086 66.3248 49.3732 66.274 49.3538 66.2165C49.3343 66.159 49.3316 66.0971 49.346 66.0381C49.3826 65.9238 49.4147 65.8688 49.4513 65.8688L49.4146 65.91C49.5473 65.6996 49.7029 65.6721 49.8722 65.8551L49.8081 66.0153Z" fill="#EDECEB"/>
<path d="M49.882 67.296L49.4565 66.7881L49.4199 66.8156C49.4684 66.7429 49.5435 66.6921 49.6291 66.6741C49.7146 66.6562 49.8038 66.6724 49.8775 66.7195L49.882 67.296Z" fill="#F6F5F3"/>
<path d="M49.8775 66.7201L49.4199 66.8116V66.3037L49.8775 66.3495C49.8598 66.4724 49.8598 66.5972 49.8775 66.7201Z" fill="#7E7F7D"/>
<path d="M49.8775 65.8457L49.4199 65.9006C49.4199 65.7405 49.4428 65.5758 49.452 65.4156L49.4245 65.4431C49.4508 65.4072 49.4853 65.3779 49.525 65.3578C49.5648 65.3376 49.6087 65.3271 49.6533 65.3271C49.6978 65.3271 49.7418 65.3376 49.7815 65.3578C49.8213 65.3779 49.8557 65.4072 49.882 65.4431C49.8736 65.5771 49.8721 65.7115 49.8775 65.8457Z" fill="#525250"/>
<path d="M49.4471 65.8682C49.4471 66.0329 49.4471 66.1976 49.4471 66.3623L49.0811 66.0466L49.4471 65.8682Z" fill="#5A5A59"/>
<path d="M49.8824 65.4523H49.4248C49.4331 65.3011 49.472 65.1532 49.5392 65.0176L49.8824 65.4523Z" fill="#E8E5E4"/>
</g>
<defs>
<clipPath id="clip0_1347_20471">
<rect width="97" height="118.962" fill="white"/>
</clipPath>
</defs>
</svg>
